<svg xmlns="http://www.w3.org/2000/svg" width="740" height="316" viewBox="0 0 555 237"><path d="M271.6 8.1c-3.5 2.8-3.7 9.5-.3 12.7 5.5 5.1 14.7 1.2 14.7-6.3 0-7.4-8.4-11.1-14.4-6.4zM264 28.5c0 .8.7 1.5 1.5 1.5 2 0 4.7 4.4 4.3 7.2-.2 1.7-1.1 2.4-3.8 2.9-8.3 1.3-16.6 7.7-20.1 15.3-2.2 5-2.5 15.2-.5 20 2.3 5.5 8.5 11.5 16.8 16.3l7.8 4.6v15.1c0 12.1-.3 15.6-1.6 17.4-.8 1.2-2.2 2.2-3 2.2-.8 0-1.4.4-1.4 1s5.2 1 13.5 1 13.5-.4 13.5-1-.6-1-1.3-1c-.8 0-2.1-.8-3-1.8-1.4-1.5-1.7-4-1.7-13 0-6.2.3-11.2.8-11.2 2.1.1 10.8 7.3 13.3 11 2.9 4.3 3.4 6.7 3 12.5-.9 9.8-12 17.3-24 16.2-12.6-1.1-23.5-8.8-28.8-20.3-1.3-3-2.9-5.4-3.4-5.4-1.2 0-1.2 26.7 0 27.4.4.3 1.6-.3 2.6-1.4 2.5-2.8 7.4-2.5 16.7.8l7.6 2.7-1.9 2.4c-3.4 4.2-2.4 10.3 2.2 12.7 2.2 1.1 2.9 2.2 2.9 4.4v3H143c-117.6 0-133 .2-133 1.5s30.1 1.5 265 1.5 265-.2 265-1.5-15.2-1.5-130.5-1.5c-71.8 0-130.5-.2-130.5-.5s1.6-2.9 3.5-5.8c3.8-5.6 4.4-9.9 2-13.4-1.4-2-1.3-2.2 2.5-2.8 6.4-1.1 15.6-6.2 19.9-11.1 9.3-10.5 9.3-24.8.1-36.4-4.1-5.2-8-7.8-27.5-18.6-17.9-9.8-24.8-15.6-25.9-21.7-.8-4.3 1-9.1 4.7-12.5 2.6-2.5 9.6-5.4 10.9-4.5.5.2.8 6.8.8 14.7v14.2l7.3 4.1 7.2 4 .5-24.4c.5-25.2.7-26.2 4.8-26.3.6 0 1.2-.7 1.2-1.5 0-1.3-2.2-1.5-13.5-1.5s-13.5.2-13.5 1.5z"/><path d="M302.5 42.1c-1.7 2.7-5.8 2.8-11.7.4-3.4-1.3-1.9 2.7 2.1 6.2 4.2 3.5 9.1 12.2 9.1 16 0 1.4.6 2.3 1.5 2.3 1.3 0 1.5-2.1 1.5-13 0-11.9-.7-15-2.5-11.9zM51.1 65.9c-1.4 2.5-.5 4.8 2 5.6 2.7.9 5.1-1.3 4.7-4.4-.4-3.4-5.1-4.3-6.7-1.2zM63 65.5c-2.6 3.2 1.3 8.1 4.8 5.9C71.2 69.2 70 64 66 64c-1 0-2.3.7-3 1.5zM155 65.5c-2.6 3.2 1.3 8.1 4.8 5.9 3.4-2.2 2.2-7.4-1.8-7.4-1 0-2.3.7-3 1.5zM11.8 77l-.5 3H22v26h6.9l.3-12.8.3-12.7 5.3-.3c5-.3 5.2-.4 5.2-3.3V74H12.2l-.4 3zM45 84.7c0 11.9 1.3 16.1 6.1 19.6 4 2.9 10.7 3.3 16.1.9 6.5-2.8 7.8-6.2 7.8-20.1V74h-7v10c0 11.4-1.3 15.4-5.6 16.4-3.9 1-8.1-1.1-9.3-4.6-.6-1.7-1.1-7.3-1.1-12.4V74h-7v10.7zM82 90v16h7V95h4c3.8 0 4.1.3 7.1 5.5 2.9 5.2 3.3 5.5 7 5.5 2.1 0 3.9-.2 3.9-.5s-1.3-2.9-3-5.7l-2.9-5.2 3-2.6c4.1-3.4 5-9.4 1.9-13.2-2.8-3.6-7.5-4.8-18.7-4.8H82v16zm21-8c3.9 3.9.2 7-8.4 7H89v-9h6c4.6 0 6.4.4 8 2zM118 90v16h7v-4.8c0-4.1.5-5.3 3-7.7 1.6-1.6 3.2-2.7 3.4-2.4.2.2 2.4 3.7 5 7.6 4.4 7.1 4.7 7.3 8.6 7.3 2.2 0 4-.3 4-.6s-2.7-4.7-6-9.8c-3.3-5.1-6-9.7-6-10.2 0-.4 2.3-3.2 5.2-6.1l5.2-5.3H143c-4.3 0-4.8.3-11.2 7.2l-6.7 7.3-.1-7.3V74h-7v16zM155 74.2c0 .2-.2 7.4-.3 16.1l-.2 15.7h7.5V74h-3.5c-1.9 0-3.5.1-3.5.2zM166 74.6c0 .3 2.9 4.6 6.5 9.6 6.4 8.9 6.5 9.2 6.5 15.5v6.3h8v-6.5c0-6.4.1-6.6 6.5-15.5 3.6-4.9 6.5-9.2 6.5-9.5 0-.3-1.8-.5-3.9-.5-3.8 0-4.1.3-8.3 7-2.4 3.8-4.5 6.9-4.8 6.9-.3 0-2.4-3.1-4.8-6.9-4.2-6.7-4.5-7-8.3-7-2.1 0-3.9.3-3.9.6zM204 90v16h26v-6h-19v-8h5.6c5.4 0 5.5 0 5.2-2.8-.3-2.5-.7-2.7-5.5-3-5.1-.3-5.3-.4-5.3-3.3V80h18v-6h-25v16zM326 90v16.2l12-.4c11.5-.3 12.1-.4 14.7-3 3.6-3.6 3.7-9.2.4-11.9-2.2-1.8-2.3-2.1-.7-3.7 2.5-2.8 2-7.5-1-10.3-2.3-2.2-3.5-2.4-14-2.8l-11.4-.3V90zm20-8.5c2.5 3 .4 4.5-6.5 4.5H333v-3c0-3 0-3 5.9-3 4 0 6.3.5 7.1 1.5zm1.4 12.7c2.1 3.5-.4 5.3-7.8 5.6l-6.6.3v-8.2l6.6.3c5.1.2 7 .7 7.8 2zM364.3 90l-7.1 16h3.9c3.5 0 4-.4 5.3-3.5l1.5-3.5h13.7l1.3 3.5c1.1 3.2 1.6 3.5 5.2 3.5 2.1 0 3.9-.2 3.9-.4s-3.1-7.2-6.8-15.7c-6.8-15.4-6.8-15.4-10.3-15.7l-3.4-.3-7.2 16.1zm13-1.3L379 93h-8.8l2.1-5c2.3-5.5 2.6-5.5 5 .7zM396 90v16h6.9l.3-10 .3-10 7.8 10c7.2 9.2 8.1 10 11.2 10h3.5V74h-6.9l-.3 10.2-.3 10.3-7.9-10.3c-7.2-9.3-8.2-10.2-11.2-10.2H396v16zM433 90v16h3.5c3.5 0 3.5-.1 3.5-4.3 0-3.6.6-4.9 3.4-7.6l3.4-3.3 4.7 7.6 4.7 7.6h14.4l1.3-3.5 1.3-3.6 7.1.3c7.1.3 7.1.3 8.1 3.5.8 3.1 1.2 3.3 5.1 3.3h4.2l-7.1-16-7.1-16.1-3.5.3c-3.4.3-3.5.4-9.5 14-3.3 7.5-6.3 13.9-6.6 14.2-.6.6-11.9-15.7-11.9-17.1 0-.4 2.3-3.1 5.2-6l5.2-5.3h-3.9c-3.6 0-4.7.7-11.2 7.2l-7.3 7.2V74h-7v16zm48.9-3.3c.8 2.1 1.6 4.4 1.8 5 .4.9-.7 1.3-3.7 1.3s-4.1-.4-3.7-1.3c.2-.6 1-2.9 1.8-5 .7-2 1.6-3.7 1.9-3.7.3 0 1.2 1.7 1.9 3.7zM505.1 75.3c-4.1 2.1-6.4 6-5.6 9.6.8 3.7 3.8 5.9 9.7 7.2 6.9 1.5 9.8 3 9.8 5 0 1-1 2.3-2.1 3-2.7 1.4-9.7.4-12-1.7-1.5-1.3-2-1.3-4.5.9l-2.8 2.5 3.4 2c6.6 4.1 17.8 4 22.6-.1 1.4-1.3 2.7-3.7 3-5.8.9-5.4-2.3-8.6-11-10.7-7.3-1.9-10.4-4.4-7.6-6.2 2.2-1.4 7.1-1.2 10.3.5 2.5 1.3 2.9 1.2 5.4-.9l2.6-2.3-4.5-2.1c-5-2.5-12.9-2.9-16.7-.9zM533 90v16h7V74h-7v16zM146.5 190.4c-2 1.5-1.5 4.3 1 5.2 1.8.7 4.5-1.2 4.5-3.2 0-2.2-3.5-3.5-5.5-2zM199.5 190.4c-2 1.5-1.5 4.3 1 5.2 1.8.7 4.5-1.2 4.5-3.2 0-2.2-3.5-3.5-5.5-2zM134.4 191.5c-1 2.4 1.9 4.9 4.5 4 1.6-.5 2.1-1.3 1.9-2.8-.4-2.8-5.5-3.7-6.4-1.2zM163.7 191.3c-1.6 1.1-1.7 3-1.5 17.1.3 15.7.3 15.9 2.6 16.1l2.2.2v-17.4c0-9.5-.4-17.3-.8-17.3-.5 0-1.6.6-2.5 1.3zM178.8 191.1c-1.2.6-1.8 2.2-1.8 4.4 0 2.7-.4 3.4-2.2 3.7-1.5.2-2.3 1-2.3 2.3 0 1.3.8 2.1 2.3 2.3 2.1.3 2.2.8 2.2 9.2 0 6.7.4 9.2 1.6 10.4 1.8 1.9 7.5 2.1 9.2.4 2.2-2.2 1.3-3.6-2-3.4l-3.3.1-.3-8.3-.3-8.2h3.6c3.1 0 3.5-.3 3.5-2.5s-.4-2.5-3.5-2.5c-3.5 0-3.5 0-3.5-4.5 0-4.7-.4-5.1-3.2-3.4zM209.7 190.7c-1.4 1.4-.6 4.2 1.4 4.8 2.6.8 5.4-1.6 4.6-3.9-.6-1.6-4.8-2.2-6-.9zM386.8 191.1c-1.6.9-1.8 2.8-1.8 17.3v16.4l2.5-.2 2.5-.1v-17.3c0-9.4-.3-17.2-.7-17.2-.5 0-1.6.5-2.5 1.1zM96.7 207.7c.2 16.7.2 16.7 2.5 16.7 2 .1 2.3-.5 2.6-4.9.3-4 .9-5.6 3.5-8.3 1.7-1.8 3.5-3.1 3.9-3 .5.2 3.2 3.9 6.1 8.2 4.3 6.6 5.7 8 8 8.1 1.5 0 2.7-.1 2.7-.4 0-.2-3-5.1-6.6-10.9l-6.7-10.4 5.9-5.9 5.8-5.9H121c-3.1.1-4.4 1-11 8.4l-7.5 8.3-.3-8.3c-.3-8.4-.3-8.4-3-8.4h-2.7l.2 16.7zM253.7 192.2c.4.7 3.6 5.6 7.1 10.8 6.2 9.2 6.3 9.5 6.1 15.4-.3 5.8-.2 6 2.2 6 2.3.1 2.4-.3 2.9-6.9.5-6.7.8-7.5 7.2-16.8l6.7-9.7h-3.4c-3 0-3.7.6-8 7.5-2.5 4.1-4.9 7.5-5.3 7.5-.4 0-2.7-3.4-5.1-7.5-4.2-7-4.7-7.5-7.8-7.5-2.5 0-3.2.3-2.6 1.2zM132 209.1c0 9.8.1 10.1 2.9 13 3.1 3.1 7.5 3.8 11.2 1.8 1.1-.6 2.6-.7 3.2-.2.7.5 2.1.8 3.2.8 1.9 0 2-.8 2.3-12.8l.3-12.8-2.8.3-2.8.3-.3 9c-.2 7.7-.5 9.2-2.3 10.7-2.8 2.3-5.4 2.3-7.9-.2-1.7-1.7-2-3.3-2-11 0-8.9 0-9-2.5-9H132v10.1zM195 207.7c0 11.3 1.8 15.4 7.3 16.7 2.7.7 4.8.6 7-.2 1.7-.6 3.3-.8 3.6-.4.4.5 1.6.8 2.9.8 2.2 0 2.2-.2 2.2-12.8V199h-2.5c-2.5 0-2.5.1-2.5 9 0 7.7-.3 9.3-2 11-2.5 2.5-5.1 2.5-7.9.3-1.8-1.6-2.1-3.1-2.3-10.8l-.3-9-2.7-.3-2.8-.3v8.8zM225.4 200.3c-.2.7-.3 6.5-.2 12.7l.3 11.4h2.5c2.5 0 2.5-.1 2.8-9.2.3-8.5.5-9.3 2.7-10.8 1.5-1 3.2-1.3 4.6-.9 2.2.7 3.9-.7 3.9-3.3 0-1.5-6.3-1.6-9.1-.2-1.3.7-1.9.7-1.9 0 0-1.5-5-1.2-5.6.3zM288.3 200c-1.5.6-2.1 1.5-1.7 2.5.5 1.2 1.7 1.4 6 .9 5.9-.7 8.4.4 8.4 3.8 0 1.6-.6 1.9-3.2 1.8-7.6-.4-9.9 0-12.3 2.5-3.3 3.3-3.2 7 .4 10.6 3.2 3.1 8.3 3.9 12.2 1.9 1.1-.6 2.5-.8 3.2-.3.6.4 2 .8 2.9.8 1.6.2 1.8-.9 1.8-10.6 0-10.4-.1-10.8-2.6-12.8-2.9-2.3-10.8-2.8-15.1-1.1zm12.7 15.5c0 1.7-.9 2.9-3 4-3.7 1.9-5.9 1.9-8.2-.2-3.9-3.5-1.4-6.3 5.9-6.3 5 0 5.3.2 5.3 2.5zM310.7 200.7c.4 1 2.8 6.7 5.4 12.7l4.8 10.8-1.9 3.9c-2.6 5-2.5 5.5.7 5.3 2.4-.1 3.2-1.2 9.3-15.5 3.6-8.5 6.9-16.2 7.3-17.2.5-1.4.1-1.7-2.2-1.7-2.6 0-3.1.6-6.6 9.5-2.1 5.3-4 9.3-4.4 9-.3-.4-2-4.5-3.7-9.3-2.9-8.2-3.3-8.7-6.2-9-2.7-.3-3.1-.1-2.5 1.5zM342 211.7v12.8h5V199h-5v12.7zM355 199.5c-.1.3-.1 6-.1 12.7 0 12.1 0 12.2 2.3 12.2 2.2.1 2.3-.3 2.8-9.3.5-9.9 1.7-12.1 6.5-12.1 4.1 0 5.4 2.9 5.7 12.5.3 8.8.3 8.9 2.8 9 2.4 0 2.5-.4 2.8-6 .7-13.4-2.2-19.5-9.3-19.5-2 0-4.6.5-5.8 1.1-1.6.9-2.2.9-2.5 0-.3-1-5.2-1.6-5.2-.6zM401.3 200c-1.5.6-2.1 1.5-1.7 2.5.5 1.2 1.7 1.4 6 .9 5.9-.7 8.4.4 8.4 3.8 0 1.6-.6 1.9-3.2 1.8-7.6-.4-9.9 0-12.3 2.5-3.3 3.3-3.2 7 .4 10.6 3.4 3.3 9.1 4 12.8 1.4 1.7-1.2 2.2-1.2 2.6-.1.3.7 1.6 1.2 2.9 1.1 2.3-.2 2.3-.4 2.3-10.4s-.1-10.3-2.8-12.7c-2.2-1.9-3.9-2.4-8-2.3-2.9 0-6.2.4-7.4.9zm12.7 15.5c0 3.5-5.8 6.4-9.5 4.7-6.3-2.9-3.8-7.2 4.1-7.2 5.1 0 5.4.1 5.4 2.5zM426.4 200.3c-.2.7-.3 6.5-.2 12.7l.3 11.4h2.5c2.5 0 2.5-.1 2.8-9.2.3-8.5.5-9.3 2.7-10.8 1.5-1 3.2-1.3 4.6-.9 2.2.7 3.9-.7 3.9-3.3 0-1.5-6.3-1.6-9-.2-1.3.7-2.1.7-2.5 0-.9-1.4-4.5-1.2-5.1.3zM448.2 211.7c.3 12.6.3 12.7 2.6 12.7 2.3 0 2.3-.1 2.3-12.4l.1-12.5-2.7-.3-2.6-.3.3 12.8z"/></svg>