<?xml version="1.0" standalone="no"?>
<!DOCTYPE svg PUBLIC "-//W3C//DTD SVG 20010904//EN"
 "http://www.w3.org/TR/2001/REC-SVG-20010904/DTD/svg10.dtd">
<svg version="1.0" xmlns="http://www.w3.org/2000/svg"
 width="1094.333015pt" height="835.636438pt" viewBox="0 0 1094.333015 835.636438"
 preserveAspectRatio="xMidYMid meet">
<metadata>
Created by Potrace Professional 1.0m
</metadata>
<g transform="translate(-18.000000,855.899001) rotate(-360.00) scale(0.100000,-0.100000)"
fill="#000000" stroke="none">
<path d="M8536 8535 l-27 -25 6 -33 6 -33 -28 -14 c-15 -8 -30 -18 -33 -21 -3
-4 -23 -16 -45 -27 -22 -11 -50 -30 -62 -41 -12 -12 -26 -21 -32 -21 -5 0 -11
-7 -15 -15 -9 -24 33 -65 66 -65 l28 0 0 -44 c0 -25 -4 -48 -10 -51 -19 -12
-10 -41 20 -58 18 -11 30 -26 30 -39 0 -26 -70 -92 -84 -78 -14 14 -80 12 -95
-2 l-12 -13 -20 24 c-11 13 -19 38 -19 60 0 62 -54 111 -67 61 -3 -11 -9 -20
-14 -20 -5 0 -9 -18 -9 -40 0 -44 -26 -80 -59 -80 -25 0 -43 23 -35 45 5 13 3
16 -7 13 -8 -2 -16 -15 -17 -28 -2 -14 -13 -32 -24 -42 l-21 -18 17 -25 c21
-32 73 -65 104 -65 l22 0 0 -42 c1 -50 18 -78 48 -78 22 0 39 23 57 75 12 35
36 39 50 8 15 -35 48 -29 68 12 16 34 30 41 61 29 16 -6 23 -64 8 -64 -4 0
-13 -9 -20 -20 l-12 -20 16 -25 c13 -20 15 -39 9 -93 -7 -72 -23 -130 -42
-149 -14 -15 -43 -17 -43 -3 0 6 -9 10 -20 10 -21 0 -53 -41 -55 -71 -2 -25
-11 -33 -30 -25 l-17 6 5 68 c3 37 8 79 12 95 8 31 -9 83 -31 91 -38 15 -61
-29 -63 -118 0 -33 -4 -62 -8 -65 -18 -13 -33 -82 -33 -148 l0 -70 40 -13 c26
-9 40 -19 40 -30 0 -10 6 -23 14 -29 15 -12 46 -5 46 11 0 32 63 51 88 26 19
-19 14 -62 -8 -76 -11 -7 -20 -21 -20 -32 0 -11 -4 -20 -10 -20 -5 0 -10 -16
-10 -36 0 -19 -5 -45 -11 -57 -9 -16 -9 -22 0 -25 14 -5 15 -74 0 -89 -5 -5
-12 -37 -15 -69 -7 -85 -13 -104 -28 -104 -8 0 -22 12 -32 28 -25 39 -32 44
-104 80 l-65 32 -108 -2 c-71 -1 -112 3 -119 10 -25 25 -151 11 -178 -18 -3
-3 -21 -17 -40 -30 -19 -13 -37 -27 -40 -30 -9 -9 -76 -30 -98 -30 -12 0 -22
-3 -22 -8 0 -4 -13 -13 -29 -20 -17 -7 -36 -26 -43 -43 -7 -16 -16 -29 -20
-29 -5 0 -8 -21 -8 -46 0 -25 -5 -55 -11 -66 -13 -24 3 -85 30 -116 21 -24 41
-59 41 -72 0 -6 14 -25 31 -43 33 -34 69 -97 69 -121 0 -8 5 -16 12 -18 10 -4
9 -14 -1 -46 -19 -57 -8 -153 25 -215 18 -35 22 -53 15 -60 -6 -6 -11 -20 -11
-30 0 -21 -47 -67 -67 -67 -7 0 -13 -4 -13 -10 0 -6 -33 -10 -78 -10 l-77 0
-40 32 c-22 18 -41 36 -43 40 -2 5 -41 8 -87 8 -46 0 -87 5 -90 10 -3 6 -15
10 -26 10 -10 0 -19 5 -19 10 0 6 -7 10 -16 10 -51 0 -60 77 -14 120 17 15 30
35 30 44 0 9 5 16 10 16 6 0 10 10 10 22 0 12 10 32 22 45 l22 23 0 80 c1 50
-4 84 -12 92 -6 6 -12 22 -12 35 0 13 -4 23 -10 23 -5 0 -10 13 -10 28 0 15
-5 33 -11 39 -9 9 -8 21 5 46 9 19 16 38 16 42 0 3 9 27 21 53 61 137 72 168
64 191 -3 12 -10 21 -14 21 -5 0 -21 12 -38 28 -36 33 -68 52 -88 52 -8 0 -15
4 -15 9 0 5 -8 11 -17 14 -10 4 -36 13 -58 21 -22 9 -54 16 -72 16 -17 0 -33
4 -35 8 -1 4 -20 18 -41 30 l-38 22 -86 0 -86 0 -13 -17 c-7 -10 -14 -30 -14
-45 0 -27 -31 -58 -58 -58 -7 0 -32 -9 -54 -20 -23 -11 -48 -20 -55 -20 -7 0
-13 -4 -13 -8 0 -4 -13 -15 -29 -25 -20 -12 -33 -32 -45 -70 -18 -56 -14 -79
16 -111 10 -11 18 -26 18 -33 0 -7 5 -13 10 -13 6 0 10 -5 10 -11 0 -6 14 -30
30 -54 36 -52 38 -90 9 -148 -22 -45 -28 -142 -9 -161 5 -5 10 -18 10 -28 0
-9 14 -40 30 -68 17 -28 30 -54 30 -58 1 -4 14 -23 30 -42 17 -19 30 -40 30
-47 0 -22 -91 -62 -145 -63 -51 -2 -140 -24 -168 -42 -14 -10 -31 -18 -37 -18
-5 0 -10 -4 -10 -10 0 -5 -9 -10 -19 -10 -11 0 -21 -6 -24 -12 -3 -10 -9 -8
-23 4 l-18 17 20 18 c34 31 77 135 75 183 -2 42 -14 106 -22 115 -13 13 -11
239 2 252 14 14 14 157 -1 192 -6 16 -23 35 -38 42 -15 8 -33 20 -41 27 -7 7
-26 16 -42 19 -16 3 -29 9 -29 14 0 5 -12 9 -27 9 -15 0 -48 17 -79 41 l-53
41 -38 -13 c-21 -6 -55 -21 -77 -32 l-38 -19 -144 47 c-162 54 -191 54 -243 5
l-31 -30 -49 0 c-28 0 -53 -4 -56 -10 -3 -5 -13 -10 -21 -10 -26 0 -144 -111
-144 -135 0 -8 5 -17 10 -20 6 -3 10 -15 10 -26 0 -10 5 -19 10 -19 6 0 10 -7
10 -15 0 -8 4 -23 9 -33 17 -34 31 -89 31 -123 0 -21 8 -44 20 -57 25 -26 25
-40 1 -61 -10 -9 -22 -32 -26 -51 -9 -42 -9 -165 0 -237 l7 -52 -26 -26 c-14
-14 -32 -25 -41 -25 -8 0 -15 -3 -15 -7 0 -11 -50 -33 -71 -33 -10 0 -21 -4
-24 -10 -3 -5 -15 -10 -26 -10 -10 0 -19 -4 -19 -10 0 -5 -16 -10 -35 -10 -19
0 -50 -9 -70 -20 -50 -28 -83 -26 -111 8 -29 33 -31 62 -4 69 11 3 20 9 20 14
0 5 7 9 16 9 8 0 21 6 29 13 7 6 41 36 74 66 34 29 61 59 61 67 0 8 3 14 8 14
10 0 32 74 32 112 0 17 -4 45 -9 62 -5 17 -15 51 -22 76 -7 25 -16 47 -19 50
-3 3 -15 25 -27 50 l-22 45 1 142 c0 87 -5 157 -13 180 -12 39 -72 103 -96
103 -7 0 -13 5 -13 10 0 6 -13 10 -29 10 -17 0 -32 4 -36 9 -3 5 -40 9 -83 8
-46 -1 -90 3 -109 11 l-31 14 -24 -13 c-12 -6 -34 -24 -48 -38 -34 -34 -84
-51 -151 -51 -42 0 -60 -5 -80 -23 -35 -30 -41 -62 -24 -132 8 -33 14 -73 15
-89 0 -25 34 -103 51 -116 20 -16 26 -157 11 -285 -9 -88 -18 -115 -36 -115
-7 0 -21 -8 -32 -18 -10 -10 -35 -29 -54 -42 -19 -13 -44 -32 -54 -42 -11 -10
-23 -18 -28 -18 -4 0 -34 -25 -65 -56 -32 -31 -70 -63 -85 -72 -16 -9 -28 -20
-28 -24 0 -4 -6 -8 -13 -8 -7 0 -22 -8 -33 -19 -64 -59 -154 -53 -154 11 l0
24 50 14 c27 7 50 16 50 19 0 4 18 17 40 31 22 14 40 31 40 39 0 7 8 21 19 30
10 9 29 39 42 66 l24 50 0 92 c0 60 -4 96 -12 105 -7 6 -13 22 -13 35 0 13 -4
23 -10 23 -5 0 -10 7 -10 15 0 8 -9 35 -20 58 -16 33 -23 76 -28 175 l-8 132
-31 37 c-16 21 -40 39 -52 41 -11 2 -21 8 -21 13 0 5 -11 9 -24 9 -14 0 -28 5
-31 10 -3 6 -32 10 -64 10 -69 0 -171 18 -189 33 -18 14 -105 13 -110 -1 -2
-7 -10 -12 -19 -12 -16 0 -43 -23 -43 -38 0 -12 -77 -92 -88 -92 -13 0 -45
-32 -61 -60 -8 -14 -17 -61 -19 -106 -5 -101 9 -136 90 -216 l58 -57 0 -110 0
-111 -42 -31 c-24 -17 -57 -37 -74 -45 -17 -8 -40 -23 -51 -33 -10 -10 -30
-24 -43 -31 l-24 -13 -53 59 c-29 33 -53 65 -53 72 0 6 -4 12 -10 12 -12 0
-14 37 -2 42 13 6 52 85 52 108 0 12 4 29 10 39 10 20 1 58 -30 121 -30 62
-45 85 -73 109 -21 18 -27 33 -27 63 0 21 4 47 10 58 6 11 15 29 20 40 5 11
10 38 10 59 0 22 5 43 10 46 18 11 10 49 -18 81 -47 53 -86 74 -139 74 -26 1
-59 7 -73 15 -18 10 -45 12 -100 8 l-75 -6 -37 -39 c-20 -21 -40 -38 -45 -38
-11 0 -83 -65 -83 -75 0 -3 -13 -26 -30 -50 -16 -24 -30 -49 -30 -56 0 -6 13
-25 30 -40 16 -16 37 -40 46 -54 9 -14 22 -25 29 -25 25 0 33 -50 12 -72 -33
-32 -41 -65 -42 -162 0 -79 -3 -100 -15 -104 -8 -3 -17 -8 -20 -11 -8 -11 -85
-31 -119 -31 -40 0 -101 -53 -101 -87 0 -35 -15 -58 -71 -112 -27 -26 -49 -52
-49 -58 0 -16 -35 -43 -55 -43 -26 0 -44 30 -45 73 0 20 -8 56 -19 80 -10 23
-29 64 -41 91 l-22 50 59 55 c63 60 83 95 83 141 0 17 5 30 10 30 6 0 10 32
10 75 0 56 -5 87 -21 120 -12 25 -25 45 -29 45 -4 0 -13 13 -20 29 -11 28 -52
71 -68 71 -12 0 -58 44 -70 67 -7 12 -12 48 -12 81 l0 59 -33 35 c-34 35 -85
58 -131 58 -27 0 -56 -20 -56 -39 0 -21 -46 -41 -96 -41 -54 0 -94 -15 -122
-46 -19 -21 -42 -81 -42 -107 0 -10 -6 -27 -12 -38 l-13 -22 13 -4 c6 -3 12
-11 12 -19 0 -8 8 -18 18 -21 38 -15 81 -82 82 -129 0 -19 -41 -54 -64 -54
-31 0 -80 -48 -104 -102 -10 -24 -31 -52 -45 -63 -15 -11 -27 -26 -27 -33 0
-13 -145 -162 -158 -162 -15 0 -62 -48 -62 -64 0 -9 -4 -16 -10 -16 -5 0 -10
-9 -10 -20 0 -11 -4 -20 -8 -20 -5 0 -15 -22 -22 -50 -7 -27 -17 -50 -21 -50
-4 0 -10 -28 -12 -62 -8 -88 -18 -138 -28 -138 -5 0 -9 -14 -9 -32 0 -33 -4
-50 -39 -160 -11 -37 -21 -82 -22 -100 0 -41 -22 -144 -32 -154 -4 -4 -7 -18
-7 -31 0 -12 -4 -23 -10 -23 -5 0 -10 -13 -10 -30 0 -16 -4 -30 -10 -30 -5 0
-10 -11 -10 -23 0 -26 -23 -51 -56 -61 -47 -14 -64 -40 -64 -98 l0 -56 40 -35
c39 -34 52 -71 31 -92 -5 -6 -12 -30 -15 -55 -16 -132 -23 -168 -39 -199 -9
-19 -17 -40 -17 -48 0 -7 -4 -13 -9 -13 -5 0 -12 -28 -15 -62 -17 -206 -18
-220 -7 -231 14 -14 15 -47 1 -47 -5 0 -10 -15 -10 -34 0 -38 20 -52 51 -35
39 20 71 -57 39 -96 -18 -22 -27 -19 -33 15 -12 58 -56 23 -57 -46 0 -31 6
-45 25 -62 14 -12 29 -22 34 -22 18 0 39 -38 45 -85 4 -27 9 -191 11 -363 2
-222 7 -322 16 -343 9 -23 10 -82 5 -247 -4 -120 -7 -224 -6 -232 0 -8 5 -73
10 -145 19 -263 21 -279 38 -292 10 -7 30 -13 45 -13 19 0 39 -11 57 -30 15
-16 37 -30 47 -30 10 0 23 -4 28 -9 6 -6 35 -12 65 -15 75 -7 116 -19 179 -50
30 -14 61 -26 68 -26 7 0 13 -4 13 -10 0 -5 11 -10 24 -10 14 0 28 -5 31 -11
5 -7 44 -9 109 -7 62 1 175 -6 293 -20 l192 -23 163 6 c241 8 447 8 495 0 61
-10 93 -46 93 -103 0 -84 31 -141 78 -142 12 0 22 -4 22 -10 0 -5 7 -10 15
-10 9 0 33 -9 55 -20 22 -11 50 -20 64 -20 14 0 28 -5 31 -10 3 -6 23 -10 44
-10 20 0 41 -4 46 -9 6 -6 69 -12 140 -14 72 -2 150 -9 175 -16 69 -19 139
-32 200 -38 30 -2 59 -9 65 -14 5 -5 21 -9 37 -9 15 0 42 -8 60 -19 36 -19 67
-27 168 -41 133 -19 150 -22 156 -31 3 -5 20 -9 39 -9 19 0 36 -4 39 -8 3 -5
31 -14 63 -21 79 -17 121 -29 170 -52 24 -10 49 -19 57 -19 8 0 16 -3 18 -7 1
-5 22 -18 44 -30 46 -25 130 -31 166 -12 31 17 130 13 167 -5 18 -10 36 -27
40 -39 9 -22 40 -59 108 -129 l35 -37 67 -11 c74 -12 476 4 496 20 6 5 62 11
125 14 63 2 136 8 163 11 31 5 47 3 47 -4 0 -6 9 -11 19 -11 11 0 21 -5 23
-11 2 -6 24 -12 49 -13 64 -3 69 -8 69 -81 0 -73 15 -115 42 -115 10 0 18 -4
18 -10 0 -5 11 -10 24 -10 14 0 27 -4 30 -9 6 -9 44 -16 171 -33 119 -15 670
-21 695 -8 26 14 85 -5 119 -38 l24 -24 -1 -54 c0 -51 -19 -114 -33 -114 -11
0 -49 -87 -49 -111 0 -22 12 -36 48 -56 26 -16 198 -18 207 -3 3 6 22 10 41
10 l34 0 53 53 c28 28 60 64 70 80 10 16 26 27 40 27 12 0 44 11 72 25 l50 26
110 -7 c108 -6 155 -20 155 -47 0 -6 14 -23 30 -36 17 -13 30 -30 30 -38 0 -8
15 -30 33 -50 l34 -35 169 -4 c93 -2 189 -7 214 -13 79 -17 236 -25 244 -12 4
6 16 11 27 11 10 0 19 5 19 10 0 6 7 10 16 10 20 0 43 28 44 53 0 19 -35 37
-150 77 -70 25 -130 55 -135 70 -7 17 20 40 46 40 10 0 21 5 24 10 3 6 26 10
50 10 24 0 47 4 50 10 7 12 295 14 295 2 0 -4 21 -13 48 -21 26 -7 60 -20 77
-29 45 -24 107 -34 245 -39 69 -2 129 -8 135 -14 5 -5 35 -9 66 -9 32 0 61 -4
64 -10 3 -5 15 -10 26 -10 10 0 19 -4 19 -10 0 -5 11 -10 24 -10 14 0 28 -4
31 -10 3 -5 16 -10 29 -10 12 0 26 -4 32 -10 5 -5 23 -11 39 -14 17 -2 39 -7
49 -11 33 -14 229 -12 233 3 3 6 15 12 28 12 13 0 27 5 30 10 3 6 19 10 36 10
16 0 29 4 29 8 0 14 48 32 85 32 19 0 35 5 35 11 0 7 25 9 78 5 42 -4 113 -9
157 -12 44 -3 85 -10 91 -15 12 -10 273 -5 304 5 15 4 39 9 110 21 68 12 77
15 100 35 l23 20 -13 110 -13 110 13 15 c20 25 16 95 -9 144 l-23 43 1 180 c1
114 -3 186 -10 200 -6 11 -12 74 -14 139 -2 65 -6 123 -9 128 -3 5 3 31 15 58
l20 48 0 105 c-1 198 -9 605 -16 798 l-7 193 18 20 c13 14 30 19 71 19 29 0
53 4 53 8 0 5 18 14 40 21 l40 12 0 32 c0 23 -11 44 -37 72 -65 72 -83 101
-83 133 0 17 -4 34 -10 37 -5 3 -10 26 -10 50 0 24 -4 46 -8 49 -4 2 -9 47
-10 100 -1 52 -6 106 -12 121 -5 14 -10 76 -10 136 l0 109 40 0 c22 0 40 -4
40 -10 0 -5 18 -10 40 -10 22 0 48 -4 58 -9 9 -5 37 -18 61 -30 l44 -21 16 12
c9 7 22 19 30 26 l14 14 -11 32 c-7 18 -12 42 -12 54 0 12 -4 22 -8 22 -5 0
-15 22 -22 50 -7 27 -17 50 -22 50 -4 0 -8 9 -8 19 0 11 -5 21 -12 23 -7 3
-12 23 -11 49 1 79 -20 309 -29 309 -4 0 -8 15 -8 34 0 19 -4 38 -10 41 -5 3
-10 19 -10 35 0 16 -4 32 -10 35 -5 3 -10 22 -10 41 0 19 -4 34 -10 34 -6 0
-10 26 -10 58 0 32 -4 62 -9 67 -5 6 -11 35 -14 65 -3 30 -10 75 -16 100 -7
25 -17 63 -22 85 -6 22 -13 57 -16 78 l-5 38 56 53 c31 28 56 60 56 71 0 20
-51 105 -62 105 -5 0 -8 6 -8 13 0 7 -8 22 -18 33 -10 10 -30 44 -45 74 -15
30 -39 66 -55 81 -15 14 -40 43 -57 63 -16 20 -35 36 -41 36 -5 0 -20 9 -32
20 -12 11 -25 20 -30 20 -4 0 -17 8 -28 18 -11 9 -30 23 -42 29 -12 7 -32 19
-44 25 -12 7 -31 21 -42 31 -14 12 -37 17 -83 17 -35 0 -63 4 -63 10 0 6 -16
10 -36 10 l-36 0 -44 47 c-24 25 -44 56 -44 68 0 11 23 47 50 80 28 33 50 67
50 76 0 10 5 21 10 24 6 3 10 48 10 100 0 52 -4 97 -10 100 -19 12 -12 186 10
245 13 34 22 84 23 130 l2 75 -22 24 c-24 26 -108 71 -132 71 -44 1 -107 33
-171 89 l-35 31 -52 0 c-29 0 -53 -4 -53 -10 0 -5 -6 -10 -13 -10 -7 0 -33
-18 -57 -40 -25 -22 -51 -40 -57 -40 -7 0 -13 -4 -13 -10 0 -5 -18 -10 -40
-10 -22 0 -40 -4 -40 -10 0 -5 -6 -10 -14 -10 -17 0 -106 -83 -106 -99 0 -6
-4 -20 -10 -31 -5 -11 -14 -29 -20 -40 -18 -36 -11 -61 30 -100 l40 -38 0 -65
c0 -49 5 -70 20 -90 l20 -25 0 -99 c0 -92 13 -153 33 -153 4 0 7 -11 7 -24 0
-14 5 -28 10 -31 23 -14 1 -124 -25 -125 -5 0 -27 -16 -48 -35 -21 -19 -47
-37 -58 -40 -10 -4 -19 -10 -19 -14 0 -4 -22 -14 -50 -21 -27 -7 -50 -17 -50
-22 0 -4 -13 -8 -30 -8 -16 0 -30 -4 -30 -10 0 -13 -46 -13 -71 1 -12 6 -39
28 -61 50 -22 21 -45 39 -50 39 -5 0 -17 7 -25 16 l-16 15 22 41 c11 22 21 55
21 74 0 19 4 34 8 34 4 0 14 21 21 46 l14 47 -12 36 c-22 61 -36 91 -43 91 -5
0 -8 8 -8 18 0 9 -14 34 -31 55 l-31 38 12 14 c6 8 19 17 28 20 21 6 42 50 42
87 0 35 22 108 32 108 5 0 8 18 8 40 0 30 -8 48 -32 77 -73 84 -121 123 -153
123 -8 0 -15 5 -15 10 0 6 -8 10 -17 10 -10 0 -33 10 -52 23 -79 51 -98 60
-132 61 -38 1 -83 -17 -109 -44 -8 -8 -27 -21 -42 -29 -16 -8 -28 -18 -28 -23
0 -4 -10 -8 -23 -8 -19 0 -126 -34 -132 -42 -2 -3 -25 -48 -56 -110 -5 -10 -9
-29 -9 -43 0 -14 -4 -25 -10 -25 -5 0 -10 -9 -10 -20 0 -11 5 -20 10 -20 6 0
10 -8 10 -18 0 -22 19 -42 40 -42 21 0 56 -71 65 -130 8 -57 8 -49 -5 -150 -7
-47 -9 -120 -6 -162 l6 -77 -22 -15 c-13 -8 -43 -18 -68 -22 -25 -4 -52 -14
-60 -23 -44 -47 -107 -53 -102 -11 2 14 6 52 8 85 4 55 11 81 35 127 5 10 9
36 9 57 0 22 5 43 10 46 6 3 10 42 10 86 0 43 4 87 9 97 10 20 31 168 32 233
1 54 21 175 32 185 4 4 7 19 7 33 0 14 11 39 25 55 32 37 40 68 25 95 -7 15
-8 27 0 40 5 11 10 35 10 53 0 25 8 42 30 63 27 26 42 75 23 75 -5 0 -13 12
-20 26 -9 20 -9 32 3 59 8 19 20 35 27 35 19 0 37 -21 37 -42 0 -28 32 -21 59
12 15 20 32 30 50 30 46 0 89 34 102 82 7 24 16 47 21 53 4 5 8 39 8 75 l0 66
20 14 c21 15 28 70 10 70 -5 0 -10 14 -10 30 l0 30 -23 0 c-19 0 -29 -12 -50
-58 -15 -32 -27 -68 -27 -80 0 -12 -9 -36 -20 -54 -11 -18 -20 -45 -20 -60 0
-21 -5 -28 -20 -28 l-20 0 0 35 c0 38 -23 69 -71 94 -17 8 -29 25 -33 44 -8
37 3 127 15 127 5 0 9 11 9 25 0 36 41 96 60 89 44 -18 49 -16 67 25 l18 41
26 0 c40 0 55 -24 41 -64 -17 -46 -15 -52 17 -66 40 -16 64 1 81 59 16 56 30
71 64 71 39 0 66 33 66 80 l0 40 -39 0 c-24 0 -48 8 -62 19 l-24 20 13 20 c28
47 2 120 -32 91 -8 -6 -20 -28 -27 -48 -20 -63 -92 -104 -124 -73 -6 5 -26 11
-45 13 l-35 3 -3 29 c-3 21 3 36 22 53 25 23 26 41 2 72 -8 10 -3 19 19 37 17
13 36 24 43 24 6 0 12 5 12 10 0 6 15 10 33 10 32 1 67 19 67 37 0 40 -40 76
-94 85 -19 3 -66 77 -66 106 0 19 -21 80 -33 100 -12 17 -21 15 -51 -13z
m-216 -1216 c0 -25 -33 -22 -38 4 -2 12 3 17 17 17 15 0 21 -6 21 -21z m200
-9 c0 -5 -4 -10 -10 -10 -5 0 -10 5 -10 10 0 6 5 10 10 10 6 0 10 -4 10 -10z
m-320 -710 c0 -22 -4 -40 -9 -40 -4 0 -14 -54 -21 -120 -7 -66 -19 -128 -26
-138 l-13 -17 -17 16 -16 17 10 33 c5 19 15 60 21 92 25 130 36 173 46 184 18
22 25 14 25 -27z m-6820 -70 l0 -30 -55 0 c-39 0 -57 4 -61 14 -10 26 18 45
69 46 l47 0 0 -30z m106 -44 c21 -21 18 -26 -16 -26 -23 0 -30 4 -30 20 0 23
25 27 46 6z m-246 -48 c0 -13 -7 -32 -15 -42 l-14 -19 -16 13 c-18 15 -19 36
-2 55 20 23 47 18 47 -7z m5300 16 c0 -11 -29 -34 -44 -34 -19 0 -21 11 -4 28
12 12 48 17 48 6z m-5125 -36 c32 -28 36 -87 5 -95 -11 -3 -20 -9 -20 -14 0
-18 -54 -9 -77 13 -28 27 -32 84 -5 104 26 20 69 17 97 -8z m5261 -3 l25 -25
-15 -16 c-11 -10 -30 -14 -58 -12 l-43 3 -3 25 c-2 18 4 28 20 36 36 18 47 16
74 -11z m169 -23 c18 -13 35 -51 35 -78 0 -31 -21 -54 -51 -54 -24 0 -69 46
-69 71 0 8 -5 20 -11 26 -27 27 62 60 96 35z m-4539 -26 c24 -25 16 -43 -32
-66 l-47 -21 -8 13 c-13 19 -12 23 19 56 30 35 47 39 68 18z m-761 -26 c9 -29
-3 -77 -22 -84 -20 -8 -43 11 -43 35 0 55 51 93 65 49z m2695 0 c0 -13 -7 -20
-20 -20 -23 0 -25 5 -7 25 17 20 27 18 27 -5z m2286 6 c19 -20 18 -45 -7 -96
-41 -85 -71 -91 -107 -24 -16 30 9 94 45 116 34 22 50 22 69 4z m-4075 -28
c24 -26 24 -35 2 -40 -35 -8 -53 3 -53 33 0 35 24 39 51 7z m1954 -10 c16 -15
-10 -43 -44 -46 -33 -3 -61 16 -61 42 0 24 79 28 105 4z m138 5 c39 -23 77
-58 77 -74 0 -17 -40 -49 -60 -49 -10 0 -32 13 -49 29 -42 40 -44 101 -3 110
2 1 18 -7 35 -16z m-3277 -30 c37 -41 40 -53 22 -71 -34 -34 -108 11 -108 66
0 56 38 58 86 5z m2132 17 c26 -25 27 -29 6 -58 l-15 -22 -50 0 c-55 0 -79 15
-79 51 0 30 28 48 76 49 27 0 47 -7 62 -20z m6557 10 c3 -5 15 -10 26 -10 10
0 19 -4 19 -10 0 -5 -22 -10 -50 -10 -53 0 -57 3 -37 25 14 17 33 19 42 5z
m-3227 -45 c56 -62 32 -135 -49 -149 l-36 -6 -32 29 c-34 32 -41 74 -18 113
33 60 87 65 135 13z m1047 19 l20 -15 -19 -15 c-11 -8 -37 -14 -58 -14 -30 0
-38 4 -38 18 0 10 12 23 28 29 37 15 44 15 67 -3z m157 4 c68 -39 89 -95 44
-116 l-24 -11 -46 41 c-48 43 -54 59 -33 83 15 18 31 18 59 3z m-2502 -30 c45
-31 58 -53 44 -75 -22 -36 -78 -28 -124 16 -17 15 -30 35 -30 44 0 14 34 30
71 36 3 1 21 -9 39 -21z m-3067 -28 c34 -27 44 -73 23 -105 -24 -36 -68 -33
-111 7 -33 29 -47 68 -25 68 6 0 10 7 10 15 0 16 31 33 61 34 9 1 28 -8 42
-19z m1881 14 c12 -5 16 -20 16 -60 0 -110 -44 -141 -104 -75 l-19 21 14 43
c15 48 27 63 55 70 10 2 20 5 21 6 1 0 8 -2 17 -5z m-2817 -19 c21 -21 0 -45
-38 -45 l-29 0 0 23 c0 13 3 27 7 30 11 12 44 7 60 -8z m3673 -6 c0 -14 -26
-39 -39 -39 -16 0 -13 13 6 37 17 21 33 22 33 2z m158 -7 c6 -40 -57 -69 -86
-40 -31 31 -3 70 48 66 28 -2 36 -8 38 -26z m-1738 -4 c23 -25 26 -63 5 -71
-27 -11 -70 65 -48 86 11 12 21 8 43 -15z m6364 16 c19 -7 21 -51 3 -67 -21
-19 -56 -37 -72 -37 -8 0 -15 -5 -15 -11 0 -6 -12 -9 -27 -7 l-28 3 -3 43 c-2
27 2 47 11 56 19 20 101 32 131 20z m-7699 -34 c0 -13 -6 -25 -12 -27 -9 -3
-13 6 -13 27 0 21 4 30 13 28 6 -3 12 -15 12 -28z m343 18 c17 -17 15 -96 -2
-114 -8 -8 -26 -14 -40 -14 l-26 0 0 45 c0 77 33 118 68 83z m692 -39 c0 -12
-10 -30 -22 -40 -25 -22 -20 -21 -52 -9 -35 13 -33 26 10 66 l37 33 13 -14 c8
-7 14 -23 14 -36z m4406 37 c16 -17 19 -62 4 -71 -5 -3 -10 -16 -10 -29 0 -26
-40 -52 -64 -43 -26 10 -22 105 6 134 25 26 43 29 64 9z m2432 -11 c38 -44 21
-72 -36 -59 -48 12 -78 54 -55 77 16 17 70 6 91 -18z m-5584 -18 c12 -13 25
-33 28 -45 9 -31 -10 -92 -27 -92 -8 0 -15 -4 -15 -10 0 -19 -70 -10 -105 13
l-35 22 0 35 c0 94 91 140 154 77z m-3369 13 c3 -5 1 -10 -4 -10 -6 0 -11 5
-11 10 0 6 2 10 4 10 3 0 8 -4 11 -10z m5775 -5 c0 -8 -8 -30 -17 -50 -12 -25
-23 -35 -40 -35 -23 0 -32 23 -13 35 6 3 10 19 10 36 l0 29 30 0 c20 0 30 -5
30 -15z m-1156 -1 c29 -11 17 -40 -25 -62 -53 -29 -59 -28 -59 7 0 43 43 71
84 55z m2124 -16 c9 -12 15 -63 13 -116 -1 -12 -7 -24 -13 -26 -7 -2 -32 -9
-56 -17 l-43 -13 -26 27 -26 26 1 43 c1 24 7 45 12 46 6 2 10 12 10 23 l0 19
59 0 c35 0 63 -5 69 -12z m832 2 c0 -5 -4 -10 -10 -10 -5 0 -10 5 -10 10 0 6
5 10 10 10 6 0 10 -4 10 -10z m-5258 -27 c10 -9 18 -22 18 -30 0 -7 5 -13 10
-13 6 0 10 -13 10 -30 0 -16 -4 -30 -10 -30 -5 0 -10 -9 -10 -20 0 -13 -7 -20
-20 -20 -11 0 -20 -4 -20 -10 0 -15 -89 -12 -103 3 -70 76 -36 167 62 167 27
0 51 -6 63 -17z m2444 3 c24 -24 17 -46 -14 -46 -32 0 -52 16 -52 42 0 22 45
25 66 4z m2994 4 c0 -5 7 -10 16 -10 36 0 63 -71 32 -83 -23 -9 -142 6 -155
19 -18 18 -16 55 5 70 20 16 102 19 102 4z m820 -3 c0 -27 -26 -67 -42 -67
-10 0 -18 2 -18 4 0 4 21 45 33 64 11 16 27 16 27 -1z m-5063 -48 c3 -40 -19
-74 -42 -66 -20 8 -19 51 1 83 22 32 38 26 41 -17z m698 31 c3 -5 15 -10 26
-10 10 0 19 -4 19 -9 0 -5 9 -11 20 -14 l20 -5 0 -66 0 -66 -20 0 c-11 0 -20
-4 -20 -10 0 -14 -66 -12 -92 3 -41 23 -48 35 -48 85 l0 49 38 26 c42 29 48
31 57 17z m1085 -15 c0 -8 -4 -15 -10 -15 -5 0 -10 7 -10 15 0 8 5 15 10 15 6
0 10 -7 10 -15z m-3320 -25 c0 -23 -4 -30 -20 -30 -14 0 -20 7 -20 23 0 27 7
37 27 37 8 0 13 -12 13 -30z m2069 -7 c14 -51 14 -116 -1 -131 -20 -20 -65
-14 -82 10 -12 17 -14 36 -9 77 7 65 18 80 55 81 l27 0 10 -37z m1402 15 c11
-11 19 -27 19 -34 0 -35 -84 -38 -95 -3 -17 54 38 81 76 37z m1444 -3 c41 -40
26 -95 -27 -95 -16 0 -27 9 -37 30 l-13 31 14 17 c26 33 33 41 36 42 2 0 14
-11 27 -25z m1025 -11 c0 -16 -9 -17 -29 -5 -8 5 -11 16 -7 26 l6 17 15 -12
c8 -7 15 -19 15 -26z m-6800 8 c0 -4 14 -16 30 -25 20 -12 30 -26 30 -43 l0
-24 -36 0 c-19 0 -42 6 -50 14 -17 18 -19 72 -1 79 19 8 27 8 27 -1z m3300
-42 l0 -50 -19 0 c-14 0 -20 9 -23 38 -6 47 -1 62 23 62 l19 0 0 -50z m3146
36 c20 -21 17 -56 -8 -83 -28 -30 -52 -29 -66 2 l-12 26 16 24 c9 14 23 25 30
25 8 0 14 5 14 10 0 14 9 12 26 -4z m1314 5 c0 -5 9 -11 20 -14 l20 -5 0 -51
0 -52 -35 -34 c-41 -42 -82 -46 -120 -13 l-25 22 0 54 c0 30 6 59 13 65 28 27
127 49 127 28z m200 -23 c26 -43 25 -67 -4 -100 -44 -52 -96 -28 -96 43 0 86
61 121 100 57z m-4394 -14 l34 -16 0 -48 0 -48 -29 -12 c-54 -22 -111 15 -111
72 0 37 11 53 45 61 11 2 22 5 23 6 2 0 19 -6 38 -15z m-2204 -31 c2 -61 -1
-76 -24 -101 -15 -15 -31 -22 -48 -20 l-25 3 -3 38 c-2 21 1 37 7 37 6 0 11 8
11 18 0 29 29 62 56 62 l24 0 2 -37z m2383 -1 c18 -47 -30 -121 -69 -106 -23
9 -23 112 1 129 20 15 58 2 68 -23z m801 24 c20 -20 18 -33 -11 -61 l-24 -25
-56 0 -56 0 3 38 3 37 28 3 c15 2 27 8 27 13 0 15 70 10 86 -5z m-4327 -12 c2
-2 1 -10 -2 -19 -4 -9 -19 -15 -42 -15 -28 0 -35 4 -35 19 0 11 6 21 13 24 11
5 57 -2 66 -9z m749 -2 c50 -54 68 -96 57 -133 -10 -31 -72 -26 -101 9 -25 28
-29 45 -25 97 4 47 37 59 69 27z m6578 -9 c29 -38 11 -83 -34 -83 -45 0 -69
52 -39 85 17 20 57 18 73 -2z m-5606 -23 c0 -23 -10 -26 -28 -8 -18 18 -15 28
8 28 13 0 20 -7 20 -20z m120 10 c0 -5 7 -10 15 -10 18 0 37 -43 29 -65 -9
-23 -52 -18 -80 10 -20 20 -23 29 -15 44 14 26 51 41 51 21z m3389 -27 l34
-37 -23 -18 c-50 -40 -112 20 -73 70 10 12 20 22 23 22 3 0 20 -17 39 -37z
m1326 12 c31 -30 31 -33 2 -66 l-23 -27 -17 13 c-20 14 -23 75 -5 93 16 16 15
16 43 -13z m-190 -5 c3 -5 16 -10 29 -10 16 0 25 -9 34 -33 18 -49 15 -75 -11
-101 -31 -31 -60 -39 -113 -31 l-44 6 0 25 c0 14 -5 35 -11 47 -9 16 -9 22 0
25 6 2 11 10 11 18 0 40 86 84 105 54z m-6703 -37 c4 -11 55 -40 101 -60 21
-8 36 -21 34 -27 -6 -18 -68 -8 -87 14 -10 11 -25 20 -34 20 -9 0 -16 4 -16 9
0 5 -9 11 -20 14 -26 7 -26 37 -1 37 11 0 21 -3 23 -7z m2438 -8 c0 -9 -16
-31 -35 -50 -37 -38 -76 -45 -107 -21 -27 20 -22 44 15 66 40 25 127 28 127 5z
m3373 -6 c15 -23 -8 -73 -39 -88 -33 -15 -95 -13 -116 3 -21 15 -24 52 -5 69
37 36 141 46 160 16z m127 -14 c0 -18 -41 -37 -54 -25 -11 11 14 39 37 40 9 0
17 -7 17 -15z m-4620 -31 c0 -35 -22 -54 -64 -54 l-36 0 0 28 c0 38 17 52 62
52 l38 0 0 -26z m2063 14 c6 -16 -17 -74 -37 -93 -19 -19 -73 -19 -92 -1 -20
21 -17 39 11 60 14 10 33 25 42 32 23 17 70 18 76 2z m3125 0 c7 -7 12 -22 12
-34 0 -13 5 -26 10 -29 6 -3 10 -19 10 -36 l0 -29 -28 0 c-29 0 -59 25 -81 67
-17 33 4 73 39 73 14 0 31 -5 38 -12z m-2910 -31 c45 -41 12 -82 -45 -55 -19
9 -29 22 -31 42 -6 49 29 54 76 13z m-428 9 c6 -8 10 -25 8 -38 l-3 -23 -46
-3 -45 -3 -13 25 -13 24 13 16 c18 19 83 21 99 2z m4820 -1 c7 -9 11 -17 9
-18 -40 -31 -72 -47 -93 -47 -38 0 -35 34 4 52 17 7 30 16 30 20 0 14 37 8 50
-7z m-5002 -17 c18 -18 15 -28 -8 -28 -13 0 -20 7 -20 20 0 23 10 26 28 8z
m756 6 c39 -15 -4 -62 -44 -49 -34 11 -23 34 27 54 1 1 8 -2 17 -5z m3999 -6
c12 -6 29 -14 37 -18 8 -4 16 -21 18 -39 l3 -31 -56 0 c-58 0 -72 7 -94 48
-23 43 37 69 92 40z m-2146 -40 c-5 -15 -46 -13 -61 2 -7 7 3 10 28 10 26 0
36 -4 33 -12z m1303 -34 c0 -47 -16 -74 -44 -74 -8 0 -18 -4 -21 -10 -9 -15
-44 -12 -62 5 -35 36 31 125 93 125 l34 0 0 -46z m-4862 16 c2 -6 17 -10 33
-10 16 0 29 -4 29 -9 0 -5 9 -11 20 -14 l19 -5 -3 -103 c-2 -57 -7 -113 -11
-125 -3 -12 -2 -40 5 -63 8 -30 16 -41 30 -41 11 0 20 -4 20 -10 0 -5 6 -10
14 -10 7 0 19 -6 25 -14 l11 -13 -24 4 c-17 4 -25 0 -28 -14 -3 -11 -22 -27
-42 -37 -35 -16 -46 -38 -26 -51 6 -3 10 -33 10 -66 0 -46 -5 -65 -20 -81 -14
-16 -20 -36 -20 -69 0 -26 -4 -51 -10 -54 -5 -3 -10 -31 -10 -60 l0 -54 -21
-12 -22 -11 6 -49 c4 -28 1 -60 -4 -73 -11 -23 -59 -46 -97 -46 l-22 0 0 -70
c0 -40 -4 -70 -10 -70 -6 0 -10 -30 -10 -69 0 -39 5 -73 10 -76 14 -9 12 -47
-4 -67 -17 -23 -46 -23 -46 0 0 10 -9 37 -20 60 -15 31 -20 61 -20 123 l0 82
-19 16 c-11 9 -21 33 -23 51 l-3 35 -25 0 c-20 0 -26 -6 -28 -27 -2 -16 -8
-28 -13 -28 -5 0 -9 -31 -9 -70 0 -40 4 -70 10 -70 6 0 10 -13 10 -30 0 -16 5
-30 10 -30 6 0 10 -18 10 -39 0 -22 5 -52 10 -67 l10 -26 -21 -19 -21 -18 0
-61 c0 -46 4 -65 19 -78 28 -26 43 -59 43 -92 0 -17 9 -50 20 -72 11 -23 20
-48 20 -55 0 -7 -9 -13 -20 -13 -11 0 -20 5 -20 10 0 14 -33 13 -48 -2 -7 -7
-12 -23 -12 -36 0 -27 -21 -52 -44 -52 -20 0 -20 3 4 52 22 45 19 55 -16 68
-19 8 -24 17 -24 45 0 19 5 35 10 35 6 0 10 15 10 34 0 19 -4 38 -10 41 -5 3
-10 15 -10 26 0 22 -6 24 -25 6 -25 -26 -31 -137 -17 -322 8 -106 16 -145 31
-145 12 0 31 24 31 39 0 16 38 61 52 61 4 0 8 -31 8 -70 0 -74 0 -74 53 -70
l27 2 0 -57 c0 -61 -14 -85 -49 -85 -11 0 -23 -4 -26 -10 -3 -5 -42 -10 -87
-10 l-80 0 -28 20 -28 20 -5 53 c-3 28 -10 72 -17 97 -7 25 -13 59 -15 75 -1
17 -3 36 -4 43 0 6 -9 12 -20 12 -22 0 -45 -25 -36 -39 3 -6 -1 -26 -10 -45
-9 -18 -15 -46 -13 -61 l3 -28 -58 -4 c-75 -4 -92 10 -82 70 4 23 11 139 15
257 5 118 12 239 15 268 5 35 3 58 -4 65 -14 14 -15 77 -1 77 6 0 10 13 10 29
0 17 4 32 9 35 4 3 11 31 15 63 4 32 13 85 21 118 9 33 17 114 20 180 8 196
32 443 50 505 9 32 17 54 44 113 11 26 21 54 21 62 0 8 4 15 9 15 5 0 14 14
21 30 7 17 16 30 21 30 5 0 9 7 9 15 0 18 39 65 55 65 6 0 39 27 73 60 33 33
64 60 67 60 3 0 23 13 43 29 20 16 48 32 62 35 41 8 235 -3 238 -14z m3922 -4
c0 -33 -25 -53 -45 -36 -18 15 -20 46 -2 53 30 13 47 7 47 -17z m-4780 1 c0
-8 -3 -17 -6 -20 -10 -9 -46 12 -39 24 9 14 45 11 45 -4z m5493 -59 c51 -29
48 -48 -6 -48 -46 0 -67 13 -67 42 0 22 39 25 73 6z m-2557 -78 c41 -38 81
-70 89 -70 8 0 15 -4 15 -10 0 -5 9 -10 20 -10 11 0 20 -4 20 -10 0 -5 8 -10
18 -10 10 0 22 -3 26 -7 13 -14 101 -32 153 -33 28 0 55 -4 58 -10 3 -5 21
-10 40 -10 18 0 40 -3 49 -6 19 -7 21 -35 4 -52 -14 -14 -13 -81 2 -96 5 -5
10 -54 10 -108 l0 -98 -20 -12 c-21 -13 -28 -48 -10 -48 6 0 10 -4 10 -10 0
-6 -29 -10 -66 -10 l-66 0 7 -27 c3 -15 16 -35 28 -46 l22 -18 -50 -47 c-28
-26 -55 -56 -61 -67 -6 -11 -25 -24 -42 -29 -34 -11 -44 -33 -35 -77 3 -16 1
-29 -4 -29 -5 0 -16 -22 -23 -50 -7 -27 -17 -50 -22 -50 -4 0 -8 -6 -8 -13 0
-18 -24 -67 -32 -67 -5 0 -8 -15 -8 -34 0 -19 -4 -38 -10 -41 -5 -3 -10 -15
-10 -26 0 -10 -4 -19 -10 -19 -5 0 -10 -11 -10 -25 0 -14 -4 -34 -10 -45 -5
-11 -14 -29 -20 -40 -5 -11 -10 -31 -10 -45 0 -14 -4 -25 -10 -25 -5 0 -10 -7
-10 -15 0 -8 -8 -24 -17 -35 -13 -15 -19 -44 -23 -103 -4 -64 -8 -82 -20 -82
l-15 0 -2 105 c-1 58 -2 111 -2 118 -1 14 -37 16 -46 2 -3 -5 -17 -10 -31 -10
l-24 0 0 36 c0 20 9 49 21 65 l21 30 -12 14 c-14 17 -70 21 -70 5 0 -5 -4 -10
-10 -10 -21 0 -2 63 24 82 13 9 39 -2 54 -24 7 -10 19 -18 26 -18 21 0 208
190 202 205 l-5 14 -33 -12 c-18 -7 -39 -18 -46 -25 -51 -48 -78 -61 -125 -59
-49 2 -53 0 -83 -50 -7 -10 -15 -14 -20 -9 -5 5 -4 11 4 13 15 6 16 35 0 51
-14 14 -88 16 -88 2 0 -5 -8 -10 -18 -10 -10 0 -24 -9 -32 -20 -15 -20 -70
-29 -70 -10 0 16 -44 22 -74 10 -71 -27 -88 29 -34 108 44 65 53 72 85 72 36
0 83 40 83 71 1 13 14 40 30 59 32 37 38 65 16 73 -27 11 -61 -7 -108 -55 -26
-26 -52 -48 -58 -48 -11 0 -3 51 10 60 7 5 12 20 31 90 5 19 12 94 15 165 3
72 9 135 13 140 13 16 31 100 31 141 0 33 35 114 53 122 4 2 7 23 7 47 0 24 5
47 10 50 6 3 10 13 10 21 0 18 16 34 53 53 15 8 27 18 27 23 0 4 9 8 20 8 11
0 20 5 20 10 0 6 9 10 20 10 11 0 20 5 20 10 0 6 14 10 31 10 l32 0 73 -70z
m-1771 36 c25 -24 28 -60 7 -84 -11 -12 -27 -22 -36 -22 l-16 0 0 60 c0 48 3
60 16 60 8 0 22 -6 29 -14z m457 -14 c5 -14 96 -72 111 -72 15 0 47 -41 47
-60 0 -39 62 -52 90 -20 l17 20 35 -14 c19 -8 49 -28 66 -44 l32 -30 0 -40 c0
-23 -4 -44 -10 -47 -15 -10 -12 -81 5 -95 20 -16 45 9 45 45 0 37 34 30 38 -8
2 -15 8 -27 13 -27 5 0 9 -13 9 -30 0 -16 -4 -30 -10 -30 -6 0 -10 -27 -10
-60 0 -33 -4 -60 -10 -60 -5 0 -10 -18 -10 -40 l0 -40 20 0 c11 0 20 5 20 11
0 6 12 9 28 7 l27 -3 3 -67 c2 -38 -1 -68 -6 -68 -5 0 -12 -9 -15 -20 -3 -12
-14 -20 -25 -20 -20 0 -32 18 -32 50 0 10 -9 28 -20 41 l-20 24 -14 -17 c-14
-19 -46 -24 -46 -8 0 18 -36 10 -58 -13 -23 -25 -30 -59 -18 -94 5 -16 2 -25
-14 -33 -31 -17 -50 -5 -50 29 0 16 -4 33 -10 36 -5 3 -10 35 -10 70 0 73 -15
115 -41 115 l-18 0 0 -131 c1 -83 -3 -135 -10 -142 -16 -16 -14 -44 3 -50 21
-8 50 -67 38 -79 -5 -5 -14 -3 -22 7 -16 19 -37 19 -57 -1 l-16 -15 -18 20
c-20 21 -26 71 -9 71 6 0 10 28 10 64 0 36 -4 68 -10 71 -5 3 -10 17 -10 31 0
33 -24 56 -52 52 l-23 -3 -5 -90 c-6 -88 -15 -125 -29 -125 -14 0 -33 55 -38
110 -5 57 -30 130 -45 130 -4 0 -8 18 -8 40 0 22 -4 40 -10 40 -5 0 -10 7 -10
15 0 9 -11 27 -25 41 l-26 26 -14 -12 c-22 -18 -18 -37 14 -78 29 -37 35 -63
44 -196 2 -28 9 -52 15 -54 20 -6 14 -42 -7 -42 -11 0 -23 5 -26 10 -10 16
-35 12 -35 -6 0 -9 9 -18 21 -21 l20 -6 -3 -36 c-2 -29 -8 -37 -25 -39 -13 -2
-23 -10 -23 -17 0 -24 21 -27 39 -6 33 38 51 27 51 -29 l0 -50 -39 0 -38 0 -6
30 -6 30 -30 0 c-16 0 -33 5 -36 10 -7 12 -85 14 -85 2 0 -10 -89 -32 -126
-32 -33 0 -54 -22 -54 -54 l0 -26 36 0 c19 0 43 4 52 9 12 6 24 5 37 -5 l19
-14 -20 -15 c-10 -8 -30 -15 -43 -15 -46 0 -61 -26 -61 -102 l0 -68 -30 -32
c-16 -17 -30 -35 -30 -41 0 -5 -8 -17 -18 -26 -37 -33 -62 -75 -62 -102 0 -21
-5 -29 -17 -29 -19 0 -43 41 -43 71 0 10 -4 20 -9 23 -10 7 -23 57 -26 104 -1
18 -9 38 -18 45 -8 6 -17 26 -19 42 -3 40 11 115 23 115 5 0 9 9 9 20 0 12 8
38 18 58 30 60 84 156 93 167 5 5 9 22 9 37 0 26 16 65 31 78 3 3 12 26 20 53
7 26 17 47 21 47 4 0 8 32 8 70 0 40 4 70 10 70 6 0 10 14 10 30 0 17 5 30 10
30 6 0 10 13 10 29 0 17 5 33 10 36 6 3 10 17 10 31 0 13 5 24 10 24 6 0 10 9
10 19 0 22 34 85 62 115 10 11 18 26 18 33 0 7 4 13 8 13 5 0 15 12 23 28 18
34 47 63 82 81 15 8 27 18 27 23 0 4 9 8 19 8 11 0 23 5 26 10 3 6 19 10 34
10 30 0 81 20 81 33 0 4 9 7 20 7 11 0 20 4 20 8 0 20 75 41 82 24z m3528 -12
c8 -11 20 -20 27 -20 17 0 134 -117 151 -151 15 -29 141 -109 172 -109 l20 0
0 -50 c0 -27 -4 -50 -10 -50 -5 0 -10 -9 -10 -20 0 -11 4 -20 9 -20 11 0 20
-68 24 -177 l3 -83 -15 0 c-9 0 -22 9 -29 20 -7 11 -23 20 -37 20 -28 0 -28
-1 -45 85 -6 33 -16 68 -21 77 -5 10 -9 31 -9 48 0 16 -4 30 -10 30 -5 0 -10
11 -10 24 0 14 -4 27 -9 30 -4 3 -11 18 -14 33 -6 29 -35 71 -74 108 -34 32
-45 39 -88 53 -64 22 -95 36 -95 44 0 5 -7 8 -16 8 -8 0 -29 13 -47 30 l-32
29 22 21 c12 11 29 20 38 20 8 0 15 5 15 10 0 6 17 10 38 10 26 0 42 -6 52
-20z m-6870 -80 c0 -11 3 -20 8 -20 11 0 32 -51 32 -77 0 -13 5 -23 10 -23 6
0 10 -23 10 -51 l0 -50 -17 3 c-14 2 -19 15 -21 58 -2 30 -8 57 -13 61 -5 3
-10 22 -11 42 -1 21 -7 42 -15 48 -17 15 -17 29 2 29 8 0 15 -9 15 -20z m1167
-56 l32 -37 30 12 c33 14 71 7 71 -14 0 -16 68 -85 84 -85 6 0 18 9 26 20 22
31 52 26 50 -7 -4 -50 -1 -54 27 -51 l27 3 14 48 13 47 42 0 c23 0 50 -7 61
-15 27 -20 145 -9 167 17 9 10 28 18 43 18 l26 0 0 -40 c0 -22 -3 -40 -7 -40
-11 0 -33 -50 -33 -72 0 -10 -8 -22 -17 -25 -31 -12 -43 -30 -43 -65 0 -22 7
-39 20 -48 20 -15 28 -50 11 -50 -6 0 -11 -21 -13 -47 l-3 -48 -25 -3 c-14 -2
-31 -9 -37 -14 -15 -12 -17 -94 -3 -103 15 -9 12 -45 -4 -45 -8 0 -18 5 -21
10 -3 6 -15 10 -26 10 l-19 0 0 -47 c0 -27 -4 -54 -9 -62 -6 -9 -2 -26 11 -49
14 -26 16 -37 7 -42 -8 -5 -9 -19 -4 -41 13 -64 17 -262 4 -286 -11 -20 -10
-40 7 -105 l6 -28 -21 0 c-11 0 -21 5 -21 10 0 6 -8 10 -18 10 -10 0 -25 12
-33 28 -8 15 -22 34 -31 43 -23 21 -23 30 3 75 l21 37 -11 24 c-6 13 -11 53
-11 88 0 37 -4 65 -10 65 -5 0 -10 6 -10 13 0 7 -9 32 -20 55 -11 23 -20 61
-20 88 0 26 -5 63 -12 81 -9 26 -9 40 1 68 10 28 10 39 0 51 -8 10 -10 32 -5
70 4 34 2 63 -5 76 l-11 21 -23 -25 c-26 -29 -35 -70 -42 -197 -3 -59 -1 -97
6 -104 19 -19 13 -71 -9 -87 -14 -10 -20 -26 -20 -51 0 -21 -5 -39 -10 -41
-16 -5 0 -98 16 -98 8 0 14 -10 14 -24 0 -14 5 -28 10 -31 6 -3 10 -49 10
-101 0 -53 4 -103 9 -113 9 -15 15 -253 8 -326 l-2 -29 32 -21 c34 -21 44 -55
17 -55 -18 0 -64 48 -64 65 0 6 -9 17 -20 25 -16 12 -20 25 -18 57 1 24 -1 46
-5 49 -11 12 -38 -18 -32 -36 3 -10 -2 -25 -11 -34 -11 -12 -15 -27 -11 -49 3
-19 -1 -43 -9 -57 -7 -14 -13 -42 -14 -62 0 -21 -3 -38 -6 -38 -16 0 -31 29
-27 52 3 18 -2 33 -21 51 -43 43 -34 77 38 152 30 31 51 45 69 45 20 0 27 5
27 19 0 11 5 23 10 26 6 4 10 54 10 116 l0 110 -17 17 c-12 12 -18 13 -21 4
-5 -17 -42 -15 -64 5 -24 21 -86 43 -104 36 -10 -4 -14 -24 -14 -68 0 -35 -4
-65 -9 -67 -5 -1 -11 -90 -13 -196 l-3 -194 -16 -16 c-8 -9 -18 -25 -21 -34
-5 -13 -19 -16 -62 -16 l-56 1 0 21 c0 12 9 32 20 44 16 17 20 35 20 87 0 37
-4 65 -10 65 -5 0 -10 9 -10 20 0 11 5 20 10 20 14 0 13 223 -2 255 -23 50
-68 24 -68 -40 0 -36 -30 -138 -45 -153 -3 -4 -10 0 -15 7 -4 8 -15 11 -24 8
l-16 -6 0 -82 0 -82 22 -19 22 -19 -17 -28 c-14 -24 -16 -48 -8 -115 1 -4 13
-6 28 -3 36 7 53 -1 53 -24 l0 -19 -55 0 c-30 0 -58 1 -62 3 -5 1 -7 23 -5 48
4 48 -14 76 -42 66 -21 -8 -23 7 -14 118 5 55 11 134 14 175 2 41 10 85 16 98
9 18 9 28 0 43 -8 13 -9 26 -3 37 5 9 11 80 14 157 6 132 10 167 37 290 6 28
13 77 16 110 3 33 9 69 13 80 5 11 14 40 21 65 27 103 38 137 61 182 5 10 9
25 9 33 0 8 5 15 10 15 6 0 10 7 10 16 0 18 61 137 72 142 5 2 8 19 8 37 0 19
5 37 10 40 6 3 10 13 10 21 0 14 20 43 30 44 3 0 19 -16 37 -36z m2700 20 l16
-15 -17 -17 -16 -16 -17 16 -16 17 13 15 c16 20 18 20 37 0z m1886 -5 c34 -18
77 -53 77 -64 0 -1 -5 -16 -11 -34 l-11 -31 16 -25 c9 -14 25 -25 34 -25 22 0
62 43 62 66 0 19 20 14 34 -8 7 -11 6 -29 -4 -58 -18 -55 -6 -74 49 -78 l43
-3 -7 -17 c-4 -9 -10 -27 -12 -40 l-5 -22 31 -6 c24 -5 31 -12 31 -30 0 -34
17 -38 42 -9 24 28 39 31 69 13 l20 -13 20 24 20 24 14 -19 c14 -18 20 -98 16
-190 -2 -23 2 -45 8 -49 7 -3 11 -41 11 -91 l0 -85 -20 -21 c-13 -14 -20 -36
-20 -61 0 -31 -6 -45 -27 -63 -34 -29 -38 -29 -65 -4 -41 38 -88 20 -88 -32
l0 -28 -28 0 c-34 0 -64 42 -44 62 7 7 12 25 12 40 0 22 -9 35 -40 56 -21 15
-39 32 -40 38 0 5 -8 19 -18 30 -29 32 -54 94 -49 122 6 31 -11 67 -48 101
-14 13 -25 34 -25 47 0 13 -4 24 -10 24 -5 0 -10 9 -10 19 0 11 -4 23 -10 26
-5 3 -10 17 -10 31 0 17 -5 24 -20 24 -11 0 -20 5 -20 10 0 6 -8 10 -19 10
-21 0 -34 -43 -25 -87 3 -17 -1 -36 -10 -48 l-16 -20 -11 18 c-5 9 -17 17 -24
17 -22 0 -21 -106 1 -114 11 -4 18 1 21 14 7 25 14 25 46 0 14 -11 30 -20 36
-20 6 0 13 -10 15 -22 9 -43 17 -93 23 -136 l5 -44 -18 4 c-14 2 -20 14 -22
41 -2 20 -6 37 -10 38 -35 5 -95 4 -105 -3 -8 -5 -12 -32 -12 -77 l0 -69 23
-20 c12 -11 22 -27 22 -36 0 -9 5 -16 10 -16 6 0 10 -15 10 -34 0 -19 -4 -38
-10 -41 -5 -3 -10 -15 -10 -26 0 -10 5 -19 10 -19 6 0 10 -6 10 -13 0 -7 9
-23 20 -35 11 -12 20 -28 20 -37 0 -8 -9 -15 -20 -15 -11 0 -20 3 -20 8 0 15
-59 34 -143 44 l-89 10 -15 -15 -16 -16 14 -13 c21 -20 61 -37 94 -40 l30 -3
1 -25 c3 -61 3 -61 32 -54 15 4 29 11 30 16 5 12 102 10 102 -2 0 -5 12 -10
26 -10 22 0 62 -26 53 -34 -22 -19 -51 -25 -69 -16 -14 7 -26 8 -39 0 -11 -5
-39 -10 -63 -10 -32 0 -47 -5 -58 -20 -11 -15 -26 -20 -58 -20 l-44 0 -35 -35
-35 -35 16 -16 c11 -10 25 -14 41 -10 18 5 25 2 25 -9 0 -8 -9 -15 -19 -15
-18 0 -101 -83 -101 -101 0 -20 -31 -7 -40 16 -5 14 -15 25 -22 25 -14 0 -38
65 -38 100 0 20 -4 22 -50 24 -36 2 -49 58 -35 149 5 33 4 47 -4 47 -6 0 -11
9 -11 20 0 15 7 20 25 20 28 0 32 12 10 30 -17 14 -21 85 -5 95 6 3 10 15 10
26 0 10 4 27 9 37 32 63 33 66 51 317 11 156 36 306 57 347 7 15 25 35 38 44
14 9 25 23 25 30 0 8 5 14 10 14 6 0 10 7 10 16 0 26 144 159 187 172 21 6 56
20 78 31 51 26 57 26 108 0z m2067 -26 c1 -20 193 -93 243 -93 14 0 29 -4 32
-10 3 -5 15 -10 26 -10 10 0 19 -4 19 -10 0 -5 10 -10 23 -10 13 0 28 -5 33
-10 10 -10 83 -13 194 -7 32 1 46 7 48 18 l3 16 91 1 c50 0 95 5 101 11 20 20
27 11 27 -37 0 -26 4 -52 9 -58 5 -5 16 -29 24 -54 8 -24 22 -48 31 -52 9 -5
24 -12 34 -17 l17 -8 3 -82 c2 -51 -1 -81 -8 -81 -5 0 -10 -8 -10 -18 0 -10
-9 -35 -20 -57 -11 -22 -20 -45 -20 -52 0 -7 -4 -13 -10 -13 -13 0 -13 -37 0
-42 14 -4 38 -103 33 -131 -4 -18 6 -32 37 -60 41 -36 49 -67 17 -67 -22 0
-41 -44 -29 -66 7 -14 6 -25 -5 -39 -11 -14 -17 -16 -20 -7 -3 6 -13 12 -24
12 -14 0 -19 -7 -19 -30 0 -16 5 -30 10 -30 6 0 10 -45 10 -115 0 -70 4 -115
10 -115 5 0 30 21 54 46 32 34 54 48 82 53 l39 7 -3 19 c-2 11 -8 22 -13 23
-18 7 -7 82 12 82 6 0 19 9 31 20 l21 19 -13 16 c-7 8 -19 15 -26 15 -8 0 -14
7 -14 15 0 11 11 15 40 15 l40 0 0 20 c0 11 -5 20 -11 20 -8 0 -10 18 -6 60
l7 60 -25 22 -25 21 1 76 c1 42 1 82 0 89 -2 20 -21 14 -21 -7 0 -27 -31 -36
-47 -15 -7 10 -13 21 -13 26 0 4 -9 8 -21 8 -12 0 -19 5 -16 13 2 7 15 11 30
9 l27 -3 0 69 0 70 20 5 c14 3 20 14 20 31 0 14 -4 26 -10 26 -5 0 -10 7 -10
15 0 9 -12 27 -26 42 -14 14 -23 32 -20 40 3 8 6 21 6 29 0 8 5 14 10 14 6 0
10 -7 10 -15 0 -27 42 -65 72 -65 l28 0 0 -92 c1 -66 5 -99 15 -112 23 -31 38
-6 52 87 16 107 16 154 1 160 -10 3 -10 7 1 20 17 21 31 22 31 2 0 -9 8 -19
18 -22 39 -15 72 -74 53 -97 -13 -15 5 -73 30 -96 16 -15 26 -49 36 -127 3
-24 9 -43 14 -43 5 0 9 -19 9 -43 0 -23 9 -67 20 -97 11 -30 20 -56 20 -57 0
-2 -14 -3 -32 -3 -25 0 -29 -3 -20 -12 17 -17 15 -43 -8 -80 -21 -35 -27 -88
-10 -88 6 0 10 -8 10 -17 0 -10 19 -34 41 -55 45 -41 47 -68 4 -68 -27 0 -35
-26 -13 -48 19 -19 48 -15 48 7 0 26 10 31 38 20 14 -5 22 -17 22 -32 0 -13 5
-28 11 -34 8 -8 8 -20 -2 -46 l-12 -34 21 -24 c24 -25 27 -54 22 -221 -1 -59
2 -88 9 -88 6 0 11 -12 11 -27 0 -21 -7 -31 -27 -40 -38 -18 -53 -16 -53 6 0
11 -4 23 -10 26 -5 3 -10 31 -10 61 0 62 -12 68 -61 32 l-30 -23 -9 15 c-5 8
-7 25 -4 37 5 16 1 25 -12 30 -11 4 -25 13 -33 20 l-13 14 21 18 c12 10 21 24
21 30 0 17 -26 41 -44 41 -22 0 -20 17 4 32 13 8 20 24 20 42 0 23 -3 27 -12
18 -7 -7 -21 -12 -31 -12 l-19 0 4 -30 5 -30 -19 0 c-10 0 -30 11 -44 25 -14
14 -28 25 -32 25 -17 -1 -30 -17 -33 -40 l-4 -25 -47 -3 c-29 -2 -48 1 -48 7
0 6 -8 11 -18 11 -10 0 -23 5 -29 11 -11 11 -53 -7 -53 -23 0 -5 -9 -8 -21 -8
l-21 0 6 38 c4 20 2 43 -3 51 l-9 14 -16 -16 c-9 -8 -16 -25 -16 -37 0 -25
-15 -56 -41 -84 -23 -25 -23 -27 0 -52 30 -33 46 -67 32 -72 -6 -2 -11 -15
-11 -29 0 -15 -12 -36 -30 -53 -16 -15 -30 -33 -30 -40 0 -19 -33 -47 -38 -32
-5 16 -42 15 -64 -2 -11 -8 -18 -26 -18 -44 0 -43 -20 -82 -42 -82 -10 0 -18
-4 -18 -10 0 -21 -37 -9 -48 15 -16 35 -15 50 4 66 9 8 27 31 40 51 19 30 31
38 53 38 16 0 31 6 34 13 3 9 7 9 20 -2 l17 -13 30 12 c23 10 30 19 30 40 0
16 5 30 11 32 13 4 -5 47 -24 60 -11 6 -12 58 -2 118 3 19 1 42 -4 50 l-10 15
-15 -20 c-9 -11 -16 -25 -16 -31 0 -14 -25 -25 -34 -17 -3 4 -6 19 -6 35 0 21
-5 28 -19 28 -11 0 -21 -5 -23 -10 -2 -7 -13 -6 -30 2 l-28 13 0 42 c0 44 13
64 24 37 5 -13 9 -14 20 -5 14 12 23 42 33 116 3 22 9 44 14 50 5 5 9 31 9 58
0 48 -15 77 -40 77 -20 0 -80 73 -80 97 0 27 7 29 31 7 24 -22 34 -13 53 45
20 63 20 100 0 108 -18 7 -36 -15 -29 -35 6 -15 -17 -42 -36 -42 -15 0 -59 50
-59 68 0 22 -38 13 -46 -10 -4 -13 -8 -61 -9 -108 -2 -66 2 -93 16 -122 26
-52 24 -67 -11 -74 l-30 -6 0 -27 c0 -14 -7 -35 -15 -45 -17 -22 -11 -36 16
-36 l19 0 0 -86 c0 -47 -5 -94 -11 -106 -6 -11 -8 -31 -4 -45 l6 -25 34 5 35
6 0 -21 c0 -11 -13 -33 -30 -48 -16 -15 -30 -35 -30 -44 0 -9 -8 -16 -20 -16
l-20 0 0 49 0 49 -30 23 -30 24 0 82 c0 85 -9 106 -32 75 -7 -10 -19 -22 -26
-26 -18 -11 -42 12 -42 38 0 12 -9 28 -20 36 -27 19 -28 70 -1 70 11 0 21 -6
24 -12 3 -10 9 -8 23 4 l18 18 -12 33 c-7 18 -12 49 -12 69 0 35 -38 88 -63
88 -16 0 -36 33 -37 62 0 31 -19 78 -32 78 -4 0 -8 14 -8 32 0 37 -20 97 -38
117 l-13 13 -18 -21 c-10 -12 -26 -21 -35 -21 -9 0 -16 -4 -16 -10 0 -5 14
-10 30 -10 l30 0 0 -30 0 -30 -22 0 c-27 -1 -78 -43 -78 -64 0 -9 9 -31 20
-51 11 -20 20 -42 20 -50 0 -8 5 -15 10 -15 6 0 10 -27 10 -60 l0 -60 40 -40
c30 -30 40 -48 40 -72 0 -17 7 -39 15 -48 l16 -17 -12 -29 c-19 -52 6 -134 41
-134 17 0 40 -26 40 -44 0 -12 -11 -16 -50 -16 l-50 0 0 36 c0 36 -12 55 -42
67 -24 9 -23 28 2 34 22 6 27 31 7 38 -6 3 -57 6 -111 8 -73 2 -102 -1 -112
-11 -18 -17 -18 -28 1 -36 8 -3 15 -12 15 -21 0 -8 5 -15 10 -15 6 0 10 -13
10 -29 0 -38 -30 -50 -66 -26 l-26 17 -22 -21 c-12 -12 -28 -21 -34 -21 -7 0
-12 -4 -12 -10 0 -15 -21 -12 -42 7 l-18 16 -19 -20 c-11 -11 -21 -36 -23 -54
l-3 -34 -27 -3 -28 -3 0 123 c0 69 4 128 10 134 11 11 -8 64 -22 64 -5 0 -8 9
-8 20 0 21 24 28 35 10 3 -5 19 -10 36 -10 22 0 29 -5 29 -20 0 -11 -4 -20
-10 -20 -5 0 -10 -11 -10 -24 0 -14 5 -28 10 -31 6 -3 10 -17 10 -30 0 -29 16
-41 35 -25 11 9 13 27 8 75 l-6 63 22 11 c11 7 21 21 21 32 0 19 -41 69 -57
69 -23 0 -103 47 -103 61 0 22 26 32 50 19 27 -14 27 -14 40 25 14 44 34 44
70 3 l28 -32 16 17 17 16 -13 23 c-7 12 -21 31 -30 42 -10 11 -18 25 -18 32 0
7 -3 14 -7 16 -11 4 -53 87 -53 104 0 8 -4 14 -9 14 -5 0 -11 9 -14 20 -3 11
-13 20 -24 20 -22 1 -47 19 -56 43 -5 12 -17 17 -46 17 l-41 0 -6 24 c-3 14 3
40 15 67 12 23 21 54 21 69 0 39 56 180 73 180 4 0 7 10 7 23 0 12 9 33 20 47
11 14 20 31 20 38 0 6 5 12 10 12 6 0 10 9 10 20 0 11 4 20 8 20 5 0 15 16 23
36 15 39 73 84 109 84 11 0 20 5 20 10 0 6 13 10 29 10 17 0 33 5 36 10 3 6
17 10 31 10 13 0 24 5 24 10 0 11 40 14 40 3z m1085 -23 c3 -5 -1 -10 -9 -10
-9 0 -16 5 -16 10 0 6 4 10 9 10 6 0 13 -4 16 -10z m-3635 -50 c17 -20 17 -60
0 -60 -8 0 -11 8 -26 63 -7 23 5 22 26 -3z m-1092 -33 c4 -30 -3 -34 -24 -13
-20 21 -18 48 4 44 10 -2 18 -14 20 -31z m4582 13 c0 -13 -7 -20 -20 -20 -13
0 -20 7 -20 20 0 13 7 20 20 20 13 0 20 -7 20 -20z m-1372 -12 c18 -18 14 -53
-8 -73 -11 -10 -20 -26 -20 -37 0 -10 -4 -18 -9 -18 -5 0 -11 -10 -14 -22 l-3
-23 -7 30 c-18 75 -25 101 -32 118 -5 13 -2 17 13 17 12 0 24 5 27 10 8 14 38
13 53 -2z m-530 -51 c2 -12 -3 -17 -17 -17 -15 0 -21 6 -21 21 0 25 33 22 38
-4z m-2668 -6 c14 -27 13 -31 -10 -31 -15 0 -20 7 -20 25 0 30 15 33 30 6z
m2776 -5 c13 -14 20 -66 8 -66 -14 0 -34 31 -34 54 0 30 5 32 26 12z m-606
-31 c0 -3 -9 -15 -20 -27 -11 -12 -20 -28 -20 -35 0 -7 -4 -13 -10 -13 -5 0
-10 18 -10 40 l0 40 30 0 c17 0 30 -2 30 -5z m-6300 -46 c0 -5 -4 -9 -10 -9
-5 0 -10 7 -10 16 0 8 5 12 10 9 6 -3 10 -10 10 -16z m6820 -50 c0 -10 -4 -19
-9 -19 -14 0 -33 28 -27 39 10 16 36 1 36 -20z m2335 -12 c11 -17 27 -44 34
-59 8 -16 18 -28 23 -28 4 0 8 -6 8 -12 0 -7 9 -24 19 -37 15 -20 17 -29 8
-48 -20 -45 -67 -22 -67 34 0 18 -8 52 -19 76 -26 59 -41 97 -41 102 0 15 18
0 35 -28z m-5087 -9 c7 -7 12 -27 12 -45 0 -18 5 -33 10 -33 6 0 10 -9 10 -20
0 -27 -18 -25 -22 2 -2 13 -15 29 -30 36 -40 19 -38 65 3 71 3 1 10 -4 17 -11z
m-3772 -65 c28 -33 31 -61 7 -70 -10 -4 -28 -17 -41 -30 -28 -28 -62 -31 -62
-5 0 11 9 27 20 37 11 10 20 30 20 45 0 23 15 50 28 50 3 0 15 -12 28 -27z
m6544 -40 c0 -30 8 -60 20 -81 11 -18 20 -49 20 -69 0 -37 20 -62 51 -63 22 0
69 38 69 56 0 19 25 46 34 37 3 -4 6 -18 6 -31 0 -27 25 -62 44 -62 7 0 18
-21 25 -47 8 -27 22 -60 33 -75 24 -34 23 -38 -8 -38 -38 0 -54 -22 -54 -78 0
-56 6 -67 27 -47 19 19 33 19 33 0 0 -8 -7 -15 -15 -15 -8 0 -15 -9 -15 -20 0
-11 6 -20 13 -20 20 0 65 -52 50 -57 -7 -3 -13 -13 -13 -24 0 -10 -4 -19 -10
-19 -15 0 -12 -29 4 -46 8 -8 24 -14 36 -14 12 0 28 -7 37 -15 15 -15 14 -28
-3 -97 l-6 -28 21 0 c15 0 21 -7 23 -22 2 -40 -3 -73 -13 -76 -5 -2 -9 -14 -9
-27 0 -26 -24 -50 -40 -40 -20 13 -11 62 16 79 36 24 30 61 -11 62 -16 1 -31
7 -33 13 -6 17 -132 139 -200 193 -12 10 -22 22 -22 28 0 13 27 13 35 0 6 -9
55 -15 55 -6 0 16 -14 36 -25 36 -24 0 -34 24 -20 44 8 11 12 30 8 47 -3 17 0
35 7 44 9 11 10 19 2 27 -14 14 -22 8 -72 -57 l-43 -55 23 -20 c35 -30 20 -48
-44 -52 -31 -1 -61 -1 -66 0 -14 5 -12 76 2 90 7 7 23 12 36 12 27 0 52 21 52
44 0 9 5 16 10 16 6 0 10 7 10 16 0 9 8 24 18 33 24 22 42 57 42 80 0 11 5 23
10 26 25 16 9 41 -35 54 -72 21 -72 21 -91 -126 -5 -33 -10 -43 -25 -43 l-18
0 -3 68 -3 67 -25 0 -25 0 -3 64 c-2 36 2 69 7 74 6 6 11 37 11 69 0 76 19
138 42 138 l18 0 0 -47z m-2914 29 c14 -9 28 -114 19 -142 -9 -30 -25 -14 -25
26 0 19 -4 34 -9 34 -11 0 -20 46 -14 71 6 20 12 23 29 11z m2574 -36 c0 -14
-4 -28 -10 -31 -6 -4 -10 7 -10 24 0 17 5 31 10 31 6 0 10 -11 10 -24z m184
-2 c18 -7 23 -88 6 -99 -5 -3 -10 -33 -10 -66 0 -32 -4 -59 -9 -59 -5 0 -11
-19 -15 -42 -12 -95 -18 -118 -33 -118 -8 0 -17 9 -20 20 -3 11 -9 20 -14 20
-5 0 -9 11 -9 24 0 14 -4 28 -10 31 -5 3 -10 40 -10 81 l0 75 20 21 c11 12 20
35 20 51 0 31 16 52 46 60 10 2 20 5 21 6 1 0 8 -2 17 -5z m296 -24 c0 -11 -4
-20 -10 -20 -5 0 -10 -9 -10 -20 0 -28 -15 -25 -29 6 -9 20 -9 30 0 40 18 21
49 17 49 -6z m-487 -123 c-5 -105 -12 -147 -23 -147 -6 0 -10 11 -10 24 0 14
-4 28 -10 31 -5 3 -10 28 -10 55 0 27 5 52 10 55 6 3 10 19 10 34 0 30 20 57
30 41 4 -6 5 -48 3 -93z m-6953 17 c0 -4 -17 -22 -37 -40 -46 -42 -115 -49
-85 -9 10 15 49 35 67 35 8 0 15 5 15 10 0 6 9 10 20 10 11 0 20 -3 20 -6z
m418 -47 l3 -27 -25 0 c-14 0 -28 5 -31 10 -3 6 -19 10 -36 10 -16 0 -29 -4
-29 -10 0 -11 -152 -14 -163 -4 -11 11 5 34 23 34 10 0 20 6 23 13 3 9 11 9
41 -1 28 -10 45 -11 64 -3 70 27 126 17 130 -22z m134 -49 c7 -7 25 -19 41
-27 35 -19 34 -31 -3 -31 -16 0 -30 4 -30 9 0 5 -9 11 -20 14 -12 3 -20 14
-20 26 0 24 12 27 32 9z m-1312 -18 c14 -11 34 -20 46 -20 11 0 24 -3 28 -7
14 -14 83 -33 123 -33 56 0 197 20 203 29 12 17 190 48 190 33 -1 -31 -67 -62
-132 -62 -21 0 -38 -4 -38 -8 0 -4 -21 -13 -47 -20 -27 -7 -62 -17 -79 -22
-30 -10 -143 5 -154 20 -6 9 -56 19 -135 28 l-60 7 -3 38 -3 37 18 0 c10 0 29
-9 43 -20z m8500 -40 c0 -11 5 -20 10 -20 6 0 10 -9 10 -20 0 -11 5 -20 10
-20 6 0 10 -7 10 -15 0 -19 44 -65 63 -65 22 0 37 -22 37 -58 0 -33 -18 -62
-40 -62 -14 0 -40 25 -40 38 0 5 -9 17 -20 27 -11 10 -20 24 -20 32 0 7 -8 32
-19 56 -41 94 -42 99 -30 113 16 20 29 17 29 -6z m-780 -121 c0 -43 -18 -51
-54 -24 l-19 14 16 7 c10 3 17 14 17 23 0 23 9 31 26 24 9 -3 14 -20 14 -44z
m-7680 -29 c0 -5 9 -10 20 -10 11 0 20 -4 20 -10 0 -5 8 -10 18 -10 10 0 24
-9 32 -20 15 -21 50 -28 50 -10 0 6 9 10 20 10 15 0 20 -7 20 -29 0 -16 6 -31
13 -34 9 -3 9 -11 0 -37 -14 -38 -6 -60 39 -102 15 -14 28 -31 28 -38 0 -20
-26 -38 -61 -42 l-34 -3 -9 -95 c-5 -52 -9 -131 -10 -175 l-1 -80 -20 0 -20 0
-3 62 -3 63 -25 6 c-18 5 -30 1 -43 -15 -10 -11 -26 -21 -35 -21 -22 0 -20
-33 4 -50 23 -17 25 -29 8 -65 -22 -49 -68 -25 -68 37 0 21 -4 38 -10 38 -5 0
-10 6 -10 13 -1 6 -14 28 -30 47 -17 19 -30 40 -30 47 0 7 -9 29 -21 50 -15
26 -19 47 -15 72 13 90 19 111 27 111 5 0 9 9 9 20 0 11 4 20 9 20 12 0 28 70
47 218 l6 42 39 0 c21 0 39 -4 39 -10z m4180 -91 c0 -15 -4 -19 -16 -15 -9 3
-18 6 -20 6 -2 0 -4 7 -4 15 0 8 9 15 20 15 14 0 20 -7 20 -21z m640 -11 c0
-6 -10 -22 -22 -35 l-21 -23 12 -22 c6 -13 30 -32 51 -42 61 -29 52 -46 -23
-46 l-63 0 -39 40 -39 40 15 26 c8 15 22 29 32 32 9 2 17 8 17 13 0 5 9 9 20
9 11 0 20 5 20 10 0 6 9 10 20 10 11 0 20 -5 20 -12z m2540 -76 c0 -55 -12
-72 -52 -72 l-28 0 0 35 c0 39 33 83 63 84 l17 1 0 -48z m2220 -31 c0 -49 -10
-57 -40 -31 -24 21 -21 50 5 50 8 0 15 5 15 10 0 6 5 10 10 10 6 0 10 -18 10
-39z m-9233 3 c11 -11 13 -18 5 -26 -8 -8 -7 -19 4 -40 10 -18 13 -41 9 -58
-4 -20 -1 -37 9 -52 11 -15 14 -33 10 -54 -3 -19 -1 -35 5 -38 13 -9 15 -176
2 -176 -5 0 -11 -10 -13 -21 -2 -12 -11 -27 -21 -33 -26 -16 -37 7 -37 77 l0
58 -17 -3 c-11 -2 -19 -14 -21 -31 -4 -30 -22 -37 -22 -8 0 11 -4 21 -8 23 -4
2 -19 18 -32 37 -16 23 -20 36 -12 39 7 2 12 12 12 23 0 10 5 19 10 19 6 0 10
14 10 30 0 32 9 37 27 19 21 -21 33 2 33 66 0 42 4 65 13 68 7 2 11 21 10 50
-2 51 1 55 24 31z m313 -24 c0 -13 -7 -20 -20 -20 -13 0 -20 7 -20 20 0 13 7
20 20 20 13 0 20 -7 20 -20z m-132 -57 c-9 -25 -9 -40 2 -74 11 -33 12 -43 2
-47 -14 -4 -16 -68 -2 -77 16 -10 12 -29 -10 -53 -22 -23 -26 -47 -10 -57 16
-10 11 -45 -7 -51 -10 -3 -26 -10 -36 -15 -13 -7 -22 -5 -33 6 l-15 15 20 21
c20 22 26 62 37 263 4 77 9 103 22 112 28 21 45 -4 30 -43z m7072 21 c0 -9 -8
-24 -18 -33 -9 -9 -23 -27 -30 -41 -12 -23 -80 -56 -91 -44 -2 2 19 26 47 53
29 28 52 57 52 65 0 9 9 16 20 16 12 0 20 -7 20 -16z m-1500 -44 c0 -11 -4
-20 -10 -20 -5 0 -10 9 -10 20 0 11 5 20 10 20 6 0 10 -9 10 -20z m3320 10 c0
-5 -4 -10 -10 -10 -5 0 -10 5 -10 10 0 6 5 10 10 10 6 0 10 -4 10 -10z m-5300
-20 c0 -5 9 -10 20 -10 11 0 20 -4 20 -9 0 -6 17 -11 37 -13 27 -2 39 -8 41
-20 l3 -18 -50 0 c-28 0 -51 5 -51 10 0 6 -10 10 -22 10 -29 1 -58 22 -58 44
0 11 9 16 30 16 17 0 30 -4 30 -10z m3940 0 c0 -5 -7 -10 -15 -10 -8 0 -15 5
-15 10 0 6 7 10 15 10 8 0 15 -4 15 -10z m-5673 -64 c-4 -9 -11 -16 -17 -16
-11 0 -14 33 -3 44 11 10 26 -11 20 -28z m7113 4 c0 -21 -5 -30 -16 -30 -11 0
-14 5 -10 16 3 9 6 22 6 30 0 8 5 14 10 14 6 0 10 -13 10 -30z m-8752 -50 l22
-20 18 11 c19 12 54 7 82 -11 l15 -9 -12 -20 c-11 -17 -16 -151 -6 -151 2 0
12 5 22 12 30 18 51 3 51 -37 l0 -35 -30 0 c-16 0 -30 5 -30 10 0 6 -9 10 -20
10 -11 0 -20 -4 -20 -10 0 -5 -9 -10 -20 -10 -13 0 -20 7 -20 20 0 11 -4 20
-10 20 -13 0 -13 57 0 62 7 2 6 15 -1 38 -7 19 -13 41 -15 48 -2 7 -19 12 -39
12 l-35 0 0 -39 c0 -22 -4 -43 -10 -46 -13 -8 -13 -41 2 -64 18 -29 3 -51 -36
-51 -19 0 -36 -5 -38 -12 -2 -6 -12 -9 -21 -5 -32 12 -11 137 23 137 9 0 21 5
28 12 15 15 16 74 2 83 -5 3 -10 19 -10 36 l0 29 43 0 c30 0 50 -6 65 -20z
m3357 3 c10 -13 10 -19 -1 -30 -16 -17 -21 -16 -28 2 -5 15 2 45 11 45 3 0 11
-8 18 -17z m4019 9 c2 -4 0 -14 -5 -22 l-9 -15 -10 15 c-5 8 -10 18 -10 23 0
10 28 9 34 -1z m-5662 -51 c-5 -46 -11 -50 -30 -21 l-12 20 16 25 c22 33 30
25 26 -24z m2338 9 c0 -11 -4 -20 -10 -20 -5 0 -10 9 -10 20 0 11 5 20 10 20
6 0 10 -9 10 -20z m3437 -37 c-2 -43 -15 -73 -31 -73 -3 0 -6 17 -6 38 0 21
-5 43 -11 49 -16 16 -2 33 26 33 l24 0 -2 -47z m937 31 c8 -21 3 -26 -18 -18
-20 8 -21 34 -2 34 8 0 17 -7 20 -16z m-6798 -31 l-7 -18 -10 18 c-12 21 -2
44 13 29 6 -6 8 -19 4 -29z m3002 -39 c38 -36 80 -71 93 -78 13 -6 25 -22 27
-34 2 -12 8 -22 13 -22 5 0 9 -5 9 -10 0 -12 113 -130 124 -130 4 0 26 -18 48
-40 23 -22 47 -40 55 -40 7 0 13 -9 13 -20 0 -11 -4 -20 -10 -20 -5 0 -10 -12
-10 -26 0 -14 -5 -35 -11 -46 -8 -14 -8 -23 0 -27 5 -4 16 -40 22 -81 13 -77
25 -100 53 -100 12 0 16 -10 16 -34 0 -19 5 -38 10 -41 6 -3 10 -24 10 -46 l0
-39 -60 0 c-33 0 -60 -4 -60 -10 0 -16 -27 -12 -70 10 l-39 20 -99 0 -99 0
-17 19 c-9 10 -30 21 -47 25 -16 3 -29 10 -29 16 0 6 -7 19 -16 27 -19 19 -43
9 -59 -25 -16 -35 -25 -25 -25 27 0 31 5 51 13 54 9 3 9 11 0 37 -9 23 -9 38
-2 52 8 14 8 23 0 31 -14 14 -15 117 -1 117 6 0 10 15 10 34 0 19 5 38 10 41
6 3 10 16 10 29 0 12 9 41 20 64 23 46 26 92 8 110 -9 9 -9 20 1 48 9 26 10
39 2 47 -6 6 -11 28 -11 48 0 21 -5 39 -12 41 -18 6 -1 38 21 38 11 0 51 -30
89 -66z m1522 57 c0 -13 -29 -35 -37 -28 -7 8 15 37 28 37 5 0 9 -4 9 -9z
m-2240 -31 c0 -11 -4 -20 -10 -20 -5 0 -10 9 -10 20 0 11 5 20 10 20 6 0 10
-9 10 -20z m340 10 c0 -5 -4 -10 -10 -10 -5 0 -10 5 -10 10 0 6 5 10 10 10 6
0 10 -4 10 -10z m4238 -6 c13 -4 22 -14 22 -25 0 -24 -55 -27 -64 -3 -13 35
-5 40 42 28z m-2418 -64 c0 -23 -25 -27 -33 -6 -7 16 1 26 20 26 7 0 13 -9 13
-20z m575 -6 l23 -26 -13 -25 c-8 -15 -11 -40 -8 -60 4 -23 2 -38 -7 -43 -8
-5 -13 -32 -13 -74 0 -36 -3 -66 -5 -66 -3 0 -12 8 -21 19 -9 10 -38 29 -64
41 -32 15 -47 28 -47 41 0 10 -4 19 -10 19 -5 0 -10 22 -10 50 0 39 4 53 20
62 11 7 20 23 20 36 0 36 21 51 69 52 l44 0 22 -26z m-3064 -10 c10 -12 10
-22 1 -48 -7 -18 -12 -43 -12 -57 -1 -21 -40 -79 -55 -79 -3 0 -5 23 -5 50 0
28 5 50 10 50 6 0 10 23 10 50 l0 50 19 0 c10 0 24 -7 32 -16z m3469 -9 c0 -8
-4 -15 -10 -15 -5 0 -10 7 -10 15 0 8 5 15 10 15 6 0 10 -7 10 -15z m-2780
-18 c0 -14 -20 -37 -32 -37 -4 0 -8 11 -8 25 0 18 5 25 20 25 11 0 20 -6 20
-13z m2675 5 c6 -4 9 -32 7 -64 l-4 -58 -18 0 c-18 0 -30 35 -30 90 0 38 19
51 45 32z m-4941 -18 c8 -20 -1 -34 -20 -34 -8 0 -14 10 -14 25 0 28 24 34 34
9z m5252 2 c8 -9 14 -35 14 -65 0 -27 5 -53 10 -56 6 -3 10 -13 10 -21 0 -18
24 -44 39 -44 6 0 11 -7 11 -16 0 -22 -30 -84 -41 -84 -5 0 -9 -7 -9 -15 0 -8
-6 -24 -12 -35 -10 -16 -10 -24 0 -40 6 -11 12 -25 12 -31 0 -21 29 -39 64
-39 l36 0 0 -36 c0 -19 5 -44 10 -55 8 -15 7 -23 -4 -34 -8 -8 -19 -15 -24
-15 -16 0 -23 -30 -12 -50 16 -30 12 -50 -10 -50 -13 0 -20 -7 -20 -20 0 -24
-25 -27 -34 -4 -3 9 -6 29 -6 46 0 33 -22 61 -42 53 -7 -3 -20 -1 -28 5 -12 7
-12 12 -2 22 23 23 7 138 -20 138 -4 0 -8 15 -8 34 0 19 -4 38 -10 41 -14 8
-13 65 1 65 11 0 10 21 -10 130 -22 120 -23 130 -12 130 6 0 11 14 11 30 l0
30 36 0 c19 0 42 -6 50 -14z m2220 0 c20 -21 18 -26 -15 -26 -16 0 -31 6 -34
14 -11 28 24 36 49 12z m-6682 -2 c23 -9 20 -24 -4 -24 -11 0 -20 7 -20 15 0
17 2 18 24 9z m3096 -8 c0 -3 -4 -8 -10 -11 -5 -3 -10 -1 -10 4 0 6 5 11 10
11 6 0 10 -2 10 -4z m1560 -26 c0 -16 -4 -30 -10 -30 -5 0 -10 14 -10 30 0 17
5 30 10 30 6 0 10 -13 10 -30z m-4540 0 c0 -5 -4 -10 -10 -10 -5 0 -10 5 -10
10 0 6 5 10 10 10 6 0 10 -4 10 -10z m4744 2 c3 -5 2 -19 -1 -31 -4 -17 -12
-21 -32 -19 -33 4 -38 30 -9 44 30 15 36 16 42 6z m-124 -30 c0 -10 -9 -24
-20 -32 -22 -16 -27 -59 -8 -78 7 -7 25 -12 40 -12 17 0 31 -7 35 -15 8 -24
-4 -30 -33 -16 -37 17 -58 -2 -50 -46 3 -18 9 -49 12 -68 5 -26 11 -35 25 -35
12 0 19 -7 19 -20 l0 -20 -46 0 c-26 0 -51 6 -60 14 -17 18 -19 83 -1 89 10 4
10 7 0 18 -15 16 -17 59 -3 59 6 0 10 9 10 20 0 11 5 20 10 20 15 0 12 38 -6
65 -17 26 -11 50 11 41 7 -2 21 4 31 14 24 24 34 25 34 2z m-5622 -14 c-4 -29
-38 -38 -38 -10 0 19 11 29 33 31 5 1 7 -9 5 -21z m1832 -18 c7 -16 16 -30 21
-30 5 0 9 -17 9 -38 0 -28 7 -45 25 -62 l24 -23 15 12 c8 7 16 29 18 49 2 26
8 38 21 40 l17 3 0 -83 0 -83 25 -29 25 -29 24 16 24 16 6 -16 c12 -29 -4 -53
-34 -53 -16 0 -32 5 -35 10 -9 14 -73 12 -78 -2 -3 -10 -11 -10 -39 0 -20 7
-82 12 -146 12 -122 0 -141 8 -98 45 27 23 34 63 16 81 -7 7 -4 16 10 29 11
10 20 24 20 32 0 7 4 13 8 13 5 0 15 12 23 27 15 30 70 93 80 93 4 0 12 -13
19 -30z m470 10 c0 -23 -10 -26 -28 -8 -18 18 -15 28 8 28 13 0 20 -7 20 -20z
m-4714 -14 c20 -21 17 -46 -5 -46 -29 0 -46 26 -29 44 16 19 16 19 34 2z
m4580 0 c8 -8 14 -26 14 -40 0 -14 5 -26 10 -26 13 0 13 -57 0 -62 -6 -2 -11
-34 -12 -71 l-1 -67 -18 0 c-12 0 -19 7 -19 20 0 11 5 20 10 20 6 0 10 9 10
20 0 11 -4 20 -10 20 -14 0 -13 57 1 62 9 3 9 9 0 25 -11 22 -16 113 -5 113 3
0 12 -6 20 -14z m1714 -9 c0 -13 -5 -28 -11 -34 -6 -6 -9 -26 -7 -44 2 -27 8
-35 27 -37 28 -4 43 8 46 40 1 13 3 25 4 29 0 3 35 6 76 7 l75 3 7 -18 c4 -10
13 -24 20 -32 21 -20 10 -36 -23 -34 -135 11 -174 3 -174 -33 l0 -24 39 0 c36
0 72 -22 58 -36 -3 -4 -28 -7 -55 -7 l-49 -1 -34 35 c-19 20 -40 45 -46 57
-15 25 -18 112 -4 112 5 0 11 9 14 20 7 28 37 26 37 -3z m-6020 -17 c0 -13 -7
-20 -20 -20 -23 0 -26 10 -8 28 18 18 28 15 28 -8z m3186 3 c8 -10 14 -44 14
-76 l0 -59 30 -28 c17 -15 30 -33 30 -40 0 -6 13 -25 30 -43 33 -35 38 -57 15
-57 -26 0 -47 -45 -39 -84 4 -25 3 -36 -6 -36 -16 0 -40 26 -40 44 0 8 -8 21
-19 28 -22 15 -31 42 -42 123 -7 45 -13 219 -9 243 1 9 25 -1 36 -15z m4122
-10 c12 -27 17 -93 6 -93 -11 0 -34 29 -34 44 0 18 -35 22 -45 6 -4 -6 -12 -5
-21 5 l-15 15 23 24 c32 34 69 33 86 -1z m-4303 6 c4 -5 18 -14 31 -19 l24
-10 0 -90 c0 -84 -10 -124 -34 -142 -23 -16 -32 4 -28 62 3 46 0 70 -17 105
-31 66 -27 100 11 104 4 1 10 -4 13 -10z m1535 -4 c0 -8 -9 -15 -20 -15 -22 0
-27 15 -7 23 21 9 27 7 27 -8z m4320 -6 c0 -5 -9 -9 -20 -9 -22 0 -27 16 -7
23 15 5 27 -1 27 -14z m-8616 -2 c7 -7 16 -24 19 -39 4 -15 14 -33 22 -42 8
-8 15 -20 15 -26 0 -20 -28 -40 -54 -40 l-26 0 0 30 c0 17 -4 30 -8 30 -5 0
-15 12 -23 28 -8 15 -18 30 -23 33 -5 4 -6 14 -3 23 8 19 63 22 81 3z m3406 9
c0 -18 -15 -36 -31 -36 -12 0 -19 7 -19 20 0 15 7 20 25 20 14 0 25 -2 25 -4z
m-3750 -26 c0 -5 -9 -10 -20 -10 -11 0 -20 5 -20 10 0 6 9 10 20 10 11 0 20
-4 20 -10z m5923 -2 c17 -18 57 -93 57 -107 0 -6 14 -25 30 -43 17 -17 30 -36
30 -43 0 -6 18 -27 40 -46 22 -19 40 -39 40 -45 0 -5 14 -23 30 -39 17 -16 30
-35 30 -42 0 -8 14 -19 30 -24 24 -9 30 -17 30 -40 0 -39 20 -79 40 -79 9 0
21 -10 27 -22 43 -94 49 -103 73 -103 43 0 65 71 78 247 l7 86 28 31 c15 17
27 37 27 45 0 17 24 28 45 20 17 -7 21 -64 5 -64 -13 0 -13 -117 0 -125 7 -4
10 -58 9 -145 l-2 -139 -34 -33 c-19 -18 -39 -43 -44 -56 -5 -13 -14 -20 -20
-16 -6 3 -43 8 -82 11 -40 2 -76 8 -81 13 -6 6 -22 10 -38 10 -15 0 -39 5 -53
12 -21 9 -31 9 -46 0 -23 -15 -66 -16 -74 -2 -10 16 -53 12 -97 -10 -23 -11
-50 -20 -61 -20 -10 0 -27 -5 -39 -11 -27 -14 -30 -9 -16 29 10 26 10 37 0 52
-6 11 -12 31 -12 45 0 14 -4 25 -10 25 -14 0 -13 157 2 220 l12 51 -14 9 -14
9 12 71 c7 39 12 118 12 175 l0 105 16 0 c8 0 21 -6 27 -12z m-5703 -98 c0
-40 -4 -70 -10 -70 -5 0 -10 -7 -10 -15 0 -8 -2 -15 -4 -15 -2 0 -11 -3 -20
-6 -23 -9 -20 18 4 44 15 16 20 35 20 77 0 30 5 55 10 55 6 0 10 -30 10 -70z
m7873 48 c12 -13 27 -34 34 -48 17 -36 27 -110 15 -110 -6 0 -17 -3 -26 -6
-11 -4 -16 -1 -16 10 0 18 -35 22 -45 6 -7 -12 -35 12 -35 31 0 7 7 20 16 30
l16 17 -12 22 c-15 27 -5 70 16 70 8 0 25 -10 37 -22z m173 -16 c6 -10 10 -44
7 -77 -2 -33 -1 -75 2 -92 l6 -33 25 0 c32 0 46 35 37 96 -6 44 5 81 34 112
17 18 23 15 23 -12 0 -12 14 -38 32 -56 l31 -33 -1 -41 -2 -41 28 -12 c15 -7
35 -26 45 -42 12 -21 28 -32 54 -37 36 -7 97 -61 109 -96 3 -10 9 -18 14 -18
4 0 10 -9 13 -20 4 -15 14 -20 41 -20 l36 0 0 -23 c0 -13 20 -43 50 -74 28
-28 50 -57 50 -63 0 -7 16 -9 50 -4 34 5 50 3 50 -5 0 -6 6 -11 13 -11 7 0 30
-16 51 -35 21 -19 43 -35 48 -35 5 0 15 14 21 30 16 43 27 37 27 -15 0 -25 5
-45 10 -45 6 0 10 -9 10 -20 0 -16 7 -20 30 -20 23 0 30 5 30 19 0 11 -4 23
-10 26 -23 14 1 112 32 131 6 4 23 -8 38 -26 l28 -34 16 16 c10 11 16 33 16
62 0 35 4 46 15 46 20 0 32 -30 15 -40 -9 -6 -9 -13 -1 -28 6 -11 11 -38 11
-59 1 -44 49 -110 73 -100 8 3 19 1 25 -5 8 -8 16 -6 27 6 l17 16 -6 63 c-4
34 -9 95 -12 135 -3 39 -10 72 -15 72 -15 0 -10 50 6 56 19 8 45 -13 45 -36 0
-10 4 -20 9 -22 5 -1 11 -48 13 -104 5 -104 11 -126 41 -137 9 -3 17 -16 17
-27 0 -12 7 -20 16 -20 12 0 14 7 9 31 -5 23 -2 34 14 48 14 12 21 30 21 55 0
20 3 36 6 36 16 0 34 -33 34 -64 0 -20 5 -36 10 -36 15 0 13 153 -2 168 -18
18 -28 15 -28 -8 0 -13 -7 -20 -20 -20 l-20 0 0 40 0 40 19 0 c11 0 21 -6 24
-12 2 -7 8 0 12 15 9 34 3 42 -23 28 -22 -12 -32 2 -32 43 l0 22 39 1 39 2 10
-27 c11 -28 21 -111 26 -222 5 -92 4 -90 26 -90 l20 0 0 -40 0 -40 30 0 c24 0
30 -4 30 -21 l0 -21 -32 6 c-18 3 -50 8 -71 12 l-39 6 4 -28 3 -29 54 -3 c30
-2 59 2 64 7 20 20 33 11 45 -32 11 -34 11 -49 1 -70 -16 -35 -26 -34 -47 3
-19 33 -37 37 -66 15 -18 -14 -18 -26 -1 -67 l7 -18 -26 0 c-16 0 -29 7 -33
18 -14 37 -32 44 -114 44 l-80 0 -18 -21 c-24 -27 -31 -26 -31 4 0 39 -43 49
-136 30 -25 -5 -64 -38 -64 -54 0 -13 -3 -13 -24 -5 -9 3 -16 15 -16 25 0 14
-7 19 -29 19 -17 0 -33 5 -36 10 -3 6 -40 10 -81 10 -43 0 -74 4 -74 10 0 6
-9 10 -20 10 -11 0 -20 5 -20 10 0 6 -8 10 -18 10 -10 0 -24 9 -32 20 -8 11
-22 20 -31 20 -9 0 -19 -9 -22 -20 -7 -25 -37 -26 -37 -1 0 25 -24 43 -51 39
-18 -2 -26 -14 -36 -57 -22 -87 -60 -105 -93 -46 -14 24 -23 29 -44 27 -19 -2
-34 4 -47 19 l-19 22 -20 -23 -20 -23 -15 13 c-8 7 -15 20 -15 30 0 13 -10 19
-35 22 -42 5 -45 3 -45 -34 0 -32 -22 -38 -47 -12 l-17 16 12 19 c7 10 12 42
12 70 0 39 5 55 21 68 l21 16 -9 95 c-5 52 -7 105 -5 118 7 34 27 21 30 -21 2
-20 8 -37 13 -37 7 0 8 -14 4 -37 -4 -27 -1 -44 9 -58 9 -11 16 -29 16 -41 0
-26 8 -34 26 -27 16 6 19 49 4 58 -5 3 -10 19 -10 35 0 16 -4 32 -10 35 -5 3
-10 38 -10 76 0 50 -4 75 -16 86 l-15 15 -14 -18 c-8 -11 -15 -23 -15 -28 0
-5 -7 -3 -15 4 -22 18 -45 -4 -45 -44 0 -20 -7 -37 -20 -46 -14 -10 -20 -26
-20 -55 0 -22 -7 -49 -15 -59 l-15 -20 -12 34 -11 34 -8 -22 c-10 -27 -24 -28
-51 -3 -22 21 -37 15 -51 -21 -3 -10 -12 -18 -19 -18 -18 0 -41 37 -28 45 6 3
10 16 10 29 0 12 4 26 10 32 6 6 10 73 11 154 0 134 7 187 30 232 5 10 9 28 9
40 0 12 5 50 11 85 8 48 15 63 28 63 9 0 21 -8 27 -18z m-6136 -32 c14 -35 8
-49 -15 -30 -16 13 -21 60 -6 60 5 0 14 -14 21 -30z m6880 1 c16 -39 5 -71
-25 -71 -16 0 -25 7 -29 25 -16 65 30 104 54 46z m-9466 3 c9 -3 16 -12 16
-19 0 -18 18 -23 58 -17 38 5 42 -8 10 -37 l-21 -20 -17 19 c-10 11 -29 20
-42 20 -35 0 -54 24 -36 44 16 18 13 17 32 10z m356 -4 c0 -5 -9 -10 -20 -10
-11 0 -20 5 -20 10 0 6 9 10 20 10 11 0 20 -4 20 -10z m4815 -30 c0 -32 -3
-40 -17 -40 -19 0 -24 32 -12 64 12 31 29 16 29 -24z m2511 26 c24 -25 10 -66
-23 -66 -18 0 -28 47 -13 65 15 18 18 19 36 1z m1642 2 c18 -18 15 -28 -8 -28
-11 0 -20 -4 -20 -10 0 -5 -9 -10 -20 -10 -11 0 -20 -4 -20 -8 0 -12 -47 -32
-75 -32 -56 0 -8 69 61 88 54 14 68 14 82 0z m-7988 -28 c0 -11 -4 -20 -8 -20
-5 0 -15 -11 -22 -25 -19 -36 -30 -31 -30 13 0 45 5 52 37 52 16 0 23 -6 23
-20z m6240 -10 c0 -16 -4 -30 -10 -30 -5 0 -10 -9 -10 -20 0 -11 -4 -20 -9
-20 -5 0 -15 -16 -21 -35 -12 -37 -21 -43 -38 -22 -7 8 -7 18 -2 27 6 8 10 32
10 53 0 24 5 37 13 37 8 0 22 9 32 20 25 28 35 25 35 -10z m2714 -40 c6 -49 5
-64 -5 -71 -11 -8 -9 -13 9 -28 17 -15 22 -30 22 -71 0 -28 -5 -60 -10 -70 -7
-13 -7 -21 0 -25 13 -8 13 -45 0 -45 -10 0 -30 62 -30 93 0 10 -7 26 -16 34
l-16 17 -20 -13 c-11 -7 -23 -10 -26 -6 -3 3 -5 46 -3 96 l2 90 32 34 c18 19
36 34 42 32 5 -2 14 -32 19 -67z m314 43 c6 -15 12 -38 12 -51 0 -15 -4 -22
-12 -18 -7 3 -21 9 -30 12 -23 8 -29 29 -18 59 12 33 32 32 48 -2z m-3435 -18
c-4 -59 8 -115 29 -135 l20 -19 19 12 c15 9 19 24 19 64 0 30 5 53 10 53 12 0
7 -305 -5 -373 -5 -23 -2 -49 5 -68 10 -23 10 -33 1 -42 -6 -6 -11 -17 -11
-25 0 -17 -25 -42 -42 -42 -11 0 -15 24 -16 102 -2 56 -7 107 -11 113 -8 9
-14 35 -28 113 -3 17 -9 32 -14 32 -5 0 -9 57 -9 126 l0 125 18 -3 c12 -3 16
-12 15 -33z m-6973 6 c6 -12 23 -21 43 -23 l32 -3 3 -27 c4 -33 -8 -36 -33 -8
-11 12 -31 20 -52 20 l-33 0 0 30 c0 35 23 41 40 11z m1020 -1 c0 -13 -7 -20
-20 -20 -23 0 -25 5 -7 25 17 20 27 18 27 -5z m1000 0 c0 -23 -10 -26 -28 -8
-18 18 -15 28 8 28 13 0 20 -7 20 -20z m5438 -77 c-2 -27 -8 -39 -20 -41 -14
-3 -18 3 -18 25 0 28 15 53 33 53 4 0 7 -17 5 -37z m-5138 -3 c0 -13 -7 -20
-20 -20 -23 0 -26 10 -8 28 18 18 28 15 28 -8z m6875 10 c3 -5 13 -10 22 -10
14 0 73 -55 73 -69 0 -3 -4 -12 -9 -20 l-9 -14 -45 32 c-26 17 -58 31 -75 31
-16 0 -35 7 -42 15 l-13 16 19 14 c22 17 70 20 79 5z m-7257 -42 l3 -28 -55 0
c-61 0 -65 4 -38 38 13 17 26 22 52 20 l35 -3 3 -27z m292 24 c0 -5 -9 -19
-20 -32 l-19 -22 -17 16 c-23 23 -10 46 26 46 16 0 30 -4 30 -8z m5350 -22 c0
-23 -4 -30 -20 -30 -20 0 -25 15 -14 44 11 28 34 18 34 -14z m704 15 c3 -9 -1
-18 -10 -22 -19 -7 -39 11 -30 26 10 16 33 13 40 -4z m56 -5 c0 -13 -7 -20
-20 -20 -23 0 -25 5 -7 25 17 20 27 18 27 -5z m-8297 -14 c6 -15 -1 -26 -15
-26 -4 0 -8 9 -8 20 0 23 15 27 23 6z m1677 -16 c0 -16 -4 -30 -10 -30 -5 0
-10 14 -10 30 0 17 5 30 10 30 6 0 10 -13 10 -30z m-900 4 c0 -7 -27 -34 -34
-34 -3 0 -6 9 -6 20 0 13 7 20 20 20 11 0 20 -3 20 -6z m8760 -3 c0 -5 9 -11
20 -14 13 -3 20 -14 20 -30 0 -17 -7 -28 -20 -32 -11 -3 -20 -11 -20 -16 0
-18 -112 -120 -129 -117 -32 7 -9 65 32 81 28 10 20 77 -10 77 -27 0 -9 35 20
38 15 2 27 8 27 13 0 5 14 9 30 9 17 0 30 -4 30 -9z m-2191 -28 c9 -10 11 -26
7 -56 -4 -23 -9 -61 -12 -85 -4 -27 -13 -46 -25 -53 l-19 -10 0 -64 c0 -35 5
-67 10 -70 6 -3 10 -15 10 -27 0 -21 -18 -22 -62 -3 l-18 7 0 -40 c0 -32 -4
-42 -20 -47 -11 -3 -24 -4 -29 -1 -12 8 -14 263 -1 271 5 3 10 38 10 76 0 48
5 75 14 85 23 23 26 17 26 -51 0 -71 15 -91 45 -61 l16 16 -9 62 c-7 43 -6 65
1 70 12 7 37 -1 56 -19z m-5569 11 c0 -7 -27 -34 -34 -34 -3 0 -6 9 -6 20 0
13 7 20 20 20 11 0 20 -3 20 -6z m146 -30 c-3 -9 -6 -20 -6 -25 0 -5 -4 -9
-10 -9 -5 0 -10 11 -10 25 0 16 6 25 16 25 11 0 14 -5 10 -16z m1874 -4 c0
-13 -7 -20 -20 -20 -13 0 -20 7 -20 20 0 13 7 20 20 20 13 0 20 -7 20 -20z
m158 -3 c2 -12 -3 -17 -17 -17 -12 0 -21 6 -21 13 0 31 32 34 38 4z m3682 -7
c0 -16 -4 -30 -8 -30 -11 0 -30 -250 -19 -257 4 -2 7 -13 7 -24 0 -10 5 -19
10 -19 6 0 10 -9 10 -20 0 -13 7 -20 19 -20 25 0 43 23 39 52 -2 12 2 24 7 26
6 1 11 -16 13 -37 2 -30 11 -47 33 -65 30 -26 39 -56 16 -56 -7 0 -32 9 -55
20 -46 22 -74 25 -103 10 -21 -12 -44 -3 -85 33 -29 25 -30 33 -5 40 l19 5 6
63 c4 35 9 94 12 131 l6 68 -19 7 c-21 8 -42 33 -43 51 0 8 16 12 46 12 l46 0
5 20 c3 11 14 20 24 20 14 0 19 -7 19 -30z m1740 7 c0 -24 -72 -77 -104 -77
-22 0 -20 29 2 37 9 4 24 14 32 24 13 14 33 23 63 28 4 0 7 -5 7 -12z m-1922
-24 c-4 -36 -38 -45 -38 -10 0 27 7 37 27 37 10 0 13 -9 11 -27z m617 3 c0 0
6 -11 13 -23 15 -27 16 -69 2 -78 -7 -4 -7 -12 0 -25 13 -24 13 -150 0 -150
-5 0 -10 -11 -10 -25 0 -24 -3 -33 -28 -82 -7 -13 -12 -30 -12 -38 0 -8 -4
-15 -10 -15 -5 0 -10 24 -10 54 0 70 -7 86 -36 86 l-24 0 0 -30 c0 -16 -4 -30
-10 -30 -6 0 -10 30 -10 70 l0 70 20 0 c13 0 20 -7 20 -18 0 -23 19 -42 42
-42 l18 0 0 63 c0 35 -3 67 -7 71 -9 9 -14 136 -6 149 3 6 48 0 48 -7z m-5395
-46 c0 -16 -2 -30 -4 -30 -2 0 -13 -3 -23 -6 l-18 -7 13 14 c6 7 12 23 12 36
0 13 5 23 10 23 6 0 10 -13 10 -30z m185 -62 c8 -7 21 -19 30 -26 23 -19 14
-36 -21 -40 -16 -2 -32 -9 -36 -15 -11 -17 -38 18 -38 51 0 16 3 32 7 35 11
11 43 8 58 -5z m1305 8 c0 -2 -3 -11 -6 -20 -9 -23 -24 -20 -24 4 0 11 7 20
15 20 8 0 15 -2 15 -4z m-614 -49 c6 -18 -13 -67 -26 -67 -11 0 -14 63 -3 73
10 11 23 8 29 -6z m-850 -22 c21 -20 15 -99 -7 -103 -20 -4 -39 38 -39 83 0
38 20 47 46 20z m3124 -10 l13 -24 -13 -16 c-7 -8 -21 -15 -31 -15 l-19 0 0
40 0 40 18 0 c10 0 25 -11 32 -25z m1870 1 c0 -31 -14 -40 -30 -21 -15 18 -6
45 15 45 9 0 15 -9 15 -24z m575 -8 c-4 -13 -10 -47 -12 -75 -5 -59 -28 -73
-39 -25 -4 15 -16 40 -27 56 l-20 28 14 9 c8 5 19 7 24 5 6 -2 19 2 30 10 28
20 38 17 30 -8z m-4057 0 c-7 -19 -38 -22 -38 -4 0 10 9 16 21 16 12 0 19 -5
17 -12z m226 6 c24 -9 21 -54 -4 -54 -16 0 -20 7 -20 30 0 32 1 33 24 24z
m5636 -53 c0 -33 5 -63 10 -66 15 -9 12 -44 -4 -61 -23 -23 -26 -17 -26 45 0
33 -4 63 -10 66 -22 14 -4 75 22 75 4 0 8 -27 8 -59z m-6328 17 l20 -23 18 23
c19 23 50 30 50 12 0 -9 -20 -46 -37 -69 -2 -2 -13 0 -26 6 -12 6 -30 14 -39
17 -11 3 -18 15 -18 31 0 31 7 31 32 3z m3628 2 c6 -11 18 -20 26 -20 9 0 14
-7 12 -17 -2 -13 -14 -19 -40 -21 l-36 -3 -7 30 c-3 17 -4 35 0 41 10 16 34
11 45 -10z m420 0 c0 -11 -4 -20 -10 -20 -5 0 -10 9 -10 20 0 11 5 20 10 20 6
0 10 -9 10 -20z m2080 -14 c0 -8 -4 -17 -9 -21 -12 -7 -24 12 -16 25 9 15 25
12 25 -4z m-6442 -24 c2 -12 -1 -22 -6 -22 -15 0 -34 28 -27 40 10 17 30 6 33
-18z m702 -13 c0 -5 -9 -9 -20 -9 -19 0 -26 11 -14 23 8 8 34 -3 34 -14z
m3706 -2 l27 -23 -2 -60 c-1 -59 -1 -83 2 -138 2 -23 -5 -33 -28 -47 -16 -10
-38 -18 -47 -18 -10 -1 -18 -5 -18 -11 0 -5 -9 -10 -20 -10 -11 0 -20 5 -20
10 0 16 -30 12 -37 -5 -8 -22 3 -29 40 -27 l32 2 13 -40 c14 -46 16 -180 3
-180 -6 0 -13 5 -16 10 -13 20 -53 10 -76 -20 -25 -31 -59 -40 -59 -16 0 7
-13 27 -30 44 -22 23 -30 42 -30 67 0 19 5 35 10 35 6 0 10 11 10 24 0 14 5
28 10 31 6 3 10 15 10 26 0 10 -4 19 -10 19 -15 0 -11 62 5 84 16 22 63 18
117 -8 40 -20 51 -20 71 2 l17 18 -5 75 c-2 41 -7 98 -11 127 -7 59 1 64 42
29z m-5001 -37 c-3 -5 -10 -10 -16 -10 -5 0 -9 5 -9 10 0 6 7 10 16 10 8 0 12
-4 9 -10z m5335 0 c0 -5 8 -10 19 -10 10 0 21 -9 24 -20 3 -11 12 -20 21 -20
10 0 16 -9 16 -25 0 -27 -1 -28 -24 -19 -9 3 -16 15 -16 25 0 12 -7 19 -18 19
-10 0 -23 5 -30 12 -15 15 -16 48 -2 48 6 0 10 -4 10 -10z m-3100 -28 c0 -9
14 -30 31 -47 18 -16 27 -31 20 -33 -15 -5 -14 -39 1 -44 7 -3 9 -12 4 -24
l-7 -19 -30 35 c-57 67 -78 150 -39 150 12 0 20 -7 20 -18z m-2120 -7 c0 -8
-4 -15 -10 -15 -5 0 -10 7 -10 15 0 8 5 15 10 15 6 0 10 -7 10 -15z m246 -9
c19 -20 18 -26 -6 -26 -13 0 -20 7 -20 20 0 24 6 25 26 6z m1278 -22 c11 -28
-6 -42 -33 -25 l-14 9 14 16 c18 20 25 20 33 0z m-544 -44 c0 -13 -7 -20 -20
-20 -13 0 -20 -7 -20 -19 0 -28 -18 -36 -39 -17 -19 18 -61 22 -61 6 0 -17
-70 -12 -77 5 -9 24 5 30 39 17 l31 -11 12 16 c14 19 68 40 108 42 21 1 27 -4
27 -19z m480 0 c0 -11 -4 -20 -10 -20 -5 0 -10 9 -10 20 0 11 5 20 10 20 6 0
10 -9 10 -20z m936 5 c5 -13 -16 -45 -29 -45 -9 0 -16 30 -11 45 8 19 33 19
40 0z m-116 -25 c0 -11 -4 -20 -10 -20 -5 0 -10 9 -10 20 0 11 5 20 10 20 6 0
10 -9 10 -20z m3191 -22 l19 -21 41 22 40 23 13 -17 c16 -22 8 -85 -10 -85 -8
0 -14 5 -14 10 0 16 -37 11 -44 -6 -8 -21 -9 -18 13 -42 10 -12 26 -22 35 -22
26 0 18 -17 -11 -23 -16 -3 -32 -16 -38 -28 -5 -13 -16 -25 -24 -27 -11 -4
-13 4 -8 37 l5 41 -19 11 -19 10 -23 -26 -22 -26 -23 19 c-12 11 -22 30 -22
44 0 16 -10 30 -32 43 -24 14 -29 20 -16 23 9 2 34 -15 56 -37 46 -47 52 -49
52 -21 0 11 -4 20 -10 20 -5 0 -10 9 -10 20 0 11 -5 29 -12 39 -29 48 44 65
83 19z m-2751 2 c0 -13 -7 -20 -20 -20 -13 0 -20 7 -20 20 0 13 7 20 20 20 13
0 20 -7 20 -20z m2480 1 c0 -10 -7 -24 -15 -31 l-15 -12 -6 16 c-6 16 11 46
27 46 5 0 9 -8 9 -19z m-2654 -15 c19 -19 18 -26 -4 -26 -24 0 -32 8 -25 26 7
18 11 18 29 0z m1911 -12 c14 -14 22 -29 17 -33 -17 -12 -34 -51 -34 -76 0
-28 -23 -34 -46 -11 -16 17 -19 46 -4 46 6 0 10 23 10 50 0 59 16 65 57 24z
m-397 -34 c0 -13 -7 -20 -20 -20 -13 0 -20 7 -20 20 0 13 7 20 20 20 13 0 20
-7 20 -20z m520 -20 c0 -13 -7 -20 -20 -20 -13 0 -20 7 -20 20 0 13 7 20 20
20 13 0 20 -7 20 -20z m460 -11 c0 -5 -9 -9 -20 -9 -22 0 -27 16 -7 23 15 5
27 -1 27 -14z m-811 -8 c17 -11 7 -41 -14 -41 -9 0 -15 9 -15 25 0 27 6 30 29
16z m-163 -35 c16 -17 20 -126 4 -126 -6 0 -10 -30 -10 -70 0 -40 -4 -70 -10
-70 -5 0 -10 8 -10 18 0 10 -11 25 -25 32 -27 14 -31 25 -39 107 l-5 52 15 -6
c7 -3 14 -9 14 -14 0 -5 11 -9 25 -9 29 0 45 42 26 71 -19 32 -11 40 15 15z
m894 -58 c0 -31 -23 -68 -43 -68 l-19 0 3 53 c4 69 17 86 41 55 9 -13 18 -31
18 -40z m244 16 c4 -9 4 -19 1 -23 -8 -7 -38 12 -43 27 -6 19 35 14 42 -4z
m-1544 -25 c0 -23 -6 -24 -27 -3 l-16 16 13 8 c18 11 30 3 30 -21z m-500 7 c0
-8 3 -21 6 -30 4 -10 1 -16 -9 -16 -15 0 -27 20 -27 46 0 8 7 14 15 14 8 0 15
-6 15 -14z m692 9 c11 -11 -27 -75 -44 -75 l-18 0 6 27 c11 42 38 65 56 48z
m728 -3 c0 -14 -23 -32 -42 -32 -11 0 -18 7 -18 20 0 16 7 20 30 20 17 0 30
-4 30 -8z m-1265 -48 c22 -48 35 -94 26 -94 -17 0 -81 83 -81 105 0 39 34 32
55 -11z m2462 21 c6 -18 -25 -45 -44 -38 -7 3 -13 16 -13 29 0 19 5 24 25 24
14 0 28 -7 32 -15z m367 0 c8 -23 -4 -45 -25 -45 -14 0 -19 7 -19 30 0 23 5
30 19 30 10 0 21 -7 25 -15z m-2676 -7 c14 -14 16 -54 3 -62 -10 -6 -51 27
-51 41 0 10 21 33 30 33 3 0 11 -5 18 -12z m92 -13 c0 -8 -4 -15 -9 -15 -13 0
-22 16 -14 24 11 11 23 6 23 -9z m1760 5 c0 -5 -4 -10 -10 -10 -5 0 -10 5 -10
10 0 6 5 10 10 10 6 0 10 -4 10 -10z m1384 -9 c9 -14 -4 -41 -19 -41 -18 0
-28 32 -13 42 17 10 26 10 32 -1z m-2174 -70 c13 -32 7 -51 -14 -51 -13 0 -28
65 -17 75 10 11 19 4 31 -24z m-90 -17 c0 -31 -21 -54 -50 -54 -25 0 -50 22
-50 44 0 10 9 16 24 16 14 0 28 5 31 10 3 6 15 10 26 10 14 0 19 -7 19 -26z
m2380 16 c0 -5 -4 -10 -10 -10 -5 0 -10 5 -10 10 0 6 5 10 10 10 6 0 10 -4 10
-10z m-3060 -15 c0 -8 -4 -15 -10 -15 -5 0 -10 7 -10 15 0 8 5 15 10 15 6 0
10 -7 10 -15z m110 1 c0 -2 -3 -11 -6 -20 -9 -23 -24 -20 -24 4 0 11 7 20 15
20 8 0 15 -2 15 -4z m1930 -21 c0 -8 -4 -15 -10 -15 -5 0 -10 7 -10 15 0 8 5
15 10 15 6 0 10 -7 10 -15z m-2400 -55 c0 -22 -4 -40 -10 -40 -5 0 -10 18 -10
40 0 22 5 40 10 40 6 0 10 -18 10 -40z m-240 -55 c0 -17 -2 -18 -24 -9 -23 9
-20 24 4 24 11 0 20 -7 20 -15z"/>
<path d="M3727 4483 c-4 -3 -7 -24 -7 -45 0 -30 4 -38 18 -38 27 0 47 42 33
69 -12 21 -31 27 -44 14z"/>
<path d="M3712 3650 l-13 -21 16 -15 c12 -13 19 -14 30 -4 25 21 13 60 -18 60
-1 0 -8 -9 -15 -20z"/>
<path d="M6176 5384 c-8 -21 19 -64 40 -64 22 0 29 28 14 56 -15 28 -45 32
-54 8z"/>
<path d="M6592 5184 c-11 -12 -11 -18 -2 -29 16 -19 26 -19 34 0 6 16 -2 45
-13 45 -3 -1 -12 -8 -19 -16z"/>
<path d="M6136 5049 c-3 -8 -2 -30 2 -49 6 -27 13 -36 32 -38 13 -2 32 -13 41
-23 9 -10 28 -19 42 -19 31 0 41 -13 32 -40 l-6 -20 -50 0 -49 0 0 -20 0 -20
40 0 c22 0 54 9 72 20 18 11 41 20 50 20 9 0 18 3 20 8 2 4 24 18 51 31 50 26
62 55 26 64 l-22 6 16 15 c9 9 23 16 31 16 22 0 21 49 0 57 -21 8 -83 -14
-110 -39 l-22 -20 -32 17 -32 16 -20 -18 c-15 -13 -22 -15 -25 -5 -3 6 -12 12
-21 12 -9 0 -26 10 -39 21 -17 17 -24 19 -27 8z"/>
<path d="M6105 4808 c-11 -6 -32 -24 -48 -40 -15 -15 -30 -28 -34 -28 -4 0
-28 -10 -55 -22 l-48 -22 0 -25 c0 -14 -3 -36 -6 -48 l-6 -23 24 0 c32 0 48
18 48 52 0 21 5 28 20 28 15 0 20 -7 20 -24 0 -27 15 -42 25 -26 3 5 15 10 27
10 11 0 33 14 48 30 15 17 36 30 45 30 9 0 30 9 46 21 47 33 33 76 -20 62 -14
-4 -28 2 -40 16 -21 24 -20 24 -46 9z"/>
<path d="M4560 4955 c0 -19 5 -35 10 -35 6 0 10 -7 10 -15 0 -9 11 -27 25 -40
29 -30 55 -32 55 -5 0 11 -4 20 -8 20 -5 0 -20 21 -33 48 -36 72 -59 82 -59
27z"/>
<path d="M2873 4813 c-36 -17 -40 -28 -19 -55 16 -22 66 -24 66 -4 0 8 2 20 5
28 3 7 0 21 -7 30 l-13 17 -32 -16z"/>
<path d="M2753 4723 c-7 -3 -13 -12 -13 -21 0 -9 -9 -25 -19 -36 -22 -24 -38
-151 -22 -175 l9 -15 16 13 c9 8 16 26 16 42 0 22 5 29 20 29 16 0 20 7 20 30
l0 30 31 0 30 0 -3 23 c-2 14 -10 22 -23 22 -14 0 -21 8 -23 27 -3 27 -18 38
-39 31z"/>
<path d="M2576 4678 c-3 -24 -9 -72 -11 -108 -3 -36 -11 -82 -17 -102 l-11
-37 16 -15 c9 -9 22 -16 30 -16 21 0 37 89 37 211 l0 109 -19 0 c-15 0 -20
-10 -25 -42z"/>
<path d="M2460 4555 c0 -8 -3 -15 -7 -15 -25 0 -43 -96 -22 -117 8 -8 8 -13 0
-17 -17 -11 -14 -96 4 -102 33 -13 61 56 33 84 -9 9 -6 22 12 57 18 35 21 48
12 57 -7 7 -12 25 -12 40 0 15 -4 28 -10 28 -5 0 -10 -7 -10 -15z"/>
<path d="M2793 4563 c-7 -2 -13 -13 -13 -24 0 -14 7 -19 25 -19 29 0 45 28 24
41 -15 10 -18 10 -36 2z"/>
<path d="M2840 4464 l0 -35 18 3 c11 2 18 14 20 36 l3 32 -20 0 -21 0 0 -36z"/>
<path d="M7122 4593 c2 -17 10 -29 21 -31 l18 -4 -3 29 c-2 17 -10 29 -21 31
l-18 4 3 -29z"/>
<path d="M9954 5299 c-8 -14 11 -33 25 -25 11 7 4 36 -9 36 -5 0 -12 -5 -16
-11z"/>
<path d="M10180 5225 c0 -23 6 -38 16 -42 21 -8 31 11 26 47 -3 21 -10 30 -23
30 -15 0 -19 -7 -19 -35z"/>
<path d="M8974 5035 c-9 -19 -9 -27 2 -36 19 -16 44 5 44 37 0 32 -31 32 -46
-1z"/>
<path d="M9372 5044 c-16 -18 -9 -44 11 -44 8 0 20 7 27 15 10 11 9 18 -3 30
-19 18 -19 18 -35 -1z"/>
<path d="M10100 4981 c0 -19 23 -35 34 -24 14 15 5 43 -14 43 -13 0 -20 -7
-20 -19z"/>
<path d="M9900 4830 c0 -5 5 -10 10 -10 6 0 10 5 10 10 0 6 -4 10 -10 10 -5 0
-10 -4 -10 -10z"/>
<path d="M10225 4770 c-3 -5 -1 -10 4 -10 6 0 11 5 11 10 0 6 -2 10 -4 10 -3
0 -8 -4 -11 -10z"/>
<path d="M10587 4713 c-14 -13 -6 -33 13 -33 13 0 20 7 20 20 0 19 -20 27 -33
13z"/>
<path d="M10187 4364 c-4 -4 -7 -20 -7 -36 0 -22 5 -28 21 -28 l20 0 -3 32
c-3 31 -17 45 -31 32z"/>
<path d="M10484 4325 c-7 -17 18 -45 39 -45 20 0 40 27 33 45 -7 20 -65 20
-72 0z"/>
<path d="M10580 4270 c-14 -16 -25 -34 -24 -39 1 -6 2 -15 3 -21 2 -15 71 -12
87 4 17 18 18 58 2 74 -19 19 -41 13 -68 -18z"/>
<path d="M9176 4195 c-13 -19 -14 -30 -6 -45 13 -25 21 -25 48 -1 26 21 28 37
8 57 -21 20 -31 18 -50 -11z"/>
<path d="M10790 4165 c-10 -11 -9 -18 3 -30 21 -20 43 -19 51 2 5 11 1 22 -10
30 -23 17 -29 16 -44 -2z"/>
<path d="M8253 5003 c-7 -3 -13 -18 -13 -35 0 -23 4 -29 18 -26 18 3 29 45 15
58 -4 4 -14 5 -20 3z"/>
<path d="M414 4585 c-6 -20 -7 -38 -3 -41 5 -3 9 -23 9 -45 0 -21 3 -39 6 -39
15 0 32 30 38 71 l7 45 -19 22 c-11 12 -21 22 -23 22 -2 0 -9 -16 -15 -35z"/>
<path d="M560 4479 c0 -24 23 -21 28 4 2 10 -3 17 -12 17 -10 0 -16 -9 -16
-21z"/>
<path d="M395 4313 c-10 -15 -18 -47 -19 -77 l-1 -50 17 -4 c24 -5 48 21 48
52 0 14 5 26 10 26 14 0 12 54 -2 68 -19 19 -34 14 -53 -15z"/>
<path d="M8440 3479 l0 -20 27 3 c17 2 29 10 31 21 3 13 -3 17 -27 17 -25 0
-31 -4 -31 -21z"/>
<path d="M9260 3720 c0 -11 -5 -20 -11 -20 -7 0 -9 -16 -5 -47 3 -27 6 -66 6
-88 0 -22 4 -47 10 -55 l9 -15 15 20 c18 23 20 51 6 60 -5 3 -10 15 -10 26 0
10 5 19 10 19 14 0 13 63 -2 95 -13 30 -28 33 -28 5z"/>
<path d="M9135 3570 c-3 -5 -15 -10 -26 -10 -37 0 -66 -49 -39 -65 6 -3 10
-21 10 -40 0 -21 6 -35 16 -39 22 -8 22 -7 33 47 5 29 17 54 31 65 15 12 21
25 17 35 -7 19 -32 23 -42 7z"/>
<path d="M9446 3484 c-3 -9 -6 -85 -6 -170 l0 -154 26 0 c14 0 32 6 40 14 18
18 19 123 2 128 -8 3 -12 26 -12 61 0 31 5 62 12 69 16 16 15 36 -2 54 -19 19
-52 18 -60 -2z"/>
<path d="M9613 3343 c-8 -3 -13 -24 -13 -54 l0 -49 36 0 36 0 -7 -41 -7 -41
28 4 29 3 3 29 c4 30 -12 70 -38 96 -8 8 -20 24 -26 35 -12 21 -23 26 -41 18z"/>
<path d="M9057 3263 c-12 -11 -8 -23 8 -23 8 0 15 7 15 15 0 16 -12 20 -23 8z"/>
<path d="M10160 3095 c0 -8 5 -15 10 -15 6 0 10 7 10 15 0 8 -4 15 -10 15 -5
0 -10 -7 -10 -15z"/>
<path d="M9360 3060 c0 -13 7 -20 20 -20 13 0 20 7 20 20 0 13 -7 20 -20 20
-13 0 -20 -7 -20 -20z"/>
<path d="M10356 3015 c-24 -36 -20 -51 18 -69 50 -24 66 -21 66 12 0 73 -51
108 -84 57z"/>
<path d="M9867 3023 c-12 -12 -7 -31 10 -37 9 -4 23 0 32 9 l16 16 -15 9 c-18
11 -34 13 -43 3z"/>
<path d="M10250 2984 c-9 -10 -10 -18 -2 -26 12 -12 32 -2 32 17 0 21 -16 26
-30 9z"/>
<path d="M9542 2963 c2 -12 12 -18 28 -18 16 0 26 6 28 18 3 13 -3 17 -28 17
-25 0 -31 -4 -28 -17z"/>
<path d="M7600 3475 c0 -8 5 -15 10 -15 6 0 10 7 10 15 0 8 -4 15 -10 15 -5 0
-10 -7 -10 -15z"/>
<path d="M8280 2804 c0 -38 23 -66 47 -57 16 6 17 65 1 81 -7 7 -20 12 -30 12
-14 0 -18 -8 -18 -36z"/>
</g>
</svg>
