<?xml version="1.0" standalone="no"?>
<!DOCTYPE svg PUBLIC "-//W3C//DTD SVG 20010904//EN"
 "http://www.w3.org/TR/2001/REC-SVG-20010904/DTD/svg10.dtd">
<svg version="1.0" xmlns="http://www.w3.org/2000/svg"
 width="1113.752112pt" height="1840.003207pt" viewBox="0 0 1113.752112 1840.003207"
 preserveAspectRatio="xMidYMid meet">
<metadata>
Created by Potrace Professional 1.0m
</metadata>
<g transform="translate(-10.154251,1854.000000) rotate(-360.00) scale(0.100000,-0.100000)"
fill="#000000" stroke="none">
<path d="M10060 18530 c0 -5 -9 -10 -20 -10 -11 0 -20 -4 -20 -10 0 -5 -5 -10
-12 -10 -31 0 -200 -151 -235 -210 -9 -17 -21 -30 -25 -30 -4 0 -8 -9 -8 -20
0 -11 -4 -20 -10 -20 -5 0 -10 -9 -10 -20 0 -11 -4 -20 -10 -20 -5 0 -10 -11
-10 -24 0 -14 -4 -28 -10 -31 -5 -3 -10 -17 -10 -30 0 -13 -4 -34 -9 -47 -5
-13 -14 -41 -21 -63 -12 -37 -53 -85 -73 -85 -5 0 -21 -12 -35 -28 -15 -15
-48 -38 -74 -51 -27 -13 -48 -28 -48 -33 0 -4 -9 -8 -21 -8 -11 0 -33 -8 -47
-19 -15 -10 -45 -24 -67 -32 -22 -8 -42 -16 -45 -20 -3 -3 -35 -20 -72 -39
-38 -18 -68 -37 -68 -42 0 -4 -13 -8 -30 -8 -16 0 -30 -4 -30 -9 0 -4 -26 -20
-57 -35 -69 -31 -117 -58 -121 -68 -2 -5 -12 -8 -23 -8 -10 0 -19 -4 -19 -8 0
-9 -4 -11 -115 -62 -75 -35 -119 -57 -203 -102 -29 -15 -59 -28 -67 -28 -7 0
-15 -4 -17 -8 -3 -8 -102 -58 -165 -84 -18 -7 -33 -16 -33 -20 0 -5 -9 -8 -19
-8 -11 0 -21 -3 -23 -7 -4 -11 -128 -73 -144 -73 -8 0 -14 -4 -14 -10 0 -5 -9
-10 -20 -10 -11 0 -20 -4 -20 -9 0 -5 -8 -11 -17 -14 -64 -21 -96 -38 -112
-56 -10 -12 -26 -21 -35 -21 -9 0 -16 -4 -16 -10 0 -5 -6 -10 -12 -10 -7 0
-24 -9 -38 -20 -14 -11 -35 -20 -47 -20 -12 0 -23 -4 -25 -8 -1 -4 -41 -27
-88 -51 -47 -24 -87 -47 -90 -51 -3 -4 -26 -13 -52 -21 -27 -7 -48 -16 -48
-19 0 -4 -22 -13 -50 -20 -27 -7 -50 -16 -50 -20 0 -3 -19 -11 -43 -18 -24 -7
-56 -24 -71 -37 -16 -14 -37 -27 -47 -30 -11 -4 -19 -11 -19 -16 0 -5 -6 -9
-14 -9 -17 0 -100 -42 -104 -52 -2 -5 -9 -8 -16 -8 -18 0 -72 -28 -86 -45 -15
-18 -4 -55 17 -55 15 0 120 54 138 71 5 5 17 9 27 9 10 0 18 5 18 10 0 6 9 10
20 10 11 0 20 3 20 8 0 4 24 18 53 31 28 13 70 32 92 42 22 11 48 19 58 19 9
0 17 5 17 10 0 6 7 10 15 10 9 0 25 9 37 20 12 11 32 20 45 20 13 0 23 5 23
10 0 6 11 10 24 10 14 0 28 5 31 10 3 6 15 10 26 10 10 0 19 3 19 8 0 4 15 13
33 20 48 20 121 56 127 62 3 3 22 14 42 23 20 10 44 24 52 32 16 16 208 115
223 115 15 0 63 24 63 33 0 4 7 7 15 7 9 0 25 9 37 20 12 11 30 20 39 20 10 0
21 5 24 10 3 6 14 10 24 10 9 0 38 14 64 30 26 17 54 30 62 30 8 0 15 5 15 10
0 6 9 10 20 10 11 0 20 4 20 9 0 5 14 14 30 21 17 7 30 16 30 19 0 4 23 14 50
21 28 7 50 16 50 20 0 6 56 32 128 60 17 7 32 15 32 19 0 3 15 12 33 19 58 25
122 57 125 65 2 4 12 7 23 7 10 0 19 3 19 8 0 4 23 18 50 31 28 14 50 29 50
33 0 4 9 8 20 8 11 0 20 5 20 10 0 6 10 10 23 10 12 0 35 11 50 24 15 13 51
32 79 41 29 9 71 30 94 46 24 16 50 29 58 29 9 0 16 5 16 10 0 6 9 10 20 10
11 0 20 5 20 10 0 6 9 10 20 10 11 0 20 5 20 10 0 6 6 10 13 10 6 0 28 14 47
30 19 16 38 30 43 30 4 0 27 20 52 44 49 49 85 113 85 150 0 14 5 28 10 31 6
3 10 17 10 31 0 13 5 24 10 24 6 0 10 11 10 25 0 22 15 60 30 75 3 3 16 25 29
50 25 44 83 110 98 110 4 0 24 14 43 30 44 38 87 40 96 5 3 -13 3 -48 0 -77
-4 -29 -9 -79 -12 -111 l-6 -59 23 -24 22 -24 88 0 c48 0 91 5 94 10 3 6 19
10 35 10 16 0 32 5 35 10 3 6 15 10 25 10 10 0 20 3 22 8 3 8 115 41 166 49
17 3 32 9 32 14 0 5 9 9 19 9 11 0 23 5 26 10 3 6 17 10 31 10 13 0 24 5 24
10 0 6 9 10 20 10 11 0 20 3 20 8 0 8 49 32 67 32 13 0 118 45 186 80 22 11
50 20 63 20 13 0 24 5 24 10 0 6 9 10 19 10 11 0 23 9 26 20 9 27 -3 60 -21
60 -14 0 -25 -4 -71 -28 -13 -7 -32 -12 -42 -12 -11 0 -23 -4 -26 -10 -3 -5
-15 -10 -26 -10 -10 0 -19 -4 -19 -8 0 -5 -22 -15 -50 -22 -27 -7 -50 -16 -50
-20 0 -3 -21 -12 -47 -19 -27 -8 -50 -17 -53 -20 -10 -12 -50 -31 -65 -31 -8
0 -15 -4 -15 -10 0 -5 -8 -10 -18 -10 -10 0 -22 -4 -28 -9 -12 -12 -126 -51
-147 -51 -10 0 -25 -4 -35 -9 -9 -5 -37 -15 -62 -22 -25 -7 -49 -16 -55 -19
-14 -10 -124 -20 -141 -13 -16 6 -20 78 -4 88 6 3 10 48 10 100 0 124 -22 175
-74 175 -14 0 -26 -4 -26 -10z"/>
<path d="M4710 18370 c-8 -5 -38 -10 -67 -10 -29 0 -65 -5 -80 -11 -78 -31
-123 -53 -123 -61 0 -4 -6 -8 -13 -8 -33 0 -111 -94 -134 -160 -15 -42 -17
-200 -3 -200 6 0 10 -13 10 -30 l0 -30 -25 0 c-13 0 -34 4 -47 10 -21 9 -169
35 -265 47 -24 3 -43 9 -43 13 0 4 -19 10 -42 13 -24 3 -68 11 -98 17 -30 6
-82 14 -115 16 -33 3 -69 9 -80 14 -11 5 -45 11 -75 14 -225 21 -386 47 -415
66 -16 11 -96 19 -126 13 -29 -6 -42 -24 -33 -47 3 -7 28 -18 57 -24 170 -37
188 -40 307 -52 47 -4 105 -13 130 -20 25 -6 65 -14 90 -16 25 -3 54 -9 65
-14 11 -5 43 -11 70 -14 103 -10 282 -45 325 -62 20 -8 121 -24 190 -30 30 -3
71 -13 90 -22 19 -9 67 -20 105 -24 154 -18 223 -27 280 -37 33 -6 83 -14 110
-17 28 -3 59 -9 70 -14 11 -5 43 -11 70 -14 28 -3 75 -10 105 -16 68 -14 211
-29 349 -36 57 -3 140 -12 185 -20 44 -9 142 -17 216 -20 74 -2 144 -5 155 -5
87 -5 755 5 755 11 0 14 577 12 619 -2 66 -23 79 -65 34 -104 l-28 -24 -40 8
c-22 4 -65 6 -95 4 -77 -4 -547 -2 -907 2 -195 3 -309 8 -322 16 -20 10 -55
14 -266 26 -44 3 -89 9 -100 14 -11 5 -54 12 -95 15 -181 13 -319 24 -370 28
-30 3 -111 8 -180 11 -69 4 -145 10 -170 16 -25 5 -61 6 -80 2 -89 -19 -1076
25 -1290 56 -36 6 -81 12 -100 15 -19 3 -73 8 -119 12 -46 4 -95 11 -109 16
-33 13 -57 4 -71 -28 l-12 -26 20 -21 20 -21 117 -3 c64 -2 125 -7 135 -13 10
-5 51 -9 91 -9 41 0 78 -4 84 -9 5 -5 74 -12 154 -15 80 -3 190 -10 245 -16
55 -5 129 -7 164 -4 61 6 80 0 81 -28 0 -11 -61 -68 -72 -68 -31 0 -103 -117
-120 -194 -18 -81 -20 -106 -9 -106 6 0 11 -9 11 -20 0 -11 5 -20 10 -20 6 0
10 -7 10 -15 0 -31 46 -105 73 -117 15 -7 27 -16 27 -20 0 -5 6 -8 14 -8 33 0
41 -32 47 -184 7 -156 15 -209 42 -286 10 -25 17 -76 17 -116 0 -38 4 -74 9
-80 6 -5 15 -51 22 -103 9 -73 9 -111 -1 -180 -11 -77 -42 -160 -62 -169 -5
-2 -8 -10 -8 -18 0 -7 -13 -42 -30 -76 -16 -34 -30 -67 -30 -75 0 -7 -4 -13
-10 -13 -5 0 -10 -6 -10 -14 0 -16 -62 -140 -72 -144 -5 -2 -8 -12 -8 -23 0
-10 -4 -19 -10 -19 -5 0 -10 -6 -10 -13 0 -18 -24 -67 -32 -67 -5 0 -8 -9 -8
-20 0 -11 -4 -20 -8 -20 -5 0 -15 -12 -23 -27 -24 -47 -75 -93 -103 -93 -14 0
-26 -3 -26 -7 0 -9 -49 -33 -67 -33 -7 0 -13 -4 -13 -10 0 -5 -6 -10 -13 -10
-7 0 -23 -9 -35 -20 -12 -11 -25 -20 -30 -20 -4 0 -17 -8 -28 -18 -10 -10 -35
-28 -54 -42 -19 -13 -46 -36 -60 -50 -14 -14 -41 -37 -60 -50 -19 -14 -51 -42
-71 -62 -20 -21 -40 -38 -45 -38 -14 0 -55 -40 -89 -84 -16 -22 -57 -69 -92
-104 -35 -36 -63 -68 -63 -73 0 -4 -38 -47 -85 -94 -47 -47 -85 -90 -85 -95 0
-12 -236 -250 -248 -250 -5 0 -22 -12 -38 -28 -16 -15 -45 -35 -64 -44 -19 -9
-47 -29 -62 -43 -15 -14 -32 -25 -38 -25 -5 0 -29 -18 -52 -40 -24 -22 -49
-40 -55 -40 -7 0 -13 -3 -13 -7 0 -5 -18 -19 -40 -33 -22 -13 -40 -28 -40 -32
0 -4 -7 -8 -15 -8 -8 0 -23 -6 -32 -14 -41 -33 -114 -86 -119 -86 -2 0 -14 -9
-26 -20 -12 -11 -28 -20 -35 -20 -7 0 -13 -4 -13 -10 0 -5 -9 -10 -20 -10 -11
0 -20 -4 -20 -10 0 -5 -9 -10 -20 -10 -11 0 -20 -4 -20 -9 0 -5 -14 -14 -30
-21 -17 -7 -30 -16 -30 -21 0 -5 -6 -9 -13 -9 -7 0 -22 -8 -33 -17 -10 -10
-31 -24 -46 -32 -16 -8 -28 -18 -28 -23 0 -4 -9 -8 -20 -8 -11 0 -20 -3 -20
-7 0 -5 -23 -19 -50 -32 -28 -14 -50 -28 -50 -31 0 -4 -21 -18 -47 -31 -27
-13 -57 -32 -67 -41 -11 -10 -26 -18 -33 -18 -7 0 -13 -4 -13 -10 0 -5 -9 -10
-20 -10 -11 0 -20 -4 -20 -8 0 -5 -12 -15 -27 -23 -15 -8 -37 -21 -48 -29 -38
-28 -125 -125 -138 -152 -6 -16 -15 -28 -19 -28 -5 0 -8 -11 -8 -24 0 -14 -4
-28 -10 -31 -5 -3 -10 -17 -10 -31 0 -13 -9 -43 -19 -67 -11 -23 -22 -62 -25
-87 -3 -25 -10 -74 -16 -110 -6 -36 -14 -96 -16 -135 -3 -38 -10 -74 -15 -79
-5 -6 -9 -44 -9 -86 0 -42 -5 -102 -11 -134 -8 -39 -9 -64 -2 -79 7 -14 7 -31
1 -47 -5 -14 -11 -106 -13 -205 -8 -326 -16 -485 -25 -485 -5 0 -11 -51 -14
-112 -7 -156 -15 -239 -26 -263 -11 -25 -19 -79 -26 -170 -5 -71 -9 -93 -46
-220 -10 -38 -24 -86 -29 -105 -14 -49 -31 -91 -78 -192 -17 -37 -31 -71 -31
-76 0 -13 -138 -153 -172 -176 -16 -10 -28 -23 -28 -28 0 -6 -67 -77 -150
-159 -162 -162 -178 -182 -159 -205 14 -17 66 -19 72 -1 2 6 8 9 12 5 11 -11
-2 -51 -26 -79 -34 -39 -42 -68 -24 -95 26 -40 104 -30 146 18 21 23 69 25 69
2 0 -9 -13 -28 -28 -42 -36 -34 -52 -64 -52 -96 0 -38 37 -44 105 -17 11 5 40
15 65 22 25 7 54 21 64 31 11 10 24 18 29 18 5 0 17 8 26 18 9 10 37 29 64 42
26 14 47 28 47 32 0 5 7 8 15 8 8 0 64 50 125 110 61 61 115 110 120 110 6 0
24 13 40 29 17 15 58 43 93 62 34 18 68 39 76 47 16 15 55 32 76 32 22 0 27
-36 11 -69 -9 -17 -16 -43 -16 -59 0 -15 -9 -38 -20 -50 -11 -12 -20 -31 -20
-42 0 -12 -9 -40 -20 -62 -25 -52 -26 -113 -4 -126 21 -12 53 -4 78 20 11 10
26 18 33 18 7 0 13 5 13 10 0 6 8 10 18 10 10 0 24 9 32 20 8 11 22 20 32 20
10 0 18 4 18 9 0 5 13 14 30 21 16 7 30 16 30 21 0 4 9 10 19 14 26 8 147 128
156 154 3 11 11 21 16 21 5 0 9 8 9 18 0 10 3 22 7 26 12 12 33 80 33 108 0
15 4 30 10 33 13 8 13 172 0 180 -5 3 -10 19 -10 34 0 31 -33 104 -61 134 -10
12 -19 24 -19 29 0 4 -14 22 -30 40 -17 17 -30 37 -30 44 0 8 -3 14 -7 14 -9
0 -33 49 -33 67 0 7 -4 13 -10 13 -5 0 -10 8 -10 18 0 10 -5 23 -11 29 -18 18
4 503 24 515 9 5 12 133 13 490 1 468 9 641 33 703 6 17 14 38 17 48 4 9 10
17 15 17 5 0 9 6 9 13 0 24 215 247 238 247 4 0 31 23 60 50 29 28 56 50 60
50 4 0 28 18 52 40 24 22 48 40 53 40 5 0 21 13 35 28 31 33 116 92 131 92 6
0 11 4 11 8 0 5 12 15 28 23 15 8 34 22 43 31 9 10 20 18 26 18 5 0 24 13 43
30 19 16 39 29 44 30 4 0 24 14 43 30 18 17 39 30 46 30 7 0 28 14 47 30 19
16 38 30 42 30 12 0 112 64 129 82 9 10 24 18 33 18 9 0 16 5 16 10 0 6 6 10
13 10 7 0 23 9 35 20 12 11 25 20 30 20 13 0 62 24 62 31 0 3 23 16 50 29 28
13 50 27 50 32 0 4 9 8 20 8 11 0 20 4 20 9 0 11 62 41 72 35 17 -11 7 -63
-22 -115 -16 -30 -30 -62 -30 -72 0 -9 -4 -25 -9 -35 -12 -23 -52 -112 -61
-137 -5 -11 -13 -35 -20 -52 -7 -18 -16 -33 -21 -33 -5 0 -9 -7 -9 -15 0 -8
-4 -23 -9 -33 -5 -9 -15 -37 -22 -62 -7 -25 -16 -47 -19 -50 -13 -12 -30 -52
-30 -70 0 -12 -9 -40 -20 -62 -11 -23 -20 -50 -20 -59 0 -10 -4 -20 -8 -23 -4
-3 -14 -28 -22 -55 -7 -28 -17 -51 -22 -51 -4 0 -8 -9 -8 -20 0 -11 -9 -34
-20 -52 -11 -18 -20 -41 -20 -50 0 -10 -4 -18 -10 -18 -5 0 -10 -7 -10 -15 0
-14 -18 -54 -30 -65 -3 -3 -12 -30 -19 -60 -7 -30 -27 -80 -43 -111 l-30 -57
-41 -17 c-23 -9 -49 -20 -57 -25 -8 -4 -39 -13 -67 -20 -29 -8 -53 -17 -53
-22 0 -4 -9 -8 -20 -8 -11 0 -20 -4 -20 -10 0 -5 -8 -10 -18 -10 -10 0 -24 -9
-32 -20 -8 -11 -19 -20 -25 -20 -6 0 -28 -16 -50 -35 -22 -19 -43 -35 -46 -35
-11 0 -49 -37 -49 -47 0 -5 -9 -19 -19 -30 -18 -19 -37 -57 -69 -135 -15 -38
-18 -166 -3 -181 6 -6 11 -21 11 -34 0 -13 5 -23 10 -23 6 0 10 -6 10 -14 0
-8 17 -28 38 -46 83 -70 84 -72 77 -104 -3 -17 -10 -53 -16 -81 -6 -27 -14
-88 -19 -135 -5 -47 -14 -110 -20 -140 -11 -53 -21 -226 -19 -338 0 -30 -5
-60 -11 -67 -6 -7 -13 -46 -15 -87 -19 -322 -24 -388 -35 -423 -13 -38 -26
-295 -35 -665 -4 -174 -11 -267 -24 -339 -6 -30 -9 -77 -6 -104 2 -27 -1 -61
-6 -75 -6 -16 -11 -130 -11 -267 0 -132 -4 -245 -8 -250 -5 -6 -11 -46 -14
-90 -3 -44 -10 -125 -15 -180 -6 -55 -13 -125 -16 -155 -3 -30 -10 -91 -16
-135 -6 -44 -12 -109 -14 -145 -2 -36 -8 -109 -14 -162 -7 -62 -7 -107 -1
-122 12 -32 66 -62 84 -46 10 8 186 31 215 28 36 -3 58 6 71 30 l15 27 2 312
c1 172 5 327 8 345 9 41 14 101 21 253 3 66 9 124 15 129 5 6 9 36 9 68 0 32
4 58 9 58 6 0 12 63 15 143 10 257 15 326 25 346 6 11 11 53 11 93 0 40 5 134
12 208 6 74 11 208 10 298 -2 109 2 170 9 185 7 12 14 56 16 97 2 41 8 134 14
205 5 72 12 187 15 258 l5 127 19 0 c11 0 30 -16 43 -35 13 -20 44 -57 69 -83
24 -26 49 -54 54 -63 5 -9 34 -45 65 -80 31 -35 69 -80 85 -99 41 -50 51 -60
62 -60 4 0 50 -41 100 -90 51 -50 98 -90 106 -90 7 0 21 -9 31 -20 10 -11 24
-20 32 -20 7 0 13 -4 13 -8 0 -4 13 -16 30 -25 16 -10 35 -23 43 -30 12 -11
22 -17 79 -49 13 -7 30 -20 38 -29 8 -8 35 -26 60 -40 25 -13 55 -34 68 -46
13 -13 27 -23 32 -23 5 0 25 -16 44 -35 20 -19 42 -35 49 -35 8 0 34 -17 58
-38 24 -21 55 -47 69 -58 47 -37 90 -86 90 -103 0 -9 4 -21 9 -27 5 -5 12 -40
15 -79 14 -181 24 -263 34 -295 6 -19 11 -51 12 -70 1 -85 12 -190 21 -190 5
0 9 -27 9 -59 0 -33 4 -62 9 -65 11 -7 19 -45 50 -243 8 -49 22 -113 58 -250
3 -13 9 -23 14 -23 5 0 9 -10 9 -23 0 -13 4 -27 8 -33 5 -5 15 -35 22 -66 7
-32 17 -58 22 -58 4 0 8 -13 8 -30 0 -16 9 -45 20 -64 11 -20 25 -65 31 -101
7 -36 16 -65 21 -65 4 0 8 -11 8 -24 0 -14 4 -27 8 -30 4 -3 14 -28 22 -55 7
-28 16 -51 20 -51 5 0 13 -24 42 -135 5 -22 14 -48 19 -57 5 -10 9 -25 9 -33
0 -8 4 -15 9 -15 5 0 11 -8 14 -17 4 -10 13 -36 21 -58 9 -22 16 -47 16 -56 0
-20 23 -69 33 -69 4 0 7 -9 7 -20 0 -11 5 -20 10 -20 6 0 10 -9 10 -20 0 -11
5 -20 10 -20 6 0 10 -13 10 -29 0 -17 4 -33 10 -36 6 -3 10 -17 10 -31 0 -13
5 -24 10 -24 6 0 10 -6 10 -13 0 -7 9 -32 20 -55 11 -22 20 -49 20 -59 0 -27
24 -89 64 -170 20 -40 36 -79 36 -88 0 -8 5 -15 10 -15 6 0 10 -11 10 -24 0
-14 5 -28 10 -31 6 -3 10 -13 10 -21 0 -8 8 -24 18 -35 10 -10 34 -64 52 -120
19 -55 37 -102 42 -105 4 -3 8 -18 8 -35 0 -16 3 -29 8 -29 10 0 32 -74 32
-112 0 -30 19 -97 30 -108 5 -5 12 -25 42 -132 6 -24 20 -55 30 -70 10 -14 18
-31 18 -37 0 -6 9 -26 20 -46 11 -20 20 -46 20 -59 0 -24 15 -77 31 -112 6
-11 28 -31 50 -44 21 -14 39 -28 39 -32 0 -5 9 -8 20 -8 11 0 20 -4 20 -10 0
-5 9 -10 21 -10 11 0 29 -5 40 -11 11 -6 77 -15 147 -20 99 -8 155 -6 257 6
223 26 327 36 413 41 45 3 82 9 82 14 0 5 37 11 83 13 83 6 178 18 277 37 30
6 74 14 98 17 23 3 42 8 42 12 0 4 26 14 57 21 99 22 173 64 216 122 42 57 43
78 6 130 -21 29 -114 78 -149 78 -10 0 -22 5 -25 10 -3 6 -20 10 -37 10 -28 0
-58 8 -223 61 -33 11 -68 19 -78 19 -15 0 -84 27 -129 51 -10 5 -29 9 -42 9
-14 0 -27 4 -30 9 -3 5 -20 11 -38 14 -72 12 -115 25 -167 50 -30 15 -63 27
-73 27 -10 0 -37 9 -61 19 -64 29 -161 61 -185 61 -12 0 -22 5 -22 10 0 6 -9
10 -20 10 -11 0 -20 5 -20 10 0 6 -6 10 -13 10 -34 0 -69 28 -89 73 -12 26
-24 47 -28 47 -4 0 -13 23 -20 51 -8 27 -18 52 -22 55 -4 3 -8 27 -8 55 0 27
-4 57 -9 67 -21 39 -83 345 -75 367 4 9 2 26 -3 38 -9 20 -34 128 -49 212 -3
17 -9 39 -14 50 -5 11 -11 38 -14 60 -6 48 -21 138 -36 220 -6 33 -13 87 -16
120 -3 33 -9 69 -14 80 -12 27 -22 75 -21 105 0 14 -7 50 -15 81 -8 34 -14
106 -14 179 0 80 -5 137 -15 168 -8 26 -20 92 -25 147 -38 354 -40 368 -51
379 -5 6 -9 37 -9 70 0 34 -8 81 -17 106 -9 25 -20 92 -25 150 -7 94 -12 133
-34 263 -3 20 -10 37 -15 37 -5 0 -9 13 -9 30 0 16 -4 49 -10 72 -5 24 -14 68
-19 98 -6 30 -17 87 -26 125 -9 39 -20 88 -25 110 -15 72 -41 170 -53 195 -13
28 -87 142 -97 150 -12 8 -30 48 -30 64 l0 15 123 5 c67 2 158 9 202 14 75 9
102 15 200 41 51 14 153 38 240 56 17 4 39 10 50 15 42 18 84 25 265 46 25 3
56 10 69 17 16 8 79 12 185 12 l161 -1 39 -22 c43 -26 66 -46 66 -59 0 -5 8
-18 18 -29 26 -30 42 -62 42 -83 0 -10 12 -43 28 -72 29 -56 52 -133 52 -172
0 -13 4 -27 9 -33 5 -5 12 -31 15 -59 4 -27 11 -84 16 -125 5 -41 14 -100 20
-130 7 -30 16 -102 20 -160 5 -58 14 -139 20 -180 6 -41 14 -126 16 -187 3
-62 9 -113 14 -113 5 0 11 -37 14 -82 5 -82 15 -160 36 -288 6 -36 15 -108 20
-160 17 -183 20 -205 31 -255 6 -27 20 -81 31 -120 10 -38 24 -88 30 -110 7
-22 15 -44 20 -49 4 -6 8 -22 8 -37 0 -15 4 -30 8 -33 4 -3 14 -28 22 -55 7
-28 17 -51 22 -51 4 0 8 -9 8 -20 0 -11 5 -20 10 -20 6 0 10 -6 10 -12 1 -21
67 -88 87 -88 10 0 23 -4 28 -9 6 -5 63 -17 128 -26 93 -14 123 -15 146 -5 16
6 57 11 92 10 35 -1 98 3 139 9 180 28 232 37 265 50 33 13 113 31 140 31 13
0 27 5 30 10 3 6 17 10 30 10 13 0 34 4 47 9 13 5 43 15 68 22 25 7 49 16 55
21 5 4 19 8 32 8 13 0 31 4 41 9 43 22 70 30 112 35 80 9 125 17 145 26 23 10
77 17 190 26 96 6 125 18 125 52 0 39 -75 132 -107 132 -7 0 -13 5 -13 10 0 6
-9 10 -20 10 -11 0 -20 3 -20 8 0 8 -49 32 -67 32 -7 0 -13 5 -13 10 0 6 -10
10 -23 10 -13 0 -42 9 -65 20 -22 11 -52 20 -66 20 -14 0 -28 5 -31 10 -3 6
-24 10 -46 10 -22 0 -48 4 -57 9 -9 5 -102 11 -207 14 l-190 4 -86 41 c-47 23
-99 53 -115 67 -16 14 -37 25 -47 25 -19 0 -73 51 -95 90 -42 71 -52 92 -52
106 0 8 -9 34 -20 56 -11 23 -20 48 -20 55 0 7 -4 13 -10 13 -5 0 -10 11 -10
24 0 14 -4 28 -10 31 -5 3 -10 21 -10 39 0 17 -5 37 -11 43 -6 6 -13 51 -15
100 -4 95 -30 254 -44 263 -4 3 -11 41 -14 85 -4 44 -11 130 -16 190 -6 61
-12 145 -16 188 -3 42 -9 77 -14 77 -5 0 -11 30 -13 68 -6 78 -15 129 -27 157
-5 11 -11 47 -14 80 -8 91 -17 145 -27 151 -5 3 -9 27 -9 54 0 27 -4 52 -10
55 -5 3 -10 18 -10 32 0 15 -4 40 -9 57 -6 17 -15 58 -22 91 -7 33 -16 65 -21
71 -4 6 -10 38 -12 70 -4 57 -14 114 -34 199 -9 39 -15 57 -32 100 -20 54 -30
95 -30 128 0 20 -4 39 -10 42 -5 3 -10 16 -10 28 0 25 -18 77 -43 126 -9 19
-17 44 -17 57 0 12 -10 42 -21 66 -34 69 -35 71 -50 121 -7 26 -17 47 -21 47
-4 0 -8 6 -8 13 0 17 -64 87 -79 87 -6 0 -19 4 -29 9 -41 22 -103 33 -153 28
-30 -3 -112 -8 -184 -12 -71 -3 -155 -8 -185 -10 -30 -3 -131 -9 -225 -14
-152 -9 -197 -14 -325 -36 -19 -4 -44 -10 -55 -15 -11 -5 -42 -11 -70 -14 -27
-3 -77 -11 -110 -16 -128 -23 -134 -23 -151 -5 l-17 16 13 38 c9 27 9 44 2 57
-6 11 -8 53 -5 94 11 181 13 580 3 580 -6 0 -10 28 -10 68 l0 67 -29 35 c-15
19 -34 59 -41 88 -6 28 -16 55 -21 58 -5 3 -9 14 -9 25 0 10 -4 19 -10 19 -5
0 -10 7 -10 15 0 8 -8 29 -19 47 -10 19 -28 63 -40 98 -12 36 -26 73 -31 82
-6 10 -10 27 -10 38 0 11 -3 20 -7 20 -7 0 -24 51 -64 190 -6 19 -14 44 -18
55 -15 38 -31 115 -31 153 0 21 -5 43 -11 49 -19 19 4 400 31 503 11 43 18 83
39 215 16 97 23 125 32 131 5 3 9 23 9 44 0 21 5 42 10 45 6 3 10 17 10 30 0
13 5 27 10 30 6 3 10 19 10 34 0 15 4 31 8 36 5 6 14 30 22 55 7 25 19 60 27
78 l14 32 32 0 c18 0 37 -4 43 -9 13 -13 124 -71 135 -71 6 0 29 -9 51 -20 23
-11 48 -20 55 -20 7 0 13 -4 13 -10 0 -5 9 -10 19 -10 10 0 45 -13 76 -30 31
-16 63 -30 71 -30 8 0 14 -4 14 -10 0 -5 14 -10 30 -10 17 0 30 -4 30 -10 0
-5 8 -10 17 -10 22 0 83 -22 83 -31 0 -12 136 -20 215 -13 l76 7 52 51 c29 28
63 72 76 98 26 51 41 59 117 62 58 3 90 27 111 85 19 52 -12 95 -104 142 -24
12 -43 26 -43 30 0 4 -10 11 -22 15 -12 3 -43 28 -70 55 l-48 48 0 49 0 50 23
14 c12 8 43 21 70 29 26 7 47 17 47 21 0 4 14 8 31 8 17 0 65 12 107 26 71 24
130 37 222 50 47 7 100 58 100 98 0 16 -5 44 -12 63 l-12 33 24 25 c13 14 34
25 47 25 45 0 98 41 109 85 3 11 3 88 1 170 -5 187 -37 378 -98 585 -10 36
-19 82 -19 103 0 20 -4 37 -10 37 -5 0 -10 15 -10 34 0 19 -4 38 -10 41 -5 3
-10 25 -10 48 0 42 -18 106 -45 158 -8 15 -15 39 -15 54 0 14 -4 25 -10 25 -5
0 -10 14 -10 31 0 17 -5 39 -11 50 -6 11 -11 50 -12 85 l0 65 51 50 c29 28 52
57 52 65 0 8 5 14 10 14 6 0 10 9 10 20 0 11 5 20 10 20 6 0 10 7 10 15 0 8 4
23 9 33 6 9 12 33 16 52 10 64 4 62 221 65 445 5 557 24 526 88 -6 12 -16 40
-23 62 -21 70 -31 84 -75 105 -77 35 -167 42 -509 35 -176 -3 -344 -10 -373
-15 -32 -6 -72 -6 -103 0 -40 8 -65 6 -112 -6 -37 -9 -77 -13 -102 -10 -106
17 -130 17 -167 5 l-38 -12 -24 13 c-13 7 -59 14 -103 15 -43 2 -127 8 -188
15 -98 9 -242 22 -390 34 -103 8 -248 27 -258 33 -11 7 -109 20 -217 29 -36 3
-74 9 -85 14 -11 5 -42 11 -70 14 -27 3 -77 10 -110 16 -33 6 -78 13 -99 17
-22 3 -46 11 -53 18 l-13 13 14 27 c10 19 13 48 9 99 l-5 71 26 58 c15 31 33
57 40 57 8 0 16 4 18 8 5 12 61 49 123 82 63 33 111 37 244 20 72 -10 186 -43
206 -61 5 -5 17 -9 27 -9 10 0 18 -3 18 -7 0 -5 23 -19 50 -32 28 -14 50 -29
50 -33 0 -4 8 -8 18 -8 10 0 24 -9 32 -20 8 -11 19 -20 25 -20 11 0 81 -56
104 -84 9 -10 45 -49 81 -86 36 -37 74 -78 86 -91 37 -43 116 -99 138 -99 9 0
16 -4 16 -10 0 -5 14 -10 30 -10 20 0 30 5 30 15 0 28 -22 62 -52 80 -43 25
-174 156 -182 181 -3 11 -19 27 -33 35 -15 8 -45 31 -66 52 -22 20 -44 37 -49
37 -5 0 -23 13 -41 30 -18 16 -36 30 -40 30 -4 0 -17 8 -27 18 -11 10 -39 28
-62 41 -95 50 -123 66 -128 72 -7 8 -62 19 -127 26 -29 3 -53 8 -53 13 0 7
-16 11 -102 25 -18 3 -40 1 -48 -5z m156 -859 c5 -6 56 -12 114 -15 58 -3 159
-10 225 -15 66 -5 192 -14 280 -20 88 -6 185 -16 215 -22 30 -6 100 -14 155
-16 55 -2 102 -9 105 -14 4 -5 73 -11 156 -13 377 -11 477 -17 490 -31 19 -19
17 -38 -6 -80 -11 -20 -20 -42 -20 -50 0 -8 -4 -15 -8 -15 -4 0 -16 -13 -25
-30 -22 -37 -74 -42 -97 -10 -8 11 -20 20 -27 20 -7 0 -40 13 -75 29 -35 16
-74 32 -88 35 -14 3 -63 13 -110 22 -47 10 -87 21 -90 25 -5 6 -26 11 -125 29
-27 5 -72 14 -100 21 -66 16 -854 24 -869 9 -5 -5 -24 -10 -41 -10 -17 0 -35
-4 -40 -9 -9 -9 -45 -15 -160 -27 -27 -3 -63 -11 -80 -19 -48 -22 -118 -45
-137 -45 -10 0 -33 -9 -53 -20 -20 -11 -43 -20 -53 -20 -9 0 -44 -14 -77 -30
-33 -17 -63 -30 -67 -30 -12 0 -48 -30 -94 -77 -25 -26 -50 -43 -64 -43 -26 0
-60 26 -60 47 0 7 -4 13 -10 13 -5 0 -10 9 -10 20 0 11 -4 20 -10 20 -5 0 -10
9 -10 19 0 11 -4 23 -10 26 -13 8 -13 61 1 87 27 50 132 128 173 128 9 0 16 3
16 8 0 11 51 32 76 32 13 0 26 5 29 10 3 6 19 10 35 10 16 0 45 9 65 20 20 11
52 20 73 20 20 0 44 5 52 10 19 12 343 13 356 1z m916 -224 c31 -7 60 -16 64
-20 4 -4 29 -7 55 -7 27 0 58 -4 71 -9 13 -5 48 -14 78 -21 69 -15 122 -32
135 -42 5 -4 28 -8 52 -8 24 0 43 -4 43 -9 0 -5 12 -11 28 -14 15 -3 41 -17
57 -31 17 -14 34 -26 38 -26 18 0 35 -28 40 -66 10 -69 18 -108 26 -129 13
-33 31 -113 31 -140 0 -14 5 -25 10 -25 6 0 10 -9 10 -19 0 -11 4 -22 9 -25 5
-3 12 -24 15 -46 3 -22 9 -58 12 -80 3 -22 10 -43 15 -46 5 -3 9 -18 9 -35 0
-16 5 -29 10 -29 6 0 10 -15 10 -32 0 -18 8 -53 17 -78 9 -25 19 -70 23 -100
9 -64 37 -177 51 -202 5 -10 9 -45 9 -77 0 -33 4 -62 9 -65 13 -9 22 -69 28
-185 4 -105 -2 -135 -36 -170 l-13 -15 -77 12 c-42 6 -95 20 -118 31 -23 12
-47 21 -53 21 -27 0 -96 43 -107 67 -16 34 -16 78 -1 103 l13 20 -16 15 -16
16 -25 -12 c-30 -13 -41 -59 -31 -124 11 -75 27 -92 128 -140 52 -25 102 -45
112 -45 9 0 27 -10 40 -22 l23 -21 0 -64 c0 -74 -9 -88 -66 -96 -21 -3 -86
-15 -144 -27 -58 -11 -120 -23 -137 -26 -18 -4 -33 -10 -33 -15 0 -5 -13 -9
-29 -9 -16 0 -31 -3 -33 -7 -5 -12 -84 -53 -102 -53 -9 0 -16 -6 -16 -13 0 -8
-9 -22 -20 -32 -24 -21 -28 -111 -7 -147 31 -55 161 -169 210 -185 9 -3 17 -9
17 -14 0 -5 7 -9 15 -9 17 0 34 -29 28 -47 -3 -7 -16 -13 -29 -13 -13 0 -32
-4 -42 -9 -9 -6 -30 -12 -45 -16 -40 -8 -107 -80 -107 -115 0 -6 -14 -26 -31
-44 -31 -34 -43 -38 -161 -52 -32 -4 -48 -2 -48 5 0 6 -8 11 -17 11 -21 0 -90
23 -99 33 -4 4 -22 7 -40 7 -18 0 -36 5 -39 10 -3 6 -15 10 -26 10 -10 0 -19
5 -19 10 0 6 -9 10 -20 10 -11 0 -34 9 -52 20 -18 11 -41 20 -50 20 -10 0 -18
5 -18 10 0 6 -13 10 -28 10 -15 0 -32 4 -37 9 -20 19 -86 51 -105 51 -10 0
-22 5 -25 10 -3 6 -15 10 -26 10 -10 0 -19 5 -19 10 0 6 -6 10 -13 10 -18 0
-67 24 -67 33 0 4 -5 7 -11 7 -7 0 -22 11 -35 25 -43 46 -73 28 -99 -62 -9
-32 -25 -75 -36 -96 -10 -22 -19 -47 -19 -56 0 -10 -8 -33 -17 -51 -9 -19 -20
-51 -25 -72 -4 -21 -13 -57 -19 -80 -5 -24 -14 -65 -19 -93 -5 -27 -14 -68
-21 -90 -12 -43 -24 -118 -38 -230 -5 -38 -14 -104 -20 -144 -13 -83 -16 -378
-5 -438 4 -21 10 -42 14 -48 4 -5 10 -28 13 -50 7 -52 16 -95 27 -120 4 -11
23 -67 41 -125 18 -58 36 -107 39 -110 3 -3 17 -39 30 -80 13 -41 27 -77 30
-80 19 -18 32 -63 41 -138 5 -47 14 -91 20 -98 7 -9 9 -56 5 -131 -7 -162 -29
-293 -58 -349 -9 -16 -21 -42 -29 -59 -16 -36 -101 -120 -141 -137 -15 -7 -28
-16 -28 -20 0 -5 -11 -8 -25 -8 -22 0 -35 -4 -100 -31 -11 -4 -38 -10 -60 -13
-22 -3 -69 -10 -105 -16 -36 -6 -88 -13 -116 -16 l-51 -6 -13 31 c-7 18 -9 42
-5 58 3 16 9 45 12 66 l5 38 -23 20 c-16 13 -32 19 -49 15 -24 -4 -81 7 -125
24 -23 10 -60 18 -125 29 -25 4 -51 10 -58 15 -21 13 -260 8 -301 -6 -58 -21
-182 -151 -219 -230 -17 -37 -39 -71 -49 -75 -31 -15 -269 8 -383 37 -25 6
-60 14 -77 17 -18 3 -33 9 -33 14 0 5 -9 9 -20 9 -11 0 -20 5 -20 10 0 6 -9
10 -20 10 -11 0 -28 4 -38 9 -9 5 -30 15 -47 22 -45 21 -87 69 -82 93 6 27 27
86 38 108 5 10 9 25 9 33 0 8 3 15 8 15 8 0 32 71 32 95 0 8 4 23 9 33 16 31
29 66 41 107 6 22 25 65 41 96 16 31 29 64 29 73 0 9 4 16 8 16 4 0 14 21 21
48 14 45 19 58 41 102 6 11 10 27 10 35 0 8 3 15 8 15 4 0 13 17 20 38 33 91
37 102 44 102 5 0 8 13 8 30 0 16 8 44 18 62 9 18 23 51 31 73 7 22 21 59 32
82 10 24 19 54 19 68 0 14 5 25 10 25 6 0 10 9 10 20 0 11 5 20 10 20 6 0 10
6 10 13 0 7 13 39 30 72 16 33 30 72 30 88 0 15 5 27 10 27 6 0 10 6 10 13 0
18 24 67 33 67 4 0 7 8 7 18 0 15 9 37 52 124 4 10 8 33 8 51 0 18 5 38 11 44
15 15 7 64 -13 77 -18 11 -50 -2 -85 -33 -28 -25 -95 -68 -135 -87 -21 -10
-38 -21 -38 -26 0 -4 -9 -8 -20 -8 -11 0 -20 -3 -20 -8 0 -4 -21 -18 -47 -32
-27 -13 -50 -27 -53 -30 -5 -5 -73 -42 -117 -64 -13 -6 -23 -14 -23 -18 0 -5
-6 -8 -13 -8 -7 0 -22 -8 -33 -18 -25 -23 -101 -74 -139 -92 -16 -8 -37 -23
-46 -32 -9 -10 -22 -18 -29 -18 -7 0 -20 -8 -29 -17 -9 -10 -26 -24 -39 -30
-12 -7 -32 -19 -44 -25 -12 -7 -37 -27 -55 -45 -18 -17 -48 -39 -66 -48 -19
-9 -44 -25 -55 -35 -12 -11 -25 -20 -30 -20 -5 0 -23 -13 -40 -30 -18 -16 -35
-30 -39 -30 -5 0 -28 -18 -53 -40 -24 -22 -48 -40 -52 -40 -5 0 -33 -25 -63
-55 -31 -30 -60 -55 -65 -55 -5 0 -24 -15 -42 -33 -18 -18 -46 -42 -63 -54
-38 -27 -155 -142 -155 -153 0 -4 -13 -22 -30 -40 -16 -18 -30 -36 -30 -40 0
-5 -6 -15 -13 -22 -29 -30 -37 -72 -37 -188 0 -68 -4 -121 -10 -125 -6 -4 -10
-143 -10 -384 0 -220 -4 -381 -9 -386 -13 -13 -21 -161 -27 -480 l-5 -260 22
-42 c12 -24 26 -43 31 -43 4 0 8 -6 8 -12 0 -7 12 -26 26 -43 14 -16 33 -42
42 -57 9 -16 20 -28 24 -28 4 0 8 -6 8 -13 0 -7 8 -22 18 -33 34 -38 45 -94
44 -223 -1 -71 -6 -129 -12 -135 -5 -5 -10 -20 -10 -33 0 -13 -4 -23 -10 -23
-5 0 -10 -7 -10 -15 0 -17 -127 -148 -180 -185 -19 -13 -37 -27 -40 -31 -3 -3
-16 -12 -29 -18 l-23 -13 -14 14 -14 14 13 34 c6 19 14 37 17 40 3 3 12 25 19
50 12 44 16 59 42 165 7 28 16 54 20 59 21 24 -3 66 -38 66 -10 0 -31 -11 -47
-25 -16 -13 -37 -27 -47 -30 -11 -4 -19 -11 -19 -16 0 -5 -9 -9 -20 -9 -11 0
-20 -4 -20 -10 0 -5 -7 -10 -15 -10 -9 0 -25 -9 -37 -20 -12 -11 -28 -20 -35
-20 -7 0 -13 -4 -13 -10 0 -5 -7 -10 -15 -10 -9 0 -27 -11 -40 -24 -13 -14
-34 -27 -45 -31 -11 -3 -20 -11 -20 -16 0 -5 -6 -9 -12 -9 -13 0 -36 -18 -110
-82 -82 -72 -114 -105 -138 -140 -26 -39 -46 -52 -92 -62 -15 -4 -38 -17 -51
-30 -22 -22 -59 -46 -71 -46 -16 0 -4 57 14 70 11 8 20 19 20 25 0 6 8 20 18
31 16 17 57 82 93 144 8 14 16 27 19 30 15 15 50 91 50 108 0 12 4 24 10 27 5
3 10 15 10 26 0 10 5 19 10 19 6 0 10 9 10 20 0 11 3 20 8 20 8 0 32 49 32 67
0 7 5 13 10 13 6 0 10 10 10 23 0 13 5 28 11 34 9 9 8 16 -5 28 -19 19 -46 17
-56 -5 -4 -8 -12 -25 -18 -37 -7 -13 -12 -31 -12 -42 0 -11 -4 -21 -8 -23 -4
-1 -32 -50 -61 -108 -49 -95 -81 -140 -101 -140 -5 0 -29 -20 -56 -45 -47 -45
-94 -60 -94 -30 0 20 22 65 32 65 4 0 8 7 8 15 0 8 18 34 40 56 22 23 40 48
40 55 0 8 5 14 10 14 6 0 10 6 10 13 0 7 16 31 35 52 20 21 43 51 53 67 9 15
20 28 24 28 4 0 8 7 8 15 0 8 4 23 9 33 5 9 19 38 31 65 13 26 27 47 32 47 4
0 8 10 8 23 0 26 21 77 33 77 4 0 7 9 7 20 0 28 23 100 32 100 5 0 8 6 8 13 0
8 6 27 14 43 15 28 34 120 43 199 2 22 8 49 13 60 5 11 11 52 14 90 8 121 35
283 47 291 5 3 9 79 9 170 0 99 4 173 11 185 7 14 10 120 9 309 0 189 3 291
10 295 5 3 10 39 10 80 0 41 5 86 12 100 8 18 8 31 0 49 -8 18 -7 37 5 78 9
29 16 76 17 103 3 76 36 248 57 287 5 10 9 26 9 37 0 35 44 105 102 164 31 31
62 57 67 57 5 0 16 6 23 13 21 19 56 37 73 37 8 0 15 4 15 8 0 5 12 15 27 23
16 8 37 22 47 32 11 9 26 17 33 17 7 0 13 5 13 10 0 6 7 10 16 10 9 0 24 8 33
19 9 10 36 28 61 41 45 23 93 55 118 78 8 7 27 16 43 19 16 3 29 9 29 14 0 5
9 9 20 9 11 0 20 4 20 8 0 4 26 23 58 42 31 19 66 43 76 52 11 10 26 18 33 18
7 0 13 5 13 10 0 6 6 10 13 10 6 0 28 14 47 30 19 16 39 30 43 30 5 0 21 12
36 28 28 29 64 52 81 52 6 0 26 15 45 34 19 19 43 37 55 41 11 3 20 10 20 14
0 5 13 14 30 21 17 7 30 15 30 19 0 3 18 17 40 31 22 14 40 28 40 32 0 5 6 8
13 8 7 0 29 15 49 33 20 17 43 37 50 43 7 6 25 24 40 40 14 16 37 38 50 50 36
33 219 227 258 274 19 23 54 62 78 86 23 24 42 48 42 53 0 6 17 22 38 38 20
15 44 36 52 47 49 62 88 99 157 152 42 32 101 83 131 112 29 28 60 52 68 52 8
0 14 5 14 10 0 6 6 10 13 10 7 0 23 9 35 20 12 11 26 20 32 20 6 0 18 4 28 9
9 5 40 19 67 32 28 12 58 26 67 31 10 4 27 8 38 8 11 0 20 4 20 8 0 13 86 32
145 32 30 0 55 2 55 4 0 2 2 11 5 18 11 29 -28 57 -86 60 l-54 3 -3 20 c-1 11
9 33 23 49 14 17 28 41 32 55 3 14 9 28 13 31 13 9 90 167 90 184 0 9 4 16 8
16 10 0 19 19 64 128 7 17 16 32 20 32 5 0 8 9 8 19 0 11 5 23 10 26 6 3 10
17 10 30 0 13 5 27 10 30 6 3 10 14 10 24 0 19 90 118 124 137 11 6 24 19 30
29 6 10 19 28 29 39 9 11 17 25 17 31 0 6 9 17 20 25 11 8 20 22 20 31 0 10 5
19 11 21 17 6 18 243 2 259 -7 7 -13 37 -13 65 0 29 -4 56 -10 59 -22 13 2 95
28 95 12 0 51 19 62 30 3 3 17 11 33 19 15 8 27 18 27 23 0 21 67 7 99 -21 19
-16 50 -32 70 -35 20 -3 61 -10 91 -16 30 -6 72 -14 93 -17 20 -3 40 -9 43
-14 3 -5 13 -9 22 -9 22 0 122 -62 122 -76 0 -6 7 -25 15 -42 18 -34 19 -52 9
-174 l-7 -88 17 0 c27 0 46 26 46 62 0 19 5 39 11 45 15 15 14 206 0 211 -6 2
-11 10 -11 19 0 16 -12 30 -55 60 -53 37 -105 63 -125 63 -11 0 -20 4 -20 9 0
5 -19 11 -42 14 -74 9 -181 36 -230 59 l-48 21 0 95 0 94 -22 42 c-13 22 -31
50 -40 60 -43 47 -8 86 77 86 25 0 45 5 45 10 0 6 24 10 54 10 30 0 58 5 61
10 3 6 15 10 26 10 10 0 19 5 19 10 0 15 769 12 842 -3z m-1230 -139 c38 -22
68 -56 68 -77 0 -11 5 -23 10 -26 6 -3 10 -30 10 -59 l0 -53 -33 -37 c-18 -20
-41 -36 -50 -36 -9 0 -19 -4 -22 -10 -9 -14 -115 -13 -156 2 -67 23 -77 57
-26 89 21 13 41 18 57 14 14 -4 40 -9 58 -12 l32 -5 0 26 c0 15 -11 38 -25 52
l-26 26 -47 -5 c-26 -3 -62 -9 -79 -12 -50 -11 -55 17 -9 58 65 58 190 92 238
65z m-332 -248 c0 -11 -4 -20 -10 -20 -5 0 -10 9 -10 20 0 11 5 20 10 20 6 0
10 -9 10 -20z m4 -152 c7 -7 15 -21 19 -30 3 -10 13 -18 22 -18 8 0 15 -4 15
-10 0 -5 16 -10 36 -10 39 0 56 -13 68 -50 25 -79 45 -330 27 -330 -6 0 -11
-7 -11 -15 0 -8 -13 -29 -30 -47 -16 -17 -30 -36 -30 -43 0 -14 -47 -41 -56
-32 -10 10 -23 87 -24 139 0 26 -4 49 -9 52 -10 7 -20 57 -28 141 -3 33 -8 62
-12 65 -27 21 -42 165 -19 188 15 15 17 15 32 0z m-1660 -4584 c8 -21 -3 -84
-15 -84 -5 0 -9 -6 -9 -13 0 -7 -10 -33 -22 -58 -31 -63 -27 -137 9 -191 31
-45 30 -45 123 -86 104 -46 120 -52 145 -52 13 0 27 -4 30 -10 3 -5 28 -10 54
-10 26 0 51 -4 57 -9 9 -9 25 -11 242 -30 108 -9 162 -26 162 -51 0 -17 -32
-40 -55 -40 -13 0 -46 -5 -73 -11 -38 -9 -63 -9 -113 1 -35 8 -91 13 -124 12
-188 -3 -381 1 -432 10 -32 5 -92 13 -133 17 -71 7 -150 35 -150 53 0 4 -7 8
-14 8 -8 0 -28 17 -43 38 -15 20 -36 44 -45 53 -22 20 -25 133 -5 171 12 24
72 102 92 119 35 32 60 49 76 54 11 4 19 10 19 15 0 4 8 10 18 14 9 3 53 26
97 50 90 50 100 53 109 30z m2500 -126 c19 -26 21 -89 5 -138 -6 -19 -13 -73
-14 -120 -4 -100 -14 -171 -26 -184 -5 -6 -9 -17 -9 -26 0 -29 -25 -70 -42
-70 -9 0 -20 -5 -23 -10 -7 -11 -83 -50 -98 -50 -5 0 -17 -8 -26 -19 -17 -20
-97 -61 -118 -61 -7 0 -13 -4 -13 -8 0 -4 -21 -14 -47 -21 -27 -7 -63 -22 -81
-32 -18 -11 -42 -19 -52 -19 -11 0 -35 -9 -55 -20 -20 -11 -51 -20 -70 -20
-19 0 -35 -4 -35 -10 0 -5 -9 -10 -19 -10 -11 0 -22 -4 -25 -8 -3 -5 -31 -14
-63 -21 -32 -7 -69 -17 -82 -22 -40 -16 -202 -22 -251 -9 -25 6 -58 14 -75 16
-29 5 -75 23 -85 34 -3 3 -25 12 -50 19 -58 17 -90 32 -90 43 0 4 -9 8 -20 8
-11 0 -20 5 -20 10 0 6 -9 10 -20 10 -11 0 -20 4 -20 8 0 4 -13 16 -30 25 -17
10 -30 27 -30 37 0 10 -4 22 -10 25 -5 3 -10 30 -10 59 0 28 -5 57 -11 63 -37
37 58 303 108 303 6 0 23 12 39 28 62 58 126 76 237 68 51 -3 135 -9 187 -13
55 -3 100 -11 107 -19 15 -15 18 -130 3 -139 -19 -12 -11 -63 10 -70 11 -4 32
-17 45 -31 26 -26 45 -30 62 -13 7 7 58 18 115 25 138 18 193 28 258 48 30 10
69 21 86 27 17 5 40 9 52 9 11 0 24 5 27 10 3 6 16 10 27 10 11 0 33 13 48 28
14 15 40 38 56 49 33 24 56 66 75 136 7 26 16 47 20 47 4 0 9 9 12 20 7 26 22
25 41 -2z m1316 -498 c30 -6 77 -13 105 -15 27 -2 51 -9 53 -14 2 -6 12 -11
23 -11 11 0 27 -9 37 -21 9 -11 25 -30 35 -42 10 -12 21 -34 24 -49 3 -16 9
-28 14 -28 5 0 9 -9 9 -20 0 -11 9 -34 20 -52 11 -18 20 -40 20 -50 0 -9 3
-18 8 -20 8 -4 52 -129 52 -150 0 -8 7 -29 16 -47 9 -18 18 -51 21 -74 2 -23
8 -51 13 -62 5 -11 11 -36 14 -55 11 -72 19 -105 29 -111 5 -4 11 -38 13 -75
3 -74 16 -148 35 -204 6 -19 15 -57 20 -85 5 -27 14 -72 20 -100 5 -27 12 -66
15 -85 3 -19 9 -44 14 -55 5 -11 11 -42 14 -70 2 -27 9 -70 16 -95 7 -25 16
-83 20 -130 4 -47 15 -114 24 -150 8 -36 15 -88 16 -117 0 -28 9 -72 20 -97
10 -25 19 -58 19 -73 0 -16 5 -95 11 -178 6 -82 12 -175 14 -205 1 -30 5 -62
8 -70 10 -24 19 -80 25 -157 3 -40 9 -73 14 -73 5 0 9 -15 9 -34 0 -19 5 -38
10 -41 6 -3 10 -19 10 -35 0 -16 5 -32 10 -35 6 -3 10 -17 10 -31 0 -13 5 -24
10 -24 6 0 10 -9 10 -20 0 -11 5 -20 10 -20 6 0 10 -9 10 -20 0 -11 5 -20 10
-20 6 0 10 -8 10 -18 0 -11 23 -42 50 -71 28 -29 50 -56 50 -60 0 -4 12 -14
28 -22 15 -8 34 -21 42 -30 19 -21 58 -30 145 -36 39 -2 74 -9 79 -14 6 -5 18
-9 28 -9 10 0 18 -4 18 -9 0 -10 42 -18 160 -31 107 -11 149 -20 156 -31 7
-12 144 -11 144 1 0 15 39 12 90 -6 25 -9 57 -18 72 -19 55 -4 178 -50 178
-66 0 -18 -77 -39 -146 -39 -24 0 -52 -4 -62 -9 -35 -18 -90 -31 -128 -31 -21
0 -53 -8 -69 -19 -17 -10 -55 -24 -85 -31 -30 -6 -63 -16 -72 -21 -10 -5 -27
-9 -38 -9 -11 0 -20 -4 -20 -8 0 -5 -38 -14 -84 -21 -83 -13 -149 -30 -162
-44 -4 -4 -28 -7 -54 -7 -25 0 -50 -4 -56 -8 -5 -5 -40 -14 -79 -20 -38 -7
-86 -14 -105 -18 -67 -12 -380 -16 -380 -5 0 6 -16 11 -36 11 -42 0 -91 45
-101 92 -3 15 -9 28 -12 28 -4 0 -14 23 -21 50 -7 28 -17 50 -22 50 -4 0 -8
16 -8 35 0 32 -14 71 -31 85 -3 3 -9 24 -13 48 -3 23 -13 62 -21 85 -8 23 -15
61 -15 85 0 23 -4 42 -9 42 -10 0 -19 69 -27 205 -3 50 -10 94 -15 99 -5 6 -9
42 -9 81 0 39 -4 75 -9 81 -5 5 -15 65 -21 134 -6 69 -15 139 -20 155 -19 68
-22 154 -4 190 l16 35 -21 44 c-13 30 -24 82 -31 157 -6 61 -14 119 -19 128
-5 9 -12 62 -16 119 -3 56 -18 151 -31 210 -13 58 -24 119 -24 134 0 16 -4 28
-8 28 -4 0 -13 21 -21 48 -20 74 -87 224 -103 230 -4 2 -8 12 -8 23 0 10 -4
19 -10 19 -5 0 -10 6 -10 13 0 31 -61 77 -125 93 -37 9 -267 9 -315 0 -19 -3
-66 -11 -105 -17 -38 -6 -79 -15 -90 -19 -11 -5 -40 -11 -65 -14 -84 -9 -175
-25 -215 -36 -22 -7 -55 -14 -72 -17 -18 -3 -33 -9 -33 -14 0 -5 -16 -9 -35
-9 -19 0 -43 -4 -53 -9 -38 -19 -91 -31 -187 -41 -55 -6 -104 -16 -109 -21
-13 -12 -293 -12 -301 1 -3 6 -15 10 -26 10 -21 0 -149 124 -192 184 -12 17
-43 52 -69 78 -27 26 -48 51 -48 57 0 5 -36 46 -79 90 -43 44 -89 95 -102 113
-13 18 -40 50 -61 70 -66 64 -49 85 84 100 51 5 115 19 142 29 27 11 59 19 72
19 12 0 26 5 29 10 3 6 18 10 33 10 15 0 35 7 45 14 10 8 56 26 102 41 46 15
93 36 104 46 11 11 29 19 40 19 11 0 23 5 26 10 3 6 15 10 26 10 10 0 19 5 19
10 0 6 10 10 23 10 13 0 32 8 43 18 34 29 62 42 94 42 17 0 45 8 63 17 18 9
57 20 87 25 68 9 140 23 200 38 25 7 83 16 130 20 93 8 216 34 234 49 11 9 43
13 286 31 204 15 288 24 297 33 9 10 82 4 163 -13z m-4021 -92 c20 -7 41 -19
46 -26 14 -18 -2 -514 -25 -757 -16 -173 -29 -409 -36 -675 -3 -135 -10 -247
-14 -250 -5 -3 -9 -61 -9 -130 0 -76 -4 -126 -11 -128 -6 -2 -10 -38 -10 -86
0 -45 -4 -86 -9 -92 -5 -5 -12 -61 -15 -124 -12 -225 -13 -245 -22 -280 -4
-19 -8 -93 -9 -165 0 -71 -6 -166 -14 -210 -28 -176 -30 -223 -31 -555 l0
-345 -19 -31 -19 -32 -44 -5 c-24 -3 -55 -8 -71 -12 -15 -4 -40 -2 -57 5 l-30
12 0 49 c0 27 4 49 9 49 6 0 12 48 15 108 10 195 17 272 27 272 5 0 9 34 9 75
0 41 5 85 11 98 7 15 7 35 2 58 -6 23 -5 48 3 76 12 41 21 189 28 508 5 208
13 313 27 341 6 12 12 102 14 205 4 219 13 339 26 339 5 0 9 89 9 210 0 145 3
210 11 210 7 0 9 13 5 38 -4 20 -2 62 4 92 6 30 13 127 16 215 3 88 8 167 11
175 16 43 26 108 34 225 13 207 20 279 29 288 4 5 6 25 3 45 -3 21 2 57 11 82
9 25 16 58 16 74 0 26 23 66 38 66 3 0 22 -6 41 -12z m836 -48 c22 -6 66 -18
98 -25 l58 -13 60 -61 c33 -34 66 -61 74 -61 8 0 15 -4 15 -10 0 -5 6 -10 13
-10 7 0 22 -8 33 -17 11 -10 40 -34 64 -53 25 -19 47 -38 48 -42 2 -4 8 -8 14
-8 12 0 102 -61 106 -72 2 -4 11 -8 20 -8 10 -1 35 -19 57 -40 22 -22 43 -40
47 -40 8 0 92 -76 142 -128 17 -18 68 -71 114 -118 45 -47 82 -90 82 -95 0 -5
36 -45 80 -88 44 -44 80 -84 80 -89 0 -5 12 -22 28 -38 15 -16 38 -45 52 -64
13 -19 32 -44 42 -54 10 -11 18 -24 18 -28 0 -5 15 -23 33 -41 17 -18 40 -46
49 -62 26 -44 41 -67 61 -89 9 -11 17 -28 17 -37 0 -24 21 -69 32 -69 4 0 8
-19 8 -43 0 -24 3 -47 7 -51 13 -13 33 -82 33 -117 0 -19 9 -54 20 -77 12 -24
20 -61 20 -91 0 -27 5 -53 10 -56 6 -3 10 -24 10 -45 0 -21 4 -41 9 -44 4 -3
11 -27 14 -53 3 -27 13 -69 21 -93 10 -29 16 -81 16 -150 0 -73 5 -119 17
-150 9 -25 20 -83 24 -130 5 -47 13 -114 19 -150 12 -77 29 -217 36 -315 3
-38 9 -72 12 -75 18 -14 32 -85 32 -166 0 -50 4 -94 9 -99 5 -6 12 -57 14
-115 5 -98 12 -152 37 -275 5 -27 17 -95 25 -150 9 -55 18 -107 21 -115 6 -14
18 -87 30 -175 4 -22 10 -44 15 -50 5 -5 9 -28 9 -51 0 -24 5 -46 10 -49 6 -3
10 -26 10 -50 0 -24 5 -47 10 -50 6 -3 10 -28 10 -55 0 -27 5 -52 10 -55 6 -3
10 -37 10 -76 0 -39 4 -69 10 -69 6 0 10 -26 10 -59 0 -33 5 -63 10 -66 6 -3
10 -26 10 -51 0 -24 4 -44 9 -44 4 0 11 -17 14 -37 5 -43 38 -123 49 -123 5 0
8 -9 8 -20 0 -11 4 -20 8 -20 4 0 19 -22 33 -50 l24 -49 65 -33 c36 -18 67
-36 68 -40 2 -5 26 -8 52 -8 27 0 52 -4 55 -10 3 -5 15 -10 26 -10 10 0 27 -4
37 -9 9 -5 28 -13 42 -18 44 -18 84 -35 102 -44 10 -5 26 -9 36 -9 10 0 37 -9
60 -20 22 -11 48 -20 57 -20 8 0 15 -4 15 -10 0 -5 15 -10 33 -10 18 0 55 -9
82 -19 73 -28 104 -38 155 -51 25 -7 53 -16 62 -21 10 -5 31 -9 47 -9 17 0 33
-4 36 -10 3 -5 17 -10 30 -10 13 0 27 -4 30 -10 3 -6 17 -10 31 -10 13 0 32
-4 42 -9 34 -17 68 -29 127 -43 l60 -14 3 -36 3 -36 -30 -21 c-16 -12 -36 -21
-45 -21 -9 0 -35 -9 -59 -19 -23 -10 -53 -22 -67 -26 -67 -17 -252 -42 -390
-51 -41 -2 -84 -9 -95 -14 -39 -17 -71 -23 -167 -31 -54 -5 -144 -14 -200 -19
-177 -18 -475 -23 -525 -8 -23 7 -43 16 -43 20 0 4 -6 8 -14 8 -22 0 -66 51
-66 76 0 12 -3 24 -7 26 -12 5 -53 88 -53 106 0 10 -9 28 -20 42 -11 14 -20
33 -20 42 0 9 -5 30 -11 45 -6 15 -15 37 -20 48 -4 11 -13 38 -20 60 -6 22
-20 58 -30 80 -10 22 -20 56 -24 75 -3 19 -8 50 -12 68 -3 17 -9 32 -14 32 -5
0 -9 7 -9 15 0 8 -4 23 -9 33 -12 24 -36 94 -62 177 -6 22 -20 52 -30 66 -10
14 -24 44 -31 67 -7 23 -16 42 -20 42 -5 0 -8 9 -8 19 0 11 -4 23 -10 26 -5 3
-10 17 -10 31 0 13 -4 24 -10 24 -5 0 -10 9 -10 20 0 11 -3 20 -8 20 -8 0 -23
33 -46 102 -8 26 -27 70 -41 99 -14 29 -25 59 -25 67 0 21 -44 146 -52 150 -5
2 -8 12 -8 23 0 10 -4 19 -8 19 -4 0 -14 21 -21 48 -8 26 -23 67 -34 92 -10
25 -25 59 -32 75 -25 56 -45 120 -45 143 0 12 -4 22 -10 22 -5 0 -10 7 -10 15
0 8 -4 23 -9 33 -5 9 -15 38 -23 65 -7 26 -16 47 -20 47 -4 0 -8 10 -8 23 0
13 -9 42 -20 65 -11 22 -20 52 -20 66 0 14 -4 28 -10 31 -5 3 -10 19 -10 35 0
16 -4 31 -9 34 -5 3 -11 20 -14 38 -9 55 -23 101 -49 158 -14 31 -31 87 -37
125 -6 39 -20 95 -31 125 -11 30 -20 69 -20 87 0 18 -4 33 -10 33 -5 0 -10 21
-10 46 0 25 -5 55 -12 67 -6 12 -12 49 -13 82 -1 33 -4 67 -7 75 -17 48 -28
119 -28 180 0 39 -4 70 -9 70 -5 0 -12 28 -15 63 -10 114 -24 242 -30 277 -17
92 -29 147 -40 170 -12 27 -82 100 -96 100 -5 0 -27 18 -49 39 -23 22 -50 43
-61 46 -11 4 -20 11 -20 16 0 5 -6 9 -13 9 -7 0 -33 18 -57 40 -24 22 -48 40
-53 40 -4 0 -17 9 -29 20 -12 11 -28 20 -35 20 -7 0 -13 4 -13 8 0 5 -12 15
-27 23 -16 8 -37 22 -47 32 -11 9 -26 17 -33 17 -7 0 -13 5 -13 10 0 6 -5 10
-11 10 -12 0 -93 54 -124 83 -11 10 -42 32 -70 50 -27 18 -67 49 -89 70 -21
20 -43 37 -48 37 -12 0 -58 46 -58 58 0 5 -45 56 -100 113 -55 57 -100 110
-100 116 0 7 -4 13 -10 13 -5 0 -10 6 -10 14 0 8 -36 51 -80 95 -44 45 -80 84
-80 87 0 3 -10 20 -22 37 l-23 32 0 270 c0 149 4 283 8 298 l8 29 52 -7 c105
-14 476 1 495 19 9 10 85 2 137 -14z"/>
<path d="M5392 17048 c-7 -7 -12 -25 -12 -40 0 -38 48 -184 66 -202 8 -8 14
-19 14 -25 0 -19 40 -80 68 -105 7 -6 23 -20 36 -31 32 -29 63 -45 85 -45 11
0 22 -4 25 -9 13 -21 241 -40 259 -22 6 6 27 11 47 11 20 0 40 4 46 8 5 4 26
14 48 21 41 14 146 111 146 135 0 8 4 16 8 18 4 2 25 38 46 80 43 89 42 113
-7 122 -18 3 -54 10 -82 15 -27 6 -73 14 -100 19 -28 4 -55 11 -61 15 -18 11
-423 47 -527 47 -59 0 -97 -4 -105 -12z m234 -83 c12 -11 14 -25 9 -48 -4 -18
-9 -60 -12 -94 l-5 -63 -25 0 c-25 0 -53 20 -53 39 0 11 -2 15 -39 87 -24 47
-27 89 -8 98 23 11 117 -2 133 -19z m537 -62 c15 -8 31 -21 34 -29 7 -20 -14
-62 -49 -96 -16 -14 -28 -30 -28 -35 0 -12 -42 -56 -68 -71 -16 -9 -28 -10
-42 -2 -24 13 -25 26 -4 65 10 18 17 56 18 98 1 54 5 72 19 82 21 15 77 10
120 -12z"/>
<path d="M6140 16580 c0 -13 7 -20 20 -20 13 0 20 7 20 20 0 13 -7 20 -20 20
-13 0 -20 -7 -20 -20z"/>
<path d="M10055 17550 c-3 -5 -31 -10 -61 -10 -30 0 -54 -4 -54 -10 0 -5 -9
-10 -20 -10 -11 0 -20 -4 -20 -10 0 -5 -6 -10 -13 -10 -18 0 -67 -24 -67 -32
0 -5 -9 -8 -20 -8 -11 0 -20 -4 -20 -9 0 -5 -15 -14 -32 -21 -18 -7 -52 -21
-75 -31 -24 -11 -50 -19 -58 -19 -8 0 -15 -4 -15 -9 0 -5 -13 -14 -30 -21 -16
-7 -30 -16 -30 -21 0 -5 -9 -9 -20 -9 -11 0 -20 -4 -20 -10 0 -5 -9 -10 -19
-10 -11 0 -21 -4 -23 -9 -1 -4 -39 -26 -83 -48 -98 -49 -125 -64 -143 -81 -8
-7 -32 -21 -53 -30 -22 -9 -39 -20 -39 -24 0 -5 -6 -8 -13 -8 -7 0 -22 -8 -33
-17 -10 -10 -31 -24 -46 -32 -16 -8 -28 -18 -28 -23 0 -4 -7 -8 -16 -8 -9 0
-24 -8 -33 -17 -21 -23 -107 -83 -118 -83 -13 0 -124 -60 -148 -80 -11 -9 -42
-27 -70 -41 -27 -13 -51 -27 -53 -31 -2 -5 -12 -8 -23 -8 -10 0 -19 -4 -19
-10 0 -5 -6 -10 -13 -10 -7 0 -22 -8 -33 -18 -10 -9 -48 -33 -84 -51 -36 -19
-85 -47 -109 -63 -25 -15 -51 -28 -58 -28 -8 0 -23 -9 -35 -20 -12 -11 -28
-20 -35 -20 -14 0 -73 -31 -115 -61 -14 -11 -31 -19 -38 -19 -10 0 -127 -75
-140 -89 -3 -3 -18 -13 -35 -21 -16 -8 -49 -27 -72 -42 -23 -15 -47 -28 -53
-28 -6 0 -20 -9 -32 -20 -12 -11 -32 -20 -45 -20 -13 0 -23 -4 -23 -10 0 -5
-7 -10 -16 -10 -8 0 -34 -13 -57 -28 -23 -15 -55 -34 -72 -42 -16 -8 -32 -17
-35 -20 -12 -12 -51 -30 -65 -30 -8 0 -15 -3 -15 -8 0 -4 -15 -13 -32 -20 -59
-25 -123 -57 -126 -64 -2 -5 -12 -8 -22 -8 -41 0 -120 -53 -120 -79 0 -17 51
-46 58 -34 4 5 19 13 34 16 15 4 33 13 40 20 18 16 53 36 103 59 22 10 48 23
57 28 10 6 25 10 33 10 8 0 15 3 15 8 0 4 10 12 23 18 60 30 153 79 157 84 6
6 41 23 88 42 17 7 32 16 32 20 0 5 9 8 20 8 11 0 20 5 20 10 0 6 9 10 20 10
11 0 20 5 20 10 0 6 7 10 16 10 9 0 24 8 33 18 17 18 38 31 106 66 22 12 49
29 59 39 11 9 25 17 32 17 7 0 14 3 16 8 2 4 33 23 71 42 37 19 67 38 67 42 0
5 8 8 18 8 10 0 22 4 28 9 17 17 84 51 99 51 8 0 15 4 15 9 0 5 8 11 18 14 18
6 74 38 82 48 3 3 25 16 50 30 25 13 47 26 50 29 12 12 51 30 65 30 8 0 15 5
15 10 0 6 7 10 15 10 9 0 25 9 37 20 12 11 28 20 35 20 7 0 13 4 13 9 0 5 23
20 50 32 28 12 50 26 50 30 0 4 32 22 70 40 39 18 70 36 70 41 0 4 6 8 13 8 7
0 22 8 33 18 10 9 31 23 47 31 15 8 27 18 27 23 0 4 9 8 20 8 11 0 20 4 20 8
0 5 12 15 28 23 15 8 29 16 32 19 12 12 51 30 65 30 8 0 15 5 15 10 0 6 9 10
20 10 11 0 20 5 20 10 0 6 6 10 13 10 6 0 25 12 42 26 16 14 42 28 57 31 16 3
28 9 28 13 0 4 8 10 18 14 23 8 80 41 100 59 9 8 39 22 66 31 54 18 109 47
114 59 2 4 10 7 18 7 8 0 34 9 56 20 23 11 47 20 54 20 7 0 14 5 16 10 5 16
86 42 163 53 39 6 183 10 320 11 l250 1 50 -17 c38 -12 87 -16 207 -16 153 0
213 9 240 36 20 20 -1 27 -90 29 -157 4 -368 29 -378 44 -7 13 -581 12 -589
-1z"/>
<path d="M8485 10090 c-3 -5 -21 -10 -38 -10 -18 0 -48 -5 -67 -10 -19 -6 -60
-11 -90 -11 -54 -1 -116 -15 -134 -31 -6 -4 -19 -8 -31 -8 -12 0 -25 -4 -30
-8 -6 -5 -30 -14 -55 -22 -61 -18 -100 -34 -100 -41 0 -4 -8 -9 -17 -12 -37
-12 -114 -64 -163 -109 -27 -27 -55 -48 -61 -48 -16 0 -39 -26 -39 -44 0 -9
-4 -16 -8 -16 -5 0 -15 -12 -23 -27 -8 -16 -16 -30 -19 -33 -3 -3 -10 -14 -16
-25 -48 -89 -60 -111 -65 -115 -13 -11 -29 -50 -29 -69 0 -12 -9 -40 -19 -64
-11 -23 -25 -62 -31 -87 -7 -25 -18 -66 -27 -91 l-14 -46 12 -79 c6 -44 15
-108 20 -144 10 -85 18 -118 41 -158 10 -18 18 -37 18 -42 0 -6 14 -24 30 -42
17 -17 30 -35 30 -41 0 -13 71 -77 87 -77 7 0 13 -4 13 -10 0 -5 7 -10 15 -10
8 0 34 -9 58 -19 23 -11 74 -30 112 -43 39 -12 72 -25 75 -28 26 -29 460 -47
523 -21 16 6 56 11 89 11 40 0 72 6 97 19 20 11 57 25 84 32 26 8 47 16 47 20
0 4 15 12 33 19 69 25 127 54 127 62 0 4 8 8 18 8 10 0 24 9 32 20 8 11 20 20
28 20 15 0 182 167 182 182 0 6 8 18 18 27 20 18 50 106 81 236 12 50 26 106
32 125 10 36 5 196 -9 285 -5 28 -25 82 -45 121 -20 39 -37 76 -37 81 0 5 -9
28 -20 51 -11 22 -20 45 -20 50 0 13 -120 134 -150 151 -73 42 -134 71 -151
71 -10 0 -19 4 -19 9 0 5 -17 11 -37 15 -21 3 -51 13 -67 21 -33 18 -261 22
-271 5z m270 -80 c3 -5 16 -10 28 -10 12 0 33 -9 47 -20 14 -11 35 -20 48 -20
13 0 44 -14 70 -32 59 -41 172 -155 172 -174 0 -7 5 -14 10 -14 6 0 10 -9 10
-20 0 -11 5 -20 10 -20 6 0 10 -7 10 -16 0 -9 13 -42 29 -74 l29 -57 9 -129
c4 -71 7 -138 6 -149 -3 -45 -35 -181 -44 -190 -5 -5 -9 -22 -9 -37 0 -35 -22
-108 -32 -108 -5 0 -8 -9 -8 -20 0 -11 -4 -20 -9 -20 -5 0 -12 -8 -15 -18 -8
-25 -86 -105 -124 -128 -18 -10 -32 -22 -32 -26 0 -4 -6 -8 -13 -8 -7 0 -22
-8 -33 -17 -11 -10 -31 -24 -43 -31 -73 -42 -93 -52 -106 -52 -9 0 -23 -4 -33
-9 -18 -9 -53 -24 -87 -37 -11 -4 -49 -11 -85 -16 -36 -5 -94 -13 -130 -19
-94 -16 -381 -22 -394 -9 -5 5 -22 10 -37 10 -24 0 -51 11 -131 51 -10 5 -27
9 -37 9 -11 0 -23 5 -26 10 -3 6 -14 10 -25 10 -40 0 -180 90 -180 116 0 3 -8
18 -19 32 -10 15 -21 41 -25 57 -4 17 -12 48 -17 70 -36 137 -41 375 -10 420
4 6 14 30 21 55 8 25 22 60 32 78 10 18 18 39 18 47 0 17 18 52 38 73 7 8 19
30 28 50 14 35 116 142 135 142 5 0 27 17 50 39 50 46 148 101 183 101 15 0
26 4 26 9 0 14 70 44 125 54 28 4 87 11 133 14 45 3 82 9 82 14 0 5 17 9 38 9
20 0 44 5 52 10 20 13 257 13 265 0z"/>
<path d="M2355 5063 c-47 -5 -107 -25 -140 -47 -57 -38 -115 -107 -115 -137 0
-15 -4 -31 -10 -34 -5 -3 -10 -24 -10 -46 0 -22 -5 -39 -11 -39 -13 0 -7 -95
10 -170 6 -25 10 -96 11 -158 l0 -114 -35 -34 c-19 -18 -35 -38 -35 -43 0 -6
-9 -15 -20 -21 -11 -6 -20 -15 -20 -21 0 -6 -13 -24 -30 -39 -16 -15 -30 -32
-30 -37 0 -4 -22 -31 -48 -58 -26 -28 -53 -63 -61 -78 -8 -15 -18 -27 -23 -27
-4 0 -8 -13 -8 -30 0 -16 -4 -30 -10 -30 -5 0 -10 -9 -10 -20 0 -11 -4 -20 -8
-20 -5 0 -15 -22 -22 -50 -7 -27 -17 -50 -20 -50 -30 0 -30 -495 0 -550 10
-18 10 -31 -1 -62 -9 -28 -10 -41 -2 -46 6 -4 12 -43 13 -92 3 -120 2 -130
-14 -130 -7 0 -32 -18 -55 -40 -22 -22 -45 -40 -50 -40 -4 0 -21 -12 -38 -27
-61 -57 -59 -56 -334 -58 -292 -2 -557 9 -644 25 -95 18 -176 23 -199 12 -20
-10 -49 -18 -111 -29 -37 -6 -155 -126 -155 -158 0 -11 -5 -26 -12 -33 -9 -9
-9 -18 0 -37 7 -14 12 -56 12 -93 0 -79 27 -163 62 -192 13 -11 26 -19 30 -20
4 0 21 -14 38 -31 l30 -32 0 -48 c0 -26 -4 -50 -8 -53 -12 -7 -14 -124 -2
-131 5 -3 10 -19 10 -35 0 -16 5 -32 10 -35 6 -3 10 -24 10 -46 0 -21 5 -39
10 -39 6 0 10 -10 10 -23 0 -13 3 -27 7 -30 11 -11 52 -140 53 -164 0 -12 4
-25 10 -28 5 -3 10 -22 10 -41 0 -19 5 -34 10 -34 6 0 10 -13 10 -29 0 -18 6
-31 18 -34 9 -4 35 -13 57 -21 22 -9 50 -16 62 -16 12 0 25 -4 28 -10 9 -15
84 -12 101 4 16 17 20 165 5 181 -29 31 -29 385 0 385 5 0 9 26 9 58 0 32 4
62 9 68 5 5 11 29 14 54 10 85 27 139 54 167 14 15 109 17 118 3 4 -6 53 -10
116 -10 l109 0 0 -39 c0 -22 -5 -43 -10 -46 -6 -3 -10 -33 -10 -65 0 -32 4
-62 10 -65 5 -3 10 -15 10 -26 0 -10 5 -19 10 -19 6 0 10 -18 10 -40 0 -22 4
-40 8 -40 4 0 16 -13 25 -30 10 -16 23 -35 30 -42 7 -7 24 -29 37 -48 36 -52
73 -80 105 -80 8 0 15 -4 15 -10 0 -5 6 -10 13 -10 18 0 67 -24 67 -32 0 -5 9
-8 20 -8 11 0 20 -4 20 -10 0 -5 9 -10 20 -10 11 0 20 -4 20 -8 0 -10 56 -28
115 -37 22 -4 63 -11 90 -16 28 -6 67 -13 88 -16 20 -3 40 -9 43 -14 3 -5 18
-9 34 -9 16 0 32 -5 35 -10 3 -5 19 -10 34 -10 15 0 31 -4 37 -8 15 -14 84
-30 174 -42 47 -6 99 -15 115 -20 17 -4 62 -13 100 -20 39 -6 84 -16 101 -21
17 -5 54 -9 82 -9 29 0 52 -4 52 -9 0 -4 26 -11 58 -15 31 -4 84 -11 117 -17
33 -5 93 -12 133 -15 40 -4 75 -11 78 -15 3 -5 52 -9 108 -9 124 0 138 -8 106
-64 -11 -20 -20 -53 -20 -74 l0 -37 35 -33 c20 -18 46 -32 60 -32 14 0 25 -4
25 -10 0 -5 14 -10 30 -10 17 0 30 -4 30 -9 0 -9 29 -14 170 -30 41 -5 86 -12
100 -15 14 -4 45 -12 70 -18 25 -5 54 -13 65 -18 44 -16 92 -30 109 -30 9 0
34 -8 55 -19 22 -10 60 -24 85 -32 25 -7 46 -16 46 -19 0 -4 23 -13 50 -20 28
-7 50 -17 50 -22 0 -4 6 -8 13 -8 18 0 67 -24 67 -32 0 -5 6 -8 13 -8 18 0 67
-24 67 -32 0 -5 7 -8 15 -8 8 0 29 -14 47 -30 17 -16 37 -30 44 -30 8 0 14 -4
14 -10 0 -5 7 -10 15 -10 9 0 25 -9 37 -20 12 -11 28 -20 35 -20 7 0 13 -3 13
-8 0 -7 21 -17 90 -42 19 -7 39 -17 44 -22 6 -4 20 -8 33 -8 53 0 172 -81 173
-117 0 -28 47 -45 107 -40 79 8 133 18 133 26 0 16 61 29 125 26 76 -4 232
-22 254 -30 19 -7 141 15 141 26 0 5 9 9 20 9 11 0 20 5 20 10 0 6 9 10 20 10
11 0 20 4 20 8 0 5 12 15 28 23 15 8 29 17 32 20 9 10 99 69 105 69 4 0 20 14
35 30 15 17 32 30 37 30 4 0 50 41 101 90 51 50 98 90 105 90 32 0 51 118 23
146 -19 18 -64 18 -211 -2 -66 -9 -163 -20 -215 -25 -132 -13 -229 -26 -340
-43 -113 -17 -172 -19 -214 -7 -17 5 -60 15 -95 21 -35 6 -70 18 -78 25 -8 8
-31 22 -51 32 -20 10 -46 26 -57 36 -11 10 -51 34 -90 52 -75 37 -109 60 -165
115 -100 98 -202 190 -211 190 -5 0 -38 29 -73 63 -35 35 -81 77 -102 93 -21
16 -48 37 -58 47 -11 9 -26 17 -33 17 -7 0 -13 5 -13 10 0 6 -6 10 -13 10 -7
0 -22 8 -33 18 -19 16 -31 23 -86 54 -13 7 -25 15 -28 18 -10 10 -65 41 -82
47 -10 3 -18 9 -18 14 0 5 -9 9 -20 9 -11 0 -20 4 -20 8 0 8 -74 44 -117 57
-13 3 -23 13 -23 21 0 10 14 14 54 14 55 0 126 23 126 40 0 6 8 14 18 17 28
11 62 58 62 88 0 8 5 15 10 15 6 0 10 13 10 28 0 45 -29 53 -149 39 -77 -8
-109 -8 -134 1 -18 7 -43 12 -55 12 -12 0 -22 5 -22 10 0 6 -9 19 -20 30 l-20
20 -112 0 -113 0 -120 118 c-66 65 -135 129 -154 142 -19 13 -47 37 -61 52
-15 15 -32 28 -39 28 -6 0 -25 14 -43 30 -17 17 -38 30 -48 30 -9 0 -26 9 -38
20 -12 11 -28 20 -37 20 -16 0 -21 40 -6 56 10 10 20 67 27 164 3 36 10 69 15
74 5 6 9 27 9 48 0 21 5 38 10 38 6 0 10 18 10 39 0 22 5 43 10 46 6 3 10 24
10 45 0 21 4 41 8 44 4 3 14 28 22 55 7 28 17 51 22 51 4 0 8 12 8 26 0 29 21
54 44 54 9 0 16 3 16 8 0 4 10 12 23 18 68 34 114 61 134 81 13 12 39 29 58
38 41 20 185 157 185 177 0 29 110 98 155 98 13 0 27 5 30 10 3 6 17 10 31 10
13 0 32 4 42 9 9 5 58 28 107 52 50 23 109 55 132 71 23 15 45 28 50 28 5 0
15 9 23 20 8 11 19 20 25 20 6 0 28 16 49 35 21 19 42 35 45 35 4 0 24 16 44
35 21 19 83 59 140 87 56 29 104 56 105 60 2 4 12 8 23 8 10 0 19 3 19 8 0 9
72 32 100 32 11 0 20 3 20 8 0 8 71 32 95 32 8 0 23 4 33 9 9 5 38 15 65 23
26 7 47 16 47 20 0 4 31 8 69 8 39 0 73 5 76 10 3 6 35 10 71 10 36 0 64 4 64
10 0 6 7 10 16 10 42 0 60 65 24 88 -41 25 -20 32 102 32 67 0 135 4 152 9 17
5 51 15 76 23 49 13 70 29 70 50 0 19 -21 38 -42 38 -10 0 -18 5 -18 10 0 6
-15 10 -34 10 -19 0 -37 4 -40 9 -3 4 -35 9 -71 9 -36 1 -75 7 -87 13 -29 15
-207 16 -235 1 -12 -7 -59 -12 -105 -12 -46 0 -88 -4 -94 -9 -5 -5 -43 -12
-84 -15 -101 -7 -163 -16 -174 -27 -6 -5 -18 -9 -28 -9 -10 0 -26 -4 -36 -9
-77 -39 -106 -51 -122 -51 -11 0 -22 -4 -25 -10 -3 -5 -14 -10 -23 -10 -9 0
-44 -14 -77 -30 -33 -17 -65 -30 -72 -30 -7 0 -13 -4 -13 -8 0 -5 -22 -19 -50
-32 -27 -13 -50 -27 -50 -32 0 -4 -9 -8 -20 -8 -11 0 -20 -4 -20 -10 0 -5 -7
-10 -16 -10 -9 0 -28 -8 -42 -19 -38 -26 -192 -101 -209 -101 -7 0 -13 -3 -13
-7 0 -5 -10 -13 -23 -19 -12 -6 -38 -20 -57 -30 -33 -17 -75 -27 -175 -41 -22
-3 -44 -9 -49 -14 -6 -5 -27 -9 -47 -9 -21 0 -41 -4 -44 -10 -10 -16 -101 -12
-115 5 -16 20 5 114 29 123 38 14 46 34 43 105 -2 39 1 73 5 76 12 9 32 69 25
76 -14 13 -32 84 -32 124 0 55 -17 111 -61 208 -13 29 -27 53 -31 53 -5 0 -8
6 -8 14 0 7 -12 22 -27 32 -16 9 -35 24 -43 33 -14 15 -42 30 -95 52 -41 17
-168 29 -298 29 -74 0 -147 4 -163 9 -29 10 -204 19 -259 14z m330 -84 c264
-11 312 -16 364 -40 85 -39 171 -118 171 -156 0 -13 5 -23 10 -23 6 0 10 -13
10 -29 0 -17 4 -32 9 -35 5 -3 11 -23 14 -43 3 -21 9 -52 12 -68 5 -23 2 -35
-14 -49 l-21 -19 0 -68 c0 -37 5 -71 10 -74 6 -3 10 -26 10 -50 l0 -44 -47 -3
-48 -3 -3 -26 c-2 -14 4 -56 13 -95 29 -125 29 -121 4 -156 -29 -42 -57 -67
-89 -81 -24 -10 -121 -24 -220 -32 -25 -1 -51 -3 -58 -4 -8 -1 -12 -11 -10
-28 l3 -28 105 0 c102 1 230 27 230 47 0 4 6 8 14 8 17 0 106 87 106 103 0 13
29 27 95 47 22 7 49 17 61 22 11 5 42 8 69 6 l48 -3 16 -45 c9 -25 22 -51 29
-58 15 -16 16 -52 1 -52 -6 0 -28 18 -50 41 -24 25 -45 39 -54 35 -17 -6 -21
-56 -5 -56 6 0 10 -9 10 -20 0 -20 -13 -24 -72 -20 l-28 2 -2 -54 c0 -29 0
-65 1 -80 3 -39 -31 -37 -59 2 -23 32 -54 40 -64 15 -6 -18 2 -45 15 -45 12 0
11 -47 -1 -55 -5 -3 -10 -24 -10 -46 0 -42 -13 -49 -51 -28 -15 7 -24 7 -35
-2 -16 -13 -19 -55 -4 -64 6 -3 10 -19 10 -36 0 -22 -5 -29 -20 -29 -15 0 -20
7 -20 24 0 14 -10 33 -24 43 -18 14 -22 26 -19 50 5 34 -7 47 -37 38 -21 -7
-29 -55 -10 -55 6 0 10 -22 10 -50 0 -27 5 -50 10 -50 16 0 12 -56 -5 -70
l-15 -12 -11 28 c-6 16 -15 39 -20 52 -12 30 -47 29 -59 -3 -6 -16 -14 -23
-25 -19 -8 3 -15 10 -15 15 0 17 -35 9 -48 -11 -7 -11 -23 -20 -37 -20 -14 0
-34 -6 -45 -12 l-21 -13 -8 13 c-5 8 -19 12 -32 10 l-24 -3 -3 -57 -3 -58 -19
0 -20 0 0 50 0 50 -29 0 c-17 0 -33 -5 -36 -10 -4 -7 -12 -7 -25 0 -28 15 -57
12 -64 -6 -9 -24 -7 -62 4 -69 16 -10 11 -52 -6 -59 -22 -9 -23 -7 -34 58 -8
53 -27 86 -48 86 -5 0 -17 -9 -27 -20 l-18 -20 -23 21 -23 21 -15 -15 c-11
-10 -16 -34 -16 -71 l0 -56 -20 0 -20 0 0 59 c0 68 -18 93 -51 73 -23 -15 -49
-16 -49 -2 0 15 -29 12 -46 -4 -9 -9 -14 -35 -14 -70 l0 -56 -19 0 c-18 0 -37
45 -33 80 4 40 -8 60 -38 60 l-30 0 0 -51 0 -50 -17 3 c-13 2 -19 16 -23 48
l-5 45 -20 -1 c-11 -1 -28 -5 -37 -9 -13 -5 -18 -3 -18 8 0 9 -10 23 -21 31
-17 11 -25 12 -40 3 -20 -12 -27 -67 -9 -67 17 0 11 -57 -6 -64 -9 -4 -19 -4
-22 -1 -9 9 -14 99 -15 255 -1 146 8 230 24 230 5 0 9 7 9 15 0 8 4 23 9 33 5
9 12 24 15 32 17 44 86 154 119 189 20 22 37 44 37 49 0 12 66 82 77 82 5 0
22 14 38 30 33 35 65 40 65 10 0 -24 6 -25 26 -6 16 16 19 67 5 82 -6 5 -12
77 -15 159 -3 83 -8 192 -11 244 -4 61 -3 97 4 104 6 6 11 26 11 44 0 18 4 33
9 33 5 0 14 12 20 28 15 35 72 72 113 72 18 0 40 5 48 11 9 6 39 7 75 3 33 -3
150 -10 260 -15z m2599 -375 c3 -9 6 -17 6 -18 0 -2 -28 -9 -62 -15 -35 -7
-79 -16 -99 -22 -20 -5 -55 -9 -78 -9 -40 0 -71 -12 -99 -38 -21 -19 -7 -42
25 -42 26 -1 63 -20 63 -33 0 -3 -28 -8 -62 -10 -35 -3 -88 -10 -118 -17 -30
-6 -70 -13 -87 -17 -18 -3 -33 -8 -33 -12 0 -4 -21 -12 -47 -19 -27 -8 -56
-18 -65 -23 -10 -5 -26 -9 -36 -9 -22 0 -72 -22 -72 -32 0 -5 -6 -8 -13 -8
-18 0 -67 -24 -67 -32 0 -5 -13 -8 -30 -8 -16 0 -30 -4 -30 -10 0 -5 -9 -10
-20 -10 -11 0 -20 -3 -20 -8 0 -4 -17 -15 -39 -24 -21 -9 -45 -23 -52 -30 -8
-8 -30 -25 -49 -38 -19 -13 -47 -37 -62 -52 -14 -15 -30 -28 -36 -28 -5 0 -22
-12 -38 -28 -43 -41 -200 -132 -228 -132 -9 0 -16 -3 -16 -8 0 -4 -15 -13 -32
-21 -18 -7 -47 -19 -65 -27 -79 -35 -110 -2 -53 58 17 17 30 37 30 44 0 8 4
14 9 14 5 0 11 8 14 18 8 23 40 76 50 80 4 2 7 9 7 16 0 18 24 66 33 66 4 0 7
12 7 26 0 17 6 28 20 31 11 3 20 9 20 14 0 5 9 9 20 9 11 0 20 5 20 10 0 6 9
10 21 10 11 0 47 18 79 40 32 22 61 40 63 40 3 0 35 18 71 40 36 22 70 40 76
40 5 0 10 3 10 8 0 8 49 32 67 32 7 0 13 3 13 8 0 9 49 32 70 32 9 0 35 9 58
20 22 11 50 20 60 20 10 0 22 3 26 7 10 11 79 33 103 33 12 0 25 5 28 10 3 6
30 10 60 10 30 0 57 5 60 10 3 6 35 10 70 10 35 0 67 5 70 10 3 6 21 10 38 11
18 0 41 4 52 9 11 5 79 9 151 9 l132 1 6 -16z m-1564 -508 c0 -30 -28 -42 -45
-19 -17 23 -8 43 21 43 19 0 24 -5 24 -24z m-779 -838 c3 -28 -3 -64 -12 -72
-5 -6 -9 -20 -9 -32 0 -13 -4 -26 -10 -29 -5 -3 -10 -17 -10 -30 0 -13 -4 -26
-9 -29 -10 -6 -19 -53 -28 -133 -2 -29 -8 -53 -13 -53 -8 0 -17 -56 -27 -170
-3 -36 -10 -68 -16 -71 -5 -4 -27 -4 -48 -2 l-39 6 0 -26 c0 -17 7 -28 20 -32
30 -10 24 -30 -17 -57 -72 -47 -91 -45 -158 16 -22 19 -46 36 -52 36 -7 0 -13
4 -13 8 0 5 -12 15 -27 23 -15 8 -56 42 -91 76 l-64 63 5 27 c4 16 9 44 12 63
4 19 10 44 15 55 5 11 11 49 14 85 3 36 9 94 13 130 l8 65 125 2 c69 2 134 7
145 12 11 5 49 14 85 21 77 13 126 27 160 46 31 17 40 17 41 2z m-1126 -94
l11 -39 27 -3 27 -3 0 26 c0 45 16 51 128 49 57 -1 106 -4 109 -8 4 -3 46 -6
93 -6 105 0 114 -7 107 -77 -16 -135 -28 -213 -42 -255 -8 -26 -15 -54 -15
-63 0 -9 -7 -23 -16 -32 -25 -25 -13 -55 31 -78 22 -11 47 -27 55 -35 8 -9 31
-27 50 -40 19 -14 44 -32 54 -42 11 -10 23 -18 28 -18 4 0 27 -18 49 -40 23
-22 48 -40 55 -40 8 0 14 -4 14 -10 0 -5 6 -10 13 -10 7 0 23 -9 35 -20 12
-11 26 -20 33 -20 6 0 24 -13 39 -30 15 -16 35 -30 44 -30 9 0 16 -4 16 -8 0
-5 12 -15 28 -23 15 -8 34 -21 42 -29 18 -18 69 -49 93 -57 9 -3 17 -9 17 -13
0 -4 12 -10 28 -13 15 -3 38 -15 51 -26 13 -12 41 -26 62 -31 21 -6 45 -17 53
-25 8 -8 22 -15 30 -15 9 0 16 -4 16 -10 0 -5 15 -10 33 -10 18 0 37 -4 43 -9
5 -5 34 -12 64 -15 30 -4 78 -9 107 -12 l52 -6 -5 -27 c-8 -39 16 -57 57 -42
18 6 47 11 66 11 18 0 42 5 52 12 15 9 28 9 58 -1 36 -12 63 -12 213 1 l35 3
3 -23 c6 -42 -47 -72 -126 -72 -32 0 -81 -9 -110 -19 l-54 -20 -206 -2 c-155
-2 -219 1 -254 11 -27 8 -48 18 -48 22 0 4 -13 8 -30 8 -16 0 -30 5 -30 10 0
6 -7 10 -15 10 -8 0 -23 4 -33 9 -9 5 -36 18 -58 30 -23 11 -53 21 -68 21 -14
0 -26 5 -26 10 0 6 -11 10 -24 10 -14 0 -28 5 -31 10 -3 6 -24 10 -46 10 -21
0 -39 5 -39 10 0 6 -13 10 -30 10 -16 0 -30 5 -30 10 0 6 -13 10 -29 10 -17 0
-33 5 -36 10 -3 6 -14 10 -24 10 -10 0 -45 14 -79 30 -34 17 -66 30 -70 30 -5
0 -27 9 -50 20 -22 11 -48 20 -57 20 -8 0 -15 5 -15 10 0 6 -7 10 -15 10 -14
0 -51 17 -190 89 -33 17 -68 31 -77 31 -24 0 -23 17 2 32 24 15 26 34 5 54
-21 21 -54 1 -62 -37 -8 -40 -40 -38 -87 4 -28 26 -37 42 -38 71 -1 20 -5 39
-10 42 -4 3 -8 19 -8 35 0 17 -5 40 -11 52 -9 16 -9 22 0 25 17 6 13 37 -9 65
-13 17 -20 40 -20 71 0 25 -4 46 -9 46 -5 0 -12 24 -15 53 -3 28 -10 81 -16
117 -19 110 -24 242 -8 251 21 14 31 5 43 -37z m-75 -374 c0 -26 5 -43 31
-105 4 -11 10 -49 12 -85 3 -36 10 -85 17 -110 6 -25 14 -64 17 -87 3 -24 9
-43 14 -43 5 0 9 -6 9 -13 0 -28 38 -49 140 -77 72 -20 115 -34 120 -40 3 -3
25 -12 50 -20 25 -8 52 -22 61 -32 9 -10 24 -18 33 -18 9 0 16 -4 16 -10 0 -5
7 -10 15 -10 8 0 23 -4 33 -9 9 -4 32 -13 50 -20 61 -21 97 -36 102 -42 3 -3
17 -9 32 -12 15 -4 33 -14 42 -22 8 -8 26 -15 40 -15 14 0 28 -4 31 -10 3 -5
19 -10 36 -10 16 0 37 -4 47 -9 39 -20 69 -30 105 -35 85 -13 107 -19 107 -27
0 -5 9 -9 20 -9 11 0 20 -4 20 -10 0 -5 9 -10 20 -10 11 0 20 -4 20 -10 0 -5
9 -10 20 -10 11 0 28 -4 38 -9 9 -5 31 -15 47 -22 17 -8 32 -16 35 -19 10 -10
77 -30 103 -30 14 0 29 -4 32 -10 9 -14 261 -13 301 2 l33 12 43 -21 c24 -11
68 -30 98 -43 81 -33 149 -66 205 -100 28 -17 57 -34 65 -37 8 -4 24 -15 34
-25 11 -10 26 -18 33 -18 7 0 13 -4 13 -9 0 -5 8 -11 18 -14 23 -8 76 -40 80
-49 2 -5 11 -8 21 -8 9 0 23 -9 31 -20 8 -11 18 -20 23 -20 4 0 29 -20 55 -45
120 -115 176 -165 183 -165 4 0 60 -52 123 -115 63 -63 122 -115 130 -115 8 0
16 -3 18 -7 2 -5 24 -19 51 -32 26 -13 47 -28 47 -33 0 -4 8 -8 18 -8 10 0 24
-9 32 -20 8 -11 22 -20 32 -20 10 0 18 -4 18 -10 0 -5 6 -10 13 -10 7 0 22 -8
33 -19 35 -32 61 -41 121 -41 33 0 64 -5 70 -11 14 -14 196 -6 333 14 145 22
295 37 357 37 28 0 55 4 58 10 3 5 28 10 54 10 26 0 52 5 58 11 6 6 26 9 44 7
26 -2 35 -8 37 -26 4 -25 -18 -52 -42 -52 -9 0 -16 -4 -16 -10 0 -5 -7 -10
-15 -10 -17 0 -105 -85 -105 -101 0 -15 -92 -99 -107 -99 -7 0 -13 -4 -13 -10
0 -5 -6 -10 -13 -10 -7 0 -23 -9 -35 -20 -12 -11 -25 -20 -30 -20 -5 0 -16 -8
-26 -19 -39 -43 -170 -83 -231 -70 -16 4 -47 7 -67 8 -21 0 -38 5 -38 9 0 13
-208 14 -215 2 -3 -5 -13 -10 -21 -10 -8 0 -34 -9 -58 -21 -30 -14 -59 -19
-92 -17 l-49 3 -24 48 c-16 30 -31 47 -43 47 -10 0 -18 5 -18 10 0 6 -12 10
-27 10 -32 0 -93 21 -93 32 0 4 -18 8 -40 8 -22 0 -40 5 -40 10 0 6 -9 10 -20
10 -11 0 -20 5 -20 10 0 6 -7 10 -15 10 -14 0 -53 18 -65 30 -3 3 -17 11 -32
19 -16 8 -28 18 -28 23 0 4 -8 8 -18 8 -10 0 -24 9 -32 20 -8 11 -19 20 -25
20 -6 0 -20 8 -31 17 -28 25 -61 43 -79 43 -8 0 -15 3 -15 8 0 8 -49 32 -67
32 -7 0 -13 5 -13 10 0 6 -6 10 -14 10 -8 0 -31 9 -53 20 -84 42 -128 60 -150
60 -13 0 -23 5 -23 10 0 6 -11 10 -25 10 -14 0 -44 9 -68 19 -42 19 -72 27
-134 38 -18 3 -33 9 -33 13 0 10 -57 20 -150 27 -41 2 -79 9 -84 14 -6 5 -28
9 -51 9 -41 0 -95 18 -95 33 0 4 -6 7 -13 7 -7 0 -25 6 -40 13 -28 12 -34 34
-18 65 5 9 15 32 21 50 7 17 16 32 21 32 5 0 9 13 9 29 l0 29 -37 6 c-21 4
-81 9 -133 12 -52 3 -99 9 -105 14 -6 5 -46 11 -90 14 -44 3 -107 11 -140 16
-106 19 -188 32 -255 41 -36 4 -90 13 -120 18 -30 6 -71 13 -90 16 -19 4 -44
10 -55 15 -11 5 -38 11 -60 14 -22 3 -60 11 -85 17 -25 6 -65 13 -90 16 -25 3
-49 9 -54 14 -6 5 -20 9 -32 9 -13 0 -26 5 -29 10 -3 5 -19 10 -35 10 -16 0
-32 5 -35 10 -3 6 -18 10 -32 10 -14 0 -53 9 -87 19 -33 11 -94 25 -134 32
-40 7 -75 16 -78 21 -3 4 -14 8 -25 8 -10 0 -19 5 -19 10 0 6 -9 10 -20 10
-11 0 -20 5 -20 10 0 6 -9 10 -20 10 -11 0 -20 5 -20 10 0 6 -9 10 -20 10 -11
0 -20 5 -20 10 0 6 -7 10 -16 10 -38 0 -164 158 -164 207 0 10 -4 23 -8 28
-18 21 -34 94 -29 131 16 104 19 114 37 114 27 0 43 26 37 62 -5 39 29 114 74
162 16 17 29 34 29 39 0 11 220 229 260 257 19 13 37 27 40 30 18 20 66 50 81
50 14 0 19 -7 19 -30z m-1215 -111 c33 -4 85 -14 115 -20 69 -16 682 -22 724
-8 23 7 33 6 45 -6 l15 -15 -24 -17 c-56 -42 -148 -148 -168 -195 -9 -21 -20
-38 -24 -38 -5 0 -8 -7 -8 -15 0 -51 -70 -96 -114 -73 -15 8 -21 8 -24 -1 -5
-14 -88 -15 -97 -1 -3 6 -51 10 -108 10 l-102 0 -26 -23 c-14 -12 -29 -35 -32
-52 -3 -16 -13 -66 -21 -110 -9 -44 -16 -95 -16 -113 0 -18 -4 -40 -9 -50 -20
-37 -44 -279 -36 -364 4 -45 10 -87 15 -93 10 -14 21 -101 14 -120 -7 -17 -35
-20 -62 -6 -9 5 -30 15 -47 22 -43 20 -75 50 -75 70 0 10 -4 21 -10 24 -5 3
-10 23 -10 43 0 36 -19 105 -33 118 -4 4 -7 18 -7 30 0 13 -4 25 -9 28 -4 3
-14 27 -21 53 -6 27 -17 58 -22 70 -17 35 -16 222 1 232 l14 9 -17 57 c-17 52
-48 95 -68 95 -5 0 -24 15 -42 33 -38 38 -47 75 -50 202 -2 84 8 130 35 155 8
8 18 23 22 33 5 13 18 17 52 17 25 0 45 5 45 10 0 6 10 10 23 10 12 0 29 5 37
10 8 6 26 7 40 4 14 -4 52 -10 85 -15z m2295 -189 c0 -5 11 -10 25 -10 30 0
58 -15 98 -52 17 -16 34 -28 40 -28 5 0 17 -8 26 -18 9 -9 28 -23 44 -31 15
-8 27 -18 27 -23 0 -4 6 -8 14 -8 18 0 176 -151 176 -168 0 -7 -11 -12 -25
-12 -14 0 -25 5 -25 10 0 6 -7 10 -16 10 -8 0 -60 23 -115 50 -55 28 -106 50
-114 50 -8 0 -15 4 -15 8 0 5 -12 15 -27 23 -16 8 -35 22 -44 31 -9 10 -21 18
-26 18 -5 0 -18 8 -29 18 -10 9 -31 23 -46 31 -16 8 -28 18 -28 23 0 4 -7 8
-15 8 -25 0 -17 27 18 54 33 27 57 33 57 16z"/>
<path d="M2974 4490 c-98 -11 -131 -33 -101 -70 26 -31 58 -40 148 -40 l92 0
23 28 c13 15 24 36 24 48 0 45 -30 50 -186 34z"/>
<path d="M3172 3688 c-34 -34 4 -70 44 -43 l24 15 -12 20 c-14 23 -38 26 -56
8z"/>
<path d="M2917 3546 c-7 -19 28 -50 48 -43 8 4 15 18 15 32 l0 25 -29 0 c-16
0 -31 -6 -34 -14z"/>
<path d="M1792 3528 c-21 -21 -7 -68 20 -68 4 0 15 12 25 26 l17 26 -19 14
c-23 17 -28 17 -43 2z"/>
<path d="M2782 3493 c2 -22 9 -29 29 -31 14 -2 31 4 39 12 18 22 -4 46 -42 46
l-29 0 3 -27z"/>
<path d="M1927 3503 c-4 -3 -7 -19 -7 -35 l0 -29 23 3 c14 2 23 11 25 27 4 29
-24 52 -41 34z"/>
<path d="M2033 3485 c-17 -18 -16 -30 1 -44 22 -18 46 -2 46 30 0 32 -25 40
-47 14z"/>
<path d="M2147 3493 c-13 -12 -7 -51 8 -57 37 -14 59 21 31 50 -16 15 -29 18
-39 7z"/>
<path d="M2533 3485 c-19 -21 -16 -42 7 -48 24 -6 53 20 46 40 -3 8 -6 17 -6
19 0 10 -36 2 -47 -11z"/>
<path d="M2660 3484 c0 -18 23 -44 40 -44 19 0 42 29 36 45 -8 21 -76 20 -76
-1z"/>
<path d="M2393 3483 c-34 -13 -1 -63 41 -63 l26 0 0 29 c0 35 -29 50 -67 34z"/>
<path d="M2272 3468 c-23 -23 -14 -48 17 -48 30 0 50 28 36 50 -8 14 -38 13
-53 -2z"/>
<path d="M2721 3148 l-21 -21 13 -16 c22 -29 32 -31 49 -8 22 28 23 53 2 61
-22 8 -21 9 -43 -16z"/>
<path d="M2720 3040 l-25 -19 16 -28 c12 -20 14 -35 8 -52 -21 -55 25 -85 52
-34 11 20 11 27 2 30 -19 7 -16 31 7 60 l20 26 -16 19 c-21 23 -33 22 -64 -2z"/>
<path d="M2713 2845 c-36 -40 16 -88 54 -50 l15 16 -16 24 c-18 28 -35 31 -53
10z"/>
<path d="M2726 2738 c-18 -27 -12 -58 10 -58 8 0 20 11 26 25 l12 26 -16 16
-16 15 -16 -24z"/>
<path d="M1816 3064 c-3 -8 -3 -27 0 -40 5 -20 12 -24 33 -22 l26 3 3 38 3 37
-29 0 c-18 0 -32 -6 -36 -16z"/>
<path d="M1827 2953 c-20 -19 5 -73 33 -73 20 0 40 28 40 54 l0 26 -33 0 c-19
0 -37 -3 -40 -7z"/>
<path d="M1873 2863 c-19 -7 -16 -60 3 -67 8 -3 26 -3 40 0 18 5 24 13 24 34
0 34 -29 49 -67 33z"/>
<path d="M1892 2744 c-20 -22 -11 -58 16 -62 23 -3 52 18 52 38 0 16 -26 40
-42 40 -7 -1 -19 -7 -26 -16z"/>
<path d="M1924 2625 c-10 -25 4 -45 29 -45 34 0 54 25 37 45 -7 8 -23 15 -37
15 -13 0 -26 -7 -29 -15z"/>
<path d="M1946 2514 c-25 -25 -17 -46 23 -59 24 -7 41 6 41 32 0 13 -27 43
-40 43 -5 0 -16 -7 -24 -16z"/>
<path d="M6230 4850 c-8 -5 -34 -10 -57 -10 -23 0 -45 -4 -48 -10 -3 -5 -17
-10 -31 -10 -13 0 -32 -4 -42 -9 -9 -5 -35 -14 -57 -21 -42 -14 -115 -58 -115
-70 0 -4 -18 -26 -40 -49 -22 -23 -40 -48 -40 -56 0 -8 -4 -15 -10 -15 -5 0
-10 -7 -10 -16 0 -9 -8 -24 -18 -33 -10 -9 -24 -36 -32 -61 -8 -25 -22 -54
-32 -64 -13 -14 -18 -36 -18 -78 l0 -59 -25 -25 c-14 -14 -25 -28 -25 -32 0
-4 -16 -25 -35 -45 -35 -37 -43 -61 -25 -72 12 -8 13 -62 1 -69 -4 -3 -14 -55
-21 -116 -8 -60 -17 -110 -22 -110 -20 0 -5 -40 27 -68 27 -25 43 -32 77 -32
24 0 72 -5 108 -10 36 -5 131 -10 212 -10 110 -1 155 -5 178 -16 16 -9 30 -20
30 -25 0 -6 11 -21 25 -35 14 -14 25 -29 25 -34 0 -5 11 -20 25 -34 24 -24 31
-46 19 -58 -6 -7 -111 18 -136 32 -10 6 -27 10 -37 10 -11 0 -23 5 -26 10 -3
6 -26 10 -51 10 -24 0 -44 4 -44 9 0 5 -28 11 -62 14 -35 3 -83 10 -108 16
-43 12 -110 26 -177 38 -18 3 -33 9 -33 14 0 5 -14 9 -30 9 -17 0 -38 4 -48 9
-9 5 -42 20 -72 34 -31 14 -73 37 -94 51 -21 14 -47 26 -57 26 -9 0 -19 3 -21
8 -4 10 -87 52 -104 52 -8 0 -14 4 -14 9 0 5 -15 14 -32 21 -18 6 -41 16 -50
21 -10 5 -27 9 -38 9 -11 0 -20 5 -20 10 0 6 -6 10 -13 10 -7 0 -32 9 -55 20
-22 11 -48 20 -56 20 -8 0 -16 3 -18 8 -4 10 -87 52 -104 52 -8 0 -14 4 -14 8
0 4 -20 14 -45 21 -36 11 -48 11 -60 1 -16 -14 -21 -70 -6 -70 5 0 13 -9 16
-20 4 -12 22 -36 41 -55 19 -19 34 -38 34 -42 0 -15 47 -63 61 -63 8 0 21 -9
29 -20 8 -11 23 -20 33 -20 12 0 17 -6 15 -17 -3 -10 -11 -16 -19 -13 -8 2
-34 4 -58 5 -32 0 -47 -5 -55 -18 l-11 -18 33 -27 c18 -15 32 -31 32 -37 0
-13 65 -55 85 -55 8 0 15 -4 15 -8 0 -10 82 -32 120 -32 45 0 148 -45 195 -86
15 -13 31 -24 35 -24 4 0 25 -16 46 -35 21 -19 44 -35 51 -35 7 0 13 -4 13
-10 0 -5 6 -10 13 -10 6 0 23 -9 37 -20 14 -11 34 -20 45 -20 11 0 27 -9 35
-20 8 -11 20 -20 28 -20 7 0 22 -9 34 -20 12 -11 28 -20 35 -20 7 0 13 -4 13
-10 0 -5 9 -10 20 -10 11 0 20 -3 20 -7 0 -8 48 -33 62 -33 5 0 18 -9 29 -19
12 -11 41 -25 65 -32 24 -8 44 -17 44 -21 0 -4 9 -8 20 -8 11 0 20 -4 20 -10
0 -5 11 -10 25 -10 13 0 34 -4 47 -9 13 -5 43 -15 68 -22 25 -7 49 -16 55 -21
5 -4 20 -8 34 -8 31 0 139 -20 166 -30 19 -8 40 -13 108 -27 26 -5 97 -66 97
-83 0 -15 42 -87 67 -116 14 -16 36 -49 51 -73 14 -24 60 -79 101 -123 42 -43
79 -87 82 -96 8 -22 -7 -52 -26 -52 -8 0 -15 -4 -15 -10 0 -5 -13 -10 -30 -10
-16 0 -30 -4 -30 -10 0 -5 -9 -10 -20 -10 -11 0 -20 -4 -20 -10 0 -5 -9 -10
-20 -10 -11 0 -20 -3 -20 -7 0 -9 -49 -33 -67 -33 -7 0 -13 -4 -13 -10 0 -5
-6 -10 -14 -10 -7 0 -27 -13 -44 -30 -18 -16 -36 -30 -41 -30 -14 0 -89 -77
-96 -99 -3 -12 -10 -21 -14 -21 -4 0 -19 -21 -32 -47 -13 -27 -27 -49 -31 -51
-5 -2 -8 -14 -8 -26 0 -13 -3 -26 -7 -30 -10 -10 -33 -78 -33 -99 0 -10 -7
-26 -16 -34 -11 -12 -14 -26 -9 -52 4 -20 11 -38 15 -41 4 -3 11 -37 14 -75 8
-110 17 -169 27 -180 5 -5 9 -28 9 -51 0 -24 5 -46 10 -49 6 -3 10 -19 10 -36
0 -16 5 -29 10 -29 6 0 10 -6 10 -13 0 -18 79 -178 97 -195 7 -7 13 -17 13
-22 0 -5 6 -15 13 -22 6 -7 23 -33 36 -58 14 -25 38 -58 53 -75 15 -16 28 -34
28 -38 0 -5 18 -26 40 -47 22 -21 40 -44 40 -52 0 -7 12 -22 26 -33 62 -46 54
-85 -17 -85 -27 0 -49 -4 -49 -10 0 -5 -13 -10 -29 -10 -17 0 -33 -4 -36 -10
-3 -5 -19 -10 -36 -10 -16 0 -38 -4 -49 -10 -11 -5 -29 -14 -40 -20 -11 -5
-29 -10 -39 -10 -11 0 -23 -4 -26 -10 -3 -5 -17 -10 -30 -10 -13 0 -27 -4 -30
-10 -3 -5 -13 -10 -21 -10 -8 0 -34 -9 -56 -20 -23 -11 -48 -20 -55 -20 -7 0
-21 -4 -31 -9 -24 -13 -113 -52 -137 -61 -50 -19 -121 -56 -132 -70 -7 -8 -13
-31 -13 -51 0 -28 6 -40 25 -53 13 -9 31 -16 40 -16 8 0 15 -4 15 -10 0 -6 28
-10 64 -10 36 0 67 -4 70 -9 7 -11 55 -20 156 -29 41 -4 90 -15 109 -25 35
-18 121 -24 121 -8 0 5 19 12 43 15 23 3 74 10 112 16 39 6 174 13 301 14 144
2 239 8 252 15 11 6 34 11 51 11 16 0 33 5 36 10 3 6 19 10 35 10 16 0 32 4
35 10 3 5 15 10 25 10 24 0 110 41 110 52 0 4 7 8 16 8 27 0 45 28 42 62 l-3
33 -25 3 c-25 4 -90 63 -90 83 0 13 -40 72 -52 77 -4 2 -8 13 -8 25 0 12 -9
33 -20 47 -11 14 -20 31 -20 38 0 6 -3 12 -8 12 -4 0 -13 15 -20 33 -28 68
-35 83 -43 99 -5 10 -9 29 -9 43 0 14 -4 25 -9 25 -5 0 -12 26 -15 58 -7 76
-7 74 0 175 l7 87 -23 63 c-12 34 -26 66 -31 72 -21 22 -5 26 69 20 144 -13
402 -17 402 -5 0 5 15 10 34 10 19 0 38 5 41 10 3 5 21 10 38 10 32 0 101 20
113 33 4 4 14 7 23 7 9 0 48 15 86 34 39 18 88 41 110 50 56 24 169 79 175 86
11 11 51 30 65 30 8 0 15 4 15 8 0 5 12 15 28 23 15 8 36 22 46 31 11 10 26
18 33 18 7 0 13 5 13 10 0 6 6 10 14 10 8 0 38 23 66 50 28 28 55 50 60 50 8
0 102 86 155 142 11 12 33 33 48 47 80 72 126 121 143 152 10 19 27 41 37 50
9 9 17 24 17 33 0 9 5 16 10 16 6 0 10 8 10 18 0 10 4 22 9 28 5 5 19 38 31
74 12 36 26 69 31 75 5 5 9 21 9 36 0 15 5 31 10 34 6 3 10 23 10 44 0 54 50
151 77 151 5 0 27 16 48 35 21 20 51 43 67 53 15 9 28 20 28 24 0 4 6 8 13 8
6 1 36 23 66 50 30 28 58 50 63 50 5 0 23 13 41 30 18 16 38 30 45 30 6 0 12
5 12 10 0 6 6 10 13 10 6 0 28 14 47 30 19 16 41 30 48 30 6 0 12 4 12 9 0 5
8 12 18 15 10 3 35 22 55 41 20 19 41 35 45 35 5 0 17 8 28 18 10 10 35 28 54
42 19 13 37 27 40 30 3 3 21 17 40 30 19 14 57 46 83 72 30 30 58 48 72 48 13
0 27 5 30 10 3 6 39 10 79 10 39 0 76 4 81 9 12 11 166 20 465 26 130 4 226
10 228 15 2 6 21 10 42 10 21 0 42 5 45 10 3 6 17 10 30 10 32 0 131 55 171
96 l33 32 -9 32 c-11 37 -36 59 -67 60 -13 0 -23 5 -23 10 0 6 -32 10 -76 10
-41 0 -84 5 -95 10 -10 6 -54 12 -96 14 -43 2 -85 7 -93 9 -15 6 -68 13 -170
23 -30 3 -59 10 -65 15 -5 5 -24 9 -42 9 -18 0 -41 4 -51 9 -9 5 -37 15 -62
22 -53 15 -88 37 -148 95 -46 44 -121 77 -144 63 -7 -5 -28 -9 -45 -9 -18 0
-33 -4 -33 -10 0 -5 -7 -10 -15 -10 -32 0 -105 -74 -105 -107 0 -46 -37 -93
-74 -93 -14 0 -26 -4 -26 -10 0 -5 -6 -10 -13 -10 -18 0 -67 -24 -67 -32 0 -5
-6 -8 -14 -8 -17 0 -100 -42 -104 -52 -2 -5 -10 -8 -17 -8 -14 0 -124 -56
-139 -71 -6 -5 -18 -9 -28 -9 -10 0 -18 -3 -18 -7 0 -9 -49 -33 -67 -33 -7 0
-13 -4 -13 -10 0 -5 -6 -10 -13 -10 -7 0 -23 -9 -35 -20 -12 -11 -28 -20 -37
-20 -8 0 -15 -4 -15 -10 0 -5 -9 -10 -20 -10 -11 0 -20 -3 -20 -7 0 -9 -49
-33 -67 -33 -7 0 -13 -4 -13 -10 0 -5 -5 -10 -10 -10 -6 0 -39 -18 -72 -40
-35 -22 -74 -40 -90 -40 -15 0 -28 -4 -28 -10 0 -5 -9 -10 -20 -10 -11 0 -20
-4 -20 -10 0 -5 -7 -10 -15 -10 -14 0 -54 -18 -65 -30 -10 -11 -96 -49 -137
-61 -24 -7 -43 -15 -43 -19 0 -9 -136 -30 -195 -30 -25 0 -45 -4 -45 -10 0 -6
-26 -10 -59 -10 -33 0 -63 5 -66 10 -3 6 -15 10 -26 10 -26 0 -57 18 -99 60
-19 20 -51 47 -70 60 -19 13 -61 50 -95 82 -33 32 -64 58 -68 58 -12 0 -30 20
-46 53 -10 18 -22 27 -38 27 -16 0 -48 23 -96 70 -39 39 -75 70 -78 70 -4 0
-29 22 -56 49 -27 27 -71 59 -96 71 -26 12 -47 25 -47 29 0 10 -163 91 -183
91 -9 0 -19 5 -22 10 -3 6 -17 10 -31 10 -13 0 -24 3 -24 8 0 7 -70 32 -93 32
-18 0 -67 23 -67 33 0 4 -6 7 -14 7 -7 0 -34 19 -60 43 l-46 43 0 90 c0 83 14
144 33 144 12 0 8 177 -5 220 -7 22 -16 40 -20 40 -5 0 -8 7 -8 16 0 9 -15 31
-32 49 -18 18 -45 45 -60 61 -39 42 -48 48 -98 63 -25 7 -53 17 -62 22 -10 5
-25 9 -33 9 -8 0 -25 5 -38 12 -50 25 -58 28 -95 28 -21 0 -42 3 -45 7 -11 10
-171 13 -187 3z m138 -61 c53 -6 101 -15 107 -20 5 -5 19 -9 31 -9 13 0 26 -4
29 -10 3 -5 15 -10 26 -10 10 0 28 -4 39 -10 11 -5 29 -14 40 -20 11 -5 29
-10 40 -10 11 0 20 -4 20 -10 0 -5 7 -10 15 -10 29 0 105 -91 105 -125 0 -8 5
-15 10 -15 6 0 10 -9 10 -19 0 -11 5 -23 10 -26 13 -8 13 -89 1 -129 -5 -17
-15 -51 -21 -76 -7 -25 -16 -53 -21 -62 -5 -10 -9 -50 -9 -90 l0 -73 63 -60
c65 -63 97 -85 122 -85 8 0 15 -4 15 -10 0 -5 14 -10 30 -10 17 0 30 -4 30
-10 0 -5 14 -10 30 -10 17 0 30 -4 30 -10 0 -5 14 -10 30 -10 17 0 30 -4 30
-10 0 -5 6 -10 14 -10 8 0 40 -13 71 -30 31 -16 62 -30 69 -30 7 0 22 -9 34
-20 12 -11 26 -20 32 -20 17 0 40 -26 40 -44 0 -9 -8 -16 -20 -16 -16 0 -20
-7 -20 -30 l0 -30 30 0 30 0 0 25 c0 35 26 43 50 15 24 -27 23 -23 8 -55 -8
-18 -19 -25 -40 -25 -16 0 -36 -6 -44 -14 -16 -17 -19 -66 -4 -66 6 0 10 -9
10 -20 0 -11 5 -20 10 -20 6 0 10 -4 10 -10 0 -5 -10 -10 -22 -10 -16 1 -31
14 -50 46 -32 52 -52 63 -77 40 -12 -11 -27 -14 -49 -10 -51 10 -80 -32 -44
-65 22 -21 62 -98 62 -121 0 -50 -36 -19 -73 63 -6 15 -15 27 -19 27 -5 0 -8
7 -8 16 0 20 -24 44 -44 44 -16 0 -27 -31 -23 -65 4 -35 -28 -28 -43 10 l-14
35 -28 0 -28 0 0 -30 c0 -23 -4 -30 -20 -30 -11 0 -20 5 -20 10 0 17 -18 11
-40 -12 -16 -17 -23 -19 -32 -10 -7 7 -22 12 -35 12 -18 0 -25 -7 -29 -30 -7
-30 -18 -38 -29 -20 -3 6 -17 10 -31 10 -13 0 -24 -4 -24 -10 0 -5 -18 -10
-40 -10 -22 0 -40 -4 -40 -10 0 -5 -16 -10 -36 -10 -19 0 -42 -7 -50 -15 -10
-9 -24 -13 -39 -9 -25 6 -55 -14 -55 -36 0 -15 -22 -8 -30 11 -4 8 -12 24 -18
36 -7 13 -12 30 -12 38 0 8 -4 15 -10 15 -5 0 -10 9 -10 20 0 11 -4 20 -10 20
-5 0 -10 6 -10 14 0 17 -42 100 -52 104 -5 2 -8 12 -8 23 0 10 -4 19 -8 19 -5
0 -17 18 -27 41 -11 23 -32 55 -47 71 -31 34 -30 31 -22 52 4 11 19 16 45 16
21 0 39 4 39 9 0 5 9 11 20 14 26 7 26 29 -1 45 -15 9 -29 10 -52 3 -100 -30
-118 -32 -312 -27 -261 6 -332 13 -339 33 -8 19 3 81 15 89 5 3 9 28 9 55 0
30 8 65 20 89 21 42 27 106 10 112 -6 2 -3 12 7 23 58 66 83 106 83 135 0 17
6 38 14 46 10 9 12 26 9 54 -4 26 -2 40 6 40 6 0 11 9 11 20 0 11 5 20 10 20
6 0 10 9 10 20 0 11 5 20 10 20 6 0 10 9 10 20 0 11 5 20 10 20 6 0 10 6 10
14 0 19 107 126 126 126 8 0 22 4 32 9 53 27 132 51 168 51 16 0 36 5 44 10
19 12 22 12 138 -1z m3772 -819 c0 -5 7 -10 16 -10 8 0 32 -17 53 -37 20 -21
48 -44 61 -52 50 -30 100 -51 117 -51 10 0 38 -8 63 -16 25 -9 74 -20 110 -25
36 -5 94 -13 130 -19 36 -6 112 -15 170 -20 184 -16 225 -22 235 -31 5 -5 17
-9 27 -9 44 0 2 -64 -51 -77 -14 -3 -28 -9 -31 -12 -10 -12 -76 -30 -130 -37
-30 -3 -131 -10 -225 -15 -384 -20 -486 -29 -645 -58 -73 -13 -93 -25 -174
-105 -43 -42 -82 -76 -87 -76 -6 0 -21 -11 -35 -25 -14 -14 -29 -25 -33 -25
-5 0 -26 -16 -47 -35 -22 -19 -44 -35 -49 -35 -6 0 -17 -9 -25 -20 -8 -11 -19
-20 -26 -20 -6 0 -19 -10 -30 -21 -10 -12 -39 -35 -64 -52 -25 -17 -52 -39
-61 -49 -9 -10 -24 -18 -33 -18 -9 0 -16 -4 -16 -8 0 -4 -12 -15 -27 -24 -16
-9 -40 -28 -55 -42 -15 -14 -31 -26 -36 -26 -5 0 -28 -18 -51 -40 -22 -22 -45
-40 -49 -40 -5 0 -17 -8 -28 -18 -42 -39 -87 -34 -64 7 17 32 -2 351 -21 351
-5 0 -9 21 -9 46 0 25 -5 54 -10 65 -8 14 -7 23 2 32 19 17 69 47 91 54 9 3
17 9 17 14 0 5 6 9 13 9 18 0 67 24 67 33 0 4 9 7 20 7 11 0 20 4 20 8 0 10
123 72 144 72 9 0 16 3 16 8 0 4 30 23 68 42 37 19 69 37 72 40 10 12 213 110
226 110 8 0 14 5 14 10 0 6 9 10 20 10 11 0 20 5 20 10 0 6 5 10 12 10 7 0 34
10 60 23 46 22 65 47 84 117 8 31 33 60 51 60 7 0 13 5 13 10 0 6 23 10 50 10
28 0 50 -4 50 -10z m-5260 -73 c25 -10 61 -26 80 -34 19 -8 48 -21 64 -29 16
-8 35 -14 43 -14 7 0 13 -4 13 -10 0 -5 7 -10 15 -10 8 0 23 -4 33 -10 9 -5
64 -32 122 -61 58 -28 107 -54 110 -58 9 -14 93 -51 116 -51 13 0 26 -4 29
-10 3 -5 17 -10 31 -10 13 0 24 -4 24 -9 0 -5 15 -11 33 -14 17 -4 57 -11 87
-17 30 -6 80 -15 110 -20 30 -5 75 -14 100 -20 25 -6 68 -14 95 -17 28 -3 52
-9 55 -12 10 -12 77 -31 108 -31 18 0 32 -4 32 -10 0 -5 7 -10 15 -10 36 0
145 -77 145 -102 0 -10 5 -18 10 -18 6 0 10 -9 10 -20 0 -11 5 -20 10 -20 6 0
10 -11 10 -25 0 -14 4 -33 9 -43 34 -67 42 -177 15 -197 -14 -9 -25 -8 -55 7
-21 10 -59 18 -84 18 -25 0 -45 4 -45 9 0 4 -28 11 -62 15 -35 3 -85 12 -113
20 -27 8 -71 20 -97 28 -27 7 -48 15 -48 18 0 4 -22 13 -50 20 -27 7 -50 17
-50 22 0 4 -9 8 -19 8 -11 0 -21 3 -23 8 -1 4 -42 27 -90 52 -49 24 -88 48
-88 52 0 5 -9 8 -20 8 -11 0 -20 5 -20 10 0 6 -9 10 -20 10 -11 0 -20 5 -20
10 0 6 -6 10 -13 10 -8 0 -22 9 -32 20 -10 11 -23 20 -29 20 -7 0 -27 13 -46
30 -19 16 -41 29 -47 30 -7 0 -13 4 -13 8 0 4 -14 16 -30 26 -17 9 -41 27 -53
39 -12 12 -34 28 -49 36 -16 8 -28 18 -28 23 0 4 -9 8 -20 8 -11 0 -20 5 -20
10 0 6 -27 10 -60 10 l-60 0 0 20 c0 11 4 20 9 20 18 0 20 31 4 65 -11 23 -31
41 -61 55 -24 12 -55 34 -69 51 -14 16 -29 29 -35 29 -16 0 -68 57 -68 74 0
19 29 14 100 -17z m2660 -397 c0 -11 -4 -20 -10 -20 -5 0 -10 2 -10 4 0 2 -3
11 -6 20 -4 11 -1 16 10 16 9 0 16 -8 16 -20z m284 -104 c50 -38 136 -121 136
-132 0 -5 12 -17 28 -26 58 -37 67 -44 83 -60 9 -10 22 -18 28 -18 6 0 27 -14
46 -32 l35 -31 0 -38 c0 -21 -4 -41 -10 -44 -5 -3 -10 -22 -10 -41 0 -19 -4
-34 -10 -34 -5 0 -10 -9 -10 -20 0 -11 -4 -28 -9 -38 -13 -26 -31 -86 -31
-105 0 -9 -4 -17 -10 -17 -5 0 -10 -10 -10 -23 0 -13 -9 -33 -20 -45 -11 -12
-20 -28 -20 -37 0 -8 -4 -15 -9 -15 -4 0 -23 -30 -42 -67 -19 -38 -37 -69 -41
-71 -5 -2 -8 -11 -8 -19 0 -20 -38 -71 -96 -129 -24 -24 -44 -47 -44 -52 0 -5
-20 -30 -45 -56 -25 -27 -45 -52 -45 -57 0 -6 -25 -34 -55 -64 -31 -31 -55
-64 -55 -75 0 -12 -9 -40 -20 -62 -11 -23 -20 -52 -20 -65 0 -13 -4 -23 -10
-23 -5 0 -10 -9 -10 -20 0 -11 -4 -20 -10 -20 -5 0 -10 -9 -10 -19 0 -11 -4
-23 -10 -26 -5 -3 -10 -14 -10 -25 0 -47 -76 -151 -130 -177 -42 -20 -233 -34
-322 -24 -20 2 -4 31 38 67 83 70 174 164 174 181 0 4 18 27 41 50 28 29 39
50 37 65 l-3 23 -47 -2 c-29 -2 -48 1 -48 8 0 6 35 45 78 87 43 42 83 88 89
102 6 14 19 43 28 65 9 22 23 53 31 69 8 16 14 35 14 42 0 7 4 14 8 16 13 5
112 209 112 230 0 10 9 38 20 60 11 23 20 48 20 55 0 7 3 13 8 13 8 0 32 49
32 67 0 7 5 13 10 13 6 0 10 9 10 20 0 11 5 20 10 20 6 0 10 9 10 20 0 11 5
20 10 20 6 0 10 9 10 20 0 11 5 20 10 20 6 0 10 14 10 30 l0 30 -24 0 c-12 0
-37 14 -54 30 -18 17 -39 30 -47 30 -8 0 -15 4 -15 9 0 5 -13 14 -30 21 -16 7
-30 16 -30 21 0 5 -11 9 -24 9 -14 0 -40 16 -65 40 -22 22 -46 40 -51 40 -25
0 -100 59 -100 78 0 14 26 22 68 22 19 0 49 4 66 9 131 40 178 56 182 63 3 4
21 8 41 8 26 0 36 -5 40 -20 4 -15 14 -20 38 -20 41 0 47 16 23 55 -10 16 -18
33 -18 38 0 15 34 6 64 -17z m-576 -196 c12 -11 28 -20 37 -20 8 0 15 -4 15
-10 0 -5 7 -10 15 -10 9 0 27 -11 41 -25 14 -14 29 -25 34 -25 5 0 20 -11 34
-25 14 -14 32 -25 41 -25 8 0 15 -4 15 -10 0 -5 7 -10 16 -10 14 0 72 -35 84
-51 3 -3 24 -16 48 -28 43 -22 65 -52 44 -59 -7 -2 -12 -12 -12 -23 0 -10 -4
-19 -10 -19 -5 0 -10 -7 -10 -15 0 -9 -9 -25 -20 -37 -11 -12 -20 -31 -20 -43
0 -11 -4 -25 -9 -30 -21 -22 -51 -87 -51 -110 0 -14 -4 -25 -10 -25 -5 0 -10
-9 -10 -20 0 -11 -4 -20 -10 -20 -5 0 -10 -7 -10 -15 0 -25 -80 -205 -92 -205
-4 0 -8 -13 -8 -30 0 -16 -4 -30 -10 -30 -5 0 -10 -9 -10 -20 0 -11 -4 -20
-10 -20 -5 0 -10 -9 -10 -20 0 -11 -4 -20 -10 -20 -5 0 -10 -6 -10 -13 0 -18
-158 -178 -194 -197 -16 -8 -42 -27 -58 -42 l-29 -27 13 -21 13 -22 63 5 c34
3 65 1 68 -4 3 -5 -8 -22 -25 -38 -17 -16 -31 -33 -31 -38 -1 -12 -47 -63 -58
-63 -5 0 -33 -22 -62 -50 -29 -27 -58 -50 -62 -50 -19 0 -37 -28 -40 -61 l-3
-34 -29 -3 -29 -4 7 29 c4 15 10 43 13 61 l5 32 -29 0 -29 0 -13 -45 c-15 -50
-31 -68 -55 -59 -16 6 -23 44 -8 44 12 0 32 46 32 71 0 26 -24 51 -42 44 -14
-5 -32 -41 -42 -85 -3 -14 -10 -32 -16 -40 l-9 -15 -16 15 -15 16 20 54 c11
30 20 63 20 72 0 22 -33 24 -54 3 -18 -18 -38 -20 -35 -2 3 20 -12 47 -28 47
-19 0 -43 -25 -43 -44 0 -9 -4 -16 -9 -16 -5 0 -11 -9 -14 -20 -3 -11 -13 -20
-22 -20 -13 0 -15 5 -9 18 4 9 9 36 12 60 l4 42 -25 0 c-14 0 -29 -5 -32 -10
-12 -19 -25 -10 -25 19 0 31 -24 59 -35 41 -12 -20 -40 -10 -53 20 -9 21 -21
30 -36 30 -31 0 -36 8 -24 36 12 26 63 34 71 12 6 -20 57 11 57 34 0 10 -4 18
-9 18 -5 0 -11 9 -14 21 l-6 21 23 -6 c12 -3 32 1 44 10 24 17 30 54 8 54 -7
0 -19 7 -26 14 -15 19 5 64 35 80 11 6 27 19 36 29 9 9 24 17 33 17 9 0 16 3
16 8 0 8 48 32 66 32 7 0 14 4 16 8 5 13 78 52 96 52 9 0 28 9 42 20 14 11 36
20 51 20 14 0 29 4 35 8 5 5 25 15 44 22 69 25 90 35 90 42 0 5 9 8 20 8 11 0
29 5 40 10 11 6 29 15 40 20 11 6 29 10 40 10 11 0 20 3 20 8 0 9 72 32 99 32
11 0 23 5 26 10 3 6 17 10 31 10 27 0 32 23 10 46 -17 16 -46 19 -46 4 0 -5
-13 -10 -29 -10 -17 0 -33 -4 -36 -10 -3 -5 -17 -10 -30 -10 -13 0 -27 -4 -30
-10 -3 -5 -14 -10 -23 -10 -10 0 -46 -14 -80 -31 -69 -33 -92 -32 -92 4 0 35
-23 52 -49 35 -30 -18 -33 -36 -11 -60 l19 -21 -14 -14 -15 -14 -22 12 c-28
15 -68 60 -68 77 0 6 -4 12 -8 12 -4 0 -16 14 -25 30 -10 17 -24 30 -31 30 -7
0 -19 12 -27 28 -8 15 -39 52 -69 83 -58 58 -80 89 -80 114 0 8 -4 15 -10 15
-5 0 -10 23 -10 50 0 30 -7 61 -16 75 l-16 25 16 25 c19 30 63 34 73 8 12 -31
31 -43 66 -43 49 0 63 20 42 60 -9 18 -15 33 -13 34 19 12 64 26 83 26 13 0
50 7 82 16 32 9 74 19 93 24 19 4 55 15 80 24 25 8 60 16 78 16 17 0 32 5 32
10 0 6 24 10 53 10 39 0 59 -5 75 -20z m1552 0 c0 -11 7 -23 15 -26 19 -7 81
13 101 33 12 13 18 14 24 4 12 -21 0 -51 -21 -51 -11 0 -19 -4 -19 -10 0 -5
-9 -10 -20 -10 -11 0 -20 -4 -20 -10 0 -5 -9 -10 -20 -10 l-20 0 0 -46 c0 -35
5 -50 22 -64 l23 -18 -25 -20 -24 -19 16 -17 c18 -18 53 -21 63 -6 3 6 28 10
56 10 l49 0 0 -19 c0 -15 -10 -20 -45 -25 -25 -3 -65 -9 -90 -12 l-45 -6 0
-22 c0 -12 6 -28 13 -35 10 -11 10 -14 0 -18 -8 -3 -13 -22 -13 -44 0 -21 -4
-39 -10 -39 -18 0 -11 -35 10 -48 11 -7 20 -19 20 -26 0 -8 -9 -18 -20 -21
-11 -3 -20 -15 -20 -26 0 -12 7 -19 20 -19 11 0 20 -4 20 -10 0 -5 9 -10 20
-10 11 0 20 -4 20 -10 0 -5 -16 -10 -36 -10 -39 0 -69 -22 -61 -44 3 -8 -3
-25 -14 -37 -11 -13 -17 -30 -13 -38 3 -9 8 -21 11 -28 2 -6 -7 -19 -21 -28
-36 -24 -32 -50 14 -94 43 -41 48 -55 26 -77 -21 -20 -59 -17 -76 6 -8 12 -26
20 -42 20 l-28 0 0 -25 c0 -14 8 -29 20 -35 29 -16 46 -50 29 -61 -25 -15 -40
-10 -72 26 -34 39 -48 43 -67 20 -10 -12 -10 -19 -2 -27 23 -23 13 -39 -22
-36 -34 2 -66 -15 -66 -36 0 -6 14 -27 30 -46 34 -40 36 -46 16 -66 -20 -19
-55 -18 -63 4 -8 20 -54 62 -69 62 -16 0 -34 -22 -34 -42 0 -14 -8 -18 -40
-18 l-40 0 0 -30 c0 -16 5 -30 10 -30 6 0 10 -6 10 -12 0 -7 9 -24 20 -38 47
-60 0 -70 -53 -10 -59 68 -96 40 -58 -44 22 -47 20 -70 -6 -80 -22 -9 -63 20
-63 44 0 11 -4 20 -10 20 -5 0 -10 8 -10 19 0 10 -7 24 -15 31 -30 25 -58 -34
-36 -78 27 -53 33 -72 27 -87 -8 -22 -39 -15 -51 13 -5 12 -13 22 -17 22 -5 0
-8 10 -8 23 -1 58 -72 80 -78 25 -2 -16 1 -28 7 -28 6 0 11 -12 11 -27 0 -16
9 -39 20 -53 19 -25 12 -50 -14 -50 -16 0 -46 37 -46 55 0 30 -25 95 -38 100
-7 3 -22 0 -34 -6 l-20 -11 7 -51 c4 -29 11 -60 16 -69 15 -28 11 -68 -7 -68
-29 0 -44 27 -44 80 0 32 -6 57 -15 66 l-15 15 -15 -15 c-8 -8 -15 -21 -15
-28 0 -8 -5 -19 -12 -26 -9 -9 -9 -18 0 -37 17 -37 15 -84 -3 -91 -28 -11 -42
14 -44 73 0 35 -7 63 -15 72 l-15 14 -15 -16 c-9 -8 -16 -27 -16 -41 0 -32
-35 -37 -43 -6 -3 14 -14 20 -31 20 l-26 0 0 -30 c0 -33 -21 -40 -46 -16 -21
22 -18 28 36 86 28 29 50 61 50 71 0 10 4 20 8 23 4 3 14 28 22 55 7 28 17 51
22 51 4 0 8 14 8 30 0 17 5 30 10 30 6 0 10 14 10 30 0 17 5 30 10 30 6 0 10
6 10 13 0 24 42 101 69 127 15 14 38 41 51 60 13 19 46 56 72 82 27 26 48 51
48 56 0 5 23 33 50 63 28 30 50 59 50 66 0 7 5 13 10 13 6 0 10 6 10 13 0 18
24 67 33 67 4 0 7 9 7 20 0 11 3 20 8 20 4 0 12 10 18 23 30 60 60 112 67 115
4 2 7 11 7 21 0 9 4 21 9 26 10 11 60 159 81 238 7 26 17 50 21 53 5 3 9 13 9
23 0 29 47 46 175 61 112 14 168 25 205 42 19 9 51 21 70 28 19 7 39 17 45 22
18 16 45 9 45 -12z m160 -175 c0 -16 -27 -32 -37 -22 -3 4 -3 13 0 22 8 20 37
20 37 0z m-60 -215 c0 -5 -4 -10 -10 -10 -5 0 -10 5 -10 10 0 6 5 10 10 10 6
0 10 -4 10 -10z m80 0 c0 -5 -13 -10 -30 -10 -16 0 -30 5 -30 10 0 6 14 10 30
10 17 0 30 -4 30 -10z m-140 -465 c0 -8 -4 -15 -9 -15 -13 0 -22 16 -14 24 11
11 23 6 23 -9z m-2482 -707 c48 -22 104 -49 125 -60 22 -10 45 -18 53 -18 8 0
33 -9 57 -19 23 -11 60 -25 82 -31 22 -7 48 -16 57 -21 10 -5 23 -9 30 -9 7 0
31 -9 53 -19 22 -11 62 -25 89 -32 36 -9 53 -20 65 -41 9 -15 19 -28 24 -28 4
0 7 -7 7 -15 0 -8 10 -31 22 -52 l22 -38 -2 -140 c-2 -130 10 -226 30 -250 4
-5 8 -22 8 -37 0 -15 5 -28 10 -28 6 0 10 -7 10 -15 0 -9 9 -35 20 -57 11 -23
20 -48 20 -55 0 -7 3 -13 8 -13 8 0 32 -49 32 -67 0 -7 5 -13 10 -13 6 0 10
-6 10 -13 0 -7 8 -22 18 -33 10 -10 30 -40 45 -66 15 -26 34 -54 43 -62 28
-28 14 -58 -36 -74 -25 -8 -54 -18 -65 -23 -11 -4 -36 -10 -55 -13 -67 -10
-105 -19 -115 -26 -6 -5 -116 -8 -246 -8 -155 0 -243 -4 -257 -11 -11 -6 -34
-11 -49 -11 -16 0 -34 -5 -40 -11 -15 -15 -116 -7 -340 27 -24 3 -43 10 -43
15 0 5 -11 9 -24 9 -14 0 -28 5 -31 10 -3 6 -33 10 -66 10 l-59 0 0 30 0 30
24 0 c14 0 28 5 31 10 3 6 15 10 26 10 10 0 19 4 19 8 0 5 19 15 43 22 69 20
100 31 144 51 24 11 50 19 58 19 8 0 15 5 15 10 0 6 9 10 19 10 11 0 23 5 26
10 3 6 17 10 30 10 13 0 27 5 30 10 3 6 18 10 32 10 25 0 73 12 118 31 11 4
43 11 70 14 137 16 155 17 155 6 0 -6 18 -11 40 -11 l40 0 0 19 c0 42 -21 77
-52 87 -17 5 -36 18 -42 29 -6 11 -19 27 -28 36 -10 9 -18 20 -18 26 0 5 -18
29 -40 53 -22 24 -40 48 -40 52 0 4 -18 27 -40 49 -22 23 -40 46 -40 51 0 5
-9 18 -20 30 -11 12 -20 28 -20 35 0 7 -4 13 -9 13 -5 0 -11 8 -14 18 -6 17
-37 72 -47 82 -12 12 -30 51 -30 65 0 8 -3 15 -8 15 -14 0 -66 147 -76 215 -3
22 -11 63 -16 90 -6 28 -13 62 -17 77 -6 32 2 58 18 58 6 0 50 -19 97 -42z
m682 -133 c0 -8 -4 -15 -10 -15 -5 0 -10 7 -10 15 0 8 5 15 10 15 6 0 10 -7
10 -15z m235 -5 c3 -5 -3 -19 -13 -31 -23 -24 -39 -10 -22 21 12 22 25 26 35
10z m105 -29 c0 -6 -4 -13 -10 -16 -5 -3 -10 1 -10 9 0 9 5 16 10 16 6 0 10
-4 10 -9z"/>
<path d="M5863 4343 c-12 -2 -25 -12 -28 -22 -6 -19 3 -51 14 -51 3 0 37 -20
74 -45 48 -31 79 -45 103 -45 19 0 34 4 34 9 0 5 14 14 30 21 17 7 30 16 30
21 0 5 7 9 15 9 8 0 22 11 31 25 l17 26 -19 14 c-13 10 -47 14 -107 15 -49 0
-96 4 -105 9 -25 12 -64 18 -89 14z"/>
<path d="M7280 3640 c-16 -29 -3 -60 23 -60 27 1 57 22 57 42 0 39 -62 52 -80
18z"/>
<path d="M7120 3602 c0 -38 46 -56 70 -27 10 11 9 18 -3 30 -22 22 -67 20 -67
-3z"/>
<path d="M7011 3564 l-13 -16 12 -24 c8 -13 20 -24 27 -24 36 0 59 62 27 74
-24 9 -38 7 -53 -10z"/>
<path d="M6872 3524 c-20 -22 -7 -64 19 -64 22 0 49 22 49 40 0 16 -26 40 -42
40 -7 -1 -19 -8 -26 -16z"/>
<path d="M6755 3474 c-19 -19 -19 -28 -1 -44 25 -20 61 -9 61 19 0 31 -38 47
-60 25z"/>
<path d="M6620 3434 c0 -14 7 -32 15 -40 l15 -15 15 15 c19 18 19 33 1 52 -23
23 -46 17 -46 -12z"/>
<path d="M6482 3414 c-29 -20 -28 -42 4 -54 48 -19 83 20 48 54 -19 20 -24 20
-52 0z"/>
<path d="M7807 3313 c-20 -19 5 -73 33 -73 15 0 40 25 40 40 0 28 -54 53 -73
33z"/>
<path d="M7892 3224 l-14 -15 23 -20 c28 -24 41 -24 64 1 l17 19 -15 16 c-20
19 -58 19 -75 -1z"/>
<path d="M7987 3153 c-14 -13 -7 -61 9 -67 24 -9 44 12 44 45 l0 29 -23 0
c-13 0 -27 -3 -30 -7z"/>
<path d="M8077 3073 c-7 -38 1 -53 29 -53 30 0 44 42 21 65 -23 23 -44 18 -50
-12z"/>
<path d="M6636 2924 c-8 -22 -9 -20 19 -48 17 -17 25 -36 25 -61 0 -19 2 -35
4 -35 2 0 11 -2 18 -5 8 -3 25 3 38 15 l23 20 -21 19 c-12 10 -22 30 -22 45 0
14 -4 26 -10 26 -5 0 -10 9 -10 20 0 15 -7 20 -29 20 -17 0 -31 -6 -35 -16z"/>
<path d="M6763 2746 c-30 -14 -34 -86 -5 -86 10 0 25 -12 32 -27 25 -51 28
-52 60 -36 35 17 37 31 11 64 -10 13 -22 35 -26 49 -7 23 -33 51 -45 48 -3 0
-15 -5 -27 -12z"/>
<path d="M7364 2546 c-13 -33 0 -61 29 -64 l28 -3 -3 38 -3 38 -23 3 c-13 2
-24 -3 -28 -12z"/>
<path d="M7216 2485 c-8 -21 3 -45 21 -45 22 0 44 26 37 44 -8 20 -50 21 -58
1z"/>
<path d="M7070 2435 l-13 -24 13 -16 c15 -18 41 -20 58 -3 16 16 15 36 -2 54
-21 21 -41 17 -56 -11z"/>
<path d="M6880 2350 l0 -31 28 3 c21 2 27 8 27 28 0 20 -6 26 -27 28 l-28 3 0
-31z"/>
<path d="M6762 2314 c-12 -8 -22 -22 -22 -30 0 -18 24 -44 40 -44 35 0 56 72
24 84 -20 8 -16 9 -42 -10z"/>
<path d="M6633 2263 c-18 -7 -16 -58 2 -73 12 -10 18 -10 30 0 20 17 19 66 -1
74 -9 3 -16 6 -17 5 -1 0 -8 -3 -14 -6z"/>
<path d="M6492 2185 l-13 -15 17 -25 c20 -30 35 -32 58 -6 14 15 15 24 6 40
-12 24 -49 27 -68 6z"/>
<path d="M4230 3510 c-8 -5 -36 -10 -62 -10 -27 0 -48 -4 -48 -10 0 -5 -11
-10 -24 -10 -31 0 -102 -37 -141 -72 -16 -16 -34 -28 -39 -28 -9 0 -126 -121
-126 -131 0 -3 -11 -19 -25 -35 -14 -16 -25 -36 -25 -44 0 -9 -4 -20 -10 -26
-14 -14 -17 -261 -2 -276 7 -7 12 -23 12 -36 0 -26 34 -95 63 -126 9 -11 17
-25 17 -30 0 -6 31 -41 69 -78 67 -65 125 -99 221 -128 25 -7 49 -17 54 -22
16 -13 217 -9 271 6 89 24 157 66 231 143 81 84 114 140 114 191 0 19 5 52 11
71 34 113 35 87 -10 232 -12 37 -21 75 -21 84 0 10 -8 25 -18 34 -11 9 -22 30
-26 46 -7 30 -117 145 -138 145 -6 0 -18 8 -27 18 -28 30 -153 82 -199 82 -11
0 -24 5 -27 10 -8 13 -75 13 -95 0z"/>
<path d="M6280 2590 c0 -5 9 -10 20 -10 11 0 20 5 20 10 0 6 -9 10 -20 10 -11
0 -20 -4 -20 -10z"/>
<path d="M3220 2435 c0 -8 5 -15 10 -15 6 0 10 7 10 15 0 8 -4 15 -10 15 -5 0
-10 -7 -10 -15z"/>
</g>
</svg>
