<?xml version="1.0" encoding="UTF-8" ?>
<!DOCTYPE svg PUBLIC "-//W3C//DTD SVG 1.1//EN" "http://www.w3.org/Graphics/SVG/1.1/DTD/svg11.dtd">
<svg width="42pt" height="43pt" viewBox="0 0 42 43" version="1.1" xmlns="http://www.w3.org/2000/svg">
<g id="#ffffffff">
</g>
<g id="#222222ff">
<path fill="#222222" opacity="1.00" d=" M 4.68 8.72 C 7.93 4.94 12.51 2.50 17.26 1.16 C 23.26 -0.29 29.49 1.99 34.19 5.71 C 39.48 10.03 41.58 17.29 41.38 23.90 C 40.72 36.33 26.77 45.73 15.01 41.75 C 7.73 39.96 2.59 33.40 0.54 26.45 C 0.99 25.64 1.42 24.82 1.86 24.01 C 2.10 28.41 4.41 32.33 7.28 35.55 C 5.65 28.22 7.26 20.62 11.05 14.22 C 8.61 13.67 5.93 12.38 3.47 13.40 C 2.33 15.11 2.19 17.21 1.99 19.19 C 1.49 19.26 0.50 19.41 0.00 19.48 L 0.00 17.61 C 1.59 14.68 2.31 11.20 4.68 8.72 M 14.95 3.45 C 20.25 5.20 25.78 7.20 29.73 11.32 C 31.11 13.16 32.30 15.14 33.75 16.93 C 34.91 15.14 37.83 13.56 36.99 11.09 C 32.37 4.07 22.97 0.39 14.95 3.45 M 4.69 11.33 C 11.62 11.48 17.69 15.72 21.86 21.00 C 25.55 21.46 29.46 20.57 32.23 17.97 C 29.21 11.12 22.30 6.02 14.90 5.04 C 10.45 4.31 6.90 7.91 4.69 11.33 M 30.02 21.00 C 27.17 22.69 23.74 22.43 20.60 23.10 C 19.71 25.83 18.94 28.59 18.22 31.37 C 24.99 33.27 32.32 29.87 37.03 25.02 C 39.87 22.05 40.16 17.70 38.44 14.07 C 36.00 16.78 33.19 19.18 30.02 21.00 M 10.79 38.09 C 12.74 40.78 16.49 40.66 19.46 41.05 C 15.65 34.95 16.52 27.18 19.81 21.07 C 18.07 18.48 15.69 16.43 12.83 15.16 C 8.18 21.71 6.54 30.94 10.79 38.09 M 18.92 34.05 C 19.13 36.25 19.44 38.53 20.63 40.45 C 24.63 41.96 29.31 40.14 32.29 37.28 C 35.83 33.66 39.40 29.63 40.04 24.38 C 34.58 30.10 27.14 34.81 18.92 34.05 Z" />
<path fill="#222222" opacity="1.00" d=" M 0.00 20.34 C 0.00 20.46 0.00 20.70 0.00 20.83 L 0.00 20.34 Z" />
<path fill="#222222" opacity="1.00" d=" M 0.00 21.87 C 0.00 21.96 0.00 22.16 0.00 22.26 L 0.00 21.87 Z" />
</g>
</svg>
