<?xml version="1.0" standalone="no"?>
<!DOCTYPE svg PUBLIC "-//W3C//DTD SVG 20010904//EN"
 "http://www.w3.org/TR/2001/REC-SVG-20010904/DTD/svg10.dtd">
<svg version="1.0" xmlns="http://www.w3.org/2000/svg"
 width="243.979121pt" height="222.478911pt" viewBox="0 0 243.979121 222.478911"
 preserveAspectRatio="xMidYMid meet">
<metadata>
Created by Potrace Professional 1.0m
</metadata>
<g transform="translate(-2.000000,222.478911) rotate(-360.00) scale(0.100000,-0.100000)"
fill="#000000" stroke="none">
<path d="M1188 2223 c-43 -5 -88 -45 -88 -79 0 -13 -3 -24 -8 -24 -9 0 -32
-72 -32 -99 0 -33 -33 -41 -174 -41 -74 0 -137 -4 -140 -9 -6 -9 -42 -17 -123
-27 -24 -4 -43 -10 -43 -15 0 -5 -10 -9 -22 -9 -31 0 -90 -22 -108 -40 -19
-19 -53 -35 -105 -50 -22 -7 -54 -16 -71 -21 -17 -5 -49 -9 -72 -9 -23 0 -42
-4 -42 -10 0 -5 -6 -10 -14 -10 -7 0 -32 -18 -55 -40 -22 -22 -48 -40 -56 -40
-10 0 -15 -10 -15 -31 l0 -30 62 2 c41 2 71 -2 85 -11 17 -11 27 -12 45 -3 13
7 33 15 46 18 12 4 34 17 50 29 32 27 64 36 147 43 33 3 65 9 71 14 13 11 122
10 130 -2 8 -13 68 -11 81 2 7 7 19 9 27 6 19 -8 23 -116 5 -134 -7 -7 -9 -28
-5 -55 14 -111 19 -134 29 -146 6 -8 9 -68 8 -152 -1 -76 2 -141 7 -144 5 -3
10 -41 10 -83 0 -43 8 -105 17 -138 10 -33 20 -72 22 -88 3 -15 9 -30 14 -33
5 -3 9 -51 9 -108 l0 -102 20 -22 c11 -12 20 -28 20 -37 0 -8 3 -15 8 -15 4 0
13 -15 20 -32 8 -18 18 -43 24 -54 7 -15 7 -28 -1 -42 -14 -26 -15 -172 -1
-172 6 0 10 -6 10 -14 0 -18 38 -46 61 -46 21 0 31 27 40 120 5 41 11 101 15
133 l6 58 -21 18 -21 18 0 107 c0 64 -4 106 -10 106 -5 0 -10 24 -10 54 0 30
5 58 10 61 6 3 10 24 10 45 l0 39 29 20 c16 12 36 21 45 21 21 0 46 -62 46
-116 0 -24 5 -44 10 -44 6 0 10 -41 10 -103 0 -57 4 -107 9 -113 20 -21 29
-221 15 -345 l-6 -56 30 -22 c17 -11 35 -21 41 -21 6 0 11 -3 11 -7 0 -12 51
-33 77 -33 13 0 23 -4 23 -9 0 -13 46 -22 75 -15 38 9 30 31 -32 93 -32 31
-64 72 -70 92 -15 41 -17 115 -4 123 5 3 11 32 15 63 18 159 18 180 -2 264
-22 87 -25 114 -23 187 1 31 5 42 16 42 23 0 30 -28 15 -56 -10 -18 -11 -30
-2 -49 7 -14 12 -34 12 -44 0 -10 14 -32 30 -49 17 -18 30 -41 30 -52 0 -10 9
-24 20 -30 11 -6 20 -16 20 -22 0 -5 45 -55 100 -109 55 -55 100 -105 100
-112 0 -7 9 -19 20 -27 11 -8 20 -22 20 -32 0 -10 5 -18 10 -18 6 0 10 -9 10
-19 0 -12 12 -25 30 -33 17 -7 30 -16 30 -20 0 -5 7 -8 15 -8 23 0 101 -39
127 -64 13 -12 36 -39 52 -59 15 -20 37 -37 47 -37 10 0 19 -4 19 -10 0 -5 19
-10 43 -10 43 0 97 -18 97 -32 0 -5 27 -8 60 -8 33 0 60 4 60 10 0 6 7 10 15
10 20 0 85 65 85 84 0 8 5 18 10 21 13 8 13 75 1 75 -5 0 -13 9 -16 21 -9 28
-62 77 -87 81 -15 2 -26 17 -37 48 -9 25 -22 51 -29 59 -7 7 -16 26 -19 42 -3
16 -9 29 -14 29 -5 0 -9 7 -9 15 0 16 -43 65 -57 65 -13 0 -59 43 -71 67 -7
12 -12 33 -12 47 0 14 -4 28 -10 31 -5 3 -10 17 -10 31 0 13 -4 24 -10 24 -5
0 -10 9 -10 20 0 11 -3 20 -7 20 -8 0 -33 48 -33 63 0 14 -83 131 -107 150
-13 10 -30 32 -39 49 l-16 30 7 122 c11 189 12 200 24 204 6 2 11 17 11 33 0
16 5 29 10 29 6 0 10 7 10 15 0 9 19 34 43 57 26 25 37 42 30 45 -7 3 -13 13
-13 22 0 29 -30 80 -53 93 -12 6 -34 24 -49 40 -30 32 -77 37 -141 15 -36 -13
-77 -47 -77 -64 0 -5 -9 -16 -20 -26 -15 -12 -20 -29 -20 -63 0 -47 -16 -74
-44 -74 l-16 0 0 64 c0 36 -4 68 -10 71 -5 3 -10 15 -10 26 0 10 -4 19 -10 19
-5 0 -10 9 -10 19 0 20 -39 64 -103 116 l-37 30 0 57 c0 31 4 58 10 60 15 5
16 110 1 146 -7 18 -20 32 -29 32 -8 0 -22 8 -31 19 -17 20 -82 30 -143 24z
m652 -1593 c0 -5 9 -10 20 -10 11 0 20 -4 20 -10 0 -5 6 -10 13 -10 7 0 28
-13 47 -30 19 -16 39 -29 43 -30 18 0 37 -30 69 -107 7 -18 19 -33 26 -33 7 0
16 -8 19 -17 4 -10 22 -32 40 -51 37 -37 39 -44 18 -66 -8 -8 -15 -22 -15 -30
0 -23 -33 -20 -50 4 -8 11 -21 20 -28 20 -13 0 -66 33 -87 55 -5 5 -16 22 -24
36 -7 15 -25 33 -40 40 -36 19 -71 55 -71 74 0 8 -4 15 -10 15 -5 0 -10 18
-10 40 0 22 -4 40 -10 40 -5 0 -10 18 -10 40 l0 40 20 0 c11 0 20 -4 20 -10z"/>
</g>
</svg>
