<?xml version="1.0" standalone="no"?>
<!DOCTYPE svg PUBLIC "-//W3C//DTD SVG 20010904//EN"
 "http://www.w3.org/TR/2001/REC-SVG-20010904/DTD/svg10.dtd">
<svg version="1.0" xmlns="http://www.w3.org/2000/svg"
 width="220.082238pt" height="232.000000pt" viewBox="0 0 220.082238 232.000000"
 preserveAspectRatio="xMidYMid meet">
<metadata>
Created by Potrace Professional 1.0m
</metadata>
<g transform="translate(0.109312,234.000000) rotate(-360.00) scale(0.100000,-0.100000)"
fill="#000000" stroke="none">
<path d="M1080 2280 l0 -60 -34 0 c-19 0 -38 -4 -41 -10 -3 -5 -33 -10 -66
-10 -33 0 -59 -4 -59 -10 0 -5 -22 -10 -49 -10 -28 0 -53 -4 -56 -10 -3 -5
-28 -10 -54 -10 -26 0 -51 -4 -57 -9 -5 -5 -27 -11 -49 -14 -22 -4 -65 -11
-95 -17 -30 -5 -74 -13 -98 -16 -23 -4 -42 -11 -42 -15 0 -5 -16 -9 -36 -9
-38 0 -64 -18 -64 -44 l0 -16 70 0 c39 0 70 4 70 9 0 5 21 12 47 15 129 15
149 19 157 27 6 5 27 9 49 9 21 0 47 5 59 11 28 15 35 3 10 -20 -12 -10 -22
-26 -22 -35 0 -9 -5 -16 -11 -16 -7 0 -9 -13 -4 -37 3 -21 9 -62 12 -90 l5
-53 -50 0 -51 0 -30 -37 c-21 -25 -31 -49 -31 -70 0 -18 -4 -33 -10 -33 -5 0
-10 -7 -10 -15 0 -9 -9 -25 -20 -37 -11 -12 -20 -28 -20 -35 0 -7 -4 -13 -10
-13 -5 0 -10 -7 -10 -15 0 -13 -59 -84 -117 -141 -13 -11 -23 -26 -23 -33 0
-6 -4 -11 -9 -11 -9 0 -16 -32 -27 -115 -5 -33 -11 -43 -34 -53 -22 -10 -29
-21 -32 -50 -6 -47 -1 -62 22 -62 11 0 22 -4 25 -10 11 -17 60 -11 84 11 l23
21 24 -12 c13 -8 24 -17 24 -22 0 -4 9 -8 20 -8 27 0 26 28 -2 51 l-21 19 19
15 c20 14 46 28 89 45 52 21 75 34 75 42 0 4 6 8 13 8 7 0 23 9 36 21 40 38
35 10 -6 -32 -22 -22 -51 -60 -63 -85 -13 -24 -27 -44 -32 -44 -4 0 -8 -6 -8
-13 0 -7 -9 -23 -20 -35 -11 -12 -20 -28 -20 -37 0 -8 -4 -15 -9 -15 -5 0 -17
-19 -27 -42 -10 -24 -20 -46 -22 -49 -1 -4 6 -9 18 -12 31 -8 24 -38 -21 -87
-23 -25 -60 -72 -82 -105 -22 -33 -44 -61 -49 -63 -4 -2 -8 -12 -8 -23 0 -10
-4 -19 -10 -19 -5 0 -10 -9 -10 -20 0 -11 -4 -20 -10 -20 -5 0 -10 -9 -10 -20
0 -11 -4 -20 -10 -20 -5 0 -10 -9 -10 -19 0 -11 -4 -23 -10 -26 -5 -3 -10 -17
-10 -31 0 -13 -4 -24 -8 -24 -5 0 -15 -12 -23 -27 -8 -16 -18 -31 -24 -35 -10
-7 -64 1 -80 12 -18 13 -66 21 -86 15 -39 -13 -22 -51 56 -130 42 -41 82 -75
90 -75 8 0 15 -4 15 -10 0 -5 16 -10 36 -10 27 0 37 5 41 20 3 11 9 20 14 20
5 0 9 6 9 13 0 7 9 23 20 35 11 12 20 28 20 37 0 8 5 15 10 15 6 0 10 8 10 18
0 10 9 24 20 32 11 8 20 20 20 26 0 6 14 25 30 42 17 18 30 39 30 47 0 8 3 15
8 15 7 0 32 48 32 63 0 5 17 25 38 45 21 20 48 51 60 69 12 17 47 58 77 90
l56 58 82 -3 c45 -1 83 -7 85 -12 2 -6 10 -10 19 -10 19 0 43 -24 43 -44 0 -9
4 -16 9 -16 4 0 11 -19 15 -42 8 -51 25 -167 33 -221 3 -20 9 -40 14 -43 5 -3
9 -16 9 -30 0 -13 5 -24 10 -24 6 0 10 -47 10 -120 l0 -120 18 0 c10 0 23 -5
30 -12 18 -18 72 17 175 115 l29 27 -7 32 c-10 44 -31 61 -70 60 -42 -2 -43
-1 -50 168 -4 74 -11 139 -16 144 -5 6 -9 38 -9 73 l0 64 18 6 c9 4 23 13 31
21 l14 14 -11 32 c-7 18 -12 51 -12 74 0 22 -4 43 -9 46 -8 6 -14 31 -27 119
-4 20 -10 40 -15 43 -5 3 -9 23 -9 45 0 21 -6 48 -12 59 -10 15 -10 23 -2 28
7 4 13 16 16 27 5 28 45 21 77 -14 14 -15 34 -30 44 -34 9 -3 17 -14 17 -24 0
-33 44 -73 81 -73 26 -1 44 -11 74 -40 22 -22 50 -40 61 -40 18 0 34 -17 34
-34 0 -9 -39 -43 -62 -55 -16 -8 -28 -18 -28 -23 0 -4 -6 -8 -14 -8 -19 0 -46
-44 -46 -74 0 -13 -6 -26 -12 -29 -15 -4 -14 -152 1 -171 4 -6 14 -36 22 -66
7 -30 16 -59 21 -64 11 -14 10 -54 -2 -61 -5 -3 -10 -17 -10 -31 0 -13 -5 -24
-11 -24 -6 0 -9 -16 -7 -38 l3 -37 28 -3 29 -3 69 70 c41 42 70 79 70 93 3 44
-3 93 -12 96 -5 2 -9 16 -9 31 0 15 -4 31 -9 36 -4 6 -11 25 -14 42 l-6 33 32
30 32 30 48 0 48 0 34 -35 c19 -19 35 -38 35 -43 0 -4 18 -28 40 -52 22 -24
40 -48 40 -53 0 -4 18 -25 40 -46 22 -21 40 -45 40 -54 0 -10 5 -17 10 -17 6
0 10 -9 10 -19 0 -11 10 -39 21 -63 12 -23 26 -53 30 -65 5 -13 13 -33 18 -45
4 -13 18 -43 30 -66 11 -24 21 -54 21 -67 0 -13 5 -27 10 -30 6 -3 10 -19 10
-35 0 -16 5 -32 10 -35 6 -3 10 -17 10 -30 0 -13 5 -27 10 -30 6 -3 10 -17 10
-31 l0 -24 26 0 c31 0 45 14 62 61 14 42 16 175 2 184 -5 3 -10 23 -10 43 0
21 -9 62 -20 92 -11 30 -20 65 -20 77 0 13 -4 23 -10 23 -5 0 -10 9 -10 19 0
11 -4 23 -10 26 -5 3 -10 17 -10 30 0 13 -4 26 -9 29 -5 3 -12 32 -15 63 -4
32 -10 78 -13 103 -3 25 -9 49 -14 54 -5 6 -9 20 -9 33 0 13 -4 23 -10 23 -5
0 -10 9 -10 20 0 11 -4 20 -10 20 -5 0 -10 11 -10 24 0 14 -4 28 -10 31 -5 3
-10 15 -10 26 0 10 -3 19 -7 19 -12 0 -33 51 -33 77 0 13 -4 23 -10 23 -5 0
-10 9 -10 20 0 11 -4 20 -10 20 -6 0 -9 56 -8 143 1 103 -2 149 -12 167 -20
38 -70 81 -102 87 l-28 6 0 63 c0 87 -19 120 -81 142 -42 14 -119 16 -119 2 0
-5 -9 -10 -19 -10 -13 0 -26 -16 -42 -50 -13 -27 -28 -50 -34 -50 -5 0 -18 -7
-28 -14 l-18 -14 13 -21 12 -20 -32 -27 -32 -27 0 -48 c0 -26 5 -51 10 -54 6
-3 10 -17 10 -31 0 -13 5 -24 10 -24 6 0 10 -7 10 -16 0 -11 -6 -14 -22 -8
-13 4 -47 6 -76 5 -40 -1 -57 3 -74 19 -12 11 -28 20 -35 20 -7 0 -13 4 -13 8
0 4 -13 16 -30 25 l-30 18 0 120 0 120 18 6 c9 4 19 9 22 13 3 3 21 17 40 30
19 14 59 49 89 78 l53 54 0 38 c0 22 -6 48 -11 59 -6 11 -11 28 -11 38 0 11
-9 38 -20 61 -11 22 -20 48 -20 57 0 8 -4 15 -10 15 -5 0 -10 16 -10 35 0 40
-36 85 -67 85 -10 0 -35 5 -55 11 l-38 10 0 29 c0 23 -5 30 -20 30 l-20 0 0
-60z m40 -180 l0 -40 26 0 c14 0 32 -6 40 -14 16 -17 19 -66 4 -66 -5 0 -10
-9 -10 -20 0 -11 -4 -20 -10 -20 -5 0 -10 -7 -10 -16 0 -9 -8 -23 -17 -30 -21
-16 -143 -19 -143 -4 0 6 4 10 10 10 16 0 22 43 11 73 -6 15 -36 53 -67 83
-30 31 -54 57 -52 59 9 8 110 23 161 24 l57 1 0 -40z m-468 -630 c7 -16 16
-30 20 -30 5 0 8 -9 8 -20 0 -11 5 -20 10 -20 6 0 10 -8 10 -18 0 -21 -23 -34
-90 -52 -25 -7 -62 -21 -83 -31 -48 -24 -47 -24 -47 6 0 14 8 29 20 35 11 6
20 17 20 25 0 8 4 15 8 15 5 0 15 12 23 27 15 29 69 91 81 92 3 1 12 -12 20
-29z"/>
</g>
</svg>
