<?xml version="1.0" standalone="no"?>
<!DOCTYPE svg PUBLIC "-//W3C//DTD SVG 20010904//EN"
 "http://www.w3.org/TR/2001/REC-SVG-20010904/DTD/svg10.dtd">
<svg version="1.0" xmlns="http://www.w3.org/2000/svg"
 width="374.012292pt" height="224.104149pt" viewBox="0 0 374.012292 224.104149"
 preserveAspectRatio="xMidYMid meet">
<metadata>
Created by Potrace Professional 1.0m
</metadata>
<g transform="translate(-2.000000,226.120169) rotate(-360.00) scale(0.100000,-0.100000)"
fill="#000000" stroke="none">
<path d="M220 2250 c0 -5 -13 -10 -30 -10 -16 0 -30 -4 -30 -10 0 -5 -5 -10
-10 -10 -22 0 -110 -94 -110 -117 0 -13 -4 -23 -10 -23 -6 0 -10 -37 -10 -90
0 -53 4 -90 10 -90 6 0 10 -11 10 -23 0 -28 80 -117 104 -117 9 0 16 -4 16
-10 0 -5 7 -10 15 -10 8 0 23 -4 33 -9 9 -5 36 -15 60 -22 l43 -13 37 13 c20
7 48 18 62 24 34 16 130 113 130 131 0 8 5 16 11 18 16 5 18 210 1 216 -6 2
-12 10 -12 19 0 20 -74 89 -113 107 -77 33 -207 50 -207 26z"/>
<path d="M1225 1624 l-17 -36 -17 16 c-10 9 -25 16 -34 16 l-17 0 0 -140 0
-139 -20 -36 c-11 -20 -20 -46 -20 -60 0 -13 -4 -26 -8 -29 -5 -3 -9 -41 -10
-84 -2 -55 -8 -92 -22 -120 -11 -23 -20 -49 -20 -58 0 -20 18 -80 31 -106 5
-10 9 -27 9 -39 0 -25 120 -149 145 -149 8 0 20 -9 27 -20 7 -11 19 -20 26
-20 8 0 27 -13 42 -30 15 -16 33 -30 40 -30 16 0 90 -40 114 -63 11 -9 26 -17
33 -17 7 0 13 -4 13 -8 0 -5 12 -15 28 -23 15 -8 54 -40 86 -71 32 -32 65 -58
72 -58 8 0 14 -4 14 -10 0 -5 9 -10 20 -10 11 0 20 -3 20 -7 0 -16 140 -73
177 -73 13 0 23 -4 23 -9 0 -5 15 -14 33 -21 17 -6 40 -16 49 -21 10 -5 31 -9
47 -9 17 0 33 -4 36 -10 3 -5 17 -10 31 -10 13 0 24 -4 24 -9 0 -5 14 -14 30
-21 17 -7 30 -16 30 -20 0 -5 24 -11 53 -14 47 -4 79 -9 210 -32 20 -3 40 -10
43 -15 7 -12 617 -12 630 0 5 5 34 12 64 15 129 12 200 34 200 61 0 8 5 15 10
15 6 0 10 18 10 40 0 22 5 40 10 40 6 0 10 47 10 120 0 75 4 127 12 139 9 15
9 32 -2 75 l-13 56 13 41 c8 23 21 44 29 47 8 3 32 22 54 43 41 38 109 79 132
79 7 0 19 14 27 30 7 16 16 30 20 30 14 0 8 51 -7 66 -18 18 -162 21 -178 5
-6 -6 -17 -11 -25 -11 -8 0 -22 -8 -31 -18 -38 -43 -59 -49 -134 -44 -50 3
-81 11 -102 25 -49 34 -55 48 -34 71 11 11 19 26 19 33 0 7 6 13 14 13 7 0 33
18 56 41 l42 41 -5 34 c-3 19 -12 41 -21 49 -17 17 -111 21 -121 5 -3 -5 -19
-10 -36 -10 -16 0 -29 -4 -29 -10 0 -5 -6 -10 -13 -10 -18 0 -67 -24 -67 -32
0 -5 -6 -8 -12 -8 -16 -1 -68 -46 -68 -59 0 -12 -57 -41 -80 -41 -9 0 -23 -12
-31 -27 -8 -16 -22 -35 -31 -44 -25 -23 -22 -56 7 -85 34 -34 31 -44 -9 -44
-19 0 -38 -4 -41 -10 -3 -5 -17 -10 -31 -10 -13 0 -24 -4 -24 -10 0 -5 -7 -10
-15 -10 -8 0 -23 -4 -33 -9 -68 -35 -133 -44 -183 -27 -19 7 -63 40 -96 74
-48 49 -68 62 -92 62 -16 0 -33 4 -36 10 -3 5 -15 10 -26 10 -10 0 -19 4 -19
10 0 5 -50 9 -122 9 -71 0 -125 4 -132 11 -5 5 -36 10 -69 10 l-58 0 2 87 c2
61 -1 88 -9 91 -7 2 -12 12 -12 23 0 10 -3 19 -8 19 -4 0 -13 12 -19 28 -14
29 -53 52 -90 52 -13 0 -32 6 -43 12 -16 10 -24 10 -40 0 -11 -6 -30 -12 -42
-12 -30 0 -70 -36 -92 -83 -9 -21 -37 -58 -62 -83 l-45 -44 16 -17 c12 -11 15
-26 10 -49 -9 -49 17 -92 71 -115 46 -21 54 -38 29 -59 -12 -10 -19 -10 -27
-2 -7 7 -20 12 -30 12 -20 0 -88 62 -88 80 0 17 -26 40 -44 40 -9 0 -21 9 -28
20 -7 11 -19 20 -26 20 -19 0 -35 20 -49 61 -15 42 -17 79 -4 79 5 0 12 42 14
93 7 135 14 161 45 175 15 6 32 21 37 33 6 12 19 27 30 33 22 12 55 45 55 55
-1 24 -17 30 -48 19 -17 -7 -34 -9 -37 -6 -6 5 11 44 25 58 3 3 11 15 18 28
l12 22 -25 26 c-20 20 -32 24 -55 19 -22 -5 -32 -3 -36 9 -11 28 -41 18 -59
-20z m2035 -1070 c0 -30 -4 -62 -8 -72 -5 -9 -14 -27 -20 -39 -7 -13 -12 -39
-12 -58 0 -37 -10 -44 -32 -22 -26 27 -58 37 -112 37 -31 0 -56 5 -56 10 0 6
-9 10 -20 10 -11 0 -20 5 -20 10 0 6 -13 10 -30 10 -16 0 -30 2 -30 5 0 13 50
55 65 55 8 0 15 4 15 9 0 5 8 11 18 14 9 3 31 13 47 23 51 29 64 34 89 34 14
0 28 5 31 10 3 6 17 10 31 10 13 0 24 5 24 11 0 5 5 7 10 4 6 -3 10 -31 10
-61z"/>
</g>
</svg>
