<?xml version="1.0" standalone="no"?>
<!DOCTYPE svg PUBLIC "-//W3C//DTD SVG 20010904//EN"
 "http://www.w3.org/TR/2001/REC-SVG-20010904/DTD/svg10.dtd">
<svg version="1.0" xmlns="http://www.w3.org/2000/svg"
 width="103.778605pt" height="392.154538pt" viewBox="0 0 103.778605 392.154538"
 preserveAspectRatio="xMidYMid meet">
<metadata>
Created by Potrace Professional 1.0m
</metadata>
<g transform="translate(-2.000000,394.000000) rotate(-360.00) scale(0.100000,-0.100000)"
fill="#000000" stroke="none">
<path d="M766 3924 c-3 -9 -6 -35 -6 -59 0 -24 -4 -47 -10 -50 -5 -3 -10 -21
-10 -40 0 -19 -4 -36 -10 -40 -9 -6 -4 -23 24 -85 6 -14 14 -27 17 -30 3 -3
11 -27 18 -53 9 -37 9 -56 0 -80 l-11 -32 -82 3 -81 4 -16 -19 c-9 -10 -26
-45 -38 -79 l-21 -60 0 -137 0 -138 -17 -6 c-10 -4 -30 -19 -45 -35 -14 -15
-35 -28 -47 -28 -19 0 -44 -8 -101 -34 -37 -16 -78 -61 -86 -93 -4 -15 -11
-34 -16 -40 -6 -7 -15 -63 -20 -125 -5 -62 -14 -121 -19 -130 -5 -10 -9 -40
-9 -67 0 -28 -5 -53 -10 -56 -14 -9 -13 -328 1 -342 7 -7 9 -29 5 -60 -4 -26
-6 -61 -5 -78 3 -53 2 -97 -6 -221 l-8 -121 32 -33 c17 -18 31 -41 31 -51 0
-10 5 -21 10 -24 6 -3 10 -42 10 -86 l0 -79 18 0 c22 0 62 -62 62 -95 0 -14 5
-25 11 -25 7 0 9 -13 4 -37 -13 -75 -17 -183 -6 -183 6 0 11 -18 11 -40 0 -22
-5 -40 -11 -40 -11 0 -7 -116 6 -179 5 -22 4 -36 -5 -41 -9 -6 -9 -13 2 -31 7
-13 17 -27 22 -30 15 -12 2 -221 -17 -258 -9 -19 -17 -40 -17 -48 0 -7 -4 -13
-10 -13 -5 0 -10 -7 -10 -16 0 -9 -9 -18 -20 -21 -11 -3 -20 -9 -20 -14 0 -5
-9 -9 -20 -9 -11 0 -20 -4 -20 -10 0 -5 -9 -10 -19 -10 -11 0 -23 -4 -26 -10
-3 -5 -21 -10 -40 -10 -67 0 -115 -31 -115 -74 l0 -26 129 0 c76 0 132 4 136
10 3 6 26 10 51 10 24 0 44 4 44 9 0 9 34 17 118 28 l44 5 -7 47 c-13 90 -17
273 -6 284 6 6 11 24 11 39 0 15 5 28 10 28 6 0 10 11 10 25 0 14 9 45 20 67
21 43 28 143 11 150 -9 3 -14 73 -12 166 l1 52 20 0 c16 0 20 -7 20 -30 0 -16
5 -30 10 -30 6 0 10 -51 10 -134 0 -79 4 -137 10 -141 6 -3 10 -23 10 -44 0
-20 4 -41 9 -46 5 -6 12 -39 15 -75 3 -36 8 -85 12 -108 4 -28 2 -48 -5 -55
-6 -6 -11 -21 -11 -34 0 -13 -4 -23 -10 -23 -5 0 -10 -9 -10 -20 0 -11 -4 -20
-10 -20 -5 0 -10 -9 -10 -20 0 -11 -4 -20 -10 -20 -6 0 -10 -40 -10 -100 l0
-100 23 -1 c53 -3 83 4 119 28 21 14 38 30 38 35 0 5 11 20 25 34 33 33 38 56
31 155 -11 149 -3 309 15 309 5 0 9 17 9 38 0 26 7 45 20 57 l20 18 0 93 c0
51 -4 96 -10 99 -5 3 -10 16 -10 28 0 13 -9 29 -20 37 -12 8 -20 26 -20 42 0
15 -4 30 -10 33 -13 8 -13 192 0 200 6 3 10 20 10 37 0 37 23 57 66 58 42 0
63 37 46 84 -15 40 -15 89 -2 102 7 7 9 81 5 217 -3 114 -7 300 -10 414 -4
136 -2 210 5 217 5 5 10 18 10 27 0 10 4 19 9 21 6 2 11 32 12 68 2 61 11 104
30 141 10 22 9 168 -2 174 -10 7 10 55 23 55 6 0 7 31 4 73 -7 106 -17 167
-26 167 -4 0 -10 15 -13 33 -3 17 -10 52 -16 77 -5 25 -8 60 -4 78 3 20 1 32
-6 32 -6 0 -11 19 -11 44 0 25 -4 48 -10 51 -5 3 -10 27 -10 53 -1 26 -7 58
-14 71 -9 16 -12 51 -9 115 l5 91 -24 25 c-27 29 -62 50 -83 50 -12 0 -15 14
-15 70 l0 70 -24 0 c-13 0 -27 -7 -30 -16z"/>
</g>
</svg>
