<?xml version="1.0" standalone="no"?>
<!DOCTYPE svg PUBLIC "-//W3C//DTD SVG 20010904//EN"
 "http://www.w3.org/TR/2001/REC-SVG-20010904/DTD/svg10.dtd">
<svg version="1.0" xmlns="http://www.w3.org/2000/svg"
 width="446.430845pt" height="221.940898pt" viewBox="0 0 446.430845 221.940898"
 preserveAspectRatio="xMidYMid meet">
<metadata>
Created by Potrace Professional 1.0m
</metadata>
<g transform="translate(-1.569155,224.064120) rotate(-360.00) scale(0.100000,-0.100000)"
fill="#000000" stroke="none">
<path d="M3780 2200 l0 -40 -20 0 c-16 0 -20 7 -20 30 l0 30 -26 0 -26 0 6
-26 c5 -20 3 -27 -14 -31 -14 -4 -20 -14 -20 -33 0 -20 -6 -31 -20 -35 l-20
-6 0 -90 c0 -50 -4 -89 -10 -89 -5 0 -30 21 -55 46 l-45 47 -19 -22 c-23 -27
-51 -28 -51 -1 0 11 -4 20 -8 20 -14 0 -32 -23 -32 -42 0 -10 -4 -18 -10 -18
-5 0 -10 9 -10 20 0 13 -7 20 -20 20 -13 0 -20 -7 -20 -20 0 -15 -7 -20 -26
-20 l-25 0 6 20 6 20 -29 0 c-30 0 -31 -1 -51 -64 l-7 -20 -57 3 c-35 1 -57
-2 -57 -8 0 -7 -27 -11 -70 -11 l-70 0 0 20 c0 22 -35 29 -42 8 -2 -6 -33 -15
-67 -19 -35 -4 -67 -13 -71 -20 -6 -8 -20 -10 -51 -4 -39 7 -150 10 -196 5
-40 -5 -125 11 -139 25 -19 19 -34 19 -34 1 0 -19 -34 -21 -271 -18 l-206 3
-12 27 -13 26 31 26 c39 31 39 40 1 40 -16 0 -30 5 -30 10 0 6 -11 10 -24 10
-14 0 -28 -4 -31 -10 -8 -13 -62 -13 -67 0 -1 5 -17 14 -35 19 l-32 9 -15 -24
c-19 -27 -20 -56 -5 -71 6 -6 9 -21 7 -34 -2 -18 -10 -25 -30 -27 -16 -2 -28
-8 -28 -13 0 -5 -19 -9 -41 -9 l-41 0 5 30 c7 32 -2 43 -27 34 -9 -4 -16 -18
-16 -33 l0 -27 -36 -15 c-20 -7 -48 -30 -63 -49 -14 -19 -28 -37 -31 -40 -14
-14 -30 -52 -30 -71 0 -41 -19 -46 -176 -52 -82 -2 -156 -7 -164 -11 -8 -3
-121 -8 -250 -10 -129 -3 -298 -8 -375 -11 l-139 -7 -27 -19 c-15 -10 -31 -19
-36 -19 -4 0 -14 -15 -21 -32 -8 -18 -18 -43 -24 -54 -9 -20 -8 -75 3 -114 3
-10 -5 -16 -24 -18 l-27 -3 0 -70 0 -69 20 0 c11 0 20 -4 20 -10 0 -5 -4 -10
-9 -10 -5 0 -13 -10 -17 -22 -6 -20 15 -48 38 -48 11 0 78 69 78 80 0 26 46 6
86 -37 l45 -47 -4 -36 c-2 -19 -6 -40 -9 -45 -8 -14 -4 -117 6 -133 4 -7 3
-19 -4 -27 -7 -8 -8 -20 -4 -27 8 -13 8 -32 -2 -77 l-5 -23 -25 5 c-18 3 -30
-2 -43 -19 -14 -17 -29 -24 -55 -24 l-36 0 0 20 c0 13 7 20 20 20 11 0 20 5
20 10 0 13 -26 13 -51 -1 -14 -7 -18 -16 -14 -30 l6 -19 -50 0 c-54 0 -60 -8
-53 -63 l4 -27 42 -2 c22 -1 51 -2 63 -2 14 0 24 -8 28 -23 4 -18 12 -23 35
-23 17 0 30 -4 30 -10 0 -5 18 -10 40 -10 l40 0 0 -81 0 -81 -42 6 c-24 3 -61
8 -83 12 l-41 6 -27 -28 c-19 -19 -27 -35 -23 -49 3 -11 6 -25 6 -31 0 -14 30
-48 54 -61 14 -8 26 -8 40 0 49 24 57 27 85 27 35 0 41 -13 41 -90 0 -71 -6
-90 -31 -90 -10 0 -19 -4 -19 -10 0 -5 -24 -10 -54 -10 -61 0 -96 -23 -52 -34
32 -8 306 -5 306 3 0 4 1731 6 1955 1 55 -1 35 -1 1108 -6 653 -3 957 -1 957
6 0 5 -9 10 -19 10 -11 0 -38 10 -60 22 l-41 22 0 38 0 38 -39 0 c-22 0 -46 6
-53 14 -76 78 -108 140 -108 209 0 26 -4 56 -10 66 -6 12 -5 29 3 51 9 26 9
34 0 37 -14 5 -7 90 10 110 5 8 32 13 63 13 l54 0 0 -29 c0 -17 -4 -33 -10
-36 -5 -3 -10 -19 -10 -35 0 -16 -4 -32 -10 -35 -6 -3 -10 -52 -10 -112 l0
-105 20 -5 c12 -3 20 -14 20 -27 0 -13 3 -25 6 -29 7 -6 63 49 80 79 17 30 10
173 -9 211 -9 18 -17 39 -17 48 0 8 -4 15 -10 15 -7 0 -10 223 -10 650 0 427
3 650 10 650 14 0 12 34 -2 48 -10 10 -10 17 0 32 6 11 12 49 12 86 0 67 -13
94 -44 94 -9 0 -16 5 -16 10 0 6 5 10 10 10 6 0 10 5 10 10 0 6 -13 10 -30 10
l-30 0 0 -24 c0 -14 5 -28 10 -31 6 -3 10 -28 10 -56 l0 -49 -30 0 c-16 0 -30
5 -30 10 0 6 -27 10 -60 10 -33 0 -60 4 -60 10 0 6 -7 10 -16 10 -15 0 -74 55
-74 69 0 3 9 12 20 19 41 26 11 66 -33 44 -12 -6 -31 -12 -42 -14 l-19 -3 3
-46 c1 -31 -2 -48 -11 -51 -20 -7 -88 3 -88 13 0 5 5 9 10 9 6 0 10 5 10 10 0
6 -9 10 -20 10 -25 0 -26 16 -1 23 26 6 34 55 10 67 -36 20 -49 12 -49 -30z
m485 -211 c4 -6 9 -64 12 -130 5 -120 0 -137 -28 -102 -11 13 -11 17 -1 20 15
6 17 89 2 98 -5 3 -10 15 -10 26 0 10 -4 19 -10 19 -5 0 -10 9 -10 20 0 11 -4
20 -10 20 -5 0 -10 -13 -10 -29 0 -31 -30 -66 -37 -43 -3 6 -14 12 -24 12 -37
0 -59 19 -59 50 l0 30 60 0 c33 0 60 4 60 10 0 13 57 13 65 -1z m-2470 -49 c3
-5 -2 -21 -11 -35 -13 -20 -19 -23 -30 -14 -15 12 -19 41 -7 52 10 10 41 8 48
-3z m-192 -134 c17 -14 24 -56 8 -56 -5 0 -14 7 -21 15 -7 8 -19 15 -26 15
-16 0 -16 2 -8 24 7 19 23 20 47 2z m1072 1 c17 -2 35 1 41 5 16 12 89 -6 109
-26 l16 -16 -15 -15 c-8 -8 -20 -15 -26 -15 -17 0 -40 -26 -40 -44 l0 -16
-166 0 c-167 0 -194 6 -194 39 0 20 -17 11 -28 -14 l-12 -25 -235 0 -236 0
-16 16 -16 15 27 28 c27 28 26 41 -6 41 -11 0 -18 7 -18 20 l0 21 393 -5 c215
-3 406 -7 422 -9z m1505 -57 c0 -27 -4 -50 -10 -50 -5 0 -10 23 -10 50 0 28 5
50 10 50 6 0 10 -22 10 -50z m-2694 -32 l-1 -63 -22 -3 -23 -3 0 38 c0 44 19
93 36 93 7 0 11 -22 10 -62z m2132 34 c2 -7 -6 -12 -17 -12 -21 0 -27 11 -14
24 9 9 26 2 31 -12z m-2238 -72 c0 -11 -4 -20 -10 -20 -5 0 -10 9 -10 20 0 11
5 20 10 20 6 0 10 -9 10 -20z m2900 -51 c0 -27 -4 -49 -10 -49 -5 0 -10 14
-10 30 0 17 -4 30 -10 30 -14 0 -13 23 2 38 19 19 28 3 28 -49z m-96 35 c3 -8
3 -26 0 -40 -8 -30 -44 -34 -44 -4 0 11 5 20 10 20 6 0 10 9 10 20 0 24 15 27
24 4z m-2204 -36 c0 -13 188 -10 210 4 15 10 22 10 32 0 15 -15 141 -16 168
-2 12 6 21 6 25 1 3 -6 109 -10 248 -10 133 0 258 -5 277 -11 23 -7 36 -7 38
0 2 5 12 10 23 10 14 0 19 -7 19 -30 l0 -30 -29 0 c-16 0 -31 -4 -33 -8 -1 -4
-19 -19 -38 -32 l-34 -24 -70 3 c-39 1 -73 6 -76 11 -3 5 -41 11 -85 14 -44 3
-116 10 -160 15 -44 6 -116 15 -160 20 -44 6 -116 15 -160 21 -78 11 -228 28
-252 29 -7 1 -10 7 -7 14 5 15 64 19 64 5z m1160 -18 c0 -5 -4 -10 -10 -10 -5
0 -10 5 -10 10 0 6 5 10 10 10 6 0 10 -4 10 -10z m-1790 -65 c18 -35 35 -53
55 -60 17 -5 36 -16 44 -23 l13 -13 -22 -24 c-30 -32 -74 -49 -96 -37 -11 6
-26 6 -44 -1 l-28 -11 -17 18 c-10 9 -35 25 -56 34 -22 9 -39 20 -39 24 0 5
-9 8 -20 8 -11 0 -20 4 -20 8 0 4 -27 14 -60 21 -33 8 -60 17 -60 21 0 23
-287 37 -387 19 -40 -7 -73 -17 -73 -21 0 -4 -9 -8 -19 -8 -11 0 -23 -4 -26
-10 -3 -5 -21 -10 -39 -10 l-33 0 -8 33 c-12 49 -12 52 12 52 12 0 25 4 29 8
4 4 101 7 215 7 130 0 210 4 214 10 4 7 84 9 223 8 l216 -3 26 -50z m50 45 c0
-5 -4 -10 -10 -10 -5 0 -10 5 -10 10 0 6 5 10 10 10 6 0 10 -4 10 -10z m140
-10 c0 -13 -7 -20 -20 -20 -23 0 -25 5 -7 25 17 20 27 18 27 -5z m475 -16 c39
-3 79 -9 90 -14 11 -5 52 -11 90 -14 39 -3 104 -10 145 -16 41 -6 111 -14 155
-19 44 -5 107 -14 140 -20 33 -6 93 -14 133 -17 l72 -7 0 -38 c0 -24 -5 -39
-12 -40 -7 0 -195 0 -418 1 -267 1 -411 5 -425 12 -26 14 -105 100 -105 114 0
6 -9 19 -20 29 -11 10 -20 25 -20 33 l0 15 53 -7 c28 -4 84 -9 122 -12z m1705
-64 l0 -80 -19 0 c-11 0 -21 6 -24 13 -3 10 -9 10 -26 0 -11 -7 -26 -13 -32
-13 -13 0 -39 25 -39 39 0 17 33 52 58 62 15 6 22 17 22 34 l0 25 30 0 30 0 0
-80z m160 5 c0 -37 -4 -65 -10 -65 -6 0 -10 28 -10 65 0 37 4 65 10 65 6 0 10
-28 10 -65z m140 -15 c0 -56 -3 -70 -15 -70 -8 0 -15 8 -16 18 0 9 -2 31 -3
47 -3 32 12 75 26 75 4 0 8 -31 8 -70z m-627 12 c34 -52 42 -82 23 -82 -10 0
-16 9 -16 24 0 28 -24 40 -50 26 -10 -6 -21 -10 -24 -10 -11 0 -6 66 5 77 17
17 34 6 62 -35z m-173 32 c0 -3 -7 -13 -16 -21 l-16 -16 -8 13 c-5 8 -6 18 -4
22 6 9 44 11 44 2z m580 -44 c0 -23 -4 -30 -20 -30 -16 0 -20 7 -20 30 0 23 4
30 20 30 16 0 20 -7 20 -30z m372 13 c19 -17 23 -49 9 -72 l-9 -14 -16 16
c-15 15 -23 87 -9 87 3 0 15 -7 25 -17z m108 -13 c0 -16 -4 -30 -10 -30 -5 0
-10 14 -10 30 0 17 5 30 10 30 6 0 10 -13 10 -30z m-3660 0 c0 -5 -4 -10 -10
-10 -5 0 -10 5 -10 10 0 6 5 10 10 10 6 0 10 -4 10 -10z m100 0 c0 -5 -13 -10
-30 -10 -16 0 -30 5 -30 10 0 6 14 10 30 10 17 0 30 -4 30 -10z m40 0 c0 -5
-7 -10 -16 -10 -8 0 -12 5 -9 10 3 6 10 10 16 10 5 0 9 -4 9 -10z m175 -42
c22 -6 44 -15 50 -20 5 -4 18 -8 30 -8 20 -1 55 -22 55 -33 0 -4 -78 -6 -172
-4 l-173 2 -3 37 -3 36 23 5 c34 7 147 -2 193 -15z m825 7 c0 -8 4 -15 9 -15
5 0 11 -8 15 -17 3 -10 9 -24 12 -30 4 -10 -18 -13 -95 -13 -74 0 -101 3 -101
13 1 20 26 47 44 47 9 0 16 4 16 9 0 6 17 12 38 14 20 2 43 4 50 5 6 1 12 -5
12 -13z m-1100 -46 l0 -29 -90 0 c-49 0 -90 3 -90 6 0 13 30 34 49 34 11 0 23
5 26 10 3 6 19 10 35 10 16 0 32 5 35 10 11 18 35 -10 35 -41z m3120 21 c0 -5
-2 -10 -4 -10 -3 0 -8 5 -11 10 -3 6 -1 10 4 10 6 0 11 -4 11 -10z m500 -30
c0 -11 -4 -20 -10 -20 -5 0 -10 9 -10 20 0 11 5 20 10 20 6 0 10 -9 10 -20z
m-3800 -90 c0 -5 -4 -10 -9 -10 -6 0 -13 5 -16 10 -3 6 1 10 9 10 9 0 16 -4
16 -10z m40 0 c0 -5 -4 -10 -10 -10 -5 0 -10 5 -10 10 0 6 5 10 10 10 6 0 10
-4 10 -10z m3761 -217 c2 -122 0 -225 -4 -229 -12 -13 -45 26 -40 47 3 10 1
19 -5 19 -13 0 -42 -28 -42 -41 0 -5 -6 -9 -14 -9 -17 0 -23 38 -31 209 -4 97
-2 142 7 163 16 36 31 31 42 -15 12 -47 38 -49 54 -4 7 18 12 42 12 54 0 18
10 37 16 30 2 -1 4 -102 5 -224z m-797 211 c18 -7 23 -64 6 -64 -5 0 -10 -9
-10 -20 0 -27 -12 -25 -38 5 -27 31 -29 72 -4 78 27 7 29 7 46 1z m536 -57
c-1 -47 -16 -87 -34 -87 -4 0 -4 9 -1 21 12 38 13 94 1 102 -8 5 -7 10 4 16
23 15 30 3 30 -52z m-300 -47 c0 -44 -3 -80 -7 -80 -9 0 -33 49 -33 67 0 7 -4
13 -10 13 -5 0 -10 18 -10 40 l0 40 30 0 30 0 0 -80z m-1191 48 c15 -9 28 -9
60 2 27 9 60 11 103 6 69 -8 67 -8 150 0 55 6 118 -10 118 -28 0 -5 9 -8 19
-8 11 0 22 -4 25 -9 3 -5 25 -5 48 0 65 12 68 12 68 -22 l0 -30 -107 5 c-60 2
-120 7 -134 11 -16 4 -30 2 -33 -4 -9 -14 -66 -14 -66 -1 0 6 -24 10 -60 8
-33 -1 -60 -6 -60 -10 0 -9 -76 -5 -86 5 -4 4 -30 7 -57 7 l-49 0 -5 20 c-3
11 -9 20 -14 20 -5 0 -9 9 -9 20 l0 20 35 0 c19 0 44 -5 54 -12z m811 2 c0 -5
-13 -10 -30 -10 -16 0 -30 5 -30 10 0 6 14 10 30 10 17 0 30 -4 30 -10z m443
-31 l6 -22 45 5 46 6 0 -62 c0 -71 -10 -86 -58 -86 -49 0 -57 15 -57 103 -1
75 7 99 18 56z m-2441 -13 c16 -23 5 -26 -102 -26 -67 0 -110 4 -110 10 0 6 7
10 15 10 8 0 15 4 15 9 0 5 10 12 23 14 36 7 151 -5 159 -17z m-422 -1 c40 -4
42 -4 35 -15 -3 -6 -48 -10 -101 -10 -56 0 -94 4 -94 10 0 6 23 10 50 10 30 0
50 4 50 11 0 7 7 8 18 4 9 -4 28 -9 42 -10z m800 4 c38 -7 67 -16 64 -20 -3
-5 -75 -9 -160 -9 -121 0 -159 3 -170 14 -8 8 -14 17 -14 20 0 11 209 6 280
-5z m-1042 -17 c3 -9 -20 -12 -87 -11 -50 0 -91 4 -91 9 0 19 171 21 178 2z
m2856 -143 c61 -11 71 -14 116 -40 36 -20 90 -79 90 -98 -1 -23 -24 -51 -44
-51 -21 0 -20 -6 4 -32 11 -12 20 -27 20 -32 0 -14 -71 -37 -85 -28 -5 4 -35
6 -65 4 -71 -4 -225 -2 -727 7 l-43 1 0 53 c0 51 -17 107 -32 107 -5 0 -8 5
-8 10 0 6 18 10 39 10 22 0 41 4 43 9 2 4 39 4 83 -1 44 -5 163 -8 265 -6
l185 3 3 48 3 47 46 0 c26 0 74 -5 107 -11z m-2868 -79 c15 0 27 -10 38 -32
21 -41 21 -98 1 -98 -21 0 -125 104 -125 125 l0 18 31 -7 c17 -3 42 -6 55 -6z
m634 4 c0 -11 -29 -34 -44 -34 -8 0 -18 -4 -21 -10 -3 -5 -17 -10 -31 -10 -13
0 -24 -4 -24 -8 0 -5 -23 -15 -51 -22 -27 -8 -52 -18 -55 -22 -3 -4 -16 -8
-29 -8 -13 0 -27 -4 -30 -10 -3 -5 -17 -10 -30 -10 -13 0 -27 -4 -30 -10 -6
-10 -55 -14 -55 -5 0 9 25 50 34 57 5 3 15 4 22 1 8 -3 20 2 29 10 17 17 20
47 5 47 -19 0 -10 21 13 30 24 9 297 14 297 4z m420 -44 c0 -16 5 -30 10 -30
6 0 10 -7 10 -15 0 -8 15 -21 34 -29 l34 -14 61 21 61 21 25 -24 c26 -24 35
-83 15 -95 -5 -3 -10 1 -10 10 0 16 -38 37 -52 28 -5 -2 -8 -18 -8 -35 l0 -30
25 4 25 5 -6 -20 c-3 -11 -16 -30 -28 -41 l-21 -22 -80 4 c-105 4 -195 5 -530
1 -154 -2 -297 0 -318 4 l-37 8 10 19 c6 12 21 20 35 20 13 0 27 5 30 10 4 6
92 10 231 10 l225 0 -3 18 -3 17 -143 3 c-83 1 -142 7 -142 12 0 6 11 10 25
10 14 0 25 3 25 8 0 8 49 32 67 32 7 0 13 -9 13 -20 0 -28 5 -26 49 20 21 22
47 40 57 40 11 0 25 5 31 11 14 14 43 -10 43 -34 0 -22 52 -28 74 -9 14 13 20
14 23 5 3 -7 15 -13 28 -13 13 0 27 -4 30 -10 3 -5 15 -10 26 -10 10 0 19 -4
19 -10 0 -5 14 -10 30 -10 17 0 30 -4 30 -10 0 -5 16 -10 35 -10 19 0 35 2 35
4 0 18 -15 36 -30 36 -11 0 -22 5 -25 10 -3 6 -22 10 -41 10 -19 0 -34 5 -34
10 0 6 -13 10 -30 10 -16 0 -30 5 -30 10 0 6 -6 10 -13 10 -7 0 -24 10 -36 22
l-23 21 23 18 c17 13 42 19 87 19 l62 0 0 -30z m2280 -10 c0 -11 -4 -20 -10
-20 -5 0 -10 9 -10 20 0 11 5 20 10 20 6 0 10 -9 10 -20z m-1545 -10 c-3 -5
-10 -10 -16 -10 -5 0 -9 5 -9 10 0 6 7 10 16 10 8 0 12 -4 9 -10z m83 -12 c-2
-13 -7 -23 -13 -23 -5 0 -11 10 -13 23 -2 15 2 22 13 22 11 0 15 -7 13 -22z
m122 -33 c0 -25 -4 -45 -10 -45 -5 0 -10 20 -10 45 0 25 5 45 10 45 6 0 10
-20 10 -45z m-324 10 c-5 -19 0 -31 19 -49 41 -39 33 -46 -55 -46 l-80 0 0 16
c0 19 68 84 87 84 7 0 13 5 13 10 0 6 5 10 11 10 7 0 9 -10 5 -25z m1884 -45
c0 -5 -4 -10 -10 -10 -5 0 -10 5 -10 10 0 6 5 10 10 10 6 0 10 -4 10 -10z
m-218 -82 c2 -46 2 -125 0 -175 l-4 -93 -20 0 -20 0 6 48 c8 57 8 95 0 185 -4
45 -2 67 5 67 6 0 11 11 11 25 0 14 4 25 9 25 5 0 11 -37 13 -82z m-3442 -29
c0 -6 -7 -17 -15 -26 -12 -12 -19 -13 -30 -3 -20 17 -19 23 8 36 24 11 37 9
37 -7z m1775 11 c3 -5 1 -10 -4 -10 -6 0 -11 5 -11 10 0 6 2 10 4 10 3 0 8 -4
11 -10z m705 1 c0 -17 408 -29 582 -16 32 2 60 0 63 -5 11 -18 -6 -50 -26 -50
-12 0 -19 -7 -19 -20 0 -11 3 -20 8 -20 8 0 32 -48 32 -66 0 -7 6 -14 13 -17
31 -11 -10 -20 -84 -18 -59 1 -84 -2 -94 -13 -8 -8 -15 -17 -15 -20 0 -3 49
-6 108 -6 106 0 132 -7 132 -36 0 -20 -107 -124 -129 -124 -11 0 -23 -4 -26
-10 -3 -5 -19 -10 -36 -10 -16 0 -29 -4 -29 -10 0 -5 -9 -10 -20 -10 -16 0
-20 7 -20 30 0 24 -4 30 -21 30 l-22 0 6 -40 5 -40 -18 0 c-10 0 -22 -9 -25
-20 -3 -11 -15 -20 -26 -20 -10 0 -19 -4 -19 -10 0 -5 -7 -10 -15 -10 -13 0
-14 4 -5 20 6 11 16 20 23 20 13 0 37 54 37 83 0 9 5 17 10 17 6 0 10 28 10
64 0 36 -4 68 -10 71 -5 3 -10 17 -10 29 0 37 -96 129 -150 146 -25 7 -49 17
-55 22 -12 11 -81 10 -103 -1 -9 -5 -34 -17 -54 -25 -44 -19 -118 -88 -118
-110 0 -8 -4 -18 -10 -21 -5 -3 -10 -17 -10 -31 0 -13 -5 -24 -11 -24 -7 0
-10 -20 -7 -57 l3 -58 -32 -3 -33 -3 0 30 c0 18 5 31 12 31 9 0 9 3 0 12 -7 7
-12 20 -12 29 0 10 -4 19 -10 21 -11 4 -15 53 -12 181 l2 97 120 0 c66 0 120
-4 120 -9z m-1590 -118 c0 -8 -13 -33 -48 -96 -15 -25 -22 -55 -22 -87 0 -53
19 -130 32 -130 5 0 8 -10 8 -23 0 -22 31 -57 50 -57 6 0 10 -4 10 -10 0 -5 9
-10 21 -10 14 0 19 -5 17 -17 -3 -14 -13 -18 -43 -17 -22 1 -60 2 -85 3 -59 2
-70 10 -72 53 -2 53 -26 60 -183 57 l-130 -3 -4 19 c-6 37 -41 42 -41 7 0 -26
-81 -40 -232 -42 l-128 -1 0 60 0 61 20 0 c16 0 20 7 20 30 0 33 -16 39 -50
18 -15 -10 -22 -10 -32 0 -6 6 -20 12 -30 12 -10 0 -18 4 -18 9 0 12 29 41 40
41 5 0 30 20 54 45 l45 45 46 0 c25 0 45 -4 45 -10 0 -5 9 -10 20 -10 13 0 20
7 20 20 l0 20 320 0 c207 0 320 4 320 10 0 6 7 10 15 10 8 0 15 -3 15 -7z
m230 -3 c0 -5 9 -10 19 -10 26 0 34 -15 19 -32 -7 -7 -19 -25 -27 -40 -22 -44
-55 -37 -86 17 l-26 44 13 15 c14 17 88 22 88 6z m220 -9 c0 -11 6 -21 13 -24
8 -3 9 -8 1 -16 -7 -8 -19 -4 -42 15 -40 33 -40 44 -2 44 23 0 30 -5 30 -19z
m263 13 c8 -8 -3 -34 -14 -34 -5 0 -9 9 -9 20 0 19 11 26 23 14z m1060 -28
c24 -18 22 -26 -17 -70 l-34 -40 -13 15 c-24 26 -39 58 -39 84 l0 25 43 0 c23
0 50 -7 60 -14z m-878 -20 c17 -17 9 -26 -22 -26 -16 0 -23 6 -23 20 0 23 25
27 45 6z m723 -13 c6 -15 12 -33 12 -40 0 -7 5 -13 10 -13 6 0 10 -13 10 -30
l0 -30 -44 0 c-24 0 -50 -2 -58 -5 -23 -9 -41 11 -34 38 5 23 73 106 86 107 3
0 11 -12 18 -27z m-1519 -20 c8 -16 17 -36 22 -45 20 -40 12 -48 -51 -48 l-60
0 0 30 c0 17 5 30 10 30 6 0 10 7 10 15 0 21 21 44 41 45 9 0 21 -12 28 -27z
m261 -4 c4 -8 12 -24 18 -36 16 -30 15 -53 0 -53 -21 0 -84 24 -86 33 -5 20 0
35 19 56 22 24 38 24 49 0z m1505 -14 c31 -30 33 -71 5 -80 -26 -8 -100 4
-100 16 0 5 3 9 8 9 4 0 18 18 32 40 14 22 26 40 28 40 2 0 14 -11 27 -25z
m605 -75 c0 -22 -4 -40 -10 -40 -5 0 -10 18 -10 40 0 22 5 40 10 40 6 0 10
-18 10 -40z m-1770 16 c0 -15 -14 -35 -21 -30 -15 9 -10 34 6 34 8 0 15 -2 15
-4z m110 -6 c0 -5 -9 -10 -20 -10 -11 0 -20 5 -20 10 0 6 9 10 20 10 11 0 20
-4 20 -10z m320 -20 c0 -5 -4 -10 -10 -10 -5 0 -10 5 -10 10 0 6 5 10 10 10 6
0 10 -4 10 -10z m1420 -18 c0 -34 -7 -43 -26 -35 -17 6 -18 29 -1 48 19 22 27
18 27 -13z m-2420 -52 c0 -11 -3 -20 -8 -20 -4 0 -13 -13 -20 -30 -8 -16 -21
-30 -29 -30 -22 0 -63 51 -63 78 l0 22 60 0 60 0 0 -20z m1760 -6 c0 -16 -13
-39 -35 -61 l-34 -34 -23 23 c-31 31 -52 74 -44 87 4 6 36 11 72 11 l64 0 0
-26z m-1590 -9 c7 -14 17 -25 22 -25 4 0 8 -9 8 -21 0 -15 -5 -20 -22 -17 -23
3 -62 63 -53 79 11 17 31 9 45 -16z m1330 5 c0 -5 -3 -10 -8 -10 -4 0 -13 -13
-20 -30 -13 -28 -52 -43 -52 -20 0 6 5 10 10 10 6 0 10 7 10 15 0 9 6 22 13
30 14 16 47 20 47 5z m80 -20 c0 -5 -7 -10 -15 -10 -8 0 -15 5 -15 10 0 6 7
10 15 10 8 0 15 -4 15 -10z m-1480 -40 c0 -5 -4 -10 -10 -10 -5 0 -10 5 -10
10 0 6 5 10 10 10 6 0 10 -4 10 -10z m1500 -5 c0 -8 -4 -15 -10 -15 -5 0 -10
7 -10 15 0 8 5 15 10 15 6 0 10 -7 10 -15z m-1100 -15 c0 -14 37 -12 44 3 5
10 7 10 12 0 3 -7 19 -13 35 -13 29 0 41 -22 19 -35 -19 -12 2 -27 27 -20 26
6 73 -17 73 -35 0 -6 -99 -10 -265 -10 -146 0 -265 2 -265 5 0 9 54 54 65 55
6 0 16 9 23 20 l12 20 100 0 c60 0 100 4 100 10 0 6 5 10 10 10 6 0 10 -4 10
-10z m600 -39 c0 -17 5 -33 10 -36 6 -3 10 -13 10 -21 0 -11 -18 -14 -90 -14
-49 0 -90 3 -90 6 0 9 39 42 73 62 15 9 27 20 27 24 0 4 14 8 30 8 l30 0 0
-29z m80 -1 l0 -30 -30 0 c-32 0 -40 19 -17 45 22 26 47 18 47 -15z m161 16
c44 -19 79 -49 79 -70 l0 -16 -96 0 c-74 0 -99 4 -111 16 l-16 16 34 33 c38
38 60 42 110 21z m239 -36 c0 -5 -4 -10 -10 -10 -5 0 -10 5 -10 10 0 6 5 10
10 10 6 0 10 -4 10 -10z m-2505 -40 c4 -6 -33 -10 -104 -10 -67 0 -111 4 -111
10 0 6 41 10 104 10 59 0 108 -4 111 -10z m75 0 c0 -5 -7 -10 -15 -10 -8 0
-15 5 -15 10 0 6 7 10 15 10 8 0 15 -4 15 -10z m3170 0 c0 -6 -47 -10 -120
-10 -73 0 -120 4 -120 10 0 6 47 10 120 10 73 0 120 -4 120 -10z m-140 -120
c0 -5 -4 -10 -10 -10 -5 0 -10 5 -10 10 0 6 5 10 10 10 6 0 10 -4 10 -10z"/>
<path d="M3812 1148 c-18 -18 -15 -28 8 -28 13 0 20 7 20 20 0 23 -10 26 -28
8z"/>
</g>
</svg>
