<?xml version="1.0" standalone="no"?>
<!DOCTYPE svg PUBLIC "-//W3C//DTD SVG 20010904//EN"
 "http://www.w3.org/TR/2001/REC-SVG-20010904/DTD/svg10.dtd">
<svg version="1.0" xmlns="http://www.w3.org/2000/svg"
 width="312.000000pt" height="285.945534pt" viewBox="0 0 312.000000 285.945534"
 preserveAspectRatio="xMidYMid meet">
<metadata>
Created by Potrace Professional 1.0m
</metadata>
<g transform="translate(-2.000000,285.962735) rotate(-360.00) scale(0.100000,-0.100000)"
fill="#000000" stroke="none">
<path d="M1594 2847 c-11 -14 -13 -62 -1 -73 11 -11 9 -112 -3 -119 -5 -3 -10
-21 -10 -40 0 -19 5 -37 10 -40 6 -3 10 -40 10 -81 0 -41 4 -74 9 -74 9 0 12
-20 30 -185 5 -44 12 -92 16 -107 5 -18 3 -28 -4 -28 -7 0 -11 -36 -11 -110 0
-67 -4 -110 -10 -110 -5 0 -10 -6 -10 -12 0 -7 -14 -27 -30 -45 -17 -18 -30
-36 -30 -41 0 -4 -16 -25 -35 -46 l-34 -38 -22 21 c-13 12 -30 21 -39 21 -9 0
-26 9 -38 20 -12 11 -28 20 -37 20 -8 0 -15 4 -15 8 0 5 -12 15 -27 23 -16 8
-37 22 -47 32 -11 9 -32 17 -47 17 -15 0 -31 5 -34 10 -3 6 -15 10 -26 10 -10
0 -19 5 -19 10 0 6 -9 10 -20 10 -11 0 -20 3 -20 8 0 4 -12 13 -27 20 -34 15
-213 17 -213 1 0 -6 -10 -9 -22 -7 l-23 3 3 40 c2 29 -2 46 -17 62 -12 12 -21
27 -21 33 0 32 -86 80 -143 80 -40 0 -97 -35 -97 -60 0 -6 -9 -20 -20 -32 -15
-16 -20 -36 -20 -75 0 -29 5 -53 10 -53 6 0 10 -9 10 -20 0 -11 5 -20 10 -20
27 0 3 -38 -70 -108 -44 -43 -80 -85 -80 -95 0 -9 -4 -17 -10 -17 -5 0 -10 -6
-10 -13 0 -7 -8 -22 -18 -33 -28 -32 -42 -62 -42 -89 0 -14 -4 -25 -10 -25 -5
0 -10 -9 -10 -20 0 -11 -4 -20 -10 -20 -5 0 -10 -9 -10 -19 0 -11 -4 -23 -10
-26 -5 -3 -10 -17 -10 -31 0 -13 -4 -24 -10 -24 -5 0 -10 -7 -10 -16 0 -8 -27
-41 -60 -73 l-60 -58 0 -42 c0 -45 23 -91 46 -91 8 0 14 5 14 10 0 6 14 10 30
10 23 0 30 5 30 19 0 14 8 21 27 23 l28 3 3 57 c2 32 7 58 12 58 6 0 10 7 10
17 0 9 17 33 38 54 l38 37 47 -5 47 -6 7 19 c4 11 17 30 30 44 l23 24 14 -19
c8 -11 20 -36 26 -56 l12 -35 -21 -37 c-12 -21 -21 -47 -21 -57 0 -28 -23
-100 -32 -100 -5 0 -8 -7 -8 -15 0 -8 -13 -29 -30 -47 -19 -20 -30 -41 -30
-60 0 -27 -3 -36 -28 -85 -7 -13 -12 -52 -12 -88 0 -37 -4 -65 -10 -65 -5 0
-10 -7 -10 -15 0 -9 -9 -25 -20 -37 -11 -12 -20 -28 -20 -35 0 -7 -4 -13 -10
-13 -5 0 -10 -11 -10 -24 0 -14 -5 -28 -10 -31 -6 -3 -10 -13 -10 -22 0 -9 -8
-23 -18 -32 -19 -18 -42 -76 -42 -109 0 -11 -4 -24 -10 -27 -5 -3 -10 -22 -10
-42 0 -45 -19 -101 -43 -127 -9 -11 -17 -26 -17 -33 0 -7 -4 -13 -10 -13 -5 0
-10 -7 -10 -15 0 -18 -27 -46 -83 -88 -28 -22 -37 -35 -37 -58 0 -17 6 -37 14
-45 16 -16 76 -19 76 -4 0 6 11 10 25 10 14 0 25 3 25 8 0 8 71 32 97 32 20 0
43 42 43 78 0 41 23 116 42 136 10 11 18 26 18 33 0 7 4 13 9 13 5 0 12 8 15
18 4 9 22 35 41 57 19 22 35 45 35 52 0 7 5 13 10 13 6 0 10 13 10 29 0 17 5
33 10 36 6 3 10 22 10 41 0 19 5 34 10 34 6 0 10 10 11 23 1 35 32 79 71 101
20 12 49 37 64 56 44 53 72 80 84 80 19 0 63 60 77 102 3 10 9 18 13 18 13 0
30 -51 30 -90 0 -21 4 -41 8 -44 5 -3 12 -62 15 -130 6 -136 24 -196 58 -196
11 0 19 -4 19 -9 0 -12 97 -20 157 -12 53 7 83 -1 83 -22 0 -7 9 -19 20 -27
11 -8 20 -20 20 -28 0 -20 47 -62 70 -62 25 0 50 22 50 44 0 8 5 18 10 21 12
8 13 67 2 81 -5 5 -15 42 -22 82 -7 39 -17 72 -22 72 -4 0 -8 9 -8 21 0 37
-38 79 -71 79 -16 0 -29 -4 -29 -10 0 -5 -18 -10 -40 -10 l-40 0 0 84 c0 47 5
88 10 91 14 9 13 347 -1 378 -9 20 -7 36 9 80 l20 55 -12 36 c-6 20 -14 36
-18 36 -5 0 -8 9 -8 20 0 11 -3 20 -7 20 -9 0 -33 49 -33 67 0 7 -4 13 -10 13
-5 0 -10 9 -10 19 0 20 4 21 143 37 30 4 53 2 60 -5 6 -6 21 -11 34 -11 13 0
23 -5 23 -11 0 -6 9 -24 21 -40 l20 -29 68 0 69 0 33 -38 c59 -66 85 -78 174
-80 43 -1 84 -7 89 -12 6 -6 27 -10 47 -10 21 0 41 -5 44 -10 3 -5 35 -10 70
-10 l63 0 4 -127 c3 -86 0 -141 -9 -168 -7 -22 -13 -50 -13 -62 0 -13 -4 -23
-10 -23 -5 0 -10 -9 -10 -20 0 -11 -4 -20 -10 -20 -5 0 -10 -15 -10 -34 0 -19
-4 -37 -9 -40 -4 -3 -11 -34 -15 -68 -25 -221 -21 -239 64 -298 19 -13 37 -27
40 -30 5 -5 17 -12 68 -40 9 -5 49 -23 87 -41 39 -17 81 -36 95 -42 29 -14
130 -110 130 -124 0 -14 -86 -103 -100 -103 -13 0 -40 -25 -40 -37 0 -23 27
-63 43 -63 26 0 97 24 97 32 0 5 9 8 20 8 11 0 20 -4 20 -10 0 -5 -4 -10 -10
-10 -14 0 -12 -29 3 -44 7 -7 23 -18 36 -25 l23 -13 74 24 c41 12 74 26 74 31
0 4 7 7 16 7 18 0 34 15 53 53 8 15 18 27 23 27 12 0 10 65 -4 95 -6 14 -14
25 -18 25 -11 0 -48 81 -55 120 -3 19 -9 54 -12 78 -3 23 -9 42 -14 42 -5 0
-9 15 -9 34 0 19 -4 38 -10 41 -5 3 -10 19 -10 36 0 16 -4 29 -10 29 -5 0 -10
11 -10 24 0 15 -15 38 -40 62 -22 21 -40 46 -40 56 0 10 -4 18 -10 18 -6 0
-10 32 -10 77 l0 77 62 59 61 60 -11 18 c-7 10 -12 28 -12 38 0 11 -4 22 -8
25 -4 3 -14 28 -22 55 -7 28 -17 51 -22 51 -4 0 -8 7 -8 15 0 8 -4 24 -10 35
-5 11 -14 29 -20 40 -5 11 -10 27 -10 35 0 8 -4 15 -10 15 -5 0 -10 7 -10 15
0 20 -19 53 -48 82 -40 42 -52 88 -52 195 0 55 -5 109 -11 120 -19 35 28 88
78 88 7 0 13 5 13 10 0 6 6 10 13 10 7 0 23 9 35 20 12 11 26 20 32 20 23 0
60 57 60 91 0 21 21 49 38 49 5 0 28 18 51 40 22 22 45 40 50 40 11 0 101 88
101 99 0 14 103 115 133 130 15 8 27 18 27 23 0 4 8 8 18 8 10 0 24 9 32 20 8
11 22 20 31 20 19 0 31 23 23 45 -4 8 -1 15 5 15 6 0 11 9 11 20 0 11 -4 20
-10 20 -5 0 -10 9 -10 20 0 13 -7 20 -20 20 -11 0 -25 9 -32 20 -16 25 -36 26
-45 3 -9 -22 -63 -83 -75 -83 -4 0 -8 7 -8 16 0 8 -7 22 -15 30 l-15 15 -15
-15 c-8 -8 -15 -27 -15 -43 0 -31 -20 -83 -32 -83 -5 0 -8 -12 -8 -26 0 -25
-42 -74 -64 -74 -5 0 -22 -16 -39 -35 -27 -32 -77 -65 -99 -65 -5 0 -18 -9
-30 -20 -12 -11 -28 -20 -35 -20 -7 0 -13 -4 -13 -10 0 -5 -13 -10 -29 -10
-17 0 -33 -4 -36 -10 -3 -5 -26 -10 -50 -10 -24 0 -47 -4 -50 -10 -3 -5 -28
-10 -55 -10 -27 0 -52 5 -55 10 -3 6 -19 10 -36 10 -33 0 -33 0 -17 35 9 19 9
28 0 37 -7 7 -12 38 -12 70 0 32 -4 58 -10 58 -5 0 -10 6 -10 13 0 6 -16 29
-34 50 l-34 37 -36 0 c-20 0 -45 6 -56 12 -16 10 -24 10 -40 0 -11 -6 -36 -12
-55 -12 -27 0 -44 -8 -70 -35 -39 -38 -45 -80 -22 -143 10 -28 10 -36 0 -39
-20 -7 -15 -37 7 -53 18 -13 30 -70 14 -70 -9 0 -34 28 -34 38 0 10 -41 93
-50 102 -10 10 -30 50 -30 60 0 6 -9 20 -20 32 -11 12 -20 28 -20 35 0 7 -4
13 -10 13 -5 0 -10 9 -10 20 0 11 -5 20 -11 20 -9 0 -8 120 3 240 l3 35 -27 3
-28 3 0 40 c0 31 -4 39 -17 39 -10 -1 -23 -6 -29 -13z m696 -2037 c7 -27 17
-50 22 -50 4 0 8 -7 8 -16 0 -8 17 -32 38 -52 20 -20 43 -50 51 -67 7 -16 17
-38 22 -47 6 -12 5 -18 -3 -18 -14 0 -48 30 -48 42 0 25 -77 78 -115 78 -14 0
-25 5 -25 10 0 6 -7 10 -15 10 -29 0 -27 31 5 95 18 36 36 65 40 65 3 0 13
-22 20 -50z"/>
<path d="M1866 347 c-31 -19 -60 -50 -76 -81 -17 -33 -17 -139 0 -144 5 -2 10
-9 10 -17 0 -7 18 -24 40 -39 l40 -26 75 0 c91 0 140 25 174 88 14 26 15 132
1 132 -5 0 -10 8 -10 18 0 9 -20 32 -44 50 l-43 32 -74 -1 c-41 0 -83 -6 -93
-12z"/>
</g>
</svg>
