<?xml version="1.0" encoding="UTF-8" ?>
<!DOCTYPE svg PUBLIC "-//W3C//DTD SVG 1.1//EN" "http://www.w3.org/Graphics/SVG/1.1/DTD/svg11.dtd">
<svg width="155pt" height="170pt" viewBox="0 0 155 170" version="1.1" xmlns="http://www.w3.org/2000/svg">
<g id="#ffffffff">
</g>
<g id="#bdbebfff">
<path fill="#bdbebf" opacity="1.00" d=" M 88.44 0.61 C 90.57 1.33 92.73 2.14 94.54 3.53 C 104.29 11.44 113.26 20.49 119.80 31.28 C 122.61 36.10 126.13 40.54 128.28 45.72 C 129.48 48.58 130.71 51.42 132.05 54.21 C 134.38 51.69 136.57 48.97 137.79 45.71 C 140.02 40.09 142.77 34.71 145.22 29.19 C 147.34 24.43 147.19 19.11 148.34 14.10 C 148.65 14.20 149.26 14.39 149.56 14.48 C 152.74 20.43 154.52 27.20 153.99 33.98 C 153.40 40.89 155.55 48.13 152.55 54.70 C 150.27 59.64 149.66 65.67 145.55 69.56 C 139.12 74.00 130.51 72.90 123.95 77.08 C 122.71 77.79 121.98 79.54 122.80 80.83 C 125.05 85.44 129.56 88.33 132.37 92.52 C 133.03 97.41 132.37 102.41 132.71 107.35 C 130.49 104.76 128.73 101.84 126.80 99.05 C 124.84 96.22 121.46 94.78 118.16 94.26 C 111.72 93.23 105.25 92.09 99.06 89.98 C 93.44 87.85 91.60 81.30 86.71 78.20 C 78.60 72.56 68.34 71.96 59.72 67.51 C 62.34 67.33 64.97 67.26 67.60 67.13 C 64.09 64.65 60.04 62.88 57.04 59.72 C 63.03 60.20 67.97 64.01 73.70 65.46 C 79.46 66.98 85.94 69.59 91.69 66.64 C 98.72 62.91 105.61 58.47 110.43 52.00 C 109.01 47.48 108.92 42.73 108.42 38.06 C 107.34 32.20 105.52 26.49 103.27 20.98 C 100.11 12.97 92.05 8.34 88.44 0.61 Z" />
<path fill="#bdbebf" opacity="1.00" d=" M 57.23 93.78 C 69.52 86.33 84.63 88.22 97.80 91.99 C 100.31 92.86 103.78 93.23 104.70 96.18 C 106.10 100.64 104.79 105.34 105.27 109.89 C 105.91 111.34 107.46 112.13 108.95 112.40 C 113.20 110.92 117.19 107.14 122.00 109.02 C 127.45 111.25 132.49 114.41 137.94 116.68 C 133.29 116.75 128.40 116.10 123.97 117.87 C 117.91 120.41 113.98 126.02 108.47 129.39 C 104.76 131.72 100.43 133.16 97.34 136.40 C 87.39 146.59 75.27 154.56 62.18 160.11 C 53.47 163.69 45.09 168.99 35.38 169.11 C 40.59 164.54 46.87 161.52 52.56 157.64 C 57.11 154.58 60.81 150.49 64.76 146.73 C 67.86 143.65 71.35 140.81 73.46 136.91 C 71.63 133.73 67.38 133.87 64.33 132.52 C 64.78 131.86 65.67 130.53 66.12 129.87 C 63.89 129.49 61.66 129.06 59.50 128.37 C 55.89 127.00 54.28 122.72 50.60 121.58 C 43.72 120.76 36.84 122.24 29.95 122.28 C 19.97 122.44 9.61 123.37 0.00 120.03 L 0.00 118.17 C 5.66 118.65 11.35 118.58 16.98 117.79 C 13.93 117.24 10.89 116.55 7.99 115.44 C 15.80 114.01 23.71 115.35 31.55 115.56 C 37.39 115.70 43.18 116.58 49.01 116.71 C 54.26 116.87 59.07 114.41 64.19 113.64 C 70.43 112.71 76.55 110.77 82.91 110.86 C 85.05 110.63 87.72 111.15 89.28 109.29 C 91.64 107.07 92.20 102.75 89.20 100.80 C 80.10 93.57 67.78 96.44 57.23 93.78 Z" />
</g>
</svg>
