<?xml version="1.0" standalone="no"?>
<!DOCTYPE svg PUBLIC "-//W3C//DTD SVG 20010904//EN"
 "http://www.w3.org/TR/2001/REC-SVG-20010904/DTD/svg10.dtd">
<svg version="1.0" xmlns="http://www.w3.org/2000/svg"
 width="179.829293pt" height="110.009575pt" viewBox="0 0 179.829293 110.009575"
 preserveAspectRatio="xMidYMid meet">
<metadata>
Created by Potrace Professional 1.0m
</metadata>
<g transform="translate(-2.170707,112.000000) rotate(-360.00) scale(0.100000,-0.100000)"
fill="#000000" stroke="none">
<path d="M896 1096 c-9 -14 -13 -32 -10 -40 3 -9 1 -16 -5 -16 -23 0 -58 -46
-64 -83 l-6 -38 45 -44 44 -44 0 -51 c0 -48 -11 -78 -37 -107 -21 -24 -38 -13
-61 40 -13 28 -28 60 -33 69 -12 24 -12 98 1 98 6 0 10 21 10 46 0 51 -21 79
-69 91 -14 3 -33 14 -42 25 -19 21 -65 24 -72 4 -3 -8 -3 -23 0 -35 8 -33 -19
-51 -79 -51 -42 0 -57 4 -68 20 -8 12 -26 20 -42 20 l-28 0 0 -61 0 -61 -27 7
c-16 3 -43 9 -60 12 -18 3 -33 9 -33 14 0 17 -70 10 -77 -8 -4 -9 -1 -19 5
-21 16 -5 15 -63 -2 -85 -12 -15 -18 -16 -35 -8 -11 6 -33 11 -48 11 -16 0
-34 5 -40 11 -7 7 -19 9 -27 6 -12 -5 -15 -21 -14 -72 0 -36 5 -65 9 -65 5 0
9 -7 9 -16 0 -23 19 -38 70 -54 45 -14 106 -67 151 -133 13 -17 28 -35 33 -39
7 -5 7 -11 -1 -19 -16 -16 2 -52 38 -73 l29 -17 -10 -19 c-18 -33 -11 -58 20
-77 28 -16 42 -53 20 -53 -14 0 -12 -62 3 -81 26 -35 84 -58 152 -61 37 -1 69
-6 71 -10 8 -12 502 -10 509 2 3 6 40 10 81 10 43 0 74 4 74 10 0 6 11 10 24
10 14 0 28 5 31 10 3 6 21 10 38 10 44 0 87 38 87 78 0 17 -4 34 -10 37 -18
11 -11 37 15 57 16 13 25 29 25 48 0 39 9 60 27 60 25 0 43 27 43 64 0 20 5
36 10 36 6 0 10 7 10 16 0 8 18 33 40 54 22 21 40 43 40 48 0 21 39 42 77 42
l41 0 14 30 c7 17 16 30 20 30 5 0 8 31 8 68 l0 69 -26 11 -25 12 -15 -15 c-8
-8 -31 -17 -52 -21 -20 -4 -40 -12 -44 -18 -4 -6 -11 -7 -15 -2 -4 5 -2 11 5
13 14 5 17 63 2 63 -5 0 -10 9 -10 20 0 11 -5 20 -11 20 -6 0 -9 7 -5 15 16
43 -46 64 -74 25 -8 -11 -22 -20 -32 -20 -10 0 -18 -4 -18 -10 0 -5 -9 -10
-20 -10 -15 0 -20 7 -20 25 0 14 -8 29 -20 35 -14 8 -20 21 -20 46 l0 35 -37
-3 -38 -3 -3 -27 c-2 -20 -9 -28 -23 -28 -10 0 -19 -4 -19 -10 0 -21 -30 -9
-47 20 -9 17 -21 30 -24 30 -4 0 -9 12 -11 28 -5 47 -78 36 -78 -12 0 -9 -7
-16 -16 -16 -27 0 -64 -51 -64 -87 0 -18 5 -33 10 -33 6 0 10 -6 10 -13 0 -8
9 -22 20 -32 21 -19 28 -79 10 -90 -5 -3 -10 -13 -10 -21 0 -22 -43 -84 -58
-84 -31 0 -44 30 -58 141 l-6 47 31 32 c44 47 40 107 -11 151 -10 9 -18 20
-18 25 0 13 -46 64 -58 64 -5 0 -17 -11 -26 -24z m384 -257 c0 -10 5 -19 10
-19 6 0 10 -13 10 -30 0 -16 -4 -30 -10 -30 -5 0 -10 -8 -10 -17 0 -10 -9 -33
-20 -50 -15 -26 -26 -33 -51 -33 l-31 0 6 38 c3 20 8 46 10 57 2 11 5 34 5 50
2 51 81 84 81 34z m-652 1 c12 -11 27 -20 34 -20 21 0 35 -32 42 -95 4 -38 2
-66 -5 -75 -8 -11 -12 -12 -16 -2 -2 6 -11 12 -20 12 -21 0 -65 56 -80 103 -3
9 -9 17 -14 17 -13 0 -11 21 4 53 14 32 26 34 55 7z m840 -47 c15 -32 16 -73
2 -73 -5 0 -10 -7 -10 -16 0 -31 -60 -104 -84 -104 l-16 0 0 75 c0 83 14 125
42 125 10 0 18 5 18 10 0 21 36 8 48 -17z m-1015 -19 c34 -11 47 -21 47 -35 0
-10 5 -19 10 -19 6 0 10 -13 10 -30 0 -16 5 -30 10 -30 6 0 10 -7 10 -16 0
-18 -23 -44 -40 -44 -18 0 -60 31 -60 45 0 7 -3 15 -7 17 -5 2 -18 22 -31 45
l-23 42 13 21 c7 11 13 20 14 20 0 0 21 -7 47 -16z m1179 -32 c-15 -5 -16 -38
-2 -47 17 -11 12 -65 -7 -72 -10 -4 -30 -19 -45 -35 -15 -17 -36 -28 -52 -28
l-26 0 0 24 c0 14 5 28 10 31 6 3 10 19 10 36 0 16 5 29 10 29 6 0 10 7 10 16
0 22 25 44 49 44 11 0 23 5 26 10 4 6 11 7 18 3 8 -5 8 -8 -1 -11z m-1392 -32
c0 -5 16 -10 36 -10 40 0 63 -21 64 -57 0 -13 5 -23 10 -23 6 0 10 -18 10 -40
0 -52 -19 -53 -69 -2 -21 20 -47 42 -57 48 -11 6 -19 16 -18 23 1 6 2 25 3 41
1 27 21 45 21 20z"/>
</g>
</svg>
