<?xml version="1.0" standalone="no"?>
<!DOCTYPE svg PUBLIC "-//W3C//DTD SVG 20010904//EN"
 "http://www.w3.org/TR/2001/REC-SVG-20010904/DTD/svg10.dtd">
<svg version="1.0" xmlns="http://www.w3.org/2000/svg"
 width="288.143776pt" height="149.867809pt" viewBox="0 0 288.143776 149.867809"
 preserveAspectRatio="xMidYMid meet">
<metadata>
Created by Potrace Professional 1.0m
</metadata>
<g transform="translate(-1.856224,152.000000) rotate(-360.00) scale(0.100000,-0.100000)"
fill="#000000" stroke="none">
<path d="M258 1501 c-76 -30 -98 -64 -57 -89 16 -10 24 -11 35 -1 19 16 177
15 182 0 2 -6 10 -11 18 -11 22 0 54 -21 98 -66 55 -54 78 -94 56 -94 -5 0
-10 7 -10 15 0 8 -5 15 -10 15 -6 0 -20 11 -32 25 -12 14 -30 25 -40 25 -10 0
-18 5 -18 10 0 6 -9 10 -20 10 -11 0 -20 3 -20 8 0 13 -78 32 -135 32 -51 0
-79 -9 -150 -47 -11 -6 -32 -16 -47 -24 -19 -8 -28 -20 -28 -36 0 -51 53 -70
92 -33 l22 20 76 0 76 0 22 -20 c12 -11 26 -20 32 -20 17 0 44 -30 35 -38 -4
-4 -10 -1 -12 6 -3 6 -12 12 -22 12 -9 0 -22 5 -27 10 -6 6 -44 11 -84 11 -57
0 -83 -5 -119 -23 -25 -13 -47 -26 -49 -30 -2 -5 -10 -8 -19 -8 -17 0 -43 -24
-43 -41 0 -6 -10 -20 -21 -30 -29 -25 -18 -49 21 -49 20 0 33 6 37 18 11 27
26 39 63 46 19 4 46 9 60 12 14 3 38 -1 54 -9 l28 -15 -58 -8 c-46 -5 -64 -13
-85 -35 -15 -16 -34 -29 -41 -29 -19 0 -62 -84 -55 -104 11 -28 47 -17 87 24
l38 40 71 0 c38 0 72 -4 75 -8 3 -5 -20 -15 -51 -22 -32 -7 -66 -17 -77 -24
-29 -16 -86 -73 -86 -86 0 -13 -20 -49 -43 -74 -27 -32 -21 -46 20 -46 l37 0
42 45 c41 45 64 56 64 32 0 -7 18 -23 40 -37 22 -14 40 -28 40 -32 0 -5 9 -8
20 -8 11 0 20 -4 20 -10 0 -5 11 -10 25 -10 31 0 75 -37 75 -62 l0 -19 -32 3
-33 3 1 -30 c0 -17 -7 -37 -18 -46 -13 -12 -18 -31 -18 -72 0 -31 -5 -59 -10
-62 -6 -3 -10 -15 -10 -26 0 -11 -6 -27 -14 -35 -17 -16 -72 -19 -81 -4 -3 6
-15 10 -26 10 -10 0 -19 5 -19 10 0 6 -7 10 -15 10 -20 0 -105 85 -105 104 0
8 -5 37 -12 65 -9 38 -16 51 -30 51 -21 0 -21 -2 -18 -89 2 -65 10 -88 43
-125 9 -11 17 -25 17 -31 0 -5 18 -21 40 -35 22 -14 40 -28 40 -32 0 -5 14 -8
30 -8 17 0 30 -4 30 -10 0 -5 9 -10 20 -10 11 0 20 -4 20 -10 0 -5 -24 -10
-53 -10 -63 0 -99 -15 -115 -48 -19 -40 1 -47 132 -49 l118 -2 39 -30 c21 -17
44 -31 52 -31 8 0 28 -14 46 -31 41 -39 75 -37 79 6 2 20 -4 38 -19 53 -27 30
-18 38 28 24 21 -6 63 -14 94 -17 31 -3 65 -12 75 -20 21 -15 44 -3 44 22 0
19 -65 83 -85 83 -8 0 -15 5 -15 10 0 6 18 10 40 10 22 0 40 -4 40 -9 0 -10
30 -18 110 -31 117 -19 130 -22 130 -31 0 -5 14 -9 30 -9 17 0 30 -4 30 -10 0
-5 18 -10 40 -10 22 0 40 -4 40 -10 0 -16 30 -12 48 7 12 12 13 18 4 21 -6 2
-12 12 -12 23 0 10 -4 19 -10 19 -5 0 -10 5 -10 10 0 6 23 10 50 10 l50 0 0
26 c0 28 -21 54 -43 54 -9 0 -17 3 -19 8 -5 11 -132 52 -161 52 -14 0 -29 -4
-32 -10 -3 -5 -34 -10 -68 -10 l-62 0 -27 24 c-16 13 -28 28 -28 33 0 15 -24
63 -32 63 -5 0 -8 10 -8 23 0 12 -9 33 -20 47 -12 15 -20 41 -20 66 l0 41 27
14 c15 8 39 26 54 42 31 32 59 36 59 7 l0 -20 44 0 c25 0 48 5 51 10 3 6 15
10 26 10 10 0 19 5 19 10 0 6 10 10 23 10 13 0 34 10 46 22 l24 21 30 -11 30
-11 17 19 c10 11 29 20 43 20 19 0 29 8 39 30 7 17 21 30 31 30 9 0 25 4 35 9
9 5 36 15 60 22 27 8 42 18 42 29 0 17 -43 60 -60 60 -6 0 -26 16 -45 35 -25
24 -35 43 -35 65 0 34 -19 60 -44 60 -9 0 -16 5 -16 10 0 6 -27 10 -60 10 -33
0 -60 -4 -60 -10 0 -5 -18 -10 -40 -10 -22 0 -40 -4 -40 -9 0 -5 -9 -11 -20
-14 -12 -3 -20 -14 -20 -27 0 -39 -25 -53 -85 -48 -30 3 -55 2 -55 -1 0 -3 -7
-15 -15 -25 l-14 -19 -46 24 c-54 29 -59 57 -17 98 32 31 52 64 52 86 0 8 5
15 10 15 6 0 10 28 10 64 0 36 -4 68 -10 71 -5 3 -10 19 -10 36 0 16 -4 29
-10 29 -5 0 -10 7 -10 15 0 17 -43 65 -58 65 -14 0 -62 25 -62 33 0 4 -11 7
-24 7 -14 0 -28 5 -31 10 -3 6 -24 10 -46 10 l-39 0 0 -20 0 -20 -34 0 c-19 0
-37 4 -40 9 -3 5 -23 12 -43 15 -86 15 -119 14 -165 -3z m401 -83 c25 -13 41
-29 41 -40 0 -10 5 -18 10 -18 6 0 10 -9 10 -20 0 -11 5 -20 10 -20 6 0 10
-22 10 -50 0 -27 -4 -50 -10 -50 -5 0 -10 12 -10 26 0 30 -16 63 -42 85 -10 9
-18 22 -18 29 0 6 -13 25 -30 40 -49 46 -37 53 29 18z m-33 -215 c16 -21 18
-43 4 -43 -5 0 -10 9 -10 20 0 11 -4 20 -10 20 -5 0 -10 5 -10 10 0 15 11 12
26 -7z m454 -233 c0 -5 -9 -10 -20 -10 -11 0 -20 5 -20 10 0 6 9 10 20 10 11
0 20 -4 20 -10z m-464 -403 c0 -25 10 -43 42 -76 25 -26 42 -53 42 -67 l0 -24
-50 0 c-38 0 -61 7 -90 26 -22 15 -40 33 -40 40 0 8 -4 14 -9 14 -5 0 -12 8
-16 17 -7 21 35 63 63 63 10 0 24 9 32 20 20 28 26 25 26 -13z m-137 -174 c31
-33 64 -53 86 -53 8 0 15 -4 15 -10 0 -5 9 -10 20 -10 11 0 20 -4 20 -10 0 -5
-7 -10 -16 -10 -18 0 -37 -17 -47 -42 l-6 -18 -61 0 c-40 0 -66 5 -76 14 -16
16 -19 86 -4 86 6 0 10 11 10 25 0 22 17 53 28 55 2 0 16 -12 31 -27z"/>
<path d="M2300 1510 c0 -5 -8 -10 -18 -10 -10 0 -24 -9 -32 -20 -8 -11 -19
-20 -26 -20 -17 0 -104 -86 -104 -103 0 -9 -5 -17 -11 -19 -16 -5 -17 -190 -1
-196 7 -2 12 -10 12 -18 0 -8 20 -35 45 -62 25 -26 45 -50 45 -54 0 -14 -34
-39 -61 -45 -16 -3 -32 -10 -35 -14 -8 -14 -44 -10 -61 7 -9 8 -22 13 -30 10
-8 -3 -16 2 -20 12 -9 25 -70 79 -97 86 -14 3 -32 13 -41 22 -12 12 -34 16
-88 16 -41 -1 -73 -5 -75 -11 -2 -6 -10 -11 -18 -11 -37 0 -83 -72 -52 -82 17
-6 -21 -58 -43 -58 -10 0 -21 -4 -24 -10 -3 -5 -13 -10 -21 -10 -19 0 -44 -24
-44 -42 0 -12 63 -38 93 -38 18 0 47 -32 47 -52 0 -21 32 -48 58 -48 11 0 24
-5 27 -10 3 -6 24 -10 47 -10 32 0 46 -6 68 -30 15 -16 35 -30 44 -30 9 0 24
-4 34 -9 65 -33 73 -35 92 -23 11 7 27 12 35 12 8 0 15 7 15 15 0 19 14 19 34
0 8 -8 26 -15 40 -15 l26 0 0 -60 c0 -33 -4 -60 -10 -60 -5 0 -10 -6 -10 -13
0 -18 -24 -67 -32 -67 -5 0 -8 -7 -8 -16 0 -34 -59 -68 -95 -54 -39 15 -114
12 -131 -4 -8 -8 -38 -18 -67 -21 -28 -4 -59 -12 -68 -18 -21 -16 -39 -51 -39
-75 0 -21 32 -40 38 -23 7 22 22 10 22 -18 0 -17 6 -31 16 -35 17 -7 88 1 119
14 11 4 33 13 48 19 15 6 65 11 110 11 l82 0 -28 -24 c-35 -30 -34 -69 2 -74
13 -2 26 0 30 6 10 16 101 22 101 7 0 -8 -6 -15 -12 -18 -20 -6 11 -57 34 -57
10 0 18 5 18 10 0 6 9 10 19 10 11 0 23 5 26 10 3 6 17 10 31 10 13 0 24 5 24
10 0 6 11 10 24 10 14 0 28 4 31 10 3 5 26 10 50 10 24 0 47 5 50 10 4 6 60
10 136 10 l129 0 0 26 c0 40 -26 53 -102 54 -37 0 -70 5 -73 10 -3 6 -15 10
-26 10 -10 0 -19 5 -19 10 0 6 11 10 24 10 14 0 28 5 31 10 3 6 15 10 26 10
10 0 19 5 19 10 0 6 7 10 15 10 17 0 52 18 73 38 7 6 22 17 33 22 10 6 19 16
19 23 0 7 9 19 20 27 13 9 20 26 20 47 0 17 5 35 10 38 6 3 10 36 10 73 l0 68
-20 14 c-11 8 -20 22 -20 32 0 10 -4 18 -9 18 -5 0 -11 21 -14 48 -8 71 -18
112 -28 112 -5 0 -9 8 -9 18 0 9 -22 31 -50 50 l-50 32 -59 0 c-38 0 -61 -4
-64 -12 -2 -7 -8 -10 -12 -6 -4 4 -1 13 6 21 32 32 141 30 176 -2 10 -9 25
-20 34 -23 9 -3 23 -21 32 -40 9 -18 25 -44 36 -57 l21 -24 15 13 c17 14 21
95 5 105 -5 3 -10 13 -10 21 0 22 -107 124 -130 124 -10 0 -22 5 -25 10 -3 6
-19 10 -36 10 -16 0 -29 5 -29 10 0 6 18 10 40 10 22 0 40 -4 40 -10 0 -5 14
-10 30 -10 17 0 30 -4 30 -10 0 -5 6 -10 13 -10 7 0 23 -9 35 -20 12 -11 33
-20 47 -20 l25 0 0 34 c0 25 -10 44 -42 78 -49 52 -70 59 -190 65 -49 2 -88 8
-88 12 0 11 39 29 80 36 19 3 49 8 66 11 18 4 35 1 38 -5 4 -6 27 -11 52 -11
55 0 58 18 10 66 -24 24 -43 34 -64 34 -17 0 -33 4 -37 9 -7 12 -85 10 -85 -1
0 -4 -27 -8 -60 -8 -33 0 -60 4 -60 10 0 6 9 10 20 10 11 0 20 5 20 10 0 6 32
10 76 10 51 0 80 4 89 14 l14 14 -18 16 c-10 9 -27 16 -39 16 -12 0 -22 5 -22
11 0 11 -91 8 -182 -7 l-38 -6 0 21 0 21 -70 0 c-40 0 -70 -4 -70 -10z m20
-95 c0 -3 -18 -24 -40 -46 -22 -23 -40 -36 -40 -30 0 6 15 27 33 46 30 31 47
42 47 30z m190 -39 c0 -2 -19 -16 -42 -32 -56 -38 -108 -93 -108 -115 0 -10
-4 -21 -10 -24 -5 -3 -10 -15 -10 -26 0 -10 -4 -19 -10 -19 -5 0 -10 9 -10 20
0 11 5 20 10 20 6 0 10 7 10 15 0 40 112 164 148 165 12 0 22 -2 22 -4z m-270
-80 c0 -3 -4 -8 -10 -11 -5 -3 -10 -1 -10 4 0 6 5 11 10 11 6 0 10 -2 10 -4z
m395 -426 c3 -5 13 -10 22 -10 20 0 63 -49 63 -72 0 -9 5 -20 10 -23 6 -3 10
-13 10 -21 0 -9 18 -33 40 -54 l40 -38 0 -38 c0 -34 -18 -102 -30 -114 -3 -3
-10 -14 -16 -25 -6 -11 -20 -24 -32 -30 -12 -5 -22 -13 -22 -17 0 -5 -9 -8
-20 -8 -11 0 -20 -4 -20 -10 0 -5 -11 -10 -24 -10 -14 0 -28 -4 -31 -10 -9
-15 -74 -12 -90 3 -21 22 -28 108 -10 141 8 15 15 41 15 56 0 16 6 30 12 32 9
3 8 10 -5 22 l-18 18 -14 -12 c-8 -7 -15 -21 -15 -31 0 -23 -7 -24 -26 -4 -24
24 -14 59 19 63 15 2 27 8 27 13 0 5 14 9 30 9 17 0 30 5 30 10 0 6 19 10 43
10 30 0 50 6 65 20 25 23 24 22 16 44 -3 9 -17 16 -29 16 -13 0 -27 5 -30 10
-3 6 -37 10 -76 10 l-69 0 0 20 c0 14 7 20 23 20 12 0 29 5 37 10 20 13 67 13
75 0z m-323 -262 c41 -24 60 -43 79 -81 l20 -39 -18 -14 c-11 -8 -45 -13 -91
-14 l-72 0 6 28 c4 15 15 39 25 54 11 14 19 38 19 52 0 30 2 31 32 14z m128
-278 l0 -70 -20 0 c-13 0 -20 7 -20 20 0 11 -3 20 -8 20 -11 0 -34 58 -27 70
3 5 13 10 21 10 8 0 14 5 14 10 0 6 9 10 20 10 l20 0 0 -70z m-180 20 c0 -5
-9 -10 -20 -10 -11 0 -20 5 -20 10 0 6 9 10 20 10 11 0 20 -4 20 -10z m-40
-100 c0 -5 -9 -10 -21 -10 -11 0 -17 5 -14 10 3 6 13 10 21 10 8 0 14 -4 14
-10z"/>
</g>
</svg>
