<?xml version="1.0" standalone="no"?>
<!DOCTYPE svg PUBLIC "-//W3C//DTD SVG 20010904//EN"
 "http://www.w3.org/TR/2001/REC-SVG-20010904/DTD/svg10.dtd">
<svg version="1.0" xmlns="http://www.w3.org/2000/svg"
 width="412.000000pt" height="140.603772pt" viewBox="0 0 412.000000 140.603772"
 preserveAspectRatio="xMidYMid meet">
<metadata>
Created by Potrace Professional 1.0m
</metadata>
<g transform="translate(-2.000000,142.132845) rotate(-360.00) scale(0.100000,-0.100000)"
fill="#000000" stroke="none">
<path d="M2333 1405 c-7 -8 -13 -20 -13 -27 -1 -8 -5 -7 -14 5 -17 22 -43 22
-51 -2 -4 -14 -15 -18 -47 -18 -23 0 -44 -5 -46 -12 -2 -6 -10 -11 -18 -11
-20 0 -104 -83 -104 -103 0 -10 -8 -17 -18 -17 -25 0 -42 -19 -42 -47 l0 -22
-30 6 -30 6 -2 -19 c-3 -35 2 -58 14 -66 7 -4 9 -10 5 -15 -5 -4 -11 -3 -15 2
-4 6 -17 16 -30 23 -18 10 -27 10 -38 1 -16 -13 -19 -49 -4 -49 6 0 10 -4 10
-10 0 -14 -38 -12 -42 2 -6 17 -38 -14 -38 -36 0 -9 -7 -16 -16 -16 -8 0 -33
-18 -55 -40 -22 -22 -43 -40 -48 -40 -4 0 -18 -10 -30 -21 -18 -17 -25 -19
-31 -8 l-9 13 -18 -17 c-11 -10 -27 -14 -41 -11 -24 7 -52 -15 -52 -40 0 -9
-4 -16 -10 -16 -5 0 -10 13 -10 29 0 30 -19 45 -45 35 -8 -4 -15 -15 -15 -25
0 -10 -4 -19 -10 -19 -5 0 -10 13 -10 29 0 16 -7 34 -15 41 l-15 13 -19 -22
c-25 -28 -31 -27 -31 9 l0 30 -24 0 c-14 0 -28 -4 -31 -10 -12 -19 -25 -10
-25 19 0 30 -19 45 -45 35 -8 -4 -15 -15 -15 -25 0 -10 -5 -19 -11 -19 -6 0
-10 10 -9 23 4 45 0 57 -19 57 -11 0 -21 -6 -24 -12 -3 -9 -10 -6 -22 10 -22
29 -75 31 -75 2 0 -11 -4 -20 -10 -20 -5 0 -10 11 -10 24 0 26 -20 39 -45 30
-8 -4 -15 -17 -15 -30 0 -29 -16 -32 -23 -4 -3 14 -14 20 -31 20 -14 0 -26 -4
-26 -10 0 -5 -13 -10 -28 -10 -16 0 -34 -8 -42 -20 -8 -11 -25 -20 -37 -20
-16 0 -27 -8 -33 -25 -5 -14 -17 -28 -25 -31 -8 -4 -15 -18 -15 -34 l0 -29
-27 -3 -28 -3 2 -27 2 -28 -25 0 c-17 0 -24 -5 -24 -20 0 -13 -7 -20 -20 -20
-11 0 -20 -7 -20 -15 0 -8 -9 -19 -20 -25 -20 -11 -29 -60 -10 -60 6 0 10 -4
10 -10 0 -5 -10 -10 -23 -10 -61 0 -116 -70 -103 -132 l6 -28 -33 0 c-24 0
-44 -10 -71 -35 l-39 -35 6 -35 6 -35 -20 0 c-24 0 -49 -22 -49 -44 0 -9 -4
-16 -10 -16 -5 0 -10 -6 -10 -13 0 -8 -23 -38 -50 -67 -28 -29 -50 -59 -50
-67 0 -7 -3 -13 -7 -13 -9 0 -33 -48 -33 -66 0 -6 6 -14 12 -16 20 -7 88 3 88
13 0 5 13 9 29 9 17 0 33 5 36 10 3 6 22 10 41 10 19 0 34 5 34 10 0 6 9 10
20 10 11 0 20 5 20 10 0 6 7 10 16 10 22 0 44 25 44 50 0 33 24 50 71 50 33 0
47 6 66 28 l24 27 -4 43 -5 42 50 0 c67 0 98 30 98 95 0 25 5 45 10 45 6 0 10
-7 10 -16 0 -8 7 -22 15 -31 l16 -15 18 21 c10 12 25 21 34 21 16 0 32 44 22
60 -4 6 -1 10 4 10 6 0 11 -5 11 -11 0 -6 7 -17 15 -25 l15 -15 15 15 c8 8 15
25 15 38 0 24 16 48 32 48 4 0 8 -18 8 -40 l0 -40 29 0 30 0 3 27 c2 18 10 29
21 31 15 3 18 0 12 -17 -9 -28 3 -61 22 -61 9 0 24 10 34 22 11 11 22 18 26
14 4 -3 1 -12 -5 -18 -7 -7 -12 -22 -12 -35 l0 -23 29 0 c16 0 31 6 34 13 2 6
7 9 11 5 4 -3 3 -15 -3 -26 -13 -24 -6 -32 27 -32 17 0 23 -4 18 -15 -8 -21 3
-45 20 -45 8 0 25 7 38 16 15 9 27 11 30 5 8 -12 -3 -41 -15 -41 -5 0 -9 -9
-9 -20 0 -16 7 -20 30 -20 23 0 30 4 30 20 0 11 5 20 10 20 6 0 10 -9 10 -20
0 -11 -4 -20 -10 -20 -5 0 -10 -9 -10 -20 0 -25 44 -28 67 -5 8 9 20 14 26 12
18 -6 19 -24 2 -41 l-16 -16 15 -15 c20 -20 35 -19 57 6 21 24 43 16 36 -13
-3 -11 -3 -26 0 -34 8 -21 46 -17 63 6 22 30 30 24 30 -21 l0 -40 28 3 c19 2
28 9 30 26 5 35 22 26 22 -12 0 -24 5 -35 18 -38 30 -8 42 3 42 38 0 19 5 34
10 34 6 0 10 -10 10 -23 0 -27 17 -47 41 -47 19 0 31 23 23 45 -4 8 -1 15 5
15 6 0 11 -9 11 -20 0 -32 48 -27 56 6 4 17 2 29 -7 35 -7 4 -10 11 -6 15 4 4
15 -3 26 -14 26 -30 51 -29 51 3 l0 25 26 -6 c17 -4 29 -2 35 7 12 20 11 25
-7 44 -9 9 -14 19 -10 22 3 3 15 -4 26 -18 24 -26 47 -19 65 19 5 12 17 22 26
22 25 0 30 36 8 61 -10 12 -16 26 -13 30 7 11 24 2 24 -12 0 -6 7 -17 15 -25
l15 -15 15 15 c18 18 20 63 3 69 -7 3 6 2 30 0 l42 -6 0 22 c0 12 6 21 16 21
32 0 60 53 33 62 -6 2 -9 13 -6 23 l5 20 7 -22 c10 -30 55 -32 62 -3 3 11 13
20 22 20 9 0 22 5 29 12 9 9 12 9 12 0 0 -7 9 -12 20 -12 11 0 20 7 20 15 0
20 22 65 32 65 12 0 10 -27 -4 -50 l-13 -21 15 -9 c8 -5 22 -7 30 -5 9 3 22
-4 30 -15 20 -28 37 -25 71 11 16 18 32 29 36 25 3 -3 -3 -14 -14 -24 -12 -10
-23 -29 -24 -42 l-4 -25 26 -3 c15 -2 32 5 44 18 10 11 26 20 37 20 23 0 23
-6 -2 -32 -22 -24 -27 -68 -7 -68 18 0 67 24 67 33 0 4 9 7 20 7 11 0 20 -3
20 -8 0 -4 -9 -13 -20 -20 -24 -14 -26 -47 -5 -56 18 -6 45 2 45 15 0 5 9 9
20 9 24 0 26 -13 5 -30 -18 -15 -16 -51 1 -57 7 -2 18 2 26 10 19 19 55 30 62
19 3 -5 -4 -19 -15 -31 l-20 -21 15 -15 c20 -21 44 -19 58 5 17 26 48 26 48 0
0 -11 -4 -20 -10 -20 -5 0 -10 -9 -10 -20 0 -27 50 -28 70 -1 7 11 18 17 23
14 5 -3 4 -9 -3 -13 -8 -5 -10 -18 -6 -34 5 -19 13 -26 31 -26 14 0 25 5 25
10 0 18 18 10 23 -10 8 -32 49 -26 65 10 17 37 32 39 32 5 0 -25 24 -44 38
-31 3 4 5 27 4 51 -1 25 1 45 5 45 12 0 32 -36 33 -57 0 -17 6 -23 21 -23 l22
0 -7 50 c-5 40 -4 50 7 50 8 0 20 -14 27 -30 8 -18 20 -30 31 -30 22 0 25 21
7 50 -18 28 -1 37 21 12 22 -26 51 -29 51 -6 0 9 -9 29 -21 46 -30 41 -15 48
22 9 l30 -32 15 12 c20 17 17 47 -6 61 -25 16 -26 48 -2 48 10 0 24 -9 32 -20
17 -24 36 -25 57 -5 l15 16 -31 29 c-17 17 -31 35 -31 40 0 12 53 1 58 -12 2
-4 25 -8 51 -8 35 0 50 5 61 20 8 11 20 20 27 20 7 0 32 18 54 40 23 22 46 40
51 40 6 0 23 13 38 30 15 16 32 30 37 30 20 1 65 51 59 67 l-6 15 -85 -7 -85
-7 0 16 0 16 90 0 c53 0 90 4 90 10 0 6 12 10 26 10 29 0 54 21 54 44 0 13
-11 16 -53 16 -29 0 -58 -5 -63 -10 -6 -6 -64 -10 -132 -11 -138 0 -152 6
-152 65 0 41 24 50 36 14 8 -30 34 -58 51 -58 8 0 13 12 13 35 0 19 5 35 10
35 6 0 10 -7 10 -15 0 -8 9 -15 20 -15 15 0 20 7 20 29 0 16 -6 31 -12 34 -7
2 -9 8 -5 13 5 5 16 0 25 -11 22 -27 45 -36 63 -24 l14 8 -12 21 c-7 11 -13
26 -13 34 0 8 -6 16 -12 19 -7 2 -10 8 -6 12 9 9 58 -44 58 -62 0 -7 9 -13 20
-13 15 0 20 7 20 29 0 16 -4 31 -8 33 -5 2 -12 15 -16 31 -9 36 8 35 44 -3 32
-35 60 -39 60 -10 0 11 -4 20 -10 20 -5 0 -10 7 -10 16 0 21 -84 104 -105 104
-8 0 -15 -4 -15 -8 0 -5 -12 -15 -27 -23 -36 -18 -144 -126 -162 -162 -16 -30
-31 -36 -31 -11 0 9 41 57 91 107 49 50 99 103 110 119 l20 28 -25 25 -26 26
-34 -34 c-18 -18 -35 -38 -37 -45 -2 -6 -30 -38 -61 -71 -32 -34 -58 -64 -58
-68 0 -5 -13 -23 -29 -41 l-28 -34 -16 17 c-23 22 -21 35 3 35 21 0 70 41 70
58 0 5 12 22 28 38 15 16 39 45 53 64 14 19 40 50 58 69 17 18 31 36 31 41 0
18 -40 50 -63 50 -14 0 -27 5 -29 11 -2 5 -22 10 -45 11 l-41 0 -46 -46 -46
-45 0 -36 0 -35 -35 0 c-34 0 -85 -18 -85 -29 0 -4 -13 -15 -30 -24 -16 -10
-30 -24 -30 -30 0 -7 -9 -19 -20 -27 -11 -8 -20 -21 -20 -29 0 -7 -8 -21 -18
-30 -10 -9 -25 -37 -32 -63 -8 -27 -18 -48 -22 -48 -4 0 -8 -13 -8 -30 0 -16
-4 -30 -10 -30 -5 0 -10 -6 -10 -13 0 -18 -24 -67 -32 -67 -5 0 -8 9 -8 20 0
16 -7 20 -30 20 -30 0 -41 15 -17 23 9 3 9 7 -2 20 -16 20 -47 22 -54 5 -2 -8
-8 -9 -13 -4 -5 5 -4 11 4 13 20 8 15 54 -8 60 -11 3 -20 14 -20 24 0 11 -3
19 -8 19 -4 0 -13 14 -20 30 -14 31 -46 41 -55 18 -2 -7 -8 -10 -12 -6 -4 4 0
14 8 22 20 20 10 56 -14 56 -11 0 -19 -4 -19 -10 0 -5 -7 -10 -15 -10 -8 0
-15 5 -15 10 0 6 7 10 15 10 8 0 15 9 15 20 0 11 -7 20 -15 20 -9 0 -19 8 -22
18 -16 40 -56 55 -81 30 -6 -6 -15 -9 -18 -5 -4 4 3 16 16 27 l23 20 -23 20
c-13 12 -30 18 -37 16 -8 -3 -13 2 -13 12 0 31 -19 41 -48 26 -34 -18 -42 -18
-42 1 0 8 5 15 10 15 15 0 12 29 -4 46 -8 8 -22 14 -30 14 -9 0 -16 5 -16 10
0 6 -12 10 -26 10 -15 0 -35 9 -45 21 -25 30 -63 22 -67 -13 -5 -41 -20 -34
-24 10 l-3 37 -27 3 -28 3 0 -30 c0 -17 -4 -31 -10 -31 -5 0 -10 7 -10 16 0
46 -63 59 -78 17 l-10 -28 -7 28 c-8 29 -32 35 -52 12z m7 -55 c0 -5 -4 -10
-10 -10 -5 0 -10 5 -10 10 0 6 5 10 10 10 6 0 10 -4 10 -10z m-80 -20 c0 -5
-4 -10 -10 -10 -5 0 -10 5 -10 10 0 6 5 10 10 10 6 0 10 -4 10 -10z m265 -60
c3 -5 22 -10 41 -10 19 0 34 -5 34 -11 0 -7 -15 -9 -47 -4 -101 14 -253 5
-253 -16 0 -5 -7 -9 -16 -9 -16 0 -76 -38 -82 -52 -2 -4 -10 -8 -18 -8 -7 0
-23 -13 -36 -30 -12 -16 -25 -30 -30 -30 -5 0 -59 -51 -121 -113 -63 -62 -131
-127 -153 -143 -21 -16 -56 -46 -76 -66 -20 -21 -44 -38 -52 -38 -9 0 -16 -3
-16 -8 0 -4 -18 -13 -40 -20 -48 -14 -180 -16 -180 -2 0 6 -20 10 -44 10 -25
0 -48 5 -51 10 -3 6 -15 10 -26 10 -10 0 -19 5 -19 10 0 12 33 13 45 1 6 -5
33 -12 60 -15 28 -3 64 -8 80 -11 36 -5 175 16 175 27 0 4 6 8 13 8 15 0 85
66 167 159 82 92 171 181 182 181 5 0 30 21 57 48 26 26 65 56 87 68 21 11 48
25 59 31 11 6 34 15 50 21 40 13 202 15 210 2z m120 -40 c3 -5 -1 -10 -9 -10
-8 0 -18 5 -21 10 -3 6 1 10 9 10 8 0 18 -4 21 -10z m73 -40 c18 -16 36 -30
41 -30 11 0 121 -111 121 -122 0 -5 14 -22 30 -40 17 -17 30 -35 30 -40 0 -5
19 -27 41 -49 23 -22 39 -43 35 -46 -7 -8 -116 102 -116 117 0 14 -186 200
-199 200 -13 0 -41 24 -41 34 0 15 30 3 58 -24z m-338 2 c0 -14 -23 -32 -42
-32 -21 0 -23 11 -6 28 13 13 48 16 48 4z m138 -9 c-5 -26 -38 -29 -38 -4 0
15 6 21 21 21 14 0 19 -5 17 -17z m-238 -61 c0 -16 -56 -50 -66 -40 -9 10 8
36 29 46 31 15 37 14 37 -6z m153 -16 c4 -9 -5 -22 -21 -32 -15 -10 -34 -26
-43 -36 -15 -17 -49 -25 -49 -12 0 11 85 93 96 93 7 1 14 -5 17 -13z m1287 4
c0 -5 -9 -10 -20 -10 -11 0 -20 5 -20 10 0 6 9 10 20 10 11 0 20 -4 20 -10z
m-991 -29 c17 -16 31 -33 31 -38 0 -15 -25 -63 -32 -63 -5 0 -8 -7 -8 -16 0
-18 -12 -30 -60 -64 -19 -13 -42 -32 -51 -42 -15 -16 -39 -25 -39 -14 0 2 -3
11 -6 20 -5 12 0 16 21 16 58 0 72 62 20 90 -14 7 -25 17 -25 22 0 12 10 10
26 -7 32 -32 61 -29 99 9 l36 36 -12 23 c-7 12 -21 30 -32 40 -11 9 -15 17
-10 17 6 0 25 -13 42 -29z m919 -29 c2 -7 -6 -12 -17 -12 -21 0 -27 11 -14 24
9 9 26 2 31 -12z m-1148 2 c0 -3 -13 -19 -30 -34 -16 -15 -30 -35 -30 -44 0
-9 -4 -16 -10 -16 -5 0 -10 -9 -10 -19 0 -11 -8 -22 -19 -26 -25 -7 -61 -39
-61 -53 0 -6 -9 -16 -19 -21 l-19 -11 12 25 c6 14 14 25 19 25 4 0 7 7 7 16 0
8 33 48 73 89 67 68 87 84 87 69z m-340 -18 c0 -7 -66 -76 -73 -76 -17 0 -4
35 21 56 23 21 52 32 52 20z m63 -30 c21 -16 22 -26 3 -26 -7 0 -22 -12 -32
-27 -25 -40 -44 -57 -52 -48 -4 4 -1 10 6 12 6 3 12 12 12 20 0 9 10 25 23 36
15 13 18 21 9 24 -6 3 -10 9 -6 14 7 12 16 11 37 -5z m81 -63 c4 -10 1 -20 -9
-25 -8 -5 -15 -13 -15 -18 0 -5 -11 -21 -25 -35 -26 -25 -55 -33 -55 -15 0 6
5 10 10 10 6 0 10 9 10 20 0 11 3 20 8 20 4 0 13 14 20 30 15 33 46 40 56 13z
m-1314 -33 c0 -5 -21 -10 -46 -10 -27 0 -43 4 -39 10 3 6 24 10 46 10 21 0 39
-4 39 -10z m1816 -27 c19 -20 34 -42 34 -48 0 -5 11 -19 25 -29 19 -15 23 -22
14 -32 -6 -8 -18 -14 -25 -14 -8 0 -14 -4 -14 -10 0 -5 -3 -10 -8 -10 -9 0
-32 72 -32 100 0 11 -4 20 -10 20 -5 0 -10 9 -10 20 0 11 -4 20 -10 20 -5 0
-10 5 -10 10 0 18 11 11 46 -27z m664 27 c0 -5 -7 -10 -15 -10 -8 0 -15 5 -15
10 0 6 7 10 15 10 8 0 15 -4 15 -10z m-2590 -20 c0 -5 -9 -10 -20 -10 -11 0
-20 5 -20 10 0 6 9 10 20 10 11 0 20 -4 20 -10z m200 0 c0 -5 -4 -10 -9 -10
-6 0 -13 5 -16 10 -3 6 1 10 9 10 9 0 16 -4 16 -10z m1011 -32 c9 -10 21 -18
26 -18 5 0 26 -16 48 -35 26 -25 35 -39 28 -46 -7 -7 -15 -6 -24 3 -8 8 -30
25 -49 38 -31 22 -90 77 -90 85 0 10 48 -11 61 -27z m-1271 12 c0 -5 -9 -10
-20 -10 -11 0 -20 -7 -20 -15 0 -9 -8 -19 -17 -22 -10 -4 -35 -25 -55 -47 -20
-23 -39 -38 -43 -34 -10 10 117 136 138 137 9 1 17 -3 17 -9z m320 0 c0 -5 6
-10 13 -10 6 0 23 -9 37 -20 l25 -20 -25 0 c-14 0 -32 9 -40 20 -8 11 -22 20
-32 20 -9 0 -20 5 -23 10 -4 6 5 10 19 10 14 0 26 -4 26 -10z m2555 -117 c8
-7 18 -13 24 -13 6 0 11 -4 11 -10 0 -5 -7 -10 -15 -10 -8 0 -15 5 -15 10 0 6
-7 10 -15 10 -9 0 -19 8 -22 18 -10 25 -34 41 -65 42 -15 0 -30 5 -33 10 -4 6
8 10 28 10 27 0 39 6 53 28 l18 27 9 -54 c5 -30 15 -60 22 -68z m-971 101 c9
-3 16 -13 16 -21 0 -20 -34 -12 -38 10 -4 19 -1 20 22 11z m203 -9 c12 -12 12
-19 3 -30 -16 -19 -30 -10 -30 21 0 28 6 30 27 9z m-1945 -22 c16 -14 26 -63
13 -63 -2 0 -15 11 -29 25 -20 20 -31 24 -53 19 -31 -8 -53 -26 -53 -44 0 -17
-26 -40 -44 -40 -9 0 -16 5 -16 10 0 6 8 10 19 10 12 0 20 9 24 29 13 62 95
94 139 54z m2075 -9 c14 -14 23 -28 20 -31 -6 -5 -57 41 -57 52 0 11 12 4 37
-21z m-1780 -15 c44 -24 62 -39 47 -39 -16 0 -64 24 -64 33 0 4 -9 7 -20 7
-11 0 -20 5 -20 10 0 15 15 12 57 -11z m1196 9 c42 -20 32 -28 -33 -28 -64 0
-78 12 -32 28 36 14 34 14 65 0z m967 2 c0 -5 -9 -10 -20 -10 -11 0 -20 5 -20
10 0 6 9 10 20 10 11 0 20 -4 20 -10z m-2322 -31 c2 -11 -5 -16 -28 -16 -34 0
-35 2 -17 22 15 18 41 15 45 -6z m902 2 c0 -11 -12 -23 -30 -31 -16 -7 -30
-16 -30 -21 0 -11 -37 -12 -44 -1 -7 11 5 25 37 41 15 8 27 18 27 23 0 4 9 8
20 8 13 0 20 -7 20 -19z m673 -13 c15 -7 27 -16 27 -20 0 -5 8 -8 19 -8 22 0
48 -27 36 -38 -4 -4 -10 -1 -12 6 -3 6 -13 12 -24 12 -10 0 -19 5 -19 10 0 6
-9 10 -20 10 -11 0 -20 5 -20 10 0 6 -7 10 -15 10 -8 0 -15 5 -15 10 0 13 10
13 43 -2z m454 -43 c20 -19 34 -37 31 -41 -6 -6 -78 59 -78 71 0 11 11 4 47
-30z m-2207 5 c0 -5 -4 -10 -10 -10 -5 0 -10 5 -10 10 0 6 5 10 10 10 6 0 10
-4 10 -10z m88 -10 c7 -11 10 -20 6 -20 -7 0 -34 27 -34 34 0 13 16 5 28 -14z
m1094 -10 c17 -16 26 -30 19 -30 -12 0 -61 44 -61 55 0 11 11 4 42 -25z m388
18 c38 -7 70 -16 70 -20 0 -4 6 -8 13 -8 18 0 67 -24 67 -32 0 -5 6 -8 13 -8
6 0 28 -14 47 -30 19 -16 38 -30 42 -30 4 0 35 -27 70 -60 34 -33 66 -60 71
-60 5 0 22 -13 37 -30 15 -16 31 -30 35 -30 3 0 33 -18 65 -40 32 -22 68 -40
79 -40 11 0 23 -5 26 -10 8 -13 175 -13 175 0 0 6 13 10 28 10 16 0 34 8 42
20 8 11 22 20 31 20 10 0 19 6 22 13 2 6 8 9 12 5 9 -8 -44 -57 -62 -58 -7 0
-13 -4 -13 -10 0 -5 -7 -10 -15 -10 -8 0 -23 -4 -33 -9 -44 -23 -99 -33 -120
-22 -11 6 -39 11 -60 11 -37 0 -122 35 -130 53 -2 4 -10 7 -18 7 -8 0 -33 18
-55 40 -23 22 -46 40 -51 40 -6 0 -22 13 -36 28 -15 15 -43 39 -62 52 -19 14
-44 32 -54 42 -11 10 -25 18 -31 18 -6 0 -17 9 -25 20 -8 11 -22 20 -32 20
-10 0 -18 5 -18 10 0 6 -9 10 -20 10 -11 0 -20 5 -20 10 0 6 -9 10 -19 10 -11
0 -21 4 -23 10 -5 15 -201 14 -229 -1 -13 -6 -32 -20 -43 -30 -11 -11 -24 -19
-28 -19 -5 0 -40 -31 -79 -70 -38 -38 -74 -70 -81 -70 -6 0 -25 -17 -42 -37
-17 -21 -46 -51 -65 -68 -19 -16 -48 -43 -65 -60 -53 -51 -151 -95 -212 -95
-29 0 -56 5 -59 10 -3 6 -15 10 -26 10 -10 0 -27 4 -37 9 -9 5 -38 19 -64 31
-27 13 -48 27 -48 32 0 4 -6 8 -13 8 -7 0 -23 9 -35 20 -12 11 -26 20 -32 20
-5 0 -24 13 -42 30 -17 16 -37 30 -44 30 -8 0 -14 4 -14 8 0 4 -14 16 -30 26
-17 9 -41 27 -53 39 -12 12 -34 28 -50 36 -15 8 -27 18 -27 23 0 4 -7 8 -15 8
-9 0 -25 9 -37 20 -12 11 -28 20 -35 20 -7 0 -13 4 -13 9 0 18 -177 38 -193
22 -12 -12 -47 -15 -47 -3 0 26 170 47 185 22 3 -5 17 -10 31 -10 13 0 24 -4
24 -10 0 -5 9 -10 20 -10 11 0 20 -4 20 -10 0 -5 9 -10 20 -10 11 0 20 -4 20
-8 0 -5 21 -20 47 -33 27 -13 61 -36 77 -51 16 -16 33 -28 38 -28 5 0 18 -9
30 -20 12 -11 28 -20 35 -20 7 0 13 -4 13 -10 0 -5 8 -10 18 -10 10 0 24 -9
32 -20 8 -11 20 -20 28 -20 7 0 22 -9 34 -20 12 -11 28 -20 35 -20 7 0 13 -4
13 -10 0 -5 9 -10 20 -10 11 0 20 -4 20 -10 0 -5 8 -10 18 -10 10 0 22 -4 27
-9 10 -9 90 -16 155 -13 19 1 49 11 65 22 17 11 39 25 49 32 11 7 48 40 83 73
35 33 86 80 114 105 27 25 78 72 113 105 34 33 71 65 82 71 97 55 131 61 244
42z m950 2 c0 -5 -4 -10 -10 -10 -5 0 -10 5 -10 10 0 6 5 10 10 10 6 0 10 -4
10 -10z m140 -10 c0 -11 -4 -20 -10 -20 -5 0 -10 9 -10 20 0 11 5 20 10 20 6
0 10 -9 10 -20z m-2340 -10 c0 -5 -9 -10 -20 -10 -11 0 -20 5 -20 10 0 6 9 10
20 10 11 0 20 -4 20 -10z m580 0 c0 -5 -9 -10 -20 -10 -11 0 -20 5 -20 10 0 6
9 10 20 10 11 0 20 -4 20 -10z m1970 0 c0 -5 -16 -10 -35 -10 -19 0 -35 5 -35
10 0 6 16 10 35 10 19 0 35 -4 35 -10z m-1770 -26 c0 -15 -23 -44 -34 -44 -8
0 -7 45 1 53 12 13 33 7 33 -9z m820 -4 c0 -11 -4 -20 -10 -20 -5 0 -10 9 -10
20 0 11 5 20 10 20 6 0 10 -9 10 -20z m240 0 c0 -13 -7 -20 -20 -20 -23 0 -25
5 -7 25 17 20 27 18 27 -5z m-2017 3 c-7 -2 -19 -2 -25 0 -7 3 -2 5 12 5 14 0
19 -2 13 -5z m-463 -8 c0 -10 -51 -57 -56 -52 -3 3 5 16 18 30 22 24 38 33 38
22z m2360 -4 c0 -6 -4 -13 -10 -16 -5 -3 -10 -24 -10 -46 0 -21 -4 -39 -10
-39 -5 0 -10 18 -10 39 0 22 -4 43 -10 46 -20 12 -9 25 20 25 17 0 30 -4 30
-9z m245 -1 c3 -5 22 -10 41 -10 25 0 34 -4 34 -16 l0 -16 -37 7 c-21 4 -39
11 -41 16 -2 5 -10 9 -18 9 -8 0 -14 5 -14 10 0 6 6 10 14 10 8 0 18 -4 21
-10z m315 -10 c0 -13 -7 -20 -20 -20 -13 0 -20 7 -20 20 0 13 7 20 20 20 13 0
20 -7 20 -20z m140 5 c0 -8 -4 -15 -10 -15 -5 0 -10 7 -10 15 0 8 5 15 10 15
6 0 10 -7 10 -15z m-2480 -31 c0 -16 -16 -19 -25 -4 -8 13 4 32 16 25 5 -4 9
-13 9 -21z m700 11 c0 -17 -2 -18 -24 -9 -23 9 -20 24 4 24 11 0 20 -7 20 -15z
m1535 -10 c14 -13 25 -29 25 -36 0 -6 10 -20 22 -30 11 -11 19 -22 15 -25 -8
-9 -97 83 -97 101 0 21 7 19 35 -10z m-2125 5 l14 -9 -22 -19 c-12 -11 -22
-27 -22 -36 0 -10 -4 -14 -10 -11 -5 3 -10 17 -10 31 0 13 5 24 10 24 6 0 10
7 10 15 0 17 9 19 30 5z m70 -4 c0 -8 -6 -17 -12 -19 -10 -4 -9 -8 2 -16 8 -5
11 -13 8 -17 -4 -3 -15 2 -25 12 -13 12 -14 19 -5 22 6 2 12 10 12 18 0 8 5
14 10 14 6 0 10 -6 10 -14z m120 -16 c0 -22 -12 -25 -41 -10 -28 16 -23 30 11
30 23 0 30 -4 30 -20z m-840 -10 c0 -5 -4 -10 -10 -10 -5 0 -10 5 -10 10 0 6
5 10 10 10 6 0 10 -4 10 -10z m1440 0 c0 -5 -6 -10 -14 -10 -8 0 -18 5 -21 10
-3 6 3 10 14 10 12 0 21 -4 21 -10z m1760 0 c0 -5 -4 -10 -10 -10 -5 0 -10 5
-10 10 0 6 5 10 10 10 6 0 10 -4 10 -10z m-2209 -15 c19 -8 29 -14 23 -15 -31
-1 -24 -60 7 -60 10 0 19 -4 19 -10 0 -5 -9 -10 -20 -10 -12 0 -20 -7 -20 -16
0 -20 24 -44 44 -44 9 0 16 -4 16 -10 0 -5 -13 -10 -30 -10 -16 0 -30 -4 -30
-10 0 -5 -4 -10 -10 -10 -5 0 -10 14 -10 30 0 17 -4 30 -10 30 -5 0 -10 18
-10 39 0 22 -4 43 -10 46 -12 8 -13 65 -1 65 5 0 24 -7 42 -15z m-891 -5 c0
-5 -4 -10 -10 -10 -5 0 -10 5 -10 10 0 6 5 10 10 10 6 0 10 -4 10 -10z m2460
0 c0 -5 -13 -10 -30 -10 -16 0 -30 5 -30 10 0 6 14 10 30 10 17 0 30 -4 30
-10z m400 1 c0 -11 -26 -22 -34 -14 -12 12 -5 23 14 23 11 0 20 -4 20 -9z
m-1642 -19 c2 -7 -6 -12 -17 -12 -21 0 -27 11 -14 24 9 9 26 2 31 -12z m1382
3 c0 -8 -9 -15 -20 -15 -11 0 -20 7 -20 15 0 8 9 15 20 15 11 0 20 -7 20 -15z
m-1000 -11 c0 -8 -4 -12 -10 -9 -5 3 -10 10 -10 16 0 5 5 9 10 9 6 0 10 -7 10
-16z m906 -18 c8 -8 14 -22 14 -30 0 -9 5 -16 10 -16 6 0 10 -9 10 -19 0 -11
6 -21 13 -24 6 -2 8 -8 4 -13 -4 -5 -11 -4 -15 2 -4 6 -15 13 -24 17 -10 3
-18 16 -18 28 0 12 -8 23 -20 26 -23 6 -24 9 -7 28 15 18 16 18 33 1z m454 10
c0 -11 -19 -15 -25 -6 -3 5 1 10 9 10 9 0 16 -2 16 -4z m-2180 -26 c0 -5 -4
-10 -10 -10 -5 0 -10 5 -10 10 0 6 5 10 10 10 6 0 10 -4 10 -10z m220 0 c0 -5
-9 -10 -20 -10 -11 0 -20 5 -20 10 0 6 9 10 20 10 11 0 20 -4 20 -10z m1280
-3 c0 -7 9 -23 20 -35 11 -12 20 -28 20 -36 0 -8 6 -16 13 -19 6 -2 9 -8 5
-12 -7 -8 -78 62 -78 76 0 4 -3 14 -6 23 -4 11 -1 16 10 16 9 0 16 -6 16 -13z
m-2367 -12 c-3 -9 -8 -14 -10 -11 -3 3 -2 9 2 15 9 16 15 13 8 -4z m-213 -10
c0 -8 -4 -15 -10 -15 -5 0 -10 7 -10 15 0 8 5 15 10 15 6 0 10 -7 10 -15z
m2740 5 c0 -5 -18 -10 -40 -10 -22 0 -40 5 -40 10 0 6 18 10 40 10 22 0 40 -4
40 -10z m220 0 c0 -5 -9 -10 -20 -10 -11 0 -20 5 -20 10 0 6 9 10 20 10 11 0
20 -4 20 -10z m-2840 -20 c0 -5 -4 -10 -10 -10 -5 0 -10 5 -10 10 0 6 5 10 10
10 6 0 10 -4 10 -10z m1240 -20 c0 -5 -9 -10 -19 -10 -11 0 -23 -4 -26 -10 -3
-5 -15 -10 -26 -10 -10 0 -19 5 -19 10 0 6 10 10 23 10 12 0 29 5 37 10 19 13
30 13 30 0z m-320 -20 c0 -5 -4 -10 -10 -10 -5 0 -10 5 -10 10 0 6 5 10 10 10
6 0 10 -4 10 -10z m2020 -17 c0 -5 -11 -13 -25 -20 -28 -12 -31 -9 -12 12 13
15 37 20 37 8z m-1920 -48 c0 -17 -2 -18 -24 -9 -23 9 -20 24 4 24 11 0 20 -7
20 -15z m80 -15 c0 -5 -4 -10 -10 -10 -5 0 -10 5 -10 10 0 6 5 10 10 10 6 0
10 -4 10 -10z m80 0 c0 -5 -4 -10 -10 -10 -5 0 -10 5 -10 10 0 6 5 10 10 10 6
0 10 -4 10 -10z m295 -60 c3 -5 1 -10 -4 -10 -6 0 -11 5 -11 10 0 6 2 10 4 10
3 0 8 -4 11 -10z m1145 -94 c0 -8 -4 -18 -10 -21 -5 -3 -10 3 -10 14 0 12 5
21 10 21 6 0 10 -6 10 -14z m-2920 -26 c0 -23 -4 -30 -20 -30 -11 0 -20 -4
-20 -10 0 -5 -13 -10 -30 -10 -16 0 -30 5 -30 10 0 6 3 10 8 10 4 0 15 14 24
30 12 21 25 30 43 30 l25 0 0 -30z m1660 20 c0 -5 -4 -10 -10 -10 -5 0 -10 5
-10 10 0 6 5 10 10 10 6 0 10 -4 10 -10z"/>
</g>
</svg>
