<?xml version="1.0" standalone="no"?>
<!DOCTYPE svg PUBLIC "-//W3C//DTD SVG 20010904//EN"
 "http://www.w3.org/TR/2001/REC-SVG-20010904/DTD/svg10.dtd">
<svg version="1.0" xmlns="http://www.w3.org/2000/svg"
 width="375.053502pt" height="285.881200pt" viewBox="0 0 375.053502 285.881200"
 preserveAspectRatio="xMidYMid meet">
<metadata>
Created by Potrace Professional 1.0m
</metadata>
<g transform="translate(-1.000000,287.881200) rotate(-360.00) scale(0.100000,-0.100000)"
fill="#000000" stroke="none">
<path d="M2974 2866 c-6 -7 -17 -23 -24 -37 -7 -13 -20 -31 -29 -39 -9 -8 -22
-27 -30 -42 -8 -16 -18 -28 -23 -28 -4 0 -8 -6 -8 -13 0 -7 -27 -42 -60 -78
-33 -35 -60 -68 -60 -72 0 -4 -12 -20 -26 -34 -19 -19 -28 -23 -37 -14 -20 20
-34 12 -52 -29 -10 -22 -24 -40 -32 -40 -7 0 -13 -7 -13 -17 0 -9 -18 -33 -40
-54 -22 -21 -40 -43 -40 -48 0 -6 -17 -23 -37 -38 -59 -44 -283 -273 -283
-289 0 -8 -4 -14 -8 -14 -5 0 -15 -12 -23 -27 -8 -16 -22 -37 -31 -47 -10 -11
-18 -29 -18 -41 0 -11 -6 -27 -12 -33 -17 -17 -15 -126 2 -147 7 -8 10 -18 6
-22 -12 -12 -35 32 -36 69 0 20 -4 40 -10 43 -5 3 -10 19 -10 36 0 16 -4 29
-10 29 -5 0 -10 9 -10 20 0 11 -4 20 -10 20 -5 0 -10 9 -10 20 0 12 7 20 16
20 8 0 22 7 30 15 l15 15 -13 14 c-8 7 -38 17 -66 21 -29 4 -55 11 -58 16 -6
10 44 59 59 59 5 0 16 8 25 17 12 12 13 18 4 21 -19 6 -16 82 4 82 14 0 51 28
43 33 -2 2 -16 9 -31 17 -36 17 -35 35 2 70 17 15 30 35 30 44 0 11 -9 16 -30
16 -16 0 -30 -4 -30 -10 0 -5 -5 -10 -11 -10 -32 0 -169 -117 -169 -145 0 -8
-9 -15 -20 -15 -26 0 -26 12 0 30 31 23 26 50 -10 50 l-30 0 0 40 c0 22 5 40
10 40 6 0 10 9 10 20 0 15 -7 20 -26 20 -25 0 -54 -20 -54 -37 0 -5 -22 -33
-50 -62 -27 -29 -50 -59 -50 -67 0 -8 -4 -22 -9 -32 -5 -9 -15 -36 -21 -59
l-13 -41 -46 -6 c-25 -3 -74 -9 -108 -12 l-63 -6 0 -29 0 -29 -30 0 c-16 0
-30 -4 -30 -10 0 -5 -13 -10 -30 -10 -16 0 -30 -4 -30 -10 0 -5 -9 -10 -20
-10 -11 0 -20 -4 -20 -9 0 -5 -9 -12 -19 -16 -30 -9 -53 -67 -45 -114 7 -44
32 -56 41 -21 8 30 51 26 79 -7 32 -37 30 -59 -6 -93 -16 -15 -30 -34 -30 -42
0 -9 -10 -15 -28 -15 l-29 0 -13 46 c-8 25 -22 54 -32 65 -10 11 -18 24 -18
29 0 5 -8 17 -18 26 -10 9 -27 28 -36 44 -10 15 -22 27 -27 27 -4 0 -30 21
-56 48 -26 26 -60 53 -75 61 -16 8 -28 18 -28 23 0 4 -6 8 -13 8 -7 0 -23 9
-35 20 -12 11 -28 20 -36 20 -8 0 -16 3 -18 8 -2 4 -23 18 -48 31 -25 14 -52
33 -61 43 -19 21 -45 24 -53 6 -5 -10 -7 -10 -12 0 -3 6 -12 12 -20 12 -8 0
-26 11 -39 25 -14 13 -42 32 -62 41 -21 10 -40 21 -43 24 -8 9 -98 70 -104 70
-6 0 -56 42 -91 78 -12 12 -27 22 -34 22 -6 0 -11 4 -11 8 0 5 -12 15 -27 23
-16 8 -40 26 -55 41 -25 27 -68 38 -68 18 0 -5 5 -10 11 -10 15 0 78 -74 105
-125 27 -50 40 -71 56 -86 10 -9 18 -28 18 -43 0 -14 5 -26 10 -26 6 0 10 -11
10 -24 0 -12 5 -38 11 -55 9 -24 9 -35 0 -44 -6 -6 -11 -28 -11 -50 0 -44 -24
-77 -43 -58 -16 16 -37 14 -37 -5 0 -21 24 -44 47 -44 33 0 93 -68 93 -105 0
-8 5 -15 10 -15 6 0 10 -9 10 -20 0 -11 4 -20 9 -20 12 0 25 -122 17 -154 -4
-17 -18 -29 -41 -37 -49 -18 -39 -33 29 -41 l58 -7 54 -56 c30 -30 54 -61 54
-69 0 -8 5 -18 10 -21 6 -3 10 -15 10 -26 0 -10 5 -28 12 -39 l12 -19 -22 -19
c-12 -11 -22 -27 -22 -36 0 -18 15 -22 25 -6 8 13 72 13 80 0 3 -5 17 -10 31
-10 13 0 24 -4 24 -10 0 -5 7 -10 16 -10 9 0 41 -24 70 -52 39 -38 54 -61 54
-80 0 -16 -4 -28 -9 -28 -5 0 -11 -8 -15 -17 -3 -10 -9 -24 -12 -30 -10 -22
28 -15 54 10 l24 22 57 -2 c59 -1 138 -31 175 -65 11 -10 26 -18 33 -18 9 0
13 -14 13 -40 l0 -40 20 0 c12 0 20 7 20 16 0 53 130 85 199 50 33 -17 61 -57
61 -86 0 -11 3 -20 6 -20 12 0 33 34 34 53 0 24 44 67 69 67 11 0 32 5 46 12
19 9 28 9 37 0 7 -7 18 -12 26 -12 7 0 31 -18 52 -40 21 -22 44 -40 50 -40 33
0 39 -29 49 -221 12 -224 12 -247 0 -255 -5 -3 -9 -21 -9 -40 0 -52 -32 -104
-64 -104 -8 0 -18 -4 -21 -10 -3 -5 -17 -10 -30 -10 -13 0 -27 -4 -30 -10 -3
-5 -24 -10 -46 -10 -68 0 -109 -32 -109 -87 1 -40 26 -85 38 -68 4 6 18 16 30
23 l24 13 18 -16 c10 -9 24 -14 30 -10 7 4 16 1 21 -6 l8 -14 22 13 22 14 9
-14 c5 -7 13 -21 19 -30 12 -22 65 -24 85 -4 8 8 14 26 14 40 0 14 5 26 10 26
6 0 10 -7 10 -15 0 -19 44 -65 61 -65 19 0 60 53 47 61 -7 5 -4 15 11 30 11
12 21 29 21 36 0 7 11 13 25 13 14 0 35 9 47 20 28 26 48 26 48 0 0 -41 41
-21 69 33 l14 27 -14 28 c-25 49 -57 75 -87 69 -15 -3 -36 -7 -47 -9 l-19 -3
3 45 c1 25 7 49 12 54 5 6 9 31 9 56 0 25 4 50 8 56 5 5 14 36 21 69 7 33 17
70 22 83 5 13 9 40 9 62 0 21 5 42 10 45 6 3 10 19 10 36 l0 29 33 0 c18 0 38
5 45 12 9 9 15 9 24 0 14 -14 78 -16 78 -2 0 6 9 10 20 10 11 0 20 5 20 10 0
6 24 10 54 10 30 0 58 5 61 10 3 6 15 10 25 10 10 0 21 6 23 13 4 9 8 8 16 -3
l10 -14 34 12 c40 15 97 16 97 2 0 -5 18 -10 40 -10 22 0 54 -9 72 -20 18 -11
43 -20 55 -20 25 0 113 -84 113 -106 0 -8 5 -14 10 -14 6 0 10 -4 10 -10 0 -6
-28 -10 -63 -10 -57 0 -86 -8 -194 -51 -18 -7 -33 -17 -33 -20 0 -4 -6 -14
-12 -21 -23 -23 -58 -95 -58 -117 0 -12 -6 -31 -12 -42 -10 -17 -10 -23 0 -26
6 -3 12 -18 12 -34 0 -16 5 -29 10 -29 6 0 10 -10 10 -23 0 -31 66 -97 96 -97
13 0 24 -4 24 -10 0 -21 239 -3 260 20 9 9 65 41 83 47 9 3 17 9 17 13 0 4 9
10 20 13 11 3 20 13 20 22 0 9 8 29 18 43 9 15 22 36 28 47 11 21 54 34 54 17
0 -10 32 -17 118 -28 23 -4 42 -8 42 -11 0 -9 -29 -33 -40 -33 -7 0 -9 -7 -6
-16 3 -9 6 -18 6 -20 0 -8 50 -4 115 8 36 7 65 16 65 20 0 5 9 8 20 8 11 0 20
5 20 10 0 6 9 10 20 10 11 0 20 4 20 8 0 5 12 15 28 23 46 24 73 57 113 139
40 82 15 120 -40 61 -16 -17 -36 -31 -45 -31 -9 0 -16 -4 -16 -10 0 -15 -146
-12 -173 2 -12 7 -29 21 -38 30 -26 28 -49 23 -49 -11 0 -17 5 -33 10 -36 6
-3 10 -15 10 -26 l0 -19 -27 6 c-16 4 -32 11 -38 15 -5 5 -17 9 -27 9 -11 0
-24 14 -33 36 -8 21 -22 42 -31 49 -19 13 -44 79 -44 114 0 33 -20 99 -42 139
-23 41 -25 107 -3 98 20 -7 45 3 45 19 0 25 -36 45 -84 45 l-48 0 -80 80 c-45
44 -85 80 -90 80 -32 0 -52 72 -27 97 9 9 8 16 -4 27 -21 22 -49 20 -75 -4
-25 -24 -92 -28 -92 -6 0 37 93 146 125 146 8 0 15 5 15 10 0 6 23 10 50 10
38 0 50 4 50 15 0 9 -10 19 -22 24 -44 18 -58 46 -58 121 0 38 5 72 10 75 6 3
10 13 10 21 0 8 9 24 20 36 11 12 20 28 20 35 0 7 5 13 10 13 6 0 10 6 10 13
0 18 32 47 51 47 20 0 69 23 69 33 0 4 -16 7 -35 7 -49 0 -85 36 -85 85 0 19
-4 35 -10 35 -5 0 -10 11 -10 24 0 14 5 28 10 31 6 3 10 24 10 46 0 21 5 39
10 39 6 0 10 9 10 19 0 11 8 26 18 33 18 12 42 49 42 64 0 3 -12 4 -27 1 -15
-3 -37 -1 -50 4 l-23 8 1 126 c0 70 4 125 10 125 5 0 9 18 9 40 0 22 5 40 10
40 6 0 10 9 10 20 0 28 23 100 32 100 5 0 8 14 8 30 0 32 -8 37 -26 16z m-74
-255 c0 -17 -4 -33 -10 -36 -14 -9 -12 -118 3 -134 10 -11 10 -14 0 -18 -15
-6 -17 -43 -3 -43 6 0 10 -9 10 -19 0 -11 6 -21 13 -24 18 -6 -10 -37 -34 -37
-10 0 -20 -4 -23 -9 -3 -5 -19 -11 -35 -13 -34 -5 -41 5 -41 58 0 20 -5 45
-11 56 -9 16 -8 23 2 29 l14 9 -14 9 -14 9 22 23 c11 12 21 29 21 36 0 7 5 13
10 13 6 0 10 5 10 10 0 14 63 110 73 110 4 0 7 -13 7 -29z m-2680 -299 c0 -4
12 -15 28 -24 15 -9 43 -32 62 -50 20 -18 48 -39 63 -47 32 -17 35 -31 7 -31
-27 0 -25 -7 10 -40 16 -15 30 -35 30 -44 0 -9 5 -16 10 -16 6 0 10 -13 10
-30 0 -20 5 -30 15 -30 12 0 14 -6 8 -27 -4 -16 -7 -38 -6 -50 1 -16 -5 -23
-18 -23 -10 0 -19 5 -19 10 0 6 -13 10 -30 10 -16 0 -30 5 -30 10 0 6 -11 10
-24 10 -56 0 -124 49 -85 62 14 5 17 160 2 189 -22 47 -53 119 -53 124 0 3 5
5 10 5 6 0 10 -4 10 -8z m1500 -52 c0 -22 -4 -40 -9 -40 -11 0 -21 49 -14 67
10 27 23 12 23 -27z m1193 -37 c-16 -6 -18 -199 -3 -208 16 -10 12 -42 -6 -49
-9 -3 -35 -6 -59 -6 l-43 0 -14 30 c-7 17 -16 30 -20 30 -13 0 -9 58 5 63 8 4
9 8 2 14 -12 10 -16 63 -5 63 4 0 10 9 13 20 3 11 12 20 21 20 9 0 16 5 16 10
0 6 9 10 20 10 11 0 20 4 20 9 0 13 43 19 55 8 7 -6 6 -11 -2 -14z m-969 -87
c-6 -16 -24 -23 -24 -8 0 10 22 33 27 28 2 -2 1 -11 -3 -20z m555 -42 c1 -18
-58 -94 -73 -94 -16 0 -4 32 14 37 l20 5 0 48 c0 69 37 73 39 4z m-2039 36 c0
-5 -4 -10 -10 -10 -5 0 -10 5 -10 10 0 6 5 10 10 10 6 0 10 -4 10 -10z m1900
-20 c0 -5 -4 -10 -10 -10 -5 0 -10 5 -10 10 0 6 5 10 10 10 6 0 10 -4 10 -10z
m-40 -40 c0 -5 -4 -10 -10 -10 -5 0 -10 5 -10 10 0 6 5 10 10 10 6 0 10 -4 10
-10z m-1613 -25 c8 -9 13 -19 10 -22 -6 -5 -37 21 -37 31 0 10 11 6 27 -9z
m942 -44 c22 -25 87 -61 111 -61 l20 0 0 -59 c0 -33 -4 -62 -9 -65 -13 -8 -71
5 -71 15 0 5 7 9 16 9 8 0 22 6 30 14 24 25 17 46 -16 46 -23 0 -30 4 -30 20
0 13 -7 20 -20 20 -11 0 -20 5 -20 10 0 6 -6 10 -12 10 -13 1 -68 45 -68 55 0
13 54 3 69 -14z m621 9 c0 -5 -7 -10 -15 -10 -8 0 -15 5 -15 10 0 6 7 10 15
10 8 0 15 -4 15 -10z m-1470 -18 c0 -5 12 -15 28 -23 15 -8 36 -22 46 -31 11
-10 26 -18 33 -18 7 0 13 -4 13 -10 0 -5 -6 -10 -13 -10 -18 0 -67 24 -67 33
0 4 -7 7 -16 7 -8 0 -22 6 -30 14 -16 17 -19 46 -4 46 6 0 10 -4 10 -8z m1425
-38 c-23 -23 -30 -10 -8 15 10 12 19 17 21 11 2 -5 -4 -17 -13 -26z m255 -18
c0 -8 5 -16 12 -18 26 -9 -2 -38 -37 -38 -40 0 -45 15 -15 48 24 25 40 28 40
8z m-280 -21 c0 -8 -4 -15 -10 -15 -6 0 -10 -27 -10 -60 0 -48 -3 -60 -16 -60
-22 0 -53 32 -36 38 6 2 12 9 12 16 0 18 24 66 33 66 4 0 7 7 7 15 0 8 5 15
10 15 6 0 10 -7 10 -15z m120 -5 c0 -5 -4 -10 -10 -10 -5 0 -10 5 -10 10 0 6
5 10 10 10 6 0 10 -4 10 -10z m569 -9 l14 -9 -22 -23 c-11 -12 -21 -31 -21
-40 0 -10 -4 -21 -10 -24 -5 -3 -10 -19 -10 -36 0 -16 -4 -29 -10 -29 -6 0
-10 -27 -10 -60 l0 -60 -26 0 c-46 0 -55 20 -53 125 1 52 5 95 10 95 5 0 9 8
9 18 0 13 15 22 53 34 64 20 59 20 76 9z m-1414 -32 c5 -5 -15 -9 -51 -9 -33
0 -65 -5 -71 -11 -16 -16 -67 -7 -71 13 -2 12 5 17 30 20 51 5 152 -3 163 -13z
m-1135 1 c0 -5 10 -10 23 -10 13 0 33 -9 45 -20 12 -11 24 -20 28 -20 17 0 44
-35 44 -56 0 -13 9 -29 20 -36 11 -7 20 -21 20 -30 0 -10 7 -18 15 -18 17 0
18 -2 9 -24 -3 -9 -15 -16 -25 -16 -10 0 -19 -4 -19 -9 0 -5 -19 -11 -42 -14
-24 -3 -55 -8 -70 -12 l-26 -7 -5 73 c-7 95 -17 149 -28 149 -5 0 -9 9 -9 20
0 11 -4 20 -10 20 -5 0 -10 5 -10 10 0 6 9 10 20 10 11 0 20 -4 20 -10z m635
-12 c25 -21 34 -48 16 -48 -5 0 -19 13 -30 29 -33 46 -27 55 14 19z m591 -12
c19 -20 18 -26 -6 -26 -11 0 -20 5 -20 10 0 6 -9 10 -20 10 -11 0 -20 5 -20
10 0 15 49 12 66 -4z m894 8 c0 -3 -6 -12 -14 -20 -20 -19 -26 -18 -26 6 0 13
7 20 20 20 11 0 20 -3 20 -6z m-1414 -68 c8 -8 14 -21 14 -29 0 -9 6 -18 13
-21 10 -5 10 -7 0 -12 -7 -3 -13 -14 -13 -25 0 -12 -7 -19 -19 -19 -14 0 -20
10 -24 45 -6 41 -1 75 10 75 2 0 11 -6 19 -14z m1382 -13 c14 -32 16 -113 2
-113 -5 0 -10 5 -10 10 0 6 -9 10 -20 10 -16 0 -20 7 -20 30 0 17 5 30 10 30
6 0 10 14 10 30 0 37 11 38 28 3z m-222 -67 c8 -8 14 -26 14 -40 0 -14 5 -26
10 -26 6 0 10 -25 10 -55 0 -30 -4 -55 -10 -55 -5 0 -10 25 -10 55 0 30 -4 55
-9 55 -5 0 -11 10 -14 23 -2 12 -8 30 -12 40 -9 21 1 22 21 3z m-501 -52 c-9
-9 -19 -13 -23 -10 -3 4 0 11 8 16 24 15 33 11 15 -6z m675 0 c0 -3 -6 -12
-14 -20 -20 -19 -26 -18 -26 6 0 13 7 20 20 20 11 0 20 -3 20 -6z m-780 -29
c0 -8 -13 -28 -30 -43 -16 -16 -30 -37 -30 -46 0 -9 -4 -16 -10 -16 -5 0 -10
-15 -10 -33 0 -19 -8 -42 -19 -53 -26 -28 -40 -104 -26 -136 l7 -18 -45 0
c-30 0 -64 10 -108 33 -35 17 -65 35 -67 40 -2 4 -10 7 -18 7 -21 0 -72 52
-56 58 7 2 12 12 12 23 0 10 5 19 10 19 6 0 10 7 10 15 0 9 16 31 35 51 19 19
35 39 35 44 0 6 11 10 25 10 14 0 25 4 25 8 0 16 70 33 131 31 40 -1 64 2 67
9 6 18 62 15 62 -3z m568 -68 c20 -54 17 -57 -48 -57 l-60 0 0 26 c0 29 31 67
38 46 5 -17 42 -15 42 3 0 26 16 16 28 -18z m-1593 -20 c7 -9 20 -17 29 -17 9
0 16 -4 16 -10 0 -5 9 -10 20 -10 13 0 20 -7 20 -20 0 -11 6 -20 14 -20 28 0
27 -32 -1 -56 -16 -13 -32 -24 -37 -24 -5 0 -16 -8 -25 -17 -16 -17 -55 -43
-66 -43 -3 0 -5 7 -5 15 0 9 -9 35 -20 57 -11 23 -20 48 -20 55 0 7 -4 13 -8
13 -5 0 -14 12 -21 27 -7 15 -21 33 -32 41 -37 26 -22 34 52 30 52 -3 75 -8
84 -21z m635 19 c0 -2 -3 -11 -6 -20 -9 -23 -24 -20 -24 4 0 11 7 20 15 20 8
0 15 -2 15 -4z m500 -2 c0 -12 -34 -33 -52 -34 -10 0 -18 -4 -18 -10 0 -5 -13
-10 -30 -10 -32 0 -40 19 -17 45 12 14 117 22 117 9z m1070 0 c0 -3 -22 -27
-50 -54 -27 -27 -50 -52 -50 -55 0 -12 -41 -65 -51 -65 -5 0 -9 14 -9 30 0 17
5 30 10 30 6 0 10 11 10 25 0 15 13 40 33 60 25 26 40 34 70 34 20 1 37 -2 37
-5z m-420 -89 c0 -14 -4 -25 -10 -25 -5 0 -10 11 -10 25 0 14 5 25 10 25 6 0
10 -11 10 -25z m-1260 5 c0 -5 -4 -10 -10 -10 -5 0 -10 5 -10 10 0 6 5 10 10
10 6 0 10 -4 10 -10z m20 -40 c0 -5 -4 -10 -10 -10 -5 0 -10 5 -10 10 0 6 5
10 10 10 6 0 10 -4 10 -10z m580 -17 c0 -13 -32 -33 -54 -33 -14 0 -28 -4 -31
-10 -9 -15 -64 -12 -81 5 l-15 15 13 14 c9 10 36 14 91 14 42 0 77 -2 77 -5z
m-560 -21 c0 -4 13 -16 30 -25 16 -10 35 -23 42 -30 12 -12 58 -38 121 -67 38
-19 34 -30 -13 -30 -22 0 -40 5 -40 10 0 6 -9 10 -20 10 -12 0 -20 7 -20 16 0
20 -24 44 -44 44 -9 0 -16 4 -16 9 0 5 -9 11 -20 14 -11 3 -20 12 -20 21 0 9
-4 16 -10 16 -5 0 -10 5 -10 10 0 6 5 10 10 10 6 0 10 -4 10 -8z m-80 -32 c0
-11 5 -20 10 -20 6 0 10 -4 10 -10 0 -5 -7 -10 -15 -10 -8 0 -15 6 -15 14 0 8
-3 21 -6 30 -3 9 -1 16 5 16 6 0 11 -9 11 -20z m1080 -15 c0 -15 -42 -65 -55
-65 -14 0 -3 37 18 57 26 26 37 28 37 8z m-1420 -15 c0 -5 10 -10 23 -10 12 0
36 -14 54 -30 18 -17 39 -30 47 -30 9 0 16 -4 16 -10 0 -15 30 -12 47 5 8 9
18 14 21 11 6 -7 -18 -43 -55 -81 -16 -17 -32 -39 -36 -48 -10 -25 -32 -21
-48 10 -24 47 -100 113 -130 113 -6 0 -17 7 -25 15 l-15 15 13 13 c12 11 61
33 81 36 4 1 7 -3 7 -9z m1560 -30 l0 -20 -40 0 c-22 0 -40 5 -40 10 0 6 9 10
19 10 11 0 23 5 26 10 11 18 35 11 35 -10z m324 12 c10 -16 -38 -52 -69 -52
-8 0 -15 -4 -15 -10 0 -5 -9 -10 -20 -10 -27 0 -25 5 13 45 30 32 79 47 91 27z
m-884 -29 c0 -22 -48 -83 -66 -83 -7 0 -14 -4 -14 -10 0 -5 -21 -10 -47 -10
l-48 0 -12 26 -12 26 14 14 c7 8 26 14 42 14 15 0 39 9 53 20 32 25 90 27 90
3z m-474 -77 c19 -20 18 -26 -6 -26 -13 0 -20 7 -20 20 0 24 6 25 26 6z m234
-62 c0 -11 -5 -14 -16 -10 -9 3 -22 6 -30 6 -8 0 -14 5 -14 10 0 6 14 10 30
10 21 0 30 -5 30 -16z m-448 -24 c15 0 28 -4 28 -9 0 -5 21 -9 46 -9 25 0 48
-3 51 -6 4 -3 0 -25 -7 -48 -7 -24 -14 -49 -16 -55 -5 -20 -18 -16 -52 17 -18
17 -38 30 -46 30 -8 0 -18 5 -21 10 -3 6 -17 10 -31 10 -13 0 -24 5 -24 10 0
6 -13 10 -29 10 -34 0 -44 10 -31 29 10 17 81 31 95 19 5 -4 22 -8 37 -8z
m757 1 l14 -9 -26 -26 c-14 -14 -33 -26 -42 -26 -8 0 -15 -4 -15 -10 0 -16
-89 -12 -106 4 -19 20 -18 26 6 26 11 0 20 5 20 10 0 6 9 10 20 10 11 0 20 4
20 9 0 6 19 12 43 14 23 2 44 4 47 5 3 1 11 -2 19 -7z m791 -46 c0 -14 -8 -29
-20 -35 l-20 -11 0 29 c0 32 7 42 27 42 7 0 13 -11 13 -25z m-236 -22 c-4 -16
-11 -29 -16 -31 -4 -2 -8 -12 -8 -23 0 -12 -7 -19 -20 -19 -11 0 -20 -4 -20
-10 0 -5 -9 -10 -20 -10 -11 0 -20 5 -20 10 0 6 5 10 10 10 6 0 10 8 10 19 0
10 5 32 11 50 l11 31 34 0 34 0 -6 -27z m383 11 l16 -15 -14 -25 c-17 -33 -62
-30 -67 4 -7 45 34 67 65 36z m-547 -24 c0 -11 -4 -20 -10 -20 -5 0 -10 9 -10
20 0 11 5 20 10 20 6 0 10 -9 10 -20z m246 -26 c-9 -9 -20 -13 -24 -9 -4 4 -1
10 6 12 6 3 12 12 12 21 0 12 3 13 11 5 9 -9 7 -16 -5 -29z m-1050 4 c25 -25
8 -41 -35 -33 -20 3 -57 9 -83 11 -49 6 -56 12 -37 31 17 17 135 11 155 -9z
m464 -24 c0 -9 -41 -44 -52 -44 -17 0 -7 26 15 36 27 14 37 16 37 8z m993 -1
c9 -9 -13 -34 -24 -27 -14 8 -11 34 4 34 8 0 17 -3 20 -7z m107 -83 c0 -5 -7
-10 -15 -10 -8 0 -15 5 -15 10 0 6 7 10 15 10 8 0 15 -4 15 -10z m-942 -80
c-2 -32 -7 -50 -15 -50 -19 0 -25 -18 -11 -39 10 -16 10 -23 0 -33 -6 -6 -12
-20 -12 -30 0 -10 -3 -18 -8 -18 -4 0 -8 36 -9 80 -1 44 3 80 8 80 5 0 9 7 9
15 0 17 20 44 33 45 4 0 6 -22 5 -50z m-158 -230 c0 -100 -4 -160 -10 -160 -6
0 -10 39 -10 96 0 52 -5 104 -10 114 -7 13 -7 21 0 25 13 8 13 65 0 65 -5 0
-10 5 -10 10 0 6 9 10 20 10 l20 0 0 -160z m1140 -25 l23 -25 -11 -25 c-7 -14
-18 -37 -24 -52 -7 -14 -21 -28 -30 -31 -10 -2 -18 -8 -18 -13 0 -5 -30 -9
-66 -9 -74 0 -94 12 -94 57 0 58 40 103 91 103 10 0 21 5 24 10 3 6 23 10 44
10 27 0 44 -7 61 -25z m700 15 c0 -5 -7 -10 -15 -10 -8 0 -15 -4 -15 -9 0 -14
-63 -71 -77 -71 -7 0 -13 -4 -13 -8 0 -8 -43 -32 -55 -32 -2 0 -3 21 -2 48 l2
47 55 3 c30 2 57 6 60 10 7 9 43 31 53 31 4 1 7 -3 7 -9z m-1720 -70 c0 -11
-4 -20 -10 -20 -5 0 -10 9 -10 20 0 11 5 20 10 20 6 0 10 -9 10 -20z m-8 -118
c-7 -2 -12 -10 -12 -18 0 -8 -4 -14 -10 -14 -11 0 -13 39 -4 65 l6 16 16 -22
c11 -17 12 -24 4 -27z m-132 -32 c0 -16 -4 -30 -10 -30 -5 0 -10 14 -10 30 0
17 5 30 10 30 6 0 10 -13 10 -30z m80 -116 c0 -3 -7 -12 -15 -21 -20 -19 -32
-10 -14 11 14 15 29 21 29 10z"/>
</g>
</svg>
