<?xml version="1.0" standalone="no"?>
<!DOCTYPE svg PUBLIC "-//W3C//DTD SVG 20010904//EN"
 "http://www.w3.org/TR/2001/REC-SVG-20010904/DTD/svg10.dtd">
<svg version="1.0" xmlns="http://www.w3.org/2000/svg"
 width="170.205433pt" height="263.989304pt" viewBox="0 0 170.205433 263.989304"
 preserveAspectRatio="xMidYMid meet">
<metadata>
Created by Potrace Professional 1.0m
</metadata>
<g transform="translate(-0.000000,263.989304) rotate(-360.00) scale(0.100000,-0.100000)"
fill="#000000" stroke="none">
<path d="M1040 2632 c0 -4 -18 -18 -40 -32 l-40 -25 0 -47 c0 -53 -5 -57 -29
-30 -32 37 -63 45 -159 44 -74 -1 -98 -4 -113 -18 -10 -9 -19 -23 -19 -31 0
-7 -8 -13 -18 -13 -10 0 -25 -12 -33 -27 -8 -16 -26 -40 -41 -55 -45 -42 -29
-118 25 -118 9 0 19 -4 22 -10 3 -5 18 -10 32 -10 19 0 24 -4 19 -16 -3 -9 -6
-18 -6 -20 0 -2 -7 -4 -15 -4 -9 0 -19 -8 -22 -17 -4 -10 -14 -25 -24 -33 -9
-9 -26 -31 -36 -50 -11 -19 -28 -37 -38 -38 -18 -4 -64 -50 -65 -65 0 -5 -13
-22 -30 -37 -34 -32 -35 -36 -17 -73 l12 -27 37 0 c27 0 41 -6 50 -20 7 -11
21 -20 30 -20 11 0 18 -8 18 -19 0 -11 5 -21 12 -23 6 -2 8 -10 4 -16 -4 -7
-16 -10 -27 -7 -21 7 -49 -15 -49 -39 0 -9 -4 -16 -9 -16 -12 0 -25 -93 -16
-119 5 -16 15 -21 41 -21 l34 0 -6 -27 c-3 -16 -9 -37 -14 -48 -14 -35 -29
-108 -35 -178 -4 -37 -13 -74 -21 -81 -16 -17 -19 -92 -4 -101 5 -3 10 -19 10
-36 l0 -29 -33 0 c-18 0 -52 9 -75 20 -22 11 -48 20 -57 20 -8 0 -15 6 -15 13
0 46 -45 87 -95 87 -14 0 -25 5 -25 10 0 6 -13 10 -30 10 l-30 0 0 -25 c0 -16
-17 -42 -50 -76 l-50 -51 0 -35 0 -35 37 5 c123 18 143 19 143 8 0 -6 14 -11
30 -11 17 0 30 -4 30 -10 0 -5 18 -10 40 -10 22 0 40 -4 40 -10 0 -5 7 -10 15
-10 9 0 27 -11 42 -24 l25 -24 -5 -38 c-4 -22 -9 -56 -13 -76 -4 -25 -2 -38 5
-38 6 0 11 -17 11 -40 0 -30 4 -40 16 -40 33 0 44 -26 44 -102 0 -41 5 -79 11
-85 22 -22 -3 -203 -30 -210 -29 -7 -58 -103 -31 -103 6 0 10 -16 10 -35 0
-35 29 -63 38 -37 7 21 22 13 22 -12 0 -29 38 -56 80 -56 54 0 80 47 40 72
l-20 13 0 167 c0 105 4 168 10 168 6 0 10 15 10 34 0 19 5 38 10 41 5 3 10 28
10 56 0 56 9 60 65 29 20 -11 54 -20 76 -20 l41 0 -6 -42 c-10 -82 -18 -118
-27 -124 -5 -3 -9 -18 -9 -34 0 -16 -5 -32 -10 -35 -6 -3 -10 -19 -10 -35 0
-16 -4 -32 -10 -35 -5 -3 -10 -17 -10 -30 0 -14 -9 -39 -20 -57 -21 -34 -27
-83 -11 -92 5 -3 12 -18 15 -32 4 -14 14 -43 24 -65 l17 -39 44 0 c54 0 86 29
77 72 l-5 28 49 0 c28 0 50 5 50 10 0 6 11 10 25 10 14 0 35 9 47 20 23 21 48
27 48 10 0 -13 57 -13 65 0 3 5 17 10 31 10 19 0 24 5 24 24 0 13 3 31 6 39 3
8 -1 21 -8 29 -23 24 -38 57 -38 81 0 13 -4 27 -9 33 -5 5 -12 47 -15 94 -15
205 -19 240 -26 240 -4 0 -11 21 -14 48 -18 135 -18 138 3 183 12 23 21 58 21
76 0 18 5 33 10 33 6 0 10 14 10 30 0 17 5 30 10 30 6 0 10 9 10 20 0 11 5 20
10 20 6 0 10 9 10 20 0 11 5 20 10 20 6 0 10 9 10 20 0 14 7 20 23 20 57 1 70
51 65 255 -6 243 3 385 23 385 5 0 9 11 9 25 0 38 38 52 81 31 17 -9 36 -16
41 -16 5 0 29 -14 54 -30 l44 -31 50 7 c35 5 60 15 79 33 31 29 35 50 32 174
l-1 67 -17 0 c-11 0 -27 19 -42 50 -14 28 -29 50 -33 50 -4 0 -8 14 -8 30 0
23 -4 30 -20 30 -11 0 -20 5 -20 10 0 6 -12 10 -26 10 -27 0 -74 -43 -74 -67
0 -7 -5 -13 -11 -13 -6 0 -25 -10 -41 -22 l-31 -21 -18 11 c-10 7 -32 12 -49
12 -16 0 -30 5 -30 10 0 6 -7 10 -15 10 -18 0 -85 64 -85 81 0 6 8 19 18 28 9
9 28 37 41 64 13 26 28 47 33 47 15 0 8 46 -10 66 -9 10 -28 40 -42 67 -18 34
-31 47 -47 47 -12 0 -25 5 -28 10 -7 12 -105 14 -105 2z m503 -526 c20 -16 21
-25 3 -49 l-14 -19 -23 13 c-33 17 -49 35 -49 53 0 20 57 21 83 2z m-603
-1766 c0 -33 4 -60 10 -60 18 0 10 -31 -15 -55 -13 -14 -31 -25 -40 -25 -8 0
-15 -4 -15 -10 0 -5 -11 -10 -25 -10 -14 0 -25 2 -25 4 0 16 15 36 27 36 25 0
43 27 43 64 0 20 5 36 10 36 6 0 10 18 10 40 0 22 5 40 10 40 6 0 10 -27 10
-60z"/>
</g>
</svg>
