<?xml version="1.0" standalone="no"?>
<!DOCTYPE svg PUBLIC "-//W3C//DTD SVG 20010904//EN"
 "http://www.w3.org/TR/2001/REC-SVG-20010904/DTD/svg10.dtd">
<svg version="1.0" xmlns="http://www.w3.org/2000/svg"
 width="135.380633pt" height="181.982019pt" viewBox="0 0 135.380633 181.982019"
 preserveAspectRatio="xMidYMid meet">
<metadata>
Created by Potrace Professional 1.0m
</metadata>
<g transform="translate(-0.608773,184.000000) rotate(-360.00) scale(0.100000,-0.100000)"
fill="#000000" stroke="none">
<path d="M685 1830 c-3 -5 -28 -10 -56 -10 -27 0 -49 -4 -49 -9 0 -5 -15 -11
-32 -14 -84 -14 -103 -22 -106 -47 -2 -14 -8 -29 -13 -34 -5 -6 -9 -25 -9 -42
0 -18 -4 -36 -10 -39 -5 -3 -10 -21 -10 -40 0 -19 -4 -36 -9 -39 -9 -6 -18
-53 -27 -146 -3 -30 -10 -59 -15 -64 -5 -6 -9 -27 -9 -48 0 -21 -4 -38 -10
-38 -5 0 -10 -17 -10 -38 0 -21 -3 -42 -7 -46 -9 -8 -10 -14 -12 -50 -1 -17
-10 -28 -31 -38 -17 -7 -30 -16 -30 -20 0 -5 -7 -8 -15 -8 -19 0 -135 -114
-154 -152 -8 -16 -18 -28 -23 -28 -4 0 -8 -9 -8 -20 0 -11 -4 -20 -10 -20 -5
0 -10 -22 -10 -48 0 -26 -4 -52 -9 -57 -15 -16 9 -176 30 -207 11 -14 19 -29
19 -32 0 -4 27 -34 60 -68 39 -39 60 -69 60 -84 0 -12 5 -26 10 -29 6 -3 10
-17 10 -31 0 -13 5 -24 10 -24 6 0 10 -6 10 -13 0 -24 133 -167 156 -167 3 0
18 -8 32 -18 15 -10 51 -24 80 -30 66 -15 232 -16 232 -2 0 6 15 10 33 10 34
0 87 20 87 33 0 4 7 7 16 7 17 0 157 136 167 163 3 9 13 17 22 17 8 0 15 5 15
10 0 6 6 10 14 10 48 0 226 145 226 184 0 9 5 16 10 16 6 0 10 9 10 20 0 11 5
20 10 20 6 0 10 14 10 30 0 17 5 30 10 30 14 0 13 192 -2 240 -7 22 -16 40
-20 40 -5 0 -8 5 -8 10 0 21 -66 107 -91 119 -31 14 -61 62 -41 68 7 3 12 22
12 47 0 24 4 56 10 72 5 16 11 52 13 79 3 28 7 57 10 65 3 8 8 41 11 73 14
144 19 173 28 184 11 14 -85 116 -139 148 -18 11 -33 23 -33 27 0 4 -11 8 -24
8 -14 0 -28 5 -31 10 -3 6 -15 10 -26 10 -10 0 -19 5 -19 10 0 14 -94 12 -108
-2 -7 -7 -12 -20 -12 -30 0 -10 -4 -18 -9 -18 -5 0 -11 -10 -14 -22 -3 -13
-11 -41 -17 -63 -26 -96 -37 -208 -39 -397 l-1 -78 -21 0 -21 0 6 93 c14 208
18 247 26 247 7 0 13 52 26 238 l6 82 -65 0 c-36 0 -69 -4 -72 -10z m-205
-329 c0 -11 -4 -23 -10 -26 -6 -4 -10 5 -10 19 0 14 5 26 10 26 6 0 10 -9 10
-19z m-20 -101 c0 -22 -4 -40 -10 -40 -11 0 -14 63 -3 73 11 12 13 8 13 -33z
m-24 -128 c-12 -11 -17 7 -9 34 l8 29 3 -28 c2 -16 1 -31 -2 -35z m-16 -102
c0 -16 -4 -30 -10 -30 -11 0 -14 43 -3 53 11 12 13 8 13 -23z m406 -64 c8 -8
14 -17 14 -20 0 -3 -48 -6 -106 -6 -78 0 -109 4 -120 14 -8 8 -14 17 -14 20 0
3 48 6 106 6 78 0 109 -4 120 -14z m154 -36 c0 -5 -9 -10 -20 -10 -11 0 -20 5
-20 10 0 6 9 10 20 10 11 0 20 -4 20 -10z m-260 -220 c0 -5 7 -10 16 -10 20 0
44 -24 44 -43 0 -9 6 -18 13 -21 10 -5 10 -7 0 -12 -7 -3 -13 -14 -13 -25 0
-10 -4 -19 -10 -19 -5 0 -10 -9 -10 -20 l0 -20 -95 0 -96 0 -34 32 c-46 41
-46 71 2 114 l37 34 73 0 c42 0 73 -4 73 -10z m-240 -15 c0 -23 -44 -75 -64
-75 -9 0 -16 -4 -16 -10 0 -5 -6 -10 -13 -10 -7 0 -23 -9 -35 -20 -23 -22 -57
-27 -48 -7 3 6 9 20 12 30 4 9 12 17 19 17 6 0 26 14 43 30 18 17 38 30 46 30
8 0 18 5 21 10 6 10 35 14 35 5z m380 -45 c0 -5 -4 -10 -10 -10 -5 0 -10 5
-10 10 0 6 5 10 10 10 6 0 10 -4 10 -10z m37 -96 l44 -45 -3 -62 -3 -62 -36
-3 -35 -3 -25 48 c-13 26 -26 50 -30 53 -14 12 -18 59 -6 72 7 7 16 21 20 31
10 27 27 21 74 -29z m-402 1 c23 -22 35 -75 17 -75 -4 0 -16 -13 -25 -30 -28
-47 -46 -60 -85 -60 -43 0 -52 6 -71 41 l-13 27 13 37 c8 21 22 40 32 43 9 2
17 8 17 13 0 5 9 9 20 9 11 0 20 5 20 10 0 20 51 10 75 -15z m-209 -59 c3 -14
3 -30 -1 -37 -4 -6 -2 -15 6 -19 l13 -9 -13 -53 c-20 -76 -32 -98 -53 -98
l-18 0 0 90 c0 53 4 90 10 90 6 0 10 7 10 15 0 17 20 44 32 45 4 0 10 -11 14
-24z m487 -40 c61 -62 73 -149 26 -192 -11 -9 -19 -22 -19 -28 0 -21 -54 -36
-125 -36 l-72 0 -18 20 c-30 33 -65 112 -65 147 0 44 45 113 74 113 11 0 28 5
36 10 8 5 38 10 67 10 l51 0 45 -44z m227 24 c0 -11 3 -20 8 -20 4 0 13 -18
20 -40 24 -79 8 -107 -28 -47 -21 34 -28 127 -10 127 6 0 10 -9 10 -20z m-546
-163 c14 -14 26 -33 26 -42 0 -8 5 -15 10 -15 6 0 10 -6 10 -13 0 -7 9 -23 20
-35 21 -22 28 -92 10 -92 -5 0 -10 -7 -10 -16 0 -22 -25 -44 -51 -44 -64 0
-149 48 -149 84 0 8 -4 16 -9 18 -5 2 -10 19 -11 38 -6 73 0 107 21 129 l22
23 43 -5 c28 -3 51 -13 68 -30z m524 -2 l22 -25 0 -65 c0 -37 -4 -65 -10 -65
-5 0 -10 -8 -10 -17 0 -28 -63 -63 -113 -63 -50 0 -67 13 -67 51 0 15 -6 30
-12 32 -9 4 -9 8 -3 14 13 10 45 63 52 86 3 9 9 17 14 17 5 0 9 8 9 18 0 42
86 54 118 17z m-712 -129 c8 -8 14 -19 14 -25 0 -6 5 -20 12 -31 7 -10 9 -22
5 -26 -10 -11 -36 27 -37 54 0 12 -4 22 -10 22 -5 0 -10 5 -10 10 0 14 9 12
26 -4z m481 -38 c6 -7 13 -30 16 -50 6 -39 -16 -78 -44 -78 -8 0 -21 -9 -29
-20 -15 -21 -50 -28 -50 -10 0 6 -9 10 -20 10 -11 0 -20 5 -20 10 0 6 -6 10
-12 10 -7 0 -22 7 -32 15 -16 12 -17 18 -8 27 7 7 12 19 12 28 0 8 10 27 23
42 l22 28 66 0 c42 0 70 -5 76 -12z m-250 -123 c17 -4 41 -16 52 -26 11 -10
25 -19 31 -19 15 0 40 -25 40 -41 0 -14 -129 -4 -144 12 -6 5 -20 9 -33 9 -13
0 -23 4 -23 9 0 5 -9 11 -20 14 -14 3 -20 14 -20 32 l0 27 43 -5 c23 -3 56 -9
74 -12z m365 -15 c-18 -16 -39 -30 -47 -30 -8 0 -15 -4 -15 -10 0 -5 -13 -10
-29 -10 -17 0 -33 -4 -36 -10 -10 -16 -35 -12 -35 5 0 9 8 19 18 22 9 4 26 15
36 25 11 10 30 18 43 18 13 0 23 5 23 10 0 6 16 10 36 10 l37 0 -31 -30z"/>
</g>
</svg>
