<?xml version="1.0" standalone="no"?>
<!DOCTYPE svg PUBLIC "-//W3C//DTD SVG 20010904//EN"
 "http://www.w3.org/TR/2001/REC-SVG-20010904/DTD/svg10.dtd">
<svg version="1.0" xmlns="http://www.w3.org/2000/svg"
 width="277.785161pt" height="302.463471pt" viewBox="0 0 277.785161 302.463471"
 preserveAspectRatio="xMidYMid meet">
<metadata>
Created by Potrace Professional 1.0m
</metadata>
<g transform="translate(-0.169341,302.450560) rotate(-360.00) scale(0.100000,-0.100000)"
fill="#000000" stroke="none">
<path d="M1183 3023 c-13 -3 -23 -9 -23 -14 0 -5 -22 -9 -50 -9 -27 0 -50 -4
-50 -10 0 -5 -10 -10 -23 -10 -22 0 -132 -81 -174 -130 -13 -14 -23 -35 -23
-47 0 -12 -4 -25 -10 -28 -5 -3 -10 -17 -10 -30 0 -13 -5 -25 -12 -27 -6 -2
-9 -12 -5 -21 4 -12 18 -17 46 -17 47 0 91 -36 91 -75 0 -13 5 -27 10 -30 15
-9 12 -84 -4 -101 -8 -8 -27 -14 -43 -14 -36 -1 -67 -24 -60 -45 4 -8 16 -15
27 -15 11 0 20 -4 20 -10 0 -5 -8 -10 -18 -10 -56 0 -95 -51 -44 -58 12 -2 22
-6 22 -9 0 -12 -36 -32 -58 -33 -20 0 -58 -16 -72 -30 -12 -12 -51 -30 -65
-30 -8 0 -15 -4 -15 -10 0 -5 -7 -10 -16 -10 -20 0 -44 -24 -44 -44 0 -9 -3
-16 -7 -16 -5 0 -9 -26 -9 -57 -1 -32 -7 -59 -13 -61 -6 -2 -11 -9 -11 -15 0
-16 -41 -62 -62 -70 -10 -3 -18 -13 -18 -22 0 -8 -4 -15 -10 -15 -5 0 -10 -7
-10 -15 0 -20 -29 -65 -42 -65 -10 0 -38 -25 -38 -33 0 -3 9 -7 20 -10 25 -7
25 -18 0 -45 -11 -12 -20 -25 -20 -31 0 -5 -13 -22 -30 -38 -21 -20 -30 -37
-30 -61 0 -22 -6 -35 -18 -39 -9 -4 -30 -20 -47 -35 -16 -15 -38 -28 -48 -28
-10 0 -24 -6 -30 -12 -18 -19 -57 -98 -57 -114 0 -8 -4 -14 -9 -14 -5 0 -12
-19 -15 -42 -18 -121 -33 -178 -46 -178 -20 0 -40 -364 -21 -383 6 -6 11 -30
11 -54 0 -24 4 -43 9 -43 5 0 11 -19 14 -43 3 -23 9 -57 13 -75 3 -19 2 -43
-4 -55 -20 -43 -22 -94 -3 -111 10 -9 23 -16 29 -16 7 0 12 -4 12 -10 0 -5 -5
-10 -11 -10 -29 0 -39 -29 -36 -107 2 -43 6 -84 10 -90 4 -7 23 -9 47 -6 l40
6 0 -22 c0 -11 6 -21 13 -21 6 0 28 -15 47 -33 l34 -32 77 3 c46 2 80 -2 84
-8 3 -5 15 -10 25 -10 10 0 20 -5 22 -11 3 -9 9 -9 25 0 14 7 24 8 28 1 9 -15
208 -13 223 2 9 9 15 9 24 0 14 -14 94 -16 103 -2 3 6 31 10 61 10 31 0 99 5
152 11 72 9 97 9 100 0 2 -6 19 -11 37 -11 25 0 35 5 40 19 3 12 17 21 33 23
16 2 28 10 30 20 3 14 -3 18 -26 18 -32 0 -42 13 -34 42 3 12 14 18 33 18 22
0 29 5 29 20 l0 20 -46 0 -46 0 -5 20 c-3 11 -14 20 -24 20 -12 0 -19 7 -19
20 0 12 7 20 16 20 16 0 76 -38 82 -52 2 -4 17 -8 33 -8 16 0 29 -5 29 -11 0
-7 21 -9 63 -5 121 10 242 24 279 31 l37 7 25 -41 c15 -23 31 -41 37 -41 7 0
19 -8 28 -18 23 -25 89 -62 112 -62 10 0 19 -4 19 -10 0 -5 20 -10 44 -10 l45
0 18 30 c9 17 21 30 25 30 4 0 8 27 8 60 l0 60 18 1 c9 0 77 0 150 -1 72 -1
132 3 132 7 0 4 13 14 29 21 21 9 30 21 33 44 7 44 -1 68 -21 68 -10 0 -21 3
-25 8 -8 8 -14 9 -53 11 -16 0 -41 13 -58 27 -16 14 -42 33 -57 42 l-28 16 0
58 c0 32 4 58 10 58 6 0 10 18 10 40 0 22 5 40 10 40 6 0 10 9 10 20 0 11 5
20 10 20 6 0 10 14 10 30 0 17 5 30 10 30 6 0 10 11 10 24 0 14 5 28 10 31 6
3 10 15 10 26 0 10 5 19 10 19 6 0 10 11 10 24 0 14 4 28 10 31 5 3 10 15 10
26 0 10 5 19 10 19 6 0 10 9 10 20 0 20 4 29 28 77 7 13 12 34 12 47 0 14 5
28 10 31 20 12 9 25 -20 25 -16 0 -30 5 -30 10 0 6 -13 10 -30 10 -16 0 -30
-4 -30 -10 0 -20 -15 -9 -28 19 -15 35 -42 48 -54 26 -13 -22 -58 -20 -58 3 0
10 -9 24 -20 32 -11 8 -20 22 -20 32 0 23 -17 23 -23 1 -3 -10 -3 1 -1 25 5
61 39 92 99 92 25 0 45 -4 45 -10 0 -5 14 -10 30 -10 17 0 30 -4 30 -10 0 -5
7 -10 16 -10 9 0 24 -10 34 -22 10 -13 22 -19 26 -15 9 9 -39 57 -56 57 -6 0
-20 9 -32 20 -12 11 -30 20 -39 20 -10 0 -21 5 -24 10 -3 6 -21 10 -40 10 -19
0 -36 4 -39 9 -6 8 -36 15 -121 27 -22 4 -44 10 -49 15 -6 5 -19 9 -31 9 -11
0 -27 9 -35 20 -8 11 -19 20 -25 20 -17 0 -85 68 -95 96 -6 14 -10 36 -10 49
0 20 -35 100 -50 115 -17 17 -30 54 -30 85 0 19 -4 35 -10 35 -5 0 -10 20 -10
44 0 25 -4 48 -10 51 -5 3 -10 15 -10 26 0 38 60 25 193 -42 22 -10 44 -19 51
-19 17 0 36 58 36 108 0 22 5 44 10 47 6 3 10 17 10 30 0 13 5 27 10 30 6 3
10 19 10 36 0 18 5 29 14 29 8 0 61 45 117 100 57 55 109 100 116 100 7 0 13
5 13 10 0 6 9 10 19 10 11 0 23 5 26 10 3 6 14 10 24 10 9 0 27 9 39 20 25 23
72 27 72 6 0 -8 -4 -18 -10 -21 -18 -11 -11 -60 10 -73 11 -7 20 -20 20 -28 0
-30 32 -43 102 -44 37 0 70 5 73 10 3 6 15 10 26 10 l19 0 0 -48 c0 -61 21
-78 78 -60 l38 12 12 38 c15 46 15 78 2 78 -14 0 -13 63 2 95 9 21 9 31 0 46
-7 10 -12 39 -12 65 0 47 -16 74 -44 74 -9 0 -16 -7 -16 -15 0 -20 -47 -71
-56 -62 -10 9 -23 86 -24 135 0 40 11 54 25 32 3 -5 17 -10 31 -10 28 0 31 20
8 55 -20 30 -44 33 -44 4 0 -21 -21 -22 -27 -2 -4 11 19 38 36 45 6 2 5 23 -2
58 -9 42 -17 56 -32 58 -11 2 -30 8 -42 14 -18 9 -29 8 -47 -1 -13 -7 -33 -10
-43 -7 -33 10 -83 -43 -83 -88 l0 -36 -26 0 c-16 0 -37 -12 -54 -30 -15 -16
-33 -30 -39 -30 -13 0 -70 -57 -88 -89 -7 -11 -13 -30 -13 -40 0 -11 -4 -23
-10 -26 -5 -3 -10 -15 -10 -26 0 -10 -7 -19 -15 -19 -8 0 -24 -4 -35 -10 -11
-5 -29 -14 -40 -20 -11 -5 -29 -10 -39 -10 -11 0 -23 -4 -26 -10 -3 -5 -15
-10 -26 -10 -10 0 -19 -4 -19 -10 0 -5 -9 -10 -20 -10 -11 0 -20 -3 -20 -7 0
-5 -41 -9 -90 -11 -50 -1 -90 2 -90 7 0 5 -10 11 -22 14 -13 3 -32 8 -43 12
-15 4 -30 -2 -53 -24 -17 -17 -38 -31 -46 -31 -7 0 -27 -7 -42 -15 -51 -26
-71 -16 -85 44 -5 23 -21 54 -35 68 -15 15 -23 32 -19 42 3 10 -3 22 -15 31
-14 10 -20 26 -20 51 0 21 -3 39 -7 41 -5 2 -18 22 -30 44 -29 53 -30 105 -3
124 30 21 26 50 -6 50 -15 0 -34 8 -43 18 -18 21 -54 31 -88 25z m1327 -55
l21 -13 9 15 9 14 25 -29 c33 -38 33 -49 0 -64 -20 -9 -30 -9 -40 0 -11 9 -18
8 -29 -1 -12 -10 -19 -10 -27 -2 -7 7 -22 12 -35 12 -29 0 -29 17 0 52 25 31
38 34 67 16z m-230 -223 c0 -14 -4 -25 -10 -25 -5 0 -10 -13 -10 -29 0 -38
-24 -59 -45 -38 -19 20 -20 67 0 67 8 0 22 11 32 25 23 31 33 31 33 0z m-1000
5 c0 -5 -4 -10 -10 -10 -5 0 -10 5 -10 10 0 6 5 10 10 10 6 0 10 -4 10 -10z
m37 -72 c32 -30 29 -38 -17 -38 -22 0 -40 5 -40 10 0 6 5 10 10 10 6 0 10 9
10 20 0 26 8 25 37 -2z m1192 -99 l-14 -9 14 -9 c10 -6 10 -13 3 -28 -6 -10
-10 -25 -10 -33 4 -58 -3 -80 -22 -80 -11 0 -20 5 -20 10 0 6 5 10 10 10 6 0
10 36 10 88 0 49 3 92 7 95 3 4 13 -3 21 -14 l15 -21 -14 -9z m-1321 16 c15
-32 16 -75 2 -75 -5 0 -10 -9 -10 -20 0 -11 -4 -20 -10 -20 -5 0 -10 9 -10 20
0 11 -4 20 -10 20 -5 0 -10 9 -10 19 0 11 -6 22 -12 24 -10 4 -10 8 1 15 7 5
11 14 7 20 -5 9 5 15 35 21 3 0 11 -10 17 -24z m1071 2 c16 4 21 1 21 -16 0
-11 -4 -21 -10 -21 -5 0 -10 4 -10 10 0 5 -8 9 -17 8 -37 -3 -53 2 -53 17 0
11 5 12 24 5 13 -5 33 -6 45 -3z m-979 -7 c0 -5 -4 -10 -10 -10 -5 0 -10 5
-10 10 0 6 5 10 10 10 6 0 10 -4 10 -10z m-20 -41 c0 -11 -4 -17 -10 -14 -5 3
-10 13 -10 21 0 8 5 14 10 14 6 0 10 -9 10 -21z m1423 -5 c24 -9 22 -44 -3
-44 -11 0 -20 -4 -20 -10 0 -5 -4 -10 -10 -10 -5 0 -10 18 -10 41 0 29 4 39
13 35 6 -3 20 -9 30 -12z m-863 -104 l0 -40 -20 0 c-13 0 -20 7 -20 20 0 11 5
20 10 20 6 0 10 9 10 20 0 11 5 20 10 20 6 0 10 -18 10 -40z m-580 10 c0 -5
-4 -10 -10 -10 -5 0 -10 5 -10 10 0 6 5 10 10 10 6 0 10 -4 10 -10z m1420 -1
c0 -7 11 -9 30 -5 22 4 30 2 30 -9 0 -8 5 -15 10 -15 14 0 13 -20 -2 -53 -16
-34 -68 -39 -68 -7 0 11 5 20 10 20 6 0 10 -4 10 -10 0 -5 5 -10 10 -10 6 0
10 13 10 29 l0 30 -27 3 c-26 3 -48 38 -24 38 6 0 11 -5 11 -11z m-860 -149
c0 -11 -4 -20 -10 -20 -5 0 -10 9 -10 20 0 11 5 20 10 20 6 0 10 -9 10 -20z
m8 -96 c13 -10 17 -25 14 -45 -5 -35 -22 -39 -22 -4 0 14 -4 25 -10 25 -5 0
-10 9 -10 20 0 24 4 25 28 4z m-1208 -369 c0 -3 -10 -16 -23 -29 -18 -18 -40
-25 -92 -31 l-68 -7 16 16 c8 9 27 16 41 16 14 0 28 5 31 10 3 6 17 10 30 10
13 0 27 5 30 10 6 10 35 14 35 5z m240 -65 c0 -5 23 -10 50 -10 28 0 50 -4 50
-10 0 -5 -18 -10 -40 -10 l-40 0 0 -33 c0 -52 -20 -85 -56 -92 -37 -7 -64 2
-64 21 0 19 22 64 32 64 4 0 8 6 8 13 0 14 41 67 53 67 4 0 7 -4 7 -10z m-430
-280 c8 -5 12 -12 9 -15 -8 -8 -39 5 -39 16 0 11 11 11 30 -1z m770 -180 c0
-5 -4 -10 -10 -10 -5 0 -10 5 -10 10 0 6 5 10 10 10 6 0 10 -4 10 -10z m-900
-20 c0 -5 -4 -10 -10 -10 -5 0 -10 5 -10 10 0 6 5 10 10 10 6 0 10 -4 10 -10z
m-101 -130 c-1 -55 -6 -103 -12 -107 -5 -3 -3 -9 4 -14 l14 -9 -14 -9 c-7 -5
-11 -14 -7 -20 8 -12 -22 -81 -35 -81 -5 0 -9 9 -9 20 0 11 5 20 10 20 6 0 10
9 10 20 0 11 -4 20 -10 20 -5 0 -10 9 -10 20 0 11 4 20 9 20 12 0 11 93 0 101
-5 3 0 15 11 27 21 22 28 72 10 72 -5 0 -10 5 -10 10 0 6 9 10 20 10 l20 0 -1
-100z m1901 90 c0 -5 -4 -10 -10 -10 -5 0 -10 5 -10 10 0 6 5 10 10 10 6 0 10
-4 10 -10z m-1816 -6 l16 -6 0 -154 c0 -85 -4 -154 -8 -154 -5 0 -23 12 -40
26 l-32 27 0 88 c0 53 4 89 10 89 6 0 10 20 10 45 0 46 8 53 44 39z m116 -74
c0 -40 -4 -70 -10 -70 -5 0 -10 -4 -10 -10 0 -5 9 -10 20 -10 23 0 24 -3 8
-30 -10 -15 -10 -25 -2 -38 7 -10 12 -72 13 -146 l1 -127 -19 6 c-11 3 -25 -1
-35 -10 l-16 -16 -13 13 c-10 10 -13 42 -10 128 3 113 4 153 4 188 0 40 10
168 14 180 2 6 16 12 30 12 l25 0 0 -70z m1230 4 c10 -18 11 -27 3 -32 -6 -4
-12 -16 -14 -27 -3 -11 -17 -26 -32 -33 -35 -17 -34 -39 3 -82 16 -19 30 -41
30 -47 0 -7 5 -13 10 -13 6 0 10 -13 10 -30 0 -16 5 -30 10 -30 6 0 10 -10 10
-23 0 -13 5 -28 12 -35 9 -9 9 -15 0 -24 -7 -7 -12 -35 -12 -63 l0 -50 -35
-11 c-20 -6 -38 -7 -41 -3 -3 5 -13 9 -22 9 -20 0 -42 60 -42 113 0 34 -20 87
-32 87 -5 0 -8 7 -8 15 0 8 -4 23 -9 33 -5 9 -13 28 -19 42 -5 14 -15 38 -21
53 -14 36 -14 99 0 130 12 27 63 44 140 46 l46 1 13 -26z m669 -43 c47 -45 49
-53 21 -81 -11 -11 -20 -28 -20 -38 0 -23 -74 -101 -115 -122 -17 -9 -36 -28
-43 -43 -12 -25 -42 -38 -42 -18 0 5 -9 11 -20 14 l-20 5 0 80 c0 45 5 84 10
87 6 3 10 13 10 21 0 19 24 44 42 44 8 0 20 9 28 20 8 11 20 20 28 20 7 0 24
11 38 25 14 14 29 25 34 25 4 0 27 -18 49 -39z m-2131 -281 c16 -36 12 -65 -8
-65 -11 0 -15 13 -16 48 -1 54 6 59 24 17z m132 -71 c0 -33 -4 -59 -10 -59 -5
0 -10 -13 -10 -30 0 -37 -12 -38 -31 -2 -8 15 -22 33 -31 40 -20 14 -25 81 -8
98 5 5 28 10 50 11 l40 2 0 -60z m210 51 c0 -5 -7 -10 -15 -10 -8 0 -15 5 -15
10 0 6 7 10 15 10 8 0 15 -4 15 -10z m1557 -126 l16 -16 -11 -32 c-7 -18 -12
-42 -12 -54 0 -15 -6 -22 -20 -22 l-20 0 0 -41 0 -40 -19 6 -18 5 -6 -42 c-3
-24 -2 -44 4 -46 15 -6 0 -22 -20 -22 -35 0 -34 92 0 129 10 11 19 27 19 36 0
8 5 15 10 15 6 0 10 13 10 30 0 16 4 39 9 52 5 13 12 31 15 41 7 21 23 22 43
1z m-1607 -54 c0 -5 -4 -10 -10 -10 -5 0 -10 5 -10 10 0 6 5 10 10 10 6 0 10
-4 10 -10z m1220 -40 c0 -5 -9 -10 -20 -10 -13 0 -20 -7 -20 -20 0 -11 -2 -20
-5 -20 -8 0 -55 47 -55 55 0 3 23 5 50 5 28 0 50 -4 50 -10z m-1260 -20 c0 -5
-9 -10 -20 -10 -11 0 -20 5 -20 10 0 6 9 10 20 10 11 0 20 -4 20 -10z m-40
-95 c0 -8 -4 -15 -10 -15 -5 0 -10 7 -10 15 0 8 5 15 10 15 6 0 10 -7 10 -15z
m-200 -85 c0 -5 -4 -10 -10 -10 -5 0 -10 5 -10 10 0 6 5 10 10 10 6 0 10 -4
10 -10z m2100 -40 c0 -5 7 -10 16 -10 15 0 44 -23 44 -34 0 -10 -39 -6 -45 4
-3 6 -26 10 -51 10 -24 0 -44 5 -44 10 0 6 11 10 24 10 14 0 28 5 31 10 3 6
10 10 16 10 5 0 9 -4 9 -10z m-880 -44 c0 -19 5 -38 10 -41 22 -13 8 -25 -30
-25 -44 0 -48 4 -25 27 9 8 19 28 22 44 8 40 23 36 23 -5z m-860 4 c0 -5 -4
-10 -10 -10 -5 0 -10 5 -10 10 0 6 5 10 10 10 6 0 10 -4 10 -10z m460 0 c0 -5
7 -10 15 -10 8 0 15 -4 15 -9 0 -14 -40 -20 -67 -10 l-24 9 13 15 c15 16 48
20 48 5z m818 -15 c12 -14 22 -34 22 -46 0 -11 12 -31 28 -44 21 -19 38 -24
80 -25 28 0 52 -4 52 -10 0 -5 -6 -10 -13 -10 -18 0 -67 -24 -67 -32 0 -5 -16
-8 -35 -8 -44 0 -73 36 -55 70 l11 21 -20 18 c-12 10 -21 26 -21 35 0 9 -4 16
-10 16 -5 0 -10 9 -10 20 0 27 12 25 38 -5z m-918 -25 c0 -5 -4 -10 -10 -10
-5 0 -10 5 -10 10 0 6 5 10 10 10 6 0 10 -4 10 -10z m-234 -55 l1 -45 -12 22
c-8 16 -8 30 -2 46 6 12 11 22 11 22 1 0 1 -20 2 -45z m834 35 c0 -5 -4 -10
-10 -10 -5 0 -10 5 -10 10 0 6 5 10 10 10 6 0 10 -4 10 -10z m-1080 -40 c0 -5
-4 -10 -10 -10 -5 0 -10 5 -10 10 0 6 5 10 10 10 6 0 10 -4 10 -10z m480 0 c0
-5 -4 -10 -10 -10 -5 0 -10 5 -10 10 0 6 5 10 10 10 6 0 10 -4 10 -10z m-420
-20 c0 -5 -4 -10 -10 -10 -5 0 -10 5 -10 10 0 6 5 10 10 10 6 0 10 -4 10 -10z
m-160 -20 c0 -5 -11 -10 -25 -10 -14 0 -25 5 -25 10 0 6 11 10 25 10 14 0 25
-4 25 -10z m780 0 c0 -5 -7 -10 -15 -10 -8 0 -15 5 -15 10 0 6 7 10 15 10 8 0
15 -4 15 -10z m80 -40 c0 -21 -15 -27 -25 -10 -7 12 2 30 16 30 5 0 9 -9 9
-20z m-452 -2 c7 -7 12 -20 12 -31 0 -30 -34 -16 -38 16 -4 29 6 35 26 15z
m287 2 c3 -5 -3 -10 -14 -10 -12 0 -21 5 -21 10 0 6 6 10 14 10 8 0 18 -4 21
-10z m-115 -60 c0 -5 -9 -10 -21 -10 -11 0 -17 5 -14 10 3 6 13 10 21 10 8 0
14 -4 14 -10z"/>
<path d="M2660 2745 c0 -21 27 -30 45 -15 23 19 18 30 -15 30 -20 0 -30 -5
-30 -15z"/>
<path d="M2320 1235 c0 -8 5 -15 10 -15 6 0 10 7 10 15 0 8 -4 15 -10 15 -5 0
-10 -7 -10 -15z"/>
</g>
</svg>
