<?xml version="1.0" standalone="no"?>
<!DOCTYPE svg PUBLIC "-//W3C//DTD SVG 20010904//EN"
 "http://www.w3.org/TR/2001/REC-SVG-20010904/DTD/svg10.dtd">
<svg version="1.0" xmlns="http://www.w3.org/2000/svg"
 width="413.907087pt" height="311.599801pt" viewBox="0 0 413.907087 311.599801"
 preserveAspectRatio="xMidYMid meet">
<metadata>
Created by Potrace Professional 1.0m
</metadata>
<g transform="translate(-0.306890,311.950098) rotate(-360.00) scale(0.100000,-0.100000)"
fill="#000000" stroke="none">
<path d="M3240 3113 c0 -13 -54 -35 -58 -23 -6 18 -34 10 -57 -16 -14 -16 -25
-22 -29 -16 -10 16 -36 3 -36 -18 0 -10 -5 -20 -10 -22 -9 -3 7 -65 20 -78 15
-15 30 -53 30 -76 0 -14 8 -38 18 -52 10 -15 24 -40 32 -57 8 -16 23 -38 34
-47 l18 -17 -15 -16 c-9 -8 -19 -15 -24 -15 -22 0 -63 -27 -75 -50 -7 -14 -24
-35 -38 -47 -33 -30 -99 -32 -120 -3 -8 11 -21 20 -29 20 -21 0 -101 96 -101
121 0 8 -9 21 -20 29 -11 8 -20 22 -20 32 0 11 -9 18 -27 20 -21 2 -33 14 -50
46 l-23 43 12 19 c8 12 20 18 33 14 32 -7 75 36 75 77 0 46 -36 72 -109 80
-70 7 -96 -2 -116 -40 -18 -35 -5 -76 27 -84 30 -8 20 -51 -12 -55 -33 -5 -50
-20 -50 -43 0 -11 -4 -19 -10 -19 -6 0 -10 -26 -10 -59 0 -33 5 -63 10 -66 6
-3 10 -24 10 -45 0 -53 8 -70 35 -70 18 0 24 6 27 27 3 28 38 47 38 21 0 -7
14 -29 30 -48 16 -19 30 -45 30 -57 0 -13 5 -23 10 -23 6 0 10 -9 10 -20 0
-11 5 -20 10 -20 6 0 10 -7 10 -15 0 -15 85 -105 99 -105 4 0 17 -9 30 -21
l22 -21 81 0 c45 1 86 6 91 11 6 6 21 11 34 11 13 0 23 5 23 10 0 6 9 10 20
10 l20 0 0 -48 0 -49 -22 -11 c-13 -6 -81 -13 -153 -17 -181 -9 -399 -23 -467
-31 l-58 -6 0 -39 c0 -37 -12 -51 -25 -29 -3 6 -22 10 -41 10 -21 0 -34 5 -34
13 0 22 -24 67 -37 68 -17 2 -24 4 -45 13 -20 9 -128 2 -178 -11 l-35 -9 -5
-34 c-3 -23 -11 -36 -22 -38 -10 -2 -18 1 -18 7 0 6 -7 11 -16 11 -17 0 -44
23 -44 38 0 5 -9 17 -21 28 -16 15 -36 19 -85 18 l-65 0 3 15 c2 9 13 17 26
19 14 2 23 11 24 25 4 59 -7 77 -50 77 -35 0 -68 -40 -76 -93 -4 -26 -13 -53
-20 -60 -23 -22 -36 -55 -36 -87 0 -20 -9 -40 -25 -56 l-26 -26 7 -33 c3 -19
1 -43 -6 -56 -17 -32 -60 -72 -68 -65 -3 4 0 12 8 17 11 8 12 12 3 16 -7 2
-13 17 -13 32 0 15 -5 32 -12 39 -9 9 -9 15 0 24 21 21 13 42 -21 59 -25 12
-31 21 -29 40 2 13 8 28 13 34 14 15 11 112 -4 118 -18 7 -67 -3 -67 -14 0 -5
-13 -9 -30 -9 -16 0 -45 -9 -65 -20 -27 -15 -41 -18 -55 -10 -10 5 -33 10 -51
10 l-32 0 -64 -65 -64 -65 -1 -45 -1 -45 -40 0 -40 0 21 23 c41 44 18 77 -52
77 -25 0 -46 5 -46 10 0 6 -13 10 -30 10 -16 0 -30 5 -30 10 0 6 -9 10 -20 10
-11 0 -20 5 -20 10 0 6 -11 10 -24 10 -14 0 -28 -4 -31 -10 -3 -5 -22 -10 -41
-10 -34 0 -84 -35 -84 -59 0 -5 -18 -7 -40 -4 -26 4 -40 2 -40 -6 0 -7 -19
-11 -48 -11 l-48 0 -20 37 c-23 45 -82 89 -98 73 -5 -5 -21 -10 -34 -10 -15 0
-26 -7 -29 -20 -6 -22 -19 -27 -25 -9 -2 6 -24 -9 -49 -33 -33 -31 -47 -55
-52 -81 -3 -21 -2 -37 4 -37 15 0 11 -15 -11 -40 -31 -36 -34 -63 -11 -103 11
-21 16 -37 11 -37 -15 0 -12 -37 3 -43 19 -8 -11 -26 -34 -20 -14 4 -19 0 -19
-16 0 -11 -5 -21 -11 -21 -6 0 -8 -8 -5 -17 3 -10 0 -30 -8 -45 -21 -41 -42
-232 -29 -260 12 -23 19 -58 30 -133 3 -22 9 -44 14 -49 5 -6 9 -20 9 -32 0
-13 5 -26 10 -29 12 -8 13 -122 1 -129 -11 -7 -24 -90 -22 -151 2 -97 13 -112
98 -147 l33 -13 0 -37 c0 -20 6 -39 13 -41 8 -4 9 -8 1 -14 -13 -9 -20 -223
-7 -223 15 0 35 -82 24 -93 -15 -15 -13 -27 4 -27 24 0 17 -18 -7 -22 -17 -2
-24 -11 -26 -30 -2 -20 -9 -28 -23 -28 -10 0 -19 -4 -19 -10 0 -15 77 -12 83
3 3 7 8 5 13 -8 4 -11 15 -25 23 -32 19 -15 61 -17 61 -3 0 13 47 13 55 0 3
-5 19 -10 36 -10 16 0 29 -4 29 -8 0 -14 77 -30 95 -19 11 6 20 6 24 0 3 -5
40 -10 82 -12 l76 -2 14 17 c11 13 11 18 2 21 -20 7 -15 23 7 23 13 0 20 -7
20 -20 0 -13 7 -20 20 -20 11 0 20 -4 20 -10 0 -5 14 -10 30 -10 17 0 30 -4
30 -10 0 -5 9 -10 20 -10 11 0 20 -4 20 -10 0 -13 25 -13 53 2 55 28 59 30 70
19 6 -6 21 -11 34 -11 13 0 23 -4 23 -10 0 -5 9 -10 19 -10 11 0 21 -5 23 -11
5 -16 129 11 149 33 21 23 29 23 29 -2 l0 -20 68 -1 c37 0 86 0 108 1 23 1 45
-3 49 -9 8 -14 62 -14 70 -1 4 6 83 10 206 10 126 0 199 4 199 10 0 13 47 13
55 0 9 -15 42 -12 49 5 3 9 18 15 40 15 19 0 41 -7 50 -15 18 -18 67 -20 84
-3 10 10 17 10 32 0 24 -14 70 -16 70 -2 0 6 9 10 20 10 11 0 20 -4 20 -10 0
-6 31 -10 73 -10 40 0 78 -5 84 -11 8 -8 17 -8 33 1 l21 11 6 -21 c4 -14 11
-19 24 -15 11 3 28 8 39 11 11 3 20 10 20 15 0 16 30 10 52 -11 12 -11 24 -16
28 -10 3 5 66 9 140 10 143 1 304 16 332 31 10 5 25 9 33 9 8 0 15 5 15 10 0
6 -4 10 -10 10 -5 0 -10 5 -10 10 0 6 9 10 20 10 11 0 20 -5 20 -11 0 -8 19
-10 68 -4 37 4 129 10 204 13 l137 7 15 20 15 20 20 -13 c31 -18 91 -15 106 5
10 13 31 18 92 21 96 4 123 15 123 54 0 15 -4 28 -10 28 -5 0 -10 7 -10 16 0
11 6 14 20 9 l20 -6 0 80 0 81 -55 0 c-30 0 -55 5 -55 10 0 6 25 10 56 10 l56
0 -7 18 c-4 9 -10 27 -12 39 -7 29 -36 35 -148 27 l-95 -7 0 112 0 111 -32 20
c-21 12 -51 20 -80 20 l-48 0 0 34 c0 19 5 38 10 41 6 3 10 26 10 50 0 24 5
47 10 50 6 3 10 52 10 110 0 58 -4 107 -10 110 -5 3 -10 17 -10 30 0 13 -4 27
-10 30 -5 3 -10 15 -10 26 0 10 -4 19 -10 19 -5 0 -10 13 -10 28 l0 29 39 11
c21 7 48 12 60 12 11 0 21 4 21 9 0 5 17 12 39 16 40 7 58 28 64 75 1 14 6 30
10 37 4 6 3 23 -3 38 -5 14 -10 44 -10 65 0 21 -4 42 -10 45 -5 3 -10 27 -10
52 0 26 -4 60 -9 77 -6 17 -20 66 -33 108 -13 43 -26 78 -30 78 -5 0 -8 13 -8
29 0 17 -4 33 -10 36 -5 3 -10 17 -10 31 0 13 -4 24 -10 24 -16 0 -11 47 9 93
17 36 31 158 31 257 0 36 -13 101 -21 106 -5 3 -9 14 -9 25 0 10 -4 19 -10 19
-5 0 -10 10 -10 23 0 13 -9 33 -20 45 -11 12 -20 25 -20 30 0 14 -46 42 -69
42 -11 0 -23 5 -26 10 -3 6 -15 10 -26 10 -10 0 -19 5 -19 10 0 6 -6 10 -14
10 -7 0 -22 12 -31 27 -27 40 -62 73 -80 73 -8 0 -15 5 -15 10 0 6 5 10 10 10
27 0 3 81 -32 108 -10 7 -18 19 -18 25 0 15 -57 77 -71 77 -5 0 -9 7 -9 15 0
18 -4 19 -30 3 -16 -10 -24 -10 -40 0 -23 14 -30 15 -30 5z m58 -133 c2 -28 9
-38 30 -48 l28 -12 2 -47 c1 -26 7 -50 14 -54 9 -6 6 -13 -10 -27 -17 -15 -22
-30 -22 -66 0 -51 3 -54 28 -29 12 12 13 18 4 21 -16 5 -15 30 2 48 22 22 26
17 26 -32 l0 -47 -27 -23 c-35 -30 -41 -30 -69 4 -24 27 -31 52 -15 52 12 0
22 27 16 43 -7 16 -53 37 -82 37 -18 0 -23 6 -23 25 0 20 6 27 28 31 45 9 64
28 56 58 -5 20 -12 26 -34 26 -16 0 -32 -4 -35 -10 -3 -5 -15 -10 -26 -10 -11
0 -22 -7 -25 -15 -11 -26 -24 -16 -24 18 0 50 67 98 130 94 l25 -2 3 -35z
m-639 -186 l23 -26 -16 -16 -15 -15 -15 13 c-9 7 -16 21 -16 31 0 11 -4 19
-10 19 -5 0 -10 5 -10 10 0 20 37 10 59 -16z m-39 -84 c0 -5 -4 -10 -10 -10
-5 0 -10 5 -10 10 0 6 5 10 10 10 6 0 10 -4 10 -10z m740 -113 c0 -28 -24 -80
-45 -97 l-15 -12 0 25 c0 14 -6 28 -12 31 -10 5 -10 7 0 12 6 3 12 16 12 28 0
29 8 36 37 36 17 0 23 -6 23 -23z m56 -154 c-11 -11 -19 6 -11 24 l8 18 4 -18
c3 -10 2 -21 -1 -24z m-1631 -133 c-3 -5 -10 -10 -16 -10 -5 0 -9 5 -9 10 0 6
7 10 16 10 8 0 12 -4 9 -10z m1375 -120 c0 -5 -4 -10 -10 -10 -5 0 -10 5 -10
10 0 6 5 10 10 10 6 0 10 -4 10 -10z m-410 -20 c0 -5 -4 -10 -10 -10 -5 0 -10
5 -10 10 0 6 5 10 10 10 6 0 10 -4 10 -10z m74 -86 c-3 -18 -1 -35 5 -38 18
-11 13 -26 -9 -26 l-20 0 0 53 c0 30 3 57 7 60 12 13 23 -18 17 -49z m156 35
c0 -14 -5 -19 -17 -17 -26 5 -29 38 -4 38 15 0 21 -6 21 -21z m60 1 c0 -11 -4
-20 -10 -20 -5 0 -10 9 -10 20 0 11 5 20 10 20 6 0 10 -9 10 -20z m62 -2 c-7
-7 -12 -8 -12 -2 0 14 12 26 19 19 2 -3 -1 -11 -7 -17z m178 15 c0 -5 -9 -19
-19 -32 -23 -30 -61 -22 -61 15 l0 24 40 0 c22 0 40 -3 40 -7z m-1910 -23 c0
-5 -5 -10 -11 -10 -19 0 -39 -28 -39 -54 0 -19 -5 -26 -20 -26 -30 0 -25 30
12 67 33 32 58 42 58 23z m1230 -10 c0 -11 -4 -20 -10 -20 -5 0 -10 2 -10 4 0
2 -3 11 -6 20 -4 11 -1 16 10 16 9 0 16 -8 16 -20z m80 11 c0 -13 -26 -32 -33
-24 -14 13 -6 33 13 33 11 0 20 -4 20 -9z m65 -2 c4 -6 -2 -19 -14 -30 l-21
-20 -6 15 c-3 8 0 22 8 30 16 18 25 20 33 5z m-2505 -59 c0 -5 -9 -10 -20 -10
-11 0 -20 5 -20 10 0 6 9 10 20 10 11 0 20 -4 20 -10z m1203 -30 c-4 -27 -2
-40 6 -40 8 0 10 -8 6 -20 -4 -12 -2 -20 5 -20 12 0 40 -24 40 -34 0 -3 -23
-6 -51 -6 l-51 0 5 22 c7 26 -17 58 -45 58 -10 0 -18 5 -18 10 0 6 14 10 30
10 22 0 30 5 30 18 0 21 18 42 36 42 8 0 10 -12 7 -40z m1137 30 c0 -5 -4 -10
-10 -10 -5 0 -10 5 -10 10 0 6 5 10 10 10 6 0 10 -4 10 -10z m-2180 -41 l0
-29 -30 0 -30 0 0 -30 0 -30 40 0 c29 0 40 4 40 15 0 19 16 19 24 0 10 -28 -5
-75 -25 -75 -25 0 -24 -8 2 -31 28 -24 13 -44 -37 -52 -44 -7 -64 0 -64 24 0
10 -9 24 -20 31 -21 13 -28 48 -10 48 6 0 10 27 10 60 l0 60 30 0 c23 0 30 5
30 19 0 19 18 32 33 24 4 -2 7 -17 7 -34z m188 14 c-27 -57 -33 -63 -60 -63
l-28 0 0 -30 c0 -23 4 -30 20 -30 11 0 20 -4 20 -10 0 -5 14 -10 30 -10 35 0
38 -10 10 -35 -11 -10 -20 -22 -20 -27 0 -5 -16 -24 -35 -43 -33 -34 -65 -46
-65 -25 0 6 9 10 20 10 11 0 20 5 20 10 0 6 -9 10 -20 10 -26 0 -26 28 -1 74
l20 35 -12 25 c-7 14 -15 26 -19 26 -5 0 -8 8 -8 18 0 16 40 42 66 42 6 0 17
7 24 15 13 15 44 21 38 8z m1272 -23 c0 -11 -4 -20 -10 -20 -5 0 -10 9 -10 20
0 11 5 20 10 20 6 0 10 -9 10 -20z m588 -66 c7 -48 10 -90 7 -94 -6 -10 -68 1
-82 16 -16 15 -17 84 -2 84 6 0 8 8 5 18 -7 21 22 62 45 62 13 0 19 -18 27
-86z m-2208 52 c0 -14 -29 -31 -37 -22 -6 6 19 35 30 36 4 0 7 -6 7 -14z m560
-16 c0 -33 -14 -40 -24 -12 -3 9 -9 23 -12 30 -4 7 2 12 15 12 17 0 21 -6 21
-30z m960 10 c0 -11 5 -20 10 -20 15 0 12 -29 -4 -46 -30 -30 -46 -17 -46 36
l0 50 20 0 c13 0 20 -7 20 -20z m464 14 c23 -9 21 -54 -3 -54 -11 0 -23 -12
-31 -30 -7 -16 -14 -30 -16 -30 -2 0 -15 12 -29 26 -30 30 -27 54 7 54 13 0
30 9 38 20 17 23 14 22 34 14z m-1340 -26 c13 -14 16 -62 4 -74 -5 -4 -8 -20
-8 -36 0 -30 -1 -31 -24 -22 -29 11 -18 140 12 144 2 0 9 -6 16 -12z m1036
-20 c0 -43 -38 -88 -74 -88 -36 0 -33 16 4 24 21 4 30 11 30 25 0 29 18 71 30
71 5 0 10 -15 10 -32z m90 -10 c8 -24 18 -49 23 -56 7 -9 6 -17 -1 -24 -7 -7
-12 -20 -12 -31 0 -14 -5 -17 -22 -12 -13 4 -27 11 -32 16 -6 5 -18 9 -28 9
-10 0 -18 6 -18 13 0 18 24 67 33 67 4 0 7 14 7 30 0 22 5 30 18 30 13 0 23
-13 32 -42z m-1030 3 c0 -10 -6 -21 -13 -24 -10 -4 -13 2 -9 19 5 28 22 32 22
5z m120 5 c0 -8 -4 -18 -10 -21 -5 -3 -10 -16 -10 -28 0 -12 -7 -31 -15 -41
l-15 -20 -14 19 c-17 24 -10 45 16 45 15 0 18 5 14 16 -6 17 9 44 25 44 5 0 9
-6 9 -14z m1220 -28 c-1 -28 -22 -58 -41 -58 -10 1 -9 4 4 14 9 7 17 25 17 40
0 14 5 26 10 26 6 0 10 -10 10 -22z m-1580 -8 c0 -5 -4 -10 -10 -10 -5 0 -10
5 -10 10 0 6 5 10 10 10 6 0 10 -4 10 -10z m756 -55 c-16 -17 -36 -20 -36 -6
0 8 17 16 43 20 5 0 2 -6 -7 -14z m764 -5 c0 -5 -13 -10 -30 -10 -16 0 -30 5
-30 10 0 6 14 10 30 10 17 0 30 -4 30 -10z m-1100 -20 c0 -5 -4 -10 -10 -10
-5 0 -10 5 -10 10 0 6 5 10 10 10 6 0 10 -4 10 -10z m-32 -42 c-6 -18 -28 -21
-28 -4 0 9 7 16 16 16 9 0 14 -5 12 -12z m1112 -8 c0 -23 -10 -26 -28 -8 -18
18 -15 28 8 28 13 0 20 -7 20 -20z m-840 -10 c0 -5 -9 -10 -20 -10 -11 0 -20
5 -20 10 0 6 9 10 20 10 11 0 20 -4 20 -10z m-575 -16 c-9 -9 -19 -13 -23 -10
-3 4 0 11 8 16 24 15 33 11 15 -6z m-45 -4 c0 -5 -4 -10 -10 -10 -5 0 -10 5
-10 10 0 6 5 10 10 10 6 0 10 -4 10 -10z m1031 -12 c19 -21 23 -28 16 -28 -7
0 -47 37 -47 44 0 12 13 6 31 -16z m129 12 c0 -5 -4 -10 -10 -10 -5 0 -10 5
-10 10 0 6 5 10 10 10 6 0 10 -4 10 -10z m-1620 -20 c0 -5 9 -10 20 -10 21 0
28 -24 10 -35 -5 -3 -10 -1 -10 4 0 6 -9 11 -20 11 -11 0 -20 5 -20 10 0 6 -9
10 -20 10 -11 0 -20 5 -20 10 0 6 14 10 30 10 17 0 30 -4 30 -10z m380 -19 c0
-5 -6 -12 -12 -14 -10 -4 -10 -8 1 -15 21 -15 5 -42 -24 -42 -31 0 -32 17 -2
52 22 28 37 35 37 19z m-180 -46 c0 -9 -6 -12 -15 -9 -8 4 -15 10 -15 15 0 5
7 9 15 9 8 0 15 -7 15 -15z m368 -18 c6 -5 12 -17 12 -28 0 -11 7 -19 16 -19
20 0 44 -24 44 -44 0 -9 -9 -21 -20 -28 -11 -7 -20 -21 -20 -30 0 -10 -4 -18
-10 -18 -5 0 -10 12 -10 28 0 16 -8 32 -20 40 -12 7 -20 23 -20 38 0 17 -7 28
-20 31 -11 3 -20 13 -20 23 0 13 7 17 28 16 15 -1 33 -5 40 -9z m-490 -26 c3
-9 14 -25 24 -35 10 -11 18 -26 18 -33 0 -7 3 -13 8 -13 10 0 32 -50 32 -71 0
-10 5 -21 10 -24 6 -3 10 -15 10 -26 0 -10 5 -19 10 -19 16 0 12 -20 -11 -52
-13 -17 -22 -46 -23 -69 0 -30 -4 -39 -16 -37 -19 4 -26 48 -8 60 10 7 10 11
1 15 -7 2 -13 22 -13 43 0 21 -4 42 -10 45 -5 3 -10 17 -10 29 0 15 -7 26 -20
29 -13 3 -20 14 -20 30 0 17 -7 28 -20 32 -14 5 -20 15 -20 37 0 17 -7 39 -16
49 -9 10 -14 22 -11 26 9 15 78 2 85 -16z m202 -60 c0 -38 4 -61 13 -64 6 -2
8 -8 4 -13 -7 -8 -81 69 -87 91 -2 9 45 43 63 44 4 1 7 -26 7 -58z m-100 19
c0 -11 4 -20 8 -20 5 0 15 -12 23 -27 8 -16 27 -40 42 -55 l28 -27 -25 -26
c-38 -37 -56 -33 -56 14 0 38 -36 121 -52 121 -4 0 -8 9 -8 20 0 13 7 20 20
20 13 0 20 -7 20 -20z m1360 4 c0 -8 -4 -12 -10 -9 -5 3 -10 10 -10 16 0 5 5
9 10 9 6 0 10 -7 10 -16z m1360 -54 c0 -5 -4 -10 -10 -10 -5 0 -10 5 -10 10 0
6 5 10 10 10 6 0 10 -4 10 -10z m-3005 -35 c28 -27 34 -75 10 -75 -19 0 -19
-11 0 -36 8 -10 15 -34 15 -51 l0 -33 -25 0 -24 0 6 30 c3 19 1 30 -6 30 -7 0
-11 22 -11 59 0 38 -4 61 -12 63 -9 3 -8 9 2 21 19 21 17 21 45 -8z m592 10
c8 -9 13 -19 9 -22 -3 -4 -12 -1 -18 5 -7 7 -22 12 -35 12 -13 0 -23 5 -23 10
0 16 50 12 67 -5z m4 -57 c17 -10 23 -10 26 0 8 21 43 14 43 -8 0 -11 5 -20
10 -20 6 0 10 -7 10 -15 0 -8 14 -29 30 -47 17 -17 30 -35 30 -40 0 -5 8 -18
18 -29 11 -10 25 -32 32 -47 7 -15 16 -35 21 -44 5 -10 9 -25 9 -33 0 -9 9
-25 20 -37 29 -32 28 -168 -1 -168 -6 0 -19 -9 -31 -20 -22 -20 -53 -25 -138
-20 -47 2 -64 9 -42 17 6 3 12 13 12 24 0 10 5 19 10 19 6 0 10 11 10 24 0 13
10 30 22 38 17 12 22 23 20 53 -3 45 -20 64 -62 67 -36 3 -48 14 -31 31 13 13
15 47 2 47 -6 0 -13 -4 -16 -10 -3 -5 -22 -10 -41 -10 -19 0 -34 5 -34 10 0 6
-7 10 -15 10 -11 0 -14 7 -9 25 7 29 -10 55 -37 55 -26 0 -25 40 4 84 34 53
84 70 128 44z m2657 -13 c7 -14 12 -37 12 -50 0 -14 4 -25 9 -25 15 0 23 -49
31 -180 5 -69 12 -150 18 -180 11 -68 4 -180 -12 -180 -7 0 -21 -8 -32 -19
-26 -24 -80 -36 -89 -21 -10 15 15 200 26 200 5 0 9 9 9 20 0 11 4 20 9 20 18
0 -2 224 -20 236 -13 7 -11 51 2 60 8 4 8 9 0 17 -14 14 -14 47 -1 47 6 0 10
18 10 40 0 46 11 52 28 15z m-1022 -12 c20 -27 17 -45 -6 -38 -14 5 -20 2 -20
-9 0 -9 -9 -16 -20 -16 l-20 0 0 40 0 40 26 0 c15 0 33 -8 40 -17z m-1446 -73
c0 -5 -2 -10 -4 -10 -3 0 -8 5 -11 10 -3 6 -1 10 4 10 6 0 11 -4 11 -10z
m-360 -34 c0 -13 3 -31 6 -39 3 -8 -2 -22 -11 -30 -12 -13 -13 -21 -5 -36 5
-11 10 -40 10 -64 l0 -45 -20 -5 c-25 -6 -27 -45 -2 -54 20 -8 32 -20 50 -51
16 -28 15 -40 -3 -59 l-16 -15 -24 28 c-14 16 -25 34 -25 39 0 6 -9 17 -20 25
-11 8 -20 24 -20 37 0 12 -4 25 -10 28 -20 12 0 125 22 125 4 0 8 18 8 40 0
22 3 40 8 40 4 0 13 14 20 30 16 36 32 39 32 6z m535 -126 c3 -5 16 -10 27
-10 27 0 89 -21 104 -36 9 -7 8 -15 -1 -28 l-13 -17 -43 20 c-24 12 -47 21
-52 21 -11 0 -47 39 -47 52 0 11 17 10 25 -2z m-915 -20 c0 -5 -4 -10 -10 -10
-5 0 -10 5 -10 10 0 6 5 10 10 10 6 0 10 -4 10 -10z m20 -55 c0 -27 -6 -30
-29 -16 l-15 9 13 16 c19 23 31 20 31 -9z m1120 11 c0 -8 -4 -18 -10 -21 -5
-3 -10 -1 -10 4 0 6 -9 11 -20 11 -11 0 -20 5 -20 10 0 6 14 10 30 10 19 0 30
-5 30 -14z m-1100 -76 c0 -5 -4 -10 -10 -10 -5 0 -10 5 -10 10 0 6 5 10 10 10
6 0 10 -4 10 -10z m0 -40 c0 -5 -4 -10 -10 -10 -5 0 -10 5 -10 10 0 6 5 10 10
10 6 0 10 -4 10 -10z m1308 -50 c6 -22 12 -55 12 -74 0 -19 5 -38 10 -41 6 -3
10 -17 10 -30 0 -13 5 -36 12 -50 9 -19 9 -28 0 -37 -15 -15 -16 -204 -2 -213
16 -10 12 -216 -4 -237 -22 -29 -46 -23 -46 12 0 17 -4 30 -10 30 -5 0 -10 23
-10 50 0 28 -4 50 -10 50 -6 0 -10 50 -10 129 0 94 -3 131 -12 135 -10 5 -10
7 0 12 8 4 12 36 12 109 0 59 4 107 10 110 6 3 10 24 10 46 0 50 12 50 28 -1z
m-855 -52 c6 -8 7 -24 3 -34 l-7 -18 -10 14 c-8 11 -12 12 -16 3 -6 -17 -33
-17 -33 0 0 19 31 58 43 54 6 -2 15 -10 20 -19z m-453 -18 c0 -5 14 -10 30
-10 l30 0 -12 -20 c-15 -24 -66 -46 -77 -34 -5 5 -12 19 -16 32 -5 16 -2 22 9
22 9 0 16 5 16 10 0 6 5 10 10 10 6 0 10 -4 10 -10z m763 -4 c13 -10 17 -28
17 -79 0 -36 -4 -69 -10 -72 -14 -9 -13 -181 2 -204 9 -15 8 -22 -3 -34 l-15
-14 -47 11 c-26 6 -47 14 -47 18 0 5 -27 8 -60 8 -33 0 -60 4 -60 10 0 6 9 10
20 10 l21 0 -3 77 c-1 53 2 78 10 81 7 2 12 11 12 21 0 9 9 23 20 31 11 8 20
18 20 22 0 4 -9 8 -20 8 -13 0 -20 7 -20 18 0 21 19 42 38 42 7 0 27 13 45 30
35 33 53 36 80 16z m-465 -46 c6 -56 -23 -129 -50 -130 -13 0 -9 55 5 69 10
11 10 14 0 18 -15 6 -17 43 -3 43 6 0 10 9 10 21 0 37 35 19 38 -21z m202 -21
c0 -18 -49 -59 -70 -59 -25 0 -26 11 -2 36 34 37 72 49 72 23z m380 -69 c0 -5
-4 -10 -10 -10 -5 0 -10 5 -10 10 0 6 5 10 10 10 6 0 10 -4 10 -10z m160 -44
c0 -19 4 -37 9 -40 10 -7 9 -61 -2 -72 -11 -11 -8 -122 3 -129 6 -3 10 -26 10
-50 0 -24 5 -47 10 -50 6 -3 10 -15 10 -26 0 -10 5 -19 10 -19 6 0 10 -13 10
-30 0 -16 4 -30 9 -30 13 0 20 -52 10 -72 -13 -23 -61 -23 -102 -1 -18 10 -33
21 -35 26 -2 4 -26 7 -53 7 l-49 0 0 80 c0 52 4 80 11 80 7 0 9 11 6 27 -7 36
1 53 24 53 10 0 19 5 19 10 0 6 9 10 19 10 28 0 32 22 25 126 l-7 94 18 20
c28 31 45 25 45 -14z m-140 0 c0 -13 4 -26 10 -28 13 -4 50 -105 50 -135 0
-39 -16 -25 -30 27 -7 28 -17 50 -22 50 -4 0 -8 11 -8 24 0 14 -4 28 -10 31
-5 3 -10 17 -10 31 0 13 5 24 10 24 6 0 10 -11 10 -24z m2620 4 c0 -5 -11 -10
-25 -10 -14 0 -25 5 -25 10 0 6 11 10 25 10 14 0 25 -4 25 -10z m-1474 -44 c8
-8 14 -26 14 -40 0 -14 5 -26 10 -26 6 0 10 -13 10 -30 0 -16 5 -30 10 -30 6
0 10 -13 10 -30 0 -16 5 -30 10 -30 6 0 10 -13 10 -29 0 -17 5 -33 10 -36 6
-3 10 -16 10 -29 0 -12 4 -26 9 -31 11 -13 21 -90 12 -101 -13 -19 -54 -36
-60 -25 -5 7 -20 7 -49 -1 -62 -16 -72 -3 -72 93 0 50 4 79 11 79 7 0 9 21 5
63 -3 34 -7 90 -10 125 -4 43 -2 68 7 77 16 18 35 19 53 1z m1494 4 c0 -5 -9
-10 -20 -10 -11 0 -20 5 -20 10 0 6 9 10 20 10 11 0 20 -4 20 -10z m-3363 -36
c19 -19 23 -28 14 -37 -6 -6 -11 -22 -11 -36 0 -15 -8 -35 -16 -46 l-15 -20
-15 19 c-8 11 -14 30 -14 43 0 13 -4 23 -10 23 -14 0 -12 48 3 65 18 21 35 18
64 -11z m1581 -21 c1 -27 9 -79 18 -118 9 -38 20 -90 25 -115 4 -25 11 -60 15
-78 5 -26 2 -38 -17 -58 -30 -33 -48 -30 -86 11 -41 44 -53 67 -53 99 0 14 -4
26 -10 26 -21 0 -9 33 22 62 l33 30 -1 40 c-1 22 -6 43 -11 47 -10 7 -10 44 2
79 5 15 15 22 34 22 l27 0 2 -47z m1642 -43 c0 -5 -4 -10 -10 -10 -5 0 -10 5
-10 10 0 6 5 10 10 10 6 0 10 -4 10 -10z m140 0 c0 -5 -4 -10 -10 -10 -5 0
-10 5 -10 10 0 6 5 10 10 10 6 0 10 -4 10 -10z m-140 -55 c0 -11 12 -15 50
-15 28 0 50 -4 50 -10 0 -6 -30 -10 -70 -10 -40 0 -70 4 -70 10 0 6 5 10 10
10 6 0 10 7 10 15 0 8 5 15 10 15 6 0 10 -7 10 -15z m-940 -25 c0 -5 -4 -10
-10 -10 -5 0 -10 5 -10 10 0 6 5 10 10 10 6 0 10 -4 10 -10z m1100 -20 c0 -5
14 -10 30 -10 17 0 30 -4 30 -10 0 -5 -25 -9 -55 -8 -30 1 -55 5 -55 10 0 4 7
8 15 8 8 0 15 5 15 10 0 6 5 10 10 10 6 0 10 -4 10 -10z m-3380 -39 c0 -17 5
-33 10 -36 21 -13 10 -51 -17 -66 -16 -8 -34 -20 -41 -26 -23 -22 -32 -14 -32
27 0 31 7 47 30 72 17 17 30 37 30 44 0 8 5 14 10 14 6 0 10 -13 10 -29z
m3275 19 c4 -6 -6 -10 -22 -9 l-28 0 20 9 c11 5 21 9 22 9 1 1 5 -3 8 -9z
m-3095 -20 c0 -5 14 -10 30 -10 17 0 30 -4 30 -10 0 -5 -4 -10 -10 -10 -5 0
-10 -22 -10 -50 0 -56 -10 -63 -31 -22 -8 15 -22 34 -31 43 -21 19 -23 35 -5
54 14 17 27 19 27 5z m430 0 c0 -5 -7 -10 -15 -10 -8 0 -15 5 -15 10 0 6 7 10
15 10 8 0 15 -4 15 -10z m1990 0 c0 -5 -13 -10 -30 -10 -16 0 -30 5 -30 10 0
6 14 10 30 10 17 0 30 -4 30 -10z m560 6 c0 -3 -4 -8 -10 -11 -5 -3 -10 -1
-10 4 0 6 5 11 10 11 6 0 10 -2 10 -4z m340 -26 c0 -5 -11 -10 -25 -10 -14 0
-25 5 -25 10 0 6 11 10 25 10 14 0 25 -4 25 -10z m-3094 -62 c5 -36 16 -59 40
-86 18 -20 34 -43 34 -50 0 -7 5 -21 12 -32 7 -10 10 -21 8 -24 -9 -9 -60 7
-60 18 0 18 -24 66 -32 66 -5 0 -8 14 -8 30 0 17 -4 30 -10 30 -5 0 -10 8 -10
19 0 10 -9 21 -20 24 -13 3 -20 14 -20 29 l0 25 30 0 30 0 6 -49z m2694 42 c0
-5 -4 -10 -10 -10 -5 0 -10 5 -10 10 0 6 5 10 10 10 6 0 10 -4 10 -10z m-2560
-30 c0 -11 -4 -20 -10 -20 -5 0 -10 9 -10 20 0 11 5 20 10 20 6 0 10 -9 10
-20z m90 1 c5 -11 10 -38 10 -60 l0 -41 -34 0 c-19 0 -37 4 -40 9 -3 4 -3 31
1 60 l6 51 23 0 c13 0 28 -9 34 -19z m710 -22 c0 -24 -4 -38 -10 -34 -5 3 -10
22 -10 41 0 19 5 34 10 34 6 0 10 -18 10 -41z m-852 9 c18 -18 15 -28 -8 -28
-13 0 -20 7 -20 20 0 23 10 26 28 8z m2092 2 c0 -5 -4 -10 -10 -10 -5 0 -10 5
-10 10 0 6 5 10 10 10 6 0 10 -4 10 -10z m90 0 c0 -5 -7 -10 -15 -10 -8 0 -15
5 -15 10 0 6 7 10 15 10 8 0 15 -4 15 -10z m590 0 c0 -5 -9 -10 -20 -10 -11 0
-20 5 -20 10 0 6 9 10 20 10 11 0 20 -4 20 -10z m370 -20 c0 -5 -5 -10 -11
-10 -5 0 -7 5 -4 10 3 6 8 10 11 10 2 0 4 -4 4 -10z m-300 -20 c0 -5 -5 -10
-11 -10 -5 0 -7 5 -4 10 3 6 8 10 11 10 2 0 4 -4 4 -10z m-3284 -24 c17 -18
19 -97 2 -114 -19 -19 -33 -15 -73 22 l-37 34 33 36 c38 38 53 43 75 22z
m3584 4 c0 -6 -28 -10 -65 -10 -37 0 -65 4 -65 10 0 6 28 10 65 10 37 0 65 -4
65 -10z m-290 -20 c0 -5 -13 -10 -30 -10 -16 0 -30 5 -30 10 0 6 14 10 30 10
17 0 30 -4 30 -10z m260 -20 c0 -5 -9 -10 -21 -10 -11 0 -17 5 -14 10 3 6 13
10 21 10 8 0 14 -4 14 -10z m-1220 -40 c0 -5 -4 -10 -10 -10 -5 0 -10 5 -10
10 0 6 5 10 10 10 6 0 10 -4 10 -10z m-20 -40 c0 -5 -4 -10 -10 -10 -5 0 -10
5 -10 10 0 6 5 10 10 10 6 0 10 -4 10 -10z m-80 -80 c0 -5 -13 -10 -30 -10
-16 0 -30 5 -30 10 0 6 14 10 30 10 17 0 30 -4 30 -10z"/>
<path d="M500 1850 c0 -5 7 -10 15 -10 8 0 15 5 15 10 0 6 -7 10 -15 10 -8 0
-15 -4 -15 -10z"/>
<path d="M480 1810 c0 -5 5 -10 10 -10 6 0 10 5 10 10 0 6 -4 10 -10 10 -5 0
-10 -4 -10 -10z"/>
<path d="M840 1190 c0 -5 5 -10 10 -10 6 0 10 5 10 10 0 6 -4 10 -10 10 -5 0
-10 -4 -10 -10z"/>
</g>
</svg>
