<?xml version="1.0" standalone="no"?>
<!DOCTYPE svg PUBLIC "-//W3C//DTD SVG 20010904//EN"
 "http://www.w3.org/TR/2001/REC-SVG-20010904/DTD/svg10.dtd">
<svg version="1.0" xmlns="http://www.w3.org/2000/svg"
 width="141.889821pt" height="270.000000pt" viewBox="0 0 141.889821 270.000000"
 preserveAspectRatio="xMidYMid meet">
<metadata>
Created by Potrace Professional 1.0m
</metadata>
<g transform="translate(-0.087654,272.000000) rotate(-360.00) scale(0.100000,-0.100000)"
fill="#000000" stroke="none">
<path d="M1065 2710 c-3 -5 -13 -10 -21 -10 -25 0 -64 -47 -64 -76 0 -15 5
-42 12 -60 l12 -33 -22 -19 c-15 -13 -22 -31 -22 -56 0 -20 4 -36 8 -36 5 0
14 -22 21 -50 l13 -50 29 0 c33 0 35 -5 14 -27 -16 -15 -30 -15 -185 3 -30 3
-59 10 -65 15 -5 5 -24 9 -41 9 -18 0 -36 5 -39 10 -3 6 -19 10 -34 10 -30 0
-81 20 -81 33 0 4 -9 7 -20 7 -11 0 -20 4 -20 9 0 4 -27 14 -60 20 -42 8 -60
17 -60 27 0 9 -7 23 -16 31 l-16 16 -32 -11 c-18 -7 -48 -12 -67 -12 -36 -1
-84 -29 -61 -37 7 -3 12 -22 12 -44 l0 -39 40 0 c22 0 40 5 40 10 0 18 18 10
49 -21 23 -22 31 -40 31 -65 0 -46 13 -57 83 -74 31 -7 57 -16 57 -20 0 -11
48 -30 75 -30 14 0 25 -4 25 -10 0 -5 14 -10 30 -10 32 0 37 -9 18 -28 -19
-19 -76 -14 -100 8 -12 11 -28 20 -35 20 -18 0 -85 -39 -104 -61 l-16 -19
-107 0 c-64 0 -106 4 -106 10 0 6 -42 10 -106 10 -82 0 -109 -3 -121 -15 -8
-9 -14 -17 -12 -18 2 -1 14 -8 26 -14 16 -9 87 -13 251 -13 l228 0 22 -20 c24
-22 48 -26 54 -9 7 20 78 2 78 -19 0 -39 24 -72 53 -72 15 0 27 -4 27 -10 0
-5 18 -10 40 -10 28 0 40 -4 40 -14 0 -8 -4 -18 -10 -21 -13 -8 -13 -158 -1
-170 5 -6 12 -35 14 -65 3 -30 11 -80 18 -110 6 -30 13 -136 15 -235 3 -99 8
-189 14 -200 9 -20 16 -76 26 -215 3 -41 10 -79 15 -84 5 -6 9 -58 9 -117 0
-72 4 -109 11 -111 9 -3 9 -9 0 -25 -6 -12 -11 -53 -11 -90 0 -55 -4 -74 -20
-91 -11 -12 -20 -26 -20 -32 0 -6 -10 -21 -23 -34 -17 -17 -48 -28 -118 -41
-52 -10 -110 -19 -129 -20 -19 -1 -38 -3 -42 -4 -5 0 -8 -27 -8 -60 l0 -58 68
-7 c37 -4 146 -9 242 -12 96 -2 213 -9 260 -14 47 -6 122 -10 166 -10 l81 0 7
39 c3 21 3 53 0 70 l-6 31 -72 0 c-43 1 -78 6 -88 14 l-18 13 0 121 c0 70 4
123 10 127 6 3 10 23 10 44 0 20 4 41 9 47 12 12 21 94 29 279 l7 150 56 -3
57 -4 21 23 c22 24 28 49 11 49 -6 0 -10 95 -10 264 0 166 -4 267 -10 271 -5
3 -10 37 -10 75 0 46 -4 70 -12 73 -10 3 -10 7 1 20 l13 17 -12 31 c-10 22
-10 33 -1 42 6 6 11 28 11 49 0 21 4 38 9 38 12 0 21 71 27 208 4 75 2 112 -5
112 -6 0 -11 11 -11 24 0 14 -4 28 -10 31 -5 3 -10 19 -10 36 0 16 -3 29 -7
29 -28 0 -43 114 -21 150 10 16 10 24 0 40 -6 11 -12 35 -12 53 0 21 -8 41
-20 52 -11 10 -20 22 -20 27 0 18 -29 38 -54 38 -14 0 -28 5 -31 10 -3 6 -37
10 -75 10 -38 0 -72 -4 -75 -10z"/>
</g>
</svg>
