<?xml version="1.0" standalone="no"?>
<!DOCTYPE svg PUBLIC "-//W3C//DTD SVG 20010904//EN"
 "http://www.w3.org/TR/2001/REC-SVG-20010904/DTD/svg10.dtd">
<svg version="1.0" xmlns="http://www.w3.org/2000/svg"
 width="302.043893pt" height="367.992574pt" viewBox="0 0 302.043893 367.992574"
 preserveAspectRatio="xMidYMid meet">
<metadata>
Created by Potrace Professional 1.0m
</metadata>
<g transform="translate(0.043893,368.000000) rotate(-360.00) scale(0.100000,-0.100000)"
fill="#000000" stroke="none">
<path d="M1290 3660 c-11 -15 -26 -20 -62 -20 l-48 0 0 -18 c0 -10 9 -24 20
-32 21 -15 26 -40 11 -55 -5 -6 -12 -21 -16 -34 l-7 -24 45 7 c34 5 48 3 60
-9 9 -8 28 -15 43 -15 l27 0 -6 30 c-5 23 -1 35 19 55 28 28 25 41 -12 55 -15
6 -24 18 -24 30 0 18 -21 50 -32 50 -2 0 -10 -9 -18 -20z m27 -60 c3 -11 12
-20 19 -20 18 0 18 -14 -1 -30 -8 -7 -15 -21 -15 -31 0 -11 -4 -19 -10 -19 -5
0 -10 5 -10 10 0 6 -13 10 -30 10 l-30 0 0 40 0 40 20 0 c11 0 20 5 20 10 0
19 32 10 37 -10z"/>
<path d="M1803 3486 c-13 -6 -23 -19 -23 -28 0 -10 -4 -18 -8 -18 -5 0 -15
-12 -23 -27 -8 -16 -22 -37 -31 -47 -14 -15 -18 -37 -18 -93 0 -42 -4 -73 -10
-73 -5 0 -10 -13 -10 -30 0 -16 -4 -30 -10 -30 -5 0 -10 -9 -10 -20 0 -11 -4
-20 -10 -20 -5 0 -10 -9 -10 -20 0 -11 -4 -20 -10 -20 -5 0 -10 -7 -10 -16 0
-27 -27 -44 -69 -44 -22 0 -43 -4 -46 -10 -3 -5 -33 -10 -66 -10 -33 0 -59 4
-59 10 0 6 5 10 10 10 6 0 10 18 10 40 0 22 9 54 20 72 20 32 27 88 12 88 -4
0 -15 17 -24 38 -20 47 -51 82 -72 82 -9 0 -16 5 -16 10 0 6 -37 10 -90 10
-53 0 -90 -4 -90 -10 0 -5 -8 -10 -18 -10 -10 0 -25 -12 -33 -27 -8 -16 -26
-40 -41 -55 -16 -15 -28 -37 -28 -51 0 -14 -4 -29 -10 -32 -5 -3 -10 -34 -10
-68 l0 -63 -20 -14 c-13 -9 -20 -26 -20 -45 0 -34 -20 -85 -33 -85 -5 0 -7
-21 -6 -47 l3 -48 -30 -3 -30 -3 -22 41 c-12 23 -22 52 -22 63 0 12 -9 33 -20
47 -11 14 -20 33 -20 43 0 9 -6 26 -12 37 -10 16 -10 24 0 40 15 24 17 170 2
170 -5 0 -10 9 -10 19 0 11 -4 23 -10 26 -5 3 -10 20 -10 37 0 22 -10 39 -37
64 -35 32 -83 46 -83 24 0 -5 -7 -10 -16 -10 -17 0 -49 -28 -42 -36 3 -2 23 5
46 17 l41 22 17 -18 c24 -24 42 -101 37 -157 l-4 -48 16 0 c12 0 15 -6 10 -21
-4 -12 -1 -33 6 -47 11 -20 11 -26 2 -29 -7 -3 -13 -13 -13 -23 0 -10 -9 -20
-20 -23 -26 -7 -26 -48 0 -67 14 -10 20 -26 20 -52 0 -21 5 -38 10 -38 6 0 10
-16 10 -35 0 -27 -4 -35 -17 -35 -37 0 -45 17 -55 111 -6 52 -14 96 -19 97 -5
2 -9 37 -9 79 l0 74 -21 -6 -22 -7 8 28 c13 54 17 114 7 114 -5 0 -12 -10 -16
-22 l-6 -23 -11 15 c-8 11 -12 12 -16 3 -8 -22 -25 -14 -18 8 5 15 3 20 -6 17
-8 -3 -15 -17 -17 -31 -2 -15 -8 -27 -13 -27 -5 0 -9 -9 -9 -20 0 -11 -4 -20
-10 -20 -5 0 -10 -11 -10 -24 0 -14 -4 -28 -10 -31 -5 -3 -10 -28 -10 -56 0
-27 -4 -57 -9 -67 -5 -9 -14 -30 -21 -47 -7 -16 -16 -38 -21 -47 -5 -10 -9
-29 -9 -42 0 -14 -4 -28 -10 -31 -5 -3 -10 -15 -10 -26 0 -11 -9 -39 -20 -61
-11 -23 -20 -57 -20 -75 0 -18 -4 -33 -10 -33 -5 0 -10 -22 -10 -49 0 -28 -4
-53 -10 -56 -5 -3 -10 -19 -10 -35 0 -16 -5 -32 -10 -35 -6 -3 -10 -17 -10
-30 0 -13 -4 -27 -10 -30 -14 -9 -12 -42 3 -48 8 -3 5 -11 -10 -24 -17 -15
-23 -31 -23 -61 0 -22 -4 -44 -10 -47 -5 -3 -10 -24 -10 -45 0 -21 -4 -42 -10
-45 -13 -8 -13 -55 0 -55 6 0 10 9 10 19 0 11 5 23 10 26 6 3 10 21 10 39 0
26 5 35 22 41 14 4 18 8 11 12 -15 6 -18 63 -3 63 6 0 10 -11 10 -24 0 -14 5
-28 10 -31 12 -8 13 -65 1 -65 -8 0 -11 -11 -27 -102 -3 -21 -10 -38 -15 -38
-5 0 -9 -12 -9 -26 0 -23 -20 -54 -34 -54 -3 0 -6 23 -6 50 0 28 -4 50 -10 50
-5 0 -10 -18 -10 -39 0 -22 -4 -43 -10 -46 -5 -3 -10 -17 -10 -30 0 -13 -4
-27 -10 -30 -5 -3 -10 -17 -10 -30 0 -13 -5 -27 -10 -30 -6 -3 -10 -19 -10
-35 0 -16 -4 -32 -10 -35 -5 -3 -10 -19 -10 -36 0 -16 -4 -29 -10 -29 -5 0
-10 -9 -10 -20 0 -11 -4 -20 -10 -20 -5 0 -10 -11 -10 -24 0 -14 -4 -28 -10
-31 -5 -3 -10 -15 -10 -26 0 -19 -4 -28 -28 -76 -20 -39 -15 -63 13 -63 31 0
62 29 95 89 14 24 51 70 83 103 31 32 57 65 57 73 0 8 5 15 10 15 6 0 10 8 10
18 0 10 9 24 20 32 11 8 20 24 20 37 0 12 5 25 10 28 6 3 10 15 10 26 0 10 5
19 10 19 6 0 10 9 10 20 0 13 7 20 20 20 12 0 20 7 20 16 0 9 8 24 18 33 9 9
23 28 31 44 8 15 18 27 23 27 4 0 8 9 8 20 0 11 5 20 10 20 6 0 10 12 10 27 0
19 14 40 50 74 27 26 50 51 50 55 0 5 9 20 20 34 11 14 20 35 20 48 0 12 5 22
10 22 6 0 10 9 10 20 0 11 5 20 10 20 6 0 10 14 10 30 0 41 22 39 66 -5 l35
-35 -21 -23 c-16 -16 -20 -29 -15 -52 16 -77 17 -95 6 -95 -6 0 -11 -9 -11
-20 0 -11 -4 -20 -10 -20 -5 0 -10 -6 -10 -13 0 -7 -9 -23 -20 -35 -11 -12
-20 -27 -20 -34 0 -8 -9 -20 -20 -28 -11 -8 -20 -22 -20 -32 0 -9 -4 -20 -10
-23 -13 -8 -13 -35 0 -35 6 0 10 9 10 20 0 11 5 20 10 20 6 0 10 8 10 18 0 10
9 24 20 32 11 8 20 21 20 30 0 9 9 22 20 30 11 8 20 21 20 30 0 9 9 22 20 30
11 8 20 24 20 35 1 38 24 55 74 55 l46 0 0 -24 c0 -14 -5 -28 -10 -31 -6 -3
-10 -19 -10 -36 0 -16 -4 -29 -8 -29 -5 0 -15 -12 -23 -27 -8 -16 -26 -40 -41
-55 -17 -15 -28 -37 -28 -52 0 -14 -4 -26 -10 -26 -5 0 -10 -9 -10 -20 0 -11
-4 -20 -10 -20 -5 0 -10 -9 -10 -20 0 -11 -4 -20 -10 -20 -5 0 -10 -8 -10 -18
0 -9 -9 -23 -20 -30 -11 -7 -20 -19 -20 -28 0 -9 -8 -24 -18 -33 -9 -9 -23
-29 -31 -46 -7 -16 -17 -38 -22 -47 -15 -29 -10 -68 11 -90 11 -12 20 -32 20
-45 0 -13 5 -23 10 -23 6 0 10 -13 10 -30 0 -16 -4 -30 -10 -30 -5 0 -10 7
-10 16 0 8 -7 22 -15 30 l-15 15 -15 -15 c-10 -9 -15 -34 -15 -73 0 -66 -16
-133 -32 -133 -6 0 -9 16 -6 39 2 28 0 37 -9 34 -7 -3 -31 13 -53 34 l-40 40
0 36 c0 21 -4 37 -10 37 -5 0 -10 9 -10 20 0 11 -4 20 -10 20 -6 0 -10 -28
-10 -64 0 -36 -4 -68 -10 -71 -5 -3 -10 -21 -10 -39 0 -17 -6 -44 -12 -59
l-13 -27 -42 0 c-23 0 -45 5 -48 10 -3 6 -1 10 4 10 6 0 11 10 11 23 0 13 9
33 20 45 11 12 20 28 20 36 0 8 6 16 13 19 6 2 9 8 5 12 -9 9 -28 -11 -47 -47
-8 -16 -18 -28 -23 -28 -4 0 -8 -7 -8 -15 0 -8 -6 -24 -13 -35 -9 -16 -9 -22
0 -28 16 -10 -3 -97 -28 -134 -20 -28 -26 -93 -9 -103 5 -3 10 -13 10 -20 0
-17 22 -46 68 -92 17 -17 32 -39 32 -48 0 -9 9 -25 20 -37 11 -12 20 -28 20
-35 0 -7 9 -13 20 -13 22 0 23 -4 20 -122 -1 -51 2 -78 9 -78 6 0 11 -15 11
-34 0 -19 5 -38 10 -41 6 -3 10 -19 10 -35 0 -16 5 -32 10 -35 6 -3 10 -13 10
-22 0 -23 42 -113 52 -113 4 0 8 -6 8 -14 0 -7 14 -27 30 -44 17 -18 30 -37
30 -42 0 -13 84 -100 96 -100 5 0 23 -14 41 -30 18 -17 36 -30 41 -30 4 0 17
-8 28 -17 32 -29 62 -43 89 -43 14 0 25 -4 25 -10 0 -6 30 -10 70 -10 40 0 70
-4 70 -10 0 -13 182 -13 196 -1 5 5 36 12 69 15 87 7 135 17 135 27 0 5 7 9
15 9 19 0 55 20 76 43 9 9 23 17 32 17 8 0 17 6 20 14 3 8 22 22 41 31 20 10
36 22 36 29 0 6 32 44 70 84 39 41 70 78 70 83 0 6 9 19 20 31 11 12 20 32 20
44 0 13 5 26 10 29 6 3 10 31 10 61 0 30 5 54 10 54 23 0 3 299 -21 324 -5 6
-9 27 -9 47 0 21 -4 41 -10 44 -5 3 -10 15 -10 26 0 10 -4 19 -10 19 -5 0 -10
9 -10 20 0 11 -4 20 -10 20 -5 0 -10 9 -10 20 0 11 -4 20 -8 20 -4 0 -16 13
-25 30 -10 16 -25 30 -33 30 -8 0 -14 4 -14 10 0 12 -97 110 -109 110 -32 0
-3 89 34 104 8 3 15 12 15 21 0 8 3 15 8 15 19 0 32 61 32 147 0 55 4 93 10
93 6 0 10 6 10 14 0 7 14 28 31 46 l32 33 0 70 c0 45 -4 72 -12 75 -7 2 -11
36 -11 98 0 52 -4 102 -9 112 -6 9 -12 29 -15 43 -6 29 -51 81 -78 92 -10 3
-18 12 -18 19 0 8 -9 20 -20 28 -11 8 -20 22 -20 31 0 9 9 24 20 34 11 10 20
31 20 47 0 62 54 77 100 28 15 -16 35 -30 44 -30 11 0 16 -9 16 -30 0 -16 5
-30 10 -30 6 0 10 -13 10 -30 0 -16 5 -30 10 -30 6 0 10 -16 10 -36 0 -20 10
-55 21 -78 12 -22 25 -49 30 -58 5 -10 9 -31 9 -47 0 -17 5 -33 10 -36 6 -3
10 -15 10 -26 0 -10 4 -27 9 -37 5 -9 16 -32 23 -49 7 -18 16 -33 20 -33 5 0
8 -9 8 -20 0 -11 5 -20 10 -20 6 0 10 -13 10 -30 0 -16 4 -30 9 -30 4 0 14
-27 21 -60 7 -33 17 -60 21 -60 5 0 9 -13 9 -29 0 -17 5 -33 10 -36 6 -3 10
-14 10 -24 0 -21 22 -71 33 -71 4 0 7 -9 7 -20 0 -11 5 -20 10 -20 6 0 10 -9
10 -20 0 -11 5 -20 10 -20 6 0 10 -11 10 -24 0 -14 5 -28 10 -31 6 -3 10 -15
10 -26 0 -10 5 -19 10 -19 6 0 10 -6 10 -14 0 -14 103 -126 115 -126 4 0 4 17
1 38 -3 20 -9 56 -12 80 -4 23 -10 42 -14 42 -5 0 -11 24 -13 53 -9 81 -18
127 -27 127 -5 0 -11 33 -14 73 -3 39 -10 110 -16 157 -6 47 -13 136 -16 198
-3 61 -9 112 -14 112 -5 0 -11 33 -14 73 -3 39 -10 122 -15 182 -5 61 -13 161
-17 223 l-7 112 29 25 c16 14 32 25 37 25 11 0 92 83 100 103 3 9 11 17 17 17
5 0 30 19 54 43 30 29 47 56 56 90 l13 47 37 0 c21 0 40 4 42 10 2 6 71 10
176 11 l173 1 52 -56 c29 -31 57 -56 63 -56 6 0 21 8 32 19 l22 18 0 106 c0
60 -4 109 -10 112 -5 3 -10 17 -10 30 0 13 -4 27 -10 30 -5 3 -10 15 -10 26 0
21 -42 69 -60 69 -17 0 -40 -26 -40 -44 0 -9 -4 -16 -10 -16 -5 0 -10 -8 -10
-18 0 -20 -64 -82 -85 -82 -8 0 -15 -4 -15 -10 0 -5 -9 -10 -19 -10 -11 0 -23
-4 -26 -10 -3 -5 -30 -10 -60 -10 -30 0 -56 -4 -59 -9 -6 -9 -154 -7 -227 4
l-47 7 -13 -30 c-15 -34 -37 -44 -79 -35 -15 3 -31 0 -34 -6 -4 -6 -31 -11
-61 -11 -66 0 -61 -9 -92 168 -3 17 -9 32 -13 32 -4 0 -10 19 -14 43 -10 84
-18 117 -27 117 -5 0 -9 7 -9 15 0 9 -11 27 -25 40 l-24 25 -53 -1 c-29 -1
-63 -6 -75 -13z m97 -13 c0 -5 -14 -19 -30 -32 l-30 -23 0 -49 c0 -62 -17
-101 -41 -94 l-17 6 5 -39 c4 -27 1 -43 -11 -54 -9 -10 -16 -33 -16 -58 0 -27
-7 -48 -20 -62 -11 -12 -20 -27 -20 -34 0 -15 -55 -38 -69 -29 -17 10 -13 29
9 45 11 8 20 20 20 27 0 13 5 24 28 70 7 13 12 40 12 61 0 21 6 44 12 50 10
10 10 17 -1 34 l-14 22 32 28 c17 15 31 36 31 45 0 10 14 35 32 56 22 27 39
37 60 37 15 0 28 -3 28 -7z m-580 -223 c0 -5 -4 -10 -10 -10 -5 0 -10 5 -10
10 0 6 5 10 10 10 6 0 10 -4 10 -10z m-780 -60 c0 -16 -4 -30 -10 -30 -5 0
-10 14 -10 30 0 17 5 30 10 30 6 0 10 -13 10 -30z m794 -10 c28 -10 35 -40 13
-59 -8 -6 -33 -8 -65 -4 -54 6 -82 -8 -82 -41 0 -12 11 -16 49 -16 28 0 53 5
56 10 11 18 35 -10 35 -41 0 -29 -22 -40 -35 -19 -10 17 -25 11 -25 -10 0 -11
5 -20 10 -20 6 0 10 -22 10 -50 0 -35 -4 -50 -13 -50 -18 0 -101 40 -109 54
-13 20 -19 -2 -7 -28 7 -14 20 -26 31 -26 11 0 18 -7 18 -19 0 -11 6 -21 13
-24 9 -3 9 -7 1 -18 -6 -8 -12 -38 -13 -66 l-2 -53 19 0 c11 0 32 14 45 30 14
17 32 30 41 30 8 0 16 5 18 12 7 21 184 14 252 -9 32 -11 53 -23 48 -27 -6 -3
-17 -3 -26 0 -11 4 -16 0 -16 -13 0 -32 -21 -43 -82 -43 -32 0 -58 -3 -58 -7
0 -13 -52 -33 -82 -33 -15 0 -28 -4 -28 -8 0 -5 -16 -14 -35 -22 -19 -8 -35
-17 -35 -22 0 -4 -8 -8 -18 -8 -10 0 -24 -9 -32 -20 -8 -11 -21 -20 -30 -20
-9 0 -22 -9 -30 -20 -21 -29 -43 -25 -58 10 -18 39 -49 41 -54 3 -2 -22 -9
-29 -30 -31 -16 -2 -28 -8 -28 -13 0 -6 -24 -9 -57 -7 l-58 3 -3 20 c-2 14 27
51 95 121 112 115 143 165 143 232 0 33 6 52 22 69 15 16 19 26 12 31 -6 4
-14 23 -18 43 -5 28 -2 41 15 60 11 13 23 36 26 51 4 21 14 30 42 38 20 5 41
10 47 10 6 0 17 7 24 15 15 18 12 17 44 5z m1486 -45 c0 -10 -10 -15 -30 -15
-16 0 -30 4 -30 9 0 8 10 12 53 20 4 0 7 -6 7 -14z m-185 -45 c-3 -5 -13 -10
-21 -10 -8 0 -14 5 -14 10 0 6 9 10 21 10 11 0 17 -4 14 -10z m-302 -47 c-7
-2 -13 -20 -13 -38 0 -24 -6 -38 -20 -45 -14 -7 -20 -21 -20 -44 0 -31 -35
-76 -60 -76 -6 0 -14 -8 -17 -17 -9 -23 -92 -103 -107 -103 -7 0 -18 -9 -26
-20 -8 -11 -22 -20 -31 -20 -10 0 -19 -5 -21 -11 -2 -6 -29 -12 -61 -14 l-58
-4 -19 22 c-11 11 -20 29 -20 39 0 21 48 74 58 64 3 -4 0 -11 -8 -16 l-14 -8
13 -16 c20 -23 31 -20 31 10 0 32 64 94 97 94 13 0 23 5 23 10 0 6 14 10 30
10 17 0 30 5 30 10 0 6 11 10 24 10 14 0 28 5 31 10 3 6 15 10 26 10 10 0 19
5 19 10 0 6 9 10 20 10 13 0 20 7 20 20 0 11 5 20 10 20 6 0 10 7 10 15 0 31
33 75 55 74 6 0 4 -3 -2 -6z m-1844 -63 c-7 -5 -10 -21 -7 -41 7 -44 0 -63
-17 -49 -17 14 -7 97 14 122 l16 19 3 -22 c2 -12 -2 -25 -9 -29z m1771 5 c0
-25 -46 -65 -74 -65 -14 0 -28 -4 -31 -10 -3 -5 -17 -10 -31 -10 l-24 0 0 50
0 50 80 0 80 0 0 -15z m-600 -43 c0 -10 -9 -24 -20 -32 -11 -8 -20 -20 -20
-27 0 -18 -14 -16 -34 6 -13 14 -14 24 -7 45 l11 26 35 0 c27 0 35 -4 35 -18z
m-120 -32 c0 -16 -4 -30 -10 -30 -5 0 -10 -7 -10 -16 0 -35 -26 -44 -124 -44
l-96 0 0 15 c0 8 19 35 43 59 l42 46 78 0 77 0 0 -30z m240 -206 c0 -31 -18
-64 -34 -64 -3 0 -6 14 -6 30 0 17 5 30 10 30 6 0 10 9 10 20 0 11 5 20 10 20
6 0 10 -16 10 -36z m-100 -24 c0 -11 -4 -20 -10 -20 -5 0 -10 9 -10 20 0 11 5
20 10 20 6 0 10 -9 10 -20z m-1280 -47 c0 -32 -21 -93 -32 -93 -4 0 -8 -9 -8
-20 0 -11 -2 -20 -4 -20 -2 0 -11 -3 -20 -6 -12 -4 -16 0 -16 15 0 12 5 21 10
21 6 0 10 20 10 45 0 52 17 85 42 85 13 0 18 -8 18 -27z m60 -23 c0 -16 -4
-30 -10 -30 -5 0 -10 -15 -10 -34 0 -19 -4 -38 -10 -41 -5 -3 -10 -33 -10 -66
0 -33 -4 -59 -10 -59 -5 0 -10 -12 -10 -27 0 -43 -11 -73 -26 -73 -17 0 -18
22 -3 37 6 6 12 41 12 77 0 36 3 66 8 66 5 0 9 23 9 50 0 28 5 50 10 50 6 0
10 9 10 20 0 11 5 20 10 20 6 0 10 9 10 20 0 11 5 20 10 20 6 0 10 -13 10 -30z
m1040 10 l0 -20 -40 0 c-22 0 -40 -4 -40 -10 0 -5 -9 -10 -20 -10 -11 0 -20
-4 -20 -10 0 -5 -13 -10 -30 -10 -22 0 -30 5 -30 18 0 18 41 42 71 42 10 0 21
5 24 10 3 6 24 10 46 10 l39 0 0 -20z m260 -55 c0 -25 -4 -45 -10 -45 -5 0
-10 20 -10 45 0 25 5 45 10 45 6 0 10 -20 10 -45z m-1260 -5 c0 -11 -4 -20
-10 -20 -5 0 -10 9 -10 20 0 11 5 20 10 20 6 0 10 -9 10 -20z m1020 15 c0 -3
-11 -17 -25 -30 -31 -32 -55 -32 -55 -1 l0 25 33 4 c17 2 35 5 40 5 4 1 7 0 7
-3z m200 -41 c0 -13 -4 -24 -10 -24 -5 0 -10 9 -10 19 0 11 -3 28 -7 38 l-7
18 17 -14 c9 -7 17 -24 17 -37z m-1180 11 c0 -8 -4 -15 -10 -15 -5 0 -10 7
-10 15 0 8 5 15 10 15 6 0 10 -7 10 -15z m740 10 c0 -13 -50 -55 -65 -55 -8 0
-15 3 -15 6 0 10 28 34 39 34 6 0 11 5 11 10 0 6 7 10 15 10 8 0 15 -2 15 -5z
m80 -25 c0 -5 6 -10 13 -10 18 0 67 -24 67 -32 0 -5 -9 -8 -20 -8 -11 0 -20
-4 -20 -10 0 -5 9 -10 20 -10 11 0 20 -4 20 -10 0 -5 -13 -10 -29 -10 -17 0
-33 -4 -36 -10 -3 -5 -17 -10 -31 -10 -13 0 -24 -4 -24 -10 0 -5 -18 -10 -40
-10 -22 0 -40 4 -40 9 0 5 -9 11 -20 14 -11 3 -20 12 -20 21 0 13 11 16 50 16
28 0 50 5 50 10 0 6 -9 10 -20 10 -11 0 -20 4 -20 8 0 17 25 32 52 32 15 0 28
5 28 10 0 6 5 10 10 10 6 0 10 -4 10 -10z m-862 -72 c-2 -13 -7 -23 -13 -23
-5 0 -11 10 -13 23 -2 15 2 22 13 22 11 0 15 -7 13 -22z m602 15 c0 -14 -53
-33 -89 -33 -20 0 -56 -7 -80 -16 -24 -8 -46 -12 -49 -9 -12 12 33 45 62 45
17 0 38 5 46 10 18 11 110 13 110 3z m98 -62 c12 -10 22 -21 22 -25 0 -10 -48
-7 -55 4 -3 6 -19 10 -36 10 -16 0 -29 -4 -29 -10 0 -5 5 -10 10 -10 6 0 10
-9 10 -20 0 -16 -7 -20 -30 -20 l-30 0 0 23 c1 43 24 58 101 66 9 0 26 -7 37
-18z m-275 -86 c4 -8 1 -18 -5 -21 -7 -4 -14 -2 -16 4 -2 7 -12 12 -23 12 -10
0 -19 5 -19 10 0 16 57 12 63 -5z m495 -26 c4 -21 -18 -29 -62 -22 -44 7 -48
23 -6 23 17 0 30 5 30 11 0 17 34 6 38 -12z m-108 -29 c0 -5 -5 -10 -11 -10
-6 0 -24 -13 -39 -30 -25 -26 -60 -41 -60 -24 0 8 27 34 37 34 4 0 19 9 33 20
28 22 40 25 40 10z m-990 -15 c0 -8 -4 -15 -10 -15 -5 0 -10 7 -10 15 0 8 5
15 10 15 6 0 10 -7 10 -15z m1040 -4 c0 -11 -39 -41 -52 -41 -12 0 -9 19 5 35
14 16 47 20 47 6z m-200 -9 c0 -5 -9 -18 -20 -30 -11 -12 -20 -24 -20 -28 0
-3 -10 -20 -22 -36 l-21 -31 1 -98 c0 -55 -3 -99 -8 -99 -4 0 -13 -13 -19 -30
l-10 -30 -40 0 c-23 0 -41 -4 -41 -10 0 -5 -18 -10 -39 -10 -22 0 -43 -4 -46
-10 -9 -15 -95 -13 -95 3 0 7 4 17 9 23 18 18 71 126 71 145 0 10 5 19 10 19
6 0 10 6 10 13 0 6 14 28 30 47 16 19 30 40 30 46 0 16 23 24 47 18 13 -4 29
5 49 25 16 17 35 31 42 31 7 0 24 11 38 25 25 25 44 32 44 17z m260 -32 c0 -5
-7 -10 -15 -10 -8 0 -15 -4 -15 -10 0 -5 -5 -10 -11 -10 -6 0 -27 -17 -48 -37
-20 -21 -47 -44 -59 -50 -20 -12 -102 -19 -102 -9 0 16 15 36 27 36 14 0 43
23 43 34 0 3 -9 6 -20 6 -11 0 -20 -4 -20 -10 0 -5 -9 -10 -20 -10 -28 0 -25
13 7 28 33 15 53 16 53 2 0 -5 9 -10 20 -10 11 0 20 5 20 10 0 6 9 10 20 10
11 0 20 5 20 10 0 6 15 10 34 10 19 0 38 5 41 10 3 6 10 10 16 10 5 0 9 -4 9
-10z m40 -50 c0 -11 -3 -20 -8 -20 -4 0 -12 -10 -17 -22 -6 -12 -19 -26 -30
-32 -23 -13 -45 -32 -45 -40 0 -12 38 -6 43 7 2 6 8 9 12 5 10 -9 -40 -58 -60
-58 -8 0 -15 -4 -15 -10 0 -18 55 -5 80 20 12 12 51 30 65 30 21 0 19 -13 -5
-30 -11 -8 -20 -20 -20 -28 0 -31 -68 -62 -138 -62 -23 0 -42 -4 -42 -8 0 -11
-87 -35 -105 -28 -9 3 -15 18 -15 41 0 19 -5 35 -11 35 -6 0 -9 12 -7 28 l3
27 38 3 c20 2 37 7 37 13 0 5 9 9 20 9 23 0 119 60 120 75 0 6 10 22 23 37 27
34 77 39 77 8z m20 -66 c0 -3 -6 -12 -14 -20 -20 -19 -26 -18 -26 6 0 13 7 20
20 20 11 0 20 -3 20 -6z m-1240 -199 c0 -8 -4 -15 -10 -15 -5 0 -10 7 -10 15
0 8 5 15 10 15 6 0 10 -7 10 -15z m1159 -7 c20 -7 42 -19 50 -26 l14 -14 -14
-8 -13 -9 22 -24 c12 -13 22 -29 22 -35 0 -7 4 -12 9 -12 15 0 24 -41 12 -53
-7 -7 -19 -1 -40 21 -16 18 -36 32 -44 32 -9 0 -17 4 -19 8 -7 17 -68 52 -91
52 -14 0 -27 6 -30 13 -2 6 -8 9 -12 5 -9 -8 18 -38 35 -38 11 0 60 -44 60
-55 0 -3 -12 -5 -26 -5 -16 0 -37 12 -54 30 -15 17 -35 30 -44 30 -9 0 -16 5
-16 10 0 6 -9 10 -21 10 -22 0 -52 24 -42 34 11 10 123 7 123 -4 0 -5 16 -10
35 -10 19 0 35 5 35 10 0 6 -5 10 -11 10 -11 0 -39 24 -39 34 0 11 63 6 99 -6z
m108 -3 c8 -9 13 -18 11 -20 -6 -7 -58 18 -58 28 0 13 31 7 47 -8z m-412 -55
c3 -5 19 -10 35 -10 16 0 32 -4 35 -10 3 -5 15 -10 26 -10 37 0 69 -44 69 -95
l0 -45 -20 0 c-11 0 -20 5 -20 10 0 6 -9 10 -20 10 -11 0 -20 5 -20 10 0 6 -9
10 -20 10 -11 0 -20 5 -20 10 0 6 -9 10 -20 10 -11 0 -20 3 -20 8 0 10 -50 32
-74 32 -21 -1 -56 -22 -56 -34 0 -3 9 -6 20 -6 11 0 20 -4 20 -10 0 -5 7 -10
15 -10 8 0 15 -4 15 -10 0 -5 7 -10 16 -10 18 0 34 -15 53 -52 8 -16 18 -28
23 -28 12 0 10 -34 -4 -48 -7 -7 -20 -12 -30 -12 -11 0 -18 -7 -18 -20 0 -12
-7 -20 -16 -20 -8 0 -22 -7 -31 -15 -8 -9 -28 -19 -44 -22 -16 -3 -29 -9 -29
-14 0 -5 -7 -9 -15 -9 -21 0 -31 29 -17 50 6 10 14 34 17 54 l7 36 -24 0 c-13
0 -30 -9 -38 -20 -17 -24 -36 -25 -56 -5 -9 8 -20 15 -25 15 -12 0 -12 -27 1
-35 6 -3 10 -17 10 -31 0 -13 -4 -24 -10 -24 -14 0 -12 -23 5 -56 36 -70 6
-124 -69 -124 l-46 0 0 109 c0 63 -4 112 -10 116 -5 3 -10 15 -10 25 0 11 -9
35 -20 55 -11 20 -20 44 -20 54 0 10 9 26 20 36 11 10 20 22 20 28 0 5 17 25
37 43 l37 34 52 0 c29 0 56 -4 59 -10 3 -5 17 -10 30 -10 13 0 25 -5 27 -12 2
-6 10 -8 17 -4 9 6 9 11 0 22 l-11 14 56 0 c31 0 56 -4 56 -10 0 -5 9 -10 19
-10 11 0 23 -4 26 -10 3 -5 19 -10 35 -10 16 0 32 -4 35 -10 3 -5 15 -10 25
-10 10 0 20 -6 23 -12 2 -7 8 -9 13 -5 12 12 -46 57 -73 57 -12 0 -25 5 -28
10 -3 6 -22 10 -41 10 -19 0 -34 5 -34 10 0 6 -13 10 -29 10 -17 0 -33 5 -36
10 -4 6 16 10 54 10 33 0 63 -4 66 -10z m438 -14 c32 -28 36 -56 7 -56 -11 0
-20 6 -20 14 0 8 -13 23 -30 33 -16 9 -30 21 -30 25 0 17 46 7 73 -16z m-1389
-114 c-4 -12 -10 -22 -15 -22 -5 0 -9 -7 -9 -16 0 -20 -29 -49 -38 -39 -4 4
-1 10 6 12 6 3 12 13 12 22 0 27 31 84 41 74 5 -5 6 -18 3 -31z m986 -12 c0
-5 -4 -10 -9 -10 -6 0 -13 5 -16 10 -3 6 1 10 9 10 9 0 16 -4 16 -10z m37 -25
c8 -9 13 -19 9 -22 -7 -7 -36 16 -36 28 0 13 10 11 27 -6z m18 -375 c5 -7 11
-8 19 -1 13 11 74 12 81 1 2 -3 40 -2 84 3 l81 10 44 -44 c30 -30 45 -56 50
-81 3 -21 9 -54 12 -73 8 -43 -3 -56 -61 -84 -59 -28 -134 -28 -163 -1 -12 11
-27 20 -34 20 -8 0 -20 9 -28 20 -8 11 -22 20 -32 20 -10 0 -18 5 -18 10 0 6
-13 10 -30 10 -16 0 -30 4 -30 9 0 5 -9 11 -20 14 l-20 5 0 46 c0 25 -4 46
-10 46 -5 0 -10 14 -10 30 0 23 4 30 20 30 11 0 20 5 20 10 0 13 37 13 45 0z
m451 -137 c13 -16 24 -31 24 -34 0 -4 14 -21 30 -39 17 -18 30 -38 30 -46 0
-7 11 -33 25 -57 55 -99 61 -157 16 -139 -21 8 -61 48 -61 62 0 6 -9 20 -20
32 -11 12 -20 28 -20 35 0 7 -4 13 -10 13 -5 0 -10 14 -10 30 0 17 -4 30 -8
30 -4 0 -13 19 -19 43 -22 79 -24 97 -12 97 6 0 22 -12 35 -27z m-516 -83 c0
-5 14 -10 30 -10 17 0 30 -4 30 -10 0 -5 10 -10 23 -10 12 -1 38 -14 57 -30
19 -17 40 -30 47 -30 7 0 13 -9 13 -19 0 -11 5 -21 11 -23 29 -10 40 -235 14
-284 -13 -26 -85 -77 -127 -91 -10 -3 -18 -9 -18 -14 0 -5 -9 -9 -19 -9 -11 0
-21 -4 -23 -9 -3 -9 -58 -15 -110 -12 l-28 1 0 85 0 85 30 32 c17 17 31 38 31
47 3 42 -4 147 -10 151 -4 3 -17 19 -29 36 l-21 31 10 36 c7 26 16 37 29 37
10 0 22 5 25 10 3 6 13 10 21 10 8 0 14 -4 14 -10z m-520 -20 c0 -5 -4 -10
-10 -10 -5 0 -10 5 -10 10 0 6 5 10 10 10 6 0 10 -4 10 -10z m1014 -96 c14
-15 26 -31 26 -36 0 -5 9 -18 20 -30 11 -12 20 -28 20 -35 0 -7 5 -13 10 -13
6 0 10 -27 10 -60 0 -33 -4 -60 -10 -60 -5 0 -10 -6 -10 -13 0 -7 -8 -22 -18
-33 -10 -11 -27 -32 -36 -47 -18 -26 -66 -39 -66 -17 0 6 -9 10 -20 10 -11 0
-20 5 -20 10 0 6 -7 10 -15 10 -8 0 -30 15 -50 32 l-35 33 0 37 c0 21 -4 38
-10 38 -6 0 -10 33 -10 80 l0 80 19 0 c11 0 23 5 26 10 3 6 19 10 35 10 16 0
32 5 35 10 13 20 72 11 99 -16z m-594 -183 c0 -6 -4 -13 -10 -16 -5 -3 -10
-19 -10 -35 0 -16 -4 -32 -10 -35 -5 -3 -10 -24 -10 -46 l0 -39 -20 0 -20 0
-2 38 c-3 68 2 93 25 117 22 24 57 33 57 16z m-480 -20 c0 -5 9 -11 20 -14 15
-4 20 -14 20 -41 0 -20 5 -36 10 -36 6 0 10 -13 10 -30 0 -16 5 -30 10 -30 6
0 10 -13 10 -29 0 -16 6 -32 13 -34 8 -4 9 -6 0 -6 -6 -1 -18 5 -25 12 -7 7
-21 16 -30 20 -10 3 -18 11 -18 17 0 6 -13 23 -30 37 -18 15 -30 34 -30 50 0
13 -5 33 -11 44 -6 12 -8 27 -5 35 6 15 56 20 56 5z m1269 -57 c8 -41 8 -70 3
-77 -5 -7 -12 -29 -16 -49 -15 -95 -19 -108 -27 -108 -5 0 -9 -7 -9 -15 0 -8
-13 -29 -30 -47 -16 -17 -30 -37 -30 -43 0 -21 -53 -26 -67 -7 -15 19 -17 112
-3 112 6 0 10 15 10 33 0 40 21 100 43 125 9 10 17 24 17 30 0 7 3 12 8 12 4
0 13 15 21 33 37 87 65 87 80 1z m-369 -84 c0 -5 9 -10 20 -10 11 0 20 -4 20
-10 0 -5 14 -10 30 -10 17 0 30 -4 30 -10 0 -5 9 -10 19 -10 27 0 30 -17 20
-106 -13 -125 -20 -154 -35 -154 -7 0 -24 -11 -38 -25 -14 -14 -39 -28 -56
-31 -16 -4 -30 -10 -30 -15 0 -5 -9 -9 -20 -9 -11 0 -20 -4 -20 -10 0 -5 -12
-10 -26 -10 -14 0 -35 -5 -47 -11 -16 -9 -22 -9 -25 0 -2 6 -21 11 -43 11 -21
0 -39 5 -39 10 0 6 -9 10 -20 10 -11 0 -20 5 -20 10 0 6 -8 10 -18 10 -25 0
-42 40 -42 98 l0 48 48 52 c26 29 58 58 72 65 46 25 74 42 94 60 11 9 24 17
28 17 5 0 18 9 30 20 23 21 68 27 68 10z m-555 -45 c14 -14 25 -35 25 -45 l0
-20 43 0 c31 0 46 -5 57 -20 8 -11 22 -20 32 -20 l18 0 0 -79 0 -80 -29 -20
-29 -21 -79 0 -78 0 -30 33 c-45 49 -58 80 -59 140 0 55 16 87 46 87 8 0 20
16 28 35 8 19 17 35 21 35 5 0 20 -11 34 -25z m95 -14 c0 -6 -4 -13 -10 -16
-5 -3 -10 1 -10 9 0 9 5 16 10 16 6 0 10 -4 10 -9z m-423 -31 c8 0 28 -13 43
-30 15 -16 34 -30 42 -30 15 0 38 -39 38 -63 0 -7 9 -19 20 -27 11 -8 20 -21
20 -28 0 -8 14 -27 31 -43 24 -22 30 -35 27 -61 -2 -22 -9 -34 -21 -36 -18 -4
-76 36 -76 53 -1 6 -18 28 -38 50 -21 22 -44 53 -52 68 -8 15 -18 27 -23 27
-4 0 -8 8 -8 18 0 10 -4 22 -9 28 -5 5 -11 29 -14 54 -3 25 -4 39 -1 33 3 -7
12 -13 21 -13z m1033 -270 c0 -5 -7 -10 -15 -10 -8 0 -15 -7 -15 -15 0 -9 -8
-19 -17 -22 -10 -4 -25 -15 -34 -25 -9 -10 -24 -18 -33 -18 -9 0 -16 -4 -16
-10 0 -5 -6 -10 -13 -10 -7 0 -32 -9 -55 -20 -38 -19 -92 -27 -92 -15 0 17 52
53 93 65 26 8 47 18 47 22 0 4 9 8 20 8 11 0 20 3 20 8 0 8 49 32 67 32 7 0
13 5 13 10 0 6 7 10 15 10 8 0 15 -4 15 -10z m-497 -42 c15 -7 27 -16 27 -20
0 -5 14 -8 30 -8 17 0 30 -4 30 -10 0 -5 7 -10 16 -10 21 0 44 -25 44 -48 0
-34 -42 -52 -125 -52 -43 0 -75 4 -75 10 0 6 -20 10 -44 10 -25 0 -48 5 -51
10 -3 5 -15 10 -26 10 -10 0 -19 5 -19 10 0 6 -9 10 -20 10 -11 0 -20 5 -20
10 0 6 -9 10 -20 10 -16 0 -20 7 -20 30 l0 30 89 0 c50 0 93 5 96 10 9 14 56
13 88 -2z"/>
<path d="M980 1770 c0 -5 5 -10 10 -10 6 0 10 5 10 10 0 6 -4 10 -10 10 -5 0
-10 -4 -10 -10z"/>
<path d="M540 3304 c0 -8 5 -12 10 -9 6 3 10 10 10 16 0 5 -4 9 -10 9 -5 0
-10 -7 -10 -16z"/>
<path d="M460 1920 c0 -33 3 -60 8 -60 9 0 32 -73 32 -104 0 -14 5 -28 10 -31
15 -9 12 -25 -5 -25 -20 0 -65 -44 -65 -64 0 -8 -6 -16 -12 -19 -7 -2 -10 -8
-6 -12 8 -9 38 18 38 35 0 17 26 40 44 40 l16 0 0 -110 c0 -67 4 -110 10 -110
6 0 10 45 10 114 0 66 4 117 10 121 6 3 10 19 10 36 0 16 5 29 10 29 6 0 10
15 10 34 0 19 5 38 10 41 6 3 10 15 10 26 0 10 -4 19 -10 19 -5 0 -10 -11 -10
-25 0 -14 -4 -25 -10 -25 -5 0 -10 -7 -10 -15 0 -8 -3 -15 -8 -15 -9 0 -32 72
-32 100 0 11 -4 20 -10 20 -5 0 -10 14 -10 30 0 23 -4 30 -20 30 l-20 0 0 -60z"/>
<path d="M600 1915 c0 -14 5 -25 10 -25 6 0 10 11 10 25 0 14 -4 25 -10 25 -5
0 -10 -11 -10 -25z"/>
</g>
</svg>
