<?xml version="1.0" standalone="no"?>
<!DOCTYPE svg PUBLIC "-//W3C//DTD SVG 20010904//EN"
 "http://www.w3.org/TR/2001/REC-SVG-20010904/DTD/svg10.dtd">
<svg version="1.0" xmlns="http://www.w3.org/2000/svg"
 width="177.982918pt" height="362.016295pt" viewBox="0 0 177.982918 362.016295"
 preserveAspectRatio="xMidYMid meet">
<metadata>
Created by Potrace Professional 1.0m
</metadata>
<g transform="translate(-2.000000,364.016295) rotate(-360.00) scale(0.100000,-0.100000)"
fill="#000000" stroke="none">
<path d="M530 3622 c-8 -10 -34 -24 -57 -32 -24 -7 -45 -21 -48 -30 -3 -10
-15 -20 -25 -23 -11 -3 -20 -12 -20 -21 0 -9 -4 -16 -10 -16 -6 0 -10 -45 -10
-115 l0 -115 50 -50 c28 -28 50 -57 50 -64 0 -8 5 -16 12 -18 8 -3 11 -33 9
-96 l-2 -92 32 -35 c25 -27 35 -32 46 -24 25 22 25 0 0 -25 -18 -18 -37 -26
-62 -26 -19 0 -35 -4 -35 -10 0 -5 -6 -10 -13 -10 -6 0 -31 -18 -55 -40 -23
-22 -47 -40 -52 -40 -6 0 -10 -4 -10 -10 0 -5 -11 -20 -25 -34 -14 -14 -25
-32 -25 -41 0 -8 -6 -15 -14 -15 -8 0 -23 -13 -33 -30 -9 -16 -23 -30 -31 -30
-7 0 -31 -18 -52 -40 -21 -22 -43 -40 -50 -40 -6 0 -14 -8 -17 -17 -4 -9 -19
-30 -35 -47 l-28 -29 0 -57 0 -57 42 -36 c27 -24 52 -37 70 -37 15 0 28 -4 28
-10 0 -5 6 -10 13 -10 31 0 66 -27 88 -70 13 -25 29 -51 36 -58 7 -7 9 -20 6
-29 -10 -26 -90 -103 -107 -103 -8 0 -18 -4 -21 -10 -3 -5 -22 -10 -41 -10
-24 0 -34 -5 -34 -15 0 -27 130 -145 160 -145 17 0 40 -26 40 -44 0 -9 -4 -16
-10 -16 -5 0 -10 -13 -10 -30 0 -16 -4 -30 -9 -30 -5 0 -12 -17 -15 -37 -4
-21 -11 -63 -17 -93 -5 -30 -13 -77 -15 -105 -3 -27 -10 -54 -15 -59 -5 -6 -9
-22 -9 -37 0 -15 -4 -31 -10 -34 -24 -15 3 -95 33 -95 9 0 17 -4 17 -10 0 -5
13 -10 28 -10 45 0 54 -29 48 -156 -3 -60 -8 -135 -11 -166 l-7 -58 -19 0
c-10 0 -19 5 -19 11 0 6 -12 9 -27 7 -33 -4 -41 -29 -21 -66 10 -20 10 -26 1
-29 -20 -7 -15 -61 7 -80 l20 -17 0 -63 0 -63 30 0 30 0 0 -94 0 -94 -40 -41
c-22 -22 -40 -45 -40 -50 0 -14 -81 -81 -98 -81 -24 0 -42 -27 -42 -64 l0 -36
94 0 c53 0 98 4 101 10 3 6 18 10 32 10 34 0 105 21 121 36 6 7 12 19 12 26 0
8 5 19 11 25 16 16 15 101 -1 144 -10 28 -10 43 -1 69 6 18 11 44 11 58 0 28
3 38 50 186 l32 99 -1 159 c0 87 3 158 6 158 3 0 21 -18 40 -40 23 -26 44 -40
60 -40 27 0 73 41 73 65 0 8 5 15 10 15 6 0 10 16 10 35 0 54 19 85 52 85 22
0 28 -5 28 -22 0 -11 12 -37 28 -57 50 -66 54 -81 57 -206 3 -146 0 -129 30
-159 14 -14 25 -32 25 -41 0 -8 5 -15 10 -15 6 0 10 -13 10 -29 0 -17 5 -33
10 -36 6 -3 10 -17 10 -31 0 -13 4 -24 9 -24 9 0 16 -33 31 -145 17 -131 22
-155 31 -155 5 0 9 -18 9 -40 0 -22 5 -40 10 -40 6 0 10 -9 10 -20 0 -11 4
-20 9 -20 5 0 11 -9 14 -20 10 -39 112 -17 123 27 3 12 -1 36 -10 54 -9 18
-16 43 -16 56 0 12 -4 23 -10 23 -5 0 -10 15 -10 34 0 18 -7 51 -16 72 -17 40
-27 233 -14 269 l6 17 16 -16 c23 -23 28 -20 28 14 0 17 -4 30 -10 30 -5 0
-10 14 -10 30 l0 30 30 0 30 0 0 28 c0 31 -7 43 -35 58 -21 12 -34 54 -16 54
16 0 13 29 -3 46 -18 17 -43 18 -48 2 -12 -35 -53 41 -62 115 -9 77 2 133 31
146 42 19 63 14 69 -19 l6 -30 42 0 c42 0 96 18 96 33 0 4 7 7 15 7 18 0 49
17 82 44 l23 20 0 98 c0 59 -4 98 -10 98 -6 0 -10 31 -10 72 0 84 -18 235 -31
260 -5 10 -9 101 -9 203 0 117 -4 185 -10 185 -6 0 -10 40 -10 99 0 56 -4 103
-10 106 -5 3 -10 23 -10 43 0 33 -18 113 -34 152 -6 15 32 40 61 40 7 0 13 5
13 10 0 6 8 10 18 10 10 0 24 9 32 20 8 11 22 20 31 20 10 0 19 6 22 13 3 9 7
9 20 -2 13 -10 17 -31 17 -92 0 -52 4 -79 11 -79 8 0 10 -26 7 -87 -5 -91 -3
-113 13 -113 5 0 9 18 9 39 0 22 5 43 10 46 6 3 10 31 10 61 0 30 5 54 10 54
6 0 10 -9 10 -20 0 -11 5 -20 10 -20 6 0 10 -15 10 -34 0 -74 23 -138 65 -183
23 -24 49 -43 58 -43 24 0 22 5 -21 49 l-38 40 -14 96 c-8 53 -17 98 -22 101
-11 7 -10 34 2 34 6 0 10 -9 10 -20 0 -11 5 -20 10 -20 6 0 10 -11 10 -24 0
-14 5 -28 10 -31 6 -3 10 -15 10 -26 0 -10 5 -19 10 -19 6 0 10 -11 10 -25 0
-24 35 -75 52 -75 12 0 10 48 -2 55 -5 3 -10 21 -10 40 0 19 -4 37 -10 40 -5
3 -10 19 -10 36 0 16 -4 29 -10 29 -5 0 -10 9 -10 20 0 11 -4 20 -10 20 -5 0
-10 6 -10 14 0 8 -27 41 -59 75 l-60 60 11 29 11 28 -23 27 c-27 31 -60 36
-60 9 0 -15 -49 -51 -54 -40 0 2 -7 13 -13 25 -7 13 -13 39 -13 58 0 19 -4 35
-10 35 -5 0 -10 9 -10 20 0 11 2 20 5 20 3 0 15 -9 27 -20 12 -11 28 -20 35
-20 7 0 13 -4 13 -10 0 -5 9 -10 20 -10 28 0 25 8 -20 51 -22 21 -40 45 -40
53 0 8 -6 16 -12 19 -7 2 -10 7 -6 11 10 12 48 -15 105 -73 l54 -54 12 13 c9
10 9 13 0 17 -7 3 -13 13 -13 24 0 10 -4 19 -10 19 -5 0 -10 7 -10 14 0 8 -17
28 -37 43 -55 41 -83 70 -83 87 0 8 -9 22 -21 30 -12 8 -18 19 -14 25 9 16
-31 78 -56 84 -35 9 -49 -3 -49 -40 0 -27 -9 -44 -40 -75 l-40 -41 0 26 c0 15
-4 27 -10 27 -5 0 -10 8 -10 18 0 9 -9 23 -20 30 -11 7 -20 19 -20 27 0 20 49
9 71 -17 9 -10 24 -18 33 -18 31 0 16 30 -34 66 -27 20 -50 42 -50 50 0 19
-65 84 -85 84 -8 0 -15 5 -15 10 0 6 -13 10 -30 10 l-30 0 0 -40 c0 -22 -4
-40 -8 -40 -5 0 -15 -12 -23 -27 -8 -16 -22 -35 -31 -44 -10 -9 -18 -24 -18
-33 0 -9 -4 -16 -10 -16 -5 0 -10 -6 -10 -14 0 -7 -12 -26 -27 -43 -34 -36
-53 -68 -53 -88 0 -8 -4 -15 -10 -15 -5 0 -10 -9 -10 -20 0 -13 -7 -20 -20
-20 -27 0 -25 16 6 53 l25 30 -6 49 c-4 29 -3 48 3 48 17 0 20 73 4 108 -9 17
-19 32 -24 32 -13 0 -9 103 5 133 6 15 15 27 20 27 22 0 -9 115 -37 135 -9 7
-16 21 -16 32 0 11 -17 32 -40 49 -22 16 -40 32 -40 37 0 11 -40 8 -40 -3 0
-5 -15 -10 -34 -10 -19 0 -38 5 -41 10 -11 17 -79 11 -95 -8z m193 -436 c9 -7
17 -21 17 -30 0 -9 5 -16 10 -16 15 0 12 -94 -5 -126 -8 -16 -15 -38 -15 -49
0 -18 -44 -55 -64 -55 -10 0 -7 55 3 65 6 6 5 17 -4 28 -11 15 -17 16 -34 8
-29 -16 -31 -15 -31 29 0 44 8 50 30 20 8 -11 20 -20 28 -20 7 0 22 9 34 20
12 11 28 20 35 20 7 0 13 5 13 10 0 6 -4 10 -10 10 -5 0 -10 9 -10 20 l0 20
-56 0 -56 0 -5 -20 c-9 -33 -23 -23 -23 16 0 47 21 63 80 63 25 0 53 -6 63
-13z m362 -63 c-4 -21 -10 -40 -13 -43 -8 -6 -32 -47 -32 -55 0 -3 9 -5 20 -5
15 0 20 7 20 25 0 14 6 25 14 25 15 0 26 -50 26 -123 l0 -48 18 3 17 3 3 63
c2 37 -2 69 -8 77 -13 15 -6 35 12 35 6 0 21 -12 34 -27 32 -37 34 -117 4
-133 -11 -6 -20 -20 -20 -31 0 -11 -8 -23 -17 -26 -10 -4 -28 -17 -41 -30 -30
-30 -66 -29 -124 2 -26 14 -59 25 -73 25 -14 0 -25 2 -25 5 0 11 26 50 43 66
9 9 17 24 17 33 0 9 5 16 10 16 6 0 10 9 10 20 0 11 5 20 10 20 6 0 10 9 10
19 0 11 3 21 8 23 4 2 18 24 31 51 30 59 57 65 46 10z m255 -192 c0 -26 5 -52
12 -59 15 -15 14 -130 -2 -146 -16 -16 -12 -26 10 -26 15 0 20 7 20 26 0 14 6
32 14 40 19 18 26 18 26 -1 0 -8 5 -24 10 -35 6 -11 15 -29 20 -40 l10 -20
-25 -10 c-14 -5 -28 -17 -31 -25 -4 -9 -18 -15 -35 -15 -16 0 -29 -4 -29 -10
0 -5 -9 -10 -20 -10 -11 0 -20 7 -20 15 0 8 -4 24 -10 35 -5 11 -14 29 -20 40
-5 11 -10 27 -10 35 0 8 -4 15 -10 15 -5 0 -10 7 -10 15 0 9 -12 20 -26 25
-21 8 -25 15 -20 33 3 12 6 28 6 35 0 6 7 12 16 12 9 0 18 9 21 20 3 11 9 20
14 20 4 0 22 20 40 45 17 24 36 42 40 39 5 -3 9 -27 9 -53z m-380 -161 c0 -5
-4 -10 -10 -10 -5 0 -10 5 -10 10 0 6 5 10 10 10 6 0 10 -4 10 -10z m-200
-119 c0 -5 -6 -11 -12 -14 -22 -7 12 -57 38 -57 13 0 26 5 29 10 11 18 60 11
75 -10 11 -15 26 -20 61 -20 l47 0 5 -20 c3 -11 12 -20 21 -20 11 0 16 -9 16
-28 0 -16 8 -32 20 -40 36 -22 21 -32 -50 -32 -40 0 -70 4 -70 10 0 6 -13 10
-29 10 -17 0 -32 4 -35 9 -3 4 -25 7 -50 5 -30 -3 -47 1 -56 11 -7 8 -23 15
-35 15 -24 0 -75 45 -75 66 0 8 -4 14 -10 14 -18 0 -10 31 15 55 13 14 31 25
40 25 8 0 15 5 15 10 0 6 9 10 20 10 11 0 20 -4 20 -9z m-60 -221 c0 -5 6 -10
13 -10 7 0 30 -16 50 -35 27 -26 37 -43 37 -66 l0 -31 -27 7 c-16 3 -29 11
-31 16 -2 5 -21 9 -43 9 l-39 0 0 19 c0 11 -6 22 -12 24 -8 3 -7 6 4 6 22 1
34 21 18 31 -10 6 -10 11 1 24 16 18 29 20 29 6z m-300 -130 c0 -11 5 -20 10
-20 6 0 10 -4 10 -10 0 -5 -9 -10 -21 -10 -16 0 -19 -4 -14 -20 4 -14 2 -20
-8 -20 -9 0 -17 -5 -19 -12 -5 -13 -88 63 -88 81 0 6 7 11 15 11 8 0 15 5 15
10 0 6 23 10 50 10 l50 0 0 -20z m150 -214 c0 -3 -4 -8 -10 -11 -5 -3 -10 -1
-10 4 0 6 5 11 10 11 6 0 10 -2 10 -4z m-190 -156 c0 -27 -4 -50 -10 -50 -5 0
-10 -9 -10 -20 0 -11 -4 -20 -10 -20 -5 0 -10 -11 -10 -25 0 -14 -4 -25 -10
-25 -14 0 -12 87 3 129 26 75 47 80 47 11z m560 19 c0 -24 -4 -30 -17 -27 -11
2 -19 14 -21 31 l-3 27 20 0 c17 0 21 -6 21 -31z m320 21 c0 -5 -4 -10 -10
-10 -5 0 -10 5 -10 10 0 6 5 10 10 10 6 0 10 -4 10 -10z m-380 -90 c0 -11 -4
-20 -10 -20 -5 0 -10 2 -10 4 0 2 -3 11 -6 20 -4 11 -1 16 10 16 9 0 16 -8 16
-20z m80 10 c0 -5 -4 -10 -10 -10 -5 0 -10 5 -10 10 0 6 5 10 10 10 6 0 10 -4
10 -10z m-685 -20 c3 -5 -1 -10 -10 -10 -9 0 -13 5 -10 10 3 6 8 10 10 10 2 0
7 -4 10 -10z m356 -32 c28 -31 23 -43 -6 -14 -14 14 -25 28 -25 31 0 11 13 4
31 -17z m-43 -48 c8 -18 21 -30 33 -30 10 0 19 -4 19 -10 0 -5 7 -10 15 -10
10 0 15 -10 15 -30 0 -32 -9 -37 -28 -18 -9 10 -16 8 -30 -5 l-17 -18 15 -9
14 -9 -23 -20 c-26 -22 -24 -57 4 -85 8 -8 15 -24 15 -36 0 -24 -27 -56 -38
-46 -3 4 -1 11 7 15 17 11 10 56 -9 56 -12 0 -15 15 -16 74 l0 73 18 11 c24
15 23 52 -2 77 -20 20 -27 50 -12 50 4 0 13 -13 20 -30z m452 -21 c0 -17 -4
-28 -10 -24 -5 3 -10 17 -10 31 0 13 5 24 10 24 6 0 10 -14 10 -31z m-80 6 c0
-8 -4 -15 -10 -15 -5 0 -10 7 -10 15 0 8 5 15 10 15 6 0 10 -7 10 -15z m-60
-15 c0 -13 -7 -20 -20 -20 -13 0 -20 7 -20 20 0 13 7 20 20 20 13 0 20 -7 20
-20z m160 -110 c0 -34 -5 -37 -27 -15 -12 12 -13 19 -3 30 19 23 30 18 30 -15z
m-160 -14 c0 -23 -22 -41 -34 -29 -3 4 -6 17 -6 30 0 16 6 23 20 23 14 0 20
-7 20 -24z m80 14 c0 -5 -4 -10 -10 -10 -5 0 -10 5 -10 10 0 6 5 10 10 10 6 0
10 -4 10 -10z m340 -10 c0 -11 -4 -20 -10 -20 -5 0 -10 9 -10 20 0 11 5 20 10
20 6 0 10 -9 10 -20z m-620 -30 c0 -5 -4 -10 -10 -10 -5 0 -10 5 -10 10 0 6 5
10 10 10 6 0 10 -4 10 -10z m-60 -21 c0 -5 -4 -9 -10 -9 -5 0 -10 7 -10 16 0
8 5 12 10 9 6 -3 10 -10 10 -16z m160 -13 c0 -14 -4 -28 -10 -31 -6 -4 -10 7
-10 24 0 17 5 31 10 31 6 0 10 -11 10 -24z m200 -60 c0 -9 -8 -16 -20 -16 -14
0 -20 7 -20 23 0 13 3 26 6 30 9 9 34 -19 34 -37z m60 14 c0 -16 -4 -30 -10
-30 -5 0 -10 14 -10 30 0 17 5 30 10 30 6 0 10 -13 10 -30z m-146 -6 c11 -29
6 -44 -14 -44 -16 0 -20 7 -20 30 0 32 23 42 34 14z m-154 -50 c0 -16 -12 -37
-32 -57 -21 -19 -28 -32 -20 -34 19 -7 15 -35 -5 -31 -19 3 -32 48 -14 48 6 0
11 16 11 36 0 27 5 37 20 41 11 3 20 9 20 14 0 5 5 9 10 9 6 0 10 -12 10 -26z
m-100 -4 c0 -5 -4 -10 -10 -10 -5 0 -10 5 -10 10 0 6 5 10 10 10 6 0 10 -4 10
-10z m340 -76 c0 -20 -4 -25 -16 -20 -9 3 -18 6 -20 6 -2 0 -4 9 -4 20 0 13 7
20 20 20 15 0 20 -7 20 -26z m80 6 c0 -11 -4 -20 -10 -20 -5 0 -10 9 -10 20 0
11 5 20 10 20 6 0 10 -9 10 -20z m-170 -10 c0 -5 -4 -10 -10 -10 -5 0 -10 5
-10 10 0 6 5 10 10 10 6 0 10 -4 10 -10z m370 0 c0 -5 -4 -10 -10 -10 -5 0
-10 5 -10 10 0 6 5 10 10 10 6 0 10 -4 10 -10z m60 0 c0 -5 -4 -10 -10 -10 -5
0 -10 5 -10 10 0 6 5 10 10 10 6 0 10 -4 10 -10z m-340 -90 c0 -11 -4 -20 -10
-20 -5 0 -10 9 -10 20 0 11 5 20 10 20 6 0 10 -9 10 -20z m80 5 c0 -8 -4 -15
-10 -15 -5 0 -10 7 -10 15 0 8 5 15 10 15 6 0 10 -7 10 -15z m-160 -25 c0 -11
-4 -20 -10 -20 -5 0 -10 9 -10 20 0 11 5 20 10 20 6 0 10 -9 10 -20z m-220
-55 c0 -14 -4 -25 -10 -25 -11 0 -14 33 -3 43 11 11 13 8 13 -18z m300 -30 c0
-8 -4 -15 -10 -15 -5 0 -10 7 -10 15 0 8 5 15 10 15 6 0 10 -7 10 -15z m-76
-11 c9 -22 8 -24 -9 -24 -8 0 -15 9 -15 20 0 24 15 27 24 4z m156 6 c0 -5 -2
-10 -4 -10 -3 0 -8 5 -11 10 -3 6 -1 10 4 10 6 0 11 -4 11 -10z m-240 -20 c0
-5 -4 -10 -10 -10 -5 0 -10 5 -10 10 0 6 5 10 10 10 6 0 10 -4 10 -10z m160
-100 c0 -5 9 -10 20 -10 l20 0 0 -34 c0 -19 4 -37 9 -40 17 -11 38 -166 22
-166 -6 0 -11 -9 -11 -20 0 -24 -25 -26 -47 -5 l-15 16 13 15 c9 11 9 18 1 26
-14 14 -16 48 -4 48 5 0 9 14 9 30 0 17 -4 30 -9 30 -4 0 -8 9 -8 19 0 11 -4
21 -9 23 -4 2 -11 20 -15 41 l-7 37 16 0 c8 0 15 -4 15 -10z m-540 -60 c0 -5
-4 -10 -10 -10 -5 0 -10 5 -10 10 0 6 5 10 10 10 6 0 10 -4 10 -10z m0 -109
c0 -22 4 -51 10 -65 22 -58 -33 -106 -58 -51 -15 33 -15 55 -1 55 7 0 9 11 6
29 -8 40 2 71 24 71 l19 0 0 -39z m640 -391 c0 -5 -4 -10 -10 -10 -5 0 -10 5
-10 10 0 6 5 10 10 10 6 0 10 -4 10 -10z"/>
</g>
</svg>
