<?xml version="1.0" standalone="no"?>
<!DOCTYPE svg PUBLIC "-//W3C//DTD SVG 20010904//EN"
 "http://www.w3.org/TR/2001/REC-SVG-20010904/DTD/svg10.dtd">
<svg version="1.0" xmlns="http://www.w3.org/2000/svg"
 width="121.904735pt" height="161.216877pt" viewBox="0 0 121.904735 161.216877"
 preserveAspectRatio="xMidYMid meet">
<metadata>
Created by Potrace Professional 1.0m
</metadata>
<g transform="translate(-1.969600,162.836113) rotate(-360.00) scale(0.100000,-0.100000)"
fill="#000000" stroke="none">
<path d="M190 1623 c-24 -10 -104 -99 -128 -143 -25 -48 -28 -85 -8 -106 17
-17 86 -19 86 -3 0 8 17 10 55 6 55 -6 146 -46 176 -79 9 -10 23 -18 31 -18 9
0 20 -6 25 -12 13 -17 15 -96 2 -103 -22 -14 -2 -200 27 -239 10 -15 30 -20
89 -24 l75 -5 0 -24 c0 -15 -13 -37 -32 -54 -23 -23 -28 -33 -20 -41 20 -20
15 -58 -8 -58 -11 0 -20 5 -20 10 0 6 -9 10 -19 10 -11 0 -21 4 -23 10 -6 18
-78 -11 -78 -32 0 -10 -7 -18 -16 -18 -19 0 -84 -68 -84 -87 0 -7 -4 -13 -8
-13 -5 0 -15 -12 -23 -27 -8 -16 -22 -37 -31 -47 -10 -11 -18 -26 -18 -33 0
-7 -4 -13 -10 -13 -5 0 -10 -9 -10 -20 0 -11 -4 -20 -10 -20 -5 0 -10 -10 -10
-21 l0 -22 -75 7 c-42 4 -82 9 -90 13 -25 9 -17 -31 10 -55 14 -12 38 -22 54
-22 18 0 40 -11 59 -30 45 -43 73 -40 95 10 9 23 47 70 82 105 36 35 65 68 65
74 0 5 7 14 15 18 19 11 85 4 85 -8 0 -5 17 -9 38 -9 41 0 62 -14 62 -42 0
-10 5 -18 10 -18 6 0 10 -10 10 -22 0 -13 9 -34 20 -48 11 -14 20 -29 20 -33
0 -14 28 -37 44 -37 9 0 16 -4 16 -9 0 -5 13 -11 29 -14 16 -3 36 -13 44 -22
9 -8 21 -15 27 -15 6 0 14 -8 17 -17 4 -10 16 -26 27 -36 15 -13 17 -20 8 -29
-15 -15 -16 -120 -1 -135 6 -6 19 -9 28 -5 24 9 61 49 61 67 0 8 5 15 10 15 6
0 10 11 10 24 0 14 4 28 10 31 5 3 10 15 10 25 0 10 6 20 12 22 19 7 -16 38
-42 38 -26 0 -50 22 -50 47 0 11 -5 24 -12 31 -9 9 -6 16 10 30 28 24 29 52 2
52 -11 0 -20 5 -20 10 0 6 -7 10 -16 10 -20 0 -44 24 -44 44 0 9 -3 16 -8 16
-4 0 -13 9 -20 20 -10 16 -10 28 0 61 l13 40 22 -4 c30 -6 60 37 42 59 -8 9
-9 30 -5 62 4 26 10 64 13 85 l5 37 45 0 c56 0 73 -17 73 -71 0 -27 6 -47 18
-58 9 -9 23 -28 31 -43 8 -16 22 -28 32 -28 10 0 21 -4 24 -10 13 -21 66 -7
105 29 11 11 12 15 2 19 -6 2 -12 12 -12 23 l0 19 -40 0 -40 0 0 19 c0 11 4
22 10 26 6 3 5 15 -2 30 -8 19 -8 31 0 50 7 15 8 27 2 30 -6 4 -10 13 -10 21
0 31 -73 84 -115 84 -14 0 -25 5 -25 10 0 6 -11 10 -24 10 -14 0 -28 5 -31 10
-3 6 -13 10 -21 10 -26 0 -44 27 -44 64 0 26 4 36 16 36 27 0 64 50 64 88 0
10 14 33 30 50 17 18 30 36 30 40 0 5 14 23 30 40 17 18 30 36 30 40 0 5 14
23 30 40 17 18 30 36 30 42 0 5 14 23 31 40 l31 29 -15 16 c-16 16 -43 20 -49
8 -5 -12 -84 -53 -102 -53 -9 0 -16 -4 -16 -10 0 -5 -13 -10 -28 -10 -16 0
-34 -8 -42 -20 -9 -13 -26 -20 -47 -20 -17 0 -34 -4 -37 -8 -3 -4 -28 -14 -55
-22 -28 -7 -51 -17 -51 -22 0 -4 -13 -8 -29 -8 -17 0 -33 -4 -36 -10 -3 -5
-17 -10 -29 -10 -13 0 -29 -7 -36 -15 l-13 -15 24 -21 23 -20 -28 -25 c-27
-26 -56 -26 -56 -1 0 8 -18 19 -40 26 -22 6 -40 16 -40 21 0 6 -9 10 -20 10
-11 0 -20 3 -20 8 0 7 -47 32 -62 32 -14 0 -98 90 -98 105 0 8 -4 15 -10 15
-5 0 -10 9 -10 19 0 11 -4 23 -10 26 -5 3 -10 21 -10 40 0 24 -7 39 -22 49
-24 17 -25 17 -48 9z m410 -464 c0 -32 13 -51 43 -62 10 -4 17 -17 17 -32 l0
-25 -50 0 -50 0 0 53 c0 29 -6 59 -12 65 -10 10 -10 15 2 22 31 20 50 12 50
-21z"/>
</g>
</svg>
