<?xml version="1.0" standalone="no"?>
<!DOCTYPE svg PUBLIC "-//W3C//DTD SVG 20010904//EN"
 "http://www.w3.org/TR/2001/REC-SVG-20010904/DTD/svg10.dtd">
<svg version="1.0" xmlns="http://www.w3.org/2000/svg"
 width="370.263588pt" height="161.991317pt" viewBox="0 0 370.263588 161.991317"
 preserveAspectRatio="xMidYMid meet">
<metadata>
Created by Potrace Professional 1.0m
</metadata>
<g transform="translate(-1.879269,162.000000) rotate(-360.00) scale(0.100000,-0.100000)"
fill="#000000" stroke="none">
<path d="M3080 1602 c0 -10 9 -24 20 -32 11 -8 20 -26 20 -40 0 -14 9 -32 20
-40 12 -8 20 -26 20 -42 l0 -28 -80 0 c-47 0 -80 -4 -80 -10 0 -5 -8 -10 -18
-10 -10 0 -24 -9 -32 -20 -8 -11 -19 -20 -25 -20 -5 0 -26 -15 -46 -33 l-35
-32 -24 -95 c-14 -52 -28 -96 -32 -98 -5 -2 -8 -20 -8 -40 l0 -37 -27 -12
c-15 -7 -33 -13 -40 -13 -7 0 -13 -4 -13 -8 0 -4 -21 -13 -47 -20 -27 -7 -62
-17 -79 -22 -41 -13 -91 -13 -100 1 -9 15 -194 -6 -194 -22 0 -5 -9 -9 -20 -9
-11 0 -29 -6 -40 -12 -16 -10 -24 -10 -40 0 -11 6 -29 12 -40 12 -11 0 -20 5
-20 10 0 6 -15 10 -34 10 -19 0 -38 5 -41 10 -3 6 -15 10 -26 10 -15 0 -19 7
-19 33 0 19 -3 37 -7 41 -5 4 -8 37 -9 74 -1 40 -5 67 -12 70 -7 2 -12 11 -12
20 0 10 -9 23 -20 30 -12 7 -20 23 -20 38 0 25 -20 54 -37 54 -5 0 -22 14 -38
30 -16 17 -37 30 -46 30 -10 0 -21 5 -24 10 -3 6 -19 10 -35 10 -16 0 -32 -4
-35 -10 -10 -17 -45 -12 -45 6 0 20 -28 43 -53 44 -10 0 -30 -11 -45 -25 l-26
-25 2 -45 2 -45 -19 0 c-12 0 -25 -12 -33 -30 -7 -16 -16 -30 -20 -30 -5 0 -8
-18 -8 -40 0 -22 5 -40 10 -40 6 0 10 -7 10 -16 0 -23 25 -44 54 -44 l26 0 0
-40 c0 -29 5 -43 20 -52 11 -7 20 -21 20 -30 l0 -18 -92 -2 c-51 -1 -104 -2
-118 -2 -14 0 -27 -3 -31 -8 -6 -10 -87 -13 -296 -10 l-163 2 0 18 c1 9 6 33
13 52 17 47 11 73 -14 65 l-19 -6 -1 48 c-1 26 -1 62 0 79 2 25 -6 41 -38 73
-30 30 -41 50 -41 72 0 44 -55 152 -85 165 -18 9 -39 9 -82 0 l-58 -11 -19
-40 c-11 -22 -23 -48 -28 -57 -4 -10 -8 -62 -8 -116 l0 -98 -20 -14 c-11 -8
-20 -22 -20 -32 0 -10 9 -23 20 -30 21 -14 28 -68 9 -68 -7 0 -9 -11 -6 -30 5
-23 2 -32 -13 -40 -24 -13 -67 -13 -75 0 -3 6 -17 10 -30 10 -13 0 -27 5 -30
10 -3 6 -24 10 -45 10 -29 0 -42 -5 -50 -19 -5 -11 -16 -26 -22 -33 -18 -19
-38 -56 -38 -69 0 -18 -33 -46 -38 -31 -7 21 -48 13 -76 -14 -30 -30 -30 -33
-12 -56 14 -20 132 -30 144 -13 4 6 19 16 35 24 15 8 27 23 27 33 0 10 5 18
10 18 6 0 10 7 10 16 0 8 7 22 16 31 l15 16 38 -12 c21 -6 54 -11 73 -11 27 0
38 -6 48 -26 l14 -26 -39 -34 c-22 -19 -50 -34 -62 -34 -12 0 -25 -5 -28 -10
-3 -5 -26 -10 -51 -10 -24 0 -44 -4 -44 -10 0 -5 -7 -10 -15 -10 -18 0 -65
-44 -65 -60 0 -24 -30 -40 -74 -40 -25 0 -46 -4 -46 -9 0 -5 -12 -11 -28 -13
l-27 -3 -3 -38 -3 -37 28 0 c16 0 34 5 40 11 5 5 30 8 54 6 l44 -4 -22 -7
c-13 -5 -23 -17 -23 -27 l0 -19 50 0 c28 0 50 5 50 10 0 6 7 10 15 10 22 0 55
20 86 53 20 19 37 27 63 27 20 0 36 5 36 10 0 6 11 10 25 10 25 0 74 -43 75
-65 0 -6 10 -15 22 -20 14 -6 27 -25 33 -47 5 -20 13 -40 18 -44 4 -4 7 -20 7
-35 0 -15 5 -31 10 -34 24 -15 9 -35 -24 -35 -19 0 -38 -4 -41 -10 -9 -14 -71
-12 -98 3 -12 6 -28 20 -35 30 -7 9 -26 17 -43 17 l-29 0 -1 -27 c-5 -86 13
-173 33 -173 5 0 8 -10 8 -22 0 -37 42 -78 79 -78 18 0 45 -10 61 -21 l29 -22
16 17 c28 28 -8 106 -49 106 -11 0 -16 9 -16 28 0 36 39 58 71 42 11 -6 47
-10 82 -8 l62 3 0 131 1 132 36 36 c20 20 44 36 53 36 19 0 139 -37 167 -51
10 -5 26 -9 35 -9 10 0 27 -7 37 -15 l20 -15 -14 -24 c-8 -16 -11 -41 -7 -68
3 -24 1 -65 -5 -93 l-11 -49 -53 -52 c-39 -37 -54 -59 -54 -78 0 -19 5 -26 20
-26 11 0 20 -4 20 -10 0 -5 10 -10 22 -10 28 0 91 -22 100 -35 5 -6 12 -5 20
3 15 15 138 17 138 2 0 -16 27 -12 34 6 10 27 -63 84 -116 89 -13 1 -26 3 -30
4 -32 5 -62 81 -38 96 6 3 10 17 10 30 0 13 4 27 10 30 5 3 10 17 10 31 0 13
5 24 10 24 6 0 10 9 10 20 0 11 5 20 10 20 6 0 10 23 10 50 0 28 5 50 10 50 6
0 10 11 10 24 0 27 -45 56 -86 56 -13 0 -26 5 -29 10 -3 6 -15 10 -26 10 -10
0 -19 5 -19 10 0 6 -6 10 -13 10 -22 0 -66 24 -72 39 -3 8 1 24 10 37 9 14 15
46 15 81 l0 59 -20 14 c-11 8 -20 18 -20 22 0 4 50 8 110 8 l110 0 0 -25 c0
-14 10 -36 22 -50 35 -40 98 -29 98 17 0 13 8 18 26 18 27 0 46 14 57 43 3 9
13 17 22 17 8 0 15 5 15 10 0 6 37 10 90 10 102 0 109 -7 60 -58 l-30 -32 0
-55 c0 -30 5 -55 10 -55 6 0 10 -6 10 -14 0 -22 85 -106 106 -106 26 -1 54
-24 54 -44 0 -21 -17 -20 -68 4 -22 11 -45 20 -51 20 -5 0 -18 14 -28 30 -9
16 -20 30 -23 30 -4 0 -12 16 -20 35 -7 19 -20 37 -27 39 -28 11 -83 -74 -83
-128 0 -10 -13 -31 -30 -46 -47 -44 -40 -60 26 -60 59 0 85 16 99 61 7 21 25
26 25 7 0 -18 44 -68 60 -68 6 0 25 -14 40 -30 36 -39 58 -38 104 5 21 19 42
35 46 35 9 0 54 -39 49 -43 -2 -2 -21 -12 -43 -21 -21 -10 -53 -33 -70 -52
-17 -19 -38 -34 -46 -34 -9 0 -21 -5 -27 -11 -7 -7 -17 -8 -25 -3 -7 5 -29 14
-48 21 l-35 13 -16 -19 c-18 -22 -16 -108 4 -151 16 -34 77 -90 98 -90 10 0
21 -4 24 -10 3 -5 24 -10 46 -10 l39 0 0 20 c0 11 -4 20 -10 20 -5 0 -10 9
-10 19 0 12 -12 24 -30 33 l-31 13 3 45 3 44 35 9 c19 5 48 11 64 14 16 3 43
19 59 34 16 16 36 29 43 29 8 0 14 5 14 10 0 6 7 10 16 10 43 0 61 78 25 109
-23 20 -40 91 -21 91 19 0 120 109 120 130 0 10 5 22 10 25 6 3 10 17 10 31 0
13 6 33 12 44 10 16 10 24 0 40 -6 11 -12 27 -12 35 0 17 35 21 45 5 3 -5 15
-10 26 -10 18 0 26 -3 81 -31 17 -9 23 -9 26 0 2 6 15 11 29 11 13 0 31 7 39
15 20 19 48 19 64 0 8 -10 31 -15 70 -15 38 0 60 -4 62 -12 5 -15 38 13 38 32
0 28 29 39 101 38 46 0 75 4 77 11 4 11 42 16 42 6 0 -3 -11 -17 -24 -30 l-24
-24 5 -41 c4 -26 2 -40 -6 -40 -6 0 -11 -13 -11 -30 0 -16 -4 -30 -10 -30 -5
0 -10 -12 -10 -26 0 -33 -21 -54 -54 -54 -14 0 -26 -4 -26 -10 0 -5 -6 -10
-13 -10 -7 0 -26 -13 -42 -30 l-29 -30 -48 0 c-26 0 -48 5 -48 10 0 6 -16 10
-36 10 -42 0 -72 27 -81 72 -5 27 -16 33 -57 28 -39 -4 -86 -72 -86 -124 0
-19 -4 -38 -10 -41 -5 -3 -10 -21 -10 -38 0 -21 -7 -38 -20 -47 -29 -21 -26
-50 5 -50 29 0 115 79 115 105 0 8 5 15 10 15 6 0 10 9 10 20 0 26 25 26 52 0
12 -11 28 -20 35 -20 7 0 13 -3 13 -8 0 -12 76 -32 121 -32 29 0 53 9 87 32
26 17 49 35 50 40 2 4 12 8 23 8 10 0 19 5 19 10 0 6 14 10 30 10 17 0 30 5
30 10 0 6 9 10 19 10 11 0 21 4 23 9 2 6 55 11 119 13 120 3 153 -5 190 -44 9
-10 27 -18 40 -19 32 -1 83 -32 87 -53 2 -9 -6 -25 -17 -35 -12 -10 -21 -25
-21 -34 0 -9 -4 -19 -10 -22 -5 -3 -10 -19 -10 -34 0 -39 -97 -141 -134 -141
-13 0 -28 -4 -31 -10 -3 -5 -17 -10 -31 -10 l-24 0 0 -30 c0 -23 4 -30 20 -30
11 0 20 -4 20 -10 0 -6 30 -10 69 -10 39 0 73 -4 76 -10 3 -5 28 -10 56 -10
27 0 58 -5 68 -12 15 -9 23 -9 35 1 25 21 19 35 -24 67 -22 16 -40 32 -40 37
0 4 -13 7 -30 7 -44 0 -38 23 20 80 28 27 50 56 50 64 0 9 5 16 10 16 6 0 10
7 10 15 0 9 9 25 20 37 11 12 20 28 20 35 0 7 4 13 8 13 5 0 14 11 22 24 l12
24 -33 34 c-19 18 -50 44 -69 58 -19 13 -44 32 -54 42 -11 10 -28 18 -37 18
-30 0 -29 15 2 44 16 15 29 33 29 40 0 6 9 18 20 26 11 8 20 22 20 32 0 10 5
18 10 18 6 0 10 9 10 19 0 11 -4 23 -10 26 -5 3 -10 18 -10 33 0 20 3 23 12
14 7 -7 25 -12 40 -12 15 0 28 -4 28 -10 0 -5 14 -10 30 -10 17 0 30 -4 30
-10 0 -13 77 -13 85 0 3 6 26 10 51 10 24 0 44 5 44 10 0 6 9 10 19 10 11 0
23 -4 26 -10 3 -5 22 -10 41 -10 19 0 34 5 34 10 0 6 16 10 36 10 19 0 42 7
50 15 l15 15 -16 16 c-24 25 -173 40 -251 25 -76 -14 -174 -14 -174 -1 0 6
-11 10 -24 10 -14 0 -28 5 -31 10 -3 5 -15 10 -26 10 -26 0 -26 56 1 90 11 14
20 32 20 41 0 8 9 25 20 37 11 12 20 33 20 47 0 14 5 25 10 25 6 0 10 40 10
100 0 60 -4 100 -10 100 -5 0 -10 9 -10 20 0 11 -4 20 -10 20 -5 0 -10 14 -10
30 0 17 -4 30 -10 30 -5 0 -10 7 -10 16 0 18 -15 34 -52 53 -16 8 -28 18 -28
23 0 4 -13 8 -30 8 -22 0 -30 -5 -30 -18z m-2740 -952 c0 -5 -7 -10 -16 -10
-8 0 -12 5 -9 10 3 6 10 10 16 10 5 0 9 -4 9 -10z m-40 -16 c0 -11 -91 -96
-97 -91 -3 3 14 26 38 50 42 43 59 54 59 41z"/>
</g>
</svg>
