<?xml version="1.0" standalone="no"?>
<!DOCTYPE svg PUBLIC "-//W3C//DTD SVG 20010904//EN"
 "http://www.w3.org/TR/2001/REC-SVG-20010904/DTD/svg10.dtd">
<svg version="1.0" xmlns="http://www.w3.org/2000/svg"
 width="298.019247pt" height="209.529664pt" viewBox="0 0 298.019247 209.529664"
 preserveAspectRatio="xMidYMid meet">
<metadata>
Created by Potrace Professional 1.0m
</metadata>
<g transform="translate(-0.003124,211.352253) rotate(-360.00) scale(0.100000,-0.100000)"
fill="#000000" stroke="none">
<path d="M1055 2110 c-2 -3 -232 -7 -511 -8 -279 -2 -511 -5 -516 -8 -4 -3 -8
-374 -8 -824 0 -535 -3 -821 -10 -825 -11 -7 -14 -228 -3 -239 12 -12 13 -69
1 -93 -8 -17 -7 -29 5 -54 l15 -33 1456 -4 1456 -4 0 50 c0 28 5 52 10 54 6 2
10 108 11 291 1 158 4 287 8 287 13 0 12 113 -1 123 -10 7 -10 10 0 14 16 6
17 120 0 125 -7 3 -8 9 -3 18 8 13 8 316 -1 538 -3 80 -1 122 6 122 6 0 10 70
10 204 l0 204 -16 6 c-9 3 -67 6 -129 6 -63 0 -116 4 -119 9 -3 4 -106 9 -228
10 -123 1 -268 3 -323 4 -55 0 -102 4 -105 8 -3 4 -174 10 -380 13 -206 3
-430 7 -498 9 -68 1 -125 0 -127 -3z m885 -200 c19 -5 90 -10 158 -11 67 -1
125 -6 128 -11 3 -4 27 -8 54 -8 27 0 52 -4 55 -10 3 -5 26 -10 50 -10 24 0
47 -4 50 -10 3 -5 13 -10 21 -10 24 0 78 -62 93 -107 l14 -41 -8 -279 c-12
-486 -16 -573 -25 -573 -5 0 -11 -42 -14 -92 -8 -137 -17 -212 -27 -222 -5 -6
-9 -36 -9 -68 0 -32 -4 -58 -10 -58 -5 0 -10 -7 -10 -16 0 -26 -83 -84 -121
-84 -10 0 -21 -4 -24 -10 -3 -5 -40 -10 -81 -10 -41 0 -74 -4 -74 -10 0 -17
-1484 -37 -1495 -20 -3 6 -30 10 -60 10 -30 0 -57 4 -60 10 -3 5 -13 10 -21
10 -31 0 -84 73 -84 115 0 14 -4 25 -10 25 -5 0 -10 21 -10 46 0 25 -4 53 -9
62 -9 18 -25 406 -24 617 0 198 27 542 44 560 5 5 9 24 9 42 0 18 5 33 10 33
6 0 10 7 10 15 0 35 81 85 138 85 12 0 22 4 22 9 0 5 21 12 48 16 140 20 1200
24 1272 5z"/>
<path d="M1005 1870 c-3 -5 -19 -10 -35 -10 -51 0 -130 -56 -159 -112 -8 -16
-18 -28 -23 -28 -4 0 -8 -9 -8 -20 0 -11 -4 -20 -10 -20 -5 0 -10 -9 -10 -20
0 -11 -4 -20 -8 -20 -5 0 -15 -12 -23 -27 -16 -33 -59 -73 -76 -73 -7 0 -13
-4 -13 -10 0 -6 -28 -10 -63 -10 -102 0 -137 -29 -137 -112 0 -28 5 -40 18
-45 9 -4 24 -14 32 -23 22 -24 102 -48 108 -32 2 8 29 12 83 12 43 0 79 4 79
9 0 10 70 19 208 27 50 3 92 10 92 15 0 5 13 9 28 9 16 0 34 8 42 20 8 11 20
20 26 20 6 0 29 21 50 48 54 66 64 75 72 67 4 -4 1 -10 -5 -12 -7 -3 -13 -10
-13 -17 0 -7 -9 -22 -19 -33 -11 -11 -23 -36 -26 -55 -8 -43 -24 -69 -32 -50
-6 14 -63 17 -63 2 0 -5 -6 -10 -14 -10 -44 0 -166 -91 -166 -124 0 -9 -4 -16
-10 -16 -14 0 -12 -132 2 -180 7 -22 16 -40 20 -40 5 0 8 -9 8 -20 0 -11 5
-20 10 -20 6 0 10 -8 10 -18 0 -10 9 -24 20 -32 11 -8 20 -20 20 -27 0 -6 14
-20 30 -30 17 -9 30 -21 30 -25 0 -4 9 -8 19 -8 11 0 23 -4 26 -10 3 -5 16
-10 29 -10 12 0 27 -5 33 -11 5 -5 51 -10 102 -11 50 0 91 -5 91 -9 0 -5 -4
-9 -10 -9 -5 0 -10 -7 -10 -15 0 -16 -7 -32 -34 -80 -10 -16 -20 -38 -23 -47
-3 -10 -9 -18 -14 -18 -5 0 -9 -7 -9 -15 0 -25 -66 -85 -94 -85 -14 0 -28 -4
-31 -10 -3 -5 -30 -10 -58 -10 -41 0 -56 -4 -67 -20 -16 -22 -36 -26 -42 -8
-5 15 -81 14 -86 -1 -2 -6 -12 -11 -23 -11 -12 0 -19 -7 -19 -20 l0 -20 60 0
c33 0 60 4 60 10 0 6 5 10 10 10 6 0 10 -11 10 -23 0 -13 8 -31 18 -40 20 -18
82 -23 82 -7 0 6 9 10 20 10 11 0 20 5 20 10 0 6 7 10 15 10 8 0 30 9 50 20
20 11 44 20 55 20 10 0 22 5 25 10 9 14 55 13 55 -2 0 -6 -5 -26 -12 -44 -15
-42 1 -64 46 -64 38 0 106 56 106 88 0 12 5 24 10 27 6 3 10 21 10 40 0 19 5
37 10 40 6 3 10 26 10 50 0 24 5 47 10 50 6 3 10 28 10 55 0 27 5 52 10 55 16
10 12 144 -4 161 -18 17 -83 19 -89 2 -2 -7 -8 -10 -12 -6 -15 15 25 38 65 38
48 0 70 -17 70 -54 0 -14 5 -26 10 -26 6 0 10 -9 10 -20 0 -16 7 -20 30 -20
34 0 37 -5 15 -26 -18 -18 -10 -43 23 -71 l26 -22 41 22 c22 12 56 38 75 58
19 19 43 38 53 42 9 3 17 12 17 19 0 8 9 20 20 28 11 8 20 20 20 27 0 7 12 26
26 43 33 36 54 76 54 101 0 11 5 19 10 19 6 0 10 10 10 23 0 13 5 28 11 34 9
9 5 18 -14 37 -28 28 -74 34 -96 14 -11 -10 -14 -10 -18 0 -3 6 -13 12 -24 12
-10 0 -19 5 -19 10 0 6 50 10 130 10 l130 0 0 20 c0 14 7 20 23 20 13 0 37 7
53 15 34 17 183 169 210 214 10 17 22 31 26 31 4 0 8 7 8 15 0 9 8 25 18 35
10 11 28 48 40 84 37 107 25 166 -35 166 -16 0 -33 4 -38 9 -6 5 -41 12 -80
15 -38 3 -98 8 -132 12 -49 4 -66 2 -78 -9 -17 -18 -20 -47 -5 -47 6 0 10 -4
10 -10 0 -5 -16 -10 -36 -10 -44 0 -98 -50 -89 -81 l6 -19 -26 0 c-31 0 -85
-52 -85 -81 l0 -19 -52 0 -53 0 -22 -35 c-24 -36 -31 -85 -13 -85 6 0 10 -4
10 -10 0 -5 -25 -9 -56 -8 l-55 2 -46 -46 c-37 -37 -46 -53 -45 -79 0 -17 7
-36 14 -40 7 -4 9 -11 5 -15 -4 -4 -18 3 -32 16 -28 26 -32 64 -11 104 23 45
106 126 147 144 22 9 39 20 39 24 0 5 8 8 18 8 10 0 24 9 32 20 8 11 19 20 25
20 6 0 39 27 73 60 35 33 67 60 72 60 10 0 110 117 110 128 -1 24 -25 32 -125
40 -61 5 -114 5 -120 0 -5 -4 -26 -8 -47 -8 -21 0 -46 -4 -56 -9 -9 -5 -37
-15 -62 -22 -25 -7 -49 -16 -54 -21 -6 -4 -16 -8 -24 -8 -8 0 -22 -8 -31 -17
-9 -10 -26 -24 -39 -31 -12 -6 -32 -18 -44 -25 -12 -6 -35 -24 -49 -39 -15
-16 -31 -28 -36 -28 -4 0 -25 -18 -46 -40 -36 -39 -57 -50 -57 -30 0 6 3 10 8
10 12 0 35 61 35 92 0 41 -37 108 -60 108 -4 0 -27 18 -51 40 -23 22 -49 40
-56 40 -8 0 -18 5 -21 10 -3 6 -33 10 -65 10 -32 0 -62 -4 -65 -10z m29 -110
c14 -5 26 -16 26 -25 0 -8 5 -15 10 -15 14 0 12 -66 -2 -93 -26 -44 -61 -67
-105 -67 -24 0 -43 5 -43 10 0 6 -7 10 -16 10 -9 0 -18 9 -21 20 -3 11 -9 20
-14 20 -5 0 -9 14 -9 30 0 17 5 30 10 30 6 0 10 7 10 16 0 9 14 29 31 45 33
31 75 38 123 19z m666 -80 l0 -40 -40 0 -40 0 0 33 c0 19 3 37 7 40 3 4 21 7
40 7 l33 0 0 -40z m400 -50 c0 -5 -4 -10 -10 -10 -5 0 -10 5 -10 10 0 6 5 10
10 10 6 0 10 -4 10 -10z m100 -20 c0 -5 -13 -10 -30 -10 -16 0 -30 5 -30 10 0
6 14 10 30 10 17 0 30 -4 30 -10z m-1400 -40 c0 -5 -4 -10 -10 -10 -5 0 -10 5
-10 10 0 6 5 10 10 10 6 0 10 -4 10 -10z m706 -24 c8 -8 14 -24 14 -36 0 -31
-24 -50 -62 -50 -46 0 -63 27 -42 69 12 24 22 31 45 31 17 0 37 -6 45 -14z
m434 -10 c0 -3 -4 -8 -10 -11 -5 -3 -10 -1 -10 4 0 6 5 11 10 11 6 0 10 -2 10
-4z m180 -46 c0 -5 -9 -10 -19 -10 -11 0 -23 5 -26 10 -4 6 5 10 19 10 14 0
26 -4 26 -10z m-1480 -100 c0 -5 -9 -10 -20 -10 -11 0 -20 5 -20 10 0 6 9 10
20 10 11 0 20 -4 20 -10z m766 -110 c18 0 18 -47 0 -66 -30 -29 -86 -11 -86
27 0 22 40 51 58 44 8 -3 20 -5 28 -5z m234 -70 c0 -6 27 -10 60 -10 33 0 60
-4 60 -10 0 -5 -15 -10 -34 -10 l-34 0 -60 -60 c-33 -33 -68 -60 -76 -60 -9 0
-16 -4 -16 -10 0 -5 -9 -10 -20 -10 -11 0 -20 -4 -20 -10 0 -6 -33 -10 -80
-10 -47 0 -80 4 -80 10 0 6 -9 10 -20 10 -11 0 -20 5 -20 10 0 6 -6 10 -12 10
-20 0 -68 45 -68 64 0 9 -4 16 -10 16 -5 0 -10 14 -10 30 0 17 5 30 10 30 6 0
10 -8 10 -18 0 -11 9 -27 20 -37 11 -10 20 -22 20 -27 0 -30 87 -58 178 -57
45 0 70 7 117 33 l60 32 3 47 c2 26 7 47 13 47 5 0 9 -4 9 -10z"/>
<path d="M950 1697 c-17 -9 -26 -22 -28 -45 l-3 -32 38 0 c46 0 63 14 63 51 0
38 -27 48 -70 26z"/>
<path d="M451 1276 c-9 -16 -11 -51 -7 -122 11 -170 14 -185 53 -221 20 -18
46 -33 59 -33 12 0 26 -4 29 -10 3 -5 24 -10 46 -10 45 0 62 -12 72 -52 9 -34
-16 -60 -76 -78 -107 -32 -147 -66 -147 -125 0 -13 -5 -27 -10 -30 -13 -8 -13
-55 0 -55 6 0 10 -20 10 -45 l0 -45 33 -34 c43 -45 67 -56 122 -56 49 0 125
40 125 66 0 8 5 14 10 14 6 0 10 11 10 24 0 14 -4 28 -10 31 -5 3 -10 13 -10
21 0 30 -27 44 -83 44 -35 0 -57 -5 -60 -12 -2 -8 -8 -9 -13 -4 -5 5 -4 11 4
13 6 3 12 12 12 21 0 10 14 23 33 30 17 7 40 18 49 23 10 5 24 9 31 9 27 0 99
42 104 61 l5 19 48 0 47 0 11 26 c9 19 9 30 0 47 -7 12 -11 46 -9 75 l2 52
-53 0 -53 0 -30 28 c-46 41 -71 52 -115 52 -43 0 -70 12 -107 47 l-23 22 0 94
0 93 -25 22 c-33 29 -68 28 -84 -2z m189 -786 c0 -5 -4 -10 -10 -10 -5 0 -10
5 -10 10 0 6 5 10 10 10 6 0 10 -4 10 -10z"/>
<path d="M2060 1120 c0 -11 -4 -20 -10 -20 -5 0 -10 -12 -10 -26 0 -26 20 -54
39 -54 6 0 11 -4 11 -10 0 -5 -16 -10 -35 -10 -25 0 -35 -4 -35 -15 0 -9 -9
-25 -20 -37 -35 -38 -25 -67 33 -97 15 -8 27 -18 27 -23 0 -4 9 -8 20 -8 11 0
20 -4 20 -10 0 -5 9 -10 20 -10 11 0 20 -4 20 -10 0 -5 9 -10 20 -10 11 0 20
-4 20 -10 0 -5 -9 -10 -20 -10 -11 0 -20 5 -20 10 0 6 -13 10 -28 10 -16 0
-34 8 -42 20 -8 11 -21 20 -30 20 -9 0 -22 9 -30 20 -24 33 -59 25 -106 -25
-24 -24 -48 -54 -54 -65 l-11 -21 22 -20 c12 -10 19 -22 15 -26 -4 -4 -10 -3
-14 2 -4 6 -19 16 -33 23 l-26 14 -22 -13 c-11 -8 -21 -17 -21 -21 0 -5 -7 -8
-16 -8 -8 0 -22 -6 -30 -14 -16 -17 -19 -46 -4 -46 6 0 10 -6 10 -14 0 -15
145 -166 160 -166 6 0 29 -18 51 -40 23 -22 50 -40 60 -40 10 0 21 -4 24 -10
3 -5 21 -10 40 -10 l34 0 85 83 c47 46 86 88 86 93 0 16 24 64 33 64 4 0 7 6
7 14 0 7 7 19 15 26 17 14 45 67 45 87 0 7 5 13 10 13 6 0 10 6 10 13 0 7 9
23 20 35 11 12 20 28 20 37 0 8 5 15 10 15 6 0 10 14 10 30 0 17 4 30 9 30 10
0 22 90 14 118 -3 12 -18 27 -34 34 -16 7 -29 16 -29 20 0 5 -9 8 -20 8 -11 0
-20 5 -20 10 0 6 -14 10 -30 10 -17 0 -40 5 -53 12 -49 25 -58 28 -87 28 -16
0 -30 5 -30 10 0 6 -22 10 -50 10 l-50 0 0 -20z m70 -130 c0 -5 -7 -10 -15
-10 -8 0 -15 5 -15 10 0 6 7 10 15 10 8 0 15 -4 15 -10z m54 -25 c11 -8 16
-18 11 -22 -4 -5 -10 -2 -12 5 -3 6 -13 12 -24 12 -10 0 -19 5 -19 10 0 14 22
12 44 -5z m56 -35 c0 -5 -4 -10 -10 -10 -5 0 -10 5 -10 10 0 6 5 10 10 10 6 0
10 -4 10 -10z m-263 -316 c14 -14 23 -28 20 -31 -6 -5 -57 41 -57 52 0 11 12
4 37 -21z"/>
</g>
</svg>
