<?xml version="1.0" standalone="no"?>
<!DOCTYPE svg PUBLIC "-//W3C//DTD SVG 20010904//EN"
 "http://www.w3.org/TR/2001/REC-SVG-20010904/DTD/svg10.dtd">
<svg version="1.0" xmlns="http://www.w3.org/2000/svg"
 width="179.703245pt" height="282.000000pt" viewBox="0 0 179.703245 282.000000"
 preserveAspectRatio="xMidYMid meet">
<metadata>
Created by Potrace Professional 1.0m
</metadata>
<g transform="translate(0.037781,282.000000) rotate(-360.00) scale(0.100000,-0.100000)"
fill="#000000" stroke="none">
<path d="M422 2720 l1 -100 15 0 c20 0 52 -39 59 -72 3 -16 9 -28 13 -28 4 0
8 -25 8 -55 0 -40 6 -60 21 -76 12 -13 21 -33 21 -46 0 -13 5 -23 10 -23 19 0
11 -66 -10 -85 -11 -10 -20 -31 -20 -47 0 -15 -4 -28 -10 -28 -5 0 -10 -9 -10
-19 0 -11 -3 -21 -7 -23 -14 -6 -53 -90 -53 -114 0 -13 -4 -24 -10 -24 -6 0
-10 -31 -10 -74 0 -57 5 -84 23 -118 27 -53 41 -68 61 -68 9 0 16 -4 16 -10 0
-5 14 -10 30 -10 23 0 30 -5 30 -19 0 -40 105 -83 125 -51 3 6 22 10 41 10 19
0 34 5 34 10 0 6 14 10 30 10 l30 0 0 -25 c0 -34 -17 -62 -68 -110 -23 -22
-49 -53 -57 -69 -17 -32 -20 -116 -5 -116 6 0 10 -9 10 -19 0 -14 -8 -21 -27
-23 l-28 -3 -3 -44 c-3 -34 -10 -51 -33 -72 l-29 -27 14 -34 c8 -19 22 -40 30
-48 22 -18 20 -37 -9 -65 -32 -33 -50 -31 -67 5 -7 17 -16 30 -20 30 -5 0 -8
6 -8 13 0 7 -9 23 -20 35 -11 12 -20 27 -20 34 0 15 -45 38 -73 38 -10 0 -25
6 -33 14 -16 17 -19 46 -3 46 6 0 9 14 7 32 -2 26 2 35 20 43 34 15 29 45 -8
45 -23 0 -30 4 -30 20 0 11 -4 20 -10 20 -5 0 -10 9 -10 20 l0 20 -48 0 c-58
0 -72 -12 -72 -61 l0 -37 -30 -12 c-16 -7 -30 -14 -30 -17 0 -11 30 -33 44
-33 11 0 16 -9 16 -27 0 -32 -34 -53 -85 -53 -33 0 -75 -37 -75 -65 0 -8 -4
-15 -10 -15 -5 0 -10 -10 -10 -23 0 -26 -21 -77 -32 -77 -5 0 -8 -9 -8 -19 0
-11 -4 -23 -10 -26 -5 -3 -10 -30 -10 -60 l0 -53 31 -11 c18 -6 40 -11 49 -11
10 0 23 -7 30 -15 l13 -16 -21 -40 c-12 -23 -22 -47 -22 -55 0 -8 -4 -14 -10
-14 -5 0 -10 -21 -10 -46 0 -54 17 -73 67 -74 l32 0 3 28 3 27 38 3 c20 2 37
7 37 13 0 5 8 9 18 9 10 0 24 9 32 20 8 11 22 20 32 20 10 0 18 5 18 10 0 6 9
10 20 10 11 0 20 -4 20 -8 0 -4 -9 -14 -20 -22 -11 -8 -20 -19 -20 -25 0 -6
-27 -39 -60 -74 -33 -35 -60 -68 -60 -73 0 -6 -54 -64 -120 -129 -108 -107
-139 -149 -110 -149 6 0 10 -6 10 -12 0 -20 45 -68 64 -68 9 0 16 -4 16 -10 0
-5 14 -10 30 -10 17 0 30 -4 30 -10 0 -5 20 -10 45 -10 46 0 72 -10 109 -43
28 -24 66 -23 66 3 0 21 24 28 35 10 3 -5 15 -10 26 -10 10 0 19 -4 19 -10 0
-14 57 -13 62 1 4 12 46 -6 59 -25 11 -15 150 -11 159 5 7 11 13 9 28 -9 14
-16 30 -22 61 -22 l41 0 41 40 41 40 44 0 c24 0 44 -4 44 -10 0 -5 18 -10 39
-10 22 0 43 5 46 10 3 6 17 10 31 10 13 0 24 5 24 10 0 6 9 10 20 10 11 0 20
5 20 10 0 6 7 10 16 10 22 0 53 32 36 38 -6 2 -12 8 -12 13 0 5 42 9 93 9 112
0 207 30 207 65 0 8 5 15 10 15 6 0 10 9 10 20 l0 20 44 0 c25 0 48 4 51 10 3
5 16 10 28 10 12 0 35 11 52 25 l29 26 -12 19 c-7 11 -12 28 -12 39 0 10 -7
24 -15 31 -8 7 -12 16 -9 22 6 9 -32 48 -48 48 -12 0 -88 76 -88 88 0 5 -29
39 -65 76 -36 37 -65 71 -65 76 0 10 -31 42 -139 140 -40 36 -105 97 -147 136
l-74 71 20 23 c33 38 23 80 -19 80 -37 0 -71 26 -71 56 0 13 -4 24 -10 24 -13
0 -13 57 0 65 5 3 10 17 10 31 0 13 5 24 10 24 6 0 10 10 10 23 0 13 5 28 11
34 11 11 10 50 -7 254 l-5 65 48 24 c59 30 73 43 73 67 0 11 4 23 10 29 6 6 6
22 0 44 -18 63 -25 60 165 60 l174 0 36 -20 c20 -11 46 -20 58 -20 12 0 31 -7
41 -15 11 -8 23 -15 28 -15 12 0 10 34 -3 47 -7 7 5 9 42 5 l52 -5 -7 18 c-4
11 0 22 10 30 19 13 11 35 -12 35 -8 0 -14 5 -14 10 0 6 -9 10 -20 10 -11 0
-20 5 -20 10 0 6 5 10 10 10 6 0 10 7 10 15 0 12 -7 14 -27 9 -16 -4 -30 -10
-33 -13 -3 -3 -15 -12 -27 -18 -26 -15 -193 -18 -193 -4 0 17 -180 28 -312 19
-38 -2 -68 -1 -68 3 0 4 -15 9 -32 11 -24 2 -36 10 -46 31 -7 15 -19 27 -26
27 -8 0 -16 13 -19 29 -3 16 -13 36 -22 44 -8 9 -15 23 -15 31 0 9 -4 16 -10
16 -5 0 -10 9 -10 19 0 20 -34 85 -56 109 -7 6 -20 12 -28 12 -9 0 -16 5 -16
10 0 6 -18 10 -40 10 -22 0 -40 -4 -40 -10 0 -5 -7 -10 -15 -10 -8 0 -24 -5
-34 -12 l-19 -12 -16 17 c-9 8 -16 30 -16 48 0 20 -8 38 -21 50 l-21 18 5 58
c3 32 8 70 12 86 l7 27 -21 0 c-14 0 -21 -6 -21 -20 0 -13 -7 -20 -20 -20 -13
0 -20 7 -20 19 0 11 -4 23 -10 26 -5 3 -10 14 -10 24 0 20 -39 51 -64 51 l-15
0 1 -100z m58 -1926 c0 -3 -7 -13 -16 -21 l-16 -16 -8 13 c-5 8 -6 18 -4 22 6
9 44 11 44 2z m1100 -424 c0 -5 -5 -10 -11 -10 -7 0 -9 -11 -5 -30 4 -22 2
-30 -9 -30 -8 0 -15 9 -15 20 0 11 -4 20 -10 20 -18 0 -11 15 13 26 29 15 37
16 37 4z m-325 -140 c-3 -5 -13 -10 -21 -10 -8 0 -14 5 -14 10 0 6 9 10 21 10
11 0 17 -4 14 -10z m-925 -20 c0 -5 -4 -10 -9 -10 -6 0 -13 5 -16 10 -3 6 1
10 9 10 9 0 16 -4 16 -10z m672 -40 l-4 -30 21 0 c11 0 21 -5 21 -11 0 -6 -14
-9 -32 -7 l-33 3 3 28 c3 19 -1 27 -12 27 -9 0 -16 5 -16 10 0 6 13 10 28 10
l29 0 -5 -30z m-822 0 c0 -5 -9 -10 -20 -10 -11 0 -20 5 -20 10 0 6 9 10 20
10 11 0 20 -4 20 -10z m143 -24 c18 -14 23 -36 9 -36 -5 0 -22 11 -38 25 l-29
25 20 0 c11 0 28 -7 38 -14z m497 4 c0 -5 -9 -10 -20 -10 -11 0 -20 5 -20 10
0 6 9 10 20 10 11 0 20 -4 20 -10z m-280 -30 c0 -11 -4 -20 -10 -20 -5 0 -10
9 -10 20 0 11 5 20 10 20 6 0 10 -9 10 -20z m231 -17 l14 -17 -18 7 c-10 4
-25 7 -33 7 -8 0 -14 5 -14 10 0 16 36 11 51 -7z m-66 -13 c-3 -5 -17 -10 -31
-10 -13 0 -24 5 -24 10 0 6 14 10 31 10 17 0 28 -4 24 -10z m145 -20 c0 -5 -7
-10 -15 -10 -8 0 -15 -4 -15 -10 0 -17 -14 -11 -28 10 l-12 20 35 0 c19 0 35
-4 35 -10z"/>
</g>
</svg>
