<?xml version="1.0" standalone="no"?>
<!DOCTYPE svg PUBLIC "-//W3C//DTD SVG 20010904//EN"
 "http://www.w3.org/TR/2001/REC-SVG-20010904/DTD/svg10.dtd">
<svg version="1.0" xmlns="http://www.w3.org/2000/svg"
 width="118.078734pt" height="378.000000pt" viewBox="0 0 118.078734 378.000000"
 preserveAspectRatio="xMidYMid meet">
<metadata>
Created by Potrace Professional 1.0m
</metadata>
<g transform="translate(-0.000000,378.000000) rotate(-360.00) scale(0.100000,-0.100000)"
fill="#000000" stroke="none">
<path d="M980 3720 c0 -33 -4 -60 -9 -60 -6 0 -9 -18 -8 -41 2 -46 -11 -59
-62 -59 -24 0 -40 -8 -57 -27 -24 -28 -33 -73 -14 -73 6 0 10 -9 10 -20 0 -13
7 -20 20 -20 13 0 20 7 20 20 0 15 7 20 28 20 l29 0 13 -54 c14 -59 9 -86 -15
-86 -8 0 -15 -4 -15 -9 0 -5 -9 -11 -20 -14 -31 -8 -24 -33 13 -47 70 -26 60
35 87 -495 5 -110 13 -221 16 -247 l6 -48 -21 0 c-12 0 -21 3 -21 8 0 7 -48
32 -62 32 -5 0 -24 16 -43 35 l-35 34 -1 91 c-1 50 -6 93 -10 96 -5 3 -9 18
-9 35 0 16 -4 29 -10 29 -5 0 -10 9 -10 20 0 11 -4 20 -10 20 -5 0 -10 6 -10
13 0 8 -9 22 -20 32 -11 10 -20 26 -20 37 0 10 -7 18 -15 18 -8 0 -19 9 -25
20 -6 11 -20 20 -31 20 -23 0 -89 -60 -89 -82 0 -7 -9 -20 -20 -28 -11 -8 -20
-22 -20 -32 0 -10 -4 -18 -10 -18 -5 0 -10 -9 -10 -19 0 -11 -5 -23 -10 -26
-6 -3 -10 -16 -10 -29 0 -12 -3 -26 -7 -30 -4 -4 -9 -44 -10 -89 -4 -96 -17
-122 -67 -130 -46 -7 -105 -36 -134 -64 -16 -16 -22 -34 -22 -67 0 -25 -4 -47
-9 -50 -5 -3 -14 -42 -21 -86 -7 -44 -16 -83 -21 -86 -5 -3 -9 -19 -9 -36 0
-33 -20 -99 -32 -108 -4 -3 -12 -54 -17 -114 -6 -60 -15 -114 -20 -120 -5 -6
-12 -56 -14 -111 -6 -140 -13 -177 -34 -192 -69 -50 -83 -66 -83 -94 0 -16 5
-29 10 -29 6 0 10 -11 10 -25 0 -26 39 -75 60 -75 19 0 100 89 100 111 0 20
36 80 52 87 4 2 8 17 8 33 0 16 5 29 10 29 6 0 10 11 10 25 0 14 5 25 11 25 7
0 9 -9 6 -22 -3 -13 -9 -45 -13 -73 -3 -27 -10 -54 -14 -60 -9 -11 -18 -115
-26 -295 -3 -68 -10 -130 -16 -138 -8 -9 -8 -16 0 -24 16 -16 15 -55 0 -62
-10 -5 -10 -7 -1 -12 9 -4 7 -14 -6 -37 -10 -18 -24 -53 -31 -79 -8 -27 -18
-48 -22 -48 -4 0 -8 -9 -8 -19 0 -11 -5 -21 -12 -23 -8 -3 -11 -67 -10 -241 0
-130 -2 -237 -6 -237 -11 0 -32 -51 -32 -77 0 -13 -4 -23 -9 -23 -14 0 -33
-57 -26 -79 l6 -21 106 0 105 0 -7 18 c-14 31 -17 79 -6 86 6 4 11 37 11 76 0
38 4 72 10 75 5 3 10 17 10 30 0 13 4 27 10 30 6 3 10 26 10 50 0 24 5 47 10
50 6 3 10 15 10 26 0 10 4 28 10 39 6 11 14 29 19 39 10 19 8 84 -4 121 -4 11
-2 20 4 20 6 0 11 15 11 33 0 19 8 42 20 55 11 12 20 30 20 41 0 11 9 36 19
55 15 25 17 36 8 40 -9 5 -9 7 1 12 6 3 12 23 12 45 0 22 4 47 9 57 5 9 16 32
23 50 7 17 16 32 20 32 5 0 8 9 8 20 0 11 5 20 10 20 6 0 10 7 10 16 0 31 27
45 81 42 l52 -3 16 -45 c9 -25 19 -46 24 -48 4 -2 7 -12 7 -23 0 -10 5 -19 10
-19 6 0 10 -28 10 -64 0 -36 5 -68 10 -71 6 -3 10 -24 10 -45 0 -21 5 -42 10
-45 6 -3 10 -22 10 -41 0 -19 5 -34 10 -34 6 0 10 -43 10 -109 0 -63 4 -112
10 -116 6 -3 10 -19 10 -35 0 -16 5 -32 10 -35 6 -3 10 -30 10 -60 0 -30 5
-57 10 -60 13 -8 13 -62 0 -70 -13 -8 -13 -115 0 -115 6 0 10 -20 10 -45 0
-35 6 -52 25 -70 l24 -25 53 0 53 0 23 35 c27 43 28 69 2 97 -13 14 -20 36
-20 61 0 30 -4 40 -19 44 -26 7 -48 60 -32 76 6 6 11 28 11 49 0 21 5 38 10
38 6 0 10 13 10 29 0 17 4 33 10 36 23 14 4 245 -23 271 -4 4 -7 24 -7 45 0
21 -4 41 -10 44 -13 8 -13 275 0 275 6 0 8 33 5 90 -3 71 -1 92 11 104 15 15
15 69 1 106 -5 14 -13 62 -20 115 -1 12 3 19 11 17 7 -1 22 3 33 9 l20 10 -7
32 c-4 18 -14 39 -23 47 -9 8 -21 24 -27 35 -31 57 -40 71 -48 77 -5 3 -9 41
-8 83 2 59 7 84 23 106 l20 28 37 -20 c65 -37 62 -28 62 -210 0 -117 3 -169
11 -169 6 0 9 -10 6 -22 -3 -13 -1 -102 4 -198 6 -96 14 -321 19 -500 15 -564
21 -694 32 -717 6 -12 8 -33 4 -47 -3 -14 -4 -37 0 -51 5 -20 13 -25 35 -25
l30 0 -5 208 c-3 114 -8 324 -11 467 -3 143 -9 298 -14 345 -5 47 -10 159 -11
250 -2 91 -5 192 -7 225 -10 133 -14 438 -6 444 13 10 33 49 33 66 0 8 5 15
10 15 6 0 10 13 10 29 0 17 -4 33 -10 36 -5 3 -10 26 -10 51 0 24 -4 44 -9 44
-5 0 -14 14 -21 31 -10 24 -11 36 -2 50 7 10 12 44 12 74 l0 56 -25 25 c-14
14 -26 26 -26 27 -2 2 -13 260 -27 587 -5 102 -5 195 0 208 5 14 16 22 31 22
28 0 47 17 47 42 0 14 -8 18 -40 18 l-40 0 0 32 c0 36 19 97 37 116 6 6 23 12
37 12 l26 0 0 31 0 32 -50 -5 -50 -5 0 43 c0 23 -4 45 -9 48 -5 3 -11 23 -15
43 -15 105 -18 113 -37 113 l-19 0 0 -60z m-620 -1900 c0 -11 -4 -20 -10 -20
-5 0 -10 9 -10 20 0 11 5 20 10 20 6 0 10 -9 10 -20z"/>
</g>
</svg>
