<?xml version="1.0" standalone="no"?>
<!DOCTYPE svg PUBLIC "-//W3C//DTD SVG 20010904//EN"
 "http://www.w3.org/TR/2001/REC-SVG-20010904/DTD/svg10.dtd">
<svg version="1.0" xmlns="http://www.w3.org/2000/svg"
 width="204.048153pt" height="191.998779pt" viewBox="0 0 204.048153 191.998779"
 preserveAspectRatio="xMidYMid meet">
<metadata>
Created by Potrace Professional 1.0m
</metadata>
<g transform="translate(0.048153,193.998779) rotate(-360.00) scale(0.100000,-0.100000)"
fill="#000000" stroke="none">
<path d="M869 1917 c-62 -54 -64 -114 -8 -230 22 -45 22 -47 9 -47 -5 0 -10 7
-10 15 0 8 -4 15 -10 15 -5 0 -10 4 -10 8 0 5 -18 28 -40 51 -22 23 -40 51
-40 62 0 22 -16 57 -36 76 -15 15 -84 18 -84 3 0 -5 -7 -10 -16 -10 -20 0 -44
-24 -44 -44 0 -9 -4 -16 -10 -16 -5 0 -10 -20 -10 -44 0 -25 5 -48 10 -51 6
-3 10 -15 10 -26 0 -10 5 -19 10 -19 6 0 10 -6 10 -12 1 -17 46 -68 60 -68 12
0 40 -24 40 -34 0 -3 -9 -6 -20 -6 -11 0 -20 5 -20 10 0 6 -13 10 -29 10 -17
0 -33 5 -36 10 -3 6 -31 10 -62 10 -71 0 -119 17 -154 53 l-28 28 -20 -10
c-11 -6 -23 -20 -26 -31 -3 -11 -11 -20 -16 -20 -5 0 -9 -25 -9 -55 l0 -56 45
-44 c24 -25 52 -45 61 -45 18 0 14 -21 -7 -30 -8 -4 -24 -12 -36 -18 -13 -7
-36 -12 -52 -12 -17 0 -33 -4 -36 -10 -3 -5 -19 -10 -35 -10 -16 0 -32 5 -35
10 -9 15 -74 12 -91 -4 -8 -8 -14 -21 -14 -29 0 -9 -4 -17 -10 -19 -20 -6 32
-118 55 -118 7 0 15 -5 17 -11 2 -6 34 -13 71 -16 47 -4 67 -10 67 -19 0 -8
-7 -14 -15 -14 -8 0 -24 -5 -35 -10 -11 -5 -29 -14 -40 -20 -11 -5 -48 -10
-83 -10 l-64 0 -21 -23 c-22 -24 -31 -87 -12 -87 6 0 10 -9 10 -20 0 -12 11
-32 25 -45 l24 -25 66 0 c37 0 65 4 65 10 0 6 11 10 24 10 14 0 28 5 31 10 3
6 15 10 26 10 10 0 19 5 19 10 0 6 9 10 20 10 11 0 20 5 20 10 0 6 7 10 15 10
8 0 15 -4 15 -10 0 -5 -5 -10 -11 -10 -12 0 -59 -50 -59 -63 0 -12 -133 -137
-147 -137 -7 0 -13 -4 -13 -10 0 -5 -7 -10 -15 -10 -22 0 -65 -41 -65 -62 0
-10 5 -18 10 -18 6 0 10 -7 10 -16 0 -9 12 -27 28 -40 36 -32 104 -32 163 -1
46 23 129 99 129 117 0 14 70 84 77 77 3 -3 -4 -16 -16 -28 -12 -13 -21 -29
-21 -36 0 -7 -4 -13 -10 -13 -5 0 -10 -7 -10 -15 0 -8 -4 -23 -9 -33 -5 -9
-15 -38 -23 -64 -7 -27 -16 -48 -20 -48 -4 0 -8 -9 -8 -20 0 -11 -3 -20 -8
-20 -4 0 -13 -14 -20 -30 -8 -17 -19 -30 -26 -30 -7 0 -22 -9 -34 -20 -28 -26
-21 -65 17 -97 21 -18 38 -23 84 -23 32 0 68 5 79 11 40 22 88 78 88 104 0 29
8 32 26 8 8 -11 13 -46 13 -93 1 -59 -4 -80 -19 -100 -11 -14 -20 -38 -20 -55
0 -38 33 -55 105 -55 l52 0 31 35 c18 19 32 41 32 50 0 8 5 15 10 15 6 0 10
26 10 59 0 33 -4 63 -10 66 -13 8 -13 95 0 95 6 0 10 -9 10 -19 0 -11 5 -23
10 -26 6 -3 10 -17 10 -30 0 -13 5 -27 10 -30 6 -3 10 -17 10 -31 0 -13 3 -24
8 -24 11 0 32 -75 32 -115 0 -20 -5 -45 -10 -55 -7 -13 -7 -21 0 -25 5 -3 10
-15 10 -26 l0 -19 60 0 c33 0 60 3 60 8 0 4 10 12 23 17 12 6 26 20 32 33 5
12 13 22 17 22 12 0 10 138 -2 145 -10 6 -14 55 -4 55 3 0 23 -18 44 -40 21
-22 44 -40 51 -40 15 0 59 -50 59 -67 0 -7 5 -13 10 -13 6 0 10 -7 10 -15 0
-26 47 -65 77 -65 29 0 69 30 91 67 14 27 16 73 2 73 -5 0 -10 12 -10 27 0 21
-21 47 -91 116 -50 48 -88 91 -85 94 3 3 19 -8 36 -25 17 -18 37 -32 45 -32 8
0 15 -4 15 -10 0 -5 6 -10 13 -10 6 0 23 -9 37 -20 14 -11 35 -20 48 -20 12 0
22 -4 22 -10 0 -5 14 -10 30 -10 17 0 30 -4 30 -10 0 -5 11 -10 24 -10 16 0
35 -13 55 -39 32 -40 68 -56 101 -46 22 7 60 84 60 124 0 32 -75 121 -103 121
-9 0 -19 5 -22 10 -3 6 -17 10 -31 10 -13 0 -24 5 -24 10 0 6 18 10 39 10 22
0 42 4 45 9 8 13 193 14 201 1 9 -14 64 -13 78 3 14 14 37 77 37 100 0 38 -59
107 -92 107 -9 0 -20 5 -24 11 -4 8 -28 9 -70 5 -49 -5 -64 -3 -64 6 0 22 97
58 161 60 l59 2 18 -22 c25 -29 57 -28 87 3 l25 24 0 61 0 61 -23 22 c-13 12
-33 28 -45 35 -26 15 -175 16 -203 2 -35 -19 -21 8 28 56 56 53 100 74 155 74
53 0 72 21 72 80 0 38 -5 52 -27 74 -14 14 -33 26 -42 26 -8 0 -15 5 -15 10 0
20 -110 11 -151 -12 -21 -12 -42 -18 -46 -13 -5 4 -2 10 5 12 6 3 12 10 12 18
0 14 75 95 88 95 20 0 52 39 52 62 0 22 -14 42 -55 76 -21 18 -137 21 -143 4
-2 -6 -14 -12 -27 -12 -13 0 -36 -13 -52 -30 -15 -16 -31 -30 -35 -30 -12 0
-10 58 2 65 6 3 10 19 10 35 0 16 5 32 10 35 6 3 10 14 10 23 0 9 14 25 30 34
39 22 38 45 -4 91 l-34 37 -61 0 -62 0 -44 -44 c-31 -30 -45 -52 -45 -70 0
-14 -4 -26 -10 -26 -5 0 -10 -20 -10 -44 0 -25 -4 -48 -10 -51 -6 -4 -10 7
-10 24 0 17 -5 31 -11 31 -6 0 -8 8 -4 19 4 13 0 21 -12 24 l-18 5 20 7 20 6
1 77 c1 48 5 77 12 80 19 6 14 31 -13 57 -35 35 -117 33 -155 -5 -3 -3 -14
-10 -25 -16 -11 -6 -24 -25 -30 -42 -5 -18 -13 -32 -17 -32 -4 0 -8 -22 -8
-50 0 -57 -12 -64 -32 -20 -7 17 -16 30 -19 30 -4 0 -12 14 -19 30 -7 17 -16
30 -21 30 -5 0 -9 26 -9 58 0 32 -5 63 -12 70 -7 7 -35 12 -62 12 -38 0 -57
-6 -77 -23z m71 -127 c0 -16 -4 -30 -10 -30 -5 0 -10 14 -10 30 0 17 5 30 10
30 6 0 10 -13 10 -30z m-260 -40 c0 -16 5 -30 10 -30 6 0 10 -8 10 -17 l0 -17
-18 20 c-26 28 -37 74 -17 74 10 0 15 -10 15 -30z m580 -130 c0 -87 -4 -140
-10 -140 -5 0 -10 -9 -10 -20 0 -11 -4 -20 -10 -20 -5 0 -10 -9 -10 -20 0 -11
-4 -20 -10 -20 -5 0 -10 9 -10 20 0 11 5 20 10 20 6 0 10 18 10 40 0 22 5 40
10 40 6 0 10 47 10 120 0 73 4 120 10 120 6 0 10 -53 10 -140z m-300 104 c0
-8 -4 -12 -10 -9 -5 3 -10 10 -10 16 0 5 5 9 10 9 6 0 10 -7 10 -16z m20 -37
c0 -7 9 -23 20 -35 20 -21 27 -52 12 -52 -9 0 -52 76 -52 91 0 5 5 9 10 9 6 0
10 -6 10 -13z m-260 -17 c0 -5 6 -10 14 -10 14 0 31 -29 22 -37 -5 -5 -56 42
-56 52 0 3 5 5 10 5 6 0 10 -4 10 -10z m420 -21 c0 -5 -4 -9 -10 -9 -5 0 -10
7 -10 16 0 8 5 12 10 9 6 -3 10 -10 10 -16z m380 1 c0 -6 -4 -18 -9 -28 -5 -9
-13 -26 -17 -37 l-8 -20 -4 24 c-2 13 2 35 9 47 13 25 29 32 29 14z m-720 -60
c0 -5 -4 -10 -10 -10 -5 0 -10 5 -10 10 0 6 5 10 10 10 6 0 10 -4 10 -10z
m360 -20 c0 -5 -4 -10 -10 -10 -5 0 -10 5 -10 10 0 6 5 10 10 10 6 0 10 -4 10
-10z m-740 -60 c0 -5 23 -10 50 -10 28 0 50 -4 50 -10 0 -5 13 -10 29 -10 17
0 33 -4 36 -10 3 -5 19 -10 35 -10 16 0 32 -4 35 -10 3 -5 15 -10 25 -10 10 0
20 -3 22 -7 2 -5 20 -21 41 -36 20 -15 37 -35 37 -43 0 -20 -13 -18 -30 6 -8
11 -20 20 -27 20 -7 0 -17 9 -23 20 -6 11 -17 20 -25 20 -8 0 -15 5 -15 10 0
6 -13 10 -29 10 -17 0 -33 5 -36 10 -3 6 -33 10 -65 10 -32 0 -62 5 -65 10 -3
6 -14 10 -23 10 -9 0 -28 9 -42 20 l-25 20 23 0 c12 0 22 -4 22 -10z m1051
-53 c-6 -6 -11 -17 -11 -25 0 -19 -39 -72 -53 -72 -8 0 -8 3 1 12 7 7 12 20
12 30 0 10 5 18 10 18 6 0 10 9 10 20 0 11 5 20 10 20 6 0 10 11 10 23 0 35
14 44 18 12 2 -15 -1 -32 -7 -38z m-571 3 c0 -11 -4 -20 -10 -20 -5 0 -10 9
-10 20 0 11 5 20 10 20 6 0 10 -9 10 -20z m240 -10 c0 -5 -4 -10 -10 -10 -5 0
-10 5 -10 10 0 6 5 10 10 10 6 0 10 -4 10 -10z m635 0 c-3 -5 -15 -10 -26 -10
-11 0 -23 -8 -26 -17 -4 -9 -19 -30 -35 -47 -21 -21 -28 -25 -28 -12 0 9 5 16
10 16 6 0 10 7 10 16 0 23 50 64 78 64 13 0 20 -4 17 -10z m-435 -20 c0 -5 -4
-10 -10 -10 -5 0 -10 5 -10 10 0 6 5 10 10 10 6 0 10 -4 10 -10z m-420 -36 c0
-8 -4 -14 -10 -14 -5 0 -10 9 -10 21 0 11 5 17 10 14 6 -3 10 -13 10 -21z
m180 -44 c0 -5 -4 -10 -10 -10 -5 0 -10 5 -10 10 0 6 5 10 10 10 6 0 10 -4 10
-10z m300 -16 c0 -3 -7 -12 -15 -21 -20 -19 -32 -10 -14 11 14 15 29 21 29 10z
m260 -4 c0 -5 -4 -10 -10 -10 -5 0 -10 -9 -10 -20 0 -11 -4 -20 -10 -20 -5 0
-10 -7 -10 -15 0 -20 -65 -85 -85 -85 -8 0 -15 -3 -15 -7 0 -10 -52 -34 -58
-28 -8 7 19 35 34 35 17 0 124 103 124 119 0 13 21 40 33 41 4 0 7 -4 7 -10z
m-1041 -52 c41 -22 53 -38 28 -38 -7 0 -24 10 -37 22 l-23 22 -75 -2 c-41 -1
-79 -5 -86 -10 -14 -12 -67 -23 -136 -27 l-55 -4 35 10 c19 6 44 14 55 19 62
23 88 28 167 29 l86 1 41 -22z m524 -13 c20 -4 37 -11 37 -16 0 -5 7 -9 15 -9
8 0 25 -6 37 -12 35 -21 108 -96 108 -113 0 -8 5 -15 10 -15 6 0 10 -9 10 -19
0 -11 5 -23 10 -26 6 -3 10 -44 10 -91 0 -49 -4 -84 -10 -84 -5 0 -10 -10 -10
-22 0 -13 -9 -34 -20 -48 -11 -14 -20 -29 -20 -34 0 -13 -72 -76 -87 -76 -7 0
-13 -4 -13 -8 0 -14 -81 -52 -110 -52 -16 0 -31 -4 -34 -9 -7 -10 -112 -8
-141 3 -11 4 -28 12 -37 17 -10 5 -24 9 -31 9 -21 0 -147 126 -147 147 0 10
-5 24 -11 30 -18 18 -14 200 6 246 19 45 125 157 148 157 10 0 17 5 17 10 0 6
9 10 20 10 11 0 20 4 20 9 0 11 162 8 223 -4z m757 -75 c0 -5 -7 -10 -16 -10
-8 0 -12 5 -9 10 3 6 10 10 16 10 5 0 9 -4 9 -10z m-60 -20 c0 -5 -6 -10 -14
-10 -8 0 -36 -21 -63 -48 -26 -26 -64 -58 -83 -72 -19 -13 -37 -27 -40 -31
-20 -26 -130 -42 -130 -19 0 6 11 10 25 10 14 0 25 5 25 10 0 6 11 10 25 10
35 0 59 16 129 83 33 31 66 57 73 57 7 0 13 5 13 10 0 6 9 10 20 10 11 0 20
-4 20 -10z m-1300 -80 c0 -5 -13 -10 -30 -10 -16 0 -30 5 -30 10 0 6 14 10 30
10 17 0 30 -4 30 -10z m-100 -20 c0 -5 -9 -10 -20 -10 -11 0 -20 5 -20 10 0 6
9 10 20 10 11 0 20 -4 20 -10z m-60 -20 c0 -5 -9 -10 -19 -10 -11 0 -23 -4
-26 -10 -3 -5 -13 -10 -21 -10 -8 0 -14 5 -14 10 0 6 9 10 19 10 11 0 23 5 26
10 3 6 13 10 21 10 8 0 14 -4 14 -10z m-100 -40 c0 -5 -4 -10 -10 -10 -5 0
-10 5 -10 10 0 6 5 10 10 10 6 0 10 -4 10 -10z m120 -60 c0 -5 -4 -10 -10 -10
-5 0 -10 5 -10 10 0 6 5 10 10 10 6 0 10 -4 10 -10z m1546 -50 c15 0 20 -35 5
-44 -4 -3 -17 1 -27 9 -11 8 -42 15 -71 15 -29 0 -53 4 -53 9 0 10 92 20 118
14 8 -2 20 -3 28 -3z m-1446 -10 c0 -5 -4 -10 -10 -10 -5 0 -10 5 -10 10 0 6
5 10 10 10 6 0 10 -4 10 -10z m-40 -20 c0 -5 -4 -10 -10 -10 -5 0 -10 5 -10
10 0 6 5 10 10 10 6 0 10 -4 10 -10z m1320 3 c0 -10 -52 -34 -59 -28 -6 7 31
34 47 35 6 0 12 -3 12 -7z m-1371 -44 c-16 -32 -99 -112 -107 -104 -3 3 -2 9
4 13 5 4 21 23 34 42 35 50 47 61 78 69 1 1 -2 -9 -9 -20z m151 -19 c0 -5 -4
-10 -10 -10 -5 0 -10 5 -10 10 0 6 5 10 10 10 6 0 10 -4 10 -10z m1120 1 c0
-5 -10 -11 -22 -14 -13 -2 -31 -8 -40 -12 -26 -11 -22 8 5 21 28 14 57 17 57
5z m-160 -21 c0 -5 -9 -10 -20 -10 -11 0 -20 5 -20 10 0 6 9 10 20 10 11 0 20
-4 20 -10z m-1260 -116 c0 -3 -7 -12 -15 -21 -20 -19 -32 -10 -14 11 14 15 29
21 29 10z m1160 -45 c0 -5 13 -9 29 -9 17 0 33 -4 36 -10 3 -6 48 -10 101 -10
56 0 94 -4 94 -10 0 -6 -40 -10 -99 -10 -56 0 -103 4 -106 10 -3 6 -17 10 -31
10 -13 0 -24 5 -24 10 0 6 -9 10 -20 10 -11 0 -20 6 -20 14 0 9 7 12 20 9 11
-3 20 -9 20 -14z m-925 -36 c-4 -16 -9 -47 -12 -70 -3 -24 -9 -43 -14 -43 -5
0 -9 -9 -9 -20 0 -11 -4 -20 -10 -20 -5 0 -10 -7 -10 -15 0 -8 -4 -15 -10 -15
-5 0 -10 7 -10 15 0 8 5 15 10 15 6 0 10 14 10 30 0 17 5 30 10 30 6 0 10 14
10 30 0 17 5 30 10 30 6 0 10 14 10 30 0 17 5 30 11 30 7 0 9 -10 4 -27z
m1245 17 c0 -5 -5 -10 -11 -10 -5 0 -7 5 -4 10 3 6 8 10 11 10 2 0 4 -4 4 -10z
m50 0 c0 -5 -9 -10 -20 -10 -11 0 -20 5 -20 10 0 6 9 10 20 10 11 0 20 -4 20
-10z m-1070 -20 c0 -5 -4 -10 -10 -10 -5 0 -10 5 -10 10 0 6 5 10 10 10 6 0
10 -4 10 -10z m1120 0 c0 -5 -7 -10 -15 -10 -8 0 -15 5 -15 10 0 6 7 10 15 10
8 0 15 -4 15 -10z m-1140 -50 c0 -11 -4 -20 -10 -20 -5 0 -10 9 -10 20 0 11 5
20 10 20 6 0 10 -9 10 -20z m560 5 c0 -25 89 -105 116 -105 13 0 24 -4 24 -10
0 -5 14 -10 30 -10 17 0 30 -4 30 -10 0 -5 9 -10 20 -10 11 0 20 -4 20 -10 0
-5 9 -10 20 -10 11 0 20 -4 20 -10 0 -5 7 -10 16 -10 20 0 49 -29 39 -38 -4
-4 -10 -1 -12 6 -3 6 -13 12 -24 12 -10 0 -19 5 -19 10 0 6 -9 10 -20 10 -11
0 -20 5 -20 10 0 6 -13 10 -30 10 -16 0 -30 5 -30 10 0 6 -9 10 -20 10 -11 0
-20 5 -20 10 0 6 -11 10 -24 10 -27 0 -162 120 -150 133 13 13 34 7 34 -8z
m-340 -45 c0 -11 -5 -20 -11 -20 -7 0 -9 -18 -6 -52 9 -84 18 -128 28 -128 5
0 9 -9 9 -19 0 -11 4 -21 9 -23 18 -6 18 -148 1 -148 -6 0 -10 30 -10 69 0 39
-4 73 -10 76 -5 3 -10 15 -10 26 0 10 -4 19 -10 19 -5 0 -10 14 -10 30 0 17
-4 30 -10 30 -11 0 -14 142 -3 153 13 14 33 6 33 -13z m191 -50 c7 -27 16 -50
21 -50 4 0 8 -6 8 -14 0 -7 36 -51 80 -97 71 -74 94 -109 73 -109 -3 0 -32 27
-64 60 -31 33 -62 60 -67 60 -6 0 -19 14 -29 30 -9 17 -21 30 -25 30 -4 0 -8
9 -8 20 0 11 -4 20 -9 20 -11 0 -25 75 -16 90 13 21 23 9 36 -40z m73 34 c9
-24 7 -27 -9 -10 -17 17 -19 26 -6 26 5 0 12 -7 15 -16z m-513 -277 c-13 -13
-15 31 -3 60 5 14 8 10 10 -16 2 -18 -1 -38 -7 -44z"/>
<path d="M1000 1209 c0 -5 -13 -9 -30 -9 -16 0 -30 -4 -30 -10 0 -5 -7 -10
-16 -10 -8 0 -22 -6 -30 -14 -7 -8 -24 -23 -37 -33 -41 -32 -77 -120 -77 -186
0 -20 5 -39 10 -42 6 -3 10 -17 10 -30 0 -13 5 -27 10 -30 6 -3 10 -13 10 -22
0 -26 90 -103 121 -103 15 0 31 -4 34 -10 13 -21 165 0 165 22 0 5 9 8 20 8
11 0 20 3 20 8 0 4 13 13 29 20 17 7 36 26 43 43 7 16 16 29 19 29 8 0 18 51
26 128 3 34 1 52 -6 52 -6 0 -11 11 -11 25 0 28 -97 135 -123 135 -9 0 -19 5
-22 10 -3 6 -21 10 -39 10 -18 0 -36 3 -39 7 -11 10 -57 13 -57 2z m66 -141
c4 -5 16 -8 26 -8 23 0 48 -23 48 -44 0 -8 5 -18 10 -21 14 -8 13 -41 -2 -67
-22 -38 -52 -63 -92 -77 l-38 -13 -27 13 c-36 19 -51 35 -51 53 0 9 -4 16 -10
16 -5 0 -10 14 -10 30 0 17 5 30 10 30 6 0 10 11 10 24 0 41 99 91 126 64z"/>
</g>
</svg>
