<?xml version="1.0" encoding="UTF-8" ?>
<!DOCTYPE svg PUBLIC "-//W3C//DTD SVG 1.1//EN" "http://www.w3.org/Graphics/SVG/1.1/DTD/svg11.dtd">
<svg width="228pt" height="113pt" viewBox="0 0 228 113" version="1.1" xmlns="http://www.w3.org/2000/svg">
<g id="#ffffffff">
</g>
<g id="#bdbebfff">
<path fill="#bdbebf" opacity="1.00" d=" M 60.26 0.00 L 60.75 0.00 C 63.90 2.56 68.98 1.87 71.15 5.80 C 72.57 8.98 74.50 11.88 76.76 14.53 C 76.46 14.92 75.88 15.69 75.59 16.08 C 75.76 19.97 74.85 23.77 73.53 27.40 C 71.20 27.91 68.87 28.46 66.55 28.99 C 71.00 32.48 75.12 36.35 79.21 40.24 C 82.61 38.43 85.95 36.50 89.13 34.33 C 89.84 30.69 92.01 27.73 94.92 25.51 C 97.89 27.28 100.64 29.40 102.95 31.98 C 102.02 33.68 101.26 35.51 100.02 37.02 C 98.30 38.41 96.11 39.00 94.11 39.87 C 91.38 45.07 86.08 48.06 81.00 50.57 C 77.19 50.48 73.87 48.30 70.52 46.73 C 69.83 52.09 69.20 57.46 68.84 62.86 C 72.66 63.69 77.11 63.43 80.31 65.97 C 81.35 69.56 79.96 73.14 78.27 76.27 C 75.84 80.71 75.62 85.85 74.36 90.65 C 74.01 93.01 71.37 93.63 69.71 94.84 C 71.62 99.05 74.58 102.63 78.15 105.54 C 76.06 106.41 74.03 107.58 71.75 107.84 C 68.75 108.04 66.97 105.18 65.02 103.38 C 62.38 103.51 59.75 103.62 57.11 103.62 C 57.48 100.40 58.31 97.24 60.12 94.53 C 60.50 90.09 63.38 86.41 63.91 82.01 C 64.40 78.93 65.21 75.91 66.42 73.04 C 63.01 73.67 59.53 73.82 56.06 73.64 C 53.71 75.37 51.28 77.10 49.56 79.51 C 47.11 82.66 45.32 86.53 41.83 88.71 C 36.90 91.62 31.09 92.49 26.04 95.15 C 23.69 96.39 21.63 98.08 19.32 99.38 C 17.00 100.66 14.29 100.82 11.87 101.82 C 7.33 104.73 6.10 111.17 0.56 112.82 C 0.66 110.30 0.57 107.71 1.29 105.27 C 2.21 102.97 3.96 101.16 5.44 99.22 C 4.99 97.45 4.21 95.68 4.40 93.82 C 4.48 90.65 8.75 91.16 10.91 90.07 C 11.77 90.71 12.63 91.34 13.49 91.99 C 15.82 90.85 18.21 89.85 20.64 88.93 C 24.15 85.50 28.49 83.12 33.32 82.17 C 33.54 81.73 33.98 80.85 34.20 80.41 C 31.22 79.87 28.24 79.34 25.26 78.78 C 24.87 77.82 24.48 76.86 24.10 75.90 C 30.03 72.50 34.00 66.97 37.91 61.55 C 32.68 65.21 26.68 61.47 21.02 62.94 C 16.49 63.73 12.02 64.80 7.50 65.64 C 7.80 64.21 8.07 62.77 8.42 61.35 C 14.71 58.39 22.20 60.07 28.39 56.67 C 25.68 50.09 25.94 42.81 25.87 35.84 C 25.72 31.71 30.68 31.28 33.61 30.37 C 39.76 29.31 44.82 25.24 50.93 24.11 C 52.83 23.71 54.73 23.13 56.25 21.87 C 55.21 20.94 54.33 19.84 53.33 18.86 C 54.11 15.92 54.69 12.93 55.17 9.92 C 55.63 6.10 58.46 3.23 60.26 0.00 M 35.85 40.22 C 36.32 44.53 37.76 48.80 37.11 53.17 C 37.82 54.50 38.54 55.84 39.39 57.09 C 41.56 57.11 40.90 54.45 40.81 53.04 C 40.10 48.84 40.04 44.57 40.42 40.34 C 38.89 40.30 37.37 40.26 35.85 40.22 Z" />
</g>
<g id="#221f21ff">
<path fill="#221f21" opacity="1.00" d=" M 185.60 0.86 C 188.71 2.30 192.59 2.29 195.02 4.97 C 196.53 6.26 196.97 8.26 197.92 9.93 C 199.18 11.78 200.76 13.39 202.19 15.11 C 199.09 15.68 200.80 18.09 200.96 20.10 C 200.31 22.65 199.28 25.09 198.55 27.62 C 196.17 28.26 193.76 28.77 191.40 29.51 C 196.54 32.39 199.97 37.28 204.67 40.72 C 207.61 38.97 210.67 37.41 213.41 35.33 C 215.33 37.28 217.30 39.19 219.21 41.17 C 217.52 42.85 216.38 45.27 214.03 46.13 C 211.10 47.35 209.01 49.95 206.08 51.17 C 202.26 50.55 198.91 48.58 195.57 46.75 C 195.33 52.33 193.83 57.80 194.07 63.42 C 197.97 63.97 202.00 64.35 205.59 66.08 C 205.60 68.68 205.76 71.33 205.09 73.87 C 200.49 79.19 200.87 86.65 199.11 93.10 C 197.63 93.64 196.15 94.15 194.67 94.67 C 196.37 97.75 197.39 101.83 200.87 103.37 C 201.58 104.14 202.28 104.91 202.98 105.69 C 200.76 107.27 197.96 108.71 195.18 107.94 C 192.80 107.34 191.62 105.03 190.26 103.22 C 187.79 103.99 185.22 104.41 182.71 103.53 C 182.39 100.08 183.23 96.82 186.22 94.79 C 185.93 94.16 185.36 92.91 185.07 92.28 C 186.26 90.21 187.64 88.22 188.65 86.05 C 189.54 81.66 189.08 76.54 192.30 73.01 C 188.65 74.06 184.85 74.41 181.08 73.92 C 179.27 75.48 177.06 76.60 175.49 78.42 C 173.07 81.96 170.96 85.86 167.64 88.66 C 161.97 92.15 155.08 92.89 149.40 96.37 C 147.14 97.81 144.99 99.40 142.91 101.08 C 141.07 101.16 139.20 101.05 137.39 101.43 C 134.17 104.78 130.90 108.15 128.95 112.44 C 127.63 111.91 125.16 112.18 125.75 110.03 C 125.60 105.59 128.32 102.06 131.32 99.13 C 130.86 98.62 129.93 97.60 129.47 97.10 C 129.63 95.56 129.79 94.02 129.93 92.48 C 132.15 91.45 134.55 90.92 136.99 90.70 C 137.56 91.52 138.14 92.33 138.72 93.14 C 140.60 90.89 143.16 89.34 146.21 89.83 C 148.54 85.58 153.47 83.88 157.89 82.74 C 159.26 82.84 159.74 79.70 157.93 80.29 C 154.89 79.47 149.72 80.44 149.41 76.11 C 152.61 73.85 156.26 71.84 158.37 68.42 C 160.09 65.64 162.19 63.13 164.29 60.64 C 161.17 62.97 157.60 64.85 153.61 63.54 C 153.25 63.22 152.55 62.57 152.19 62.24 C 145.86 63.29 139.56 64.51 133.26 65.78 C 133.11 64.47 132.97 63.16 132.82 61.86 C 139.50 58.52 148.12 61.50 153.91 56.31 C 150.28 51.20 152.14 44.67 151.14 38.86 C 150.41 36.26 151.26 33.00 154.08 32.11 C 159.04 30.48 164.50 29.96 168.99 27.06 C 171.12 25.68 173.49 24.56 176.09 24.61 C 178.31 24.61 181.46 23.58 181.05 20.81 C 180.34 20.52 178.91 19.95 178.19 19.66 C 178.82 17.71 179.57 15.79 180.38 13.90 C 178.53 8.60 182.98 4.81 185.60 0.86 M 160.91 40.19 C 160.47 44.64 162.84 48.92 161.68 53.31 C 162.51 54.94 163.31 56.60 164.34 58.12 C 166.17 57.90 167.15 55.83 166.54 54.17 C 165.47 49.59 165.85 44.88 165.94 40.22 C 164.26 40.22 162.58 40.20 160.91 40.19 Z" />
<path fill="#221f21" opacity="1.00" d=" M 214.47 34.76 C 214.78 31.26 216.51 28.05 219.91 26.75 C 222.26 26.91 224.36 28.39 226.01 29.98 C 227.83 31.91 226.71 34.63 226.08 36.81 C 224.96 37.56 223.87 38.34 222.79 39.13 C 221.48 39.34 220.16 39.49 218.84 39.59 C 217.03 38.34 215.76 36.50 214.47 34.76 Z" />
</g>
</svg>
