<?xml version="1.0" encoding="UTF-8" ?>
<!DOCTYPE svg PUBLIC "-//W3C//DTD SVG 1.1//EN" "http://www.w3.org/Graphics/SVG/1.1/DTD/svg11.dtd">
<svg width="289pt" height="91pt" viewBox="0 0 289 91" version="1.1" xmlns="http://www.w3.org/2000/svg">
<g id="#ffffffff">
</g>
<g id="#dddddeff">
<path fill="#ddddde" opacity="1.00" d=" M 270.74 0.00 L 274.79 0.00 C 277.24 1.08 280.07 2.22 281.31 4.78 C 281.81 8.29 281.10 11.82 280.80 15.32 C 280.44 20.25 276.67 23.84 274.02 27.70 C 276.75 26.99 279.92 25.50 282.44 27.60 C 282.55 29.30 282.25 31.03 281.54 32.58 C 277.12 34.00 270.53 32.05 268.08 37.10 C 264.68 44.37 267.74 52.75 265.24 60.23 C 264.75 61.68 263.39 62.52 262.12 63.21 C 257.53 65.71 252.29 66.50 247.22 67.49 C 245.48 71.12 243.91 74.83 242.31 78.53 C 241.41 78.32 239.61 77.91 238.71 77.71 C 238.68 74.65 238.68 71.59 238.54 68.54 C 236.28 71.74 233.55 74.95 233.18 79.01 C 232.51 81.83 233.06 85.75 229.83 87.11 C 226.61 85.08 226.03 80.93 226.64 77.46 C 227.40 72.98 228.58 68.55 230.25 64.32 C 231.89 59.91 236.54 57.79 238.80 53.83 C 241.32 47.55 240.40 40.54 242.28 34.10 C 243.43 30.41 246.52 27.85 248.92 24.96 C 252.15 21.46 254.56 17.29 257.82 13.82 C 260.19 11.27 263.79 10.59 266.55 8.64 C 268.33 5.97 269.46 2.93 270.74 0.00 M 242.88 62.30 C 246.96 60.00 250.97 57.59 255.04 55.28 C 253.67 52.94 252.32 50.59 250.87 48.30 C 247.65 52.65 246.03 57.91 242.88 62.30 Z" />
<path fill="#ddddde" opacity="1.00" d=" M 278.27 75.29 C 282.10 74.43 286.45 76.38 287.74 80.22 C 288.83 83.88 287.11 89.18 282.84 89.76 C 280.11 90.03 276.70 90.66 274.66 88.33 C 270.87 84.54 272.20 75.83 278.27 75.29 Z" />
</g>
<g id="#221f21ff">
<path fill="#221f21" opacity="1.00" d=" M 44.29 1.18 C 46.70 0.86 49.25 0.63 51.62 1.31 C 54.68 2.75 56.78 6.85 55.03 10.01 C 53.80 12.39 54.18 15.05 55.23 17.41 C 52.71 21.26 49.07 24.39 47.69 28.92 C 49.10 28.05 50.49 27.14 51.83 26.17 C 53.60 26.39 55.19 27.14 56.67 28.10 C 56.16 29.65 55.66 31.21 55.16 32.77 C 50.82 33.80 45.03 31.87 42.18 36.31 C 38.00 44.08 42.30 53.56 38.47 61.46 C 36.87 63.14 34.36 63.52 32.41 64.72 C 29.04 66.70 24.87 65.93 21.32 67.42 C 19.29 70.29 18.26 73.68 16.94 76.90 C 16.55 78.75 14.42 78.32 13.21 77.64 C 11.73 74.50 12.54 70.99 13.09 67.74 C 10.46 70.74 8.06 74.09 6.74 77.89 C 6.43 80.71 6.52 83.57 6.08 86.38 C 3.95 86.64 1.68 86.19 1.14 83.80 C 0.52 76.05 1.92 67.78 6.14 61.17 C 7.49 58.50 11.05 58.03 12.21 55.21 C 15.07 49.19 14.56 42.36 15.82 35.96 C 15.99 33.35 17.29 30.93 19.20 29.17 C 24.89 23.83 28.44 16.61 34.50 11.63 C 36.36 9.98 38.95 10.02 41.12 9.07 C 42.22 6.46 41.95 3.17 44.29 1.18 M 21.23 54.04 C 20.78 57.46 17.76 59.50 16.19 62.37 C 20.88 61.26 23.97 57.02 28.70 55.98 C 28.07 53.08 26.55 50.55 24.88 48.15 C 23.53 50.01 21.78 51.74 21.23 54.04 Z" />
<path fill="#221f21" opacity="1.00" d=" M 51.36 75.50 C 56.74 73.56 63.69 78.76 61.67 84.57 C 60.37 90.89 50.32 92.62 47.38 86.64 C 45.60 82.88 46.65 76.58 51.36 75.50 Z" />
</g>
<g id="#8b8c8eff">
<path fill="#8b8c8e" opacity="1.00" d=" M 119.43 1.41 C 123.02 0.74 127.93 0.19 130.00 4.00 C 132.03 6.37 130.41 9.47 130.04 12.12 C 129.45 14.50 131.06 17.29 129.32 19.36 C 127.09 22.07 124.92 24.85 123.38 28.03 C 126.21 26.49 129.36 25.76 132.18 27.76 C 131.63 29.48 131.10 31.21 130.57 32.94 C 126.24 33.67 120.35 32.11 117.55 36.43 C 113.53 44.32 117.81 53.87 113.74 61.72 C 108.68 65.33 102.48 66.40 96.49 67.35 C 94.79 71.09 93.19 74.87 91.49 78.62 C 90.62 78.33 88.88 77.75 88.02 77.46 C 87.59 74.40 87.84 71.33 88.42 68.31 C 86.22 70.58 84.06 72.97 82.96 75.99 C 81.47 79.20 82.66 83.04 80.97 86.17 C 79.53 86.69 77.50 86.87 77.02 85.01 C 75.41 82.14 75.32 78.62 76.33 75.53 C 77.84 70.56 78.27 64.98 81.73 60.85 C 83.61 58.35 87.09 57.18 88.05 54.01 C 90.44 47.40 89.91 40.22 91.66 33.47 C 93.02 29.83 96.44 27.58 98.63 24.50 C 102.24 20.45 104.93 15.59 109.16 12.11 C 111.12 10.41 113.78 10.05 116.08 8.99 C 117.61 6.70 117.33 3.39 119.43 1.41 M 91.83 62.43 C 96.04 60.43 99.73 57.48 104.06 55.69 C 103.04 53.03 101.71 50.51 100.11 48.17 C 96.94 52.69 95.30 58.08 91.83 62.43 Z" />
<path fill="#8b8c8e" opacity="1.00" d=" M 126.43 75.56 C 129.93 74.34 134.30 75.55 136.29 78.79 C 138.45 81.84 137.22 86.22 134.66 88.64 C 132.17 90.40 128.87 90.11 126.00 89.76 C 120.22 87.42 120.42 77.41 126.43 75.56 Z" />
</g>
<g id="#bdbebfff">
<path fill="#bdbebf" opacity="1.00" d=" M 194.46 1.46 C 198.05 0.88 203.15 0.01 205.32 3.79 C 206.69 5.55 206.25 7.83 205.86 9.84 C 205.27 12.63 205.59 15.50 205.38 18.32 C 203.20 21.55 200.48 24.42 198.75 27.96 C 201.16 27.31 204.36 24.95 206.45 27.47 C 208.02 29.02 206.48 31.14 205.75 32.73 C 201.45 33.89 195.39 32.12 192.74 36.73 C 189.38 44.01 192.46 52.34 189.96 59.85 C 189.63 62.01 187.38 62.80 185.72 63.74 C 182.44 65.48 178.76 66.13 175.15 66.82 C 169.93 66.93 169.90 73.34 167.72 76.76 C 167.09 79.00 164.03 78.69 163.45 76.61 C 162.75 73.96 163.32 71.16 163.48 68.47 C 161.22 71.23 158.60 73.95 157.78 77.54 C 157.14 80.48 157.19 83.53 156.98 86.52 C 155.36 86.00 153.05 86.72 152.20 84.82 C 150.19 81.27 151.30 77.01 152.20 73.29 C 153.27 69.28 153.99 65.00 156.48 61.57 C 158.28 59.04 161.21 57.58 162.94 55.01 C 165.84 48.38 165.34 40.94 166.97 33.99 C 167.51 31.31 169.67 29.43 171.40 27.47 C 175.84 22.82 179.09 17.16 183.78 12.74 C 185.95 10.65 189.03 10.11 191.56 8.61 C 192.74 6.32 193.19 3.72 194.46 1.46 M 167.66 62.36 C 171.52 60.02 175.35 57.60 179.40 55.57 C 178.38 53.08 177.20 50.65 175.86 48.32 C 172.01 52.29 170.72 57.86 167.66 62.36 Z" />
<path fill="#bdbebf" opacity="1.00" d=" M 202.30 75.37 C 207.55 73.70 213.95 78.23 212.65 83.97 C 211.89 91.24 199.72 92.59 197.53 85.62 C 196.58 81.76 197.74 76.22 202.30 75.37 Z" />
</g>
</svg>
