<?xml version="1.0" standalone="no"?>
<!DOCTYPE svg PUBLIC "-//W3C//DTD SVG 20010904//EN"
 "http://www.w3.org/TR/2001/REC-SVG-20010904/DTD/svg10.dtd">
<svg version="1.0" xmlns="http://www.w3.org/2000/svg"
 width="290.099526pt" height="256.000000pt" viewBox="0 0 290.099526 256.000000"
 preserveAspectRatio="xMidYMid meet">
<metadata>
Created by Potrace Professional 1.0m
</metadata>
<g transform="translate(0.099526,258.000000) rotate(-360.00) scale(0.100000,-0.100000)"
fill="#000000" stroke="none">
<path d="M1055 2570 c-3 -5 -15 -10 -26 -10 -21 0 -26 -16 -6 -23 6 -3 0 -6
-15 -6 -14 -1 -40 -12 -56 -26 -17 -14 -39 -25 -51 -25 -16 0 -21 -6 -21 -25
0 -15 -7 -28 -17 -32 -28 -11 -43 -30 -43 -55 0 -13 -9 -30 -20 -38 -13 -9
-20 -26 -20 -46 0 -18 -8 -38 -20 -49 -11 -10 -20 -24 -20 -32 0 -19 25 -43
44 -43 9 0 16 -4 16 -10 0 -5 -4 -10 -10 -10 -5 0 -10 -9 -10 -20 0 -11 5 -20
10 -20 6 0 10 -9 10 -20 0 -22 35 -29 42 -8 5 15 30 -6 41 -34 4 -12 17 -18
36 -18 54 0 81 -16 81 -49 0 -16 -4 -33 -10 -36 -5 -3 -10 -31 -10 -61 0 -30
-4 -54 -10 -54 -6 0 -10 -33 -10 -80 0 -47 -4 -80 -10 -80 -5 0 -10 -13 -10
-28 0 -16 -8 -34 -20 -42 -16 -12 -20 -26 -20 -71 l0 -57 -30 -14 c-17 -7 -36
-25 -43 -40 -6 -16 -15 -28 -19 -28 -5 0 -8 -6 -8 -13 0 -7 -9 -32 -20 -55
-11 -22 -20 -50 -20 -61 0 -11 -5 -23 -10 -26 -6 -3 -10 -28 -10 -55 0 -26 -4
-50 -8 -52 -14 -6 -52 -66 -52 -82 0 -9 -4 -16 -10 -16 -5 0 -10 -9 -10 -20 0
-11 -4 -20 -10 -20 -5 0 -10 -9 -10 -20 0 -11 -4 -20 -10 -20 -5 0 -10 -11
-10 -25 0 -14 -10 -36 -22 -50 l-22 -25 -52 0 c-29 0 -56 -4 -59 -10 -3 -5
-15 -10 -26 -10 -10 0 -19 -4 -19 -10 0 -5 -6 -10 -13 -10 -7 0 -23 -9 -35
-20 -12 -11 -28 -20 -37 -20 -8 0 -36 -10 -61 -21 -34 -16 -48 -19 -57 -10
-14 14 -97 15 -97 1 0 -5 -6 -10 -13 -10 -24 0 -45 -33 -51 -80 -10 -84 -18
-120 -27 -120 -5 0 -9 -9 -9 -20 0 -11 -4 -20 -10 -20 -25 0 -4 -122 25 -142
23 -17 105 31 105 61 0 16 44 95 60 108 8 7 28 13 43 13 15 0 37 9 49 20 15
14 36 20 65 20 24 0 43 5 43 10 0 6 9 10 19 10 11 0 23 5 26 10 3 6 33 10 65
10 32 0 62 5 65 10 3 6 28 10 56 10 27 0 49 5 49 10 0 6 12 10 26 10 26 0 96
63 151 138 15 20 36 44 45 53 10 9 18 21 18 28 0 6 14 25 30 43 17 17 30 35
30 40 0 23 31 38 77 38 35 0 55 6 71 20 23 21 112 29 112 10 0 -5 7 -10 15
-10 9 0 25 -9 37 -20 12 -11 32 -20 45 -20 13 0 23 -4 23 -10 0 -5 9 -10 19
-10 11 0 23 -5 26 -10 3 -6 15 -10 26 -10 11 0 27 -6 35 -14 16 -17 19 -46 4
-46 -5 0 -10 -11 -10 -25 0 -14 -9 -35 -20 -47 l-20 -22 0 -117 c0 -68 4 -120
10 -124 6 -3 10 -40 10 -81 l0 -75 -20 -21 c-11 -12 -20 -28 -20 -35 0 -7 -4
-13 -9 -13 -17 0 -23 -77 -9 -106 18 -36 77 -56 120 -40 24 8 32 8 35 -1 3 -7
13 -13 24 -13 10 0 19 -4 19 -10 0 -5 14 -10 30 -10 17 0 30 -4 30 -10 0 -5
14 -10 30 -10 17 0 30 -3 30 -7 0 -5 21 -8 47 -9 50 -1 72 14 73 49 0 19 -85
107 -102 107 -13 0 -38 26 -38 40 0 6 -16 27 -36 47 l-36 36 6 45 c3 25 11 49
16 52 5 3 15 41 22 83 6 42 15 77 20 77 4 0 8 14 8 30 0 17 5 30 10 30 6 0 10
7 10 16 0 9 9 25 21 35 21 18 22 28 35 190 l5 65 -30 33 c-17 18 -31 38 -31
45 0 6 -9 18 -20 26 -11 8 -20 20 -20 26 0 6 -10 18 -22 27 -13 8 -42 33 -66
56 -23 22 -49 41 -57 41 -8 0 -15 5 -15 10 0 6 -7 10 -15 10 -9 0 -25 9 -37
20 -12 11 -28 20 -35 20 -7 0 -13 4 -13 9 0 5 -8 11 -19 14 -25 6 -34 49 -21
97 l11 40 27 1 c15 1 47 1 71 -1 24 -1 46 2 50 6 3 5 15 14 26 20 11 6 24 20
30 32 5 12 13 22 17 22 13 0 9 71 -4 83 -18 16 -79 37 -109 37 -14 0 -35 -9
-47 -20 -12 -11 -24 -20 -27 -20 -8 0 1 75 14 119 6 19 8 38 5 43 -3 5 -1 15
6 23 21 25 1 261 -23 277 -15 9 10 38 33 38 23 0 33 23 37 83 2 36 9 53 25 66
l22 18 -11 39 c-5 22 -11 54 -12 72 -1 21 -12 44 -31 64 -17 17 -30 35 -30 40
0 26 -84 58 -150 58 -17 0 -30 5 -30 10 0 6 -40 10 -99 10 -56 0 -103 -4 -106
-10z"/>
<path d="M2588 401 c-44 -23 -88 -65 -88 -86 0 -8 -4 -15 -10 -15 -5 0 -10
-18 -10 -40 0 -22 -5 -40 -10 -40 -7 0 -7 -6 -1 -17 5 -10 15 -33 21 -50 7
-18 16 -33 21 -33 5 0 9 -9 9 -19 0 -12 12 -25 30 -33 17 -7 30 -16 30 -20 0
-5 9 -8 20 -8 11 0 20 -4 20 -10 0 -6 30 -10 70 -10 40 0 70 4 70 10 0 6 9 10
20 10 11 0 20 3 20 8 0 4 14 13 30 20 18 8 30 21 30 33 0 10 5 19 10 19 6 0
10 9 10 19 0 11 5 23 10 26 6 3 10 26 10 50 0 24 -4 47 -10 50 -5 3 -10 15
-10 27 0 23 -82 108 -105 108 -8 0 -15 5 -15 10 0 18 -132 11 -172 -9z"/>
</g>
</svg>
