<?xml version="1.0" standalone="no"?>
<!DOCTYPE svg PUBLIC "-//W3C//DTD SVG 20010904//EN"
 "http://www.w3.org/TR/2001/REC-SVG-20010904/DTD/svg10.dtd">
<svg version="1.0" xmlns="http://www.w3.org/2000/svg"
 width="245.966150pt" height="229.212238pt" viewBox="0 0 245.966150 229.212238"
 preserveAspectRatio="xMidYMid meet">
<metadata>
Created by Potrace Professional 1.0m
</metadata>
<g transform="translate(-0.000000,230.878880) rotate(-360.00) scale(0.100000,-0.100000)"
fill="#000000" stroke="none">
<path d="M2403 2303 c-13 -2 -23 -9 -23 -14 0 -5 -7 -9 -15 -9 -8 0 -19 -9
-25 -19 -11 -22 -20 -31 -80 -81 -23 -19 -62 -54 -86 -77 -49 -48 -74 -55 -74
-20 0 12 -7 31 -16 42 l-15 20 -82 -3 -81 -3 -43 -45 -43 -44 0 -39 0 -39 28
-18 c65 -42 68 -67 15 -121 -21 -21 -44 -50 -52 -65 -8 -16 -21 -28 -28 -28
-8 0 -26 -13 -39 -30 -15 -17 -43 -35 -67 -42 -50 -14 -77 -35 -77 -59 0 -10
-9 -34 -20 -54 -21 -37 -27 -95 -10 -95 6 0 10 -7 10 -16 0 -8 6 -22 14 -30
16 -16 86 -19 86 -4 0 6 7 10 16 10 9 0 29 14 44 30 34 36 66 39 75 8 3 -13
11 -33 17 -45 8 -17 8 -29 1 -45 -6 -13 -11 -40 -11 -62 0 -21 -5 -43 -11 -49
-6 -6 -11 -21 -11 -34 0 -13 -4 -23 -10 -23 -6 0 -10 -41 -10 -104 0 -59 -4
-108 -10 -111 -5 -3 -10 -19 -10 -35 0 -15 -5 -30 -10 -32 -6 -2 -11 -38 -12
-81 0 -42 -5 -77 -10 -77 -4 0 -8 -18 -8 -40 0 -22 -4 -40 -9 -40 -16 0 -24
-72 -27 -230 -3 -198 -2 -190 -17 -190 -7 0 -29 -16 -50 -36 -38 -37 -47 -70
-25 -92 14 -14 108 -16 108 -2 0 6 11 10 25 10 14 0 37 11 50 25 l25 24 0 120
c0 69 4 122 10 126 6 3 10 13 10 22 0 8 14 28 30 43 17 16 30 38 30 52 0 13 9
30 20 38 11 8 20 22 20 32 0 9 5 20 10 23 6 3 10 19 10 34 0 30 20 81 33 81 4
0 7 9 7 20 0 11 5 20 10 20 6 0 10 -10 10 -22 0 -22 20 -89 30 -98 20 -19 27
-58 29 -140 0 -52 5 -98 11 -104 5 -5 10 -28 10 -51 0 -23 5 -46 11 -52 7 -7
12 -56 13 -121 l1 -110 19 -21 c11 -12 29 -21 41 -21 12 0 31 -9 42 -20 28
-25 139 -32 153 -10 12 19 8 31 -15 44 -11 6 -44 36 -73 66 l-54 55 6 60 c3
33 9 102 13 153 3 50 10 92 14 92 5 0 9 9 9 20 0 11 5 20 10 20 6 0 10 27 10
60 0 33 -4 60 -9 60 -6 0 -12 46 -15 103 -2 56 -8 123 -11 150 -5 29 -3 47 3
47 6 0 12 -5 14 -12 6 -16 54 -2 78 24 12 14 20 35 20 58 0 20 5 41 11 47 8 8
8 13 0 17 -6 4 -11 37 -11 75 0 37 -4 71 -9 76 -5 6 -12 35 -14 65 -3 30 -10
78 -17 105 -6 28 -13 77 -17 110 -3 33 -9 64 -14 69 -5 6 -9 24 -9 40 0 17 -9
42 -20 56 -11 14 -20 30 -20 36 0 12 -75 54 -96 54 -8 0 -25 10 -38 23 l-22
22 17 30 c10 17 18 40 18 53 1 37 47 72 95 72 28 0 36 20 24 64 l-7 28 45 44
c25 24 47 44 49 44 3 0 28 23 56 50 28 28 57 50 65 50 19 0 18 36 -2 44 -9 3
-16 5 -17 5 -1 -1 -12 -4 -24 -6z"/>
<path d="M0 2248 c0 -8 4 -18 9 -23 5 -6 12 -50 15 -100 9 -149 16 -219 26
-240 9 -21 17 -82 26 -219 l6 -78 -21 -15 c-15 -10 -21 -25 -21 -54 0 -21 5
-39 10 -39 6 0 10 -9 10 -20 0 -11 4 -20 9 -20 13 0 22 -32 33 -110 5 -36 13
-96 19 -135 5 -38 12 -119 15 -180 3 -60 10 -114 15 -120 5 -5 9 -28 9 -51 0
-24 5 -46 10 -49 6 -3 10 -28 10 -55 0 -27 5 -52 10 -55 6 -3 10 -27 10 -53 0
-36 -5 -51 -20 -62 -29 -21 -26 -48 8 -52 l27 -3 3 -54 c2 -40 7 -54 20 -58 9
-2 27 -25 39 -50 18 -36 20 -50 11 -66 -8 -16 -8 -22 1 -25 6 -2 11 -25 11
-52 0 -27 5 -52 10 -55 6 -3 10 -19 10 -36 0 -16 10 -40 22 -54 l22 -25 58 0
58 0 0 20 c0 11 5 20 10 20 6 0 10 7 10 16 0 31 28 47 75 41 33 -5 49 -2 65
11 l22 18 0 243 c0 229 3 266 28 291 3 3 11 17 18 33 30 67 36 77 44 77 4 0 8
-17 8 -38 0 -66 22 -207 33 -214 8 -5 8 -23 -1 -66 -15 -70 -16 -258 -2 -267
6 -3 10 -15 10 -26 0 -10 3 -19 8 -19 8 0 32 -48 32 -66 0 -18 54 -54 82 -54
41 1 58 23 58 74 0 25 -4 46 -10 46 -5 0 -10 18 -10 40 0 22 5 40 10 40 6 0
10 46 10 119 l0 120 28 3 27 3 3 39 c2 22 -1 49 -7 60 -5 12 -12 87 -15 168
l-6 147 35 35 c27 27 35 44 35 70 0 19 5 38 10 41 6 3 10 26 10 50 0 24 5 47
10 50 6 3 10 39 10 78 0 40 4 79 10 87 5 8 5 19 0 25 -5 5 -11 51 -14 100 -7
127 -16 198 -27 209 -5 6 -9 18 -9 29 0 24 -14 37 -72 66 -27 13 -48 28 -48
33 0 4 -11 8 -24 8 -14 0 -28 5 -31 10 -3 6 -19 10 -36 10 -22 0 -29 5 -29 20
0 11 5 20 10 20 6 0 10 9 10 20 0 11 5 20 10 20 6 0 10 18 10 40 0 22 -4 40
-10 40 -19 0 -10 32 10 37 22 6 27 35 8 50 -7 6 -25 13 -40 17 -15 3 -33 13
-42 21 -23 23 -98 20 -114 -5 -7 -12 -23 -20 -38 -20 -27 0 -54 -20 -54 -40 0
-7 8 -19 19 -28 23 -20 41 -92 41 -161 l0 -51 -19 0 c-11 0 -33 -13 -49 -30
-17 -16 -35 -30 -41 -30 -6 0 -11 -6 -11 -14 0 -19 -125 -146 -144 -146 -9 0
-16 -4 -16 -10 0 -5 -9 -10 -20 -10 -11 0 -20 -4 -20 -10 0 -6 -29 -10 -66
-10 -67 0 -94 13 -94 44 0 9 -7 16 -16 16 -37 0 -41 15 -60 203 -4 31 -10 57
-15 57 -5 0 -9 42 -9 94 0 53 -4 98 -10 101 -5 3 -10 24 -10 45 0 21 -6 41
-12 43 -10 4 -9 8 2 16 11 8 12 13 3 19 -6 4 -13 23 -15 42 -2 24 -9 36 -20
38 -10 2 -18 -3 -18 -10z m548 -760 c15 -15 17 -208 2 -208 -5 0 -10 -24 -10
-54 0 -30 5 -58 10 -61 13 -8 13 -122 0 -130 -5 -3 -10 -31 -10 -61 0 -30 -4
-54 -10 -54 -5 0 -10 -9 -10 -20 0 -11 -4 -20 -8 -20 -13 0 -35 -88 -28 -114
4 -15 0 -28 -10 -36 l-15 -13 1 -206 c1 -113 1 -212 1 -218 -1 -22 -21 -14
-21 7 0 11 -4 20 -10 20 -5 0 -10 18 -10 40 0 22 -4 40 -10 40 -5 0 -10 19
-10 43 0 24 -4 47 -8 52 -5 6 -14 30 -21 55 -7 25 -17 53 -22 62 -5 10 -9 29
-9 42 0 14 -4 28 -10 31 -5 3 -10 20 -10 38 0 42 -22 137 -32 137 -5 0 -8 17
-8 38 0 26 -7 45 -20 57 -11 10 -20 24 -20 32 0 7 -4 13 -9 13 -5 0 -12 28
-15 63 -3 34 -10 96 -16 137 -5 41 -13 108 -16 148 l-6 72 45 0 c25 0 49 -4
52 -10 3 -5 28 -10 56 -10 27 0 49 5 49 10 0 6 9 10 20 10 11 0 20 5 20 10 0
6 9 10 20 10 11 0 20 5 20 10 0 6 6 10 13 10 8 0 22 9 33 19 23 24 27 24 42 9z
m432 -203 c0 -30 -4 -55 -10 -55 -5 0 -10 9 -10 21 0 11 -5 29 -10 40 -8 14
-7 23 2 34 22 25 28 17 28 -40z"/>
<path d="M1192 364 l-34 -34 0 -62 c0 -37 5 -64 11 -66 6 -2 11 -11 11 -20 0
-10 14 -23 32 -31 37 -16 121 -18 126 -2 2 6 12 11 23 11 11 0 19 7 19 18 0 9
9 23 20 30 16 9 20 23 20 62 0 28 -3 50 -8 50 -4 0 -12 10 -17 22 -15 33 -64
56 -120 57 l-50 0 -33 -35z"/>
</g>
</svg>
