<?xml version="1.0" standalone="no"?>
<!DOCTYPE svg PUBLIC "-//W3C//DTD SVG 20010904//EN"
 "http://www.w3.org/TR/2001/REC-SVG-20010904/DTD/svg10.dtd">
<svg version="1.0" xmlns="http://www.w3.org/2000/svg"
 width="262.635616pt" height="356.194072pt" viewBox="0 0 262.635616 356.194072"
 preserveAspectRatio="xMidYMid meet">
<metadata>
Created by Potrace Professional 1.0m
</metadata>
<g transform="translate(-1.864384,357.925722) rotate(-360.00) scale(0.100000,-0.100000)"
fill="#000000" stroke="none">
<path d="M739 3563 c-1 -10 0 -25 1 -33 1 -8 -4 -31 -11 -52 l-12 -38 -29 0
c-17 0 -28 5 -28 14 0 18 -43 46 -70 46 -17 0 -90 -62 -90 -76 0 -2 14 -4 30
-4 17 0 30 -4 30 -10 0 -5 14 -10 30 -10 l31 0 -3 -27 c-2 -22 2 -29 20 -31
12 -2 22 1 22 7 0 6 14 11 30 11 17 0 30 5 30 10 0 25 87 -6 126 -44 l13 -14
-26 -26 c-14 -14 -30 -26 -35 -26 -17 0 -108 -101 -108 -120 0 -28 17 -33 52
-16 17 9 37 16 45 16 7 0 13 5 13 10 0 6 7 10 15 10 8 0 29 14 45 32 l31 32
112 -1 112 -2 22 -28 c13 -15 23 -36 23 -46 0 -9 14 -31 30 -49 24 -25 30 -40
30 -74 0 -24 -3 -44 -7 -44 -11 0 -33 -50 -33 -72 0 -23 -21 -68 -32 -68 -4 0
-8 -6 -8 -12 0 -7 -14 -29 -30 -48 -16 -19 -30 -40 -30 -46 0 -6 -11 -16 -25
-22 -32 -15 -95 -16 -95 -2 0 14 -55 13 -83 -2 -48 -24 -57 -28 -76 -28 -11 0
-23 -4 -26 -10 -3 -5 -22 -10 -41 -10 -46 0 -44 19 5 71 l39 42 32 -6 c27 -6
84 2 138 19 10 3 7 12 -10 36 -45 65 -67 80 -111 80 -23 -1 -43 -6 -45 -11 -8
-24 -22 -9 -22 25 0 36 -18 64 -42 64 -7 0 -31 -18 -52 -40 -40 -40 -63 -49
-82 -30 -15 15 -195 15 -204 0 -9 -14 -2 -49 13 -67 13 -17 -20 -30 -36 -14
-24 24 -37 12 -37 -38 0 -40 4 -53 22 -65 30 -21 14 -32 -25 -18 -19 7 -52 12
-75 12 -23 0 -42 2 -42 5 0 3 18 24 40 46 l40 41 0 49 c0 26 4 51 10 54 6 3
10 18 10 32 0 28 -44 73 -71 73 -26 0 -69 -24 -69 -40 -1 -8 -14 -31 -30 -50
-17 -19 -30 -42 -30 -52 0 -10 -4 -18 -10 -18 -5 0 -10 -16 -10 -35 0 -39 -5
-42 -32 -18 -23 21 -26 17 -28 -32 -3 -72 -2 -75 30 -75 17 0 30 -2 30 -5 0
-3 -11 -27 -25 -52 -13 -25 -22 -50 -19 -55 8 -12 51 -10 75 5 17 10 23 10 26
0 3 -7 13 -13 24 -13 l19 0 0 38 0 37 40 13 c48 15 80 16 80 2 0 -5 9 -10 20
-10 11 0 20 -4 20 -9 0 -12 -54 -51 -69 -51 -6 0 -11 -9 -11 -20 l0 -20 35 0
34 0 -6 -30 -6 -31 38 3 c24 1 40 -2 43 -10 10 -31 22 -6 22 48 0 41 4 60 13
61 6 0 37 2 67 3 162 7 296 19 300 26 3 4 19 9 37 12 24 3 33 0 36 -12 3 -12
20 -19 55 -24 l50 -6 11 -64 c6 -34 11 -70 11 -79 0 -9 5 -17 10 -17 6 0 10
-22 10 -49 0 -28 4 -52 9 -55 4 -3 11 -25 15 -48 3 -24 9 -58 12 -76 l7 -34
-39 2 c-22 2 -72 2 -111 1 l-73 -1 0 -24 c0 -16 7 -27 20 -31 21 -7 28 -25 10
-25 -5 0 -10 -12 -10 -26 0 -15 -7 -32 -17 -39 -9 -7 -13 -17 -9 -23 9 -15 46
-16 46 -2 0 6 23 10 50 10 28 0 50 -4 50 -9 0 -6 17 -11 38 -13 l37 -3 3 -67
c2 -43 -1 -68 -8 -68 -6 0 -10 -40 -10 -110 0 -61 -4 -118 -9 -128 -29 -54
-71 -153 -71 -166 0 -9 -4 -16 -10 -16 -5 0 -10 -13 -10 -30 0 -16 5 -30 10
-30 6 0 10 -48 10 -125 0 -69 4 -134 10 -145 6 -11 15 -29 20 -40 14 -28 12
-99 -6 -215 -9 -55 -18 -147 -20 -204 -2 -57 -8 -117 -14 -134 -5 -16 -10 -45
-10 -63 l0 -34 56 0 c92 0 104 25 104 214 0 91 4 146 10 148 13 4 14 351 2
376 -14 28 -35 245 -28 283 4 19 10 51 13 72 3 20 9 40 14 43 5 3 9 25 9 49 0
24 5 47 10 50 6 4 10 55 10 120 0 121 11 165 42 165 10 0 18 -4 18 -10 0 -5
18 -10 40 -10 22 0 40 -4 40 -10 0 -5 8 -10 18 -10 10 0 22 -4 28 -10 5 -5 33
-10 61 -11 29 -1 58 -6 65 -10 15 -9 12 -148 -3 -163 -5 -6 -9 -18 -9 -28 0
-10 -4 -18 -10 -18 -5 0 -10 -11 -10 -24 0 -14 -4 -28 -10 -31 -5 -3 -10 -16
-10 -29 0 -12 -6 -28 -12 -35 -16 -15 -15 -274 1 -279 7 -2 11 -50 11 -127 0
-72 4 -126 10 -130 6 -3 10 -19 10 -36 0 -16 5 -29 10 -29 6 0 10 -18 10 -39
0 -22 -4 -43 -10 -46 -19 -12 -11 -63 10 -70 11 -3 20 -11 20 -16 0 -5 12 -9
26 -9 29 0 53 -24 54 -53 0 -10 9 -37 20 -59 11 -23 20 -54 20 -69 0 -15 5
-31 10 -34 6 -3 10 -26 10 -50 0 -24 5 -47 10 -50 6 -3 10 -19 10 -36 0 -16 5
-29 10 -29 6 0 10 -18 10 -39 0 -22 5 -41 13 -44 7 -3 1 -14 -18 -31 l-30 -26
-56 0 -57 0 -15 -23 -15 -24 22 -26 c13 -15 31 -27 40 -27 9 0 16 -4 16 -10 0
-5 14 -10 30 -10 17 0 30 -4 30 -10 0 -5 9 -10 20 -10 11 0 20 -4 20 -9 0 -5
14 -14 30 -21 17 -7 30 -16 30 -21 0 -5 9 -9 19 -9 11 0 21 -5 23 -12 3 -7 28
-11 68 -11 50 1 68 5 80 19 8 11 27 25 43 33 15 8 28 21 29 30 2 30 -3 66 -13
76 -5 5 -9 60 -9 121 l0 113 -30 18 c-22 12 -30 25 -30 44 0 15 -5 29 -11 31
-15 5 -15 91 0 96 14 5 14 37 0 60 -9 14 -7 32 10 78 11 33 21 74 21 92 0 17
4 33 9 36 5 3 11 23 15 43 13 90 19 113 27 113 5 0 9 24 9 54 0 30 4 57 9 60
5 3 9 27 9 52 1 33 8 54 22 69 11 12 20 25 20 29 0 4 22 29 50 56 27 27 50 53
50 58 0 5 14 23 30 40 33 35 39 75 15 106 -15 20 -52 17 -77 -7 -7 -7 -41 -36
-75 -66 l-62 -53 -16 15 c-8 9 -15 22 -15 30 0 20 41 97 52 97 4 0 8 9 8 20 0
11 5 20 10 20 6 0 10 6 10 14 0 13 38 94 50 106 12 12 30 51 30 65 0 8 9 20
20 27 11 7 20 18 20 23 0 30 28 63 69 83 26 12 52 22 58 22 11 0 36 12 103 52
13 7 37 25 53 41 17 15 38 27 49 27 21 0 96 72 117 113 8 15 18 27 23 27 4 0
8 7 8 16 0 9 10 25 23 36 l22 20 -2 61 c-1 34 -6 63 -12 65 -6 2 -11 9 -11 16
0 6 -18 32 -40 56 l-40 44 0 133 0 133 29 0 c36 0 40 6 34 48 l-5 32 -39 0
-39 0 0 38 c0 41 -14 62 -42 62 l-18 0 0 -89 c0 -50 5 -93 10 -96 15 -9 13
-352 -2 -357 -6 -2 -12 -23 -14 -47 -1 -32 -7 -47 -25 -59 -13 -9 -33 -24 -43
-34 -11 -10 -23 -18 -28 -18 -4 0 -26 -18 -48 -39 -42 -40 -89 -57 -133 -46
-14 4 -28 2 -31 -4 -4 -6 -20 -11 -37 -11 -16 0 -29 -4 -29 -10 0 -15 -49 -12
-66 4 -18 19 -18 26 2 26 20 0 44 24 44 44 0 9 7 16 16 16 25 0 104 88 104
115 0 13 5 27 10 30 6 3 10 17 10 31 0 13 5 24 10 24 6 0 10 27 10 60 0 33 -4
60 -10 60 -5 0 -10 15 -10 33 0 21 -10 44 -30 67 -16 19 -30 41 -30 48 0 6 -4
12 -10 12 -5 0 -10 9 -10 20 0 11 -3 20 -8 20 -4 0 -12 10 -17 22 -6 12 -19
26 -29 32 -11 6 -29 19 -40 29 -11 9 -32 17 -47 17 -15 0 -30 4 -33 9 -12 18
-71 20 -144 5 -42 -9 -78 -20 -80 -25 -2 -5 -17 -9 -32 -9 -16 0 -32 -4 -35
-10 -3 -5 -14 -10 -24 -10 -10 0 -32 -14 -50 -30 -17 -17 -36 -28 -42 -24 -19
12 -59 -6 -59 -26 0 -11 -5 -20 -11 -20 -7 0 -9 -11 -5 -31 4 -19 0 -38 -10
-53 -10 -16 -14 -45 -13 -90 l2 -66 24 0 c29 0 53 -21 53 -47 0 -11 10 -29 21
-42 17 -18 20 -30 15 -59 -11 -68 4 -139 35 -172 16 -16 29 -32 29 -34 0 -2
-17 -4 -37 -4 -21 0 -96 0 -167 -1 -78 -1 -133 2 -140 9 -5 5 -20 10 -33 10
-13 0 -23 5 -23 11 0 6 -8 8 -18 5 -30 -10 -62 26 -62 67 0 20 -4 39 -10 42
-5 3 -10 26 -10 50 0 24 -4 47 -10 50 -5 3 -10 31 -10 61 0 30 -4 54 -10 54
-5 0 -10 18 -10 40 0 22 -4 40 -10 40 -5 0 -10 9 -10 20 0 11 5 20 10 20 6 0
10 9 10 20 0 11 5 20 10 20 6 0 10 7 10 15 0 8 18 34 40 56 22 23 40 46 40 51
0 6 14 23 30 38 l30 28 0 44 0 45 44 41 c25 23 54 42 65 42 l21 0 -7 -30 c-8
-43 18 -70 69 -70 49 0 71 20 66 63 l-3 32 45 5 c48 6 120 37 120 51 0 5 23 9
50 9 28 0 50 -4 50 -10 0 -5 18 -10 39 -10 27 0 44 -6 53 -18 7 -11 23 -24 35
-30 26 -14 73 -16 73 -3 0 5 20 11 44 12 l44 4 -2 -45 -1 -45 18 3 c10 2 25
-2 33 -9 14 -12 60 -5 81 12 7 6 9 24 6 43 -6 37 6 51 37 41 15 -5 20 -15 20
-41 0 -20 7 -43 16 -51 l16 -16 8 14 c5 7 24 13 42 14 l32 0 9 43 c10 53 -2
72 -49 72 -19 0 -34 4 -34 8 0 21 29 32 82 32 32 0 58 4 58 10 0 6 12 10 28
10 15 0 35 7 45 14 25 19 11 46 -24 46 -16 0 -29 5 -29 10 0 6 5 10 10 10 6 0
10 9 10 20 l0 20 -40 0 c-22 0 -40 -4 -40 -10 0 -5 -9 -10 -20 -10 -11 0 -20
5 -20 10 0 6 -9 10 -20 10 -16 0 -20 -7 -20 -30 0 -16 -4 -30 -10 -30 -5 0
-10 -10 -10 -22 -1 -27 -16 -48 -48 -65 -32 -19 -52 -16 -52 7 0 11 5 20 10
20 6 0 10 23 10 50 0 31 -4 50 -11 50 -9 0 -10 21 -6 70 l6 70 -30 0 c-16 0
-38 5 -48 12 l-19 11 -33 -19 c-19 -11 -35 -30 -37 -42 -2 -12 -8 -22 -13 -22
-5 0 -9 -9 -9 -19 0 -11 -5 -23 -10 -26 -13 -8 -13 -75 0 -75 6 0 10 -7 10
-16 0 -8 7 -22 15 -31 8 -8 13 -19 10 -24 -8 -12 -45 -12 -45 0 0 5 -9 11 -20
14 l-20 5 0 76 c0 44 -4 76 -10 76 -5 0 -10 6 -10 13 0 18 -45 67 -63 67 -8 0
-21 14 -29 30 l-13 30 -33 0 c-49 0 -82 -37 -82 -94 0 -24 -5 -46 -11 -48 -18
-6 6 -44 62 -100 66 -66 64 -97 -4 -65 -27 12 -36 27 -17 27 6 0 10 9 10 20 0
16 -7 20 -30 20 -23 0 -31 -5 -36 -24 -9 -35 -57 -74 -95 -77 -84 -5 -102 11
-53 50 14 11 29 32 33 48 10 35 2 183 -10 183 -5 0 -9 9 -9 20 l0 20 -40 0
-40 0 0 -20 c0 -11 -4 -20 -10 -20 -5 0 -10 -12 -10 -26 0 -15 -8 -34 -18 -43
-40 -37 -49 -77 -39 -181 l2 -25 -40 -3 c-22 -2 -43 -8 -46 -14 -12 -19 -39 0
-39 27 0 14 -4 25 -10 25 -5 0 -10 8 -10 18 0 10 -9 24 -20 32 -11 8 -20 22
-20 32 0 10 -4 18 -10 18 -5 0 -10 7 -10 16 0 22 -19 38 -67 53 -39 13 -58 31
-32 31 24 0 59 55 59 94 0 20 6 25 28 28 38 4 43 43 8 74 -14 13 -32 24 -40
24 -8 0 -16 5 -18 10 -4 12 -58 -10 -58 -22 0 -5 -12 -8 -26 -8 -29 0 -134
-98 -134 -125 0 -19 -27 -20 -46 -1 -18 18 -18 26 0 26 24 0 28 32 6 47 -12 9
-20 25 -20 44 l0 29 -29 0 c-23 0 -32 7 -43 30 -14 34 -27 39 -29 13z m-267
-763 c12 -11 32 -20 45 -20 27 0 29 -6 9 -26 -21 -21 -66 -18 -66 4 0 9 -9 23
-20 30 -11 7 -20 17 -20 22 0 17 30 11 52 -10z m-4 -120 c24 -22 87 -27 96 -7
5 10 7 10 12 0 7 -15 44 -17 44 -3 0 12 37 13 44 1 9 -13 -14 -19 -107 -27
l-84 -6 -26 17 c-28 18 -36 45 -14 45 7 0 23 -9 35 -20z m738 -573 c4 -4 18
-7 31 -7 13 0 23 -3 23 -8 0 -11 -75 -32 -78 -21 -2 5 -12 9 -23 9 -12 0 -19
7 -19 19 0 14 7 18 29 17 16 -1 33 -5 37 -9z m974 -2 c0 -8 -4 -15 -10 -15 -5
0 -10 7 -10 15 0 8 5 15 10 15 6 0 10 -7 10 -15z m-820 -35 c0 -5 -4 -10 -10
-10 -5 0 -10 5 -10 10 0 6 5 10 10 10 6 0 10 -4 10 -10z m605 -8 c16 -11 37
-53 30 -60 -3 -3 -15 -1 -25 6 -24 15 -40 15 -40 2 0 -5 7 -10 15 -10 18 0 20
-37 3 -42 -8 -3 -9 -12 0 -36 6 -19 7 -32 1 -32 -5 0 -9 5 -9 11 0 19 -28 39
-54 39 l-26 0 0 -30 c0 -23 4 -30 20 -30 13 0 20 -7 20 -20 0 -16 -7 -20 -30
-20 l-30 0 0 30 c0 17 -4 30 -10 30 -5 0 -10 7 -10 15 0 8 -4 15 -10 15 -5 0
-10 -7 -10 -15 0 -8 -4 -15 -10 -15 -15 0 -12 37 4 43 7 3 16 22 20 41 4 20
11 36 16 36 6 0 10 10 10 21 l0 22 50 -5 c28 -3 50 -1 50 3 0 11 11 11 25 1z
m-270 -27 c14 -13 25 -35 25 -49 0 -16 7 -27 20 -31 24 -7 24 -13 5 -39 l-15
-20 -15 20 c-8 10 -21 34 -30 52 -12 23 -23 32 -40 32 -14 0 -25 5 -25 10 0 6
-10 10 -23 10 -32 0 -40 10 -19 26 29 23 90 17 117 -11z m65 -265 c0 -5 -4
-10 -10 -10 -5 0 -10 5 -10 10 0 6 5 10 10 10 6 0 10 -4 10 -10z m-20 -80 c0
-5 -4 -10 -10 -10 -5 0 -10 5 -10 10 0 6 5 10 10 10 6 0 10 -4 10 -10z m-20
-795 c0 -8 -4 -15 -10 -15 -5 0 -10 7 -10 15 0 8 5 15 10 15 6 0 10 -7 10 -15z
m-40 -25 c0 -5 -4 -10 -10 -10 -5 0 -10 5 -10 10 0 6 5 10 10 10 6 0 10 -4 10
-10z m27 -45 c8 -9 13 -19 10 -22 -10 -10 -37 6 -37 22 0 19 7 19 27 0z m81
-172 c12 -27 17 -93 6 -93 -18 0 -34 34 -34 74 0 52 9 58 28 19z m-48 -103 c0
-5 9 -10 20 -10 11 0 20 -4 20 -10 0 -5 9 -10 19 -10 l20 0 -2 -60 c-1 -33 -5
-60 -9 -60 -4 0 -8 4 -8 9 0 5 -10 11 -22 13 l-23 3 -9 58 c-5 31 -13 57 -18
57 -4 0 -8 5 -8 10 0 6 5 10 10 10 6 0 10 -4 10 -10z m77 -312 c2 -34 7 -66
13 -72 18 -18 12 -46 -10 -46 -13 0 -20 7 -20 19 0 11 -4 21 -10 23 -5 2 -11
17 -13 33 -2 17 -6 36 -10 42 -10 17 13 63 32 63 13 0 16 -13 18 -62z"/>
<path d="M1680 2010 c0 -5 5 -10 10 -10 6 0 10 5 10 10 0 6 -4 10 -10 10 -5 0
-10 -4 -10 -10z"/>
<path d="M1900 490 c0 -16 5 -30 10 -30 6 0 10 14 10 30 0 17 -4 30 -10 30 -5
0 -10 -13 -10 -30z"/>
</g>
</svg>
