<?xml version="1.0" standalone="no"?>
<!DOCTYPE svg PUBLIC "-//W3C//DTD SVG 20010904//EN"
 "http://www.w3.org/TR/2001/REC-SVG-20010904/DTD/svg10.dtd">
<svg version="1.0" xmlns="http://www.w3.org/2000/svg"
 width="202.000000pt" height="275.642687pt" viewBox="0 0 202.000000 275.642687"
 preserveAspectRatio="xMidYMid meet">
<metadata>
Created by Potrace Professional 1.0m
</metadata>
<g transform="translate(-2.000000,278.000000) rotate(-360.00) scale(0.100000,-0.100000)"
fill="#000000" stroke="none">
<path d="M140 2750 l0 -30 -35 0 c-19 0 -35 -4 -35 -10 0 -5 7 -10 15 -10 8 0
15 -4 15 -10 0 -5 9 -10 20 -10 14 0 20 -7 20 -22 1 -52 -3 -408 -5 -463 -1
-33 -5 -283 -10 -555 -4 -307 -11 -500 -17 -507 -7 -9 -7 -13 2 -13 8 0 10
-23 6 -87 -3 -49 -8 -250 -11 -448 -5 -368 -9 -405 -45 -405 -27 0 -40 -22
-40 -71 l0 -47 133 -6 c72 -3 261 -9 419 -12 164 -3 288 -10 288 -15 0 -9 151
-7 614 6 163 5 223 10 233 20 8 9 13 37 13 77 0 35 4 68 9 74 8 8 11 23 27
134 3 25 10 49 15 54 5 6 9 18 9 27 0 10 4 19 9 21 6 2 11 65 12 140 1 76 6
138 10 138 5 0 9 8 9 18 0 21 43 42 87 42 l34 0 -3 101 -3 101 20 12 c27 15
65 58 65 74 0 6 5 12 10 12 6 0 10 26 10 57 0 42 -6 65 -22 89 -37 54 -98 77
-98 37 0 -8 -7 -21 -16 -30 l-15 -15 -14 18 c-8 11 -15 29 -15 42 0 12 -4 22
-8 22 -5 0 -15 12 -23 28 -8 15 -22 36 -31 46 -10 11 -18 25 -18 31 0 6 -9 17
-20 25 -11 8 -20 22 -20 32 0 10 -4 18 -9 18 -26 0 -7 167 21 178 4 2 8 12 8
23 0 10 4 19 9 19 33 0 65 350 39 437 -7 23 -16 43 -20 43 -4 0 -8 9 -8 20 l0
20 46 0 46 0 -7 33 c-6 31 -18 63 -36 99 -5 10 -9 25 -9 33 0 8 -4 23 -9 33
-5 9 -15 31 -22 47 -8 17 -22 39 -31 49 -10 11 -18 25 -18 31 0 6 -12 17 -27
24 -16 8 -36 17 -45 22 -24 12 -108 11 -108 -1 0 -5 -9 -10 -20 -10 -11 0 -20
5 -20 10 0 6 -9 10 -20 10 -11 0 -20 5 -20 10 0 6 -7 10 -15 10 -8 0 -23 4
-33 9 -36 18 -69 31 -109 41 -24 6 -43 14 -43 18 0 9 -49 32 -67 32 -7 0 -13
5 -13 10 0 6 -9 10 -19 10 -11 0 -23 5 -26 10 -8 13 -58 13 -71 0 -7 -7 -92
-13 -215 -15 -112 -2 -303 -7 -425 -10 l-221 -6 -13 31 c-10 24 -19 30 -41 30
l-29 0 0 -30z m208 -62 c9 -9 8 -16 -5 -30 -9 -10 -21 -18 -28 -18 -22 0 -55
-80 -55 -132 0 -49 27 -103 82 -162 10 -11 18 -25 18 -31 0 -15 -21 -35 -38
-35 -20 0 -42 -26 -42 -49 0 -11 -4 -23 -10 -26 -6 -3 -10 -17 -10 -30 0 -13
-4 -27 -10 -30 -5 -3 -10 -15 -10 -26 0 -10 -4 -19 -10 -19 -5 0 -10 -9 -10
-20 0 -11 -4 -20 -10 -20 -14 0 -13 243 0 256 8 8 7 19 -1 37 -9 21 -9 30 0
41 7 8 12 34 11 58 -1 24 -1 85 -1 136 l1 92 33 1 c17 0 41 4 52 9 27 12 29
12 43 -2z m692 -16 c0 -21 7 -32 28 -43 15 -8 35 -22 45 -33 13 -15 29 -19 68
-17 l51 1 28 -30 c15 -16 33 -30 39 -30 7 0 28 -16 47 -36 35 -34 40 -64 12
-64 -8 0 -20 -9 -28 -20 -8 -11 -20 -20 -26 -20 -18 0 -35 -26 -28 -44 4 -12
19 -16 55 -16 46 0 62 -11 39 -25 -5 -3 -10 -21 -10 -40 0 -18 -5 -35 -12 -37
-8 -3 -5 -12 10 -28 24 -26 29 -69 11 -87 -9 -9 -7 -16 6 -30 13 -13 20 -14
23 -5 4 13 82 17 82 4 0 -11 -48 -52 -61 -52 -16 0 -39 -26 -39 -44 0 -9 -4
-16 -10 -16 -5 0 -10 -21 -10 -46 0 -27 -6 -51 -15 -60 -8 -9 -18 -27 -21 -42
-3 -15 -15 -45 -26 -67 -12 -22 -26 -50 -32 -62 -8 -17 -20 -23 -43 -23 -17 0
-35 -4 -38 -10 -3 -5 -31 -10 -61 -10 -30 0 -87 -5 -125 -11 -52 -8 -73 -8
-84 1 -8 7 -52 11 -114 11 l-100 -1 -4 113 c-5 121 -15 187 -27 187 -4 0 -11
17 -14 38 -25 156 -40 217 -58 233 -10 9 -18 22 -18 28 0 20 31 61 46 61 8 0
14 5 14 10 0 6 7 10 16 10 9 0 25 10 35 22 l19 21 -4 69 c-3 38 -1 68 5 68 5
0 9 12 9 28 0 21 -7 30 -30 40 -16 8 -30 20 -30 28 0 17 -20 55 -35 67 -6 4
-3 13 9 22 l20 15 193 0 193 0 0 -28z m-294 -1106 c8 -8 14 -23 14 -33 1 -38
24 -53 84 -53 31 0 65 5 76 12 14 9 24 9 42 0 13 -6 75 -14 138 -16 63 -3 122
-5 130 -6 21 -1 84 12 90 19 10 12 50 31 65 31 26 0 17 -26 -25 -69 -22 -22
-40 -48 -40 -56 0 -8 -4 -15 -10 -15 -5 0 -10 -24 -10 -53 0 -29 -5 -58 -10
-63 -7 -7 -10 -59 -9 -130 1 -65 2 -175 3 -243 l1 -124 38 -19 c27 -15 37 -26
37 -44 0 -13 -4 -24 -10 -24 -5 0 -10 -13 -10 -29 0 -17 -4 -33 -10 -36 -5 -3
-10 -31 -10 -61 0 -30 -4 -54 -10 -54 -5 0 -10 -8 -10 -18 0 -10 -9 -24 -20
-32 -11 -8 -20 -20 -20 -26 0 -6 -13 -25 -30 -42 -16 -18 -30 -39 -30 -47 0
-8 -4 -15 -8 -15 -5 0 -15 -12 -23 -27 -17 -34 -179 -193 -196 -193 -7 0 -13
-4 -13 -9 0 -4 -27 -14 -59 -20 -69 -14 -101 -2 -101 37 0 13 -8 25 -17 28
-10 3 -26 10 -35 15 -10 5 -34 9 -53 9 -19 0 -43 4 -53 9 -9 5 -32 16 -49 23
-18 7 -33 16 -33 20 0 5 -6 8 -13 8 -7 0 -23 9 -35 20 -12 11 -26 20 -32 20
-22 0 -40 29 -40 65 l0 36 28 16 c40 23 52 56 52 145 0 43 4 86 9 96 9 18 31
127 31 156 0 10 12 30 28 44 34 33 52 84 52 145 0 25 4 49 10 52 6 3 10 17 10
31 0 18 18 43 60 83 55 53 76 91 50 91 -5 0 -10 20 -10 44 0 25 -4 48 -10 51
-5 3 -10 30 -10 60 0 30 -4 57 -10 60 -5 3 -10 28 -10 56 0 27 -4 49 -10 49
-5 0 -10 9 -10 20 0 23 25 27 46 6z m1234 -436 c0 -16 -4 -30 -9 -30 -5 0 -11
-9 -14 -20 -3 -11 -12 -20 -21 -20 -20 0 -22 64 -3 85 22 26 47 18 47 -15z
m-1697 -80 c16 -14 2 -201 -18 -245 -30 -66 -45 -123 -45 -173 0 -29 -5 -85
-11 -124 -12 -75 -5 -104 33 -139 20 -18 23 -40 9 -67 -5 -9 -15 -30 -22 -47
-19 -41 -37 -58 -54 -51 -12 4 -15 26 -15 104 0 54 4 102 9 108 5 5 11 146 13
314 3 168 8 313 12 322 6 13 16 15 44 11 20 -3 41 -9 45 -13z m1257 -710 c0
-55 -22 -180 -32 -180 -4 0 -8 -6 -8 -14 0 -12 -40 -46 -55 -46 -9 0 -5 69 5
75 6 3 10 19 10 35 0 16 5 32 10 35 6 3 10 17 10 31 0 13 5 24 10 24 6 0 10 6
10 13 0 18 24 67 33 67 4 0 7 -18 7 -40z m-240 -32 c0 -18 -9 -44 -20 -58 -11
-14 -20 -31 -20 -37 0 -7 -4 -13 -10 -13 -5 0 -10 -7 -10 -16 0 -9 -21 -36
-47 -60 -35 -34 -54 -44 -79 -44 -18 0 -36 -4 -39 -10 -3 -5 -23 -10 -43 -10
l-37 0 35 28 c19 15 84 77 145 139 60 61 113 112 118 112 4 1 7 -14 7 -31z"/>
</g>
</svg>
