<?xml version="1.0" standalone="no"?>
<!DOCTYPE svg PUBLIC "-//W3C//DTD SVG 20010904//EN"
 "http://www.w3.org/TR/2001/REC-SVG-20010904/DTD/svg10.dtd">
<svg version="1.0" xmlns="http://www.w3.org/2000/svg"
 width="369.550145pt" height="128.039092pt" viewBox="0 0 369.550145 128.039092"
 preserveAspectRatio="xMidYMid meet">
<metadata>
Created by Potrace Professional 1.0m
</metadata>
<g transform="translate(-0.449855,128.039092) rotate(-360.00) scale(0.100000,-0.100000)"
fill="#000000" stroke="none">
<path d="M885 1270 c-3 -5 -13 -10 -21 -10 -9 0 -23 -9 -32 -20 l-17 -20 -75
-3 c-59 -2 -75 -5 -75 -17 0 -9 19 -21 47 -30 55 -17 62 -30 18 -30 -16 0 -30
-4 -30 -10 0 -5 10 -10 23 -10 13 0 29 -6 36 -12 11 -10 14 -10 18 0 3 6 13
12 24 12 27 0 99 -23 99 -32 0 -5 9 -8 20 -8 13 0 20 -7 20 -19 0 -11 5 -23
10 -26 6 -3 10 -24 10 -45 0 -21 -4 -42 -10 -45 -5 -3 -10 -19 -10 -35 0 -16
-4 -32 -10 -35 -5 -3 -10 -17 -10 -31 0 -13 -4 -24 -10 -24 -5 0 -10 -9 -10
-20 0 -11 -3 -20 -7 -20 -5 0 -14 -12 -20 -27 -15 -32 -17 -173 -3 -173 6 0
10 -6 10 -13 0 -28 26 -68 53 -80 15 -6 27 -15 27 -18 0 -3 19 -12 43 -19 23
-7 46 -17 51 -22 6 -4 18 -8 28 -8 10 0 18 -4 18 -10 0 -5 9 -10 19 -10 11 0
23 -4 26 -10 3 -5 22 -10 41 -10 19 0 34 -4 34 -10 0 -5 7 -10 15 -10 9 0 25
-9 37 -20 12 -11 30 -20 39 -20 10 0 21 -4 24 -10 3 -5 13 -10 22 -10 26 0 55
-41 48 -68 -13 -53 -52 -66 -95 -32 -14 11 -40 20 -57 20 -26 0 -33 -4 -33
-20 0 -11 5 -20 10 -20 6 0 10 -22 10 -50 l0 -50 100 0 c60 0 100 -4 100 -10
0 -6 33 -10 80 -10 l80 0 0 22 c0 12 -8 31 -19 42 -21 24 -34 109 -18 125 6 6
30 11 54 11 24 0 43 5 43 10 0 6 18 10 40 10 22 0 40 5 40 10 0 6 6 10 14 10
18 0 106 89 106 107 0 7 5 13 10 13 6 0 10 9 10 20 0 11 5 20 10 20 6 0 10 9
10 20 0 11 3 20 8 20 10 0 32 50 32 73 0 10 -9 21 -20 24 -11 3 -20 10 -20 15
0 5 -13 0 -29 -11 -15 -11 -47 -23 -70 -27 l-41 -7 0 37 0 36 -35 0 c-22 0
-44 8 -57 20 -13 12 -36 20 -57 20 -20 0 -47 9 -61 20 -14 11 -34 20 -45 20
-11 0 -27 9 -35 20 -8 11 -22 20 -32 20 -10 0 -18 5 -18 10 0 6 -9 10 -20 10
-11 0 -20 3 -20 8 0 14 -79 32 -140 32 -33 0 -60 4 -60 10 0 6 -16 10 -36 10
-38 0 -67 23 -79 61 -4 10 -1 53 4 94 16 114 14 166 -9 195 -11 14 -20 31 -20
38 0 6 -7 12 -15 12 -9 0 -25 9 -37 20 -23 21 -92 28 -103 10z m601 -1066 c-3
-9 -6 -22 -6 -30 0 -8 -9 -14 -20 -14 -23 0 -27 23 -7 45 17 20 41 19 33 -1z"/>
<path d="M430 440 c-10 -14 -26 -20 -52 -20 -21 0 -38 -4 -38 -10 0 -6 -27
-10 -60 -10 -33 0 -60 -4 -60 -10 0 -5 -6 -10 -14 -10 -7 0 -27 -13 -44 -30
-18 -16 -40 -30 -49 -30 -21 0 -73 -42 -73 -59 0 -6 -5 -21 -12 -34 -28 -55
-29 -58 -14 -72 20 -20 26 -19 59 9 17 14 27 33 27 50 0 17 5 26 16 26 9 0 18
9 21 20 7 27 54 27 71 0 9 -15 23 -20 58 -20 26 0 52 -6 60 -14 21 -21 18 -26
-16 -26 -23 0 -30 -4 -30 -20 0 -13 7 -20 20 -20 11 0 20 -4 20 -10 0 -5 13
-10 29 -10 l28 0 6 32 c9 53 25 88 42 88 8 0 15 6 15 13 0 7 9 23 20 35 11 12
20 28 20 37 0 8 5 15 10 15 15 0 12 62 -4 83 -17 23 -38 22 -56 -3z"/>
<path d="M620 450 c0 -5 -13 -10 -30 -10 -23 0 -30 -5 -30 -19 0 -14 8 -21 28
-23 l27 -3 6 -60 c7 -74 16 -95 40 -95 41 0 99 -25 99 -42 0 -14 -9 -18 -40
-18 -29 0 -40 -4 -40 -15 0 -9 8 -19 18 -22 9 -4 19 -10 22 -14 3 -4 36 -9 73
-10 77 -2 99 9 79 41 -19 31 -14 56 16 71 43 22 72 56 72 84 l0 25 -33 0 c-19
0 -42 8 -55 20 -24 22 -90 27 -123 9 -26 -14 -58 -4 -41 13 15 15 15 51 0 66
-14 14 -88 16 -88 2z m200 -280 c0 -5 -4 -10 -10 -10 -5 0 -10 5 -10 10 0 6 5
10 10 10 6 0 10 -4 10 -10z"/>
<path d="M2065 411 c-6 -5 -21 -11 -35 -13 -28 -3 -42 -38 -15 -38 33 0 60
-50 35 -65 -5 -3 -10 -23 -10 -44 0 -42 23 -71 58 -71 12 0 22 -4 22 -10 0 -5
23 -10 50 -10 l50 0 0 -20 c0 -14 -7 -20 -23 -20 -35 0 -77 -23 -77 -42 l0
-18 60 0 c33 0 60 -4 60 -10 0 -5 13 -10 28 -10 35 0 52 31 52 95 0 25 5 45
10 45 6 0 10 9 10 20 0 11 5 20 10 20 6 0 10 23 10 50 l0 50 -110 0 -110 0 0
19 c0 11 4 22 10 26 5 3 0 17 -12 30 -22 25 -56 33 -73 16z"/>
<path d="M2505 390 c-3 -5 -19 -10 -35 -10 -29 0 -44 -19 -34 -45 4 -10 20
-15 45 -15 l39 0 0 -20 c0 -11 -4 -20 -10 -20 -18 0 -11 -61 11 -91 15 -21 29
-29 52 -29 18 0 40 -7 51 -15 l18 -14 -15 -15 c-9 -9 -23 -16 -31 -16 -28 0
-17 -34 19 -57 19 -13 50 -23 70 -23 l35 0 0 19 c0 11 5 23 10 26 6 3 10 20
10 36 0 29 19 59 38 59 16 0 42 36 42 58 0 12 5 22 10 22 13 0 13 23 -1 53
l-11 24 -80 -2 c-44 -2 -82 -6 -85 -9 -4 -3 -17 -6 -30 -6 l-23 0 0 36 c0 19
-6 42 -14 50 -17 16 -72 19 -81 4z"/>
<path d="M3243 370 c-17 -7 -23 -18 -23 -40 l0 -30 46 0 46 0 34 -37 c19 -20
34 -45 34 -56 0 -20 22 -47 39 -47 15 0 14 -11 -5 -31 l-16 -18 15 -16 c9 -8
27 -15 40 -15 14 0 27 -5 29 -12 3 -8 12 -5 28 10 13 12 30 22 37 22 7 0 13 5
13 10 0 13 37 13 45 0 3 -6 3 -19 0 -30 -5 -16 -15 -20 -46 -20 -21 0 -39 -2
-39 -5 0 -3 11 -17 25 -30 18 -19 35 -25 70 -25 l45 0 0 90 c0 53 4 90 10 90
6 0 10 9 10 20 0 11 5 20 10 20 6 0 10 18 10 40 l0 40 -150 0 c-102 0 -150 4
-150 11 0 6 -9 24 -21 40 l-20 29 -47 -1 c-26 0 -57 -4 -69 -9z m277 -240 c0
-5 -9 -10 -20 -10 -11 0 -20 5 -20 10 0 6 9 10 20 10 11 0 20 -4 20 -10z"/>
</g>
</svg>
