<?xml version="1.0" standalone="no"?>
<!DOCTYPE svg PUBLIC "-//W3C//DTD SVG 20010904//EN"
 "http://www.w3.org/TR/2001/REC-SVG-20010904/DTD/svg10.dtd">
<svg version="1.0" xmlns="http://www.w3.org/2000/svg"
 width="160.000139pt" height="261.738818pt" viewBox="0 0 160.000139 261.738818"
 preserveAspectRatio="xMidYMid meet">
<metadata>
Created by Potrace Professional 1.0m
</metadata>
<g transform="translate(0.000139,262.000000) rotate(-360.00) scale(0.100000,-0.100000)"
fill="#000000" stroke="none">
<path d="M153 2593 c-7 -15 -13 -46 -13 -70 0 -24 -4 -43 -10 -43 -5 0 -10
-13 -10 -30 0 -34 -18 -117 -31 -142 -5 -10 -9 -36 -9 -58 0 -42 -13 -74 -42
-101 -11 -10 -18 -31 -18 -53 0 -20 -4 -36 -8 -36 -5 0 -10 -36 -10 -80 l-2
-80 39 0 c22 0 41 5 43 12 7 21 38 -17 38 -46 0 -14 5 -28 10 -31 6 -3 10 -17
10 -31 0 -38 58 -124 85 -124 6 0 17 -9 25 -20 8 -11 22 -20 32 -20 l18 0 0
-90 0 -90 -20 0 -20 0 0 -39 c0 -43 21 -59 60 -46 l20 6 0 -36 c0 -47 -25
-105 -45 -105 -13 0 -16 -8 -13 -38 l3 -37 33 -3 c46 -5 66 18 58 68 -3 21 -2
49 3 62 9 25 64 88 76 88 4 0 5 -17 3 -37 l-3 -38 20 0 c16 0 21 8 23 38 2 20
7 37 13 37 5 0 9 14 9 30 0 17 4 30 9 30 9 0 19 23 30 70 8 31 33 33 41 3 3
-13 13 -32 23 -43 25 -29 21 -69 -10 -102 -15 -15 -31 -28 -36 -28 -34 0 -137
-165 -137 -221 0 -15 -5 -31 -10 -34 -6 -3 -10 -15 -10 -26 0 -10 -6 -19 -12
-19 -18 0 -68 -44 -68 -59 0 -39 74 -54 91 -18 5 9 13 25 17 34 18 37 32 25
32 -26 0 -28 -4 -51 -10 -51 -5 0 -10 -13 -10 -28 0 -20 7 -33 24 -42 l25 -13
15 15 c8 9 16 38 18 69 2 42 7 55 20 57 12 2 18 -3 18 -17 0 -11 5 -23 10 -26
16 -10 11 -40 -10 -63 -11 -12 -20 -26 -20 -32 0 -21 33 -44 64 -45 23 0 32
-5 34 -20 2 -11 7 -29 11 -40 4 -11 13 -35 19 -53 l11 -33 -22 -42 c-12 -23
-24 -44 -28 -47 -15 -14 -38 -81 -45 -128 -3 -29 -11 -55 -15 -58 -5 -3 -9
-25 -9 -49 0 -24 -4 -47 -10 -50 -17 -11 -12 -86 8 -104 10 -9 24 -36 32 -61
25 -77 74 -111 157 -107 l53 2 0 22 c0 13 -19 42 -42 67 -66 68 -68 71 -61
110 3 20 10 36 14 36 5 0 9 18 9 41 0 29 9 53 30 84 17 24 30 51 30 59 0 9 3
16 8 16 7 0 32 48 32 63 0 5 14 22 30 37 18 17 30 38 30 53 0 14 5 29 11 33 8
4 7 9 -2 15 l-13 8 14 25 c7 14 16 26 19 26 8 0 31 -51 31 -69 0 -37 29 -90
72 -133 27 -26 48 -56 48 -67 0 -27 18 -59 52 -92 17 -16 28 -38 28 -53 0 -14
5 -26 10 -26 6 0 10 -7 10 -15 0 -22 45 -65 69 -65 11 0 23 -5 26 -10 3 -6 15
-10 26 -10 10 0 19 -4 19 -10 0 -5 9 -10 20 -10 11 0 20 -4 20 -10 0 -5 18
-10 40 -10 22 0 40 5 40 10 0 6 -3 10 -7 10 -9 0 -33 49 -33 67 0 24 -37 79
-89 131 l-51 52 0 40 c0 42 -13 74 -42 101 -11 10 -18 31 -18 52 0 20 -4 39
-10 42 -5 3 -10 17 -10 30 0 13 -4 27 -10 30 -5 3 -10 30 -10 60 0 30 -4 57
-10 60 -17 11 -11 50 10 65 26 19 26 61 0 80 -11 8 -20 22 -20 32 0 10 -4 18
-10 18 -5 0 -10 18 -10 39 0 22 -4 43 -10 46 -5 3 -10 21 -10 40 0 33 -37 115
-52 115 -4 0 -8 13 -8 29 0 16 -6 31 -12 33 -26 9 -5 208 22 208 4 0 13 -11
20 -25 7 -14 17 -25 22 -25 4 0 8 -31 8 -70 l0 -70 19 0 c27 0 43 -24 40 -62
-4 -69 -1 -78 29 -78 21 0 32 7 41 26 l11 26 -20 25 c-14 18 -17 30 -10 37 5
5 10 27 10 48 l0 38 29 0 c36 0 46 22 26 60 -8 16 -15 42 -15 59 0 16 -4 33
-10 36 -5 3 -10 19 -10 36 0 16 -4 29 -10 29 -5 0 -10 19 -10 41 l0 42 59 -6
59 -7 24 19 23 19 0 60 0 59 -43 41 c-43 42 -58 81 -24 67 9 -4 37 -11 62 -16
87 -15 99 -21 112 -50 l13 -29 33 0 c25 0 35 5 39 20 3 11 9 20 14 20 5 0 9
48 9 106 l0 107 -17 13 c-30 22 -53 16 -93 -26 -31 -32 -46 -40 -74 -40 -19 0
-38 -4 -41 -10 -7 -12 -95 -14 -95 -2 0 4 -12 13 -27 20 -32 14 -133 16 -133
2 0 -5 -9 -10 -19 -10 -11 0 -21 -5 -23 -10 -2 -7 -24 -8 -61 -4 l-57 7 0 86
c0 48 -4 91 -9 96 -4 6 -11 27 -14 48 l-6 37 19 0 c10 0 22 -4 25 -10 3 -5 13
-10 22 -10 9 0 23 -8 32 -17 9 -10 26 -23 38 -30 l21 -12 25 25 25 25 -12 24
c-7 16 -19 25 -34 25 -15 0 -41 19 -72 50 -27 28 -51 50 -54 50 -15 0 -4 -35
16 -51 11 -11 18 -22 13 -27 -4 -4 -10 -1 -12 6 -3 6 -13 12 -24 12 -14 0 -19
7 -19 29 0 16 5 31 12 33 19 7 1 38 -22 38 -22 0 -70 -41 -70 -60 0 -17 -26
-40 -44 -40 -9 0 -16 5 -16 10 0 6 -6 10 -14 10 -16 0 -46 42 -46 64 0 7 7 16
15 20 18 6 45 -2 45 -15 0 -14 50 -10 66 5 17 18 18 58 2 74 -7 7 -29 12 -49
12 -21 0 -39 4 -41 10 -5 15 -90 -11 -113 -34 -33 -34 -65 -113 -65 -161 l0
-35 -30 0 c-16 0 -30 -4 -30 -10 0 -5 -8 -10 -17 -10 -22 0 -43 -43 -43 -87 0
-18 -4 -33 -10 -33 -5 0 -10 -16 -10 -35 0 -22 -8 -44 -20 -57 -23 -25 -25
-46 -5 -72 l14 -19 26 17 c19 12 25 25 25 51 0 19 5 35 10 35 6 0 10 6 10 13
0 6 11 25 25 41 32 37 55 29 55 -19 0 -19 5 -35 10 -35 6 0 10 -9 10 -20 0
-11 5 -20 10 -20 25 0 -6 -87 -46 -127 -7 -8 -14 -19 -14 -24 0 -5 -10 -9 -22
-9 -29 -1 -115 -23 -124 -33 -4 -4 -15 -7 -23 -7 -9 0 -23 -9 -31 -20 -20 -27
-44 -25 -60 6 -8 14 -31 39 -52 56 -21 16 -38 35 -38 42 0 6 -9 18 -20 26 -21
15 -28 74 -10 85 6 3 10 17 10 30 0 13 -4 27 -10 30 -5 3 -10 15 -10 25 0 10
-6 20 -12 22 -10 4 -8 20 8 69 12 35 27 96 34 134 6 39 16 84 21 101 5 17 9
42 9 57 0 14 5 29 10 32 6 3 10 19 10 36 l0 29 -47 0 -48 0 -12 -27z m67 -43
c0 -16 -4 -30 -10 -30 -5 0 -10 -13 -10 -29 0 -17 -4 -33 -10 -36 -5 -3 -10
-17 -10 -31 0 -13 -4 -24 -10 -24 -5 0 -10 -20 -10 -44 0 -25 -4 -48 -10 -51
-6 -3 -10 -23 -10 -44 0 -35 -14 -61 -32 -61 -4 0 -8 9 -8 20 0 11 5 20 10 20
6 0 10 14 10 30 0 17 5 30 10 30 6 0 10 23 10 50 0 28 4 50 9 50 5 0 11 19 14
43 9 69 19 110 31 124 18 20 26 15 26 -17z m700 -140 c0 -5 -9 -10 -20 -10
-11 0 -20 5 -20 10 0 6 9 10 20 10 11 0 20 -4 20 -10z m-285 -152 c28 -24 33
-58 10 -58 -9 0 -20 11 -25 24 -5 13 -14 27 -19 31 -14 8 -14 25 -1 25 5 0 21
-10 35 -22z m-95 -43 c0 -14 -9 -35 -20 -47 l-20 -22 0 27 c0 15 5 27 10 27 6
0 10 9 10 20 0 11 5 20 10 20 6 0 10 -11 10 -25z m358 -29 c-10 -7 -18 -18
-18 -25 0 -6 -3 -11 -7 -11 -12 0 -38 18 -33 22 29 18 48 27 60 27 l15 0 -17
-13z m-108 -43 c11 -10 20 -23 20 -30 0 -18 38 -16 57 2 20 20 33 10 33 -26 0
-22 -5 -29 -20 -29 -11 0 -20 -4 -20 -10 0 -5 5 -10 10 -10 6 0 10 -13 10 -30
0 -16 5 -30 10 -30 6 0 10 -4 10 -10 0 -5 -16 -10 -35 -10 -53 0 -105 60 -105
120 0 16 -4 30 -10 30 -5 0 -10 -16 -10 -35 0 -19 -4 -35 -10 -35 -5 0 -10
-21 -10 -46 0 -40 -16 -74 -34 -74 -3 0 -6 27 -6 60 0 33 4 60 10 60 6 0 10
11 10 24 0 14 5 28 10 31 6 3 10 19 10 36 l0 29 25 0 c14 0 34 -8 45 -17z
m-630 -23 c0 -11 -4 -20 -10 -20 -5 0 -10 9 -10 20 0 11 5 20 10 20 6 0 10 -9
10 -20z m-100 -30 c0 -5 -4 -10 -10 -10 -5 0 -10 5 -10 10 0 6 5 10 10 10 6 0
10 -4 10 -10z m100 -66 c0 -38 -18 -64 -44 -64 -21 0 -20 6 4 32 11 12 20 32
20 45 0 13 5 23 10 23 6 0 10 -16 10 -36z m780 -14 c0 -5 -4 -10 -10 -10 -5 0
-10 5 -10 10 0 6 5 10 10 10 6 0 10 -4 10 -10z m560 -35 c0 -25 -4 -45 -10
-45 -5 0 -10 6 -10 13 0 18 -48 37 -92 37 -21 0 -38 5 -38 10 0 6 20 10 44 10
25 0 48 5 51 10 3 6 17 10 31 10 l24 0 0 -45z m80 -5 c0 -27 -4 -50 -10 -50
-5 0 -10 23 -10 50 0 28 5 50 10 50 6 0 10 -22 10 -50z m-1520 11 c0 -10 -8
-25 -17 -32 l-17 -14 7 18 c4 10 7 25 7 33 0 8 5 14 10 14 6 0 10 -8 10 -19z
m994 -13 c62 -13 106 -43 106 -73 0 -8 5 -15 10 -15 6 0 10 -4 10 -10 0 -19
-55 -11 -68 10 -13 21 -56 27 -67 10 -8 -13 -45 -13 -45 -1 0 5 6 11 13 14 6
2 9 7 6 10 -3 4 -19 1 -36 -5 l-31 -12 -16 16 c-21 21 -20 25 4 31 11 3 20 12
20 21 0 19 15 20 94 4z m-224 -23 c18 -22 -5 -45 -46 -45 -18 0 -36 -4 -39
-10 -10 -16 -45 -12 -45 6 0 10 5 14 16 10 8 -3 25 3 36 14 12 11 28 20 35 20
7 0 13 5 13 10 0 15 16 12 30 -5z m-152 -98 l3 -47 25 0 c13 0 24 -2 24 -4 0
-15 -14 -36 -24 -36 -6 0 -22 -9 -36 -20 -40 -31 -50 -26 -50 29 0 31 5 51 13
54 9 3 9 7 -2 20 -10 12 -30 17 -72 17 -67 0 -82 20 -16 21 60 1 86 5 94 13 4
4 14 5 23 4 10 -2 16 -17 18 -51z m308 19 c27 -28 17 -46 -26 -46 -22 0 -40 5
-40 10 0 6 -9 10 -20 10 -13 0 -20 -7 -20 -20 0 -11 -4 -20 -10 -20 -5 0 -10
-7 -10 -16 0 -18 -23 -44 -40 -44 -16 0 -60 47 -60 65 0 8 -4 15 -10 15 -5 0
-10 9 -10 20 0 11 4 20 8 20 14 0 32 -23 32 -42 0 -10 5 -18 10 -18 6 0 10 -7
10 -15 0 -17 2 -18 24 -9 9 4 16 18 16 33 0 36 41 61 70 43 24 -15 60 -16 60
-2 0 6 -7 10 -15 10 -8 0 -15 5 -15 10 0 15 29 12 46 -4z m-562 -276 c-4 -19
-2 -30 5 -30 6 0 11 -4 11 -10 0 -15 -29 -12 -46 4 -17 18 -3 66 21 66 11 0
13 -7 9 -30z m-64 -55 c0 -25 -4 -45 -10 -45 -5 0 -10 20 -10 45 0 25 5 45 10
45 6 0 10 -20 10 -45z m153 -12 c-7 -3 -13 -17 -13 -33 0 -16 -6 -31 -12 -34
-10 -5 -10 -7 0 -12 20 -10 15 -44 -8 -44 -16 0 -20 7 -20 30 0 17 5 30 10 30
6 0 10 14 10 30 0 36 20 64 35 48 7 -7 6 -12 -2 -15z m-73 -33 c0 -5 -4 -10
-10 -10 -5 0 -10 5 -10 10 0 6 5 10 10 10 6 0 10 -4 10 -10z m760 -47 c0 -102
-32 -113 -44 -15 l-7 52 16 0 c8 0 15 5 15 10 0 6 5 10 10 10 6 0 10 -26 10
-57z m-770 22 c7 -8 10 -25 6 -38 -6 -27 -39 -67 -54 -67 -15 0 -21 48 -10 86
10 37 36 45 58 19z m30 5 c0 -5 -4 -10 -10 -10 -5 0 -10 5 -10 10 0 6 5 10 10
10 6 0 10 -4 10 -10z m720 -140 c0 -5 -4 -10 -10 -10 -5 0 -10 5 -10 10 0 6 5
10 10 10 6 0 10 -4 10 -10z m-442 -82 c2 -4 29 -8 59 -8 43 0 60 -4 73 -20 17
-20 17 -65 -1 -76 -18 -11 -8 -24 17 -24 27 0 65 17 76 34 12 19 20 -2 9 -23
-9 -15 -8 -26 1 -40 7 -11 8 -24 4 -28 -5 -4 -11 -2 -13 5 -9 24 -53 12 -88
-24 -19 -20 -35 -38 -35 -40 0 -13 35 -1 51 18 11 11 22 19 25 15 3 -3 -3 -16
-15 -28 -12 -13 -21 -27 -21 -32 0 -10 -30 -41 -34 -36 -1 2 -13 20 -27 39
-47 69 -64 80 -121 80 l-53 0 -13 -30 c-8 -16 -18 -30 -23 -30 -14 0 -11 78 4
83 9 4 8 8 -3 16 -21 15 -30 14 -30 -4 0 -8 -4 -15 -10 -15 -5 0 -10 -12 -10
-26 0 -27 -36 -68 -51 -58 -5 3 -9 16 -9 30 0 17 8 27 26 34 l26 10 -6 25 -6
25 25 0 c14 0 25 2 25 4 0 2 3 12 7 21 l6 17 -21 -7 c-16 -5 -22 -2 -22 9 0
11 9 16 30 16 17 0 30 5 30 10 0 6 -15 10 -32 10 l-33 0 35 21 c27 17 38 19
52 10 25 -16 41 -14 34 5 -3 9 -4 20 0 25 6 10 57 0 62 -13z m208 -22 c16 -17
19 -46 4 -46 -5 0 -10 9 -10 20 0 11 -4 20 -10 20 -5 0 -10 5 -10 10 0 14 9
12 26 -4z m74 -176 c0 -5 -4 -10 -10 -10 -5 0 -10 5 -10 10 0 6 5 10 10 10 6
0 10 -4 10 -10z m-320 -40 c0 -5 -4 -10 -10 -10 -5 0 -10 5 -10 10 0 6 5 10
10 10 6 0 10 -4 10 -10z m340 0 c0 -5 -4 -10 -10 -10 -5 0 -10 5 -10 10 0 6 5
10 10 10 6 0 10 -4 10 -10z m-260 -20 c0 -5 -4 -10 -10 -10 -5 0 -10 5 -10 10
0 6 5 10 10 10 6 0 10 -4 10 -10z m180 0 c0 -5 9 -10 20 -10 11 0 20 -4 20
-10 0 -5 6 -10 13 -10 25 0 66 -25 78 -47 l12 -22 -16 -15 c-9 -9 -21 -16 -27
-16 -19 0 -47 -33 -32 -38 6 -2 12 -11 12 -21 0 -18 18 -41 32 -41 4 0 8 9 8
20 0 13 7 20 20 20 16 0 20 -7 20 -30 0 -22 -5 -30 -17 -30 -10 0 -23 -12 -30
-26 l-12 -26 14 -14 c16 -16 51 -19 60 -4 12 20 25 9 25 -22 0 -17 5 -48 11
-67 18 -61 26 -85 33 -102 11 -26 -32 -61 -69 -57 l-30 3 -3 35 c-2 26 -14 45
-43 71 -21 20 -39 44 -39 53 0 9 -4 16 -10 16 -5 0 -10 14 -10 30 0 17 -4 30
-10 30 -5 0 -10 14 -10 30 0 17 -4 30 -10 30 -5 0 -10 18 -10 39 0 22 -4 43
-10 46 -5 3 -10 22 -10 41 0 19 -3 34 -8 34 -4 0 -13 13 -20 30 l-14 30 22 30
c21 30 40 39 40 20z m-140 -100 c0 -5 -4 -10 -10 -10 -5 0 -10 5 -10 10 0 6 5
10 10 10 6 0 10 -4 10 -10z m-60 -367 c-1 -27 -20 -63 -34 -63 -10 0 -7 34 7
63 16 35 27 34 27 0z m-60 -103 c0 -5 -4 -10 -10 -10 -5 0 -10 5 -10 10 0 6 5
10 10 10 6 0 10 -4 10 -10z"/>
<path d="M700 1142 c0 -9 -9 -23 -20 -30 -28 -17 -25 -29 8 -35 16 -3 33 0 42
9 10 10 10 14 2 14 -7 0 -12 13 -12 30 0 17 -4 30 -10 30 -5 0 -10 -8 -10 -18z"/>
</g>
</svg>
