<?xml version="1.0" standalone="no"?>
<!DOCTYPE svg PUBLIC "-//W3C//DTD SVG 20010904//EN"
 "http://www.w3.org/TR/2001/REC-SVG-20010904/DTD/svg10.dtd">
<svg version="1.0" xmlns="http://www.w3.org/2000/svg"
 width="228.198996pt" height="278.218812pt" viewBox="0 0 228.198996 278.218812"
 preserveAspectRatio="xMidYMid meet">
<metadata>
Created by Potrace Professional 1.0m
</metadata>
<g transform="translate(-0.000000,278.000000) rotate(-360.00) scale(0.100000,-0.100000)"
fill="#000000" stroke="none">
<path d="M1580 2770 c0 -5 -9 -10 -20 -10 -11 0 -20 -4 -20 -10 0 -5 -13 -10
-29 -10 -17 0 -33 -4 -36 -10 -3 -5 -15 -10 -26 -10 -11 0 -29 -9 -41 -20 -12
-11 -32 -20 -45 -20 -13 0 -23 -4 -23 -8 0 -5 -12 -15 -27 -23 -16 -8 -35 -22
-44 -31 -9 -10 -23 -18 -30 -18 -8 0 -20 -9 -27 -20 l-12 -20 20 0 c10 0 36 9
56 21 44 24 102 22 118 -4 l11 -19 -25 -16 c-13 -10 -39 -32 -57 -49 -18 -18
-39 -33 -47 -33 -8 0 -18 -4 -21 -10 -3 -5 -19 -10 -36 -10 -19 0 -40 -11 -61
-30 -17 -16 -42 -30 -54 -30 -13 0 -24 -4 -24 -10 0 -13 -37 -13 -42 -1 -3 11
-78 -10 -78 -21 0 -5 -7 -8 -16 -8 -23 0 -44 -25 -44 -54 l0 -26 -24 0 c-14 0
-28 -4 -31 -10 -3 -5 -19 -10 -36 -10 l-29 0 0 -36 c0 -19 6 -42 14 -50 l14
-14 33 31 c18 16 38 28 46 25 15 -6 18 -62 3 -71 -7 -4 -8 -11 -2 -18 6 -7 12
-30 15 -52 14 -94 24 -124 54 -159 20 -25 42 -39 65 -42 l34 -6 32 30 c31 29
45 82 22 82 -5 0 -10 9 -10 19 0 11 -4 22 -10 26 -5 3 -7 12 -3 20 3 10 20 15
49 15 l44 0 0 -18 c0 -40 -30 -155 -47 -179 -10 -14 -22 -33 -28 -41 -5 -9
-29 -35 -52 -59 l-42 -43 -38 0 c-41 -1 -73 -19 -73 -41 0 -8 -9 -21 -20 -29
-11 -8 -20 -24 -20 -37 0 -45 -21 -71 -66 -82 -23 -6 -54 -11 -68 -11 -14 0
-26 -4 -26 -10 0 -5 -13 -10 -30 -10 -16 0 -30 -4 -30 -8 0 -4 -13 -15 -28
-24 -16 -10 -46 -33 -67 -53 -21 -19 -47 -35 -56 -35 -10 0 -35 17 -56 38 -52
51 -75 62 -128 62 -59 0 -165 -61 -165 -96 0 -6 -7 -17 -15 -24 -17 -14 -45
-67 -45 -87 0 -7 -3 -13 -8 -13 -25 0 -46 -220 -22 -235 6 -3 10 -24 10 -46 0
-21 5 -39 10 -39 22 0 9 -54 -20 -82 -35 -33 -37 -38 -10 -38 21 0 28 -24 10
-35 -14 -9 -12 -82 3 -89 10 -5 10 -7 0 -12 -7 -3 -13 -19 -13 -34 0 -16 -5
-32 -10 -35 -6 -3 -10 -26 -10 -51 0 -24 -4 -44 -10 -44 -5 0 -10 -9 -10 -20
0 -11 6 -20 13 -20 16 0 47 32 47 48 0 23 28 12 38 -15 12 -33 37 -63 75 -87
17 -12 27 -27 27 -42 0 -13 5 -24 10 -24 6 0 10 -13 10 -30 0 -16 5 -30 10
-30 6 0 10 20 10 43 0 31 6 49 20 62 21 19 28 75 10 75 -5 0 -10 14 -10 30 0
20 5 30 15 30 9 0 36 20 60 44 l45 44 0 50 0 50 39 7 c25 4 41 13 44 24 3 14
14 18 47 18 24 0 46 6 50 13 7 11 12 10 25 -4 l18 -17 -7 -56 c-6 -53 -32
-113 -48 -113 -12 0 -10 -48 2 -55 6 -3 10 -15 10 -26 0 -10 5 -19 10 -19 6 0
10 -7 10 -15 0 -8 27 -42 60 -75 33 -33 60 -67 60 -75 0 -8 4 -24 9 -37 5 -13
15 -43 22 -68 17 -56 33 -74 62 -66 12 3 29 1 37 -4 l15 -9 -12 -21 c-21 -32
-17 -70 7 -70 11 0 20 -4 20 -9 0 -5 19 -11 43 -15 23 -3 59 -8 80 -12 l37 -6
0 16 c0 9 5 25 12 35 l12 19 -42 39 c-22 21 -51 47 -64 59 -28 25 -58 62 -58
72 0 4 -14 23 -30 42 -16 19 -30 38 -30 42 0 3 -22 30 -49 58 l-49 52 -7 48
c-9 67 11 120 45 120 18 0 68 57 87 99 9 20 18 38 20 40 5 7 93 -88 93 -100 0
-6 -13 -24 -30 -39 -29 -27 -40 -60 -20 -60 6 0 10 -7 10 -16 0 -18 24 -44 41
-44 20 0 119 -124 119 -149 0 -6 5 -11 10 -11 6 0 10 -11 10 -24 0 -50 34
-116 59 -116 7 0 9 -10 5 -25 -8 -30 15 -55 50 -55 14 0 26 -4 26 -10 0 -5 10
-10 23 -10 13 0 28 -5 34 -11 9 -9 18 -5 37 14 26 26 35 57 16 57 -5 0 -10 8
-10 18 0 10 -9 24 -20 32 -11 8 -20 20 -20 26 0 6 -13 25 -30 42 -16 18 -30
37 -30 43 0 6 -13 24 -30 39 -16 15 -30 33 -30 39 0 6 -9 15 -20 21 -11 6 -20
17 -20 25 0 8 -4 15 -10 15 -5 0 -10 9 -10 20 0 11 -3 20 -8 20 -4 0 -13 14
-21 30 l-13 31 14 17 c7 9 21 26 31 36 9 11 17 34 17 51 0 36 29 55 83 55 21
0 38 7 47 20 8 11 22 20 32 20 10 0 18 4 18 9 0 5 30 12 68 15 37 4 95 9 130
12 83 8 122 -7 122 -47 0 -16 -4 -29 -10 -29 -5 0 -10 -9 -10 -20 0 -11 -4
-20 -10 -20 -5 0 -10 -7 -10 -16 0 -8 -18 -33 -40 -54 -22 -21 -40 -43 -40
-48 0 -11 -44 -42 -60 -42 -17 0 -35 -22 -48 -58 -16 -46 1 -82 39 -82 15 0
31 4 34 10 3 5 15 10 25 10 21 0 119 93 139 133 8 15 18 27 23 27 4 0 8 6 8
13 0 18 24 67 33 67 4 0 7 7 7 15 0 8 18 34 40 57 l40 43 0 52 c0 41 4 53 15
53 8 0 23 4 33 9 9 5 28 13 42 19 14 5 38 15 55 22 21 8 31 8 33 1 2 -6 12
-11 21 -11 21 0 81 -63 81 -85 0 -8 5 -15 10 -15 6 0 10 -9 10 -19 0 -11 5
-23 10 -26 6 -3 10 -30 10 -60 0 -34 5 -55 13 -58 10 -4 10 -7 0 -18 -21 -22
-16 -77 10 -102 49 -46 98 -77 123 -77 l16 0 -6 88 c-9 142 -16 174 -46 213
-28 35 -70 144 -70 181 0 10 -4 18 -10 18 -5 0 -10 9 -10 19 0 11 -10 38 -22
61 l-23 42 -35 -7 c-50 -9 -260 -18 -260 -12 0 20 23 116 32 135 6 12 20 22
30 22 10 0 18 5 18 10 0 6 29 10 66 10 81 0 93 10 104 92 5 35 14 64 20 66 5
2 10 12 10 23 0 10 5 19 10 19 6 0 10 7 10 16 0 18 23 44 40 44 26 0 40 30 40
84 l0 56 18 0 c9 0 23 -13 30 -30 18 -41 37 -39 27 3 -18 81 -26 126 -32 180
l-5 58 -19 -6 -19 -6 0 40 c0 27 -4 41 -13 41 -7 0 -23 9 -35 20 -12 11 -32
20 -46 20 -14 0 -28 5 -31 10 -3 6 -22 10 -41 10 -19 0 -34 5 -34 10 0 6 -12
10 -26 10 -14 0 -32 7 -41 16 -9 8 -22 13 -29 10 -7 -3 -16 -1 -19 4 -4 6 -14
10 -23 10 -10 0 -24 9 -32 20 -20 28 -54 27 -44 -2 4 -14 -11 -4 -47 32 l-53
53 22 8 c12 5 25 17 29 26 4 10 15 25 25 34 10 9 18 22 18 29 0 6 14 25 30 40
17 15 30 32 30 37 0 5 8 18 18 29 43 48 51 94 16 94 -8 0 -14 5 -14 10 0 6 -7
10 -16 10 -9 0 -29 14 -44 30 -15 17 -35 30 -44 30 -9 0 -16 8 -16 20 0 11 -6
20 -13 20 -7 0 -23 9 -35 20 l-22 21 -25 -25 c-14 -14 -25 -30 -25 -36 0 -11
-24 -40 -33 -40 -5 0 -27 58 -27 71 0 5 9 9 20 9 11 0 20 5 20 10 0 6 7 10 15
10 20 0 65 44 65 63 0 21 -21 26 -84 20 l-56 -6 0 22 c0 11 4 21 9 21 5 0 11
8 13 18 3 10 22 26 42 36 39 18 49 46 16 46 -11 0 -20 -4 -20 -10z m-100 -299
c0 -5 14 -14 30 -21 17 -7 30 -19 30 -26 0 -8 -13 -28 -30 -46 -16 -17 -30
-37 -30 -44 0 -8 -4 -14 -10 -14 -13 0 -13 -47 0 -55 8 -5 7 -12 -2 -22 -10
-12 -27 -14 -82 -10 -38 3 -74 11 -80 17 -13 13 -66 13 -66 0 0 -5 -11 -10
-24 -10 -14 0 -28 -4 -31 -10 -3 -5 -24 -10 -46 -10 l-39 0 0 46 c0 51 17 73
58 74 12 0 22 5 22 10 0 6 13 10 28 10 16 0 34 8 42 20 8 11 22 20 32 20 10 0
18 5 18 10 0 6 7 10 15 10 9 0 25 9 37 20 12 11 32 20 45 20 13 0 23 5 23 10
0 6 14 10 30 10 17 0 30 -4 30 -9z m-520 -304 c0 -24 30 -76 55 -95 l23 -19 4
-69 3 -69 -20 0 c-13 0 -21 8 -23 23 -2 12 -7 22 -12 22 -7 0 -10 13 -26 118
-3 23 -10 45 -15 48 -12 7 -11 54 1 54 6 0 10 -6 10 -13z m900 -767 c0 -11 -4
-20 -10 -20 -5 0 -10 9 -10 20 0 11 5 20 10 20 6 0 10 -9 10 -20z m-1408 -180
c-1 -19 -5 -81 -8 -137 -6 -101 -24 -145 -24 -59 l0 44 -50 51 c-52 53 -61 83
-37 122 l12 20 55 -3 55 -3 -3 -35z m1408 30 c0 -5 -4 -10 -10 -10 -5 0 -10 5
-10 10 0 6 5 10 10 10 6 0 10 -4 10 -10z"/>
</g>
</svg>
