<?xml version="1.0" standalone="no"?>
<!DOCTYPE svg PUBLIC "-//W3C//DTD SVG 20010904//EN"
 "http://www.w3.org/TR/2001/REC-SVG-20010904/DTD/svg10.dtd">
<svg version="1.0" xmlns="http://www.w3.org/2000/svg"
 width="326.012389pt" height="295.967764pt" viewBox="0 0 326.012389 295.967764"
 preserveAspectRatio="xMidYMid meet">
<metadata>
Created by Potrace Professional 1.0m
</metadata>
<g transform="translate(-1.873460,297.803645) rotate(-360.00) scale(0.100000,-0.100000)"
fill="#000000" stroke="none">
<path d="M2143 2967 c-24 -6 -43 -14 -43 -19 0 -4 -13 -8 -30 -8 -16 0 -30 5
-30 10 0 6 -13 10 -30 10 -16 0 -30 -4 -30 -10 0 -5 -9 -10 -20 -10 -11 0 -20
-4 -20 -10 0 -5 -9 -10 -20 -10 -11 0 -20 -4 -20 -10 0 -5 -6 -10 -14 -10 -7
0 -26 -12 -42 -28 -16 -15 -45 -38 -64 -52 -58 -41 -155 -143 -181 -191 -13
-24 -32 -51 -41 -60 -10 -9 -18 -23 -18 -32 0 -9 -4 -19 -10 -22 -5 -3 -10
-16 -10 -29 0 -12 -4 -26 -9 -31 -10 -11 -31 -136 -31 -187 0 -45 19 -83 51
-102 14 -8 45 -34 70 -58 24 -24 65 -54 91 -67 l48 -24 69 6 69 6 19 -17 c11
-9 22 -25 26 -34 3 -10 13 -18 21 -18 8 0 16 -5 18 -12 4 -10 13 -10 45 0 22
7 54 12 70 12 17 0 38 9 48 20 10 11 29 20 42 20 14 0 31 6 39 14 16 17 20
106 4 106 -5 0 -10 9 -10 20 0 11 -4 20 -10 20 -5 0 -10 7 -10 16 0 20 -24 44
-44 44 -9 0 -16 5 -16 10 0 13 -35 13 -58 1 -9 -5 -32 -16 -49 -23 -18 -7 -33
-16 -33 -20 0 -5 -13 -8 -30 -8 -36 0 -41 27 -10 50 l20 14 0 128 c0 79 -4
128 -10 128 -6 0 -10 -43 -10 -109 l0 -110 -37 -30 c-21 -17 -46 -31 -56 -31
-17 0 -47 -22 -47 -34 0 -3 14 -6 30 -6 41 0 38 -16 -5 -23 -42 -7 -145 3
-145 14 0 4 -7 9 -17 11 -11 2 -17 16 -20 46 -6 62 9 72 108 72 l82 0 13 18
c7 9 14 34 14 54 0 20 5 40 10 43 6 3 10 22 10 41 0 20 5 44 10 55 8 14 7 23
-3 33 l-13 14 -25 -19 c-13 -10 -28 -19 -33 -19 -5 0 -16 -8 -25 -17 -38 -42
-111 -59 -111 -27 0 18 23 44 39 44 6 0 25 14 43 30 17 17 37 30 44 30 8 0 14
5 14 10 0 20 72 11 91 -12 11 -11 21 -19 22 -17 2 2 14 20 27 39 30 44 59 70
77 70 20 0 75 -30 94 -51 9 -11 22 -19 28 -19 25 0 61 -49 61 -83 0 -38 27
-57 81 -57 21 0 40 -9 58 -27 42 -44 64 -53 85 -37 12 9 17 20 13 35 l-6 21
31 -6 c16 -3 42 -19 57 -35 15 -16 38 -31 52 -33 l24 -3 3 27 c2 17 -4 36 -17
50 -12 12 -21 29 -21 37 -1 22 -24 51 -41 51 -8 0 -21 9 -29 20 -8 11 -18 20
-22 20 -16 0 -7 -36 12 -50 24 -17 26 -30 4 -30 -17 0 -84 67 -84 83 0 5 -36
44 -80 88 -44 43 -80 83 -80 89 0 6 -11 22 -25 36 -14 14 -28 39 -32 55 -4 20
-12 29 -24 29 -11 0 -19 -4 -19 -10 0 -5 -6 -10 -14 -10 -7 0 -27 -13 -44 -30
-18 -16 -39 -30 -47 -30 -8 0 -15 -4 -15 -8 0 -5 -12 -15 -27 -23 -16 -8 -37
-22 -47 -31 -24 -21 -65 -23 -91 -4 l-18 13 31 19 c18 10 32 22 32 26 0 4 6 8
14 8 8 0 28 14 46 30 18 17 38 30 46 30 8 0 14 5 14 10 0 6 9 10 19 10 11 0
23 5 26 10 3 6 14 10 24 10 9 0 27 9 39 20 22 21 72 28 72 10 0 -5 7 -10 15
-10 9 0 19 -8 22 -17 4 -9 19 -30 35 -47 15 -16 28 -35 28 -42 0 -8 3 -14 8
-14 4 0 13 -13 20 -30 15 -33 32 -40 32 -12 0 10 -9 24 -20 32 -11 8 -20 22
-20 32 0 10 -4 18 -10 18 -5 0 -10 8 -10 18 0 10 -9 24 -20 32 -11 8 -20 20
-20 28 0 18 -25 42 -44 42 -8 0 -18 5 -21 10 -7 11 -13 11 -72 -3z m22 -242
c19 -19 35 -38 35 -42 0 -4 12 -21 26 -37 20 -22 28 -26 34 -16 l8 13 17 -16
c9 -9 33 -24 53 -34 39 -18 61 -40 62 -60 0 -26 -31 -11 -79 37 -55 55 -66 61
-56 29 l7 -20 -23 13 c-47 27 -129 119 -129 143 0 32 4 32 45 -10z m-345 -295
c0 -16 -4 -30 -10 -30 -5 0 -10 14 -10 30 0 17 5 30 10 30 6 0 10 -13 10 -30z
m-190 -25 c10 -12 10 -18 0 -30 -7 -8 -18 -15 -25 -15 -19 0 -36 25 -29 44 8
20 38 21 54 1z m343 -287 c13 -16 21 -19 24 -10 3 6 13 12 24 12 10 0 19 5 19
10 0 17 25 11 48 -10 12 -11 28 -20 37 -20 18 0 19 -22 3 -67 -15 -41 -28 -43
-28 -3 0 34 -21 40 -46 15 l-15 -15 15 -16 c23 -22 20 -34 -9 -34 -14 0 -25 3
-25 8 0 10 -50 32 -72 32 l-17 0 6 30 c3 19 1 30 -6 30 -6 0 -11 -9 -11 -20 0
-23 -17 -25 -42 -6 -21 16 -24 46 -5 46 8 0 22 9 33 19 25 26 43 26 67 -1z
m-173 -48 c0 -5 -4 -10 -10 -10 -5 0 -10 5 -10 10 0 6 5 10 10 10 6 0 10 -4
10 -10z"/>
<path d="M2400 2681 c0 -10 6 -21 13 -24 10 -4 13 2 9 19 -5 28 -22 32 -22 5z"/>
<path d="M818 1930 c-1 -5 -37 -14 -78 -20 -41 -6 -79 -15 -84 -20 -6 -6 -36
-10 -69 -10 -32 0 -68 -5 -80 -11 -16 -9 -22 -9 -25 0 -5 15 -45 14 -60 -1 -9
-9 -15 -9 -24 0 -7 7 -43 12 -91 12 l-80 0 -23 -27 c-17 -20 -24 -40 -24 -70
0 -24 5 -43 10 -43 6 0 10 -7 10 -15 0 -28 24 -65 42 -65 10 0 18 -4 18 -9 0
-6 23 -11 52 -13 l51 -3 21 -36 c44 -75 61 -99 68 -99 4 0 8 -7 8 -16 0 -9 14
-30 30 -46 17 -15 30 -33 30 -38 0 -20 175 -180 197 -180 16 0 63 -48 63 -64
0 -9 5 -16 10 -16 6 0 10 -24 10 -52 -1 -53 -16 -88 -40 -88 -17 0 -140 -128
-140 -146 0 -8 -4 -14 -10 -14 -5 0 -10 -13 -10 -30 0 -16 -4 -30 -10 -30 -5
0 -10 -8 -10 -19 l0 -19 -75 -7 c-41 -4 -109 -4 -151 0 -56 6 -82 4 -102 -6
-37 -19 -72 -55 -72 -73 0 -8 -4 -18 -10 -21 -13 -8 -13 -72 0 -80 6 -3 10
-44 10 -91 0 -46 3 -84 8 -84 4 0 8 -23 9 -50 1 -28 -2 -50 -7 -50 -6 0 -10
-10 -10 -22 0 -22 -40 -78 -55 -78 -4 0 -17 -10 -29 -22 -12 -13 -34 -32 -49
-43 -69 -50 -2 -96 92 -62 43 14 61 30 61 51 0 9 5 16 11 16 7 0 9 11 6 29
-12 57 53 72 91 21 13 -17 29 -30 37 -30 8 0 15 -4 15 -10 0 -5 14 -10 30 -10
l30 0 0 68 0 68 -20 14 c-23 16 -28 70 -7 70 7 0 23 9 35 20 12 11 28 20 36
20 8 0 18 5 21 10 8 13 202 13 210 0 3 -5 19 -10 35 -10 16 0 32 -4 35 -10 4
-6 58 -10 131 -10 87 0 124 -3 124 -12 0 -8 34 -9 128 -4 101 5 315 14 467 19
11 0 22 4 26 9 3 4 29 9 58 10 29 1 55 6 57 10 3 4 23 8 45 8 21 0 39 4 39 9
0 5 19 12 43 15 23 3 62 8 86 12 31 5 46 3 52 -7 6 -10 34 -14 108 -14 l100 0
33 -27 c18 -15 39 -28 46 -28 6 0 12 -3 12 -8 0 -10 73 -32 105 -32 27 0 135
-98 135 -123 0 -7 11 -23 23 -36 l24 -22 129 3 129 3 3 16 c1 8 -14 34 -35 57
l-38 42 -37 0 c-20 0 -38 -4 -40 -9 -1 -5 -18 -11 -36 -13 l-33 -3 -17 30 c-9
16 -25 38 -36 47 l-19 18 16 6 c25 9 187 -12 187 -25 0 -3 13 -12 28 -19 16
-7 35 -25 43 -40 8 -15 22 -36 32 -46 9 -11 17 -28 17 -38 0 -10 9 -28 20 -40
11 -12 20 -30 20 -41 0 -10 9 -21 20 -24 11 -3 20 -9 20 -13 0 -8 43 -14 193
-26 l67 -6 0 21 c0 12 -4 21 -10 21 -5 0 -10 9 -10 20 0 11 -4 20 -10 20 -5 0
-10 6 -10 14 0 21 -36 30 -108 27 -70 -2 -74 1 -112 69 -13 25 -32 53 -41 63
-16 18 -22 38 -36 116 -14 83 -52 111 -149 111 -34 0 -66 4 -69 10 -3 5 -24
10 -46 10 l-39 0 0 30 c0 17 -4 30 -10 30 -5 0 -10 24 -10 54 0 30 -4 58 -10
61 -5 3 -10 21 -10 40 0 19 -4 37 -10 40 -6 3 -10 13 -10 21 0 8 -13 29 -30
47 -43 46 -41 78 2 37 12 -11 32 -20 44 -20 12 0 24 -6 27 -12 3 -10 9 -10 27
0 16 10 25 11 33 3 6 -6 21 -11 34 -11 13 0 23 -4 23 -10 0 -5 9 -10 20 -10
11 0 20 -4 20 -10 0 -5 9 -10 20 -10 11 0 20 -4 20 -10 0 -5 16 -10 35 -10 36
0 47 13 20 24 -8 3 -15 12 -15 21 0 8 -9 15 -20 15 -11 0 -20 5 -20 10 0 6 -5
10 -11 10 -15 0 -69 39 -69 51 0 5 9 9 20 9 11 0 20 -4 20 -10 0 -5 8 -10 18
-10 10 0 24 -9 32 -20 8 -11 24 -20 37 -20 12 0 25 -4 28 -10 3 -5 19 -10 36
-10 16 0 29 5 29 10 0 6 7 10 15 10 8 0 15 5 15 10 0 6 -6 10 -13 10 -18 0
-67 24 -67 33 0 4 10 7 23 7 12 0 29 9 37 20 8 12 26 20 42 20 15 0 28 5 28
10 0 6 -4 10 -10 10 -5 0 -10 7 -10 15 l0 14 86 -6 c68 -5 88 -3 95 8 7 11 10
9 15 -8 6 -23 24 -32 24 -13 0 6 15 10 34 10 22 0 36 6 40 16 9 24 9 24 -29
24 -19 0 -35 5 -35 10 0 6 5 10 11 10 15 0 39 26 39 43 0 8 -6 19 -12 25 -29
22 -568 4 -568 -20 0 -4 -18 -8 -39 -8 -22 0 -42 -4 -45 -9 -3 -5 -20 -11 -38
-14 -76 -13 -98 -20 -98 -28 0 -5 -5 -9 -11 -9 -6 0 -25 -10 -41 -22 l-31 -21
-18 11 c-10 7 -28 12 -39 12 -11 0 -20 5 -20 10 0 6 -9 10 -20 10 -11 0 -20 4
-20 9 0 9 -27 15 -140 30 -72 10 -258 3 -266 -11 -7 -12 -281 -10 -289 2 -3 5
-19 10 -36 10 -16 0 -29 3 -29 8 0 4 -13 13 -30 20 -47 21 -36 34 23 30 28 -2
59 -6 67 -9 11 -3 15 5 16 33 l1 37 -26 3 c-28 3 -44 38 -17 38 9 0 16 -4 16
-10 0 -11 73 -14 83 -3 14 14 -17 33 -54 33 -22 0 -39 5 -39 10 0 6 -13 10
-28 10 -27 0 -52 15 -52 32 0 13 95 9 108 -4 9 -9 15 -9 23 -1 20 20 -1 33
-51 33 -27 0 -52 5 -55 10 -4 6 10 10 34 10 23 0 41 5 41 10 0 6 9 10 20 10
11 0 20 5 20 10 0 6 -6 10 -13 10 -18 0 -67 24 -67 33 0 4 23 7 50 7 28 0 50
5 50 10 0 6 -4 10 -10 10 -5 0 -10 7 -10 16 0 21 -49 64 -73 64 -24 0 -17 22
11 35 28 12 29 45 2 45 -11 0 -20 5 -20 10 0 6 -13 10 -30 10 -16 0 -30 5 -30
10 0 6 18 10 40 10 22 0 40 5 40 10 0 6 -13 10 -30 10 -16 0 -30 5 -30 10 0 6
-9 10 -20 10 -11 0 -20 5 -20 10 0 6 -16 10 -35 10 -21 0 -44 8 -60 22 -32 27
-32 38 0 38 14 0 25 5 25 10 0 6 -3 9 -7 9 -37 -6 -63 3 -63 21 0 15 -7 20
-29 20 -17 0 -33 -4 -36 -10 -10 -17 -35 -11 -35 8 0 16 -40 42 -67 42 -7 0
-13 5 -13 10 0 6 -27 10 -60 10 l-60 0 0 20 0 20 -89 0 c-49 0 -91 -4 -93 -10z
m-493 -110 c3 -11 13 -27 22 -35 25 -25 10 -27 -41 -6 -48 21 -54 29 -34 49
18 18 46 14 53 -8z m115 10 c0 -5 9 -10 20 -10 11 0 20 5 20 10 0 6 27 10 60
10 64 0 72 -7 40 -30 -28 -20 -25 -30 10 -30 17 0 30 5 30 10 0 14 26 13 50
-2 15 -9 24 -9 43 1 13 7 38 11 57 9 33 -3 61 -30 46 -45 -7 -7 -100 -16 -322
-29 l-92 -5 -5 33 c-3 18 -9 45 -12 61 l-7 27 31 0 c17 0 31 -4 31 -10z m369
-135 c14 -8 -29 -55 -50 -55 -10 0 -21 -4 -24 -10 -20 -33 -166 17 -152 53 5
13 208 24 226 12z m111 -45 c0 -5 18 -10 40 -10 22 0 40 -4 40 -10 0 -5 9 -10
20 -10 l20 0 0 -44 c0 -25 5 -48 10 -51 6 -3 10 -17 10 -30 0 -32 103 -140
125 -132 8 4 15 13 15 22 0 19 7 19 26 1 8 -8 14 -26 14 -40 0 -14 5 -26 10
-26 6 0 10 -16 10 -36 0 -27 7 -43 30 -64 17 -15 30 -35 30 -43 0 -9 6 -17 13
-20 9 -3 9 -7 -2 -20 -15 -19 -115 -24 -126 -7 -3 6 -15 10 -26 10 -10 0 -19
7 -19 15 0 8 -13 29 -30 47 -16 17 -30 39 -30 48 0 20 -27 46 -37 36 -4 -4 -6
-32 -5 -63 3 -67 -8 -83 -58 -83 -44 0 -51 11 -40 68 5 31 3 44 -9 56 -10 11
-15 33 -14 71 1 30 -3 57 -8 60 -5 4 -9 28 -9 56 0 27 -4 49 -10 49 -6 0 -10
33 -10 80 0 47 4 80 10 80 6 0 10 -4 10 -10z m-407 -42 c15 -7 27 -16 27 -20
0 -5 9 -8 20 -8 11 0 20 -4 20 -10 0 -5 9 -10 20 -10 11 0 20 -4 20 -10 0 -5
10 -10 23 -10 13 0 33 -9 44 -19 11 -11 36 -21 54 -23 l34 -3 3 -64 c2 -36 -2
-69 -7 -74 -6 -6 -11 -21 -11 -34 0 -14 -6 -23 -15 -23 -16 0 -225 205 -225
221 0 5 -9 19 -20 31 -11 12 -20 28 -20 35 0 7 -4 13 -10 13 -5 0 -10 5 -10
10 0 14 20 13 53 -2z m-23 -93 c7 -9 8 -15 2 -15 -5 0 -12 7 -16 15 -3 8 -4
15 -2 15 2 0 9 -7 16 -15z m74 -90 c20 -19 36 -39 36 -45 0 -6 8 -14 18 -17 9
-4 34 -24 54 -45 20 -21 42 -38 48 -38 12 0 40 -24 40 -34 0 -15 -30 -3 -58
24 -18 17 -36 30 -41 30 -15 0 -121 112 -121 127 0 7 -4 13 -10 13 -5 0 -10 5
-10 10 0 16 6 12 44 -25z m302 -63 c7 -10 12 -55 13 -100 l1 -82 -20 0 -20 0
0 49 c0 30 5 51 13 54 9 4 8 8 -3 17 -11 9 -12 13 -2 17 15 6 16 35 0 51 -7 7
-8 12 -2 12 5 0 14 -8 20 -18z m74 -252 c0 -5 15 -10 33 -10 17 0 41 -7 52
-16 l20 -15 -23 -5 c-12 -4 -22 -14 -22 -25 0 -10 -5 -21 -11 -25 -8 -4 -7 -9
2 -15 10 -6 8 -13 -10 -28 -13 -12 -28 -21 -32 -21 -4 0 -26 -18 -49 -40 -42
-40 -60 -49 -60 -29 0 6 9 13 20 16 21 6 27 28 10 38 -5 3 -10 24 -10 46 0 21
5 39 10 39 6 0 10 11 10 24 0 14 5 28 10 31 6 3 10 15 10 26 0 12 7 19 20 19
11 0 20 -4 20 -10z m1298 -172 c3 -14 -3 -18 -26 -18 -17 0 -32 -6 -34 -12 -3
-9 -10 -8 -22 5 -10 10 -17 19 -15 21 36 29 92 31 97 4z m562 12 c0 -5 -4 -10
-10 -10 -5 0 -10 5 -10 10 0 6 5 10 10 10 6 0 10 -4 10 -10z m55 -20 c3 -5 -3
-10 -14 -10 -12 0 -21 5 -21 10 0 6 6 10 14 10 8 0 18 -4 21 -10z m-655 -60
c0 -5 12 -10 26 -10 14 0 32 -7 41 -15 9 -9 23 -13 34 -10 l19 6 0 -30 c0 -35
-21 -42 -46 -16 -20 19 -29 19 -49 -1 -18 -19 -17 -20 -33 27 -15 43 -15 59
-2 59 6 0 10 -4 10 -10z m225 -25 c19 -19 35 -41 35 -49 0 -8 5 -16 11 -18 7
-2 12 -24 12 -48 0 -24 -5 -46 -12 -48 -15 -5 -14 -39 2 -45 7 -3 25 -3 38 0
l25 5 2 -67 c1 -38 7 -72 15 -78 12 -12 115 -37 153 -37 25 0 72 -22 78 -36 3
-7 -12 -9 -46 -6 -28 3 -53 0 -57 -5 -3 -6 -50 -13 -103 -16 l-98 -6 0 24 0
25 -40 0 c-60 0 -160 65 -160 105 0 8 -4 15 -10 15 -5 0 -10 9 -10 19 0 11 -4
21 -8 23 -5 2 -12 16 -16 31 l-7 28 19 -10 c23 -12 32 -5 32 26 0 13 4 23 8
23 13 0 52 -49 52 -65 0 -8 4 -15 9 -15 4 0 9 27 9 60 0 33 -3 60 -9 60 -5 0
-9 7 -9 16 0 18 23 44 39 44 16 0 14 16 -4 34 -19 19 -19 46 0 46 9 0 31 -16
50 -35z m-1085 -35 c0 -5 -4 -10 -10 -10 -5 0 -10 -13 -10 -30 0 -18 -5 -30
-13 -30 -22 0 -25 9 -14 46 7 22 17 34 29 34 10 0 18 -4 18 -10z m60 -18 c0
-14 -11 -21 -26 -15 -21 8 -17 23 6 23 11 0 20 -4 20 -8z m60 -51 c0 -11 -5
-23 -11 -27 -15 -9 -33 12 -26 30 9 23 37 20 37 -3z m-267 -13 c47 -24 57 -28
72 -28 8 0 15 -4 15 -10 0 -5 -9 -10 -20 -10 -11 0 -20 -4 -20 -10 0 -5 -22
-10 -50 -10 l-50 0 0 33 c0 49 12 57 53 35z m-126 -64 c28 -28 33 -38 22 -45
-23 -14 -29 -11 -29 16 0 14 -4 25 -10 25 -5 0 -10 -9 -10 -20 0 -15 -7 -20
-25 -20 l-25 0 6 27 c6 24 23 51 32 53 1 0 19 -16 39 -36z m-607 6 c10 -14 49
-30 74 -30 19 0 26 -5 26 -20 l0 -19 -42 3 c-24 2 -50 6 -58 9 -67 23 -170 32
-181 16 -4 -7 -12 -10 -16 -5 -4 5 -2 11 5 13 19 7 14 23 -8 23 -38 0 -20 19
23 23 53 5 170 -3 177 -13z m440 -20 c0 -33 -11 -37 -56 -20 l-27 11 18 19
c10 11 29 20 42 20 l23 0 0 -30z m420 20 c0 -5 14 -10 30 -10 19 0 30 -5 30
-14 0 -8 3 -21 6 -30 3 -9 1 -16 -5 -16 -6 0 -34 -24 -62 -52 l-50 -53 -19 23
c-25 30 -43 28 -58 -8 -8 -16 -19 -30 -25 -30 -6 0 -20 -9 -32 -20 l-22 -20
-172 -2 c-117 0 -176 3 -184 11 -6 6 -19 11 -30 11 -17 0 -47 22 -47 34 0 3
47 3 103 -1 107 -6 177 1 177 17 0 6 -9 10 -20 10 -24 0 -27 25 -4 34 25 10
84 7 84 -4 0 -5 18 -10 39 -10 22 0 43 5 46 10 11 17 32 11 38 -12 l6 -21 15
13 c23 18 20 50 -4 50 -14 0 -20 7 -20 22 0 17 3 19 12 10 7 -7 43 -12 90 -12
l78 0 0 20 c0 11 -4 20 -10 20 -5 0 -10 9 -10 20 0 11 5 20 10 20 6 0 10 -4
10 -10z m-937 -107 c20 -3 37 -10 37 -14 0 -5 9 -9 20 -9 12 0 20 -7 20 -16 0
-18 -23 -44 -40 -44 -6 0 -29 -18 -51 -41 -45 -47 -82 -51 -87 -9 -2 14 -8 29
-13 34 -12 13 -12 56 1 56 6 0 10 7 10 15 0 25 23 45 45 39 11 -3 37 -8 58
-11z m197 -73 c0 -5 -9 -10 -20 -10 -11 0 -20 5 -20 10 0 6 9 10 20 10 11 0
20 -4 20 -10z m-60 -17 c0 -10 -52 -35 -58 -29 -2 3 2 12 9 20 14 16 49 22 49
9z m-246 -197 c-3 -9 -9 -16 -13 -16 -4 0 -17 -9 -30 -21 -12 -12 -25 -18 -29
-14 -4 3 11 22 33 40 41 36 50 38 39 11z m2416 -86 c0 -5 -7 -10 -16 -10 -8 0
-12 5 -9 10 3 6 10 10 16 10 5 0 9 -4 9 -10z m-2520 -35 c0 -8 -7 -15 -15 -15
-16 0 -20 12 -8 23 11 12 23 8 23 -8z m3010 -71 c0 -8 -4 -12 -10 -9 -5 3 -10
10 -10 16 0 5 5 9 10 9 6 0 10 -7 10 -16z"/>
<path d="M2400 761 c0 -19 23 -35 34 -24 14 15 5 43 -14 43 -13 0 -20 -7 -20
-19z"/>
<path d="M2380 600 c0 -11 4 -20 9 -20 11 0 22 26 14 34 -12 12 -23 5 -23 -14z"/>
<path d="M1220 690 c0 -5 5 -10 10 -10 6 0 10 5 10 10 0 6 -4 10 -10 10 -5 0
-10 -4 -10 -10z"/>
<path d="M1640 1450 c0 -5 5 -10 10 -10 6 0 10 5 10 10 0 6 -4 10 -10 10 -5 0
-10 -4 -10 -10z"/>
<path d="M3134 969 c-4 -7 -21 -9 -40 -6 l-34 6 14 -15 c14 -13 106 -21 106
-8 0 7 -27 34 -34 34 -3 0 -8 -5 -12 -11z"/>
<path d="M3040 930 c0 -5 5 -10 10 -10 6 0 10 5 10 10 0 6 -4 10 -10 10 -5 0
-10 -4 -10 -10z"/>
<path d="M2970 850 c0 -5 7 -10 15 -10 8 0 15 5 15 10 0 6 -7 10 -15 10 -8 0
-15 -4 -15 -10z"/>
<path d="M2840 834 c0 -14 29 -31 63 -37 l37 -6 -14 15 c-8 8 -26 14 -40 14
-14 0 -26 5 -26 10 0 6 -4 10 -10 10 -5 0 -10 -3 -10 -6z"/>
<path d="M2620 796 c0 -18 94 -96 114 -96 12 0 6 52 -7 64 -7 7 -26 15 -42 18
-17 3 -38 9 -47 13 -10 4 -18 4 -18 1z"/>
</g>
</svg>
