<?xml version="1.0" standalone="no"?>
<!DOCTYPE svg PUBLIC "-//W3C//DTD SVG 20010904//EN"
 "http://www.w3.org/TR/2001/REC-SVG-20010904/DTD/svg10.dtd">
<svg version="1.0" xmlns="http://www.w3.org/2000/svg"
 width="465.984640pt" height="197.796558pt" viewBox="0 0 465.984640 197.796558"
 preserveAspectRatio="xMidYMid meet">
<metadata>
Created by Potrace Professional 1.0m
</metadata>
<g transform="translate(-2.015360,197.896558) rotate(-360.00) scale(0.100000,-0.100000)"
fill="#000000" stroke="none">
<path d="M2055 1970 c-3 -5 -15 -10 -26 -10 -24 0 -49 -22 -49 -44 0 -9 -4
-16 -10 -16 -5 0 -10 -13 -10 -30 0 -16 5 -30 10 -30 6 0 10 -7 10 -16 0 -32
65 -70 100 -59 25 8 100 77 100 92 0 15 -25 63 -32 63 -5 0 -8 7 -8 15 0 8
-16 22 -36 30 -43 18 -41 18 -49 5z m45 -34 c0 -2 3 -11 6 -20 5 -12 0 -16
-20 -16 -24 0 -35 18 -19 33 7 8 33 10 33 3z m-10 -60 c0 -18 -15 -36 -31 -36
-12 0 -19 7 -19 20 0 15 7 20 25 20 14 0 25 -2 25 -4z m-70 -20 c0 -11 -19
-15 -25 -6 -3 5 1 10 9 10 9 0 16 -2 16 -4z m87 -43 c-9 -9 -20 -13 -24 -9 -4
4 -1 11 7 16 25 16 35 11 17 -7z"/>
<path d="M1380 1810 c0 -5 -7 -10 -16 -10 -27 0 -43 -32 -44 -84 l0 -49 28
-23 c21 -18 39 -24 77 -24 l50 0 23 35 c33 52 29 91 -15 131 -26 24 -46 34
-70 34 -18 0 -33 -4 -33 -10z m8 -62 c-6 -18 -28 -21 -28 -4 0 9 7 16 16 16 9
0 14 -5 12 -12z m96 -3 c3 -9 0 -15 -9 -15 -8 0 -15 7 -15 15 0 8 4 15 9 15 5
0 11 -7 15 -15z m-40 -20 c6 -16 -2 -45 -13 -45 -13 0 -31 24 -31 42 0 22 35
25 44 3z m-64 -35 c0 -5 -4 -10 -10 -10 -5 0 -10 5 -10 10 0 6 5 10 10 10 6 0
10 -4 10 -10z m50 -40 c0 -5 -7 -10 -15 -10 -8 0 -15 5 -15 10 0 6 7 10 15 10
8 0 15 -4 15 -10z"/>
<path d="M1046 1647 c-54 -34 -66 -50 -66 -94 0 -63 32 -93 100 -93 67 0 100
30 100 90 0 43 -33 90 -65 90 -8 0 -15 5 -15 10 0 13 -30 12 -54 -3z m54 -37
c0 -5 -4 -10 -10 -10 -5 0 -10 5 -10 10 0 6 5 10 10 10 6 0 10 -4 10 -10z
m-50 -14 c0 -2 -3 -11 -6 -20 -9 -23 -24 -20 -24 4 0 11 7 20 15 20 8 0 15 -2
15 -4z m98 -8 c18 -18 15 -28 -8 -28 -13 0 -20 7 -20 20 0 23 10 26 28 8z
m-44 -23 c6 -16 -2 -45 -13 -45 -13 0 -31 24 -31 42 0 22 35 25 44 3z m-4 -75
c0 -5 -9 -10 -20 -10 -11 0 -20 5 -20 10 0 6 9 10 20 10 11 0 20 -4 20 -10z"/>
<path d="M708 1376 l-28 -23 0 -52 0 -52 25 -24 c34 -35 103 -35 133 0 12 14
22 31 22 39 0 8 6 16 13 19 10 3 10 9 0 26 -7 11 -13 25 -13 31 0 6 -11 22
-25 35 -33 33 -90 34 -127 1z m32 -26 c0 -5 -4 -10 -10 -10 -5 0 -10 5 -10 10
0 6 5 10 10 10 6 0 10 -4 10 -10z m40 -54 c0 -14 -4 -28 -10 -31 -5 -3 -10
-15 -10 -26 0 -23 -6 -24 -26 -5 -19 20 -18 26 6 26 11 0 20 5 20 10 0 6 -4
10 -10 10 -5 0 -10 9 -10 20 0 13 7 20 20 20 15 0 20 -7 20 -24z m60 4 c0 -21
-24 -28 -35 -10 -8 14 3 30 21 30 8 0 14 -9 14 -20z m-120 -10 c0 -5 -4 -10
-10 -10 -5 0 -10 5 -10 10 0 6 5 10 10 10 6 0 10 -4 10 -10z m80 -40 c0 -5 -4
-10 -10 -10 -5 0 -10 5 -10 10 0 6 5 10 10 10 6 0 10 -4 10 -10z"/>
<path d="M522 1035 c-12 -14 -22 -39 -22 -56 0 -22 -5 -32 -20 -36 -24 -6 -27
-51 -7 -86 9 -15 12 -48 9 -99 l-4 -78 -63 0 -63 0 -14 -23 c-15 -22 -24 -62
-34 -148 -6 -48 -28 -69 -73 -69 -27 0 -91 -29 -91 -40 0 -6 -22 -34 -50 -62
-27 -28 -50 -57 -50 -65 0 -7 -4 -13 -10 -13 -15 0 -12 -70 4 -86 8 -8 22 -14
30 -14 9 0 16 -4 16 -10 0 -5 11 -10 25 -10 13 0 40 -9 60 -20 20 -11 44 -20
53 -20 10 0 22 -4 28 -9 5 -4 24 -11 42 -14 l32 -6 0 44 c0 25 5 45 10 45 6 0
10 -6 10 -13 0 -26 86 -107 114 -107 14 0 26 -4 26 -10 0 -6 27 -10 60 -10 33
0 60 4 60 10 0 6 7 10 15 10 16 0 52 18 70 35 27 27 55 96 55 139 0 25 4 54 9
64 5 9 13 30 17 46 14 46 34 45 34 -3 0 -22 -4 -43 -10 -46 -5 -3 -10 -30 -10
-60 0 -30 5 -57 10 -60 6 -3 10 -15 10 -27 0 -11 21 -40 47 -64 l46 -44 84 0
c45 0 83 4 83 8 0 5 12 15 28 23 46 24 92 80 92 114 0 8 5 15 10 15 6 0 10
-13 10 -30 0 -16 3 -30 8 -30 4 0 13 -13 20 -29 7 -17 26 -36 43 -43 16 -7 29
-16 29 -20 0 -5 43 -8 95 -8 l96 0 21 20 c12 11 28 20 35 20 7 0 13 9 13 20 0
11 5 20 10 20 6 0 10 9 10 20 0 11 4 20 9 20 5 0 11 23 15 50 l7 50 60 0 60 0
42 -32 c23 -18 44 -36 47 -39 3 -3 16 -12 29 -19 l24 -12 23 13 c13 7 24 17
24 24 0 25 26 65 43 65 9 0 17 5 17 10 0 6 9 10 20 10 11 0 20 -4 20 -10 0 -5
12 -10 26 -10 31 0 63 -28 45 -39 -6 -4 -12 -30 -12 -58 l-2 -51 25 -24 c13
-13 34 -29 46 -35 26 -15 72 -17 72 -3 0 6 7 10 16 10 18 0 44 24 44 41 0 20
31 48 46 42 8 -3 14 -11 14 -19 0 -30 40 -84 62 -84 8 0 19 -5 26 -12 9 -9 12
-9 12 0 0 7 11 12 25 12 15 0 38 12 52 26 l27 27 0 49 c0 32 -5 53 -15 59
l-14 9 24 20 c13 11 35 20 50 20 51 0 63 30 37 91 -6 13 1 17 29 22 45 7 65 0
65 -24 0 -10 7 -19 15 -19 33 0 120 -70 97 -78 -7 -2 -12 -12 -12 -22 0 -10
-4 -22 -10 -25 -15 -9 -12 -44 4 -61 21 -20 132 -19 153 2 l16 16 -11 32 c-18
48 -15 76 6 76 30 0 42 -21 42 -71 0 -26 5 -51 10 -54 6 -3 10 -17 10 -30 0
-16 9 -27 30 -37 17 -7 30 -16 30 -20 0 -17 59 -7 90 15 33 22 44 36 54 69 7
23 36 12 36 -13 0 -10 5 -19 10 -19 6 0 10 -6 10 -14 0 -8 9 -18 20 -21 11 -3
20 -11 20 -16 0 -5 18 -9 40 -9 22 0 40 5 40 10 0 6 8 10 18 10 23 0 39 31 47
92 l6 47 37 31 36 30 166 -3 165 -2 3 -35 c2 -18 12 -42 23 -51 10 -9 19 -26
19 -38 0 -31 29 -71 51 -71 10 0 21 -4 24 -10 18 -30 110 22 128 72 8 24 37
23 37 0 0 -35 82 -89 118 -78 12 4 35 20 51 36 l31 28 0 49 c0 64 31 103 84
103 l36 0 0 -20 c0 -11 -4 -20 -9 -20 -11 0 -21 -49 -14 -67 8 -20 139 -18
147 2 7 19 -3 73 -15 81 -18 11 -8 40 21 63 l30 23 0 49 c0 27 5 49 10 49 6 0
10 9 10 20 0 11 -4 20 -10 20 -5 0 -10 6 -10 13 0 7 -8 22 -18 33 -10 10 -21
27 -25 37 -8 21 -43 22 -51 1 -3 -9 -6 -30 -6 -49 0 -37 -19 -58 -44 -49 l-16
6 0 84 0 84 64 0 c36 0 68 -4 71 -10 9 -14 25 -12 25 3 0 48 -89 167 -125 167
-8 0 -15 5 -15 10 0 6 -11 10 -24 10 -14 0 -28 4 -31 10 -3 5 -24 10 -45 10
-21 0 -42 5 -45 10 -3 6 -35 10 -70 10 -36 0 -65 5 -67 11 -5 14 -71 15 -76 1
-3 -9 -61 -12 -203 -12 l-199 0 -12 20 c-8 12 -24 20 -40 20 -21 0 -28 -5 -28
-20 l0 -20 -47 0 c-27 -1 -121 -2 -210 -4 l-163 -3 0 19 c0 11 -7 26 -15 34
l-15 15 -15 -15 c-8 -8 -15 -22 -15 -30 0 -18 0 -18 -93 -18 -37 0 -70 -4 -73
-9 -3 -5 -21 -9 -40 -9 -19 0 -34 -4 -34 -10 0 -5 -14 -10 -32 -10 -31 0 -83
-13 -125 -33 -24 -11 -33 -60 -13 -72 6 -3 10 -18 10 -33 0 -31 48 -94 56 -74
9 20 64 15 65 -5 0 -10 2 -55 3 -100 l3 -83 -44 0 -43 0 0 30 c0 17 -4 30 -10
30 -5 0 -10 9 -10 19 0 11 -4 23 -10 26 -5 3 -10 17 -10 30 0 12 -7 26 -16 29
-23 9 -24 8 -24 -20 0 -19 -4 -25 -15 -20 -17 6 -26 -10 -29 -52 -3 -46 -23
-72 -57 -72 -56 0 -80 58 -39 95 16 14 20 31 20 74 -1 62 -16 91 -48 91 -12 0
-26 9 -32 20 l-11 20 -171 0 -171 0 -19 -22 c-10 -12 -21 -33 -24 -47 -3 -14
-7 -31 -9 -38 -2 -6 -27 -16 -55 -22 -28 -6 -57 -17 -64 -24 -8 -7 -15 -43
-18 -80 -2 -37 -9 -72 -16 -79 -17 -17 -25 -3 -12 22 13 24 6 45 -32 102 -10
14 -18 44 -18 66 l0 41 -30 21 c-39 28 -38 57 3 103 l34 36 64 3 64 3 3 33 c2
18 -2 57 -8 86 l-11 53 -299 2 -300 1 0 -30 c0 -16 -4 -30 -10 -30 -5 0 -10
-22 -10 -48 0 -36 5 -51 20 -62 23 -16 28 -78 8 -98 -17 -17 -302 -17 -315 1
-6 6 -17 37 -24 67 -18 72 -31 84 -89 84 -52 0 -80 -19 -80 -53 0 -11 -4 -23
-10 -26 -5 -3 -10 -19 -10 -36 l0 -29 -140 0 -140 0 0 84 c0 47 4 87 9 90 13
8 34 121 26 145 -13 41 -45 61 -100 61 l-51 0 -22 -25z m58 -1 c0 -7 -27 -34
-34 -34 -3 0 -6 9 -6 20 0 13 7 20 20 20 11 0 20 -3 20 -6z m27 -49 c17 -18
11 -45 -10 -45 -8 0 -20 7 -27 15 -9 11 -9 17 2 29 16 19 16 19 35 1z m53 -5
c0 -11 -4 -20 -10 -20 -5 0 -10 9 -10 20 0 11 5 20 10 20 6 0 10 -9 10 -20z
m840 -150 c0 -5 9 -10 20 -10 11 0 20 -4 20 -10 0 -5 -13 -10 -30 -10 -23 0
-30 4 -30 20 0 11 5 20 10 20 6 0 10 -4 10 -10z m360 -20 c0 -5 -4 -10 -10
-10 -5 0 -10 5 -10 10 0 6 5 10 10 10 6 0 10 -4 10 -10z m60 0 c0 -5 -4 -10
-10 -10 -5 0 -10 5 -10 10 0 6 5 10 10 10 6 0 10 -4 10 -10z m140 0 c0 -5 -4
-10 -10 -10 -5 0 -10 5 -10 10 0 6 5 10 10 10 6 0 10 -4 10 -10z m-980 -131
c0 -27 -4 -49 -10 -49 -5 0 -10 25 -10 56 0 34 4 53 10 49 6 -3 10 -28 10 -56z
m2100 -29 c0 -5 -4 -10 -10 -10 -5 0 -10 5 -10 10 0 6 5 10 10 10 6 0 10 -4
10 -10z m40 0 c0 -5 -4 -10 -10 -10 -5 0 -10 5 -10 10 0 6 5 10 10 10 6 0 10
-4 10 -10z m100 0 c0 -5 -13 -10 -30 -10 -16 0 -30 5 -30 10 0 6 14 10 30 10
17 0 30 -4 30 -10z m80 0 c0 -5 -9 -10 -20 -10 -11 0 -20 5 -20 10 0 6 9 10
20 10 11 0 20 -4 20 -10z m140 0 c0 -5 -9 -10 -20 -10 -11 0 -20 5 -20 10 0 6
9 10 20 10 11 0 20 -4 20 -10z m240 0 c0 -5 -9 -10 -20 -10 -11 0 -20 5 -20
10 0 6 9 10 20 10 11 0 20 -4 20 -10z m100 0 c0 -5 -4 -10 -10 -10 -5 0 -10 5
-10 10 0 6 5 10 10 10 6 0 10 -4 10 -10z m-3380 -55 l0 -35 -20 0 c-21 0 -27
15 -10 25 6 3 10 15 10 26 0 10 5 19 10 19 6 0 10 -16 10 -35z m3975 -5 c3 -5
-1 -10 -9 -10 -9 0 -16 5 -16 10 0 6 4 10 9 10 6 0 13 -4 16 -10z m-4059 -27
c-10 -10 -19 5 -10 18 l8 13 4 -13 c2 -7 1 -15 -2 -18z m204 7 c0 -5 -4 -10
-10 -10 -5 0 -10 5 -10 10 0 6 5 10 10 10 6 0 10 -4 10 -10z m3270 3 c0 -5 -4
-15 -10 -23 -11 -18 -25 -7 -17 15 6 15 27 21 27 8z m-282 -26 c8 -9 7 -24 -2
-51 -15 -43 -26 -30 -26 30 0 36 10 43 28 21z m492 -27 c0 -46 -11 -51 -30
-15 l-13 24 13 16 c21 25 30 17 30 -25z m160 20 c0 -11 -4 -20 -10 -20 -5 0
-10 9 -10 20 0 11 5 20 10 20 6 0 10 -9 10 -20z m120 -20 c0 -44 -6 -49 -26
-22 -21 27 -18 62 6 62 l20 0 0 -40z m-1260 10 c0 -11 -4 -20 -9 -20 -11 0
-22 26 -14 34 12 12 23 5 23 -14z m103 -10 c-3 -11 -9 -20 -14 -20 -10 0 -12
33 -3 43 12 12 22 -3 17 -23z m197 9 c0 -5 -4 -9 -10 -9 -5 0 -10 7 -10 16 0
8 5 12 10 9 6 -3 10 -10 10 -16z m90 1 c0 -13 -5 -18 -15 -14 -16 7 -19 17 -8
27 12 13 23 7 23 -13z m310 -5 c0 -28 -24 -34 -34 -9 -8 20 1 34 20 34 8 0 14
-10 14 -25z m164 19 c23 -9 20 -24 -4 -24 -11 0 -20 7 -20 15 0 17 2 18 24 9z
m-2404 -14 c0 -5 -4 -10 -10 -10 -5 0 -10 5 -10 10 0 6 5 10 10 10 6 0 10 -4
10 -10z m200 0 c0 -5 -4 -10 -10 -10 -5 0 -10 5 -10 10 0 6 5 10 10 10 6 0 10
-4 10 -10z m40 0 c0 -5 -4 -10 -10 -10 -5 0 -10 5 -10 10 0 6 5 10 10 10 6 0
10 -4 10 -10z m620 0 c0 -5 -4 -10 -10 -10 -5 0 -10 5 -10 10 0 6 5 10 10 10
6 0 10 -4 10 -10z m60 0 c0 -5 -7 -10 -15 -10 -8 0 -15 5 -15 10 0 6 7 10 15
10 8 0 15 -4 15 -10z m1684 -25 c6 -18 -2 -45 -15 -45 -5 0 -9 14 -9 30 0 32
14 40 24 15z m276 5 c0 -5 -4 -10 -10 -10 -5 0 -10 5 -10 10 0 6 5 10 10 10 6
0 10 -4 10 -10z m-1434 -24 c19 -19 8 -51 -12 -35 -14 11 -20 49 -8 49 3 0 12
-6 20 -14z m1438 -12 c28 -11 13 -44 -20 -44 -2 0 -4 11 -4 25 0 27 1 28 24
19z m-564 -24 c0 -5 -4 -10 -10 -10 -5 0 -10 5 -10 10 0 6 5 10 10 10 6 0 10
-4 10 -10z m-3580 -80 c0 -5 -4 -10 -10 -10 -5 0 -10 5 -10 10 0 6 5 10 10 10
6 0 10 -4 10 -10z m-160 -40 c0 -5 -4 -10 -10 -10 -5 0 -10 -7 -10 -15 0 -9
-9 -25 -20 -37 -11 -12 -20 -28 -20 -35 0 -7 -4 -13 -10 -13 -16 0 -12 30 8
55 9 12 24 32 32 44 15 22 30 28 30 11z m4360 -21 c0 -5 -4 -9 -10 -9 -5 0
-10 7 -10 16 0 8 5 12 10 9 6 -3 10 -10 10 -16z m-4340 -41 c-1 -20 -29 -52
-37 -43 -5 4 -2 10 5 12 6 3 12 13 12 24 0 10 5 19 10 19 6 0 10 -6 10 -12z
m1440 2 c0 -5 -4 -10 -10 -10 -5 0 -10 5 -10 10 0 6 5 10 10 10 6 0 10 -4 10
-10z m500 0 c0 -5 -4 -10 -10 -10 -5 0 -10 5 -10 10 0 6 5 10 10 10 6 0 10 -4
10 -10z m240 0 c0 -6 -40 -10 -100 -10 -60 0 -100 4 -100 10 0 6 40 10 100 10
60 0 100 -4 100 -10z m80 0 c0 -5 -4 -10 -10 -10 -5 0 -10 5 -10 10 0 6 5 10
10 10 6 0 10 -4 10 -10z m640 0 c0 -5 -4 -10 -10 -10 -5 0 -10 5 -10 10 0 6 5
10 10 10 6 0 10 -4 10 -10z m40 0 c0 -5 -4 -10 -10 -10 -5 0 -10 5 -10 10 0 6
5 10 10 10 6 0 10 -4 10 -10z m400 0 c0 -5 -7 -10 -16 -10 -8 0 -12 5 -9 10 3
6 10 10 16 10 5 0 9 -4 9 -10z m110 0 c0 -5 -11 -10 -25 -10 -14 0 -25 5 -25
10 0 6 11 10 25 10 14 0 25 -4 25 -10z m30 0 c0 -5 -4 -10 -10 -10 -5 0 -10 5
-10 10 0 6 5 10 10 10 6 0 10 -4 10 -10z m150 0 c0 -5 -25 -10 -55 -10 -30 0
-55 5 -55 10 0 6 25 10 55 10 30 0 55 -4 55 -10z m150 0 c0 -5 -13 -10 -30
-10 -16 0 -30 5 -30 10 0 6 14 10 30 10 17 0 30 -4 30 -10z m40 0 c0 -5 -4
-10 -10 -10 -5 0 -10 5 -10 10 0 6 5 10 10 10 6 0 10 -4 10 -10z m250 0 c0 -5
-9 -10 -20 -10 -11 0 -20 5 -20 10 0 6 9 10 20 10 11 0 20 -4 20 -10z m70 0
c0 -5 -4 -10 -10 -10 -5 0 -10 5 -10 10 0 6 5 10 10 10 6 0 10 -4 10 -10z m80
0 c0 -5 -7 -10 -15 -10 -8 0 -15 5 -15 10 0 6 7 10 15 10 8 0 15 -4 15 -10z
m80 0 c0 -5 -9 -10 -21 -10 -11 0 -17 5 -14 10 3 6 13 10 21 10 8 0 14 -4 14
-10z m80 0 c0 -5 -4 -10 -10 -10 -5 0 -10 5 -10 10 0 6 5 10 10 10 6 0 10 -4
10 -10z m-4260 -59 c0 -29 -25 -60 -37 -47 -4 4 -2 16 5 26 7 11 12 27 12 35
0 8 5 15 10 15 6 0 10 -13 10 -29z m-80 -6 c0 -16 -6 -25 -16 -25 -11 0 -14 5
-10 16 3 9 6 20 6 25 0 5 5 9 10 9 6 0 10 -11 10 -25z m198 -94 c27 -23 28
-31 3 -31 -12 0 -20 9 -23 25 -6 30 -7 30 20 6z m522 -61 c0 -5 -4 -10 -10
-10 -5 0 -10 5 -10 10 0 6 5 10 10 10 6 0 10 -4 10 -10z"/>
</g>
</svg>
