<?xml version="1.0" standalone="no"?>
<!DOCTYPE svg PUBLIC "-//W3C//DTD SVG 20010904//EN"
 "http://www.w3.org/TR/2001/REC-SVG-20010904/DTD/svg10.dtd">
<svg version="1.0" xmlns="http://www.w3.org/2000/svg"
 width="147.280146pt" height="348.133897pt" viewBox="0 0 147.280146 348.133897"
 preserveAspectRatio="xMidYMid meet">
<metadata>
Created by Potrace Professional 1.0m
</metadata>
<g transform="translate(-0.719854,350.000000) rotate(-360.00) scale(0.100000,-0.100000)"
fill="#000000" stroke="none">
<path d="M745 3490 c-3 -5 -17 -10 -30 -10 -13 0 -27 -4 -30 -10 -3 -5 -13
-10 -22 -10 -8 0 -35 -20 -59 -45 -35 -35 -44 -51 -44 -79 0 -19 -4 -36 -10
-38 -15 -5 -16 -151 -2 -156 7 -2 12 -9 12 -16 0 -19 29 -75 44 -83 17 -10 27
-55 17 -72 -6 -9 -27 -13 -65 -12 l-56 1 0 -20 c0 -26 -31 -26 -50 0 -8 11
-19 20 -25 20 -6 0 -21 9 -33 21 l-22 20 -15 -15 c-20 -20 -19 -39 5 -56 28
-20 26 -29 -20 -78 -22 -23 -40 -47 -40 -52 0 -6 -5 -19 -10 -30 -22 -44 -27
-57 -41 -102 -7 -27 -17 -48 -21 -48 -4 0 -8 -9 -8 -20 0 -11 -4 -20 -10 -20
-5 0 -10 -8 -10 -19 0 -10 -17 -34 -38 -52 -35 -33 -62 -85 -62 -124 0 -18
-47 -65 -65 -65 -14 0 -37 -74 -24 -78 5 -2 9 -10 9 -19 0 -8 13 -27 28 -41
16 -15 31 -35 35 -44 3 -10 13 -18 22 -18 8 0 15 -4 15 -10 0 -5 13 -10 29
-10 17 0 33 5 36 10 3 6 17 10 31 10 13 0 24 -4 24 -10 0 -5 7 -10 16 -10 19
0 52 -35 65 -69 7 -17 6 -28 -6 -41 -20 -22 -19 -30 4 -30 11 0 21 -6 24 -12
3 -10 9 -10 27 0 12 7 25 10 28 6 4 -4 1 -9 -5 -11 -7 -3 -13 -13 -13 -24 0
-10 -4 -19 -9 -19 -11 0 -21 -55 -28 -152 -5 -85 3 -103 48 -110 16 -2 22 -9
19 -18 -2 -8 -6 -51 -8 -95 -2 -44 -8 -84 -13 -89 -12 -14 -11 -123 1 -131 7
-5 10 -78 9 -213 -1 -144 2 -207 10 -210 6 -2 11 -24 11 -48 0 -28 4 -43 10
-39 6 3 10 17 10 31 0 23 20 54 34 54 3 0 6 -30 6 -66 0 -67 11 -80 34 -40 8
14 8 20 -1 23 -16 6 -18 143 -3 143 6 0 10 -18 10 -40 0 -22 4 -40 8 -40 18 0
32 -53 32 -115 l0 -65 -20 0 c-25 0 -26 -28 -2 -46 l17 -13 -17 -1 c-21 0 -24
-16 -5 -23 8 -3 7 -10 -7 -23 -13 -14 -20 -15 -23 -6 -7 19 -23 14 -23 -8 0
-11 -4 -20 -10 -20 -5 0 -10 23 -10 50 0 28 -4 50 -10 50 -5 0 -10 18 -10 40
0 22 -4 40 -9 40 -16 0 -18 -24 -9 -90 17 -118 20 -242 7 -269 -6 -14 -17 -37
-23 -51 -6 -14 -18 -32 -26 -40 -8 -8 -21 -27 -29 -42 -8 -16 -23 -28 -33 -28
-10 0 -18 -4 -18 -10 0 -5 -9 -10 -20 -10 -11 0 -20 -4 -20 -10 0 -5 -12 -10
-26 -10 -31 0 -97 -62 -92 -86 2 -10 18 -26 37 -36 l34 -19 86 5 c144 8 173
15 202 47 15 16 34 29 42 29 9 0 19 4 22 10 3 5 15 10 26 10 30 0 69 40 69 72
0 15 -4 28 -10 28 -5 0 -10 11 -10 24 0 14 -4 28 -10 31 -13 8 -13 305 0 305
6 0 10 -30 10 -70 0 -40 4 -70 10 -70 6 0 10 -30 10 -69 l0 -70 20 -6 c11 -3
24 -3 30 0 13 8 13 202 0 210 -5 3 -10 -1 -10 -9 0 -9 -4 -16 -9 -16 -13 0
-23 56 -27 150 -2 47 -8 86 -14 88 -13 5 -13 42 0 42 6 0 10 9 10 20 0 11 -4
20 -10 20 -6 0 -10 36 -10 88 0 48 -4 92 -9 98 -5 5 -12 54 -15 109 -13 221
-18 285 -26 285 -8 0 -15 94 -26 343 -3 75 -10 137 -15 137 -5 0 -9 9 -9 20 0
11 5 20 10 20 6 0 10 -9 10 -19 0 -11 5 -23 10 -26 6 -3 10 -48 10 -101 0 -52
4 -94 9 -94 5 0 12 -55 15 -122 3 -68 10 -170 15 -228 5 -58 13 -156 17 -217
3 -62 10 -113 14 -113 8 0 15 -89 26 -332 5 -99 9 -128 20 -128 15 0 16 1 18
43 1 16 -1 30 -5 33 -4 2 -7 65 -8 141 -1 75 -5 141 -9 147 -4 6 -9 69 -11
141 -1 71 -6 136 -10 145 -12 23 -13 127 -1 135 5 3 10 17 10 31 0 13 5 24 10
24 6 0 10 15 10 34 0 19 5 38 10 41 6 3 10 15 10 26 0 10 5 19 10 19 6 0 10 6
10 13 0 26 25 67 42 67 l17 0 6 -127 c11 -239 13 -523 4 -529 -5 -3 -9 -18 -9
-35 0 -16 -4 -29 -10 -29 -5 0 -10 -15 -10 -34 0 -19 5 -38 10 -41 5 -3 10
-21 10 -38 0 -18 5 -48 11 -67 11 -36 14 -370 3 -426 l-6 -31 27 -27 c21 -21
25 -33 20 -55 -8 -36 15 -61 55 -61 16 0 41 -5 55 -10 47 -18 215 19 215 47 0
7 -31 44 -70 83 -38 39 -70 78 -70 88 0 17 -20 78 -31 97 -16 26 -15 243 1
259 5 5 10 22 10 37 0 15 4 30 9 33 5 3 12 22 15 41 3 19 9 51 12 71 4 20 1
61 -7 91 -7 33 -9 57 -3 61 27 20 35 57 54 287 12 132 20 184 31 191 5 3 9 27
9 55 0 50 13 65 25 29 l6 -20 45 0 c24 0 44 5 44 10 0 6 7 10 15 10 8 0 30 16
50 35 l35 36 0 84 c0 50 -4 85 -10 85 -5 0 -10 13 -10 29 0 17 5 33 10 36 6 3
10 23 10 44 0 20 4 41 9 46 5 6 11 33 14 60 11 103 35 205 48 205 5 0 9 13 9
29 0 20 6 30 20 34 l20 5 0 45 0 45 -40 35 c-22 19 -40 40 -40 47 0 7 -13 25
-30 40 -18 17 -30 38 -30 54 0 14 -4 26 -9 26 -5 0 -11 19 -14 43 -20 156 -50
242 -99 287 -38 35 -48 66 -27 87 19 19 6 58 -19 61 -24 4 -72 -40 -72 -65 0
-7 -4 -13 -10 -13 -5 0 -10 5 -10 10 0 6 -9 10 -20 10 -11 0 -20 -4 -20 -10 0
-21 -37 -9 -48 15 -7 14 -17 36 -24 50 -6 14 -15 25 -20 25 -4 0 -8 9 -8 20 0
11 -4 20 -10 20 -5 0 -10 6 -10 13 0 18 24 67 33 67 4 0 7 7 7 15 0 8 9 30 20
50 21 38 27 119 10 130 -5 3 -10 15 -10 26 0 10 -4 19 -10 19 -5 0 -10 7 -10
16 0 20 -24 44 -44 44 -9 0 -16 5 -16 10 0 6 -9 10 -19 10 -11 0 -23 5 -26 10
-3 6 -28 10 -55 10 -27 0 -52 -4 -55 -10z m-8 -122 c15 -7 29 -13 31 -14 1 0
0 -9 -4 -18 -4 -11 -19 -16 -50 -16 l-44 0 0 23 c0 40 18 46 67 25z m13 -78
c0 -7 -14 -8 -37 -4 -52 9 -54 14 -5 14 23 0 42 -5 42 -10z m30 -40 c0 -5 -4
-10 -10 -10 -5 0 -10 5 -10 10 0 6 5 10 10 10 6 0 10 -4 10 -10z m-120 -40 c0
-5 -4 -10 -10 -10 -5 0 -10 5 -10 10 0 6 5 10 10 10 6 0 10 -4 10 -10z m100 6
c0 -3 -4 -8 -10 -11 -5 -3 -10 -1 -10 4 0 6 5 11 10 11 6 0 10 -2 10 -4z m-40
-26 c0 -5 -5 -10 -11 -10 -5 0 -7 5 -4 10 3 6 8 10 11 10 2 0 4 -4 4 -10z
m-100 -300 c0 -5 -7 -10 -15 -10 -8 0 -15 5 -15 10 0 6 7 10 15 10 8 0 15 -4
15 -10z m-140 -90 c0 -13 7 -20 20 -20 13 0 20 -7 20 -20 0 -23 -17 -25 -55
-8 -25 11 -34 28 -15 28 6 0 10 9 10 20 0 11 5 20 10 20 6 0 10 -9 10 -20z
m260 10 c0 -5 -4 -10 -10 -10 -5 0 -10 5 -10 10 0 6 5 10 10 10 6 0 10 -4 10
-10z m15 -40 c4 -6 15 -8 26 -5 13 4 19 2 19 -9 0 -12 -11 -16 -50 -16 -27 0
-50 2 -50 4 0 2 -3 11 -6 20 -5 12 1 16 24 16 17 0 34 -5 37 -10z m165 -80 c0
-5 -4 -10 -10 -10 -5 0 -10 5 -10 10 0 6 5 10 10 10 6 0 10 -4 10 -10z m-580
-20 c0 -5 -4 -10 -10 -10 -5 0 -10 5 -10 10 0 6 5 10 10 10 6 0 10 -4 10 -10z
m440 -49 c0 -6 -4 -13 -10 -16 -5 -3 -10 1 -10 9 0 9 5 16 10 16 6 0 10 -4 10
-9z m-437 -14 c9 -25 -5 -65 -24 -70 -11 -3 -18 -11 -17 -17 2 -7 -3 -15 -9
-17 -15 -6 -18 23 -3 32 6 3 10 24 10 46 l0 39 19 0 c10 0 21 -6 24 -13z m217
3 c0 -5 -4 -10 -10 -10 -5 0 -10 5 -10 10 0 6 5 10 10 10 6 0 10 -4 10 -10z
m119 -72 c0 -33 -2 -38 -9 -23 -12 28 -12 65 0 65 6 0 10 -19 9 -42z m-39 -44
c0 -19 -4 -34 -10 -34 -5 0 -10 18 -10 41 0 24 4 38 10 34 6 -3 10 -22 10 -41z
m540 36 c0 -5 -4 -10 -10 -10 -5 0 -10 5 -10 10 0 6 5 10 10 10 6 0 10 -4 10
-10z m-580 -60 c0 -16 -4 -30 -10 -30 -5 0 -10 14 -10 30 0 17 5 30 10 30 6 0
10 -13 10 -30z m80 -20 c0 -5 -4 -10 -10 -10 -5 0 -10 5 -10 10 0 6 5 10 10
10 6 0 10 -4 10 -10z m-420 -36 c0 -46 -44 -70 -70 -39 l-13 16 19 14 c10 8
25 15 32 15 6 0 12 5 12 10 0 6 5 10 10 10 6 0 10 -12 10 -26z m980 -10 c0
-11 -5 -14 -16 -10 -9 3 -22 6 -30 6 -8 0 -14 5 -14 10 0 6 14 10 30 10 21 0
30 -5 30 -16z m-820 -34 c0 -16 5 -30 10 -30 6 0 10 -9 10 -20 0 -11 3 -20 8
-20 4 0 13 -9 20 -21 l13 -20 -13 -30 c-15 -34 -19 -35 -38 -9 -8 11 -25 20
-38 20 -13 0 -30 6 -38 14 -15 15 -19 46 -6 46 8 0 42 73 42 90 0 6 7 10 15
10 10 0 15 -10 15 -30z m680 -66 c0 -9 9 -25 21 -35 l21 -18 -21 -27 c-12 -15
-21 -33 -21 -40 0 -22 -18 -17 -50 14 l-30 29 13 26 c6 15 15 27 20 27 4 0 7
9 7 20 0 13 7 20 20 20 12 0 20 -7 20 -16z m-840 -94 c0 -5 -4 -10 -10 -10 -5
0 -10 5 -10 10 0 6 5 10 10 10 6 0 10 -4 10 -10z m47 -25 c8 -9 13 -19 9 -22
-7 -7 -36 16 -36 28 0 13 10 11 27 -6z m981 -125 c-2 -6 -8 -6 -18 0 l-15 10
15 10 c15 10 25 0 18 -20z m-106 -10 c1 -16 2 -37 2 -47 1 -9 -5 -18 -11 -20
-9 -3 -13 10 -13 46 0 54 19 72 22 21z m58 0 c0 -5 -4 -10 -10 -10 -5 0 -10 5
-10 10 0 6 5 10 10 10 6 0 10 -4 10 -10z m40 -40 c0 -5 -4 -10 -10 -10 -5 0
-10 5 -10 10 0 6 5 10 10 10 6 0 10 -4 10 -10z m-560 -20 c0 -5 -4 -10 -10
-10 -5 0 -10 5 -10 10 0 6 5 10 10 10 6 0 10 -4 10 -10z m100 0 c0 -5 -4 -10
-10 -10 -5 0 -10 5 -10 10 0 6 5 10 10 10 6 0 10 -4 10 -10z m-160 -40 c0 -5
-4 -10 -10 -10 -5 0 -10 5 -10 10 0 6 5 10 10 10 6 0 10 -4 10 -10z m-140 -16
c0 -7 -27 -34 -34 -34 -12 0 -6 28 7 33 17 8 27 8 27 1z m720 -44 c0 -16 -4
-30 -10 -30 -5 0 -10 14 -10 30 0 17 5 30 10 30 6 0 10 -13 10 -30z m-40 -50
c0 -22 -4 -40 -10 -40 -5 0 -10 11 -10 24 0 13 -3 31 -6 40 -4 11 -1 16 10 16
12 0 16 -10 16 -40z m-720 10 c0 -5 -4 -10 -10 -10 -5 0 -10 5 -10 10 0 6 5
10 10 10 6 0 10 -4 10 -10z m0 -40 c0 -5 -2 -10 -4 -10 -3 0 -8 5 -11 10 -3 6
-1 10 4 10 6 0 11 -4 11 -10z m40 -54 c0 -9 -8 -16 -20 -16 -14 0 -20 7 -20
23 0 13 3 26 6 30 9 9 34 -19 34 -37z m660 -61 c0 -8 -4 -15 -10 -15 -5 0 -10
7 -10 15 0 8 5 15 10 15 6 0 10 -7 10 -15z m60 -5 c0 -5 -4 -10 -10 -10 -5 0
-10 5 -10 10 0 6 5 10 10 10 6 0 10 -4 10 -10z m-325 -40 c4 -6 -5 -10 -19
-10 -14 0 -26 5 -26 10 0 6 9 10 19 10 11 0 23 -4 26 -10z m86 -23 c-1 -4 -1
-16 -1 -27 0 -16 -7 -20 -30 -20 -16 0 -30 -4 -30 -10 0 -5 -8 -10 -18 -10
-10 0 -24 -9 -32 -19 -15 -21 -30 -19 -30 5 0 8 7 14 16 14 9 0 28 12 43 28
42 42 84 63 82 39z m-501 -77 c0 -5 -4 -10 -10 -10 -5 0 -10 5 -10 10 0 6 5
10 10 10 6 0 10 -4 10 -10z m480 -40 c0 -27 -4 -50 -10 -50 -11 0 -14 83 -3
93 12 12 13 8 13 -43z m-440 -10 c0 -22 -4 -40 -10 -40 -5 0 -10 18 -10 40 0
22 5 40 10 40 6 0 10 -18 10 -40z m400 10 c0 -5 -4 -10 -10 -10 -5 0 -10 5
-10 10 0 6 5 10 10 10 6 0 10 -4 10 -10z m80 -35 c0 -14 -4 -25 -10 -25 -5 0
-10 11 -10 25 0 14 5 25 10 25 6 0 10 -11 10 -25z m-120 -5 c0 -5 -4 -10 -10
-10 -5 0 -10 5 -10 10 0 6 5 10 10 10 6 0 10 -4 10 -10z m-380 -60 c0 -16 -4
-30 -10 -30 -5 0 -10 14 -10 30 0 17 5 30 10 30 6 0 10 -13 10 -30z m420 24
c0 -3 -6 -12 -14 -19 l-14 -14 -11 13 c-6 7 -8 16 -4 19 8 8 43 9 43 1z m60
-44 c0 -16 -4 -30 -10 -30 -5 0 -10 9 -10 20 0 24 -15 26 -24 4 -9 -24 -19
-10 -11 15 4 14 15 21 31 21 l24 0 0 -30z m-84 -27 c-10 -10 -19 5 -10 18 l8
13 4 -13 c2 -7 1 -15 -2 -18z m56 -125 c8 -4 6 -11 -5 -22 -24 -24 -27 -20
-27 32 0 57 13 79 18 31 2 -19 8 -37 14 -41z m-92 -288 c0 -5 14 -10 30 -10
l30 0 0 -170 c0 -98 -4 -170 -9 -170 -5 0 -12 -37 -14 -82 -6 -107 -15 -146
-40 -174 -26 -31 -37 -22 -37 29 0 31 5 47 20 57 11 8 20 26 20 41 0 15 5 29
11 31 9 3 9 10 -1 27 l-12 24 13 8 c10 6 8 13 -11 29 l-24 21 14 10 c11 6 12
11 4 17 -15 9 -25 59 -31 149 l-5 72 21 13 c25 15 29 68 6 68 -8 0 -15 5 -15
10 0 6 7 10 15 10 8 0 15 -4 15 -10z m-400 -30 c0 -11 -4 -20 -10 -20 -5 0
-10 9 -10 20 0 11 5 20 10 20 6 0 10 -9 10 -20z m520 -150 c0 -5 -7 -10 -15
-10 -8 0 -15 5 -15 10 0 6 7 10 15 10 8 0 15 -4 15 -10z m-460 -315 c0 -25 -4
-45 -10 -45 -5 0 -10 20 -10 45 0 25 5 45 10 45 6 0 10 -20 10 -45z m150 -129
c-7 -7 -10 11 -10 60 0 92 14 106 18 18 2 -38 -2 -72 -8 -78z"/>
<path d="M880 790 c0 -5 5 -10 10 -10 6 0 10 5 10 10 0 6 -4 10 -10 10 -5 0
-10 -4 -10 -10z"/>
<path d="M480 661 c0 -28 5 -51 10 -51 6 0 10 20 10 44 0 25 -4 48 -10 51 -6
4 -10 -13 -10 -44z"/>
<path d="M700 271 c0 -5 6 -11 13 -14 8 -3 5 -11 -10 -24 -18 -16 -23 -31 -23
-67 l0 -46 30 0 30 0 0 66 c0 43 -5 70 -14 80 -17 16 -26 18 -26 5z m20 -111
c0 -11 -4 -20 -10 -20 -5 0 -10 9 -10 20 0 11 5 20 10 20 6 0 10 -9 10 -20z"/>
</g>
</svg>
