<?xml version="1.0" standalone="no"?>
<!DOCTYPE svg PUBLIC "-//W3C//DTD SVG 20010904//EN"
 "http://www.w3.org/TR/2001/REC-SVG-20010904/DTD/svg10.dtd">
<svg version="1.0" xmlns="http://www.w3.org/2000/svg"
 width="131.766823pt" height="360.830242pt" viewBox="0 0 131.766823 360.830242"
 preserveAspectRatio="xMidYMid meet">
<metadata>
Created by Potrace Professional 1.0m
</metadata>
<g transform="translate(-1.749918,363.406623) rotate(-360.00) scale(0.100000,-0.100000)"
fill="#000000" stroke="none">
<path d="M165 3628 c-22 -6 -42 -14 -45 -17 -3 -3 -16 -12 -30 -19 -61 -33
-77 -82 -72 -218 l2 -42 40 -41 c28 -29 40 -50 40 -70 0 -17 5 -33 10 -36 5
-3 10 -15 10 -26 0 -10 5 -19 10 -19 6 0 10 -22 10 -50 0 -30 4 -50 11 -50 6
0 8 -7 5 -16 -3 -8 1 -28 9 -44 8 -16 15 -49 15 -75 0 -25 5 -45 10 -45 6 0
10 -9 10 -20 0 -11 4 -20 9 -20 6 0 12 -63 15 -142 5 -161 13 -230 30 -240 8
-6 8 -10 -1 -16 -7 -4 -30 -44 -53 -87 -39 -78 -50 -128 -30 -140 5 -3 10 -15
10 -25 0 -11 9 -24 20 -30 16 -9 20 -21 20 -62 0 -38 5 -55 20 -68 14 -13 20
-31 21 -74 1 -32 -3 -62 -9 -68 -19 -19 -14 -48 8 -48 15 0 20 -7 20 -29 0
-16 5 -31 11 -33 15 -5 16 -105 1 -120 -7 -7 -12 -27 -12 -45 0 -18 -4 -33
-10 -33 -5 0 -10 -9 -10 -19 0 -11 -4 -23 -10 -26 -12 -8 -13 -75 -1 -75 5 0
11 -9 14 -20 3 -14 14 -20 31 -20 19 0 26 -5 26 -19 0 -11 6 -22 13 -24 8 -4
9 -8 1 -14 -5 -4 -18 -34 -28 -66 -15 -46 -17 -74 -11 -135 4 -42 11 -79 16
-83 5 -3 8 -111 7 -240 -2 -316 0 -370 13 -396 9 -16 8 -26 -4 -43 -11 -16
-14 -37 -10 -80 6 -58 -9 -120 -28 -120 -5 0 -9 -7 -9 -15 0 -30 -47 -65 -85
-65 l-36 0 3 -32 3 -33 76 3 c42 1 88 -2 102 -7 18 -7 28 -7 33 0 4 7 97 10
268 9 143 -1 300 -1 349 -1 l87 1 0 38 c0 26 -6 42 -20 52 l-20 14 0 58 c0 32
-4 58 -10 58 -13 0 -13 157 0 165 6 4 10 58 10 131 0 68 4 124 9 124 5 0 10
86 10 190 1 125 -2 190 -9 190 -6 0 -10 30 -10 75 l0 76 17 6 c38 14 63 60 63
114 0 42 31 113 60 136 8 7 23 13 33 13 23 0 47 23 47 44 0 9 5 16 10 16 6 0
10 8 10 18 0 10 9 24 20 32 22 16 27 66 8 73 -10 3 -10 9 -2 28 31 66 35 81
23 95 -6 8 -18 14 -26 14 -8 0 -21 7 -29 15 -9 8 -27 18 -42 21 -26 5 -60 18
-92 33 -17 9 -80 -50 -80 -74 0 -10 -9 -15 -26 -15 -39 0 -91 61 -97 113 -10
80 -20 102 -79 159 -32 31 -58 64 -58 72 0 9 -4 16 -10 16 -15 0 -12 57 3 63
10 4 10 7 0 18 -8 8 -13 41 -13 84 l0 70 27 13 c15 6 33 12 40 12 7 0 13 5 13
10 0 6 14 10 30 10 17 0 30 5 30 10 0 6 -30 10 -70 10 l-70 0 0 20 c0 11 6 20
14 20 7 0 26 13 42 28 17 16 38 31 47 35 15 6 25 37 12 37 -3 0 -33 -13 -67
-30 -34 -16 -67 -30 -75 -30 -15 0 -18 46 -3 55 5 3 10 15 10 25 0 10 4 20 9
22 5 2 12 18 16 35 l7 33 -16 -6 c-9 -3 -16 -14 -16 -23 0 -9 -9 -23 -20 -31
-11 -8 -20 -20 -20 -28 0 -16 -24 -42 -40 -42 -29 0 -40 28 -56 138 -4 23 -11
42 -15 42 -5 0 -9 -3 -10 -7 0 -5 -2 -26 -5 -48 -3 -22 -5 -49 -5 -60 -1 -11
-3 -30 -5 -42 -6 -33 -47 -30 -69 4 -27 40 -86 96 -93 88 -4 -4 -1 -10 6 -12
6 -3 12 -13 12 -24 0 -10 5 -19 10 -19 6 0 10 -6 10 -12 0 -7 9 -24 20 -38 11
-14 20 -35 20 -47 l0 -23 -42 0 c-62 1 -74 15 -81 90 -3 36 -11 88 -17 115 -6
28 -15 97 -20 155 -12 136 -18 164 -41 189 -33 35 -22 103 23 142 10 9 18 28
18 43 0 15 8 31 20 38 11 7 20 21 20 30 0 10 5 18 10 18 6 0 10 9 10 20 0 11
5 20 10 20 6 0 10 28 10 64 0 36 -4 68 -10 71 -5 3 -10 13 -10 22 0 9 -19 35
-42 58 -32 31 -54 43 -83 48 -22 3 -47 7 -55 10 -8 3 -33 0 -55 -5z m115 -34
c0 -3 -7 -12 -15 -20 l-15 -15 -15 15 c-22 21 -19 26 15 26 17 0 30 -3 30 -6z
m-82 -30 c16 -5 22 -14 22 -35 0 -17 -5 -29 -13 -29 -7 0 -23 -10 -36 -21
l-23 -21 -24 12 c-15 9 -24 22 -24 37 0 34 19 51 70 62 3 0 15 -2 28 -5z m122
-56 l0 -28 -26 0 c-14 0 -32 7 -40 15 l-15 14 22 25 21 25 19 -12 c11 -7 19
-23 19 -39z m46 18 c8 -8 14 -31 14 -50 0 -20 5 -36 10 -36 6 0 10 -12 10 -26
0 -30 -37 -67 -58 -59 -7 3 -20 5 -28 5 -8 0 -14 7 -14 15 0 8 -4 15 -10 15
-5 0 -10 -5 -10 -11 0 -20 -29 -39 -60 -39 -44 0 -60 20 -60 74 l0 46 20 0
c11 0 20 5 20 10 0 21 53 10 75 -16 l22 -25 31 29 c31 29 43 62 22 62 -5 0
-10 5 -10 10 0 14 9 12 26 -4z m-286 -26 c0 -11 -4 -20 -10 -20 -5 0 -10 -7
-10 -15 0 -8 -4 -15 -10 -15 -15 0 -12 57 3 63 22 10 27 7 27 -13z m46 -54
c22 -22 18 -66 -5 -66 -11 0 -21 -5 -23 -11 -2 -7 -12 1 -22 16 l-18 27 13 24
c14 27 34 31 55 10z m-66 -76 c0 -5 -4 -10 -10 -10 -5 0 -10 5 -10 10 0 6 5
10 10 10 6 0 10 -4 10 -10z m137 -55 l26 -23 -16 -16 c-33 -33 -107 -8 -107
36 0 45 51 47 97 3z m123 9 c0 -22 -29 -43 -57 -44 -26 0 -31 22 -10 45 17 20
67 19 67 -1z m140 -874 c0 -5 -6 -10 -14 -10 -8 0 -18 5 -21 10 -3 6 3 10 14
10 12 0 21 -4 21 -10z"/>
</g>
</svg>
