<?xml version="1.0" standalone="no"?>
<!DOCTYPE svg PUBLIC "-//W3C//DTD SVG 20010904//EN"
 "http://www.w3.org/TR/2001/REC-SVG-20010904/DTD/svg10.dtd">
<svg version="1.0" xmlns="http://www.w3.org/2000/svg"
 width="200.000000pt" height="350.326566pt" viewBox="0 0 200.000000 350.326566"
 preserveAspectRatio="xMidYMid meet">
<metadata>
Created by Potrace Professional 1.0m
</metadata>
<g transform="translate(-2.000000,351.617267) rotate(-360.00) scale(0.100000,-0.100000)"
fill="#000000" stroke="none">
<path d="M1248 3513 c6 -2 12 -11 12 -19 0 -9 11 -14 28 -14 30 0 72 -38 72
-64 0 -8 6 -16 13 -19 8 -3 5 -11 -10 -24 -13 -11 -23 -28 -23 -37 0 -9 -4
-16 -10 -16 -5 0 -10 9 -10 20 l0 20 -37 0 -38 0 -12 -27 c-7 -15 -13 -33 -13
-40 0 -7 -4 -13 -10 -13 -5 0 -10 14 -10 30 0 23 -4 30 -20 30 -11 0 -20 -7
-20 -15 0 -23 -27 -29 -45 -12 -17 17 -21 107 -5 107 6 0 10 9 10 20 0 13 7
20 20 20 11 0 20 5 20 10 0 6 9 10 20 10 11 0 20 5 20 10 0 6 -9 10 -20 10
-11 0 -20 -4 -20 -10 0 -5 -7 -10 -16 -10 -23 0 -64 -50 -64 -77 0 -12 -5 -25
-11 -29 -6 -4 -9 -21 -5 -43 13 -89 19 -111 27 -111 5 0 9 -7 9 -16 0 -8 6
-22 14 -30 17 -16 46 -19 46 -4 0 19 15 10 28 -17 6 -15 12 -31 12 -36 0 -14
27 -37 44 -37 23 0 20 -13 -9 -38 -26 -22 -75 -30 -75 -12 0 6 -11 10 -25 10
-29 0 -115 -79 -115 -105 0 -11 -11 -15 -37 -15 -45 0 -52 -4 -82 -47 l-22
-33 -48 0 c-26 0 -61 4 -77 10 -27 8 -56 12 -229 27 -33 2 -64 9 -70 14 -5 5
-25 9 -45 9 -20 0 -41 5 -48 12 -9 9 -16 6 -30 -10 -19 -22 -52 -30 -52 -13 0
8 -46 15 -192 27 l-68 6 0 -21 0 -21 33 0 c17 0 39 -5 47 -10 l15 -10 -22 0
c-30 0 -29 -23 2 -46 14 -10 25 -25 25 -32 0 -19 26 -42 47 -42 11 0 24 -5 31
-12 9 -9 16 -6 30 10 25 29 82 30 102 2 l14 -19 95 1 c66 1 96 -2 99 -10 2 -7
17 -12 33 -12 16 0 29 -4 29 -10 0 -5 9 -10 19 -10 11 0 23 -4 26 -10 3 -5 17
-10 31 -10 13 0 24 -4 24 -10 0 -5 18 -10 41 -10 22 0 60 -5 84 -11 l45 -11 6
-36 c4 -19 20 -49 35 -65 22 -22 29 -40 29 -69 0 -37 12 -68 38 -96 6 -7 12
-14 12 -15 1 -1 3 -54 6 -117 4 -63 8 -117 11 -120 4 -5 29 32 25 38 -1 1 5
19 13 39 10 24 12 39 5 41 -12 4 -14 142 -1 142 17 0 23 -96 24 -355 0 -250
-7 -365 -23 -365 -5 0 -10 -19 -13 -42 -11 -91 -38 -165 -63 -175 -8 -3 -14
-12 -14 -20 0 -7 -31 -45 -70 -84 -38 -38 -70 -74 -70 -79 0 -6 -54 -64 -120
-130 -113 -112 -139 -150 -106 -150 44 0 209 132 229 183 3 9 13 17 22 17 8 0
15 6 15 13 1 12 104 127 115 127 10 0 5 -86 -6 -97 -7 -7 -9 -59 -5 -159 16
-380 17 -507 7 -517 -6 -6 -11 -50 -11 -98 0 -48 -4 -91 -10 -94 -5 -3 -10
-20 -10 -36 0 -16 -9 -47 -20 -69 -11 -22 -20 -44 -20 -50 0 -15 -80 -92 -113
-109 -30 -16 -33 -24 -14 -39 9 -8 24 -7 52 4 22 8 48 17 58 21 9 3 17 8 17
12 0 4 21 13 48 20 26 8 50 18 53 23 10 15 130 13 141 -3 7 -11 11 -11 15 -1
2 6 11 12 19 12 14 0 19 15 29 95 3 28 10 75 15 105 5 30 13 79 16 108 4 29
11 55 15 58 5 3 9 25 9 49 0 24 5 45 11 47 7 2 10 69 10 203 0 203 -2 239 -14
251 -11 11 -8 102 3 109 5 3 10 17 10 30 0 13 5 27 10 30 5 3 10 22 10 41 0
19 4 34 9 34 5 0 11 12 13 27 2 17 10 29 21 31 13 3 17 -3 17 -27 0 -17 4 -31
9 -31 5 0 11 -15 14 -32 3 -18 10 -53 17 -78 12 -50 28 -214 36 -360 3 -52 10
-99 15 -104 5 -6 9 -88 9 -182 0 -105 4 -175 10 -179 6 -3 10 -41 10 -84 0
-43 3 -81 8 -85 4 -4 7 -42 7 -83 0 -47 4 -78 11 -80 6 -2 29 12 50 31 21 20
43 36 47 36 11 0 57 47 57 58 0 5 14 23 30 40 17 18 30 41 30 51 0 11 4 22 9
25 16 10 36 401 21 421 -4 6 -10 57 -14 115 -9 157 -17 230 -27 236 -5 3 -9
83 -9 177 l0 172 20 13 20 12 0 68 0 69 25 11 c14 7 32 12 40 12 8 0 15 9 15
20 0 11 -4 20 -9 20 -4 0 -11 39 -14 87 l-6 86 17 31 c9 17 21 34 25 37 15 11
-5 205 -22 219 -3 3 -12 15 -19 28 l-12 22 45 45 c25 25 45 50 45 55 0 5 7 15
15 23 10 11 15 40 16 100 l1 84 19 14 c10 7 19 19 19 26 0 7 12 25 28 40 36
37 52 67 52 98 l0 25 -29 0 c-16 0 -32 -6 -35 -12 -5 -10 -7 -10 -12 0 -3 6
-17 12 -31 12 -39 0 -53 22 -53 84 0 31 5 56 10 56 15 0 12 83 -5 124 -9 20
-28 50 -44 66 l-28 30 -66 0 c-36 0 -69 5 -72 10 -3 6 -15 10 -27 10 -11 0
-33 14 -48 30 -28 30 -54 38 -65 20 -3 -5 -17 -10 -30 -10 -13 0 -27 5 -30 10
-3 6 -22 10 -41 10 -40 0 -41 3 -14 41 16 22 19 33 10 48 -16 30 -12 60 10 84
12 12 16 23 10 25 -5 2 -10 26 -10 53 0 27 -4 49 -10 49 -5 0 -10 13 -10 28 0
37 -27 92 -46 92 -8 0 -14 5 -14 10 0 6 -8 10 -18 10 -10 0 -22 3 -25 7 -4 3
-19 7 -34 9 -16 1 -22 0 -15 -3z m83 -263 c7 -19 18 -30 30 -30 10 0 19 -4 19
-10 0 -5 -8 -10 -17 -10 -10 0 -35 -3 -57 -7 l-38 -6 7 24 c4 13 12 26 16 27
5 2 9 12 9 23 0 29 20 23 31 -11z m69 20 c0 -5 -4 -10 -10 -10 -5 0 -10 5 -10
10 0 6 5 10 10 10 6 0 10 -4 10 -10z m-162 -28 c6 -18 -15 -14 -22 4 -4 10 -1
14 6 12 6 -2 14 -10 16 -16z m142 -122 c0 -13 -7 -20 -19 -20 -11 0 -21 -6
-24 -12 -3 -9 -11 -5 -25 11 -28 30 -20 41 29 41 l39 0 0 -20z m520 -570 c0
-5 -4 -10 -10 -10 -5 0 -10 5 -10 10 0 6 5 10 10 10 6 0 10 -4 10 -10z m-260
-98 c0 -15 5 -33 11 -39 9 -9 6 -19 -10 -41 -11 -17 -21 -44 -21 -61 0 -17 -4
-31 -10 -31 -5 0 -10 9 -10 19 0 11 -4 23 -10 26 -5 3 -10 17 -10 31 0 13 5
24 10 24 6 0 10 14 10 30 0 17 5 30 10 30 6 0 10 9 10 20 0 11 5 20 10 20 6 0
10 -13 10 -28z m120 -432 c0 -11 5 -20 10 -20 6 0 10 -22 10 -50 0 -27 -4 -50
-10 -50 -5 0 -10 11 -10 25 0 13 -9 40 -20 60 -11 20 -20 40 -20 45 0 6 9 10
20 10 13 0 20 -7 20 -20z"/>
</g>
</svg>
