<?xml version="1.0" standalone="no"?>
<!DOCTYPE svg PUBLIC "-//W3C//DTD SVG 20010904//EN"
 "http://www.w3.org/TR/2001/REC-SVG-20010904/DTD/svg10.dtd">
<svg version="1.0" xmlns="http://www.w3.org/2000/svg"
 width="143.560348pt" height="335.869806pt" viewBox="0 0 143.560348 335.869806"
 preserveAspectRatio="xMidYMid meet">
<metadata>
Created by Potrace Professional 1.0m
</metadata>
<g transform="translate(-2.000000,337.871026) rotate(-360.00) scale(0.100000,-0.100000)"
fill="#000000" stroke="none">
<path d="M615 3366 c-16 -6 -39 -19 -49 -28 -11 -10 -25 -18 -31 -18 -20 0
-50 -53 -56 -99 -10 -77 0 -127 32 -161 29 -30 38 -64 19 -75 -5 -3 -10 -15
-10 -26 0 -10 -4 -19 -10 -19 -5 0 -10 -9 -10 -20 0 -11 -4 -20 -10 -20 -5 0
-10 -10 -10 -22 0 -13 -7 -31 -15 -42 l-14 -18 -16 16 c-20 20 -35 21 -35 1 0
-17 -55 -21 -65 -5 -4 6 -16 4 -31 -6 -25 -17 -33 -59 -12 -66 8 -3 5 -12 -10
-28 -12 -13 -22 -28 -22 -32 0 -5 -9 -18 -20 -30 -11 -12 -20 -32 -20 -45 0
-13 -4 -23 -10 -23 -5 0 -10 -13 -10 -30 0 -16 -4 -30 -9 -30 -5 0 -12 -21
-15 -47 -11 -95 -18 -133 -27 -139 -5 -3 -9 -16 -9 -29 0 -32 -36 -92 -82
-137 l-38 -36 0 -44 c0 -32 5 -47 20 -58 11 -8 20 -24 20 -35 0 -12 8 -30 18
-41 11 -11 22 -38 25 -59 4 -22 10 -55 13 -74 4 -22 2 -36 -6 -41 -7 -4 -13
-26 -14 -48 0 -30 5 -46 22 -60 12 -11 22 -27 22 -36 0 -9 5 -16 10 -16 13 0
13 -127 0 -135 -13 -8 -13 -45 0 -45 6 0 10 -7 10 -15 0 -25 46 -65 75 -65 14
0 25 5 25 10 0 6 14 10 30 10 17 0 30 5 30 10 0 6 4 10 10 10 5 0 14 -19 20
-42 6 -24 15 -51 20 -60 6 -10 10 -27 10 -38 0 -11 5 -20 10 -20 6 0 10 -13
10 -30 0 -16 -5 -30 -11 -30 -21 0 1 -186 25 -203 8 -6 7 -10 -1 -14 -8 -3
-13 -26 -13 -63 l0 -59 20 -6 20 -6 0 -94 c0 -52 4 -97 10 -100 6 -3 10 -18
10 -32 0 -25 12 -70 31 -118 7 -19 12 -41 26 -108 4 -19 0 -33 -13 -45 -11 -9
-25 -34 -32 -55 l-13 -37 12 -38 c7 -20 13 -68 14 -107 l1 -70 17 -3 c9 -2 17
-8 17 -13 0 -5 28 -9 63 -9 l62 0 27 24 c16 13 28 31 28 40 0 9 5 16 10 16 6
0 10 11 10 24 0 14 4 28 10 31 5 3 10 40 10 81 l0 75 -25 24 c-13 14 -31 25
-40 25 l-16 0 4 83 c6 98 16 155 28 163 13 7 11 174 -1 174 -5 0 -10 23 -10
50 0 28 5 50 10 50 17 0 11 48 -11 94 l-21 45 6 88 c3 48 8 140 12 203 3 63
10 119 15 124 5 6 9 18 9 28 0 10 4 18 8 18 17 0 32 -25 32 -52 0 -15 5 -28
10 -28 6 0 10 -13 10 -30 0 -16 5 -30 10 -30 6 0 10 -11 10 -24 0 -14 5 -28
10 -31 6 -3 10 -24 10 -46 0 -21 4 -39 9 -39 5 0 11 -13 14 -29 3 -16 13 -36
22 -44 17 -18 22 -127 5 -127 -6 0 -10 -27 -10 -60 0 -33 -4 -60 -9 -60 -5 0
-11 -51 -15 -112 -13 -258 -18 -323 -27 -332 -14 -15 -11 -133 4 -139 9 -4 8
-8 -3 -16 l-15 -11 14 -9 15 -10 -25 -20 -24 -21 18 -11 c12 -7 15 -17 11 -35
l-6 -24 21 0 c14 0 21 6 21 20 0 11 5 20 10 20 6 0 10 40 10 100 0 60 -4 100
-10 100 -5 0 -10 -4 -10 -10 0 -5 -4 -10 -10 -10 -21 0 -9 19 20 32 17 7 30
21 30 30 0 21 -16 24 -23 6 -2 -7 -8 -10 -12 -6 -6 6 37 58 48 58 17 0 34
-207 18 -223 -6 -6 -11 -26 -11 -44 0 -18 -4 -33 -8 -33 -14 0 -12 -91 2 -106
17 -16 66 -19 66 -4 0 6 11 10 24 10 14 0 28 5 31 10 3 6 15 10 26 10 10 0 19
5 19 10 0 6 14 10 30 10 17 0 30 5 30 10 0 6 11 10 24 10 14 0 28 5 31 10 3 6
15 10 26 10 10 0 27 4 37 9 9 5 31 15 47 22 56 26 73 74 36 106 -26 22 -89 43
-131 43 -77 1 -106 11 -117 41 -7 18 -8 42 -2 66 5 21 9 59 9 85 0 27 5 48 13
51 9 4 8 8 -3 16 -12 8 -12 13 -2 23 14 14 16 114 2 123 -24 15 -7 134 22 155
4 3 8 26 10 50 2 25 7 48 11 51 5 4 3 16 -5 28 l-13 22 15 10 c11 8 12 12 3
16 -7 2 -13 22 -13 43 0 21 -5 40 -12 42 -9 3 -9 22 0 84 7 43 12 146 12 227
l0 148 34 14 c19 8 38 20 42 27 11 18 6 77 -12 123 -8 22 -17 48 -21 58 -3 9
-9 17 -14 17 -5 0 -9 11 -9 25 l0 25 28 0 c15 0 40 -7 56 -15 27 -14 76 -21
76 -10 0 3 -14 20 -31 37 -17 18 -26 34 -20 36 6 2 11 10 11 19 0 19 24 43 44
43 9 0 16 4 16 9 0 5 12 11 28 14 43 9 72 40 72 77 0 23 9 40 33 63 20 19 27
32 20 34 -7 3 -13 11 -13 20 0 19 -24 43 -44 43 -9 0 -16 5 -16 10 0 6 -9 10
-20 10 -15 0 -20 7 -20 29 0 17 -4 33 -10 36 -5 3 -10 16 -10 28 0 12 -15 36
-34 53 -37 34 -106 169 -106 207 0 13 -5 28 -11 34 -8 8 -8 13 0 17 6 4 11 39
11 82 l0 74 -38 0 c-26 0 -42 -6 -52 -20 -8 -11 -25 -20 -38 -20 -15 0 -26 7
-29 20 -5 20 -23 28 -23 10 0 -16 -129 -12 -146 4 -21 21 -17 35 16 66 17 15
30 35 30 44 0 9 5 16 10 16 6 0 10 13 10 29 0 17 5 33 10 36 6 3 10 17 10 31
0 13 -4 24 -10 24 -5 0 -10 14 -10 30 0 17 -4 30 -10 30 -5 0 -10 9 -10 19 0
11 -4 23 -10 26 -5 3 -10 19 -10 34 0 41 -22 80 -52 94 -16 6 -28 15 -28 19 0
5 -11 8 -24 8 -14 0 -28 5 -31 10 -8 13 -92 11 -130 -4z m25 -136 c0 -5 -9
-10 -20 -10 -11 0 -20 5 -20 10 0 6 9 10 20 10 11 0 20 -4 20 -10z m33 -44 c9
-7 17 -16 17 -19 0 -9 -51 -18 -71 -12 -25 8 -24 25 1 25 11 0 20 5 20 10 0
13 11 12 33 -4z m47 10 c0 -3 -4 -8 -10 -11 -5 -3 -10 -1 -10 4 0 6 5 11 10
11 6 0 10 -2 10 -4z m-190 -56 c0 -11 -7 -20 -15 -20 -8 0 -15 9 -15 20 0 11
7 20 15 20 8 0 15 -9 15 -20z m50 -250 c0 -5 -9 -10 -20 -10 -11 0 -20 5 -20
10 0 6 9 10 20 10 11 0 20 -4 20 -10z m-20 -105 c0 -8 -4 -15 -10 -15 -5 0
-10 7 -10 15 0 8 5 15 10 15 6 0 10 -7 10 -15z m40 0 c0 -8 -4 -15 -10 -15 -5
0 -10 7 -10 15 0 8 5 15 10 15 6 0 10 -7 10 -15z m150 5 c-19 -13 -30 -13 -30
0 0 6 10 10 23 10 l22 0 -15 -10z m50 0 c0 -5 -4 -10 -10 -10 -5 0 -10 5 -10
10 0 6 5 10 10 10 6 0 10 -4 10 -10z m60 0 c0 -5 -9 -10 -20 -10 -11 0 -20 5
-20 10 0 6 9 10 20 10 11 0 20 -4 20 -10z m-360 -16 c0 -3 -7 -12 -16 -21
l-15 -16 -25 13 c-35 19 -30 30 16 30 22 0 40 -3 40 -6z m560 -106 c0 -12 -10
-9 -26 6 -20 21 -17 28 6 14 11 -7 20 -16 20 -20z m-359 -38 c-1 -25 2 -46 9
-50 9 -6 7 -15 -6 -35 -10 -15 -20 -23 -22 -16 -5 16 -22 14 -22 -4 0 -8 -4
-15 -10 -15 -19 0 -10 39 10 45 16 5 20 15 20 46 0 21 -4 39 -10 39 -5 0 -10
-4 -10 -10 0 -5 -4 -10 -10 -10 -5 0 -10 9 -10 20 0 13 7 20 20 20 11 0 20 5
20 11 0 6 6 9 12 7 8 -3 11 -20 9 -48z m-401 16 c0 -8 -4 -18 -10 -21 -5 -3
-10 3 -10 14 0 12 5 21 10 21 6 0 10 -6 10 -14z m480 -196 c0 -5 -4 -10 -10
-10 -5 0 -10 5 -10 10 0 6 5 10 10 10 6 0 10 -4 10 -10z m-540 -30 c0 -11 -4
-20 -10 -20 -5 0 -10 9 -10 20 0 11 5 20 10 20 6 0 10 -9 10 -20z m860 -10 c0
-5 -4 -10 -10 -10 -5 0 -10 5 -10 10 0 6 5 10 10 10 6 0 10 -4 10 -10z m-340
-55 c0 -8 -4 -15 -10 -15 -5 0 -10 7 -10 15 0 8 5 15 10 15 6 0 10 -7 10 -15z
m404 -40 c15 -23 22 -75 11 -75 -16 0 -55 53 -55 75 0 32 23 33 44 0z m-73
-22 c8 -16 22 -35 31 -44 10 -9 18 -23 18 -32 0 -8 6 -18 13 -21 10 -5 10 -7
0 -12 -7 -3 -13 -14 -13 -25 0 -13 -7 -19 -24 -19 -34 0 -41 16 -37 81 1 34
-2 60 -8 63 -13 8 -15 36 -3 36 5 0 15 -12 23 -27z m149 -68 c0 -25 5 -45 10
-45 6 0 10 9 10 20 0 11 4 20 9 20 13 0 11 -114 -2 -122 -20 -13 -27 -9 -27
16 0 14 -4 28 -10 31 -5 3 -10 22 -10 41 0 19 -4 34 -10 34 -5 0 -10 11 -10
25 0 18 5 25 20 25 l20 0 0 -45z m-500 -15 c0 -5 -9 -10 -20 -10 -11 0 -20 5
-20 10 0 6 9 10 20 10 11 0 20 -4 20 -10z m-579 -22 c2 -27 -3 -63 -11 -68 -4
-3 -11 -20 -15 -37 -9 -45 -21 -49 -39 -12 -20 40 -20 43 0 35 22 -9 43 21 44
62 0 30 19 47 21 20z m479 2 c0 -5 -9 -10 -20 -10 -11 0 -20 5 -20 10 0 6 9
10 20 10 11 0 20 -4 20 -10z m-194 -24 c16 -17 19 -66 4 -66 -5 0 -10 -7 -10
-16 0 -33 -42 -56 -77 -43 -27 10 -33 59 -7 59 18 0 34 15 53 53 17 31 18 32
37 13z m334 -20 c0 -8 -16 -15 -42 -19 -49 -7 -64 -1 -47 19 15 19 89 19 89 0z
m426 0 c19 -20 18 -26 -6 -26 -13 0 -20 7 -20 20 0 24 6 25 26 6z m-551 -16
c-3 -5 -22 -10 -41 -10 -19 0 -34 5 -34 10 0 6 18 10 41 10 24 0 38 -4 34 -10z
m565 -40 c0 -5 -4 -10 -10 -10 -5 0 -10 5 -10 10 0 6 5 10 10 10 6 0 10 -4 10
-10z m-480 -82 c-1 -21 -26 -48 -44 -48 -19 0 -21 25 -3 45 15 18 47 19 47 3z
m47 -3 c8 -9 13 -19 9 -22 -7 -7 -36 16 -36 28 0 13 10 11 27 -6z m-167 -16
c0 -5 -4 -9 -10 -9 -5 0 -10 7 -10 16 0 8 5 12 10 9 6 -3 10 -10 10 -16z m-40
-14 c0 -8 -4 -15 -10 -15 -5 0 -10 7 -10 15 0 8 5 15 10 15 6 0 10 -7 10 -15z
m-400 -9 c0 -8 3 -21 6 -30 4 -11 1 -16 -10 -16 -11 0 -16 9 -16 30 0 17 5 30
10 30 6 0 10 -6 10 -14z m140 -89 c0 -13 5 -28 11 -34 5 -5 9 -38 7 -74 -2
-48 -7 -65 -19 -67 l-15 -3 -3 83 c-1 45 -6 87 -11 94 -11 12 -3 24 17 24 7 0
13 -10 13 -23z m-136 -12 c3 -8 3 -21 0 -29 -3 -8 -1 -17 5 -21 14 -8 14 -55
1 -55 -5 0 -10 14 -10 30 0 17 -4 30 -10 30 -5 0 -10 14 -10 30 0 32 14 40 24
15z m576 -295 c0 -5 -7 -10 -16 -10 -8 0 -12 5 -9 10 3 6 10 10 16 10 5 0 9
-4 9 -10z m200 -720 c0 -27 5 -50 10 -50 14 0 13 -57 -1 -62 -9 -3 -9 -9 0
-25 19 -36 13 -82 -14 -111 l-25 -26 -14 19 c-9 12 -15 42 -16 73 l0 52 -30 0
-30 0 0 24 c0 25 22 51 33 39 4 -3 7 -16 8 -27 l0 -21 9 20 c5 11 9 43 9 71 1
53 13 74 43 74 l18 0 0 -50z m-80 -10 c0 -11 -4 -20 -10 -20 -5 0 -10 9 -10
20 0 11 5 20 10 20 6 0 10 -9 10 -20z m-322 -35 c2 -16 8 -34 13 -39 10 -11
12 -188 3 -223 -7 -27 -22 -30 -30 -5 -3 9 -17 39 -31 66 -24 48 -48 193 -36
223 4 9 18 13 42 11 l36 -3 3 -30z m58 -30 c3 -14 3 -33 -2 -42 l-8 -18 -4 25
c-2 14 -8 29 -13 35 -13 14 -11 25 6 25 8 0 17 -11 21 -25z m264 -105 c0 -16
-4 -30 -10 -30 -5 0 -10 14 -10 30 0 17 5 30 10 30 6 0 10 -13 10 -30z m-34
-104 c8 -8 14 -20 14 -26 0 -12 -24 -40 -34 -40 -3 0 -6 18 -6 40 0 43 4 47
26 26z m-266 -280 c0 -8 3 -21 6 -30 4 -10 1 -16 -9 -16 -18 0 -29 24 -21 45
8 19 24 20 24 1z m380 -60 c0 -19 -5 -24 -24 -22 l-23 1 16 22 c21 29 31 29
31 -1z m-370 -101 c0 -29 -3 -60 -6 -69 -8 -21 -31 -20 -51 0 l-17 16 12 19
c7 10 12 26 12 34 0 8 5 15 10 15 6 0 10 8 10 18 0 10 3 22 6 25 15 15 24 -7
24 -58z m310 15 c0 -11 -4 -20 -10 -20 -5 0 -10 9 -10 20 0 11 5 20 10 20 6 0
10 -9 10 -20z m58 -23 c2 -12 -3 -17 -17 -17 -15 0 -21 6 -21 21 0 25 33 22
38 -4z"/>
<path d="M920 720 c0 -11 5 -20 10 -20 6 0 10 9 10 20 0 11 -4 20 -10 20 -5 0
-10 -9 -10 -20z"/>
<path d="M520 700 c0 -11 5 -20 10 -20 6 0 10 9 10 20 0 11 -4 20 -10 20 -5 0
-10 -9 -10 -20z"/>
</g>
</svg>
