<?xml version="1.0" standalone="no"?>
<!DOCTYPE svg PUBLIC "-//W3C//DTD SVG 20010904//EN"
 "http://www.w3.org/TR/2001/REC-SVG-20010904/DTD/svg10.dtd">
<svg version="1.0" xmlns="http://www.w3.org/2000/svg"
 width="396.000000pt" height="126.000000pt" viewBox="0 0 396.000000 126.000000"
 preserveAspectRatio="xMidYMid meet">
<metadata>
Created by Potrace Professional 1.0m
</metadata>
<g transform="translate(-2.000000,128.000000) rotate(-360.00) scale(0.100000,-0.100000)"
fill="#000000" stroke="none">
<path d="M1998 1198 l-3 -83 -17 3 c-19 3 -25 -13 -9 -22 11 -7 10 -76 -1 -76
-4 0 -8 10 -8 22 0 23 -16 81 -31 110 -5 10 -9 27 -9 39 0 19 -21 49 -34 49
-3 0 -6 -9 -6 -20 0 -11 -4 -20 -10 -20 -5 0 -10 -12 -10 -26 l0 -25 20 6 c16
5 20 2 20 -14 0 -12 -4 -21 -10 -21 -13 0 -13 -66 1 -92 6 -11 8 -22 5 -25 -6
-6 -36 22 -36 34 0 23 -27 63 -42 63 -21 0 -22 -4 -6 -30 7 -10 9 -22 6 -26
-9 -8 -38 20 -38 36 0 12 -24 40 -34 40 -15 0 -4 -37 14 -50 11 -8 20 -22 20
-31 0 -10 13 -21 30 -28 32 -11 41 -31 14 -31 -18 0 -85 68 -112 113 -9 15
-20 27 -24 27 -4 0 -8 8 -8 19 0 10 -8 21 -17 25 -10 3 -24 9 -30 12 -20 9
-15 -10 7 -34 11 -12 20 -26 20 -32 0 -5 4 -10 8 -10 5 0 15 -12 23 -27 8 -16
18 -31 24 -35 6 -5 5 -12 -5 -17 -8 -6 -11 -13 -7 -18 5 -4 12 -1 17 7 l9 15
15 -20 c20 -26 20 -65 1 -65 -8 0 -34 18 -57 40 -24 22 -46 40 -50 40 -5 0
-27 18 -49 40 -25 24 -51 40 -65 40 -30 0 -30 -7 -1 -31 l22 -19 -15 -9 c-8
-6 -11 -13 -7 -18 5 -4 12 -1 16 6 11 17 32 5 24 -14 -3 -8 -1 -15 5 -15 6 0
12 5 14 12 3 8 15 2 33 -16 l28 -28 -14 -10 c-11 -7 -11 -11 -1 -15 19 -8 14
-23 -8 -23 -11 0 -20 5 -20 10 0 6 -9 10 -20 10 -11 0 -20 3 -20 8 0 8 -48 32
-65 32 -6 0 -17 9 -25 20 -18 25 -30 26 -30 1 0 -12 12 -25 30 -33 17 -7 30
-16 30 -20 0 -5 8 -8 18 -8 10 0 24 -9 32 -20 8 -11 20 -20 27 -20 7 0 13 -4
13 -10 0 -14 -27 -12 -33 3 -4 9 -8 8 -17 -3 -9 -11 -13 -12 -17 -2 -2 6 -18
12 -34 12 -28 0 -40 15 -18 22 14 5 0 38 -17 38 -8 0 -14 -4 -14 -10 0 -5 5
-10 10 -10 6 0 10 -5 10 -11 0 -6 -12 -9 -27 -7 -15 2 -28 -2 -30 -9 -3 -8 4
-13 16 -13 12 0 21 -4 21 -10 0 -5 7 -10 15 -10 8 0 23 -4 33 -9 74 -37 106
-51 118 -51 8 0 14 -7 14 -16 0 -11 -5 -14 -17 -10 -9 4 -20 1 -24 -5 -4 -8
-16 -9 -35 -4 l-29 9 23 3 c27 5 29 23 3 23 -11 0 -23 5 -26 10 -3 6 -17 10
-31 10 -13 0 -24 5 -24 10 0 6 -13 10 -29 10 -16 0 -31 5 -33 12 -2 6 -10 8
-17 4 -18 -12 6 -36 35 -36 13 0 24 -4 24 -10 0 -5 13 -10 29 -10 17 0 31 -6
35 -16 l6 -16 -42 7 c-24 4 -44 11 -46 16 -2 5 -17 9 -33 9 -22 0 -29 -5 -29
-19 0 -13 8 -21 23 -23 15 -2 21 -9 19 -20 -3 -19 13 -24 23 -8 3 6 24 10 45
10 21 0 42 -4 45 -10 4 -6 -13 -10 -44 -10 -28 0 -51 -4 -51 -10 0 -5 13 -10
29 -10 17 0 33 -4 36 -10 3 -5 22 -10 41 -10 19 0 34 5 34 10 0 6 -4 10 -10
10 -5 0 -10 5 -10 10 0 6 9 10 20 10 13 0 20 -7 20 -20 0 -11 7 -20 15 -20 8
0 15 -4 15 -10 0 -6 -52 -10 -135 -10 -83 0 -135 -4 -135 -10 0 -10 42 -15 87
-11 12 1 24 -3 28 -9 3 -5 24 -10 46 -10 21 0 39 -4 39 -10 0 -5 8 -10 17 -10
26 0 3 -16 -32 -23 -16 -4 -24 -4 -17 -1 22 10 12 24 -18 24 -16 0 -30 -4 -30
-10 0 -5 7 -10 16 -10 8 0 12 -4 9 -10 -3 -5 -26 -10 -50 -10 -53 0 -75 -8
-75 -26 0 -17 11 -17 99 -2 l70 12 26 -14 c30 -16 33 -30 5 -30 -11 0 -20 -4
-20 -10 0 -5 -9 -10 -20 -10 -11 0 -20 -4 -20 -10 0 -5 -9 -10 -20 -10 -28 0
-100 -23 -100 -32 0 -5 14 -8 30 -8 17 0 30 5 30 10 0 6 13 10 28 10 15 0 33
5 39 11 6 6 26 9 44 6 l34 -4 -22 -8 c-25 -8 -31 -25 -10 -25 18 0 67 24 67
33 0 4 -8 7 -17 7 -13 0 -14 3 -5 12 9 9 17 8 37 -2 32 -17 32 -25 -5 -42 -16
-7 -30 -16 -30 -20 0 -5 -6 -8 -13 -8 -7 0 -23 -9 -35 -20 -12 -11 -25 -20
-30 -20 -4 0 -17 -8 -28 -17 -10 -10 -31 -24 -46 -32 -33 -17 -36 -31 -8 -31
11 0 20 5 20 10 0 6 9 10 20 10 11 0 20 5 20 10 0 6 9 10 20 10 11 0 20 4 20
9 0 5 14 14 30 21 17 7 30 16 30 21 0 5 9 9 20 9 11 0 20 5 20 10 0 6 9 10 20
10 11 0 20 -4 20 -10 0 -5 -9 -10 -20 -10 -22 0 -27 -16 -7 -23 7 -2 8 -8 3
-13 -5 -5 -11 -4 -13 4 -8 21 -38 13 -50 -15 -14 -28 -8 -47 7 -23 5 8 12 11
16 8 3 -4 -21 -34 -55 -66 -33 -33 -61 -62 -61 -66 0 -20 37 2 89 54 33 33 66
60 73 60 6 0 -5 -15 -25 -34 -20 -18 -37 -38 -37 -44 0 -5 -14 -24 -32 -41
-35 -34 -33 -50 3 -29 27 15 50 38 88 88 41 54 92 103 99 95 4 -4 1 -10 -5
-12 -7 -3 -13 -13 -13 -24 0 -10 -4 -19 -10 -19 -5 0 -10 -6 -10 -13 0 -7 -9
-23 -20 -35 -11 -12 -20 -28 -20 -37 0 -8 -4 -15 -10 -15 -5 0 -10 -9 -10 -20
0 -11 -4 -20 -9 -20 -8 0 -41 -60 -41 -74 0 -3 6 -6 13 -6 14 0 57 63 57 83 0
7 9 19 20 27 11 8 20 20 20 28 0 20 32 50 38 34 5 -17 42 -15 42 3 0 8 5 15
10 15 13 0 13 -25 1 -48 -51 -95 -82 -182 -65 -182 11 0 34 29 34 44 0 9 5 16
10 16 6 0 10 9 10 20 0 11 5 20 11 20 7 0 10 -12 7 -30 -7 -50 17 -35 32 20 7
27 17 50 22 50 4 0 8 9 8 20 0 11 5 20 10 20 11 0 8 -65 -3 -77 -4 -3 -7 -19
-7 -35 0 -15 -4 -28 -10 -28 -5 0 -10 -14 -10 -31 0 -24 4 -30 18 -27 12 2 18
15 20 43 2 22 8 44 13 50 5 5 9 19 9 32 0 40 37 93 64 93 11 0 16 -9 16 -30 0
-16 5 -30 10 -30 6 0 10 -9 10 -20 0 -11 -4 -20 -10 -20 -6 0 -10 -27 -10 -60
l0 -60 20 0 20 0 2 103 c0 56 0 114 -1 129 -1 16 2 28 6 28 12 0 33 -60 33
-93 0 -20 5 -27 20 -27 21 0 27 15 10 25 -5 3 -10 22 -10 41 0 19 5 34 10 34
6 0 10 -13 10 -29 0 -17 5 -33 10 -36 6 -3 10 -17 10 -31 0 -17 5 -24 20 -24
23 0 27 29 8 48 -9 9 -9 12 0 12 7 0 12 -4 12 -10 0 -5 5 -10 10 -10 6 0 10 9
10 20 0 11 3 20 6 20 16 0 54 -61 54 -88 0 -21 22 -72 31 -72 16 0 18 35 4 63
-8 16 -15 36 -15 44 0 7 -3 13 -8 13 -9 0 -32 73 -25 80 3 3 8 -1 10 -7 10
-28 25 -12 20 20 -3 17 -3 26 0 20 2 -7 11 -13 19 -13 8 0 18 -8 21 -17 4 -10
21 -31 37 -48 17 -17 43 -47 58 -66 l27 -34 1 30 c0 20 -7 36 -20 45 -11 8
-20 20 -20 26 0 6 -22 35 -50 64 -51 53 -62 80 -34 80 21 0 44 -24 44 -47 1
-39 52 -72 63 -40 2 7 20 -5 45 -31 34 -36 72 -55 72 -37 0 10 -49 55 -59 55
-5 0 -39 30 -76 66 l-67 66 6 24 c8 29 27 31 46 4 8 -11 20 -20 28 -20 7 0 25
-12 40 -26 15 -14 44 -33 65 -42 20 -9 37 -20 37 -24 0 -5 9 -8 20 -8 11 0 20
3 20 6 0 10 -28 34 -40 34 -6 0 -25 13 -43 30 -18 16 -36 30 -40 30 -4 0 -22
13 -40 30 -18 16 -38 30 -44 30 -17 0 -17 17 0 23 7 2 8 8 3 13 -5 5 -11 4
-13 -3 -6 -18 -31 -16 -50 3 l-16 16 13 8 c16 10 83 1 88 -12 2 -4 14 -8 27
-8 13 0 27 -4 30 -10 3 -5 15 -10 26 -10 10 0 19 -4 19 -10 0 -5 9 -10 19 -10
11 0 23 -4 26 -10 10 -15 65 -12 82 5 21 21 9 45 -22 45 -14 0 -25 5 -25 10 0
6 -13 10 -30 10 -16 0 -30 -4 -30 -10 0 -5 -9 -10 -20 -10 -22 0 -27 16 -7 23
6 2 8 8 4 13 -4 4 -17 3 -27 -4 -27 -17 -32 -15 -25 8 l6 20 -23 0 c-25 0 -78
21 -78 31 0 6 90 -8 136 -22 17 -5 47 -9 67 -9 20 0 39 -4 42 -10 3 -5 15 -10
26 -10 10 0 19 5 19 10 0 6 -7 10 -15 10 -8 0 -15 4 -15 9 0 8 -22 15 -97 28
l-33 5 0 29 0 28 65 -1 c36 0 65 -5 65 -9 0 -15 60 -10 76 5 8 8 14 17 14 20
0 3 -56 6 -124 6 -73 0 -127 4 -131 10 -3 6 -15 10 -26 10 -10 0 -19 5 -19 10
0 6 31 10 74 10 41 0 78 5 81 10 3 6 19 10 36 10 16 0 29 5 29 10 0 6 -22 10
-50 10 -27 0 -50 -4 -50 -10 0 -5 -18 -10 -40 -10 -22 0 -40 4 -40 9 0 8 15
12 118 27 23 4 42 11 42 15 0 5 14 9 30 9 17 0 30 5 30 10 0 6 -26 10 -59 10
-33 0 -63 -4 -66 -10 -3 -5 -31 -10 -61 -10 -30 0 -54 5 -54 10 0 6 5 10 10
10 6 0 10 5 10 10 0 6 -9 10 -20 10 -11 0 -20 5 -20 10 0 6 9 10 19 10 11 0
23 5 26 10 3 6 17 10 31 10 13 0 24 5 24 10 0 6 8 10 18 10 19 0 42 18 42 32
0 4 -9 8 -20 8 -11 0 -20 -4 -20 -10 0 -5 -7 -10 -15 -10 -8 0 -24 -6 -35 -12
-16 -10 -24 -10 -40 0 -11 6 -27 12 -35 12 -8 0 -15 3 -15 6 0 9 28 34 38 34
10 0 142 123 142 133 0 16 -29 5 -57 -22 -37 -35 -76 -51 -67 -27 9 23 -5 20
-27 -6 -11 -11 -22 -19 -25 -15 -3 3 3 16 15 28 12 13 21 27 21 32 0 5 18 26
40 47 44 42 48 50 25 50 -8 0 -51 -36 -95 -80 -82 -81 -110 -96 -110 -60 0 11
5 20 10 20 6 0 10 6 10 13 0 7 9 23 20 35 11 12 20 26 20 32 0 6 9 20 20 32
21 23 27 68 10 68 -5 0 -10 -8 -10 -18 0 -10 -9 -24 -20 -32 -11 -8 -20 -20
-20 -26 0 -6 -13 -25 -30 -42 -16 -18 -30 -39 -30 -47 0 -18 -16 -20 -24 -2
-5 10 -7 10 -12 0 -3 -7 -10 -13 -15 -13 -12 0 -12 37 1 45 6 3 10 15 10 26 0
10 9 38 19 62 30 65 36 90 20 85 -8 -3 -15 -17 -17 -31 -2 -15 -8 -27 -13 -27
-5 0 -9 -7 -9 -15 0 -21 -50 -71 -67 -67 -7 2 -13 -6 -13 -18 0 -11 5 -20 10
-20 6 0 10 -9 10 -20 0 -14 -7 -20 -23 -20 l-23 0 4 110 c3 78 1 110 -7 110
-7 0 -11 -20 -11 -50 0 -27 -4 -50 -10 -50 -5 0 -10 -18 -10 -40 0 -22 -4 -40
-10 -40 -5 0 -10 -13 -10 -30 0 -16 -4 -30 -10 -30 -5 0 -10 9 -10 20 0 11 -4
20 -10 20 -5 0 -10 18 -10 40 0 22 -4 40 -9 40 -4 0 -8 25 -7 56 1 37 -3 58
-11 61 -9 3 -13 -19 -15 -79z m242 -169 c0 -5 -9 -9 -20 -9 -19 0 -26 11 -14
23 8 8 34 -3 34 -14z m120 -64 c0 -8 -4 -15 -10 -15 -5 0 -10 7 -10 15 0 8 5
15 10 15 6 0 10 -7 10 -15z m-40 -31 c0 -3 -7 -12 -15 -21 -20 -19 -32 -10
-14 11 14 15 29 21 29 10z m-180 -146 c0 -4 -4 -8 -10 -8 -5 0 -10 -16 -10
-36 0 -28 7 -43 32 -65 l33 -28 -20 -7 c-11 -5 -20 -3 -23 4 -6 19 -22 14 -22
-8 0 -11 5 -20 10 -20 17 0 11 -29 -12 -55 -13 -16 -28 -23 -39 -20 -9 3 -24
-1 -32 -10 -17 -17 -87 -21 -87 -5 0 6 -7 10 -16 10 -32 0 -45 27 -45 95 -1
39 -5 65 -11 65 -6 0 -3 9 7 20 10 11 27 20 37 20 21 0 48 22 48 39 0 13 53 3
58 -11 7 -16 42 -8 42 10 0 14 8 19 30 19 17 0 30 -4 30 -9z m280 2 c0 -5 -9
-10 -20 -10 -11 0 -20 5 -20 10 0 6 9 10 20 10 11 0 20 -4 20 -10z m40 -150
c0 -11 -4 -20 -10 -20 -5 0 -10 9 -10 20 0 11 5 20 10 20 6 0 10 -9 10 -20z
m-795 -10 c-3 -5 -10 -10 -16 -10 -5 0 -9 5 -9 10 0 6 7 10 16 10 8 0 12 -4 9
-10z m-25 -80 c0 -5 -4 -10 -10 -10 -5 0 -10 5 -10 10 0 6 5 10 10 10 6 0 10
-4 10 -10z m940 -60 c0 -5 -9 -10 -20 -10 -11 0 -20 5 -20 10 0 6 9 10 20 10
11 0 20 -4 20 -10z m60 -20 c0 -5 -9 -10 -20 -10 -11 0 -20 5 -20 10 0 6 9 10
20 10 11 0 20 -4 20 -10z m-720 -140 c0 -5 -5 -10 -11 -10 -5 0 -7 5 -4 10 3
6 8 10 11 10 2 0 4 -4 4 -10z m320 -40 c0 -5 -4 -10 -10 -10 -5 0 -10 5 -10
10 0 6 5 10 10 10 6 0 10 -4 10 -10z m-324 -26 c-3 -9 -6 -18 -6 -20 0 -9 -39
-4 -45 6 -3 6 3 10 14 10 12 0 21 5 21 10 0 6 5 10 11 10 6 0 8 -7 5 -16z
m284 -14 c0 -5 -4 -10 -10 -10 -5 0 -10 5 -10 10 0 6 5 10 10 10 6 0 10 -4 10
-10z m-340 -40 c0 -5 -4 -10 -10 -10 -5 0 -10 5 -10 10 0 6 5 10 10 10 6 0 10
-4 10 -10z m-20 -40 c0 -5 -4 -10 -10 -10 -5 0 -10 5 -10 10 0 6 5 10 10 10 6
0 10 -4 10 -10z"/>
<path d="M2200 1240 c0 -11 5 -20 10 -20 6 0 10 9 10 20 0 11 -4 20 -10 20 -5
0 -10 -9 -10 -20z"/>
<path d="M1727 1234 c-7 -8 14 -54 25 -54 4 0 8 -7 8 -16 0 -15 23 -44 34 -44
3 0 6 10 6 23 0 23 -63 101 -73 91z"/>
<path d="M1960 1190 c0 -5 5 -10 10 -10 6 0 10 5 10 10 0 6 -4 10 -10 10 -5 0
-10 -4 -10 -10z"/>
<path d="M2180 1191 c0 -6 5 -13 10 -16 6 -3 10 1 10 9 0 9 -4 16 -10 16 -5 0
-10 -4 -10 -9z"/>
<path d="M1580 1134 c0 -3 14 -19 30 -34 17 -15 30 -35 30 -43 0 -12 19 -27
36 -27 14 0 -2 27 -41 65 -43 43 -55 52 -55 39z"/>
<path d="M2060 1130 c0 -5 5 -10 10 -10 6 0 10 5 10 10 0 6 -4 10 -10 10 -5 0
-10 -4 -10 -10z"/>
<path d="M2480 1090 c0 -5 5 -10 10 -10 6 0 10 5 10 10 0 6 -4 10 -10 10 -5 0
-10 -4 -10 -10z"/>
<path d="M1480 1050 c0 -5 5 -10 10 -10 6 0 10 5 10 10 0 6 -4 10 -10 10 -5 0
-10 -4 -10 -10z"/>
<path d="M2608 966 c-24 -17 -23 -26 3 -26 19 0 49 21 49 34 0 11 -35 5 -52
-8z"/>
<path d="M283 947 c-24 -6 -43 -14 -43 -19 0 -4 -7 -8 -15 -8 -8 0 -25 -6 -37
-12 -33 -19 -128 -119 -128 -134 0 -8 -4 -14 -10 -14 -5 0 -10 -11 -10 -24 0
-14 -4 -28 -10 -31 -6 -3 -10 -51 -10 -109 l0 -102 20 -22 c11 -12 20 -28 20
-37 0 -8 5 -15 10 -15 6 0 10 -7 10 -16 0 -19 54 -73 92 -93 16 -8 28 -18 28
-23 0 -4 10 -8 23 -8 13 0 28 -5 34 -11 27 -27 283 -6 283 23 0 4 6 8 13 8 7
0 23 9 35 20 12 11 26 20 32 20 17 0 40 26 40 44 0 22 -7 20 -35 -9 -39 -38
-121 -70 -151 -58 -9 3 -14 20 -14 44 l0 39 20 0 c16 0 20 7 20 30 0 17 5 30
10 30 6 0 10 8 10 18 0 10 9 24 20 32 21 15 28 70 10 70 -5 0 -10 13 -10 29 0
17 -4 33 -10 36 -6 3 -10 52 -10 111 0 63 -4 104 -10 104 -5 0 -10 5 -10 10 0
14 46 12 72 -2 12 -7 39 -30 59 -50 43 -43 49 -46 49 -18 0 11 -4 20 -10 20
-5 0 -10 6 -10 14 0 8 -13 23 -30 33 -16 9 -30 20 -30 24 0 4 -13 9 -29 12
-16 3 -35 12 -42 19 -38 36 -153 47 -246 25z m17 -57 c0 -5 -7 -10 -15 -10 -8
0 -15 5 -15 10 0 6 7 10 15 10 8 0 15 -4 15 -10z m178 -25 c2 -16 8 -34 13
-39 12 -13 12 -86 -1 -86 -5 0 -10 -13 -10 -30 0 -16 5 -30 10 -30 6 0 10 -13
10 -30 0 -16 5 -30 10 -30 6 0 10 -18 10 -40 0 -22 -3 -40 -7 -40 -25 1 -53
14 -53 26 0 35 -34 5 -45 -39 -8 -30 3 -35 35 -15 22 14 35 6 27 -17 -5 -10
-20 -15 -52 -15 l-45 0 0 -20 c0 -12 7 -20 16 -20 8 0 22 -6 30 -14 19 -20 18
-93 -2 -113 l-15 -16 -42 13 c-56 16 -87 32 -87 42 0 13 -58 9 -62 -4 -5 -13
-98 75 -98 92 0 6 -4 18 -9 28 -21 41 -33 103 -27 144 20 141 28 158 115 244
23 23 69 34 56 14 -3 -5 -11 -10 -16 -10 -13 0 -58 -52 -59 -67 0 -7 -3 -13
-7 -13 -13 0 -33 -51 -33 -81 0 -15 -4 -31 -10 -34 -13 -8 -13 -105 0 -105 6
0 10 -22 10 -50 0 -27 5 -50 10 -50 6 0 10 -7 10 -15 0 -19 47 -72 56 -63 3 4
-3 20 -15 36 -12 17 -21 37 -21 45 0 9 -4 19 -10 22 -13 8 -13 222 0 230 5 3
10 15 10 26 0 10 3 19 8 19 4 0 13 13 20 28 7 16 25 35 40 43 15 8 29 16 32
19 6 6 47 24 85 38 17 6 48 10 70 9 l40 -2 3 -30z"/>
<path d="M375 790 c-3 -5 -14 -10 -24 -10 -21 0 -71 -22 -71 -32 0 -5 14 -8
30 -8 17 0 30 5 30 10 0 6 27 10 60 10 33 0 60 3 60 6 0 26 -71 46 -85 24z"/>
<path d="M345 730 c-3 -5 -15 -10 -26 -10 -12 0 -19 -7 -19 -20 0 -13 7 -20
18 -20 10 0 24 -9 32 -20 10 -14 26 -20 52 -20 l38 0 0 30 c0 17 5 30 10 30 6
0 10 9 10 20 l0 20 -54 0 c-30 0 -58 -4 -61 -10z"/>
<path d="M2470 950 c0 -5 7 -10 15 -10 8 0 15 5 15 10 0 6 -7 10 -15 10 -8 0
-15 -4 -15 -10z"/>
<path d="M3560 950 c-25 -4 -62 -17 -83 -29 -21 -11 -46 -21 -57 -21 -11 0
-20 -4 -20 -10 0 -5 -7 -10 -15 -10 -25 0 -105 -88 -105 -115 0 -14 2 -25 6
-25 3 0 31 26 62 58 31 31 70 64 85 72 l28 14 9 -14 c12 -19 12 -27 0 -35 -14
-9 -12 -101 3 -126 10 -17 10 -23 0 -26 -7 -3 -13 -13 -13 -24 0 -10 -4 -19
-10 -19 -5 0 -10 -9 -10 -20 0 -11 -4 -20 -10 -20 -5 0 -10 -13 -10 -29 0 -16
-5 -31 -12 -33 -14 -5 30 -58 48 -58 8 0 15 -22 20 -57 4 -34 14 -65 26 -77
10 -11 17 -27 15 -36 -7 -34 -123 2 -168 52 -15 16 -49 25 -49 13 0 -20 91
-92 130 -103 25 -8 61 -18 80 -24 36 -10 149 -6 205 7 42 9 77 27 96 47 9 10
22 18 28 18 15 0 41 25 41 39 0 6 14 25 30 43 17 17 30 39 30 49 0 10 5 21 10
24 6 3 10 19 10 36 0 16 5 29 10 29 6 0 10 18 10 39 0 22 -4 43 -10 46 -5 3
-10 19 -10 34 0 36 -34 106 -71 145 -16 17 -29 36 -29 43 0 6 -13 17 -30 25
-16 7 -30 16 -30 20 0 5 -7 8 -15 8 -8 0 -29 8 -48 19 -18 10 -48 20 -67 23
-19 3 -42 7 -50 10 -8 3 -35 2 -60 -2z m98 -80 c2 -6 10 -10 18 -10 24 0 97
-81 123 -135 13 -28 27 -58 32 -67 5 -10 9 -49 9 -87 l0 -69 -30 -57 c-31 -58
-93 -125 -117 -125 -7 0 -13 -4 -13 -10 0 -5 -11 -10 -24 -10 -14 0 -28 -4
-31 -10 -9 -14 -58 -13 -73 2 -7 7 -12 34 -12 60 l0 48 30 0 c23 0 30 4 30 20
0 14 -7 20 -23 20 -26 0 -77 21 -77 33 0 4 14 7 30 7 34 0 40 21 13 48 -12 12
-18 13 -21 4 -2 -7 -21 -12 -43 -12 l-39 0 0 20 c0 11 5 20 10 20 6 0 10 9 10
20 0 11 5 20 10 20 6 0 10 11 10 24 0 14 5 28 10 31 15 9 12 83 -2 88 -10 3
-10 11 0 39 6 19 12 48 12 65 0 17 6 34 13 37 19 9 142 -4 145 -14z m102 -20
c0 -5 -4 -10 -10 -10 -5 0 -10 5 -10 10 0 6 5 10 10 10 6 0 10 -4 10 -10z m72
-80 c7 -16 16 -30 20 -30 5 0 8 -9 8 -20 0 -11 5 -20 10 -20 6 0 10 -9 10 -19
0 -11 5 -23 10 -26 25 -15 4 -195 -22 -195 -5 0 -8 -9 -8 -20 0 -11 -4 -20 -9
-20 -5 0 -11 -9 -14 -20 -3 -11 -12 -20 -21 -20 -16 0 -22 16 -8 22 4 2 18 25
32 52 l24 48 0 87 c-1 69 -5 94 -23 124 -11 21 -21 44 -21 52 0 8 -4 15 -10
15 -5 0 -10 5 -10 10 0 21 19 9 32 -20z"/>
<path d="M3520 750 c0 -5 18 -10 39 -10 22 0 43 -4 46 -10 3 -5 17 -10 31 -10
13 0 24 -4 24 -10 0 -5 5 -10 10 -10 6 0 10 9 10 20 0 13 -7 20 -19 20 -11 0
-23 5 -26 10 -3 6 -31 10 -61 10 -30 0 -54 -4 -54 -10z"/>
<path d="M3532 705 l-12 -15 12 -22 c7 -13 18 -27 23 -31 6 -6 6 -10 -2 -14
-7 -2 -13 -11 -13 -19 0 -19 50 -9 118 23 l53 25 -12 14 c-6 8 -19 14 -28 14
-19 0 -88 23 -97 33 -11 11 -28 8 -42 -8z"/>
<path d="M2538 863 c-14 -2 -31 -10 -37 -17 -8 -10 -1 -11 31 -7 23 3 43 12
46 19 2 6 0 11 -5 11 -4 -1 -20 -4 -35 -6z"/>
<path d="M2520 630 c0 -5 5 -10 10 -10 6 0 10 5 10 10 0 6 -4 10 -10 10 -5 0
-10 -4 -10 -10z"/>
<path d="M2620 610 c0 -5 5 -10 10 -10 6 0 10 5 10 10 0 6 -4 10 -10 10 -5 0
-10 -4 -10 -10z"/>
<path d="M2680 550 c0 -5 9 -10 20 -10 11 0 20 5 20 10 0 6 -9 10 -20 10 -11
0 -20 -4 -20 -10z"/>
<path d="M1460 530 c0 -5 5 -10 10 -10 6 0 10 5 10 10 0 6 -4 10 -10 10 -5 0
-10 -4 -10 -10z"/>
<path d="M1480 430 c0 -5 9 -10 19 -10 11 0 23 5 26 10 4 6 -5 10 -19 10 -14
0 -26 -4 -26 -10z"/>
<path d="M2360 410 c0 -5 5 -10 10 -10 6 0 10 5 10 10 0 6 -4 10 -10 10 -5 0
-10 -4 -10 -10z"/>
<path d="M2540 414 c0 -11 29 -34 44 -34 9 0 16 -4 16 -10 0 -5 5 -10 10 -10
6 0 10 9 10 20 0 13 -7 20 -19 20 -11 0 -23 5 -26 10 -7 11 -35 14 -35 4z"/>
<path d="M1400 390 c0 -5 5 -10 10 -10 6 0 10 5 10 10 0 6 -4 10 -10 10 -5 0
-10 -4 -10 -10z"/>
<path d="M2440 330 c0 -5 5 -10 10 -10 6 0 10 5 10 10 0 6 -4 10 -10 10 -5 0
-10 -4 -10 -10z"/>
<path d="M2480 300 c0 -11 6 -20 13 -20 7 0 23 -9 35 -21 12 -11 27 -17 32
-14 6 3 -5 18 -22 33 -18 15 -34 30 -36 35 -7 15 -22 6 -22 -13z"/>
<path d="M1500 280 c0 -24 6 -25 26 -6 19 20 18 26 -6 26 -13 0 -20 -7 -20
-20z"/>
<path d="M1960 180 c0 -22 5 -40 10 -40 6 0 10 18 10 40 0 22 -4 40 -10 40 -5
0 -10 -18 -10 -40z"/>
<path d="M2280 210 c0 -5 5 -10 10 -10 6 0 10 -9 10 -20 0 -11 5 -20 10 -20 6
0 10 -7 10 -16 0 -20 24 -44 44 -44 21 0 20 6 -4 32 -11 12 -20 28 -20 35 0 7
-4 13 -10 13 -5 0 -10 9 -10 20 0 13 -7 20 -20 20 -11 0 -20 -4 -20 -10z"/>
<path d="M1721 181 c-26 -36 -26 -41 -1 -41 13 0 20 7 20 20 0 11 5 20 10 20
6 0 10 7 10 15 0 24 -17 18 -39 -14z"/>
<path d="M2100 98 c1 -39 17 -78 34 -78 10 0 7 58 -4 65 -5 3 -10 17 -10 31 0
13 -4 24 -10 24 -5 0 -10 -19 -10 -42z"/>
<path d="M1947 113 c-11 -10 -8 -93 3 -93 6 0 10 23 10 50 0 51 -1 55 -13 43z"/>
<path d="M2160 110 c0 -5 7 -10 16 -10 8 0 12 5 9 10 -3 6 -10 10 -16 10 -5 0
-9 -4 -9 -10z"/>
<path d="M2180 60 c0 -11 5 -20 10 -20 6 0 10 9 10 20 0 11 -4 20 -10 20 -5 0
-10 -9 -10 -20z"/>
</g>
</svg>
