<?xml version="1.0" standalone="no"?>
<!DOCTYPE svg PUBLIC "-//W3C//DTD SVG 20010904//EN"
 "http://www.w3.org/TR/2001/REC-SVG-20010904/DTD/svg10.dtd">
<svg version="1.0" xmlns="http://www.w3.org/2000/svg"
 width="285.967238pt" height="320.923280pt" viewBox="0 0 285.967238 320.923280"
 preserveAspectRatio="xMidYMid meet">
<metadata>
Created by Potrace Professional 1.0m
</metadata>
<g transform="translate(-2.000000,322.923280) rotate(-360.00) scale(0.100000,-0.100000)"
fill="#000000" stroke="none">
<path d="M1120 3223 c-14 -3 -36 -13 -50 -23 -14 -9 -42 -23 -63 -31 -26 -9
-43 -24 -53 -45 l-15 -32 12 -20 13 -20 -17 -16 c-8 -9 -23 -16 -31 -16 -9 0
-16 -4 -16 -10 0 -5 -8 -10 -18 -10 -29 0 -62 -80 -62 -148 0 -33 -5 -63 -12
-70 -8 -8 -9 -15 -3 -20 20 -14 35 -52 35 -87 0 -19 5 -35 10 -35 6 0 10 -13
10 -30 0 -23 -4 -30 -20 -30 -13 0 -20 -7 -20 -19 0 -11 -3 -21 -8 -23 -17 -7
-72 -84 -72 -100 0 -10 -4 -18 -10 -18 -15 0 -12 -77 3 -83 9 -3 9 -9 -2 -28
-10 -16 -10 -24 -2 -27 14 -5 15 -59 0 -68 -11 -6 -9 -37 7 -113 4 -20 2 -36
-4 -40 -7 -4 -1 -19 18 -41 17 -19 30 -47 30 -61 0 -51 36 -139 56 -139 7 0
25 -5 39 -12 20 -9 25 -19 26 -47 1 -57 28 -93 82 -110 49 -15 52 -21 41 -80
-4 -20 -12 -31 -24 -31 -11 0 -20 -10 -23 -29 -4 -17 -32 -55 -71 -94 l-65
-65 1 -50 1 -51 -31 -29 c-18 -17 -32 -37 -32 -46 0 -9 -4 -16 -10 -16 -5 0
-10 -18 -10 -39 0 -22 -4 -43 -10 -46 -5 -3 -10 -25 -10 -49 0 -23 -4 -46 -10
-52 -7 -7 -6 -47 2 -119 10 -85 10 -109 0 -113 -7 -2 -12 -10 -12 -17 0 -18
-44 -45 -73 -45 -15 0 -28 -9 -36 -24 -18 -33 -19 -125 -2 -136 19 -11 -51
-80 -81 -80 -25 0 -59 -37 -70 -77 -11 -41 3 -90 36 -126 32 -36 32 -35 181
-56 71 -9 95 -18 116 -45 l16 -20 44 14 c50 16 69 31 69 54 0 11 9 16 29 16
17 0 33 4 36 10 3 5 17 10 31 10 13 0 24 5 24 10 0 6 7 10 16 10 9 0 18 9 21
20 3 11 9 20 14 20 5 0 9 7 9 15 0 24 20 52 83 115 31 33 57 64 57 71 0 6 8
19 18 28 11 9 22 28 26 44 6 27 36 39 36 14 0 -18 24 -67 33 -67 4 0 7 -9 7
-20 0 -11 5 -20 10 -20 6 0 10 -10 10 -23 0 -13 6 -29 13 -36 10 -11 10 -14 0
-18 -7 -3 -13 -13 -13 -24 0 -10 -3 -19 -8 -19 -9 0 -48 -77 -56 -110 -3 -14
1 -38 9 -54 l15 -28 -14 -14 c-8 -8 -18 -14 -23 -14 -14 0 -63 -47 -63 -59 0
-29 29 -41 99 -41 38 0 73 5 76 10 3 6 15 10 26 10 10 0 19 5 19 10 0 6 7 10
15 10 23 0 125 110 125 134 0 16 10 24 40 34 22 6 47 12 55 12 8 0 55 41 104
90 67 68 95 90 115 90 14 0 26 -4 26 -10 0 -5 15 -10 34 -10 19 0 38 5 41 10
3 6 24 10 46 10 21 0 39 5 39 10 0 6 7 10 15 10 20 0 53 19 82 47 16 16 23 33
23 61 l0 39 -58 59 c-31 33 -68 74 -81 93 l-24 33 7 142 c4 77 9 152 10 166 2
14 4 60 5 103 l1 77 55 0 56 0 26 25 c20 18 34 23 53 18 14 -3 27 -10 28 -15
2 -4 19 -8 37 -8 26 0 38 -6 50 -28 17 -28 56 -52 86 -52 10 0 21 -5 24 -10 4
-6 58 -10 130 -10 72 0 126 -4 130 -10 9 -15 94 -12 111 4 16 17 19 52 4 61
-5 3 -10 15 -10 26 0 10 -4 19 -10 19 -5 0 -10 6 -10 13 0 7 -18 33 -40 57
-22 24 -40 48 -40 53 0 14 -72 77 -87 77 -7 0 -13 3 -13 8 0 4 -18 15 -40 25
l-40 17 0 47 c0 26 -6 63 -12 82 -15 41 -89 121 -113 121 -8 0 -15 5 -15 10 0
6 -8 10 -17 10 -27 0 -83 70 -83 103 0 15 -9 47 -20 69 -11 23 -20 48 -20 55
0 7 -4 22 -10 33 -5 11 -14 29 -20 40 -5 11 -10 29 -10 39 0 11 -4 23 -10 26
-5 3 -10 17 -10 31 0 13 -4 24 -10 24 -5 0 -10 11 -10 24 0 14 -4 28 -10 31
-5 3 -10 15 -10 26 0 10 -4 19 -8 19 -4 0 -13 20 -21 44 -7 24 -21 53 -32 65
-10 11 -19 27 -19 36 0 8 -4 15 -10 15 -5 0 -10 9 -10 20 0 11 -4 20 -10 20
-5 0 -10 8 -10 18 0 10 -9 24 -20 32 -11 8 -20 20 -20 26 0 6 -13 25 -30 42
-16 18 -30 37 -30 42 0 12 -65 80 -77 80 -4 0 -26 18 -48 40 -23 22 -50 39
-63 40 -13 0 -33 5 -45 12 -13 7 -61 11 -121 10 l-98 -2 -32 22 c-17 12 -37
30 -44 40 -7 10 -20 18 -29 18 -9 0 -23 8 -32 18 -24 25 -58 42 -86 42 l-25 0
0 36 c0 27 -7 43 -30 64 -18 17 -30 38 -30 54 0 14 -4 26 -10 26 -5 0 -10 8
-10 19 0 16 -31 34 -50 30 -3 -1 -16 -4 -30 -6z m40 -53 c0 -5 -4 -10 -10 -10
-5 0 -10 5 -10 10 0 6 5 10 10 10 6 0 10 -4 10 -10z m-16 -37 c40 -20 46 -33
16 -33 -11 0 -20 5 -20 10 0 6 -13 10 -30 10 -20 0 -30 5 -30 15 0 20 21 19
64 -2z m9 -65 c38 -22 62 -73 44 -95 -5 -7 -30 -13 -55 -13 -44 0 -157 -33
-177 -51 -5 -5 -17 -9 -27 -9 -10 0 -18 -4 -18 -10 0 -15 -40 -12 -46 3 -3 8
0 26 5 40 8 21 17 27 40 27 20 0 34 8 46 27 54 81 129 113 188 81z m87 -8 c0
-11 -4 -20 -10 -20 -5 0 -10 9 -10 20 0 11 5 20 10 20 6 0 10 -9 10 -20z m100
-110 c0 -5 -9 -10 -21 -10 -11 0 -17 5 -14 10 3 6 13 10 21 10 8 0 14 -4 14
-10z m-173 -25 c14 -15 14 -29 -2 -67 l-7 -18 37 0 c57 0 72 -25 68 -116 -2
-58 -7 -79 -23 -96 -11 -12 -20 -28 -20 -35 0 -7 -8 -13 -18 -13 -10 0 -24 -9
-32 -20 -18 -26 -30 -25 -30 0 0 22 -19 60 -35 72 -5 4 -22 8 -37 8 -19 0 -28
5 -28 16 0 8 -6 22 -14 30 -17 16 -46 19 -46 4 0 -5 5 -10 10 -10 6 0 10 -9
10 -20 0 -13 -7 -20 -20 -20 -15 0 -20 7 -20 24 0 14 -4 28 -10 31 -5 3 -10
12 -10 20 0 16 -40 59 -64 68 -9 4 -16 17 -16 29 0 18 11 28 51 46 28 12 59
22 70 22 10 0 19 5 19 10 0 6 7 10 15 10 14 0 24 4 75 31 25 13 60 10 77 -6z
m253 -34 c0 -5 -6 -12 -12 -14 -10 -4 -10 -8 1 -15 8 -6 11 -17 8 -26 -9 -22
-77 -22 -77 0 0 20 24 44 44 44 9 0 16 5 16 10 0 6 5 10 10 10 6 0 10 -4 10
-9z m-124 -88 c-11 -11 -19 6 -11 24 l8 18 4 -18 c3 -10 2 -21 -1 -24z m429 6
c5 -5 17 -9 27 -9 10 0 28 -6 40 -12 36 -22 188 -177 188 -193 0 -8 5 -15 10
-15 6 0 10 -9 10 -20 0 -11 5 -20 10 -20 6 0 10 -8 10 -18 0 -10 9 -24 20 -32
11 -8 20 -22 20 -32 0 -10 5 -18 10 -18 6 0 10 -8 10 -17 0 -10 9 -33 20 -51
11 -18 20 -41 20 -52 0 -11 5 -20 10 -20 6 0 10 -11 10 -24 0 -14 5 -28 10
-31 6 -3 10 -19 10 -36 0 -16 5 -29 10 -29 6 0 10 -9 10 -20 0 -11 5 -20 10
-20 6 0 10 -13 10 -30 0 -16 5 -30 10 -30 6 0 10 -9 10 -20 0 -11 5 -20 10
-20 6 0 10 -19 10 -43 0 -43 18 -97 33 -97 4 0 7 -9 7 -19 0 -11 5 -23 10 -26
6 -3 10 -31 10 -61 0 -30 5 -54 10 -54 6 0 10 -9 10 -20 0 -11 5 -20 10 -20 6
0 10 -9 10 -20 0 -11 5 -20 10 -20 6 0 10 -18 10 -40 0 -30 4 -40 16 -40 20 0
44 -24 44 -44 0 -18 25 -22 36 -5 3 6 -3 29 -14 52 -22 47 -47 145 -39 154 11
11 77 -61 77 -84 0 -13 9 -33 20 -45 11 -12 20 -28 20 -35 0 -7 5 -13 10 -13
6 0 10 -18 10 -40 0 -22 5 -40 10 -40 6 0 10 -20 10 -45 0 -48 11 -74 47 -112
23 -23 53 -31 53 -13 0 6 -4 10 -10 10 -5 0 -10 9 -10 20 0 11 -4 20 -10 20
-5 0 -10 18 -10 40 0 48 7 50 39 10 13 -17 30 -30 37 -30 8 0 18 -8 21 -17 4
-10 14 -25 22 -33 14 -13 38 -65 44 -95 1 -6 -41 -10 -113 -9 -119 1 -169 8
-207 26 l-23 11 0 68 c0 38 5 79 11 93 l12 25 -16 15 -15 16 -34 -11 c-49 -16
-118 -51 -118 -61 0 -4 -6 -8 -13 -8 -7 0 -23 -9 -35 -20 -12 -11 -30 -20 -40
-20 l-19 0 -12 78 c-6 42 -14 95 -18 116 -6 43 -23 66 -47 66 -17 0 -23 -45
-8 -54 10 -6 14 -65 5 -79 -3 -5 -21 7 -39 27 l-34 36 0 85 0 85 23 0 c13 0
33 -9 45 -20 12 -11 35 -20 52 -20 34 0 60 -19 60 -44 0 -9 5 -16 10 -16 6 0
10 -7 10 -15 0 -17 53 -72 88 -92 12 -7 31 -13 42 -13 l21 0 -11 20 c-6 11
-15 20 -21 20 -13 0 -72 68 -85 99 -22 51 -34 98 -34 129 0 18 -4 32 -10 32
-5 0 -10 14 -10 30 0 17 -4 30 -10 30 -5 0 -10 9 -10 20 0 11 -4 20 -10 20 -5
0 -10 9 -10 19 0 21 -58 134 -72 139 -4 2 -8 9 -8 16 0 18 -24 66 -32 66 -5 0
-8 7 -8 15 0 8 -9 30 -20 50 -11 20 -20 42 -20 51 0 14 -43 64 -55 64 -9 0 -5
-69 5 -75 6 -3 10 -16 10 -29 0 -12 9 -32 20 -44 11 -12 20 -28 20 -37 0 -8 5
-15 10 -15 6 0 10 -12 10 -26 0 -15 8 -34 18 -43 22 -21 42 -57 42 -76 0 -8 4
-15 9 -15 5 0 12 -18 16 -40 4 -22 13 -47 21 -54 8 -8 14 -26 14 -40 0 -14 5
-26 10 -26 6 0 10 -13 10 -30 0 -16 5 -30 10 -30 6 0 10 -9 10 -20 0 -11 -4
-20 -10 -20 -5 0 -10 5 -10 10 0 6 -6 10 -13 10 -18 0 -67 24 -67 33 0 4 -13
7 -30 7 -16 0 -30 4 -30 8 0 5 -12 15 -27 23 -40 20 -133 117 -133 138 0 10
-3 21 -7 25 -13 13 -33 81 -33 114 0 17 -4 32 -10 32 -6 0 -10 28 -10 63 0 35
-4 67 -9 73 -8 8 -12 28 -27 172 -3 28 -10 52 -15 52 -5 0 -9 15 -9 33 0 29
-36 87 -54 87 -10 0 -7 -98 4 -105 6 -3 10 -24 10 -45 0 -21 5 -42 10 -45 6
-3 10 -21 10 -40 0 -19 5 -37 10 -40 10 -6 14 -45 5 -45 -13 0 -75 71 -75 85
0 8 -4 15 -10 15 -5 0 -10 9 -10 19 0 11 -4 23 -10 26 -5 3 -10 17 -10 31 0
15 -6 24 -15 24 l-15 0 6 -57 c4 -32 11 -59 16 -61 4 -2 8 -11 8 -20 0 -10 9
-23 20 -30 29 -18 25 -39 -10 -47 l-30 -7 0 -27 0 -28 48 -24 c26 -13 49 -27
50 -31 2 -5 15 -8 28 -8 13 0 24 -4 24 -10 0 -6 -32 -10 -75 -10 -55 0 -75 3
-75 13 0 13 -103 127 -114 127 -18 0 -2 -52 24 -78 17 -18 30 -37 30 -43 0
-28 71 -59 138 -59 46 0 52 -8 22 -30 -11 -8 -20 -22 -20 -32 0 -10 -4 -18
-10 -18 -5 0 -10 -9 -10 -19 0 -12 -12 -25 -30 -33 -16 -7 -30 -20 -30 -30 0
-9 -13 -22 -30 -30 -16 -7 -30 -16 -30 -20 0 -5 -7 -8 -15 -8 -8 0 -24 -5 -35
-12 -10 -7 -22 -9 -26 -6 -8 8 20 38 36 38 20 0 120 111 120 134 0 22 -59 -9
-60 -31 -1 -16 -46 -59 -80 -75 -19 -9 -46 -27 -60 -40 -29 -27 -106 -68 -126
-68 -8 0 -14 -4 -14 -10 0 -19 -37 -10 -47 13 -15 32 -33 142 -35 215 0 34 -5
62 -9 62 -5 0 -9 38 -9 85 l0 86 24 24 c14 14 39 33 57 43 39 22 49 42 20 42
-12 0 -21 -4 -21 -10 0 -5 -6 -10 -13 -10 -7 0 -23 -9 -36 -21 -12 -11 -29
-18 -37 -15 -16 6 -19 36 -4 36 6 0 10 11 10 24 0 14 -4 28 -10 31 -5 3 -10
15 -10 26 0 10 -4 19 -10 19 -5 0 -10 6 -10 13 0 7 -9 23 -21 35 l-20 22 15
15 c20 20 26 19 26 -5 0 -11 7 -20 15 -20 16 0 65 43 65 57 0 4 9 19 20 33 11
14 20 34 20 45 0 11 9 27 20 35 15 11 20 26 20 57 0 24 5 43 10 43 6 0 10 -28
10 -65 0 -37 -4 -65 -10 -65 -5 0 -10 -9 -10 -20 0 -11 -3 -20 -8 -20 -4 0
-18 -21 -32 -47 -14 -27 -33 -57 -42 -67 -20 -21 -24 -46 -8 -46 5 0 25 9 45
20 20 11 41 20 49 20 13 0 41 49 32 57 -2 2 -13 -1 -25 -8 -11 -7 -24 -9 -28
-5 -4 5 -2 11 5 13 6 3 12 13 12 24 0 10 5 19 10 19 6 0 10 9 10 20 0 11 5 20
10 20 6 0 10 18 10 40 0 22 6 58 12 80 14 43 39 52 77 28 l18 -11 44 44 45 44
89 -3 c50 -2 94 -8 100 -13z m-805 -158 c0 -17 5 -33 10 -36 18 -11 11 -35
-10 -35 l-20 0 0 50 c0 28 5 50 10 50 6 0 10 -13 10 -29z m160 -119 c0 -4 -9
-13 -20 -20 -23 -14 -26 -8 -7 13 13 16 27 19 27 7z m-180 -42 c0 -23 4 -30
20 -30 11 0 20 5 20 10 0 15 29 12 46 -4 19 -20 18 -26 -6 -26 -35 0 -25 -45
20 -91 37 -39 54 -89 30 -89 -5 0 -10 -9 -10 -20 0 -11 -3 -20 -7 -20 -8 0
-73 95 -73 106 0 11 -29 34 -44 34 -22 0 -21 -48 2 -69 10 -9 24 -36 32 -61 8
-25 17 -47 20 -50 22 -21 39 -80 22 -80 -14 0 -32 23 -32 42 0 10 -4 18 -10
18 -5 0 -10 10 -10 23 0 40 -23 78 -45 75 l-20 -3 3 -35 c2 -19 7 -37 10 -40
7 -5 52 -89 52 -96 0 -2 -6 -4 -13 -4 -15 0 -57 -36 -57 -49 0 -14 37 -51 50
-51 7 0 20 -9 29 -19 9 -11 26 -19 36 -18 15 2 19 -4 17 -21 -1 -13 7 -36 18
-52 28 -40 25 -50 -15 -50 -24 0 -37 6 -45 20 -6 11 -15 20 -21 20 -29 0 -79
86 -79 136 0 11 -9 26 -20 34 -11 8 -20 22 -20 31 0 10 -6 19 -12 22 -10 3
-12 45 -10 176 l3 173 42 43 c51 53 77 58 77 15z m120 20 c0 -5 -4 -10 -10
-10 -5 0 -10 5 -10 10 0 6 5 10 10 10 6 0 10 -4 10 -10z m120 -200 c0 -5 -4
-10 -10 -10 -5 0 -10 5 -10 10 0 6 5 10 10 10 6 0 10 -4 10 -10z m-20 -75 c0
-8 -47 -55 -55 -55 -3 0 -5 9 -5 20 0 13 7 20 20 20 11 0 20 5 20 10 0 6 5 10
10 10 6 0 10 -2 10 -5z m638 -57 c4 -21 -14 -23 -51 -5 -38 17 -33 29 10 25
27 -2 39 -8 41 -20z m-618 -49 c0 -27 5 -49 10 -49 6 0 10 -33 10 -78 0 -43 4
-82 9 -87 5 -6 11 -39 13 -75 2 -36 8 -73 12 -82 10 -22 -14 -24 -45 -5 -34
20 -89 76 -89 90 0 7 -4 17 -9 22 -5 6 -12 39 -15 75 -3 36 -9 84 -12 108 l-6
44 51 49 c29 27 56 47 61 44 6 -3 10 -28 10 -56z m640 -103 c0 -19 5 -38 10
-41 6 -3 10 -19 10 -36 0 -16 -4 -29 -10 -29 -5 0 -10 7 -10 15 0 17 -20 56
-35 68 -6 6 -6 10 3 14 6 2 12 13 12 24 0 10 5 19 10 19 6 0 10 -15 10 -34z
m-817 -2 c9 -4 17 -15 17 -25 0 -24 -4 -24 -35 3 -26 23 -34 44 -12 34 6 -3
20 -9 30 -12z m777 -104 c0 -11 -4 -20 -10 -20 -5 0 -10 9 -10 20 0 11 5 20
10 20 6 0 10 -9 10 -20z m117 -65 l46 -45 -29 -25 c-26 -23 -54 -33 -54 -20 0
3 5 14 12 25 l12 19 -22 19 c-19 16 -32 72 -17 72 2 0 26 -20 52 -45z m-97
-14 c0 -11 6 -22 13 -24 9 -4 8 -8 -3 -15 -36 -24 -89 -68 -90 -74 0 -5 13 -8
29 -8 16 0 34 -7 41 -15 l13 -15 -32 -30 c-33 -32 -41 -60 -16 -60 18 0 85 64
85 80 0 17 26 40 44 40 9 0 16 -8 16 -20 0 -11 -4 -20 -10 -20 -5 0 -10 -13
-10 -29 0 -17 5 -33 10 -36 6 -3 10 -26 10 -50 0 -24 5 -47 10 -50 6 -3 10
-42 10 -86 0 -60 -5 -91 -20 -121 -11 -23 -20 -48 -20 -55 0 -7 -4 -13 -10
-13 -5 0 -10 -11 -10 -24 0 -14 -4 -27 -8 -30 -4 -3 -14 -28 -22 -55 -7 -28
-17 -51 -22 -51 -4 0 -8 -9 -8 -20 0 -28 -23 -100 -32 -100 -5 0 -8 18 -8 40
0 22 -4 40 -8 40 -4 0 -9 24 -10 53 -3 89 -23 167 -44 167 -10 0 -18 -4 -18
-10 0 -5 5 -10 11 -10 7 0 9 -9 5 -23 -3 -13 -1 -61 6 -108 6 -46 14 -115 17
-154 l6 -70 28 -3 c15 -2 27 1 27 7 0 6 7 11 16 11 21 0 64 49 64 72 0 9 5 20
10 23 6 3 10 15 10 26 0 10 5 19 10 19 6 0 10 -51 10 -132 l0 -133 -20 -25
c-11 -14 -20 -31 -20 -37 0 -7 -4 -13 -10 -13 -5 0 -10 -6 -10 -13 0 -7 -9
-23 -20 -35 -11 -12 -20 -26 -20 -32 0 -15 -50 -64 -57 -56 -4 3 4 14 15 25
12 10 22 25 22 34 0 9 5 19 10 22 12 7 14 55 2 55 -13 0 -72 -70 -72 -85 0 -8
-4 -15 -8 -15 -5 0 -15 -12 -23 -27 -16 -31 -85 -102 -117 -121 -26 -15 -52
-16 -52 -2 0 6 5 10 10 10 6 0 10 9 10 20 0 11 3 20 8 20 4 0 13 15 20 33 7
17 18 40 23 49 5 10 9 80 9 156 0 91 4 142 12 150 8 8 8 15 -2 27 l-12 15 12
15 c10 12 10 19 2 27 -7 7 -12 38 -12 70 0 45 -3 58 -15 58 -8 0 -15 -8 -16
-17 -1 -10 -3 -38 -5 -62 -2 -24 1 -50 6 -57 7 -8 8 -39 1 -96 -5 -45 -10
-121 -10 -168 -1 -67 -6 -95 -23 -130 -13 -25 -25 -47 -29 -50 -3 -3 -8 -13
-12 -22 -9 -26 -37 -22 -39 5 0 12 0 88 2 168 1 100 -1 149 -9 153 -6 4 -11
20 -11 36 0 16 -4 32 -10 35 -5 3 -10 13 -10 22 0 9 -9 36 -21 60 -14 29 -19
54 -16 76 13 75 20 103 26 112 4 6 14 30 21 55 8 25 20 54 27 66 13 21 9 54
-7 54 -14 0 -50 -57 -50 -79 0 -12 -4 -21 -10 -21 -5 0 -10 -9 -10 -20 0 -11
-4 -20 -10 -20 -5 0 -10 -22 -10 -48 0 -27 -3 -52 -7 -55 -4 -4 -6 -31 -5 -60
3 -56 -3 -70 -30 -80 -10 -4 -18 -17 -18 -30 0 -13 -4 -27 -9 -32 -13 -14 -51
-84 -51 -94 0 -5 7 -12 16 -15 10 -4 29 8 55 35 22 23 43 38 47 34 4 -4 1 -10
-5 -12 -7 -3 -13 -12 -13 -22 0 -9 -9 -23 -20 -31 -11 -8 -20 -20 -20 -27 0
-12 -32 -53 -79 -99 -42 -42 -48 -13 -25 119 3 20 10 40 15 43 5 3 9 27 9 54
0 27 5 52 10 55 6 3 10 19 10 36 0 16 4 29 9 29 5 0 11 19 14 43 2 23 7 51 11
62 3 11 0 28 -9 39 l-14 19 -16 -13 c-10 -8 -15 -30 -15 -66 0 -29 -4 -56 -10
-59 -5 -3 -10 -19 -10 -36 0 -16 -4 -29 -9 -29 -5 0 -12 -19 -15 -42 -14 -109
-19 -133 -27 -139 -5 -3 -10 -44 -11 -92 -1 -48 -5 -87 -10 -87 -4 0 -8 -9 -8
-20 0 -14 7 -20 24 -20 36 0 76 25 124 76 23 26 45 45 47 42 5 -5 -11 -60 -26
-90 -5 -10 -9 -23 -9 -29 0 -6 -13 -24 -30 -39 -16 -15 -30 -33 -30 -39 0 -16
-87 -101 -103 -101 -7 0 -19 -9 -27 -20 -8 -11 -22 -20 -32 -20 -10 0 -18 -4
-18 -8 0 -5 -23 -15 -50 -22 -28 -7 -50 -17 -50 -22 0 -4 -15 -8 -34 -8 -26 0
-36 -5 -41 -20 -3 -11 -11 -20 -17 -20 -16 0 -48 31 -48 47 0 7 -4 13 -10 13
-5 0 -10 14 -10 30 0 17 -4 30 -10 30 -5 0 -10 9 -10 20 0 11 -4 20 -10 20 -5
0 -10 5 -10 10 0 18 35 11 48 -10 7 -11 21 -20 32 -20 11 0 20 -4 20 -10 0 -5
5 -10 10 -10 6 0 30 -9 52 -20 54 -26 58 -25 58 10 0 17 -4 30 -10 30 -5 0
-10 4 -10 9 0 13 49 27 163 47 20 3 37 10 37 14 0 4 9 10 20 13 11 3 20 12 20
21 l0 16 -114 0 c-66 0 -117 -4 -121 -10 -3 -5 -18 -10 -32 -10 -16 0 -27 -7
-30 -20 -6 -23 -38 -27 -46 -6 -7 18 1 26 25 26 10 0 18 4 18 8 0 5 12 15 27
23 27 14 93 73 93 84 0 16 -40 1 -65 -25 -33 -35 -55 -39 -55 -10 0 11 6 20
13 20 15 0 67 44 67 57 0 15 24 63 33 63 4 0 7 9 7 19 0 11 4 23 10 26 6 3 10
14 10 23 0 9 14 33 30 52 17 20 30 47 30 62 0 15 5 30 10 33 6 3 10 15 10 26
0 10 5 19 10 19 6 0 10 14 10 30 0 17 4 30 8 30 10 0 32 45 32 65 0 8 -7 15
-16 15 -23 0 -44 -25 -44 -54 0 -14 -4 -26 -10 -26 -5 0 -10 -13 -10 -30 0
-16 -4 -30 -10 -30 -5 0 -10 -9 -10 -20 0 -11 -4 -20 -10 -20 -5 0 -10 -9 -10
-20 0 -11 -4 -20 -10 -20 -5 0 -10 -10 -10 -23 0 -13 -8 -32 -18 -43 -10 -10
-29 -39 -42 -64 -14 -25 -37 -57 -52 -73 -16 -15 -28 -32 -28 -38 0 -13 -50
-63 -57 -56 -3 3 0 20 6 38 6 18 11 50 11 71 0 44 18 68 50 68 38 0 69 51 37
63 -17 6 -76 -3 -83 -14 -17 -27 -24 2 -24 94 0 91 13 164 33 183 4 4 7 18 7
31 0 13 5 23 10 23 6 0 10 6 10 13 0 7 9 23 20 35 11 12 20 26 20 31 0 12 149
161 161 161 5 0 17 -4 27 -9 89 -45 108 -51 158 -51 30 0 63 5 74 10 11 6 29
15 40 20 11 6 29 10 40 10 28 0 100 23 100 32 0 5 7 8 16 8 9 0 29 14 44 30
15 17 35 30 43 30 20 0 28 25 14 39 -9 10 -7 16 7 27 11 8 28 14 38 14 11 0
18 7 18 20 0 14 -7 20 -23 20 -13 0 -32 -9 -42 -20 -10 -11 -28 -20 -40 -20
-33 0 -75 -23 -75 -42 0 -13 8 -18 31 -18 23 0 30 -4 27 -17 -2 -9 -13 -20
-25 -23 -13 -3 -32 -13 -43 -22 -11 -10 -31 -18 -45 -18 -14 0 -25 -4 -25 -10
0 -6 -27 -10 -60 -10 -33 0 -60 -4 -60 -10 0 -11 -109 -10 -116 2 -3 4 -15 8
-28 8 -34 0 -76 23 -76 43 0 10 -8 17 -20 17 -11 0 -20 2 -20 4 0 2 -3 11 -6
19 -5 15 85 115 135 150 28 19 55 74 40 82 -21 13 -7 25 31 25 22 0 40 5 40
10 0 6 14 10 30 10 17 0 30 5 30 10 0 6 9 10 20 10 11 0 20 5 20 10 0 6 24 10
54 10 30 0 58 5 61 10 3 6 15 10 26 10 10 0 19 -4 19 -10 0 -5 -7 -10 -15 -10
-9 0 -25 -9 -36 -19 -19 -18 -39 -24 -116 -38 -18 -3 -33 -8 -33 -12 0 -11 47
-31 54 -23 9 9 80 32 84 27 10 -9 -28 -35 -52 -35 -14 0 -28 -4 -31 -10 -3 -5
-20 -10 -36 -10 -27 0 -59 -19 -59 -34 0 -14 83 -4 115 14 34 19 65 26 65 14
0 -11 -29 -34 -42 -34 -8 0 -20 -9 -28 -20 -8 -11 -19 -20 -25 -20 -11 0 -65
-44 -65 -54 0 -18 54 -2 82 24 17 17 37 30 44 30 8 0 14 5 14 10 0 6 6 10 14
10 7 0 50 36 95 81 45 44 85 78 90 74 14 -8 41 6 41 22 0 7 11 25 25 39 14 14
25 29 25 34 0 6 7 10 15 10 8 0 15 -9 15 -19z m-700 -87 c0 -21 -13 -58 -26
-73 -8 -9 -64 60 -64 79 l0 20 45 0 45 0 0 -26z m880 -9 c0 -14 5 -25 11 -25
6 0 9 -12 7 -27 -2 -22 -9 -29 -30 -31 l-28 -3 0 40 c0 23 5 41 10 41 6 0 10
7 10 15 0 8 5 15 10 15 6 0 10 -11 10 -25z m-780 -38 c0 -7 -16 -30 -35 -51
-38 -42 -42 -37 -23 24 10 31 18 40 35 40 13 0 23 -6 23 -13z m800 -87 c0 -13
-7 -20 -20 -20 -23 0 -25 5 -7 25 17 20 27 18 27 -5z m22 -187 c0 -10 1 -26 0
-35 -1 -10 2 -18 6 -18 8 0 23 -34 42 -98 10 -32 11 -45 2 -54 -8 -8 -12 -63
-12 -170 0 -99 -4 -158 -10 -158 -5 0 -10 8 -10 18 0 10 -4 22 -9 28 -8 8 -12
44 -26 263 -3 36 -10 69 -17 74 -10 7 -10 10 0 14 8 3 12 29 12 79 0 43 4 74
10 74 6 0 11 -8 12 -17z m121 -7 c20 -15 22 -44 5 -81 -15 -34 -28 -32 -28 5
0 17 -4 30 -10 30 -5 0 -10 14 -10 30 0 32 14 38 43 16z m277 -48 c-1 -46 -41
-73 -68 -46 -27 27 0 67 46 68 16 0 22 -6 22 -22z m-1420 -3 c0 -12 -52 -57
-58 -51 -3 4 -2 10 4 14 6 4 13 15 17 25 6 15 37 25 37 12z m958 -143 c2 -7
-6 -12 -17 -12 -21 0 -27 11 -14 24 9 9 26 2 31 -12z m2 -116 c0 -47 5 -88 10
-91 6 -3 10 -28 10 -55 0 -27 5 -52 10 -55 6 -3 10 -33 10 -66 l0 -59 40 -41
c22 -23 40 -46 40 -51 0 -6 15 -24 32 -40 l32 -30 -22 -18 c-31 -25 -28 -30
16 -30 l39 0 11 -26 12 -25 -14 -15 c-8 -8 -20 -14 -26 -14 -6 0 -20 -9 -32
-20 -21 -19 -88 -29 -88 -12 0 12 -49 31 -56 21 -3 -5 -18 -9 -35 -9 l-29 0 0
130 c0 80 4 130 10 130 6 0 10 9 10 19 0 11 5 21 11 23 15 5 14 157 -1 172
-13 13 -14 246 0 246 6 0 10 -35 10 -84z m-540 -360 c0 -25 -4 -48 -10 -51
-14 -9 -12 -43 2 -47 9 -3 8 -9 -4 -21 -9 -9 -19 -17 -22 -17 -3 0 -6 27 -6
60 0 33 4 60 10 60 6 0 10 14 10 30 0 17 5 30 10 30 6 0 10 -20 10 -44z m-640
-170 c0 -8 -4 -18 -10 -21 -5 -3 -10 -15 -10 -26 0 -10 -4 -19 -10 -19 -5 0
-10 9 -10 20 0 11 5 20 10 20 6 0 10 9 10 20 0 11 5 20 10 20 6 0 10 -6 10
-14z m1093 1 c5 -14 -16 -149 -29 -181 -9 -23 -74 -86 -89 -86 -6 0 -17 -9
-25 -20 -8 -11 -22 -20 -32 -20 -9 0 -20 -4 -23 -10 -3 -5 -31 -10 -61 -10
-30 0 -54 5 -54 10 0 6 -7 10 -16 10 -14 0 -51 28 -43 33 2 2 18 9 34 16 17 7
38 17 47 22 10 5 31 9 48 9 l30 0 0 30 c0 17 -5 30 -11 30 -6 0 -9 7 -7 16 3
18 79 64 106 64 22 0 63 37 81 73 15 29 36 35 44 14z m-1169 -133 c23 -9 20
-34 -4 -34 -13 0 -20 7 -20 20 0 22 1 23 24 14z m826 -64 c0 -5 -7 -10 -15
-10 -8 0 -15 5 -15 10 0 6 7 10 15 10 8 0 15 -4 15 -10z m-863 -29 c25 -5 37
-15 53 -46 25 -49 25 -55 0 -55 -11 0 -20 5 -20 10 0 6 -17 10 -37 10 l-38 0
-12 27 c-7 15 -13 38 -13 51 0 19 4 23 18 17 9 -4 32 -10 49 -14z m411 -78
c-3 -20 -58 -32 -58 -14 0 6 9 11 20 11 11 0 20 5 20 10 0 6 5 10 11 10 6 0 9
-8 7 -17z m462 -89 c0 -3 -7 -12 -15 -21 -20 -19 -32 -10 -14 11 14 15 29 21
29 10z"/>
<path d="M1063 3026 c-26 -12 -32 -42 -7 -32 9 3 40 6 70 6 30 0 54 5 54 10 0
6 -9 10 -19 10 -11 0 -23 5 -26 10 -8 13 -43 11 -72 -4z"/>
<path d="M1060 2890 c0 -5 -9 -10 -20 -10 -11 0 -20 -4 -20 -10 0 -5 -7 -10
-15 -10 -8 0 -15 -9 -15 -20 0 -32 36 -24 75 15 41 40 42 45 15 45 -11 0 -20
-4 -20 -10z"/>
<path d="M1013 2785 c-19 -21 -16 -45 5 -45 17 0 62 38 62 53 0 13 -55 6 -67
-8z"/>
<path d="M1572 2743 c-22 -24 -29 -38 -22 -43 9 -5 8 -13 -2 -31 -7 -13 -15
-26 -18 -29 -3 -3 -11 -17 -19 -32 -8 -16 -18 -28 -23 -28 -4 0 -8 -12 -8 -26
0 -20 4 -25 16 -20 9 3 18 6 20 6 2 0 4 9 4 20 0 11 5 20 10 20 6 0 10 6 10
13 0 7 8 22 18 33 22 26 42 61 42 75 0 6 14 24 30 39 37 35 37 40 3 39 -19 0
-39 -13 -61 -36z"/>
<path d="M1480 2720 c0 -13 7 -20 20 -20 13 0 20 7 20 20 0 13 -7 20 -20 20
-13 0 -20 -7 -20 -20z"/>
<path d="M1413 2604 c-46 -47 -67 -84 -46 -84 13 0 113 109 113 124 0 25 -11
18 -67 -40z"/>
<path d="M1430 2500 c-8 -11 -19 -20 -25 -20 -6 0 -20 -8 -31 -17 -10 -10 -31
-24 -46 -32 -16 -8 -28 -18 -28 -23 0 -4 -9 -8 -20 -8 -11 0 -20 -4 -20 -10 0
-5 -9 -10 -20 -10 -13 0 -20 -7 -20 -20 0 -25 14 -25 48 -2 15 11 42 25 60 33
17 8 32 17 32 21 0 5 6 8 14 8 14 0 106 81 106 93 0 15 -37 6 -50 -13z"/>
<path d="M1580 2490 c0 -5 5 -10 10 -10 6 0 10 5 10 10 0 6 -4 10 -10 10 -5 0
-10 -4 -10 -10z"/>
<path d="M1200 1634 c0 -14 32 -35 45 -30 28 10 17 36 -15 36 -16 0 -30 -3
-30 -6z"/>
<path d="M335 988 c-16 -6 -38 -14 -47 -19 -10 -5 -34 -9 -53 -9 -19 0 -35 -4
-35 -10 0 -5 -7 -10 -16 -10 -9 0 -24 -8 -33 -18 -9 -10 -28 -27 -43 -36 -16
-10 -28 -25 -28 -32 0 -8 -4 -14 -10 -14 -5 0 -10 -9 -10 -20 0 -11 -4 -20 -8
-20 -12 0 -32 -93 -32 -151 0 -27 5 -49 10 -49 6 0 10 -9 10 -20 0 -11 3 -20
8 -20 4 0 12 -10 17 -22 6 -12 19 -26 30 -32 11 -6 27 -19 36 -28 9 -10 23
-18 32 -18 9 0 19 -5 22 -10 8 -13 155 -13 155 0 0 6 11 10 25 10 14 0 35 9
47 20 12 11 28 20 35 20 7 0 13 5 13 10 0 6 7 10 16 10 22 0 93 77 100 108 3
15 9 35 15 44 22 42 4 208 -23 208 -5 0 -8 7 -8 15 0 22 -45 65 -69 65 -11 0
-23 5 -26 10 -3 6 -17 10 -30 10 -13 0 -27 5 -30 10 -7 12 -30 11 -70 -2z m25
-62 c0 -8 -4 -18 -10 -21 -5 -3 -10 -13 -10 -21 0 -21 -41 -64 -62 -64 -10 0
-18 -4 -18 -9 0 -15 -76 -24 -99 -11 -12 6 -21 20 -21 31 0 24 42 69 65 69 8
0 15 5 15 10 0 6 9 10 19 10 11 0 23 5 26 10 10 16 95 13 95 -4z m113 2 c15
-7 27 -20 27 -28 0 -8 9 -21 20 -28 11 -7 20 -17 20 -22 0 -6 -9 -10 -20 -10
-11 0 -20 -4 -20 -9 0 -23 -69 -18 -109 8 l-15 10 24 45 c25 50 32 53 73 34z
m-27 -142 c8 -8 14 -33 14 -56 l0 -42 -37 -34 c-20 -19 -41 -34 -46 -34 -4 0
-15 -7 -24 -16 -9 -8 -22 -13 -30 -10 -8 3 -22 6 -31 6 -9 0 -30 10 -45 23
l-28 22 11 53 c15 78 45 101 138 101 42 1 68 -4 78 -13z m112 -49 l3 -57 -16
0 c-26 0 -45 26 -45 62 0 37 16 60 40 56 11 -2 16 -19 18 -61z m-414 11 l27
-13 -7 -60 c-10 -88 -38 -120 -70 -77 -17 22 -18 134 -2 150 15 15 18 15 52 0z
m376 -114 c0 -21 -60 -94 -78 -94 -4 0 -18 -9 -31 -21 -25 -24 -26 -24 -34 12
-7 28 13 60 46 72 9 3 17 13 17 22 0 11 11 15 40 15 22 0 40 -3 40 -6z m-213
-90 c16 -16 17 -36 1 -52 -14 -14 -88 -16 -88 -2 0 6 -13 10 -30 10 l-30 0 0
29 c0 16 6 32 13 35 20 8 120 -6 134 -20z"/>
</g>
</svg>
