<?xml version="1.0" standalone="no"?>
<!DOCTYPE svg PUBLIC "-//W3C//DTD SVG 20010904//EN"
 "http://www.w3.org/TR/2001/REC-SVG-20010904/DTD/svg10.dtd">
<svg version="1.0" xmlns="http://www.w3.org/2000/svg"
 width="221.568439pt" height="442.448738pt" viewBox="0 0 221.568439 442.448738"
 preserveAspectRatio="xMidYMid meet">
<metadata>
Created by Potrace Professional 1.0m
</metadata>
<g transform="translate(-1.797777,443.839683) rotate(-360.00) scale(0.100000,-0.100000)"
fill="#000000" stroke="none">
<path d="M196 4431 c-4 -6 -16 -11 -27 -11 -10 0 -29 -6 -41 -12 -34 -20 -88
-76 -88 -92 0 -8 -5 -16 -10 -18 -16 -5 -16 -159 0 -188 17 -32 65 -77 91 -85
10 -4 19 -11 19 -16 0 -5 12 -9 26 -9 14 0 34 -5 45 -10 30 -16 138 8 167 37
12 13 27 23 32 23 6 0 10 7 10 15 0 8 5 15 10 15 6 0 10 9 10 20 0 11 5 20 10
20 6 0 10 33 10 80 0 47 -4 80 -10 80 -5 0 -10 7 -10 16 0 23 -77 97 -124 118
-49 23 -111 32 -120 17z"/>
<path d="M1500 3250 c0 -5 -13 -10 -30 -10 -16 0 -30 -4 -30 -10 0 -5 -17 -10
-38 -10 l-37 0 -14 -32 c-7 -18 -19 -46 -26 -63 -7 -16 -16 -41 -20 -55 -11
-34 -29 -50 -59 -50 -17 0 -26 -6 -26 -15 0 -17 20 -57 34 -66 5 -4 6 -21 3
-38 -8 -39 0 -61 22 -61 21 0 41 -19 41 -38 0 -27 -30 -42 -107 -53 -43 -6
-87 -15 -98 -19 -11 -4 -40 -14 -64 -21 -24 -7 -46 -20 -49 -28 -8 -21 -28
-41 -41 -41 -6 0 -26 -9 -46 -20 -44 -25 -56 -25 -81 -2 -25 22 -61 42 -74 42
-16 0 -80 67 -80 84 0 8 -5 16 -10 18 -9 3 -14 63 -25 293 -1 33 -3 66 -4 73
-2 21 -64 14 -93 -12 -16 -13 -28 -28 -28 -33 0 -22 -26 -63 -41 -63 -9 0 -22
-12 -30 -26 -17 -33 -19 -146 -1 -152 6 -2 12 -20 12 -41 l0 -37 -30 -11 -30
-11 0 -57 0 -56 25 -24 24 -25 51 0 c53 0 80 -15 80 -44 0 -16 39 -87 53 -97
5 -4 -14 -30 -42 -59 -28 -29 -51 -60 -51 -70 0 -11 -4 -22 -10 -25 -5 -3 -10
-19 -10 -36 0 -16 -4 -29 -10 -29 -5 0 -10 -11 -10 -25 0 -14 -4 -34 -10 -45
-5 -11 -14 -29 -20 -40 -5 -11 -10 -36 -10 -55 0 -40 -21 -115 -32 -115 -14 0
-8 -64 8 -85 l15 -20 61 0 c40 0 63 5 66 13 2 6 12 12 23 12 10 0 19 3 19 8 0
4 13 13 28 20 59 25 68 93 19 136 -45 39 -39 65 21 96 26 14 54 32 63 42 9 10
23 18 30 18 8 0 21 9 29 20 16 22 50 27 50 7 0 -7 -9 -23 -20 -35 -11 -12 -20
-28 -20 -36 0 -8 -4 -18 -10 -21 -15 -9 -13 -75 3 -75 16 0 67 -44 67 -58 0
-6 -27 -37 -60 -70 -33 -33 -60 -68 -60 -76 0 -9 -3 -16 -8 -16 -4 0 -13 -13
-20 -30 -8 -16 -20 -30 -28 -30 -19 0 -104 -85 -104 -105 0 -8 -4 -15 -10 -15
-5 0 -10 -7 -10 -16 0 -9 -13 -29 -30 -44 -16 -15 -30 -35 -30 -44 0 -9 -4
-16 -10 -16 -5 0 -10 -9 -10 -20 0 -11 -4 -20 -10 -20 -5 0 -10 -9 -10 -20 0
-11 -4 -20 -10 -20 -6 0 -10 -26 -10 -58 l0 -57 39 -17 c22 -10 51 -29 65 -43
14 -14 30 -25 36 -25 6 0 25 -13 43 -30 l32 -30 1 -94 1 -95 31 -30 c18 -16
32 -34 32 -40 0 -7 9 -21 20 -33 11 -12 20 -30 20 -41 0 -10 5 -28 11 -40 16
-31 197 -207 212 -207 8 0 20 -12 28 -27 8 -16 22 -35 31 -44 19 -17 24 -49 9
-49 -5 0 -11 -15 -14 -32 -13 -69 -26 -136 -41 -203 -18 -80 -21 -141 -6 -150
6 -3 10 -21 10 -40 l0 -33 25 -6 c14 -4 33 -2 43 3 38 20 129 128 142 166 7
22 16 50 21 63 5 13 9 46 9 73 l0 51 28 26 c15 15 37 56 49 92 l22 65 -57 52
c-43 40 -65 53 -88 53 -24 0 -34 6 -43 28 -8 15 -17 35 -22 44 -5 10 -9 25 -9
33 0 8 -4 15 -9 15 -5 0 -12 24 -15 53 -3 28 -8 77 -12 107 l-6 55 -57 55
c-71 68 -77 84 -45 104 17 12 24 26 24 47 0 16 9 39 20 51 11 12 20 28 20 35
0 7 5 13 10 13 6 0 10 9 10 20 0 11 4 20 8 20 5 0 15 12 23 28 8 15 26 39 41
54 16 14 28 30 28 35 1 11 68 83 79 83 4 0 16 8 25 19 9 10 54 37 99 60 46 22
99 55 118 73 l36 33 7 55 c5 30 9 87 11 127 3 76 21 133 43 133 31 0 122 77
122 105 0 8 5 15 10 15 6 0 10 9 10 20 0 11 5 20 10 20 6 0 10 8 10 19 0 24
31 52 37 34 3 -7 10 -13 17 -13 18 0 66 -24 66 -32 0 -5 7 -8 15 -8 9 0 27
-11 41 -25 l24 -25 -12 -20 -13 -21 14 -8 c10 -7 12 -21 7 -52 -3 -24 -9 -62
-12 -84 -7 -51 -23 -85 -41 -85 -18 0 -43 25 -43 42 0 16 -44 58 -60 58 -12 0
-49 -20 -67 -37 -20 -18 -16 -71 7 -83 l20 -10 -2 -100 -2 -100 22 -16 c14
-10 22 -26 22 -45 0 -16 5 -29 10 -29 6 0 10 -9 10 -19 0 -11 5 -23 10 -26 6
-3 10 -14 10 -24 0 -9 8 -26 18 -37 9 -10 23 -31 31 -46 8 -16 18 -28 23 -28
4 0 8 -9 8 -19 0 -10 6 -21 14 -24 21 -8 126 4 126 14 0 5 9 9 20 9 11 0 20 5
20 10 0 6 6 10 13 10 8 0 35 20 61 45 l47 44 -10 20 c-6 11 -11 30 -11 43 0
13 -9 30 -20 38 -11 8 -20 21 -20 30 0 9 -9 22 -20 30 -11 8 -20 19 -20 26 0
6 -18 30 -41 53 l-41 42 16 34 c10 19 27 45 39 58 12 12 28 34 36 50 8 15 18
27 23 27 4 0 8 9 8 20 0 11 5 20 10 20 6 0 10 11 10 24 0 14 5 28 10 31 6 3
10 28 10 56 0 27 5 49 10 49 6 0 10 9 10 19 0 11 6 21 12 23 7 3 -14 31 -50
66 -34 33 -62 66 -62 72 0 14 -86 100 -100 100 -6 0 -26 16 -45 35 -25 24 -35
43 -35 65 0 29 -14 62 -35 85 -5 6 -30 17 -55 24 -25 7 -54 18 -65 24 -43 22
-60 32 -65 37 -10 10 -50 30 -61 30 -16 0 -33 21 -46 61 -20 55 -16 67 37 118
28 26 50 55 50 65 0 9 4 16 8 16 17 0 32 52 32 112 l0 61 -43 41 c-51 50 -79
66 -112 66 -14 0 -25 5 -25 10 0 6 -13 10 -30 10 -16 0 -30 -4 -30 -10z"/>
</g>
</svg>
