<?xml version="1.0" standalone="no"?>
<!DOCTYPE svg PUBLIC "-//W3C//DTD SVG 20010904//EN"
 "http://www.w3.org/TR/2001/REC-SVG-20010904/DTD/svg10.dtd">
<svg version="1.0" xmlns="http://www.w3.org/2000/svg"
 width="284.051042pt" height="346.434671pt" viewBox="0 0 284.051042 346.434671"
 preserveAspectRatio="xMidYMid meet">
<metadata>
Created by Potrace Professional 1.0m
</metadata>
<g transform="translate(-2.000000,348.655385) rotate(-360.00) scale(0.100000,-0.100000)"
fill="#000000" stroke="none">
<path d="M1586 3483 c-28 -8 -106 -90 -106 -112 0 -11 -4 -23 -10 -26 -5 -3
-10 -28 -10 -56 0 -27 5 -49 10 -49 6 0 10 -7 10 -16 0 -18 56 -77 83 -87 9
-3 17 -16 17 -27 0 -11 -8 -24 -17 -27 -10 -4 -20 -9 -23 -13 -3 -3 -21 -13
-40 -22 -42 -20 -80 -51 -80 -66 0 -26 -50 -42 -130 -42 -57 0 -86 -4 -96 -14
-19 -20 -18 -40 6 -61 12 -11 20 -31 20 -52 0 -18 5 -33 10 -33 6 0 10 -15 10
-33 0 -34 -20 -87 -32 -87 -12 0 -10 -48 2 -55 25 -15 5 -25 -50 -25 l-60 0
11 18 c6 10 24 24 40 31 16 7 29 16 29 19 -1 20 -21 33 -56 34 -21 1 -45 8
-52 15 -10 10 -28 12 -63 7 l-49 -7 0 32 0 31 24 0 c14 0 28 5 31 10 3 6 14
10 25 10 22 0 34 28 19 46 -7 8 -30 14 -55 14 l-44 0 0 60 0 60 25 0 c43 0
116 56 130 101 4 10 11 19 16 19 5 0 9 28 9 63 0 46 -5 68 -17 83 -10 10 -24
31 -32 47 -8 15 -23 27 -33 27 -10 0 -18 5 -18 10 0 6 -13 10 -30 10 -16 0
-30 5 -30 10 0 6 -11 10 -24 10 -14 0 -28 -4 -31 -10 -3 -5 -17 -10 -30 -10
-13 0 -27 -4 -30 -10 -3 -5 -13 -10 -21 -10 -20 0 -44 -24 -44 -44 0 -9 -4
-16 -10 -16 -5 0 -10 -9 -10 -20 0 -11 -4 -20 -10 -20 -14 0 -12 -106 2 -133
7 -12 29 -39 49 -59 37 -37 53 -86 42 -127 -4 -15 -13 -21 -34 -21 -16 0 -29
-4 -29 -10 0 -6 -27 -10 -60 -10 -33 0 -60 4 -60 9 0 5 5 11 10 13 17 5 17
111 0 144 -20 39 -76 94 -95 94 -8 0 -15 5 -15 10 0 6 -27 10 -61 10 l-60 0
-43 -29 c-45 -31 -76 -70 -76 -96 0 -8 -4 -15 -10 -15 -5 0 -10 -18 -10 -40 0
-22 5 -40 10 -40 6 0 10 -11 10 -25 0 -28 47 -81 93 -104 31 -16 35 -42 10
-62 -13 -11 -17 -11 -20 -1 -3 7 -24 12 -59 12 -41 0 -60 -5 -79 -22 -35 -30
-31 -38 15 -38 22 0 40 -4 40 -10 0 -5 22 -10 49 -10 37 0 50 -4 55 -17 3 -10
8 -23 11 -29 7 -14 -38 -34 -75 -34 -16 0 -32 -4 -35 -10 -3 -5 -13 -10 -21
-10 -33 0 -44 -27 -44 -104 0 -42 -4 -76 -9 -76 -5 0 -13 -9 -16 -20 -4 -11
-17 -32 -31 -45 -24 -24 -32 -55 -14 -55 6 0 10 -9 10 -20 0 -11 5 -20 10 -20
6 0 10 -27 10 -60 0 -33 -4 -60 -10 -60 -5 0 -10 -11 -10 -25 0 -31 -25 -61
-67 -81 l-32 -16 1 -124 0 -125 -21 -18 c-11 -10 -21 -25 -21 -33 0 -18 -28
-75 -40 -83 -13 -8 1 -45 21 -56 11 -5 19 -16 19 -24 0 -8 5 -15 10 -15 6 0
10 -11 10 -24 0 -14 5 -28 10 -31 13 -8 13 -125 0 -125 -5 0 -10 -13 -10 -30
0 -16 -3 -30 -7 -30 -13 0 -35 -54 -23 -58 5 -2 10 -12 10 -23 0 -14 -7 -19
-30 -19 l-30 0 0 -34 c0 -19 5 -38 10 -41 6 -3 10 -19 10 -36 0 -16 3 -29 8
-29 4 0 13 -29 20 -65 15 -78 16 -315 2 -315 -5 0 -10 -9 -10 -19 0 -11 -5
-21 -11 -23 -5 -2 -7 -11 -4 -21 10 -23 63 -22 95 3 14 11 33 20 42 20 9 0 20
5 23 10 3 6 31 10 61 10 l54 0 0 -44 c0 -25 -4 -48 -10 -51 -5 -3 -10 -17 -10
-30 0 -13 -5 -27 -10 -30 -6 -3 -10 -24 -10 -46 0 -21 -4 -39 -10 -39 -5 0
-10 -7 -10 -16 0 -21 -35 -52 -83 -73 l-38 -16 5 -30 c18 -103 28 -125 58
-125 8 0 20 -9 28 -20 8 -11 24 -20 37 -20 12 0 24 -4 27 -9 10 -16 88 -23
316 -28 142 -2 232 0 245 6 11 6 117 12 235 15 204 4 343 12 650 37 74 6 185
14 245 18 112 7 155 16 155 32 0 5 9 9 20 9 13 0 20 7 20 19 0 12 12 24 29 32
16 7 36 25 45 40 9 15 40 52 69 82 28 30 61 72 73 93 38 71 49 89 67 105 9 9
17 24 17 33 0 9 5 16 10 16 6 0 10 7 10 15 0 18 165 185 183 185 7 0 18 9 24
19 7 11 34 34 60 52 61 42 73 54 73 73 0 9 5 16 10 16 23 0 7 33 -40 79 -27
27 -50 53 -50 58 0 4 -30 40 -67 79 -38 38 -74 82 -82 97 -8 15 -21 27 -28 27
-7 0 -17 8 -20 17 -4 10 -37 48 -75 86 -37 38 -68 73 -68 78 0 5 -13 23 -30
41 -16 17 -30 37 -30 44 0 8 -4 14 -8 14 -5 0 -15 12 -23 28 -8 15 -22 34 -31
43 -10 9 -18 24 -18 33 0 9 -4 16 -10 16 -5 0 -10 14 -10 30 0 17 5 30 10 30
6 0 10 30 10 69 0 39 -4 73 -10 76 -5 3 -10 17 -10 31 0 13 -4 24 -10 24 -5 0
-10 9 -10 20 0 11 -4 20 -10 20 -5 0 -10 7 -10 16 0 9 -14 33 -30 53 -17 20
-35 41 -40 48 -13 15 -13 63 -1 63 5 0 12 19 15 43 3 23 8 62 12 85 4 27 2 48
-5 55 -6 6 -11 21 -11 34 0 13 -4 23 -10 23 -5 0 -10 9 -10 20 0 11 -4 20 -10
20 -5 0 -10 7 -10 16 0 23 -25 44 -54 44 -14 0 -26 5 -26 10 0 6 -18 10 -39
10 -22 0 -43 5 -46 10 -3 6 -15 10 -27 10 -11 0 -22 8 -25 20 -3 11 -9 20 -14
20 -5 0 -9 9 -9 21 0 16 4 19 18 14 9 -4 31 -10 47 -13 17 -3 37 -13 46 -23
29 -34 89 -16 89 25 0 9 5 16 10 16 6 0 10 30 10 69 0 39 -4 73 -10 76 -5 3
-10 16 -10 27 0 22 -46 68 -67 68 -7 0 -13 3 -13 8 0 8 -70 32 -93 32 -8 0
-28 14 -45 30 -18 17 -36 30 -41 30 -5 0 -17 12 -27 28 -9 15 -39 47 -66 73
-26 25 -48 50 -48 57 0 6 17 19 38 29 20 9 56 36 79 59 43 43 46 56 44 160 -1
31 -9 48 -35 77 -18 20 -41 37 -49 37 -8 0 -17 5 -19 10 -3 11 -123 22 -152
13z m144 -58 l12 -15 -16 -6 c-14 -5 -46 16 -46 30 0 12 38 5 50 -9z m-125
-15 c3 -5 16 -10 27 -10 21 0 68 -36 68 -52 0 -11 -64 -10 -75 1 -6 5 -28 11
-50 13 -28 2 -41 8 -43 21 -2 11 3 17 17 17 11 0 23 5 26 10 3 6 10 10 15 10
5 0 12 -4 15 -10z m184 -43 c8 -10 7 -21 -2 -40 -6 -15 -15 -27 -19 -27 -5 0
-8 -8 -8 -18 0 -10 -12 -25 -27 -33 -16 -8 -31 -18 -35 -24 -14 -19 -31 11
-22 38 9 24 83 116 95 117 4 0 12 -6 18 -13z m-249 -97 c0 -56 -9 -63 -27 -23
-21 44 -16 73 14 73 9 0 13 -15 13 -50z m66 36 c8 -8 14 -33 14 -55 0 -23 5
-50 12 -61 15 -24 4 -37 -15 -18 -26 25 -37 56 -37 102 0 49 4 54 26 32z
m-586 -42 c0 -11 -5 -14 -16 -10 -9 3 -22 6 -30 6 -8 0 -14 5 -14 10 0 6 14
10 30 10 21 0 30 -5 30 -16z m-67 -36 c37 -18 36 -48 -2 -48 -17 0 -33 5 -36
10 -3 6 -26 10 -51 10 l-44 0 0 20 0 20 53 0 c29 0 65 -6 80 -12z m127 -38 c0
-16 -4 -30 -10 -30 -5 0 -10 -7 -10 -15 0 -41 -91 -90 -98 -53 -3 15 94 127
111 128 4 0 7 -13 7 -30z m665 4 c-9 -9 -19 -13 -23 -10 -3 4 0 11 8 16 24 15
33 11 15 -6z m-925 -68 c0 -19 3 -43 6 -53 l7 -18 -16 20 c-18 22 -23 85 -7
85 6 0 10 -15 10 -34z m88 22 c7 -7 12 -34 12 -60 0 -26 5 -48 10 -48 6 0 10
-7 10 -15 0 -20 -12 -19 -38 4 l-22 18 0 57 c0 56 6 66 28 44z m-398 -78 c0
-5 -16 -10 -36 -10 -21 0 -33 4 -29 10 3 6 19 10 36 10 16 0 29 -4 29 -10z
m110 -85 c0 -25 -4 -45 -10 -45 -5 0 -10 -7 -10 -16 0 -14 -28 -51 -33 -43
-23 36 -29 61 -19 71 7 7 12 35 12 63 0 64 8 72 37 41 17 -19 23 -37 23 -71z
m420 45 c0 -5 -7 -10 -15 -10 -8 0 -15 5 -15 10 0 6 7 10 15 10 8 0 15 -4 15
-10z m-520 -29 c0 -25 -17 -38 -63 -46 -21 -4 -44 -14 -52 -22 -16 -16 -35
-10 -35 11 0 33 65 73 123 75 20 1 27 -4 27 -18z m1060 -49 c0 -19 -27 -32
-67 -32 -47 0 -52 6 -25 26 18 14 92 19 92 6z m140 -1 c0 -5 9 -11 20 -14 28
-7 26 -37 -3 -37 -35 0 -77 23 -77 43 0 12 8 17 30 17 17 0 30 -4 30 -9z
m-1215 -50 c7 -24 39 -61 53 -61 6 0 14 -4 17 -10 4 -6 -7 -10 -27 -10 -40 0
-82 33 -92 73 l-6 27 24 0 c15 0 27 -7 31 -19z m155 -7 c0 -3 -7 -12 -15 -21
-20 -19 -32 -10 -14 11 14 15 29 21 29 10z m-229 -41 c8 -16 18 -31 24 -35 5
-4 6 -10 3 -14 -9 -9 -58 42 -58 61 0 24 15 18 31 -12z m254 -73 c21 -23 90
-28 99 -7 5 10 7 10 12 0 3 -7 15 -13 25 -13 l20 0 -3 -37 -3 -38 -20 3 c-22
4 -36 4 -113 -1 -29 -2 -55 1 -58 5 -3 4 -23 8 -44 8 l-39 0 3 23 c5 38 17 57
36 57 11 0 22 5 25 10 10 16 41 11 60 -10z m859 -136 c22 -9 22 -72 -1 -81 -9
-4 -19 -1 -21 5 -2 7 -22 12 -44 12 -28 0 -38 4 -34 13 3 6 9 20 12 29 3 10
20 19 38 21 17 2 32 5 33 5 1 1 8 -1 17 -4z m176 -17 c0 -7 9 -23 20 -35 33
-35 26 -52 -20 -52 l-40 0 0 50 0 50 20 0 c11 0 20 -6 20 -13z m-1073 -53 c8
-35 8 -47 -2 -50 -21 -8 -92 75 -78 90 4 3 21 6 38 6 l32 0 10 -46z m673 16
c0 -5 -4 -10 -10 -10 -5 0 -10 5 -10 10 0 6 5 10 10 10 6 0 10 -4 10 -10z
m-175 -103 c17 -19 36 -44 43 -55 15 -27 16 -95 0 -125 -6 -12 -14 -28 -18
-36 -3 -8 -12 -17 -20 -19 -10 -4 -12 7 -7 51 l7 56 -17 17 c-13 12 -14 19 -5
22 19 6 14 36 -8 52 -19 14 -29 70 -12 70 4 0 21 -15 37 -33z m-505 -1 c0 -8
-4 -18 -10 -21 -5 -3 -10 -19 -10 -36 0 -16 5 -29 10 -29 6 0 10 -5 10 -11 0
-6 -10 -9 -22 -7 l-23 3 2 42 c2 39 18 72 36 73 4 0 7 -6 7 -14z m323 -63 c37
-3 70 -10 73 -14 3 -5 14 -9 25 -9 10 0 19 -4 19 -10 0 -6 -70 -10 -190 -10
-104 0 -190 3 -190 6 0 28 85 55 150 48 25 -2 76 -7 113 -11z m-448 -93 c3 -5
19 -10 34 -10 19 0 32 -8 41 -25 13 -24 6 -49 -8 -30 -14 20 -80 35 -150 35
-40 0 -72 2 -72 5 0 3 6 12 13 20 14 17 132 21 142 5z m105 -100 c0 -5 -4 -10
-10 -10 -5 0 -10 5 -10 10 0 6 5 10 10 10 6 0 10 -4 10 -10z m0 -49 c0 -11 -4
-23 -10 -26 -5 -3 -10 -17 -10 -31 0 -13 -4 -24 -10 -24 -11 0 -14 59 -4 84 9
23 34 20 34 -3z m823 -36 c-10 -53 -18 -56 -141 -49 -62 4 -112 10 -112 14 0
18 40 50 64 50 14 0 26 5 26 10 0 6 30 10 69 10 40 0 73 5 77 11 11 19 23 -12
17 -46z m105 22 c18 -21 0 -71 -26 -75 -26 -4 -29 19 -9 61 14 30 20 33 35 14z
m287 -19 c22 -6 44 -15 50 -20 5 -4 19 -8 32 -8 13 0 23 -4 23 -10 0 -5 7 -10
16 -10 15 0 44 -23 44 -35 0 -3 -57 -4 -126 -3 l-125 3 -16 30 c-25 46 -33 64
-33 70 0 8 85 -3 135 -17z m-727 -10 c20 -20 14 -36 -18 -50 -41 -18 -41 -56
0 -90 l30 -25 1 -78 c1 -43 -4 -82 -10 -88 -6 -6 -11 -22 -11 -35 0 -15 -5
-22 -12 -19 -7 2 -12 9 -11 15 1 5 3 53 4 106 1 74 -2 99 -14 111 l-16 15
-163 1 c-90 0 -176 -3 -191 -6 -15 -4 -27 -3 -27 2 0 16 59 63 79 63 11 0 23
5 26 10 3 6 24 10 45 10 21 0 41 3 43 8 3 4 49 9 103 10 55 2 102 6 106 8 5 3
8 14 8 25 0 22 11 24 28 7z m-520 -114 c18 -19 7 -32 -22 -27 -13 3 -27 0 -30
-6 -9 -14 -226 -15 -226 -1 0 6 7 10 15 10 8 0 15 5 15 10 0 6 12 10 28 10 15
0 34 4 42 10 23 14 162 9 178 -6z m-8 -150 c0 -8 -4 -12 -10 -9 -5 3 -10 13
-10 21 0 8 5 12 10 9 6 -3 10 -13 10 -21z m20 -144 c0 -16 -4 -30 -10 -30 -5
0 -10 14 -10 30 0 17 5 30 10 30 6 0 10 -13 10 -30z m841 -3 c-1 -4 -1 -20 -1
-37 l0 -30 -40 0 c-57 0 -54 34 5 68 21 12 37 12 36 -1z m117 -40 l3 -47 -29
0 c-32 0 -67 30 -44 37 6 3 12 15 12 28 0 24 14 35 40 32 10 -2 16 -17 18 -50z
m282 23 c0 -5 9 -10 19 -10 19 0 61 -47 61 -69 0 -6 -16 -11 -35 -11 -37 0
-66 22 -92 68 -18 30 -17 32 17 32 17 0 30 -4 30 -10z m-780 -20 c0 -5 -4 -10
-10 -10 -5 0 -10 5 -10 10 0 6 5 10 10 10 6 0 10 -4 10 -10z m240 -10 l0 -20
-40 0 c-22 0 -40 2 -40 5 0 16 28 34 53 35 20 0 27 -5 27 -20z m-724 -12 c-3
-7 -9 -21 -12 -30 -4 -10 -10 -18 -15 -18 -13 0 -11 29 4 45 15 18 31 19 23 3z
m1470 -22 c21 -22 17 -26 -26 -26 l-40 0 0 20 c0 24 43 28 66 6z m-1632 -12
c9 -8 14 -19 11 -24 -8 -12 -205 -12 -205 0 0 6 9 10 20 10 11 0 20 4 20 9 0
6 24 12 53 14 28 2 60 4 69 5 9 1 24 -5 32 -14z m502 -41 c13 -16 24 -34 24
-41 0 -18 -50 -36 -64 -22 -5 5 -34 10 -63 10 -62 0 -70 18 -25 56 39 35 97
33 128 -3z m1344 -25 c0 -7 13 -29 30 -48 39 -46 30 -51 -14 -6 -35 34 -47 66
-26 66 6 0 10 -6 10 -12z m-1560 -18 c0 -5 -9 -10 -20 -10 -11 0 -20 5 -20 10
0 6 9 10 20 10 11 0 20 -4 20 -10z m280 -101 c0 -17 -4 -28 -10 -24 -5 3 -10
17 -10 31 0 13 5 24 10 24 6 0 10 -14 10 -31z m1375 -19 c3 -5 1 -10 -4 -10
-6 0 -11 5 -11 10 0 6 2 10 4 10 3 0 8 -4 11 -10z m-1830 -23 c12 -13 18 -60
16 -134 -1 -35 -21 -47 -21 -13 0 11 -4 20 -10 20 -6 0 -10 30 -10 70 0 73 3
79 25 57z m1821 -64 c18 -21 34 -41 34 -46 0 -4 22 -31 50 -60 27 -28 50 -58
50 -64 0 -7 5 -13 10 -13 6 0 10 -7 10 -15 0 -8 14 -24 30 -37 17 -12 30 -26
30 -31 0 -5 8 -17 18 -26 24 -21 82 -107 82 -120 0 -6 5 -11 10 -11 6 0 10
-13 10 -30 0 -20 -5 -30 -15 -30 -9 0 -25 -9 -37 -20 -24 -22 -68 -27 -68 -7
0 7 -8 22 -17 33 -18 19 -30 42 -55 102 -7 17 -16 32 -20 32 -5 0 -8 9 -8 20
0 11 -4 20 -9 20 -5 0 -11 8 -14 18 -6 17 -37 72 -47 82 -3 3 -11 17 -19 33
-8 15 -18 27 -23 27 -4 0 -8 8 -8 18 0 10 -9 24 -20 32 l-20 14 0 58 c0 32 3
58 6 58 3 0 21 -17 40 -37z m-1366 12 c0 -3 -16 -21 -35 -40 -26 -27 -43 -35
-70 -35 -26 0 -35 4 -35 16 0 26 31 43 78 44 23 0 42 5 42 10 0 6 5 10 10 10
6 0 10 -2 10 -5z m440 -51 c0 -33 -26 -44 -104 -44 -42 0 -76 2 -76 5 0 3 10
17 23 30 l22 24 68 0 67 1 0 -16z m129 -6 c6 -16 5 -27 -5 -38 -19 -20 -34 -2
-27 33 6 33 21 35 32 5z m313 10 c75 -13 118 -40 118 -73 l0 -15 -128 0 -129
0 -17 18 c-11 13 -14 28 -10 50 l7 32 43 0 c24 0 76 -6 116 -12z m-682 -18 c0
-5 -4 -10 -10 -10 -5 0 -10 5 -10 10 0 6 5 10 10 10 6 0 10 -4 10 -10z m940
-39 c0 -5 30 -12 67 -16 74 -8 93 -13 93 -26 0 -12 -153 -12 -165 0 -6 5 -23
11 -40 13 -19 2 -31 9 -33 21 l-3 17 40 0 c23 0 41 -4 41 -9z m-1702 -63 l3
-28 -120 0 c-74 0 -121 4 -121 10 0 6 11 10 24 10 14 0 28 5 31 10 3 6 21 10
40 10 19 0 37 5 40 11 4 5 28 9 53 7 l47 -3 3 -27z m2128 18 c15 -16 18 -26 6
-26 -4 0 -13 9 -20 20 -14 23 -7 26 14 6z m-2043 -20 c6 -15 -1 -26 -15 -26
-4 0 -8 9 -8 20 0 23 15 27 23 6z m376 -35 c28 -40 26 -51 -9 -51 -34 0 -35 2
-17 31 10 17 10 23 0 26 -7 3 -13 9 -13 14 0 18 19 8 39 -20z m1721 -6 c0 -8
-4 -15 -10 -15 -5 0 -10 7 -10 15 0 8 5 15 10 15 6 0 10 -7 10 -15z m-1920
-25 c0 -22 -53 -37 -95 -26 -39 10 -30 26 14 26 22 0 43 5 46 10 11 17 35 11
35 -10z m1967 -35 c8 -9 13 -19 10 -22 -6 -5 -37 21 -37 31 0 10 11 6 27 -9z
m-2187 -10 c0 -8 -4 -15 -10 -15 -5 0 -10 7 -10 15 0 8 5 15 10 15 6 0 10 -7
10 -15z m484 -37 c17 -83 18 -101 7 -94 -6 4 -11 18 -11 32 0 13 -4 24 -10 24
-5 0 -10 16 -10 35 0 44 16 46 24 3z m-444 -28 c0 -5 -4 -10 -10 -10 -5 0 -10
5 -10 10 0 6 5 10 10 10 6 0 10 -4 10 -10z m1920 -28 c0 -10 9 -24 20 -32 11
-8 20 -22 20 -32 0 -10 5 -18 10 -18 6 0 10 -13 10 -30 0 -16 4 -30 9 -30 11
0 21 -49 14 -67 -3 -7 -14 -13 -24 -13 -10 0 -19 -4 -19 -8 0 -5 -12 -15 -27
-23 -16 -8 -31 -18 -35 -24 -13 -18 -22 6 -10 25 7 11 12 36 12 55 0 19 5 44
12 54 9 15 9 31 0 71 -15 63 -15 90 -2 90 6 0 10 -8 10 -18z m-1900 -12 c0 -5
-4 -10 -10 -10 -5 0 -10 5 -10 10 0 6 5 10 10 10 6 0 10 -4 10 -10z m20 -55
c0 -8 5 -15 10 -15 6 0 10 -13 10 -30 0 -16 -4 -30 -10 -30 -5 0 -10 14 -10
30 0 17 -4 30 -10 30 -5 0 -10 7 -10 15 0 8 5 15 10 15 6 0 10 -7 10 -15z
m440 -146 l0 -150 -17 3 c-20 3 -32 58 -14 58 7 0 11 42 11 120 0 73 4 120 10
120 6 0 10 -57 10 -151z m760 -59 c0 -16 5 -30 10 -30 16 0 12 -57 -5 -64 -29
-11 -43 5 -47 52 -5 58 -1 72 23 72 14 0 19 -7 19 -30z m265 12 c15 -10 35
-49 35 -67 0 -11 -11 -15 -40 -15 l-40 0 0 20 c0 11 5 20 10 20 6 0 10 11 10
25 0 25 7 30 25 17z m-477 -14 c7 -7 8 -16 3 -22 -5 -6 -11 -28 -13 -49 -2
-21 -7 -36 -13 -35 -5 2 -9 20 -7 41 l3 37 -30 0 -31 0 0 -34 c0 -19 -4 -38
-10 -41 -5 -3 -10 -15 -10 -26 0 -12 -7 -19 -20 -19 -27 0 -27 41 -1 64 11 10
21 27 23 39 3 21 50 55 79 56 8 1 20 -4 27 -11z m-750 -138 c2 -30 1 -64 -3
-77 -6 -25 -35 -32 -35 -8 0 8 -4 15 -10 15 -5 0 -10 11 -10 24 0 14 5 28 10
31 6 3 10 19 10 34 0 15 3 31 7 35 16 16 28 -4 31 -54z m-225 6 c28 -24 35
-50 17 -61 -5 -3 -10 -17 -10 -31 0 -13 -4 -24 -10 -24 -5 0 -10 -6 -10 -13 0
-18 -24 -67 -32 -67 -5 0 -8 50 -8 110 0 121 4 128 53 86z m365 -29 c2 -28 -1
-47 -7 -47 -6 0 -11 15 -11 34 0 19 -3 42 -7 52 -4 12 -2 15 8 12 9 -3 15 -22
17 -51z m270 6 l-3 -28 -32 -3 c-18 -2 -33 -7 -33 -13 0 -5 -13 -9 -30 -9 -16
0 -30 4 -30 9 0 5 14 15 30 23 17 7 30 16 30 20 0 5 9 8 20 8 11 0 20 5 20 10
0 6 7 10 16 10 11 0 14 -8 12 -27z m-768 -158 l0 -75 -30 0 c-16 0 -30 5 -30
10 0 21 25 90 32 90 5 0 8 8 8 18 0 17 8 32 17 32 2 0 3 -34 3 -75z m286 48
c22 -29 16 -43 -16 -43 -32 0 -40 19 -17 45 16 18 17 18 33 -2z"/>
</g>
</svg>
