<?xml version="1.0" standalone="no"?>
<!DOCTYPE svg PUBLIC "-//W3C//DTD SVG 20010904//EN"
 "http://www.w3.org/TR/2001/REC-SVG-20010904/DTD/svg10.dtd">
<svg version="1.0" xmlns="http://www.w3.org/2000/svg"
 width="341.988931pt" height="253.982129pt" viewBox="0 0 341.988931 253.982129"
 preserveAspectRatio="xMidYMid meet">
<metadata>
Created by Potrace Professional 1.0m
</metadata>
<g transform="translate(-0.011069,253.982129) rotate(-360.00) scale(0.100000,-0.100000)"
fill="#000000" stroke="none">
<path d="M1086 2531 c-3 -4 -18 -11 -34 -14 -31 -6 -92 -57 -92 -77 0 -28 35
-39 122 -40 48 0 90 5 93 10 3 6 16 10 28 10 43 0 137 42 137 61 0 15 -26 39
-44 39 -8 0 -18 5 -21 10 -8 12 -182 13 -189 1z m184 -41 c0 -5 -8 -10 -18
-10 -10 0 -22 -4 -27 -9 -6 -5 -50 -12 -99 -16 l-90 -7 17 16 c8 9 23 16 31
16 9 0 16 5 16 10 0 6 35 10 85 10 50 0 85 -4 85 -10z"/>
<path d="M1410 2280 c-50 -54 -90 -76 -90 -50 0 6 -33 10 -77 10 -117 1 -220
29 -241 67 -6 10 -16 14 -26 10 -17 -7 -22 -37 -6 -37 6 0 10 -7 10 -16 0 -8
7 -22 15 -30 26 -26 17 -32 -52 -37 -85 -6 -121 -15 -155 -39 -30 -20 -38 -58
-13 -58 8 0 26 5 40 12 19 8 31 8 50 0 40 -18 29 -32 -24 -32 -28 0 -53 -4
-56 -10 -3 -5 -44 -10 -90 -10 -46 0 -87 5 -90 10 -6 10 -45 14 -45 5 0 -13
33 -55 44 -55 6 0 18 -9 26 -20 8 -11 22 -20 32 -20 10 0 18 -3 18 -7 0 -12
51 -33 77 -33 13 0 23 -4 23 -10 0 -5 18 -10 39 -10 22 0 43 -4 46 -10 3 -5
17 -10 31 -10 32 0 31 -13 -3 -31 -16 -8 -31 -17 -34 -21 -3 -5 -26 -10 -52
-12 -72 -7 -86 -22 -40 -43 15 -7 42 -13 60 -13 18 0 33 -4 33 -10 0 -6 26
-10 59 -10 33 0 63 5 66 10 3 6 22 10 41 10 19 0 42 4 52 9 9 5 31 15 47 22
17 8 39 22 49 32 21 18 86 24 86 7 0 -5 9 -10 20 -10 11 0 20 -3 20 -7 0 -9
49 -33 67 -33 7 0 13 -3 13 -7 0 -13 -52 -33 -86 -33 -18 0 -36 -4 -39 -10 -3
-5 -26 -10 -51 -10 -24 0 -44 -4 -44 -10 0 -5 -9 -10 -20 -10 -11 0 -20 -4
-20 -10 0 -5 -9 -10 -20 -10 -11 0 -20 -4 -20 -10 0 -5 -9 -10 -20 -10 -11 0
-20 -4 -20 -10 0 -5 -9 -10 -19 -10 -11 0 -23 -4 -26 -10 -3 -5 -15 -10 -26
-10 -11 0 -29 -9 -41 -20 -12 -11 -32 -20 -45 -20 -13 0 -23 -4 -23 -10 0 -5
-8 -10 -18 -10 -22 0 -175 -78 -180 -91 -2 -5 -12 -9 -23 -9 -10 0 -19 -4 -19
-10 0 -5 -9 -10 -20 -10 -11 0 -28 -4 -38 -8 -9 -5 -46 -23 -82 -40 -36 -18
-73 -32 -83 -32 -9 0 -17 -4 -17 -10 0 -5 -7 -10 -15 -10 -8 0 -24 -4 -35 -10
-11 -5 -29 -14 -40 -20 -11 -5 -29 -10 -39 -10 -11 0 -23 -4 -26 -10 -3 -5
-17 -10 -30 -10 -13 0 -27 -5 -30 -10 -3 -5 -17 -10 -30 -10 -13 0 -27 -5 -30
-10 -3 -5 -21 -10 -40 -10 -18 0 -40 -3 -49 -6 -18 -7 -22 -34 -6 -34 6 0 23
-8 37 -17 42 -28 94 -43 146 -43 l48 0 -6 -19 c-10 -32 24 -41 149 -41 l116 0
0 -19 0 -18 53 -5 c71 -7 247 17 247 33 0 5 14 9 30 9 17 0 30 4 30 8 0 5 12
15 28 23 15 8 36 22 46 32 11 9 25 17 32 17 7 0 14 6 17 13 2 6 8 9 12 5 9 -8
-83 -100 -125 -125 -17 -9 -30 -21 -30 -25 0 -4 -7 -8 -15 -8 -16 0 -65 -39
-65 -52 0 -23 181 -1 206 25 4 4 16 7 26 7 11 0 37 18 58 40 21 22 44 40 51
40 6 0 20 10 30 22 11 11 21 19 24 16 3 -3 -8 -19 -25 -36 -37 -39 -39 -62 -6
-62 14 0 28 5 31 10 3 6 17 10 30 10 13 0 27 4 30 10 3 5 19 10 36 10 16 0 29
5 29 10 0 6 6 10 13 10 18 0 67 24 67 33 0 4 7 7 16 7 9 0 29 14 44 30 15 17
33 30 39 30 6 0 42 32 80 70 38 39 72 70 75 70 3 0 6 -9 6 -20 0 -11 4 -20 9
-20 5 0 11 -8 14 -17 8 -24 40 -77 50 -81 4 -2 7 -11 7 -21 0 -9 9 -23 20 -31
11 -8 20 -21 20 -30 0 -9 9 -22 20 -30 11 -8 20 -24 20 -35 0 -12 5 -26 10
-31 7 -7 12 -106 14 -258 l4 -247 31 -29 c17 -17 34 -30 39 -30 4 0 25 -16 46
-35 21 -19 46 -37 55 -40 10 -3 24 -18 32 -32 8 -15 26 -41 42 -57 15 -16 27
-32 27 -37 0 -4 3 -14 6 -23 4 -11 1 -16 -10 -16 -9 0 -16 -4 -16 -10 0 -5 -9
-10 -20 -10 -11 0 -20 -4 -20 -10 0 -5 -9 -10 -20 -10 -11 0 -20 -4 -20 -10 0
-5 -7 -10 -15 -10 -12 0 -57 -23 -114 -59 l-15 -9 16 -23 c36 -55 55 -69 91
-69 20 0 39 5 42 10 4 6 59 10 132 10 69 0 143 5 164 12 l39 11 0 32 c0 17 -9
41 -20 53 -11 12 -20 28 -20 37 0 8 -4 15 -10 15 -5 0 -10 9 -10 20 0 11 -4
20 -10 20 -5 0 -10 10 -10 23 0 26 -21 77 -32 77 -5 0 -8 10 -8 23 0 12 -9 33
-20 47 -11 14 -20 35 -20 48 0 12 -4 22 -10 22 -5 0 -10 7 -10 16 0 9 -8 24
-18 33 -9 9 -23 28 -31 43 -8 16 -21 28 -28 28 -29 0 -63 48 -63 88 0 21 4 42
9 48 6 5 11 40 13 79 l3 70 18 3 c13 3 17 -3 17 -27 0 -16 5 -33 10 -36 6 -3
10 -14 10 -23 0 -10 9 -24 20 -32 11 -8 20 -22 20 -32 0 -10 5 -18 10 -18 6 0
10 -13 10 -30 0 -16 5 -30 10 -30 6 0 10 -8 10 -17 0 -10 9 -33 20 -51 l20
-32 36 0 c19 0 44 5 55 11 15 7 24 7 34 -1 10 -8 15 -8 20 0 4 7 16 9 27 7 60
-16 64 34 8 92 -22 22 -40 46 -40 52 0 7 -8 19 -17 28 -22 20 -46 61 -40 68 6
5 84 -15 109 -28 10 -5 29 -9 42 -9 14 0 28 -4 31 -10 3 -5 15 -10 26 -10 10
0 27 -4 37 -9 9 -5 45 -14 79 -20 l63 -12 25 17 25 16 0 44 c0 24 -4 44 -10
44 -5 0 -10 7 -10 17 0 17 -164 183 -181 183 -5 0 -27 18 -48 40 -21 22 -42
40 -48 40 -6 0 -24 14 -41 30 -18 17 -38 30 -45 30 -7 0 -19 9 -27 20 -8 11
-20 20 -27 20 -7 0 -36 23 -64 50 -28 28 -55 50 -61 50 -5 0 -27 18 -48 40
-21 22 -43 40 -49 40 -11 0 -121 103 -121 113 0 10 45 8 56 -2 5 -5 52 -13
105 -17 l97 -7 32 17 c18 9 39 16 47 16 21 0 46 28 39 45 -4 11 -23 15 -75 15
-38 0 -73 5 -76 10 -3 6 -15 10 -26 10 -10 0 -19 5 -19 11 0 7 16 9 48 4 115
-16 197 -16 232 -1 45 19 80 49 80 70 l0 16 -78 0 c-83 0 -142 19 -142 46 0
16 12 18 26 4 16 -16 246 -18 252 -2 2 6 10 12 19 12 19 0 43 24 43 44 l0 16
-69 0 c-39 0 -73 5 -76 10 -3 6 -17 10 -31 10 -13 0 -24 5 -24 10 0 6 -9 10
-20 10 -11 0 -20 4 -20 9 0 4 55 8 123 7 117 -1 217 16 217 36 0 4 9 8 20 8
11 0 20 3 20 8 0 4 14 13 30 20 34 15 40 32 11 32 -11 0 -23 5 -26 10 -3 6
-21 10 -39 10 -39 0 -67 24 -40 34 8 3 37 6 63 6 33 0 54 6 69 20 12 11 30 20
40 20 10 0 27 8 38 18 10 10 27 21 37 25 9 3 17 11 17 18 0 6 13 24 30 39 17
15 30 35 30 43 0 9 5 19 10 22 16 10 12 45 -6 52 -8 3 -20 1 -27 -6 -6 -6 -23
-11 -38 -11 -15 0 -31 -4 -34 -10 -3 -5 -28 -10 -55 -10 -27 0 -52 -4 -55 -10
-3 -5 -22 -10 -41 -10 -19 0 -34 -4 -34 -10 0 -5 -18 -10 -40 -10 -22 0 -40
-4 -40 -10 0 -5 -20 -10 -44 -10 -25 0 -48 -4 -51 -10 -3 -5 -26 -10 -50 -10
-24 0 -47 -4 -50 -10 -3 -5 -24 -10 -46 -10 -21 0 -39 -4 -39 -9 0 -5 -15 -11
-32 -14 -116 -19 -169 -28 -213 -38 -27 -6 -69 -13 -92 -16 -24 -3 -43 -9 -43
-14 0 -5 -13 -9 -29 -9 -17 0 -33 -4 -36 -10 -3 -5 -17 -10 -30 -10 -13 0 -27
-4 -30 -10 -3 -5 -17 -10 -31 -10 -13 0 -24 -4 -24 -10 0 -5 -9 -10 -20 -10
-11 0 -20 -4 -20 -10 0 -5 -6 -10 -13 -10 -18 0 -67 -24 -67 -32 0 -5 -7 -8
-15 -8 -9 0 -25 -9 -37 -20 -12 -11 -28 -20 -35 -20 -7 0 -13 -4 -13 -10 0 -5
-9 -10 -20 -10 l-20 0 0 35 c0 25 5 38 18 42 9 4 45 35 80 71 l62 64 0 34 c0
27 -4 34 -19 34 -11 0 -22 -6 -24 -12 -3 -7 -4 13 -3 45 1 32 -2 61 -6 63 -4
3 -8 14 -8 25 0 21 -15 26 -24 7 -5 -10 -8 -9 -13 2 -8 19 -62 70 -74 70 -5 0
-9 -11 -9 -25 0 -31 -17 -33 -22 -3 -5 38 -31 29 -88 -32z m-210 -1090 c0 -5
-5 -10 -11 -10 -5 0 -7 5 -4 10 3 6 8 10 11 10 2 0 4 -4 4 -10z m900 -180 c0
-5 9 -10 20 -10 24 0 27 -25 4 -34 -9 -3 -27 -6 -40 -6 -13 0 -24 -4 -24 -10
0 -5 -4 -10 -10 -10 -14 0 -12 54 2 68 15 15 48 16 48 2z"/>
<path d="M3130 1525 c-19 -8 -43 -17 -52 -21 -10 -3 -18 -10 -18 -15 0 -5 -6
-9 -13 -9 -17 0 -60 -47 -75 -83 -15 -34 -16 -117 -2 -117 6 0 10 -7 10 -15 0
-17 72 -93 108 -112 26 -15 152 -17 152 -3 0 6 12 10 26 10 30 0 134 97 134
124 0 9 5 16 10 16 6 0 10 27 10 60 0 33 -4 60 -8 60 -4 0 -16 14 -25 30 -10
17 -23 30 -29 30 -6 0 -18 8 -27 18 -17 20 -92 42 -138 41 -15 0 -44 -6 -63
-14z"/>
</g>
</svg>
