<?xml version="1.0" standalone="no"?>
<!DOCTYPE svg PUBLIC "-//W3C//DTD SVG 20010904//EN"
 "http://www.w3.org/TR/2001/REC-SVG-20010904/DTD/svg10.dtd">
<svg version="1.0" xmlns="http://www.w3.org/2000/svg"
 width="325.937492pt" height="281.926149pt" viewBox="0 0 325.937492 281.926149"
 preserveAspectRatio="xMidYMid meet">
<metadata>
Created by Potrace Professional 1.0m
</metadata>
<g transform="translate(-0.000000,282.000000) rotate(-360.00) scale(0.100000,-0.100000)"
fill="#000000" stroke="none">
<path d="M1644 2808 c3 -7 9 -21 12 -30 4 -10 10 -18 15 -18 5 0 9 -9 9 -19 0
-11 5 -23 10 -26 6 -3 10 -17 10 -31 0 -13 5 -24 10 -24 6 0 10 -9 10 -20 0
-11 4 -20 9 -20 11 0 20 -62 27 -177 4 -56 2 -83 -5 -83 -6 0 -11 -10 -11 -22
0 -13 -9 -34 -20 -48 -11 -14 -20 -29 -20 -34 0 -16 -148 -156 -164 -156 -9 0
-16 -4 -16 -10 0 -5 -9 -10 -20 -10 -11 0 -20 -4 -20 -10 0 -5 -13 -10 -30
-10 -16 0 -30 5 -30 10 0 6 -9 10 -20 10 -11 0 -20 4 -20 9 0 4 -26 14 -59 21
-47 10 -66 10 -97 0 -57 -19 -124 -52 -124 -62 0 -4 -7 -8 -15 -8 -18 0 -85
-64 -85 -80 0 -6 -11 -22 -25 -35 l-24 -25 -70 0 c-38 0 -73 5 -76 10 -3 6
-15 10 -26 10 -10 0 -19 5 -19 10 0 6 -7 10 -16 10 -21 0 -104 88 -104 111 0
22 -21 69 -30 69 -3 0 -13 23 -20 50 -8 30 -19 50 -28 50 l-13 0 6 -132 c4
-73 11 -137 16 -143 5 -5 9 -17 9 -27 0 -10 5 -18 10 -18 6 0 10 -7 10 -16 0
-26 127 -144 155 -144 13 0 25 -4 27 -10 2 -5 48 -10 105 -11 62 -1 106 -6
112 -13 4 -6 11 -56 14 -111 6 -102 22 -155 45 -155 18 0 42 25 42 43 0 7 12
20 26 27 14 8 33 27 42 42 l16 28 87 0 88 0 6 -19 c3 -10 17 -31 30 -47 14
-16 25 -35 25 -41 0 -7 4 -13 8 -13 5 0 15 -23 22 -50 7 -28 17 -50 22 -50 4
0 8 -9 8 -20 0 -11 5 -20 10 -20 6 0 10 -9 10 -20 0 -11 5 -20 10 -20 6 0 10
-7 10 -15 0 -8 9 -34 19 -58 23 -51 31 -85 38 -156 l5 -53 -32 7 c-63 14 -147
26 -225 32 -44 3 -82 9 -85 14 -3 4 -50 10 -104 12 l-98 5 -29 -31 c-16 -16
-29 -36 -29 -43 0 -8 -3 -14 -8 -14 -8 0 -32 -71 -32 -98 0 -10 -4 -22 -10
-28 -5 -5 -10 -26 -12 -47 -1 -21 -6 -41 -10 -43 -4 -3 -8 -14 -8 -25 0 -10
-4 -19 -10 -19 -5 0 -10 -13 -10 -29 0 -17 -5 -33 -10 -36 -6 -3 -10 -19 -10
-35 0 -16 -5 -32 -10 -35 -6 -3 -10 -13 -10 -21 0 -34 -59 -60 -75 -34 -3 6
-30 10 -59 10 -28 0 -57 5 -62 10 -7 7 -88 11 -213 12 l-201 1 -20 -23 c-11
-13 -20 -26 -20 -30 0 -19 40 -50 64 -50 l28 0 -7 -30 -7 -30 20 0 c10 0 33
-14 50 -30 l32 -30 55 0 c30 0 55 5 55 10 0 6 51 10 133 10 l133 0 42 -20 c22
-11 47 -20 55 -20 8 0 22 -9 32 -20 10 -11 28 -20 40 -20 23 0 65 41 65 65 l0
15 130 0 c80 0 130 4 130 10 0 6 14 10 30 10 17 0 30 5 30 10 0 6 8 10 18 10
10 0 37 20 60 45 40 43 54 75 32 75 -5 0 -10 -4 -10 -10 0 -5 -9 -10 -20 -10
-11 0 -20 -4 -20 -10 0 -5 -11 -10 -24 -10 -14 0 -28 -4 -31 -10 -8 -13 -205
-13 -205 0 0 6 -7 10 -16 10 -28 0 -48 29 -36 53 11 22 19 56 29 114 3 18 9
33 14 33 5 0 9 23 9 50 0 33 4 50 13 51 31 4 102 -4 107 -11 3 -4 41 -13 85
-20 44 -6 96 -16 116 -21 20 -5 55 -9 78 -9 63 0 136 -18 205 -51 32 -15 96
-74 96 -88 0 -5 18 -27 40 -50 22 -22 40 -46 40 -51 0 -6 9 -20 20 -32 11 -12
20 -28 20 -35 0 -7 4 -13 9 -13 5 0 20 -22 32 -50 12 -27 26 -50 31 -50 4 0 8
-6 8 -14 0 -7 14 -28 31 -46 l32 -33 86 7 c47 4 88 12 89 17 2 5 17 9 32 9 16
0 32 5 35 10 3 6 17 10 31 10 13 0 24 5 24 10 0 6 9 10 20 10 11 0 20 5 20 10
0 6 14 10 30 10 17 0 30 5 30 10 0 6 9 10 20 10 l20 0 0 -79 c0 -44 -4 -83
-10 -86 -5 -3 -10 -24 -10 -45 0 -21 -4 -42 -10 -45 -14 -9 -12 -34 4 -51 20
-20 36 -18 58 8 l19 22 15 -22 c19 -28 50 -28 57 -2 4 16 12 20 39 18 l33 -3
-2 145 c-1 156 -10 240 -24 240 -5 0 -9 14 -9 32 0 18 -10 54 -22 80 -22 45
-43 58 -63 39 -6 -4 -25 -11 -42 -14 l-33 -6 0 24 c0 14 -4 25 -9 25 -5 0 -11
17 -14 38 -11 71 -19 102 -28 102 -5 0 -9 9 -9 19 0 11 -4 23 -10 26 -5 3 -10
15 -10 25 0 20 -58 90 -74 90 -4 0 -5 -17 -1 -37 16 -83 5 -300 -18 -355 l-12
-28 -73 0 -73 0 -6 18 c-4 9 -15 26 -25 36 -10 11 -18 26 -18 33 0 7 -9 28
-20 48 -11 20 -20 43 -20 51 0 9 -9 28 -19 43 -18 25 -26 66 -22 124 l1 27 30
0 c17 0 30 5 30 10 0 6 20 10 44 10 24 0 61 9 83 19 21 11 55 27 76 36 20 9
47 26 60 38 12 12 34 28 49 36 35 18 128 116 128 135 0 8 3 16 8 18 16 7 51
97 61 159 6 36 11 123 11 192 0 78 4 127 10 127 6 0 10 9 10 20 0 11 5 20 10
20 6 0 10 9 10 20 0 11 4 20 8 20 5 0 15 12 23 27 22 42 70 87 110 101 54 18
59 16 59 -28 0 -22 -4 -40 -10 -40 -5 0 -10 -13 -10 -30 0 -16 -4 -30 -10 -30
-5 0 -10 -18 -10 -40 0 -22 2 -40 5 -40 2 0 26 21 52 46 27 25 64 58 83 73 19
14 47 38 62 53 14 16 31 28 38 28 6 0 25 13 43 30 18 16 38 30 45 30 6 0 12 5
12 10 0 6 7 10 15 10 9 0 25 9 37 20 12 11 28 20 35 20 18 0 16 10 -4 26 -10
7 -37 14 -61 14 -46 0 -122 20 -122 32 0 5 -13 8 -30 8 -16 0 -30 4 -30 9 0 5
-13 11 -29 14 -18 4 -57 33 -97 72 -38 37 -71 62 -76 57 -10 -10 19 -140 33
-156 5 -6 9 -22 9 -37 0 -15 5 -31 10 -34 6 -3 10 -10 10 -14 0 -8 -60 -31
-83 -31 -9 0 -17 -4 -17 -10 0 -5 -8 -10 -17 -10 -19 0 -143 -127 -143 -147 0
-7 -4 -13 -10 -13 -5 0 -10 -13 -10 -29 0 -17 -4 -33 -10 -36 -5 -3 -10 -19
-10 -35 0 -16 -4 -32 -10 -35 -6 -3 -10 -50 -10 -105 0 -55 -4 -102 -10 -105
-5 -3 -10 -19 -10 -36 0 -16 -4 -37 -9 -47 -5 -9 -21 -43 -36 -76 -26 -54
-142 -186 -164 -186 -5 0 -16 -6 -23 -13 -7 -6 -24 -17 -38 -23 -14 -6 -45
-21 -68 -33 -27 -13 -63 -21 -93 -21 l-49 0 0 24 c0 14 -4 28 -10 31 -5 3 -10
14 -10 25 0 10 -13 44 -30 75 -16 31 -30 63 -30 71 0 8 -4 14 -10 14 -5 0 -10
9 -10 20 0 11 -4 20 -10 20 -5 0 -10 9 -10 20 0 11 -4 20 -10 20 -5 0 -10 13
-10 28 0 16 -8 34 -20 42 -11 8 -20 22 -20 32 0 10 -4 18 -10 18 -5 0 -10 9
-10 20 0 11 -4 20 -10 20 -5 0 -10 12 -10 28 l0 27 40 13 c81 25 103 15 168
-80 18 -26 32 -51 32 -57 0 -6 5 -11 10 -11 6 0 10 -20 10 -44 0 -25 -4 -48
-10 -51 -5 -3 -10 -19 -10 -36 0 -16 -4 -29 -10 -29 -20 0 -10 -51 15 -76 l25
-25 15 15 c8 8 15 31 15 50 0 43 11 46 31 9 8 -16 24 -38 37 -51 l22 -23 15
15 c17 16 20 66 5 66 -5 0 -10 14 -10 30 0 35 4 37 32 10 26 -24 64 -26 72 -4
9 22 9 21 -25 54 l-32 30 67 0 67 0 -3 27 c-2 19 -10 29 -23 31 -33 5 -75 24
-75 33 0 5 12 9 26 9 30 0 54 21 54 49 0 23 -37 38 -53 22 -6 -6 -24 -11 -39
-11 -15 0 -28 -4 -28 -10 0 -14 -29 -12 -43 3 -11 12 -23 32 -51 82 -6 11 -18
27 -26 35 -8 8 -26 35 -39 60 -13 25 -28 51 -34 58 -12 15 -158 17 -187 2 -11
-5 -29 -14 -40 -20 -11 -5 -28 -10 -38 -10 -10 0 -22 -4 -28 -9 -5 -5 -28 -12
-51 -16 l-41 -6 -51 53 c-28 29 -51 57 -51 62 0 5 -9 17 -20 26 -12 10 -25 32
-30 48 l-8 31 24 15 c13 9 30 16 39 16 8 0 15 5 15 10 0 6 9 10 20 10 11 0 20
5 20 10 0 6 6 10 14 10 19 0 146 125 146 144 0 9 5 16 10 16 6 0 10 7 10 15 0
8 5 24 10 35 6 11 14 28 18 38 5 9 14 26 19 37 29 54 48 335 23 335 -5 0 -10
9 -10 20 0 11 -4 20 -10 20 -5 0 -10 8 -10 18 0 10 -9 24 -20 32 -11 8 -20 20
-20 27 0 19 -147 163 -166 163 -9 0 -13 -5 -10 -12z"/>
<path d="M256 1411 c-4 -6 -20 -11 -35 -11 -30 0 -81 -20 -81 -32 0 -5 -8 -8
-18 -8 -10 0 -25 -12 -34 -27 -9 -16 -26 -39 -38 -53 -12 -14 -24 -37 -27 -52
-3 -16 -9 -28 -14 -28 -5 0 -9 -31 -9 -70 0 -40 4 -70 10 -70 6 0 10 -9 10
-19 0 -11 4 -23 10 -26 5 -3 10 -17 10 -31 0 -13 5 -24 10 -24 6 0 10 -7 10
-15 0 -20 70 -85 91 -85 10 0 21 -4 24 -10 3 -5 19 -10 35 -10 16 0 32 -4 35
-10 3 -5 24 -10 45 -10 21 0 42 5 45 10 3 6 19 10 35 10 39 0 91 30 145 85 29
28 45 53 45 69 0 13 6 26 13 29 16 5 13 162 -5 214 -13 38 -88 123 -108 123
-6 0 -20 9 -31 19 -12 11 -41 21 -67 24 -26 3 -59 8 -73 12 -16 4 -29 2 -33
-4z"/>
</g>
</svg>
