<?xml version="1.0" standalone="no"?>
<!DOCTYPE svg PUBLIC "-//W3C//DTD SVG 20010904//EN"
 "http://www.w3.org/TR/2001/REC-SVG-20010904/DTD/svg10.dtd">
<svg version="1.0" xmlns="http://www.w3.org/2000/svg"
 width="837.898412pt" height="232.433290pt" viewBox="0 0 837.898412 232.433290"
 preserveAspectRatio="xMidYMid meet">
<metadata>
Created by Potrace Professional 1.0m
</metadata>
<g transform="translate(-0.101588,233.975943) rotate(-360.00) scale(0.100000,-0.100000)"
fill="#000000" stroke="none">
<path d="M240 2330 c0 -5 -7 -10 -15 -10 -41 0 -119 -73 -129 -121 -15 -69
-18 -139 -7 -139 6 0 11 -6 11 -13 0 -28 26 -68 53 -80 15 -6 27 -15 27 -19 0
-5 12 -8 26 -8 27 0 60 -25 45 -34 -10 -6 -8 -66 2 -83 3 -5 6 -126 7 -269 1
-142 6 -277 12 -298 7 -28 6 -61 -6 -120 -22 -123 -28 -196 -15 -196 8 0 9
-23 5 -78 -3 -42 -9 -116 -12 -164 l-6 -87 15 -16 c9 -8 23 -15 31 -15 20 0
20 -3 -4 -52 -11 -23 -20 -48 -20 -55 0 -7 -3 -13 -8 -13 -9 0 -32 -95 -32
-133 0 -15 -5 -37 -12 -50 -24 -48 -28 -57 -28 -77 0 -11 -4 -20 -10 -20 -5 0
-10 -7 -10 -16 0 -31 -53 -62 -115 -66 l-40 -3 -3 -23 c-6 -40 18 -50 123 -55
54 -2 107 -2 117 1 l18 4 -2 55 c-1 31 2 57 9 61 19 12 53 81 53 108 0 14 9
34 19 45 11 12 22 37 26 57 9 55 15 72 26 72 5 0 9 -8 9 -18 0 -10 9 -24 20
-32 11 -8 20 -20 20 -28 0 -7 32 -44 70 -82 39 -38 70 -76 70 -84 0 -8 4 -16
9 -18 5 -1 13 -15 16 -31 l7 -27 -26 0 c-14 0 -26 -4 -26 -10 0 -5 -9 -10 -20
-10 -13 0 -20 -7 -20 -18 0 -31 22 -42 84 -42 71 0 156 34 156 63 0 9 -4 17
-10 17 -5 0 -10 6 -10 13 -1 6 -14 28 -30 47 -17 19 -30 45 -30 57 0 13 -4 23
-10 23 -5 0 -10 7 -10 15 0 8 -13 29 -30 47 -16 17 -30 35 -30 40 0 5 -9 18
-20 30 -13 15 -20 36 -20 64 0 24 -4 46 -10 49 -18 11 -12 86 8 104 10 9 21
23 24 32 5 13 19 17 57 17 32 0 56 5 66 15 17 18 20 53 5 62 -5 3 -10 17 -10
30 0 13 -4 27 -10 30 -5 3 -10 28 -10 56 0 27 -4 57 -9 67 -5 9 -15 45 -22 80
-6 34 -16 62 -20 62 -5 0 -9 9 -9 19 0 11 -4 23 -10 26 -5 3 -10 18 -10 33 0
30 -39 82 -63 82 -12 0 -27 19 -27 35 0 2 12 16 28 32 l27 27 0 66 0 65 -35
38 -35 37 -51 0 -50 0 -29 -30 c-16 -16 -32 -30 -37 -30 -4 0 -8 78 -8 173 0
125 -3 177 -12 186 -10 11 -10 14 0 18 8 3 12 26 12 64 l0 59 30 0 c17 0 30 5
30 10 0 6 6 10 14 10 23 0 86 70 86 96 0 13 5 24 10 24 6 0 10 15 10 34 0 19
-4 38 -10 41 -5 3 -10 23 -10 43 0 26 -6 42 -20 52 -11 8 -20 20 -20 27 0 7
-17 19 -37 28 -21 9 -46 21 -55 26 -24 12 -108 12 -108 -1z m40 -60 c0 -5 -9
-10 -20 -10 -11 0 -20 -4 -20 -10 0 -5 -4 -10 -10 -10 -5 0 -10 9 -10 20 0 16
7 20 30 20 17 0 30 -4 30 -10z m147 -45 c25 -26 0 -42 -75 -47 -79 -6 -92 -2
-92 23 0 13 7 19 24 19 14 0 28 5 31 10 10 16 94 12 112 -5z m-232 -32 c11
-14 32 -42 48 -61 33 -42 36 -72 6 -72 -47 0 -110 99 -93 145 9 21 16 19 39
-12z m168 -66 c11 -28 -12 -105 -40 -134 -16 -18 -23 -16 -23 7 0 11 5 20 10
20 6 0 10 20 10 45 0 56 29 98 43 62z m81 -35 c-4 -18 -10 -32 -15 -32 -11 0
-12 63 -2 74 13 13 23 -11 17 -42z m-104 -862 c0 -5 -4 -10 -10 -10 -5 0 -10
5 -10 10 0 6 5 10 10 10 6 0 10 -4 10 -10z m20 -29 c0 -6 -4 -13 -10 -16 -5
-3 -10 1 -10 9 0 9 5 16 10 16 6 0 10 -4 10 -9z m200 -327 c0 -14 -4 -23 -10
-19 -5 3 -10 15 -10 26 0 10 5 19 10 19 6 0 10 -12 10 -26z"/>
<path d="M4260 1570 c0 -5 -6 -10 -14 -10 -18 0 -86 -68 -86 -86 0 -8 -4 -14
-8 -14 -5 0 -15 -11 -22 -25 l-14 -25 32 -27 c25 -20 32 -34 32 -60 0 -19 7
-41 15 -49 8 -9 15 -19 15 -24 0 -12 -118 -130 -130 -130 -5 0 -25 -9 -45 -20
-20 -11 -43 -20 -53 -20 -19 0 -49 -53 -32 -58 5 -2 10 -11 10 -21 0 -9 9 -23
20 -31 11 -8 20 -19 20 -26 0 -19 35 -44 63 -44 14 0 29 -5 33 -11 11 -19 4
-163 -9 -172 -9 -7 -9 -10 1 -14 6 -2 12 -13 12 -24 0 -12 7 -19 20 -19 13 0
20 -7 20 -20 0 -11 -4 -20 -10 -20 -5 0 -10 -9 -10 -20 0 -11 -4 -20 -10 -20
-5 0 -10 -6 -10 -13 0 -18 -24 -67 -32 -67 -5 0 -8 -29 -8 -64 0 -36 -4 -68
-10 -71 -5 -3 -10 -19 -10 -35 0 -16 -4 -32 -10 -35 -5 -3 -10 -17 -10 -31 0
-13 -4 -24 -10 -24 -5 0 -10 -8 -10 -18 0 -28 -46 -62 -83 -62 -62 0 -79 -49
-24 -70 17 -6 40 -16 49 -21 35 -18 91 -10 138 19 2 1 5 13 6 25 2 33 15 67
25 67 5 0 9 14 9 30 0 17 3 30 8 30 11 0 32 51 32 77 0 13 5 23 10 23 6 0 10
9 10 20 0 11 5 20 10 20 6 0 10 9 10 19 0 11 5 23 10 26 6 3 10 13 10 22 0 17
37 73 48 73 4 0 14 -21 22 -47 7 -26 22 -56 32 -67 10 -11 18 -27 18 -36 0
-17 30 -50 44 -50 13 0 36 -28 36 -44 0 -9 5 -16 10 -16 6 0 10 -9 10 -20 0
-11 5 -20 10 -20 6 0 10 -9 10 -20 0 -11 5 -20 12 -20 6 0 4 -8 -7 -19 -10
-12 -33 -21 -59 -23 l-41 -3 -3 -26 -3 -27 26 -6 c14 -4 30 -4 35 -1 5 3 11 1
15 -5 14 -22 101 -1 142 34 31 27 29 60 -7 98 -16 17 -30 42 -30 54 0 13 -4
24 -10 24 -5 0 -10 7 -10 15 0 15 -19 55 -31 65 -3 3 -9 17 -12 32 -4 15 -13
33 -20 40 -20 21 -37 90 -37 155 l0 60 21 19 21 19 -6 40 c-3 22 -9 65 -12 95
-4 30 -11 58 -17 62 -13 8 -12 91 2 115 l10 18 1 -17 c0 -10 5 -18 10 -18 6 0
10 -37 10 -90 0 -53 4 -90 10 -90 6 0 10 -7 10 -16 0 -38 57 -58 86 -30 16 17
20 146 4 146 -5 0 -10 18 -10 40 0 22 -4 40 -10 40 -5 0 -10 10 -10 21 0 31
-21 98 -42 137 -10 18 -18 38 -18 44 0 6 -18 29 -41 50 l-41 39 18 14 c11 8
22 15 27 15 4 0 21 14 39 30 17 17 37 30 44 30 8 0 14 5 14 10 0 6 8 10 18 10
10 0 24 9 32 20 8 11 22 20 32 20 9 0 23 8 30 18 7 10 21 21 31 25 25 9 23 57
-3 57 -11 0 -20 -4 -20 -10 0 -5 -6 -10 -12 -10 -7 0 -26 -12 -43 -26 -16 -14
-42 -33 -57 -42 -16 -9 -28 -20 -28 -24 0 -4 -6 -8 -12 -8 -7 0 -24 -9 -38
-20 -40 -31 -50 -26 -50 29 0 28 -4 53 -10 56 -5 3 -10 17 -10 31 0 13 -4 24
-10 24 -5 0 -10 7 -10 16 0 9 -9 18 -20 21 -11 3 -20 9 -20 14 0 5 -18 9 -40
9 -22 0 -40 -4 -40 -10z m-160 -520 c0 -5 -4 -10 -10 -10 -5 0 -10 5 -10 10 0
6 5 10 10 10 6 0 10 -4 10 -10z"/>
<path d="M6166 1567 c-28 -17 -78 -67 -103 -103 l-22 -31 12 -27 c7 -14 20
-26 30 -26 12 0 17 -8 17 -30 0 -16 3 -30 8 -30 4 0 12 -12 19 -26 l12 -26
-24 -24 c-13 -13 -28 -24 -32 -24 -4 0 -22 -14 -40 -30 -18 -17 -39 -30 -47
-30 -9 0 -16 -4 -16 -8 0 -5 -12 -15 -27 -23 -39 -20 -53 -35 -53 -56 0 -24
62 -93 84 -93 9 0 16 -8 16 -20 0 -11 6 -20 14 -20 8 0 16 -6 19 -14 6 -16
-13 -66 -25 -66 -5 0 -8 -10 -8 -23 0 -13 -4 -27 -9 -33 -5 -5 -12 -39 -16
-75 l-6 -67 25 -25 c25 -25 35 -57 18 -57 -4 0 -13 -15 -20 -33 -7 -17 -18
-40 -23 -49 -5 -10 -9 -49 -9 -87 0 -39 -4 -73 -10 -76 -5 -3 -10 -17 -10 -31
0 -13 -4 -24 -10 -24 -5 0 -10 -9 -10 -20 0 -11 -4 -20 -10 -20 -5 0 -10 -8
-10 -18 0 -28 -21 -42 -61 -42 -75 0 -75 -64 1 -88 22 -6 71 -12 110 -12 l70
0 0 24 c0 14 -4 28 -10 31 -16 10 -12 42 10 77 11 18 20 41 20 51 0 9 5 17 10
17 6 0 10 13 10 29 0 17 5 33 10 36 6 3 10 16 10 28 1 29 30 66 55 68 47 5 65
-1 65 -21 0 -11 5 -20 10 -20 6 0 10 -6 10 -14 0 -8 27 -42 60 -75 33 -34 60
-66 60 -71 0 -6 5 -19 12 -30 l12 -19 -29 -26 c-17 -14 -36 -25 -42 -25 -17 0
-16 -35 1 -49 19 -16 173 -16 192 -1 15 13 20 70 5 70 -5 0 -14 14 -21 30 -7
17 -16 30 -21 30 -4 0 -14 18 -20 40 -7 22 -16 40 -21 40 -4 0 -8 7 -8 16 0 9
-8 24 -17 33 -65 59 -85 103 -99 213 -6 47 8 78 36 78 25 0 42 30 36 63 -3 18
-9 50 -12 72 -4 22 -10 42 -13 45 -26 22 -42 100 -21 100 6 0 10 14 10 30 0
17 4 30 9 30 10 0 18 -37 26 -130 9 -90 20 -110 62 -110 19 0 41 7 49 15 18
18 22 131 5 148 -6 6 -11 26 -11 44 0 18 -4 33 -10 33 -5 0 -10 7 -10 15 0 8
-4 23 -9 33 -5 9 -15 38 -23 65 -7 26 -16 47 -20 47 -4 0 -8 13 -8 28 0 16 -8
34 -20 42 -11 8 -20 20 -20 27 0 7 -4 13 -10 13 -21 0 -9 27 18 41 15 8 41 26
57 41 17 16 36 28 43 28 6 0 12 3 12 8 0 4 18 18 40 32 22 14 40 28 40 32 0 5
6 8 13 8 13 0 87 63 87 74 0 19 -55 -2 -94 -36 -11 -10 -26 -18 -33 -18 -7 0
-13 -4 -13 -10 0 -5 -9 -10 -20 -10 -11 0 -20 -4 -20 -10 0 -5 -8 -10 -18 -10
-10 0 -24 -9 -32 -20 -8 -11 -22 -20 -32 -20 -10 0 -18 -4 -18 -10 0 -20 -21
-9 -30 16 -6 16 -7 32 0 43 10 19 -7 91 -22 91 -4 0 -8 7 -8 16 0 9 -8 23 -17
30 -22 16 -91 17 -117 1z"/>
<path d="M7080 1570 c0 -5 -6 -10 -12 -10 -7 0 -25 -11 -40 -24 l-28 -23 -50
5 -50 5 0 -17 c0 -23 22 -43 51 -48 19 -2 24 -9 25 -33 1 -16 3 -63 5 -104 l3
-73 -20 -17 c-11 -9 -29 -29 -38 -44 -10 -15 -23 -27 -28 -27 -6 0 -23 -13
-38 -30 -15 -16 -35 -30 -44 -30 -9 0 -16 -8 -16 -20 0 -11 -4 -20 -10 -20
-22 0 -7 -37 30 -75 26 -26 40 -49 40 -67 0 -26 38 -110 53 -116 4 -2 7 -17 7
-33 0 -16 5 -29 10 -29 12 0 13 -54 1 -78 -35 -70 -61 -136 -67 -168 -3 -22
-10 -44 -15 -49 -4 -6 -7 -34 -7 -63 1 -29 -4 -58 -10 -64 -7 -7 -12 -22 -12
-34 0 -13 -4 -26 -10 -29 -5 -3 -10 -16 -10 -29 0 -29 -18 -46 -48 -46 -25 0
-52 -21 -52 -40 0 -17 26 -40 44 -40 9 0 16 -4 16 -10 0 -15 135 -13 147 3 6
6 11 34 11 61 0 26 5 53 11 59 6 6 11 23 11 38 0 15 5 31 10 34 6 3 10 22 10
41 0 19 5 34 10 34 6 0 10 18 10 40 0 22 5 40 10 40 6 0 10 6 10 14 0 16 42
46 65 46 8 0 15 -9 15 -20 0 -11 5 -20 10 -20 6 0 10 -9 10 -20 0 -11 5 -20
10 -20 6 0 10 -9 10 -20 0 -11 5 -20 10 -20 6 0 10 -7 10 -15 0 -9 9 -25 20
-37 11 -12 20 -28 20 -35 0 -7 5 -13 10 -13 6 0 10 -7 10 -15 0 -9 9 -25 20
-37 24 -26 27 -68 5 -68 -9 0 -28 -11 -43 -25 l-26 -25 19 -14 c23 -17 81 -21
90 -6 3 6 17 10 31 10 13 0 24 5 24 10 0 6 9 10 19 10 10 0 21 6 23 13 7 19
-3 87 -13 87 -5 0 -9 9 -9 20 0 11 -4 20 -10 20 -5 0 -10 9 -10 19 0 11 -4 23
-10 26 -5 3 -10 17 -10 31 0 13 -4 24 -10 24 -5 0 -10 7 -10 15 0 9 -9 25 -20
37 -11 12 -20 28 -20 35 0 7 -4 13 -10 13 -5 0 -10 9 -10 20 0 11 -4 20 -10
20 -5 0 -10 18 -10 39 0 22 -4 43 -10 46 -5 3 -10 30 -10 60 0 30 5 57 10 60
6 4 10 58 10 131 0 76 -4 124 -10 124 -13 0 -13 23 2 55 25 56 37 16 47 -162
l6 -122 20 -15 c11 -9 32 -16 48 -16 l27 0 0 79 c0 48 -4 83 -11 87 -7 4 -9
27 -6 63 5 56 -18 171 -35 171 -4 0 -8 9 -8 20 0 11 -4 20 -10 20 -5 0 -10 11
-10 25 0 27 -32 66 -63 78 -29 11 -19 41 23 73 22 16 40 32 40 37 0 4 6 7 13
7 6 0 37 23 66 50 30 28 61 50 68 50 7 0 13 5 13 10 0 6 6 10 13 10 16 0 47
32 47 48 0 13 -36 17 -42 4 -4 -12 -95 -72 -107 -72 -6 0 -11 -4 -11 -10 0 -5
-8 -10 -18 -10 -10 0 -24 -9 -32 -20 -18 -26 -34 -25 -65 2 l-25 22 0 54 0 54
-20 5 c-11 3 -20 9 -20 14 0 5 -13 9 -30 9 -16 0 -30 -4 -30 -10z m100 -220
c0 -5 -4 -10 -10 -10 -5 0 -10 5 -10 10 0 6 5 10 10 10 6 0 10 -4 10 -10z"/>
<path d="M7826 1534 c-25 -25 -46 -52 -46 -59 0 -7 -5 -15 -12 -17 -16 -6 15
-73 37 -82 10 -3 15 -19 15 -46 0 -26 5 -43 14 -46 8 -3 17 -12 20 -20 7 -18
-21 -64 -38 -64 -6 0 -18 -9 -26 -20 -8 -11 -21 -20 -29 -20 -7 0 -21 -8 -30
-18 -9 -10 -33 -26 -53 -35 l-38 -18 0 -44 c0 -25 5 -45 10 -45 6 0 10 -7 10
-16 0 -19 24 -44 43 -44 19 0 27 -21 27 -69 0 -20 7 -46 15 -57 18 -24 19 -68
3 -94 -10 -16 -10 -24 0 -40 17 -27 15 -44 -8 -85 -11 -20 -20 -46 -20 -58 0
-13 -4 -27 -9 -32 -5 -6 -12 -55 -14 -110 -6 -115 -15 -175 -28 -175 -5 0 -9
-9 -9 -20 0 -19 -10 -24 -38 -21 -19 3 -72 -22 -72 -34 0 -11 23 -32 58 -52
12 -7 47 -13 77 -13 l55 0 0 53 c0 36 6 60 20 77 14 18 20 41 20 83 l0 58 40
38 c22 21 40 41 40 45 0 17 42 66 56 66 19 0 44 -24 44 -42 0 -8 9 -20 20 -28
11 -8 20 -22 20 -32 0 -10 5 -18 10 -18 6 0 10 -7 10 -15 0 -9 21 -37 48 -64
26 -26 53 -59 61 -74 8 -15 18 -27 23 -27 12 0 10 -34 -4 -48 -7 -7 -18 -12
-26 -12 -21 0 -43 -27 -36 -44 5 -12 21 -16 65 -16 l58 0 36 32 c21 20 35 42
35 56 0 24 -21 52 -39 52 -5 0 -17 15 -26 34 -9 18 -25 43 -35 54 -11 12 -20
26 -20 32 0 6 -7 18 -15 27 -9 8 -19 28 -22 44 -3 16 -9 29 -14 29 -5 0 -9 14
-9 30 0 17 -4 30 -10 30 -5 0 -10 14 -10 30 0 17 -4 30 -9 30 -10 0 -21 48
-14 66 2 7 13 14 24 17 l19 5 0 60 c0 33 -7 72 -16 90 -8 18 -13 36 -9 42 3 5
-3 20 -14 32 -22 22 -29 68 -11 68 6 0 10 9 10 20 0 11 5 20 10 20 6 0 10 -17
10 -38 0 -21 3 -42 7 -46 4 -4 13 -39 20 -78 6 -39 18 -77 26 -85 l14 -15 24
14 c13 7 29 18 36 25 15 14 17 49 3 58 -5 3 -10 28 -10 56 0 27 -4 49 -9 49
-4 0 -11 19 -15 43 -15 101 -19 117 -26 117 -4 0 -10 12 -13 28 -3 15 -17 41
-31 57 -14 17 -26 35 -26 40 0 6 -9 17 -20 25 -35 26 -19 55 53 98 15 9 27 20
27 24 0 4 9 8 20 8 11 0 20 5 20 10 0 6 9 10 19 10 10 0 21 6 24 14 3 8 18 20
34 28 78 39 123 77 123 103 0 21 -27 19 -52 -5 -12 -11 -28 -20 -35 -20 -7 0
-13 -4 -13 -9 0 -5 -24 -21 -54 -35 -30 -15 -59 -33 -66 -41 -7 -8 -19 -15
-26 -15 -8 0 -14 -4 -14 -9 0 -5 -8 -11 -17 -15 -10 -3 -24 -9 -30 -12 -9 -4
-13 6 -13 35 0 22 -4 43 -10 46 -5 3 -10 22 -10 41 0 19 -4 34 -10 34 -5 0
-10 6 -10 14 0 24 -47 46 -99 46 l-49 0 -46 -46z"/>
<path d="M2340 1551 c0 -5 -13 -11 -29 -14 -33 -7 -76 -46 -86 -77 -3 -11 -11
-20 -16 -20 -5 0 -9 -13 -9 -30 0 -16 4 -30 9 -30 21 0 41 -32 35 -55 -3 -13
1 -33 10 -47 17 -27 13 -38 -16 -38 -10 0 -18 -3 -18 -8 0 -4 -18 -18 -40 -32
-22 -14 -40 -28 -40 -32 0 -5 -7 -8 -15 -8 -9 0 -25 -9 -37 -20 -12 -11 -28
-20 -35 -20 -7 0 -13 -4 -13 -9 0 -5 -9 -11 -20 -14 -20 -5 -29 -37 -10 -37 6
0 10 -7 10 -16 0 -22 89 -104 112 -104 11 0 26 -7 35 -16 15 -15 15 -34 -3
-147 -7 -41 7 -79 38 -108 20 -18 24 -54 8 -64 -5 -3 -10 -15 -10 -26 0 -10
-4 -19 -10 -19 -5 0 -10 -10 -10 -22 0 -28 -22 -91 -35 -100 -7 -5 -6 -14 3
-28 14 -24 16 -110 2 -110 -5 0 -10 -9 -10 -20 0 -11 -4 -20 -10 -20 -5 0 -10
-11 -10 -24 0 -13 -15 -40 -33 -60 l-33 -36 -47 0 -47 0 0 -27 c0 -21 7 -31
27 -40 15 -7 33 -13 40 -13 7 0 13 -4 13 -10 0 -13 87 -13 95 0 3 6 15 10 26
10 18 0 24 14 21 50 -2 19 35 93 59 119 13 14 19 35 19 65 0 25 5 48 10 51 6
3 10 15 10 25 0 11 5 31 12 45 9 20 18 25 37 23 l26 -3 3 -32 c3 -31 61 -103
84 -103 16 0 38 -27 38 -47 0 -11 9 -29 20 -41 11 -12 20 -26 20 -32 0 -14
-25 -40 -39 -40 -23 0 -61 -24 -61 -39 0 -9 12 -22 27 -28 31 -15 125 -17 139
-4 5 5 23 11 39 13 22 2 31 9 33 25 3 21 -31 83 -50 91 -4 2 -8 17 -8 33 0 16
-4 29 -10 29 -5 0 -10 9 -10 20 0 11 -4 20 -10 20 -5 0 -10 11 -10 24 0 14
-16 40 -40 65 l-40 41 0 53 c0 29 -5 80 -11 112 -6 32 -7 61 -2 64 29 20 53
73 53 115 0 25 -4 46 -10 46 -6 0 -10 30 -10 70 0 39 4 70 8 70 11 0 32 -61
32 -93 0 -14 5 -29 10 -32 6 -3 10 -25 10 -49 0 -33 6 -47 25 -64 l26 -22 24
24 c19 19 25 36 25 70 0 25 -4 48 -10 51 -5 3 -10 30 -10 60 0 30 -4 57 -10
60 -5 3 -10 22 -10 41 0 19 -4 34 -10 34 -5 0 -10 9 -10 19 0 11 -4 23 -10 26
-5 3 -10 17 -10 31 0 13 -4 24 -10 24 -5 0 -10 6 -10 13 0 15 -38 58 -65 73
-10 6 -20 15 -22 20 -5 14 31 54 48 54 8 0 21 9 29 20 8 11 22 20 32 20 10 0
18 4 18 8 0 5 12 15 28 23 15 7 46 26 69 41 23 15 46 28 52 28 10 0 41 39 41
52 0 5 -11 8 -25 8 -14 0 -25 -3 -25 -7 0 -9 -49 -33 -67 -33 -7 0 -13 -4 -13
-10 0 -5 -9 -10 -19 -10 -11 0 -21 -3 -23 -7 -4 -10 -57 -42 -80 -50 -10 -3
-18 -9 -18 -14 0 -5 -9 -9 -19 -9 l-20 0 1 58 c1 66 -14 97 -54 115 -16 6 -28
15 -28 19 0 5 -13 8 -30 8 -16 0 -30 -4 -30 -9z m-140 -467 c0 -20 -24 -44
-44 -44 -9 0 -16 8 -16 20 0 13 7 20 20 20 11 0 20 5 20 10 0 6 5 10 10 10 6
0 10 -7 10 -16z"/>
<path d="M3276 1529 l-29 -29 -53 0 c-42 0 -54 -3 -54 -16 0 -20 24 -44 44
-44 l16 0 0 -100 c0 -60 -4 -100 -10 -100 -5 0 -10 -7 -10 -15 0 -8 -9 -19
-19 -25 -11 -5 -25 -16 -33 -23 -30 -29 -78 -57 -98 -57 -22 0 -50 -21 -50
-38 0 -30 57 -102 80 -102 16 0 40 -26 40 -44 0 -8 5 -18 10 -21 6 -3 10 -16
10 -28 0 -12 14 -35 30 -50 l30 -29 0 -94 c0 -56 -4 -94 -10 -94 -5 0 -10 -9
-10 -20 0 -11 -4 -20 -10 -20 -5 0 -10 -9 -10 -20 0 -11 -4 -20 -8 -20 -16 0
-52 -83 -52 -121 0 -21 -4 -39 -10 -39 -6 0 -10 -30 -10 -70 0 -40 -4 -70 -10
-70 -5 0 -10 -11 -10 -25 0 -16 -7 -28 -17 -31 -10 -3 -26 -10 -35 -15 -10 -5
-29 -9 -43 -9 l-25 0 0 -26 c0 -34 19 -51 72 -63 102 -24 148 -8 148 53 0 20
5 45 10 56 6 11 15 29 20 40 6 11 10 35 10 54 0 19 5 38 10 41 6 3 10 17 10
29 0 39 27 91 54 106 14 7 26 17 26 22 0 4 9 8 20 8 13 0 20 -7 20 -20 0 -11
5 -20 10 -20 6 0 10 -9 10 -20 0 -11 5 -20 10 -20 6 0 10 -8 10 -19 0 -10 9
-21 20 -24 11 -3 20 -14 20 -24 0 -11 9 -29 20 -41 11 -12 20 -25 20 -30 0 -4
8 -17 18 -28 53 -61 54 -90 3 -104 -40 -11 -55 -29 -45 -55 5 -11 24 -15 79
-15 41 0 77 5 80 10 3 6 13 10 21 10 42 0 59 65 24 90 -12 8 -20 26 -20 42 0
15 -4 28 -10 28 -5 0 -10 8 -10 18 0 10 -9 24 -20 32 -11 8 -20 21 -20 28 0 7
-18 31 -40 52 l-40 38 0 46 c0 24 -4 48 -10 51 -14 8 -13 155 1 155 6 0 8 9 3
23 -18 56 -40 278 -30 303 l6 15 15 -15 c8 -8 15 -31 15 -50 0 -20 5 -36 10
-36 6 0 10 -28 10 -62 1 -37 6 -70 14 -80 19 -26 55 -22 82 10 24 27 33 72 14
72 -5 0 -10 15 -10 34 0 19 -4 38 -10 41 -5 3 -10 19 -10 36 0 16 -4 37 -9 47
-5 9 -14 31 -21 47 -7 17 -16 38 -21 47 -5 10 -9 26 -9 35 0 10 -9 29 -20 43
-11 14 -20 33 -20 43 0 10 -7 25 -15 34 l-16 15 17 19 c9 11 23 19 31 19 8 0
23 9 35 20 12 11 28 20 35 20 7 0 13 4 13 8 0 4 13 16 30 25 16 10 35 23 42
30 8 7 27 20 43 29 17 9 36 26 44 37 l13 21 -17 6 c-10 4 -27 2 -38 -5 -11 -7
-36 -22 -56 -33 -19 -11 -42 -28 -51 -37 -8 -9 -27 -22 -42 -30 -16 -8 -28
-18 -28 -23 0 -18 -40 -6 -69 21 l-31 29 0 46 c0 36 -6 52 -25 71 -31 32 -63
30 -99 -6z m124 -209 c0 -11 -4 -20 -10 -20 -5 0 -10 9 -10 20 0 11 5 20 10
20 6 0 10 -9 10 -20z"/>
<path d="M5240 1552 c0 -4 -10 -12 -22 -17 -13 -6 -27 -20 -33 -32 -7 -16 -18
-23 -37 -23 -16 0 -28 5 -28 10 0 6 -13 10 -30 10 -51 0 -38 -38 23 -69 l27
-14 0 -53 c0 -29 5 -56 10 -59 16 -10 11 -56 -8 -74 -9 -9 -23 -28 -31 -43 -8
-16 -22 -28 -30 -28 -9 0 -23 -9 -31 -20 -8 -11 -22 -20 -32 -20 -11 0 -18 -7
-18 -20 0 -11 -3 -20 -7 -20 -13 0 -35 -54 -23 -58 5 -2 10 -10 10 -19 0 -8
14 -28 30 -43 l30 -28 0 -50 0 -49 28 -30 c15 -16 33 -39 40 -51 14 -26 16
-92 2 -92 -5 0 -10 -8 -10 -18 0 -10 -9 -24 -20 -32 -11 -8 -20 -22 -20 -32 0
-10 -4 -18 -10 -18 -5 0 -10 -10 -10 -23 0 -12 -9 -47 -20 -77 -11 -30 -20
-65 -20 -77 0 -12 -4 -25 -10 -28 -5 -3 -10 -22 -10 -41 0 -19 -4 -42 -9 -52
-5 -9 -15 -30 -22 -47 -21 -45 -34 -55 -71 -55 -51 0 -75 -34 -45 -64 29 -30
138 -48 152 -26 3 6 20 10 36 10 42 0 56 18 56 73 1 51 19 107 34 107 5 0 9
11 9 24 0 14 5 28 10 31 6 3 10 16 10 28 0 12 9 46 19 74 31 84 65 106 89 56
6 -15 12 -32 12 -38 0 -6 9 -17 20 -25 11 -8 20 -23 20 -33 0 -10 14 -38 30
-62 17 -24 30 -50 30 -59 0 -8 5 -18 10 -21 6 -3 10 -17 10 -30 0 -13 6 -25
13 -28 26 -9 -15 -37 -54 -37 -47 0 -51 -18 -14 -55 l24 -25 66 0 c37 0 65 4
65 10 0 6 14 10 30 10 l30 0 0 38 c0 26 -6 42 -20 52 -11 8 -20 22 -20 32 0 9
-4 20 -10 23 -5 3 -10 17 -10 30 0 27 -30 85 -60 117 -13 15 -20 36 -20 63 0
22 -5 46 -11 52 -15 15 -17 145 -1 151 15 5 16 80 1 119 -6 15 -11 61 -11 102
1 41 -3 82 -8 92 -9 16 7 79 20 79 6 0 38 -103 47 -153 3 -16 0 -46 -7 -68
l-13 -39 23 -20 c13 -11 30 -18 38 -15 7 3 19 5 25 5 20 0 40 56 28 79 -6 11
-11 32 -11 47 0 34 -19 141 -30 169 -10 25 -20 68 -27 119 -6 40 -14 52 -48
72 -32 18 -41 40 -22 58 8 9 23 16 31 16 9 0 16 4 16 9 0 5 14 14 30 21 17 7
30 16 30 20 0 3 12 13 28 21 15 8 36 22 46 32 11 9 26 17 33 17 7 0 13 3 13 8
0 4 14 13 30 20 18 8 30 21 30 33 0 27 -51 26 -70 -1 -8 -11 -22 -20 -32 -20
-10 0 -18 -4 -18 -10 0 -5 -8 -10 -18 -10 -10 0 -24 -9 -32 -20 -8 -11 -19
-20 -25 -20 -6 0 -21 -9 -33 -20 l-22 -21 -22 21 c-12 11 -26 20 -31 20 -22 0
-37 32 -37 80 0 31 -6 57 -14 66 -15 14 -86 20 -86 6z m137 -218 c2 -6 -4 -14
-14 -18 -10 -3 -24 -9 -30 -12 -14 -6 -18 27 -6 40 10 10 46 3 50 -10z"/>
<path d="M1324 1517 c-11 -13 -23 -31 -27 -41 l-7 -18 -45 7 c-55 8 -85 -1
-85 -24 0 -18 37 -41 65 -41 12 0 15 -17 15 -80 0 -47 4 -80 10 -80 6 0 10 -6
10 -13 0 -21 -24 -67 -35 -67 -5 0 -21 -9 -35 -20 -14 -11 -32 -20 -41 -20 -8
0 -24 -8 -35 -17 -10 -10 -31 -24 -46 -32 -16 -8 -28 -22 -28 -32 0 -10 -4
-21 -10 -24 -5 -3 -10 -9 -10 -13 0 -15 48 -62 64 -62 9 0 16 -4 16 -10 0 -5
9 -10 20 -10 16 0 20 -7 20 -32 0 -22 10 -45 30 -68 16 -19 30 -45 30 -57 0
-13 5 -23 11 -23 7 0 9 -12 5 -35 -3 -19 -9 -51 -12 -70 -3 -19 -10 -35 -15
-35 -5 0 -9 -9 -9 -20 0 -11 -4 -20 -10 -20 -5 0 -10 -7 -10 -15 0 -9 -9 -25
-20 -37 -11 -12 -20 -30 -20 -39 0 -10 -4 -21 -10 -24 -5 -3 -10 -42 -10 -86
0 -46 -4 -79 -10 -79 -5 0 -10 -11 -10 -24 0 -14 -4 -28 -10 -31 -5 -3 -10
-18 -10 -33 0 -41 -12 -52 -63 -56 -26 -2 -54 -9 -62 -16 -31 -26 -8 -80 34
-80 11 0 22 -4 26 -9 3 -5 34 -9 70 -9 49 0 71 5 90 20 25 19 35 58 15 58 -5
0 -10 9 -10 20 0 11 5 20 10 20 6 0 10 9 10 19 0 11 5 23 10 26 6 3 10 19 10
35 0 16 5 32 10 35 6 3 10 19 10 36 0 16 5 29 10 29 6 0 10 13 10 29 0 17 5
33 10 36 6 3 10 15 10 27 0 11 14 33 32 50 l32 29 28 -30 c15 -17 28 -41 28
-55 0 -15 5 -26 10 -26 6 0 10 -7 10 -15 0 -9 15 -31 34 -50 19 -19 37 -44 41
-57 7 -25 18 -53 37 -94 14 -29 2 -57 -27 -63 -10 -2 -25 -9 -33 -17 l-13 -14
14 -14 c26 -26 125 -24 155 4 12 11 26 20 32 20 20 0 40 28 40 54 0 17 -5 26
-16 26 -9 0 -18 9 -21 20 -3 11 -9 20 -14 20 -5 0 -9 9 -9 20 0 11 -4 20 -10
20 -5 0 -10 14 -10 30 0 17 -4 30 -10 30 -5 0 -10 9 -10 20 0 11 -4 20 -10 20
-5 0 -10 8 -10 18 0 10 -9 24 -20 32 -12 8 -20 26 -20 42 0 15 -4 30 -10 33
-5 3 -10 24 -10 45 0 21 -4 42 -10 45 -5 3 -10 19 -10 36 0 16 5 29 10 29 14
0 13 66 -2 93 -17 32 -12 275 7 293 23 24 22 27 44 -111 5 -33 12 -68 16 -78
4 -10 2 -29 -5 -42 l-13 -23 30 -32 29 -31 42 18 42 18 0 37 c0 21 -4 38 -10
38 -5 0 -10 15 -10 34 0 19 -4 38 -10 41 -5 3 -10 17 -10 31 0 13 -4 32 -9 42
-15 29 -31 87 -31 110 0 12 -4 22 -10 22 -5 0 -10 6 -10 13 0 6 -9 23 -20 37
-11 14 -20 33 -20 43 0 19 -22 47 -37 47 -4 0 -17 7 -27 15 l-19 15 29 25 c16
14 33 25 37 25 4 0 17 9 29 20 12 11 28 20 35 20 7 0 13 4 13 9 0 5 8 11 18
14 22 7 71 37 96 60 11 9 24 17 29 17 14 0 37 27 37 44 0 9 -8 16 -20 16 -11
0 -20 -4 -20 -8 0 -5 -21 -20 -47 -33 -27 -13 -57 -32 -67 -41 -11 -10 -26
-18 -33 -18 -7 0 -13 -4 -13 -10 0 -5 -9 -10 -20 -10 -11 0 -20 -4 -20 -10 0
-14 -20 -13 -53 3 l-27 12 0 56 0 55 -25 22 c-34 30 -85 29 -111 -1z"/>
</g>
</svg>
