<?xml version="1.0" standalone="no"?>
<!DOCTYPE svg PUBLIC "-//W3C//DTD SVG 20010904//EN"
 "http://www.w3.org/TR/2001/REC-SVG-20010904/DTD/svg10.dtd">
<svg version="1.0" xmlns="http://www.w3.org/2000/svg"
 width="190.156050pt" height="190.000000pt" viewBox="0 0 190.156050 190.000000"
 preserveAspectRatio="xMidYMid meet">
<metadata>
Created by Potrace Professional 1.0m
</metadata>
<g transform="translate(-1.843950,190.000000) rotate(-360.00) scale(0.100000,-0.100000)"
fill="#000000" stroke="none">
<path d="M1120 1890 c0 -5 -6 -10 -12 -10 -17 0 -62 -40 -73 -65 -5 -11 -11
-51 -14 -90 l-6 -70 -82 3 -81 4 -33 -31 c-17 -17 -36 -31 -42 -31 -5 0 -17
-8 -26 -17 -19 -21 -56 -43 -71 -43 -6 0 -20 -9 -32 -20 -12 -11 -28 -20 -35
-20 -7 0 -13 -4 -13 -10 0 -5 -9 -10 -19 -10 -11 0 -23 -4 -26 -10 -3 -5 -14
-10 -24 -10 -10 0 -37 -22 -60 -50 -23 -27 -47 -50 -53 -50 -6 0 -19 -10 -30
-22 l-20 -23 -70 0 -69 0 -10 -17 c-6 -10 -17 -18 -24 -18 -8 0 -15 -9 -15
-20 0 -16 7 -20 30 -20 38 0 38 -11 0 -28 -33 -15 -38 -35 -16 -58 17 -16 126
-20 126 -4 0 6 7 10 15 10 9 0 27 11 40 25 14 13 25 31 25 40 0 9 9 15 23 15
13 0 33 9 45 20 12 11 28 20 37 20 8 0 15 4 15 9 0 5 8 11 18 14 9 4 35 13 57
21 22 9 50 16 63 16 12 0 22 4 22 8 0 15 103 37 156 34 l21 -2 7 -52 c17 -137
18 -198 5 -242 -7 -25 -17 -46 -21 -46 -4 0 -8 -27 -8 -60 0 -33 4 -60 10 -60
6 0 10 -24 10 -54 0 -30 -4 -58 -10 -61 -5 -3 -10 -15 -10 -26 0 -10 -4 -19
-8 -19 -5 0 -19 -22 -31 -50 -12 -28 -27 -50 -32 -50 -5 0 -9 -9 -9 -20 0 -11
-4 -20 -8 -20 -4 0 -15 -13 -25 -29 -31 -52 -74 -91 -101 -91 -14 0 -26 -4
-26 -10 0 -5 -7 -10 -15 -10 -19 0 -55 -20 -76 -42 -9 -10 -22 -18 -28 -18 -7
0 -21 -9 -33 -20 -12 -11 -30 -20 -41 -20 -10 0 -44 -13 -74 -30 l-54 -30 -84
0 -84 0 -15 -32 c-9 -17 -16 -46 -16 -64 0 -36 -18 -84 -32 -84 -4 0 -8 -9 -8
-19 0 -11 -4 -21 -9 -23 -9 -3 -14 -34 -12 -75 l1 -23 33 0 c34 0 87 37 87 61
0 8 13 20 30 27 17 8 30 19 30 26 0 27 52 66 86 66 19 0 34 5 34 10 0 6 9 10
20 10 11 0 20 5 20 10 0 6 18 10 40 10 22 0 40 5 40 10 0 6 11 10 24 10 14 0
28 5 31 10 3 6 17 10 30 10 28 0 75 20 75 32 0 4 9 8 20 8 11 0 20 5 20 10 0
6 14 10 30 10 17 0 30 5 30 10 0 6 9 10 20 10 11 0 20 3 20 8 0 15 60 34 89
27 l29 -6 91 89 c50 49 91 95 91 103 0 8 9 21 20 29 11 8 20 22 20 32 0 10 5
18 10 18 6 0 10 9 10 20 0 11 3 20 8 20 4 0 13 14 20 30 15 33 35 38 58 16
l14 -15 -20 -36 c-14 -25 -20 -54 -20 -100 0 -35 -4 -67 -10 -70 -5 -3 -10
-46 -10 -96 0 -53 -4 -89 -10 -89 -5 0 -10 -8 -10 -18 0 -10 -4 -22 -9 -28 -6
-5 -13 -28 -17 -51 l-6 -42 28 -12 c16 -7 47 -20 69 -29 44 -20 181 -36 213
-26 44 14 37 66 -9 66 -16 0 -29 3 -29 8 0 4 -13 13 -30 20 l-30 14 -1 61 c-2
83 1 131 11 137 4 3 10 19 13 35 3 17 11 50 17 75 6 25 14 63 16 85 3 22 9 49
13 60 17 42 36 80 42 85 7 5 12 48 10 92 -1 19 -9 30 -31 40 -16 7 -30 16 -30
20 0 5 -7 8 -15 8 -8 0 -30 15 -50 32 l-35 33 0 47 c0 27 4 48 9 48 5 0 11 15
14 33 14 79 20 103 29 114 5 6 10 30 11 52 1 23 5 41 9 41 4 0 8 7 8 16 0 18
23 44 40 44 6 0 26 16 46 35 43 43 67 49 160 42 90 -8 113 0 146 49 14 22 44
58 67 82 22 23 41 47 41 53 0 6 12 23 28 38 38 37 52 65 52 106 l0 35 -39 0
c-66 0 -121 -45 -121 -98 0 -9 -26 -40 -57 -70 l-58 -54 -120 6 c-164 8 -248
16 -259 27 -6 6 -5 9 2 9 7 0 12 9 12 19 0 11 5 23 10 26 6 3 10 38 10 76 l0
70 -25 24 c-13 14 -31 25 -39 25 -8 0 -18 5 -21 10 -3 6 -26 10 -51 10 -24 0
-44 -4 -44 -10z"/>
<path d="M1600 1210 c0 -5 -6 -10 -12 -10 -35 -1 -88 -82 -88 -133 0 -49 78
-126 129 -128 60 -3 106 2 109 12 2 5 10 9 18 9 8 0 18 8 21 18 4 9 15 26 25
36 21 23 24 86 6 119 -6 12 -27 37 -47 55 l-35 32 -63 0 c-35 0 -63 -4 -63
-10z"/>
</g>
</svg>
