<?xml version="1.0" standalone="no"?>
<!DOCTYPE svg PUBLIC "-//W3C//DTD SVG 20010904//EN"
 "http://www.w3.org/TR/2001/REC-SVG-20010904/DTD/svg10.dtd">
<svg version="1.0" xmlns="http://www.w3.org/2000/svg"
 width="293.614888pt" height="283.385486pt" viewBox="0 0 293.614888 283.385486"
 preserveAspectRatio="xMidYMid meet">
<metadata>
Created by Potrace Professional 1.0m
</metadata>
<g transform="translate(-1.894364,283.801287) rotate(-360.00) scale(0.100000,-0.100000)"
fill="#000000" stroke="none">
<path d="M1823 2815 l-22 -23 12 -26 c7 -14 15 -26 20 -26 4 0 7 -9 7 -20 0
-14 -11 -22 -40 -31 -32 -10 -40 -17 -40 -35 0 -13 9 -28 20 -34 22 -12 27
-56 8 -63 -27 -9 -95 6 -150 34 -10 5 -63 9 -118 9 l-99 0 -38 32 c-21 18 -45
41 -54 50 -29 32 -89 15 -89 -26 0 -15 50 -56 69 -56 20 0 11 -14 -26 -45 -61
-51 -110 -106 -132 -148 -8 -15 -18 -27 -23 -27 -4 0 -8 -9 -8 -20 0 -11 -4
-20 -10 -20 -5 0 -10 -9 -10 -20 0 -11 -4 -20 -10 -20 -5 0 -10 -5 -10 -12 0
-7 -10 -38 -22 -70 -16 -40 -28 -58 -40 -58 -10 0 -18 5 -18 10 0 6 -9 10 -19
10 -11 0 -23 5 -26 10 -3 6 -15 10 -27 10 -11 0 -33 14 -48 30 -15 17 -35 30
-43 30 -9 0 -19 5 -22 10 -3 6 -16 10 -29 10 -12 0 -27 5 -34 12 -14 14 -16
94 -2 103 14 9 13 58 -2 73 -7 7 -20 12 -30 12 -11 0 -18 7 -18 20 0 11 5 20
10 20 17 0 11 29 -12 55 -25 29 -65 33 -84 8 -19 -26 -17 -53 6 -73 l20 -18
-25 -16 c-13 -9 -31 -16 -40 -16 -8 0 -15 -9 -15 -20 0 -11 4 -20 9 -20 5 0
11 -8 15 -17 3 -10 9 -24 12 -30 4 -8 -2 -13 -15 -13 -12 0 -21 -4 -21 -10 0
-6 -31 -10 -72 -10 -39 0 -87 -6 -106 -12 -28 -10 -36 -10 -39 0 -3 6 -12 12
-20 12 -9 0 -24 9 -34 21 l-18 21 -26 -26 c-14 -14 -25 -30 -25 -36 0 -17 26
-40 44 -40 25 0 19 -27 -14 -62 -17 -17 -30 -36 -30 -42 0 -6 -9 -18 -20 -26
-11 -8 -20 -19 -20 -25 0 -17 -24 -65 -32 -65 -5 0 -8 -7 -8 -15 0 -8 -5 -25
-12 -38 -24 -47 -28 -57 -28 -75 0 -10 -3 -22 -7 -26 -13 -12 -33 -81 -33
-113 0 -17 -4 -35 -10 -38 -5 -3 -10 -35 -10 -70 0 -35 -5 -65 -10 -67 -15 -5
-15 -327 0 -342 5 -5 10 -26 10 -45 0 -34 14 -89 31 -123 5 -10 9 -25 9 -33 0
-8 5 -15 10 -15 6 0 10 -9 10 -20 0 -11 4 -20 9 -20 5 0 15 -12 22 -27 24 -48
73 -112 90 -118 9 -3 29 -17 45 -30 16 -14 35 -25 42 -25 6 0 12 -4 12 -10 0
-5 14 -10 30 -10 17 0 30 -4 30 -10 0 -5 14 -10 30 -10 17 0 31 -6 31 -12 1
-7 2 -53 4 -103 3 -112 15 -205 26 -205 5 0 9 -11 9 -24 0 -14 4 -28 10 -31 5
-3 10 -15 10 -26 0 -10 5 -19 10 -19 6 0 10 -9 10 -20 0 -11 3 -20 8 -20 9 0
32 -49 32 -68 0 -14 -12 -14 -96 3 -25 5 -38 2 -58 -16 -27 -24 -35 -59 -13
-59 7 0 23 9 35 20 22 21 52 27 52 10 0 -14 83 -13 97 1 8 8 13 8 17 0 4 -6
14 -11 22 -11 20 0 86 -68 78 -81 -10 -17 28 -39 64 -37 18 1 36 6 38 10 8 12
144 10 144 -2 0 -5 9 -10 20 -10 11 0 20 -4 20 -10 0 -5 9 -10 20 -10 11 0 20
-4 20 -10 0 -5 18 -10 40 -10 22 0 40 -4 40 -10 0 -5 8 -10 18 -10 16 0 42 40
42 67 0 7 5 13 10 13 6 0 10 7 10 16 0 20 24 44 44 44 9 0 16 5 16 10 0 6 9
10 20 10 11 0 20 5 20 10 0 16 94 12 128 -6 18 -8 32 -19 32 -22 0 -4 11 -19
24 -34 23 -28 69 -38 81 -18 14 23 75 1 75 -27 0 -27 87 -94 99 -76 3 5 14 12
24 16 9 3 17 13 17 22 0 8 5 15 10 15 6 0 10 28 10 65 l0 66 35 34 34 35 55 0
c34 0 57 5 60 13 5 9 7 9 12 0 3 -7 13 -13 21 -13 25 0 63 -52 63 -86 0 -33
18 -48 45 -38 10 4 13 13 10 24 -8 25 31 60 66 60 19 0 41 -13 69 -40 61 -59
97 -55 91 12 -2 16 65 87 81 88 5 0 27 18 49 40 23 22 46 40 51 40 12 0 72
-41 76 -52 7 -16 33 -7 64 22 17 17 37 30 44 30 8 0 14 5 14 10 0 16 50 12 67
-6 15 -15 38 -15 74 0 10 4 23 0 33 -9 17 -17 46 -14 46 5 0 36 -88 78 -105
50 -4 -7 -12 -7 -25 0 -22 12 -107 13 -112 2 -1 -4 -17 -18 -35 -30 -33 -23
-68 -29 -78 -12 -3 5 -24 10 -46 10 l-39 0 0 20 c0 11 5 20 10 20 6 0 10 16
10 35 0 19 6 44 13 55 9 15 9 22 0 28 -6 4 -11 33 -11 71 0 34 -5 68 -11 74
-6 6 -11 26 -11 44 0 18 -4 33 -10 33 -5 0 -10 7 -10 15 0 8 -9 19 -20 25 -11
6 -20 17 -20 25 0 8 -4 15 -10 15 -5 0 -10 18 -10 39 0 22 -4 43 -10 46 -14 8
-13 35 3 68 9 20 19 27 41 27 27 0 156 39 166 50 16 19 71 50 87 50 28 0 73
44 73 71 0 14 9 31 20 39 11 8 20 22 20 32 0 10 5 18 10 18 6 0 10 14 10 30 0
17 4 30 9 30 5 0 11 19 15 43 12 93 18 117 33 117 20 0 71 52 55 58 -7 2 -12
12 -12 23 l0 19 -39 0 -39 0 -5 33 c-11 66 -19 93 -39 134 -22 44 -71 101
-103 119 -10 6 -23 19 -29 30 -6 10 -13 21 -16 24 -10 10 -30 50 -30 60 0 18
-63 73 -110 99 -42 22 -90 66 -90 84 0 26 -92 97 -127 97 -7 0 -13 5 -13 10 0
6 -11 10 -25 10 -18 0 -43 18 -84 60 -32 33 -66 60 -75 60 -9 0 -16 5 -16 10
0 6 -24 10 -52 10 -67 1 -90 17 -90 65 0 21 5 42 11 48 6 6 11 28 11 49 0 21
5 38 10 38 15 0 12 29 -4 46 -8 8 -31 14 -50 14 l-36 0 0 20 c0 11 5 20 10 20
20 0 10 51 -15 75 -30 31 -44 31 -72 0z m51 -200 c8 -8 22 -15 30 -15 9 0 16
-8 16 -20 0 -22 -16 -25 -54 -10 -19 7 -26 17 -26 35 0 28 12 32 34 10z m-234
-66 c0 -5 6 -9 13 -9 27 0 87 -71 87 -104 0 -8 6 -16 13 -19 8 -3 9 -8 2 -15
-11 -12 -75 13 -75 29 0 5 -6 9 -12 9 -18 0 -68 44 -68 59 0 7 -7 19 -15 27
-26 26 -18 40 20 36 19 -2 35 -8 35 -13z m180 -38 c0 -5 9 -11 20 -14 l20 -5
0 -86 0 -86 -16 0 c-23 0 -43 29 -44 63 0 15 -5 37 -12 50 -38 74 -38 87 2 87
17 0 30 -4 30 -9z m-375 -21 c-3 -5 -10 -10 -16 -10 -5 0 -9 5 -9 10 0 6 7 10
16 10 8 0 12 -4 9 -10z m-65 -36 c0 -3 -13 -19 -30 -34 -16 -15 -30 -35 -30
-43 0 -9 -6 -17 -12 -19 -9 -3 -8 -9 5 -22 21 -21 21 -30 2 -50 -8 -8 -15 -22
-15 -30 0 -9 -3 -16 -7 -16 -9 0 -33 -49 -33 -67 0 -7 -4 -13 -10 -13 -5 0
-10 -18 -10 -39 0 -22 -4 -43 -10 -46 -5 -3 -10 -24 -10 -45 0 -21 -4 -42 -10
-45 -6 -4 -10 -73 -10 -176 0 -106 -4 -169 -10 -169 -5 0 -10 10 -10 23 0 13
-9 42 -20 65 -11 22 -20 54 -20 71 0 16 -4 33 -10 36 -6 4 -10 74 -10 179 0
176 9 226 40 226 15 0 40 42 40 67 0 7 5 13 10 13 6 0 10 -9 10 -20 0 -11 2
-20 5 -20 13 0 55 50 55 65 0 8 5 15 10 15 6 0 10 7 10 15 0 9 15 31 33 50 30
32 47 42 47 29z m130 -4 c0 -5 -11 -10 -25 -10 -14 0 -25 -5 -25 -12 0 -9 -3
-9 -11 -1 -6 6 -8 16 -5 22 9 14 66 15 66 1z m30 -40 c0 -5 -4 -10 -10 -10 -5
0 -10 5 -10 10 0 6 5 10 10 10 6 0 10 -4 10 -10z m440 -15 c0 -8 5 -15 10 -15
6 0 10 -10 10 -23 0 -13 4 -27 10 -33 15 -15 17 -126 3 -131 -7 -3 -13 0 -13
7 0 6 -9 20 -20 32 l-20 22 0 78 c0 45 4 78 10 78 6 0 10 -7 10 -15z m-1320
-5 c0 -5 9 -10 20 -10 11 0 20 -5 20 -11 0 -18 -55 -6 -58 14 -2 9 1 17 7 17
6 0 11 -4 11 -10z m740 0 c0 -5 -4 -10 -10 -10 -5 0 -10 -7 -10 -16 0 -17 -28
-49 -36 -41 -5 5 11 39 31 64 12 15 25 17 25 3z m100 0 c0 -5 -4 -10 -10 -10
-5 0 -10 5 -10 10 0 6 5 10 10 10 6 0 10 -4 10 -10z m607 -11 c45 -24 93 -76
93 -101 0 -10 5 -18 10 -18 6 0 10 -13 10 -29 0 -17 5 -33 10 -36 12 -8 13
-98 1 -110 -5 -6 -11 -18 -13 -29 l-3 -18 -32 31 c-18 17 -38 31 -43 31 -6 0
-26 16 -45 35 l-35 34 0 90 c0 49 -4 93 -10 96 -15 10 -12 45 5 45 8 0 31 -9
52 -21z m-579 -31 c-6 -18 -28 -21 -28 -4 0 9 7 16 16 16 9 0 14 -5 12 -12z
m-910 -34 c17 -5 22 -14 22 -40 0 -19 5 -34 10 -34 6 0 10 -4 10 -10 0 -15
-49 -12 -66 4 -8 8 -14 21 -14 29 0 9 -5 17 -12 19 -15 5 -3 38 14 38 7 0 23
-3 36 -6z m785 -14 c-3 -11 -9 -20 -14 -20 -5 0 -9 -9 -9 -20 0 -22 35 -29 43
-7 6 19 37 -11 37 -37 0 -12 5 -27 11 -33 11 -11 -26 -103 -42 -103 -5 0 -9
-9 -9 -20 0 -11 -4 -20 -8 -20 -5 0 -15 -22 -22 -50 -7 -27 -17 -50 -22 -50
-4 0 -8 -18 -8 -40 0 -22 -4 -40 -10 -40 -5 0 -10 -9 -10 -19 0 -11 -4 -23
-10 -26 -5 -3 -10 -25 -10 -49 0 -23 -3 -46 -7 -50 -11 -11 -12 -175 -2 -182
11 -6 12 -94 1 -94 -11 0 -44 79 -58 140 -15 67 -18 366 -4 375 6 3 10 24 10
45 0 21 5 42 10 45 6 3 10 19 10 35 0 16 5 32 10 35 6 3 10 19 10 36 0 16 4
29 9 29 5 0 11 13 14 29 3 16 13 36 22 44 8 9 15 19 15 23 0 10 31 44 41 44 4
0 5 -9 2 -20z m-900 -13 c4 -10 -2 -13 -19 -9 -13 2 -24 8 -24 13 0 14 37 10
43 -4z m1160 -27 c-4 -15 0 -20 16 -20 12 0 21 -6 21 -15 0 -9 8 -25 19 -36
l18 -20 16 15 c16 17 47 22 47 8 0 -4 -9 -13 -20 -20 -11 -7 -20 -20 -20 -30
0 -10 -12 -25 -27 -33 -38 -19 -53 -35 -53 -53 0 -11 -9 -16 -30 -16 -23 0
-30 4 -30 20 0 11 -4 20 -10 20 -5 0 -10 6 -10 13 0 18 -24 67 -32 67 -17 0
-8 52 10 57 9 2 28 17 42 33 29 34 50 39 43 10z m-1235 -32 c24 -12 26 -17 14
-33 -8 -13 -67 -55 -76 -55 -3 0 -6 25 -6 56 l0 55 23 -6 c12 -3 32 -11 45
-17z m1927 1 c21 -10 65 -93 65 -121 0 -9 5 -20 10 -23 6 -3 10 -35 10 -70 0
-35 -4 -67 -10 -70 -5 -3 -10 -15 -10 -26 0 -10 -4 -19 -10 -19 -5 0 -10 4
-10 8 0 5 -12 15 -27 23 -16 8 -37 22 -47 32 -11 9 -25 17 -31 17 -6 0 -18 11
-25 25 l-13 25 13 24 c9 17 11 51 8 111 l-4 86 30 -6 c17 -3 40 -11 51 -16z
m-1519 -17 c41 -38 58 -92 28 -92 -20 0 -44 24 -44 44 0 9 -4 16 -10 16 -5 0
-10 11 -10 25 0 29 10 32 36 7z m-76 -12 c0 -11 -4 -20 -10 -20 -5 0 -10 9
-10 20 0 11 5 20 10 20 6 0 10 -9 10 -20z m-458 -37 c3 -66 -3 -148 -13 -157
-5 -6 -9 -18 -9 -28 0 -10 -4 -18 -10 -18 -5 0 -10 -6 -10 -13 0 -18 -24 -67
-32 -67 -5 0 -8 -13 -8 -30 0 -16 -4 -30 -10 -30 -5 0 -10 -11 -10 -24 0 -14
-4 -28 -10 -31 -6 -3 -10 -26 -10 -50 0 -26 -5 -45 -13 -48 -10 -4 -12 10 -9
62 3 36 8 74 13 83 5 9 9 28 9 42 0 14 5 28 10 31 6 3 10 28 10 55 0 27 5 52
10 55 6 3 10 24 10 46 0 21 5 39 10 39 6 0 10 9 10 20 0 11 5 20 10 20 6 0 10
9 10 20 0 11 5 20 10 20 6 0 10 9 10 20 0 37 20 21 22 -17z m218 30 c0 -9 49
-33 67 -33 27 0 11 -33 -37 -80 -27 -27 -50 -53 -50 -57 0 -5 -8 -18 -17 -29
-10 -10 -25 -32 -33 -49 -8 -16 -15 -31 -16 -33 -1 -1 -9 0 -18 4 -10 4 -16
17 -16 35 0 16 -4 29 -10 29 -5 0 -10 24 -10 53 l0 53 33 35 c17 19 44 40 60
48 15 8 27 18 27 23 0 4 5 8 10 8 6 0 10 -3 10 -7z m461 -64 c35 -38 36 -49 5
-49 -27 0 -43 16 -46 45 -5 45 2 45 41 4z m899 -69 c0 -57 -4 -80 -12 -80 -16
-1 -108 -85 -108 -99 0 -18 -24 -12 -43 9 -9 11 -17 27 -17 35 0 8 -4 15 -10
15 -5 0 -10 15 -10 33 0 26 10 43 46 80 25 26 50 47 55 47 5 0 19 9 31 20 12
11 32 20 45 20 l23 0 0 -80z m-1220 -43 l0 -103 -40 -39 c-22 -21 -40 -45 -40
-52 0 -7 -9 -17 -20 -23 -11 -6 -20 -16 -20 -23 0 -7 -9 -19 -20 -27 -11 -8
-20 -22 -20 -32 0 -11 -7 -18 -20 -18 -13 0 -20 7 -20 19 0 11 -4 23 -10 26
-5 3 -10 30 -10 60 0 30 5 57 10 60 6 3 10 14 10 24 0 9 9 27 20 39 11 12 20
25 20 30 0 5 17 27 38 49 21 22 41 47 45 56 3 9 12 17 19 17 8 0 20 9 28 20 8
11 18 20 22 20 4 0 8 -46 8 -103z m860 63 c0 -11 5 -20 10 -20 6 0 10 -11 10
-25 0 -13 9 -40 20 -60 21 -38 26 -75 10 -75 -5 0 -10 -9 -10 -20 0 -11 -4
-20 -10 -20 -5 0 -10 -7 -10 -15 0 -8 -4 -23 -9 -33 -26 -51 -38 -91 -48 -165
-3 -20 -9 -40 -14 -43 -14 -8 -11 -231 3 -254 18 -28 3 -35 -23 -11 -13 12
-27 21 -32 21 -27 0 -43 41 -56 145 -4 33 -11 68 -15 78 -5 11 -4 17 4 17 10
0 10 3 0 15 -10 12 -10 21 -2 38 6 12 13 45 16 72 10 92 18 135 27 135 5 0 9
13 9 30 0 27 29 91 51 115 5 5 9 19 9 32 0 13 4 23 9 23 5 0 11 9 14 20 3 11
12 20 21 20 9 0 16 -8 16 -20z m-441 -137 c1 -76 6 -139 12 -141 5 -2 9 -17 9
-33 0 -16 5 -38 10 -49 6 -11 15 -29 20 -40 6 -11 10 -29 10 -40 0 -11 5 -20
10 -20 14 0 12 -37 -2 -43 -10 -4 -10 -7 0 -18 6 -7 12 -20 12 -29 0 -9 9 -26
20 -38 11 -12 20 -26 20 -32 0 -6 37 -48 81 -93 52 -51 85 -93 91 -114 6 -23
15 -33 28 -33 11 0 20 -4 20 -10 0 -5 7 -10 16 -10 15 0 44 -23 44 -34 0 -15
-68 -4 -88 14 -12 11 -28 20 -37 20 -8 0 -15 5 -15 10 0 6 -6 10 -13 10 -14 0
-87 63 -87 75 0 4 -18 27 -40 52 -22 25 -40 52 -40 59 0 8 -4 14 -9 14 -13 0
-71 125 -71 154 0 14 -4 28 -10 31 -5 3 -10 35 -10 71 0 36 -4 64 -10 64 -6 0
-10 53 -10 140 0 87 4 140 10 140 6 0 10 14 10 30 0 17 4 30 8 30 5 0 9 -62
11 -137z m1433 125 c12 -7 27 -17 33 -23 22 -20 75 -104 75 -119 0 -8 5 -18
10 -21 13 -8 13 -155 1 -155 -5 0 -16 7 -25 15 -8 8 -20 15 -27 15 -6 0 -19 8
-28 18 -9 9 -28 23 -42 31 -35 18 -57 57 -41 73 7 7 12 45 12 95 0 46 2 83 5
83 3 0 15 -6 27 -12z m-450 -23 c0 -5 -5 -11 -11 -13 -6 -2 -11 4 -11 13 0 9
5 15 11 13 6 -2 11 -8 11 -13z m-1172 -40 l-13 -15 27 -21 c33 -26 34 -49 1
-49 -18 0 -25 5 -25 20 0 11 -4 20 -10 20 -5 0 -10 14 -10 30 0 24 4 30 21 30
l21 0 -12 -15z m1210 -25 c0 -13 7 -20 20 -20 12 0 20 -7 20 -16 0 -9 9 -18
20 -21 25 -7 25 -12 3 -29 -23 -17 -78 -18 -90 -1 -12 14 -22 77 -16 95 8 21
43 14 43 -8z m-1780 -85 c0 -30 4 -55 8 -55 12 0 36 -91 26 -99 -14 -9 -34
-49 -34 -66 0 -8 -4 -15 -10 -15 -5 0 -10 -11 -10 -24 0 -14 -4 -28 -10 -31
-6 -3 -10 -19 -10 -36 0 -16 -4 -29 -10 -29 -5 0 -10 -18 -10 -39 0 -22 -5
-43 -10 -46 -6 -3 -10 -44 -10 -90 0 -46 -5 -87 -10 -90 -7 -4 -7 -12 0 -25
13 -24 13 -110 0 -110 -5 0 -10 9 -10 20 0 11 -4 20 -9 20 -5 0 -12 17 -16 38
-12 59 -9 342 4 402 6 30 14 71 17 90 5 33 15 63 35 102 5 10 9 25 9 33 0 8 4
15 8 15 4 0 14 20 21 45 7 25 17 45 22 45 5 0 9 -25 9 -55z m1560 3 c1 -24 5
-62 9 -86 5 -23 5 -45 0 -48 -5 -3 -9 -12 -9 -21 0 -17 -37 -63 -50 -63 -4 0
-10 13 -13 29 -3 16 -12 35 -19 43 -7 7 -19 24 -26 36 l-12 22 12 22 c16 26
90 106 101 107 4 1 7 -18 7 -41z m-1500 -28 c0 -5 -4 -10 -10 -10 -5 0 -10 5
-10 10 0 6 5 10 10 10 6 0 10 -4 10 -10z m-240 -24 c0 -8 -4 -18 -10 -21 -5
-3 -10 -30 -10 -60 0 -30 -4 -57 -10 -60 -6 -4 -10 -53 -10 -116 0 -66 4 -109
10 -109 6 0 10 -35 10 -84 0 -47 5 -88 10 -91 6 -3 10 -26 10 -50 0 -24 5 -47
10 -50 6 -3 10 -15 10 -26 0 -10 4 -19 9 -19 5 0 11 -13 14 -29 3 -16 13 -36
22 -44 8 -9 15 -23 15 -31 0 -9 5 -16 10 -16 6 0 10 -6 10 -12 1 -15 64 -88
77 -88 4 0 24 -14 43 -30 20 -17 47 -30 62 -30 42 0 58 -10 58 -36 l0 -24 -40
0 c-22 0 -40 5 -40 10 0 6 -9 10 -20 10 -11 0 -20 5 -20 10 0 6 -9 10 -20 10
-11 0 -20 4 -20 8 0 5 -12 15 -27 23 -38 19 -93 75 -93 94 0 8 -4 15 -8 15 -5
0 -15 12 -23 28 -8 15 -16 29 -19 32 -12 12 -30 51 -30 65 0 8 -4 15 -10 15
-5 0 -10 8 -10 18 0 10 -3 22 -8 26 -9 10 -30 192 -31 273 -1 95 35 349 51
359 4 3 8 14 8 25 0 10 5 19 10 19 6 0 10 -6 10 -14z m540 -38 c-1 -80 -15
-136 -39 -157 -11 -10 -21 -23 -21 -29 0 -6 -8 -16 -18 -21 -10 -5 -24 -25
-32 -45 -15 -40 -30 -47 -30 -16 0 11 -4 20 -10 20 -5 0 -10 9 -10 20 0 11 -4
20 -10 20 -5 0 -10 9 -10 20 0 11 5 20 10 20 6 0 10 9 10 20 0 11 5 20 10 20
6 0 10 8 10 18 0 10 9 24 20 32 11 8 20 21 20 28 0 8 13 26 28 40 16 15 31 35
35 45 3 9 13 17 22 17 12 0 15 -12 15 -52z m940 32 c0 -11 5 -20 10 -20 6 0
10 -8 10 -18 0 -11 7 -33 16 -50 l15 -32 -15 -32 c-9 -17 -16 -41 -16 -53 0
-11 -5 -26 -10 -31 -7 -7 -11 -76 -11 -177 0 -92 -1 -167 -3 -167 -2 0 -17 7
-35 16 -51 25 -64 64 -65 189 -1 109 19 261 35 271 5 3 9 18 9 35 0 16 5 29
10 29 6 0 10 7 10 15 0 17 20 44 33 45 4 0 7 -9 7 -20z m728 0 c7 -11 21 -20
32 -20 11 0 25 -9 32 -20 7 -11 23 -20 35 -20 13 0 23 -4 23 -8 0 -22 -29 -32
-96 -32 -40 0 -76 -4 -79 -10 -3 -5 -21 -10 -38 -10 -18 0 -47 -9 -65 -20 -42
-26 -61 -25 -66 3 -3 12 -8 36 -11 52 -3 17 -9 42 -12 58 l-5 27 20 0 c12 0
24 5 27 10 3 6 48 10 98 10 l92 0 13 -20z m398 -37 c19 -20 34 -47 34 -60 0
-13 5 -23 10 -23 6 0 10 -18 10 -40 0 -44 -8 -50 -30 -20 -8 11 -20 20 -28 20
-29 0 -42 28 -42 94 0 36 3 66 6 66 4 0 22 -17 40 -37z m-1926 -87 c0 -14 5
-28 10 -31 15 -9 12 -55 -5 -72 -9 -8 -17 -14 -19 -12 -2 2 -6 34 -9 72 l-6
67 14 0 c9 0 15 -10 15 -24z m1740 -26 c0 -5 7 -10 15 -10 8 0 23 -4 33 -9 9
-5 38 -19 65 -31 26 -13 47 -27 47 -32 0 -4 6 -8 13 -8 7 0 23 -9 35 -20 12
-11 28 -20 35 -20 21 0 46 -32 30 -37 -7 -3 -13 -15 -13 -28 0 -13 -13 -49
-30 -80 -16 -31 -30 -63 -30 -71 0 -17 -25 -30 -73 -37 -43 -7 -67 -22 -67
-44 0 -24 -67 -83 -95 -83 -14 0 -25 -5 -25 -10 0 -7 -24 -10 -62 -8 l-62 3
-20 38 -20 37 -36 0 c-43 0 -60 14 -60 52 0 15 -4 28 -9 28 -5 0 -11 15 -14
33 -12 64 -26 133 -37 177 -6 25 -14 59 -17 75 l-5 31 24 11 c12 6 43 17 68
24 25 7 49 16 55 21 13 12 255 10 255 -2z m-520 -50 c0 -22 -4 -40 -10 -40 -5
0 -10 18 -10 40 0 22 5 40 10 40 6 0 10 -18 10 -40z m-140 -5 c0 -40 -9 -44
-28 -14 -10 16 -10 24 -1 35 19 23 29 16 29 -21z m-180 12 c0 -18 24 -67 33
-67 4 0 7 -18 7 -40 0 -22 -4 -40 -10 -40 -5 0 -10 -18 -10 -40 0 -22 -4 -40
-10 -40 -6 0 -10 -40 -10 -101 0 -73 -3 -100 -12 -97 -6 2 -15 11 -19 19 -28
58 -30 71 -26 184 4 108 7 137 23 213 5 23 34 31 34 9z m-1333 -45 c15 -44 17
-162 3 -162 -5 0 -10 -8 -10 -18 0 -10 -4 -22 -9 -27 -23 -24 -40 -367 -20
-391 17 -20 -4 -17 -29 4 -13 11 -22 34 -25 60 -2 23 -6 45 -10 49 -4 3 -7 73
-7 154 0 169 12 244 51 321 5 10 9 24 9 32 0 14 20 27 29 19 3 -2 11 -20 18
-41z m293 -48 c0 -52 -5 -73 -22 -97 -34 -48 -47 -59 -63 -53 -17 6 -22 96 -5
96 6 0 10 9 10 20 0 11 5 20 10 20 6 0 10 7 10 15 0 16 39 63 53 64 4 1 7 -29
7 -65z m188 1 c7 -14 12 -34 12 -43 0 -10 4 -22 8 -27 5 -6 14 -30 21 -55 7
-25 17 -54 21 -65 8 -18 18 -59 23 -95 1 -11 -14 -16 -58 -22 -32 -4 -62 -4
-66 0 -3 4 -12 69 -18 144 l-12 137 16 25 c22 33 39 33 53 1z m1200 -53 c7
-32 12 -68 12 -80 0 -12 5 -22 10 -22 6 0 10 -13 10 -30 0 -33 -5 -36 -25 -17
-44 45 -70 161 -42 192 19 22 22 19 35 -43z m-1088 17 c0 -10 5 -19 10 -19 6
0 10 -9 10 -20 0 -11 5 -20 10 -20 6 0 10 -10 10 -22 0 -13 9 -34 20 -48 11
-14 20 -35 20 -47 0 -13 3 -23 8 -23 4 0 12 -16 18 -36 l12 -36 -14 -5 c-7 -3
-19 1 -26 9 -16 17 -38 78 -38 106 0 12 -4 22 -10 22 -5 0 -10 14 -10 30 0 17
-4 30 -10 30 -5 0 -10 11 -10 24 0 14 -4 28 -10 31 -5 3 -10 17 -10 31 0 14 4
22 10 19 6 -3 10 -15 10 -26z m860 11 c0 -5 -4 -10 -10 -10 -5 0 -10 5 -10 10
0 6 5 10 10 10 6 0 10 -4 10 -10z m40 -75 c0 -8 -3 -15 -6 -15 -12 0 -33 35
-34 54 l0 20 20 -22 c11 -12 20 -28 20 -37z m-1400 25 c0 -11 -4 -20 -10 -20
-5 0 -10 9 -10 20 0 11 5 20 10 20 6 0 10 -9 10 -20z m40 10 c0 -5 -4 -10 -10
-10 -5 0 -10 5 -10 10 0 6 5 10 10 10 6 0 10 -4 10 -10z m1300 -30 c0 -11 4
-20 9 -20 16 0 19 -55 5 -95 -7 -22 -14 -59 -14 -83 l0 -43 -27 3 -28 3 -3 84
c-2 49 1 88 8 95 5 5 10 25 10 43 0 26 4 33 20 33 13 0 20 -7 20 -20z m-1380
-45 c0 -8 5 -15 10 -15 14 0 13 -93 -1 -107 -7 -7 -12 -71 -13 -182 0 -94 -2
-171 -4 -171 -10 0 -32 31 -32 44 0 8 -4 18 -10 21 -6 4 -10 60 -10 135 0 75
4 131 10 135 6 3 10 24 10 45 0 21 5 42 10 45 6 3 10 19 10 36 0 16 5 29 10
29 6 0 10 -7 10 -15z m120 -20 c0 -8 -4 -15 -10 -15 -5 0 -10 7 -10 15 0 8 5
15 10 15 6 0 10 -7 10 -15z m140 -77 c0 -38 -2 -68 -4 -68 -18 0 -36 15 -36
31 0 10 -4 19 -10 19 -14 0 -12 46 3 73 31 56 47 38 47 -55z m400 62 c0 -11 5
-20 10 -20 6 0 10 -9 10 -20 0 -11 5 -20 10 -20 6 0 10 -9 10 -20 0 -11 5 -20
10 -20 6 0 10 -6 10 -13 0 -18 24 -67 33 -67 4 0 7 -9 7 -20 0 -11 3 -20 8
-20 8 0 32 -49 32 -67 0 -7 3 -13 8 -13 4 0 12 -10 18 -23 44 -88 82 -155 97
-171 9 -11 17 -26 17 -33 0 -7 5 -13 10 -13 6 0 10 -9 10 -20 0 -11 5 -20 10
-20 6 0 10 -28 10 -65 0 -37 -4 -65 -10 -65 -5 0 -10 8 -10 18 0 10 -4 22 -9
28 -18 18 -71 126 -71 145 0 10 -4 19 -10 19 -5 0 -10 9 -10 20 0 11 -4 20
-10 20 -5 0 -10 9 -10 20 0 11 -3 20 -7 20 -9 0 -33 49 -33 67 0 7 -4 13 -10
13 -5 0 -10 9 -10 20 0 11 -4 20 -10 20 -5 0 -10 9 -10 19 0 11 -4 23 -10 26
-5 3 -10 17 -10 31 0 13 -4 24 -10 24 -5 0 -10 9 -10 20 0 11 -4 20 -10 20 -5
0 -10 9 -10 20 0 11 -4 20 -10 20 -5 0 -10 9 -10 20 0 11 -4 20 -10 20 -5 0
-10 14 -10 30 0 17 -4 30 -10 30 -5 0 -10 9 -10 20 0 11 5 20 10 20 6 0 10 -9
10 -20z m-120 -16 c0 -14 -4 -23 -10 -19 -5 3 -10 15 -10 26 0 10 5 19 10 19
6 0 10 -12 10 -26z m-400 -14 c0 -5 -4 -10 -10 -10 -5 0 -10 5 -10 10 0 6 5
10 10 10 6 0 10 -4 10 -10z m1328 -40 c7 -16 12 -42 10 -57 -2 -22 -9 -29 -30
-31 l-28 -3 0 40 c0 23 5 41 10 41 6 0 10 9 10 20 0 29 13 25 28 -10z m152 20
c0 -5 -4 -10 -10 -10 -5 0 -10 5 -10 10 0 6 5 10 10 10 6 0 10 -4 10 -10z
m100 -20 c0 -5 -4 -10 -10 -10 -5 0 -10 5 -10 10 0 6 5 10 10 10 6 0 10 -4 10
-10z m-1537 -44 c4 -10 1 -13 -9 -9 -7 3 -14 9 -14 14 0 14 17 10 23 -5z
m1477 4 c0 -5 -4 -10 -10 -10 -5 0 -10 5 -10 10 0 6 5 10 10 10 6 0 10 -4 10
-10z m620 -34 c0 -9 -4 -16 -10 -16 -5 0 -10 9 -10 20 0 11 -5 20 -11 20 -5 0
-7 5 -4 10 8 13 35 -13 35 -34z m-500 19 c0 -8 -4 -15 -10 -15 -5 0 -10 7 -10
15 0 8 5 15 10 15 6 0 10 -7 10 -15z m-1700 -13 c0 -10 5 -23 11 -29 9 -9 9
-27 -1 -71 -7 -33 -9 -68 -6 -79 7 -23 -23 -63 -48 -63 l-16 0 0 70 c0 40 4
70 10 70 6 0 10 22 10 48 0 44 12 72 32 72 4 0 8 -8 8 -18z m751 -43 c18 -17
50 -38 71 -47 21 -9 38 -20 38 -24 0 -5 12 -8 26 -8 47 0 58 -24 55 -114 -2
-83 -18 -156 -33 -156 -4 0 -8 7 -8 15 0 8 -4 15 -10 15 -5 0 -10 9 -10 20 0
11 -4 20 -10 20 -5 0 -10 6 -10 13 0 7 -9 23 -20 35 -11 12 -20 28 -20 37 0 8
-4 15 -10 15 -5 0 -10 9 -10 20 0 11 -4 20 -10 20 -5 0 -10 9 -10 20 0 11 -4
20 -10 20 -5 0 -10 9 -10 20 0 11 -3 20 -7 20 -9 0 -33 48 -33 66 0 7 -6 15
-12 17 -9 4 -9 6 -2 6 7 1 27 -13 45 -30z m1419 11 c0 -5 -7 -10 -15 -10 -8 0
-15 5 -15 10 0 6 7 10 15 10 8 0 15 -4 15 -10z m-1564 -24 c21 -21 17 -46 -6
-46 -16 0 -20 7 -20 30 0 34 5 37 26 16z m-346 -16 c0 -5 -4 -10 -10 -10 -5 0
-10 5 -10 10 0 6 5 10 10 10 6 0 10 -4 10 -10z m1240 -10 l0 -20 -70 0 c-52 0
-70 3 -70 13 0 23 11 27 77 27 l63 0 0 -20z m-1304 -1 c12 -21 -19 -38 -55
-31 -46 10 -51 30 -9 35 18 2 38 5 45 5 6 1 15 -3 19 -9z m1904 -10 c0 -24
-22 -49 -44 -49 -9 0 -16 -4 -16 -10 0 -5 -13 -10 -30 -10 -16 0 -30 -4 -30
-10 0 -5 -22 -10 -50 -10 -39 0 -50 4 -50 16 0 26 26 44 64 44 19 0 38 5 41
10 3 6 17 10 31 10 13 0 24 4 24 9 0 8 10 12 53 20 4 0 7 -8 7 -20z m-792 -1
c-6 -18 -28 -21 -28 -4 0 9 7 16 16 16 9 0 14 -5 12 -12z m482 2 c0 -5 -18
-10 -41 -10 -24 0 -38 4 -34 10 3 6 22 10 41 10 19 0 34 -4 34 -10z m-1130
-90 c0 -11 5 -20 10 -20 6 0 10 -9 10 -20 0 -11 5 -20 10 -20 6 0 10 -6 10
-13 0 -7 18 -48 40 -92 22 -44 40 -88 40 -97 0 -10 5 -18 10 -18 6 0 10 -7 10
-15 0 -15 19 -55 31 -65 14 -12 17 -51 4 -57 -16 -5 -75 18 -75 29 0 5 -7 8
-15 8 -21 0 -79 57 -104 103 -31 55 -28 103 9 137 38 36 38 65 -1 101 -19 17
-29 35 -25 44 8 22 36 18 36 -5z m517 0 c3 -11 9 -20 14 -20 5 0 9 -21 9 -46
l0 -46 19 -5 19 -5 1 -89 c1 -49 -2 -89 -6 -89 -5 0 -16 -14 -25 -30 -9 -17
-23 -30 -30 -30 -8 0 -20 -9 -28 -20 -8 -11 -22 -20 -32 -20 -9 0 -20 -4 -23
-10 -3 -5 -13 -10 -22 -10 -12 0 -14 7 -8 33 4 17 11 97 16 177 5 80 10 156
12 170 2 14 5 33 5 43 3 26 72 24 79 -3z m-997 -16 c0 -28 -27 -44 -74 -44
l-46 0 0 29 0 28 60 1 c47 1 60 -2 60 -14z m60 6 c0 -5 -4 -10 -10 -10 -5 0
-10 5 -10 10 0 6 5 10 10 10 6 0 10 -4 10 -10z m120 0 c0 -5 -18 -10 -41 -10
-24 0 -38 4 -34 10 3 6 22 10 41 10 19 0 34 -4 34 -10z m100 1 c0 -5 -7 -12
-16 -15 -22 -9 -24 -8 -24 9 0 8 9 15 20 15 11 0 20 -4 20 -9z m95 -1 c-3 -5
-22 -10 -41 -10 -19 0 -34 5 -34 10 0 6 18 10 41 10 24 0 38 -4 34 -10z m481
-147 c-13 -193 -18 -243 -27 -243 -12 0 -11 177 1 185 6 3 10 40 10 81 0 48 4
74 11 74 8 0 10 -28 5 -97z m554 47 c0 -5 -7 -10 -15 -10 -8 0 -15 5 -15 10 0
6 7 10 15 10 8 0 15 -4 15 -10z m-1268 -100 c16 -17 39 -30 52 -30 52 0 106
-33 106 -64 0 -11 9 -16 30 -16 17 0 30 -4 30 -9 0 -5 14 -14 30 -21 17 -7 30
-16 30 -21 0 -4 17 -9 37 -11 44 -4 54 -23 16 -33 -15 -3 -33 -15 -41 -26 -7
-10 -20 -19 -29 -19 -20 0 -71 55 -88 97 -22 51 -59 83 -98 83 l-34 0 -6 -30
c-9 -42 -38 -39 -73 8 -15 20 -32 39 -36 40 -4 2 -8 21 -8 43 l0 39 26 0 c17
0 38 -11 56 -30z m1038 -50 c0 -22 -4 -49 -10 -60 -5 -11 -14 -29 -20 -40 -5
-11 -10 -26 -10 -33 0 -18 -88 -107 -106 -107 -8 0 -14 -4 -14 -10 0 -5 -9
-10 -19 -10 -11 0 -23 -4 -26 -10 -3 -5 -17 -10 -31 -10 -13 0 -24 -4 -24 -9
0 -8 -23 -14 -113 -27 -20 -4 -40 -10 -43 -15 -3 -5 -27 -9 -53 -9 -26 0 -51
-4 -57 -9 -10 -10 -146 3 -200 20 -17 5 -51 9 -77 9 -25 0 -49 5 -52 10 -3 6
-19 10 -36 10 -16 0 -29 5 -29 10 0 6 -9 10 -20 10 -11 0 -20 5 -20 10 0 6 -6
10 -14 10 -20 0 -108 88 -96 95 6 3 10 1 10 -4 0 -6 6 -11 13 -11 7 0 22 -8
33 -17 28 -25 61 -43 79 -43 8 0 15 -4 15 -10 0 -5 9 -10 20 -10 11 0 20 -4
20 -8 0 -16 205 -34 340 -29 147 6 217 14 226 28 3 5 16 9 30 9 13 0 24 5 24
10 0 6 9 10 20 10 11 0 20 5 20 10 0 6 9 10 20 10 11 0 20 5 20 10 0 6 6 10
13 10 20 0 107 85 107 104 0 9 5 16 10 16 6 0 10 27 10 60 l0 60 20 0 20 0 0
-40z m160 16 c0 -14 5 -28 10 -31 19 -11 13 -64 -23 -202 -6 -24 -14 -43 -18
-43 -3 0 -17 -21 -30 -47 -13 -25 -32 -48 -41 -51 -10 -2 -18 -8 -18 -13 0 -5
-9 -9 -20 -9 -11 0 -20 5 -20 10 0 6 5 10 10 10 19 0 10 37 -15 58 -31 27 -31
32 0 68 14 16 25 35 25 42 0 6 5 12 10 12 6 0 10 9 10 20 0 11 4 20 8 20 15 0
32 66 32 123 l0 57 40 0 40 0 0 -24z m140 -46 c0 -5 -9 -10 -20 -10 -11 0 -20
5 -20 10 0 6 9 10 20 10 11 0 20 -4 20 -10z m-1520 -24 c0 -18 24 -66 33 -66
4 0 7 -9 7 -20 0 -11 4 -20 8 -20 5 0 15 -12 23 -27 16 -31 86 -103 99 -103 5
0 25 -16 44 -35 20 -19 42 -35 50 -35 8 0 18 -4 21 -10 3 -5 17 -10 31 -10 13
0 24 -4 24 -10 0 -5 10 -10 23 -10 13 0 27 -4 33 -9 32 -33 480 -32 500 0 3 5
18 9 34 9 15 0 30 4 32 8 2 5 15 12 31 16 20 5 27 3 27 -8 0 -8 14 -26 30 -39
35 -30 37 -37 11 -37 -11 0 -23 -4 -26 -10 -3 -5 -21 -10 -40 -10 -19 0 -37
-4 -40 -10 -3 -5 -26 -10 -51 -10 -24 0 -44 -4 -44 -10 0 -6 -63 -10 -169 -10
-103 0 -172 4 -176 10 -3 5 -26 10 -51 10 -24 0 -44 5 -44 10 0 6 -9 10 -20
10 -28 0 -100 23 -100 32 0 5 -9 8 -20 8 -11 0 -20 5 -20 10 0 6 -9 10 -20 10
-11 0 -20 3 -20 8 0 4 -13 13 -29 20 -43 19 -131 111 -131 136 0 8 -3 16 -7
18 -14 6 -53 90 -53 114 0 13 -4 24 -10 24 -5 0 -10 16 -10 36 0 21 4 33 10
29 6 -3 10 -12 10 -19z m1783 -3 c4 -10 13 -36 21 -58 18 -46 22 -230 6 -240
-5 -3 -10 -17 -10 -31 0 -14 -10 -35 -21 -47 l-22 -22 6 30 c7 40 -2 85 -18
85 -7 0 -13 10 -13 23 0 12 -3 49 -7 83 -11 85 15 194 45 194 4 0 10 -8 13
-17z m-1843 -27 c0 -14 4 -27 8 -30 4 -3 14 -28 22 -55 7 -28 17 -51 22 -51 4
0 8 -12 8 -26 0 -15 11 -37 28 -52 15 -15 33 -39 41 -53 7 -15 25 -33 40 -40
14 -8 35 -22 45 -31 11 -10 26 -18 33 -18 7 0 13 -4 13 -10 0 -5 9 -10 20 -10
11 0 20 -4 20 -10 0 -5 9 -10 20 -10 11 0 20 -4 20 -10 0 -5 13 -10 29 -10 17
0 33 -5 36 -10 3 -6 19 -10 35 -10 16 0 32 -5 35 -10 3 -5 24 -10 46 -10 21 0
39 -4 39 -10 0 -6 27 -10 60 -10 33 0 60 -4 60 -8 0 -4 -19 -13 -43 -20 -46
-14 -97 -51 -97 -71 0 -43 -112 -59 -152 -21 -23 21 -51 25 -137 21 -68 -4
-127 25 -196 94 -48 49 -95 123 -95 150 0 7 -6 15 -12 18 -7 2 -9 8 -5 13 4 5
12 2 18 -6 l9 -15 9 15 c10 15 4 69 -10 85 -5 5 -9 25 -9 45 0 20 -5 41 -12
48 -9 9 -8 12 6 12 10 0 20 -9 23 -20 3 -11 14 -20 24 -20 21 0 24 11 9 26 -5
5 -11 29 -12 52 -1 24 -5 45 -10 48 -11 7 -10 54 2 54 6 0 10 -11 10 -24z
m1620 -89 c0 -40 5 -78 10 -83 8 -8 7 -19 -1 -38 -9 -19 -9 -32 -1 -49 6 -12
13 -66 16 -119 l5 -98 -34 0 -35 0 -2 33 c0 17 0 44 1 60 1 15 -2 27 -7 27 -6
0 -10 24 -9 53 2 100 -6 227 -14 227 -5 0 -9 14 -9 30 l0 30 40 0 40 0 0 -73z
m-1660 13 c0 -11 -4 -20 -10 -20 -5 0 -10 9 -10 20 0 11 5 20 10 20 6 0 10 -9
10 -20z m1720 -10 c0 -16 5 -30 10 -30 6 0 10 -43 10 -110 0 -60 -4 -110 -9
-110 -4 0 -11 48 -15 108 -3 59 -9 122 -12 140 -4 20 -2 32 5 32 6 0 11 -13
11 -30z m-172 -2 c15 -15 16 -164 2 -173 -5 -3 -10 -20 -10 -36 0 -16 -9 -39
-20 -51 -11 -12 -20 -32 -20 -44 l0 -23 -107 -4 c-148 -6 -193 -20 -193 -61 0
-9 -4 -16 -10 -16 -5 0 -10 -9 -10 -19 0 -11 -4 -23 -10 -26 -5 -3 -10 -17
-10 -31 l0 -24 -30 0 c-16 0 -30 5 -30 10 0 6 -9 10 -20 10 -11 0 -20 5 -20
11 0 8 -18 10 -60 6 -33 -4 -60 -3 -60 2 0 4 -13 22 -29 39 l-29 30 21 6 c12
3 36 6 54 6 17 0 35 5 38 10 3 6 24 10 46 10 21 0 39 5 39 10 0 6 15 10 34 10
19 0 38 5 41 10 3 6 14 10 25 10 10 0 44 14 75 30 31 17 62 30 69 30 6 0 18 9
26 20 8 11 20 20 28 20 13 0 82 64 82 77 0 4 9 19 20 33 11 14 20 35 20 48 0
12 5 22 10 22 6 0 10 14 10 30 0 32 9 37 28 18z m-879 -14 c17 -4 31 -13 31
-21 0 -22 -74 -13 -78 10 -4 19 1 20 47 11z m1131 -65 c0 -10 -4 -19 -10 -19
-5 0 -10 12 -10 26 0 14 4 23 10 19 6 -3 10 -15 10 -26z m-540 5 c0 -3 -7 -12
-15 -21 -20 -19 -32 -10 -14 11 14 15 29 21 29 10z m-120 -64 c0 -5 -4 -10
-10 -10 -5 0 -10 5 -10 10 0 6 5 10 10 10 6 0 10 -4 10 -10z m-1160 -41 c0
-11 -4 -17 -10 -14 -5 3 -10 15 -10 26 0 11 5 17 10 14 6 -3 10 -15 10 -26z
m1120 21 c0 -5 -7 -10 -15 -10 -8 0 -15 5 -15 10 0 6 7 10 15 10 8 0 15 -4 15
-10z m144 -20 c4 -24 11 -30 31 -30 14 0 25 -3 25 -6 0 -11 -29 -34 -44 -34
-9 0 -16 -4 -16 -10 0 -5 -9 -10 -20 -10 -22 0 -27 16 -7 23 10 3 10 11 0 39
-17 47 -16 58 6 58 13 0 20 -9 25 -30z m-199 0 c-3 -5 -10 -10 -16 -10 -5 0
-9 5 -9 10 0 6 7 10 16 10 8 0 12 -4 9 -10z m-295 -40 c0 -5 -11 -10 -25 -10
-14 0 -25 5 -25 10 0 6 11 10 25 10 14 0 25 -4 25 -10z"/>
</g>
</svg>
