<?xml version="1.0" standalone="no"?>
<!DOCTYPE svg PUBLIC "-//W3C//DTD SVG 20010904//EN"
 "http://www.w3.org/TR/2001/REC-SVG-20010904/DTD/svg10.dtd">
<svg version="1.0" xmlns="http://www.w3.org/2000/svg"
 width="369.768412pt" height="245.862860pt" viewBox="0 0 369.768412 245.862860"
 preserveAspectRatio="xMidYMid meet">
<metadata>
Created by Potrace Professional 1.0m
</metadata>
<g transform="translate(-0.213497,247.862860) rotate(-360.00) scale(0.100000,-0.100000)"
fill="#000000" stroke="none">
<path d="M1933 2466 c-18 -6 -35 -15 -39 -19 -12 -12 -93 -8 -114 5 -16 10
-24 10 -40 0 -11 -6 -31 -12 -44 -12 -34 0 -77 -20 -98 -44 -19 -23 -25 -116
-8 -116 6 0 10 -9 10 -20 0 -11 5 -20 10 -20 6 0 10 -20 10 -44 0 -25 -4 -48
-10 -51 -5 -3 -10 -19 -10 -35 0 -16 -4 -32 -10 -35 -5 -3 -10 -17 -10 -31 0
-13 -4 -24 -10 -24 -5 0 -10 -9 -10 -20 0 -11 -4 -20 -8 -20 -5 0 -19 -21 -32
-47 -27 -59 -36 -76 -63 -122 l-20 -36 1 -143 1 -144 -27 -31 c-15 -17 -46
-51 -69 -75 -24 -24 -43 -48 -43 -53 0 -5 -13 -8 -28 -7 -33 2 -52 -8 -52 -28
0 -8 -4 -14 -8 -14 -5 0 -15 -12 -23 -27 -28 -54 -69 -74 -69 -33 0 11 -4 20
-8 20 -5 0 -15 12 -23 27 -8 16 -30 44 -49 63 l-34 35 -63 -2 c-58 -2 -131
-19 -143 -34 -11 -14 -82 -49 -100 -49 -10 0 -22 -4 -25 -10 -3 -5 -17 -10
-31 -10 -13 0 -24 -4 -24 -10 0 -5 -7 -10 -15 -10 -8 0 -29 -8 -48 -19 -18
-10 -50 -21 -70 -25 -20 -3 -53 -9 -72 -12 -19 -3 -38 -10 -41 -15 -3 -5 -15
-9 -28 -9 -12 0 -27 -5 -33 -11 -13 -13 -53 -2 -53 14 0 7 -9 19 -20 27 -11 8
-20 22 -20 32 0 10 -4 18 -10 18 -5 0 -10 8 -10 17 0 24 -23 83 -32 83 -4 0
-8 7 -8 15 0 23 -86 105 -110 105 -39 0 -53 -26 -46 -83 3 -29 9 -80 12 -115
4 -34 11 -65 15 -68 5 -3 9 -25 9 -50 0 -24 5 -44 10 -44 6 0 10 -43 10 -108
0 -113 6 -132 45 -132 12 0 26 -5 32 -11 8 -8 17 -8 31 0 11 6 35 11 53 11 17
0 39 8 48 18 24 25 80 42 144 42 31 0 59 5 62 10 4 6 53 10 116 10 66 0 109 4
109 10 0 6 7 10 15 10 8 0 33 18 55 40 22 22 43 40 45 40 3 0 5 -29 5 -65 l0
-66 -17 -6 c-10 -4 -37 -26 -60 -50 l-43 -43 12 -22 c7 -12 21 -31 31 -42 9
-11 17 -26 17 -33 0 -7 5 -13 10 -13 6 0 10 -9 10 -20 0 -11 5 -20 10 -20 6 0
10 -16 10 -35 0 -31 13 -68 30 -85 3 -3 11 -17 19 -32 8 -16 18 -28 23 -28 4
0 8 -8 8 -17 0 -20 105 -123 125 -123 7 0 15 -5 17 -10 5 -17 229 -90 276 -90
23 0 60 -5 81 -12 l39 -12 24 -48 c14 -30 30 -48 41 -48 9 0 17 -4 17 -10 0
-5 9 -10 20 -10 11 0 20 -4 20 -9 0 -9 33 -17 118 -27 23 -4 42 -10 42 -15 0
-5 32 -9 70 -9 40 0 70 -4 70 -10 0 -6 47 -10 120 -10 73 0 120 4 120 10 0 6
7 10 16 10 9 0 24 8 33 18 9 9 28 23 43 31 14 7 29 21 32 30 3 9 12 34 20 56
9 22 16 51 16 66 0 28 -21 79 -32 79 -13 0 -9 40 5 41 6 0 53 0 103 -1 57 -1
94 3 99 9 3 6 13 11 21 11 8 0 35 20 59 45 l45 44 0 49 c0 26 6 54 12 60 10
10 10 17 0 32 -6 11 -12 27 -12 35 0 8 -4 15 -9 15 -5 0 -13 9 -16 20 -8 24
-90 109 -125 129 -17 10 -25 10 -28 2 -2 -6 -21 -11 -43 -11 -21 0 -39 -4 -39
-10 0 -5 -9 -10 -20 -10 -11 0 -20 -4 -20 -10 0 -5 -9 -10 -20 -10 -11 0 -20
-4 -20 -10 0 -5 -18 -10 -40 -10 l-40 0 0 -22 c-1 -25 -36 -70 -63 -81 -10 -4
-17 -17 -17 -32 l0 -25 -70 0 c-40 0 -70 4 -70 10 0 6 -22 10 -50 10 -27 0
-50 5 -50 10 0 6 -6 10 -12 10 -7 0 -26 11 -42 25 -16 13 -37 27 -47 30 -11 4
-19 11 -19 16 0 5 -9 9 -20 9 -11 0 -20 5 -20 10 0 6 -8 10 -18 10 -10 0 -24
9 -32 20 -8 11 -22 20 -32 20 -9 0 -20 5 -23 10 -3 6 -15 10 -26 10 -23 0 -23
4 -5 38 39 76 56 115 56 128 0 8 3 14 8 14 9 0 32 72 32 100 0 11 5 20 10 20
6 0 10 18 10 39 0 22 5 43 10 46 6 3 10 24 10 45 0 21 5 42 10 45 6 3 10 16
10 29 0 12 9 41 20 64 11 22 20 52 20 66 0 13 4 26 9 28 5 2 12 44 15 93 10
151 17 192 37 214 14 15 19 35 19 74 0 29 3 57 7 61 4 4 6 25 4 47 -1 24 4 50
13 64 9 13 16 38 16 55 0 16 5 30 10 30 6 0 10 9 10 20 0 11 5 20 10 20 6 0
10 16 10 36 0 61 67 104 160 104 32 0 62 5 65 10 3 6 14 10 24 10 22 0 111 82
111 102 0 33 -71 78 -124 78 -20 0 -36 5 -36 10 0 13 -87 11 -127 -4z"/>
<path d="M3456 2153 c-4 -4 -29 -8 -54 -9 -26 0 -56 -5 -67 -11 -11 -6 -31
-16 -46 -22 -14 -7 -36 -30 -49 -52 -14 -21 -28 -39 -32 -39 -5 0 -8 -33 -8
-74 0 -57 5 -84 23 -117 26 -52 80 -109 102 -109 8 0 15 -4 15 -10 0 -5 9 -10
19 -10 11 0 23 -4 26 -10 3 -5 33 -10 65 -10 32 0 62 5 65 10 3 6 17 10 31 10
14 0 34 9 46 20 12 11 28 20 35 20 7 0 13 6 13 13 0 7 9 23 20 35 11 12 20 28
20 37 0 8 5 15 10 15 14 0 12 126 -2 153 -7 12 -21 29 -30 38 -10 9 -18 22
-18 28 0 17 -26 41 -44 41 -9 0 -16 3 -16 8 0 10 -50 32 -75 32 -12 0 -26 5
-31 10 -6 6 -14 7 -18 3z"/>
</g>
</svg>
