<?xml version="1.0" standalone="no"?>
<!DOCTYPE svg PUBLIC "-//W3C//DTD SVG 20010904//EN"
 "http://www.w3.org/TR/2001/REC-SVG-20010904/DTD/svg10.dtd">
<svg version="1.0" xmlns="http://www.w3.org/2000/svg"
 width="284.000000pt" height="105.977518pt" viewBox="0 0 284.000000 105.977518"
 preserveAspectRatio="xMidYMid meet">
<metadata>
Created by Potrace Professional 1.0m
</metadata>
<g transform="translate(-0.000000,108.000000) rotate(-360.00) scale(0.100000,-0.100000)"
fill="#000000" stroke="none">
<path d="M678 1048 l-3 -33 -40 -3 c-159 -10 -271 -28 -281 -43 -3 -5 -13 -9
-23 -9 -21 0 -71 -22 -71 -32 0 -5 -9 -8 -19 -8 -11 0 -23 -4 -26 -10 -3 -5
-14 -10 -24 -10 -9 0 -27 -9 -39 -20 -12 -11 -26 -20 -32 -20 -35 0 -120 -80
-120 -113 0 -33 35 -67 70 -67 l30 0 0 30 0 30 25 0 c14 0 35 -9 47 -20 12
-11 27 -20 34 -20 7 0 18 -13 26 -30 7 -16 16 -30 20 -30 5 0 8 -22 8 -50 l0
-50 35 0 c38 0 72 23 86 58 l9 22 39 0 c22 0 42 -4 45 -9 3 -4 19 -11 36 -14
28 -6 109 -75 110 -94 1 -4 14 -24 30 -43 23 -26 30 -44 30 -77 l0 -43 20 0
c11 0 35 9 55 20 55 31 232 24 265 -10 3 -3 26 -16 51 -28 32 -17 49 -33 57
-56 18 -48 15 -89 -8 -114 -23 -25 -26 -77 -6 -98 17 -16 106 -20 106 -4 0 6
7 10 16 10 26 0 44 26 44 64 0 22 5 36 13 36 17 0 67 -45 67 -60 0 -7 10 -21
22 -32 17 -15 31 -18 58 -13 19 4 37 11 38 16 2 5 12 9 22 9 10 0 22 5 25 10
3 6 21 10 39 10 25 0 40 -9 67 -40 l34 -40 36 0 c59 0 102 69 65 106 -8 8 -18
14 -23 14 -17 0 -68 53 -55 57 6 3 12 11 12 19 0 34 94 144 124 144 9 0 16 5
16 10 0 6 18 10 40 10 22 0 40 5 40 10 0 14 63 13 95 -2 20 -9 31 -8 52 3 20
11 27 11 30 2 3 -7 13 -13 24 -13 10 0 19 -4 19 -10 0 -5 14 -10 30 -10 l30 0
0 45 c0 61 34 131 71 147 16 7 29 16 29 20 0 5 13 8 29 8 17 0 33 4 36 10 8
13 102 13 110 0 3 -5 13 -10 21 -10 15 0 44 -23 44 -34 0 -3 -9 -6 -21 -6 -25
0 -23 -37 3 -54 41 -26 100 51 68 89 -14 16 13 65 36 65 8 0 14 5 14 10 0 6
23 10 50 10 l50 0 0 -20 0 -20 36 0 c38 0 64 18 64 44 0 9 -6 16 -13 16 -7 0
-23 9 -35 20 -12 11 -25 20 -29 20 -4 1 -24 14 -43 30 -19 17 -40 30 -47 30
-7 0 -13 5 -13 10 0 6 -9 10 -20 10 -11 0 -20 3 -20 8 0 8 -49 32 -67 32 -7 0
-13 4 -13 8 0 12 -47 32 -75 32 -14 0 -25 5 -25 10 0 6 -11 10 -24 10 -14 0
-28 5 -31 10 -3 6 -15 10 -26 10 -10 0 -19 5 -19 10 0 6 -30 10 -70 10 -54 0
-70 3 -70 14 0 8 5 18 10 21 6 3 10 15 10 25 0 41 -117 43 -143 3 -10 -17
-112 -63 -137 -63 -11 0 -20 -4 -20 -10 0 -5 -9 -10 -19 -10 -11 0 -23 -4 -26
-10 -3 -5 -17 -10 -31 -10 -13 0 -24 -4 -24 -9 0 -5 -12 -11 -28 -14 -15 -3
-41 -17 -57 -31 -17 -14 -36 -26 -42 -26 -7 0 -13 -4 -13 -9 0 -5 -13 -14 -30
-21 -16 -7 -30 -16 -30 -21 0 -10 -83 -12 -93 -3 -7 8 13 54 25 54 4 0 8 9 8
20 0 11 4 20 8 20 5 0 14 11 22 24 l13 25 -16 15 c-21 22 -60 20 -99 -4 -22
-13 -51 -20 -86 -20 l-54 0 -38 40 c-23 24 -48 40 -62 40 -31 0 -49 -40 -37
-83 5 -17 9 -47 9 -64 l0 -33 -50 0 c-27 0 -50 5 -50 10 0 6 -10 10 -23 10
-14 0 -46 21 -83 55 -32 31 -71 63 -86 72 -16 10 -28 21 -28 25 0 4 -7 8 -16
8 -13 0 -87 51 -104 71 -11 14 -50 29 -74 29 l-25 0 -3 -32z"/>
</g>
</svg>
