<?xml version="1.0" standalone="no"?>
<!DOCTYPE svg PUBLIC "-//W3C//DTD SVG 20010904//EN"
 "http://www.w3.org/TR/2001/REC-SVG-20010904/DTD/svg10.dtd">
<svg version="1.0" xmlns="http://www.w3.org/2000/svg"
 width="182.364703pt" height="175.982859pt" viewBox="0 0 182.364703 175.982859"
 preserveAspectRatio="xMidYMid meet">
<metadata>
Created by Potrace Professional 1.0m
</metadata>
<g transform="translate(0.094596,176.000000) rotate(-360.00) scale(0.100000,-0.100000)"
fill="#000000" stroke="none">
<path d="M1320 1750 c0 -5 -9 -10 -20 -10 -13 0 -20 -7 -20 -20 0 -12 -7 -20
-16 -20 -9 0 -18 9 -21 20 -10 39 -99 16 -115 -30 -3 -8 -2 -44 3 -80 l9 -65
40 -37 40 -36 0 -46 0 -46 -30 0 -30 0 0 -50 0 -50 -20 0 -20 0 0 36 c0 60
-36 78 -107 52 l-33 -12 0 -38 0 -38 -19 0 c-16 0 -20 8 -23 38 l-3 37 -57 3
-58 3 0 -51 0 -51 -17 3 c-13 2 -19 16 -23 48 l-5 45 -43 3 c-52 4 -72 -13
-72 -62 l0 -36 -20 0 c-16 0 -20 7 -20 33 -1 40 -18 64 -50 69 l-25 3 -2 53
c-3 53 10 82 37 82 6 0 18 6 26 14 16 17 19 121 4 160 l-10 26 -50 0 -50 0 0
-25 c0 -31 -17 -33 -22 -2 l-3 22 -56 3 -57 3 -13 -31 c-15 -33 -49 -42 -49
-12 0 27 -20 42 -58 42 -36 0 -62 -19 -62 -44 0 -9 -8 -16 -20 -16 -13 0 -20
7 -20 20 0 21 -13 25 -64 21 -56 -5 -68 -44 -45 -151 8 -39 15 -50 30 -50 10
0 19 -4 19 -10 0 -5 9 -10 20 -10 l20 0 0 -396 0 -395 -60 -59 -61 -60 21 -22
c11 -12 20 -27 20 -34 0 -7 6 -14 13 -17 9 -3 11 -46 10 -180 -2 -97 1 -178 6
-181 4 -3 7 -22 5 -43 -2 -24 3 -44 13 -55 18 -20 48 -24 58 -8 9 14 53 12 58
-2 3 -10 7 -10 18 -2 15 12 140 17 834 34 547 13 697 20 712 36 10 9 13 72 13
255 l0 242 21 18 22 19 -49 45 c-27 25 -53 45 -57 45 -14 0 -33 24 -41 50 -9
31 -27 756 -19 788 3 12 13 22 23 22 28 0 53 86 29 101 -8 5 -8 12 0 28 l12
21 -25 25 c-41 41 -116 28 -116 -19 0 -9 -8 -16 -19 -16 -14 0 -21 8 -23 28
l-3 27 -33 3 c-34 3 -62 -15 -62 -42 0 -27 -35 -18 -53 14 -12 20 -26 30 -43
30 -13 0 -24 -4 -24 -10z"/>
</g>
</svg>
