<?xml version="1.0" standalone="no"?>
<!DOCTYPE svg PUBLIC "-//W3C//DTD SVG 20010904//EN"
 "http://www.w3.org/TR/2001/REC-SVG-20010904/DTD/svg10.dtd">
<svg version="1.0" xmlns="http://www.w3.org/2000/svg"
 width="408.114421pt" height="114.227909pt" viewBox="0 0 408.114421 114.227909"
 preserveAspectRatio="xMidYMid meet">
<metadata>
Created by Potrace Professional 1.0m
</metadata>
<g transform="translate(-1.885579,113.970938) rotate(-360.00) scale(0.100000,-0.100000)"
fill="#000000" stroke="none">
<path d="M2012 1128 c-7 -7 -12 -18 -12 -25 0 -7 -13 -27 -30 -45 -16 -17 -30
-35 -30 -41 0 -26 -41 -44 -85 -39 -55 6 -75 -9 -75 -55 0 -45 20 -63 70 -63
43 0 90 -33 90 -65 0 -8 4 -15 9 -15 5 0 11 -8 15 -17 3 -10 9 -24 12 -30 4
-10 -17 -13 -91 -13 -70 0 -100 -4 -111 -14 -10 -11 -14 -43 -14 -130 0 -86
-3 -116 -12 -117 -56 -4 -215 4 -222 12 -6 5 -52 9 -102 9 -51 0 -96 5 -99 10
-3 6 -44 10 -90 10 -46 0 -86 4 -89 9 -3 4 -45 11 -93 15 -231 20 -238 21
-275 44 -36 23 -78 23 -78 1 0 -5 -22 -9 -50 -9 -27 0 -50 5 -50 10 0 6 -16
10 -35 10 l-35 0 -6 -30 -6 -30 -42 0 c-59 -1 -76 -18 -76 -74 l0 -46 -20 0
c-11 0 -20 5 -20 10 0 6 -11 10 -24 10 -14 0 -28 5 -31 10 -3 6 -17 10 -30 10
-13 0 -27 5 -30 10 -3 6 -17 10 -30 10 -13 0 -27 5 -30 10 -3 6 -15 10 -26 10
-19 0 -28 4 -76 28 -13 7 -32 12 -43 12 -28 0 -28 -50 0 -57 11 -3 20 -9 20
-14 0 -5 11 -9 24 -9 14 0 28 -4 31 -10 3 -5 15 -10 26 -10 10 0 19 -4 19 -10
0 -5 14 -10 30 -10 17 0 30 -4 30 -10 0 -5 10 -10 23 -10 24 0 92 -22 103 -33
4 -4 18 -7 31 -7 13 0 23 -4 23 -10 0 -5 8 -10 19 -10 10 0 30 -9 44 -20 14
-12 40 -20 61 -20 20 0 36 -4 36 -10 0 -5 14 -10 30 -10 l30 0 1 -22 c3 -55
-4 -134 -12 -142 -5 -6 -9 -30 -9 -54 l0 -45 78 5 c42 2 86 9 97 15 l20 11 -5
72 c-4 55 -2 74 8 78 27 10 162 -42 162 -63 0 -6 9 -17 20 -25 12 -8 20 -26
20 -42 0 -21 5 -28 19 -28 29 0 47 28 33 51 -7 10 -12 40 -12 66 0 74 -30 143
-62 143 -15 1 -48 24 -48 35 0 4 24 4 53 1 28 -3 89 -8 135 -12 45 -4 82 -10
82 -14 0 -8 22 -11 193 -26 l67 -6 0 -54 0 -55 22 -8 21 -8 1 -49 1 -49 24 -3
c46 -7 91 7 91 28 0 11 5 20 10 20 6 0 10 -7 10 -16 0 -23 25 -44 54 -44 l26
0 0 30 c0 17 -4 30 -10 30 -5 0 -10 15 -10 33 0 18 -5 38 -11 44 -7 7 -9 19
-5 28 l6 17 58 -6 c31 -3 127 -8 212 -12 85 -3 160 -9 165 -13 6 -4 46 -9 90
-10 44 -1 96 -6 116 -10 19 -5 73 -9 120 -10 100 -2 169 -19 169 -41 0 -38 16
-40 316 -40 l292 0 16 25 c11 17 16 47 16 98 0 72 -9 97 -38 97 -15 0 -31 15
-49 48 l-13 21 20 11 c26 14 25 28 -1 51 l-21 18 5 128 c3 70 8 136 12 146 l7
17 218 0 c125 0 221 4 225 9 8 13 155 11 183 -2 17 -8 32 -7 57 2 l35 12 29
-20 c37 -26 76 -27 103 -1 12 11 32 20 45 20 l23 0 0 125 0 126 -25 24 -24 25
-61 0 c-34 0 -71 -5 -82 -11 -14 -8 -23 -8 -31 0 -14 14 -57 14 -57 1 0 -5 -9
-10 -20 -10 -11 0 -20 5 -20 10 0 6 -73 10 -199 10 -110 0 -202 4 -205 8 -3 5
-47 10 -98 11 -51 1 -97 6 -102 11 -13 13 -56 13 -56 0 0 -6 -26 -10 -59 -10
-33 0 -63 5 -66 10 -3 6 -52 10 -112 10 -102 0 -183 14 -183 32 0 4 -9 8 -20
8 -11 0 -20 -4 -20 -10 0 -14 -187 -13 -339 2 -94 9 -127 9 -142 0 -23 -15
-66 -16 -74 -2 -3 6 -15 10 -26 10 -10 0 -19 5 -19 10 0 14 -33 13 -48 -2z
m-1397 -778 c4 -6 -8 -10 -29 -10 -20 0 -36 5 -36 10 0 6 13 10 29 10 17 0 33
-4 36 -10z m222 -34 c46 -53 54 -94 13 -68 -11 7 -27 12 -35 12 -11 0 -15 11
-15 40 0 46 8 50 37 16z"/>
</g>
</svg>
