<?xml version="1.0" standalone="no"?>
<!DOCTYPE svg PUBLIC "-//W3C//DTD SVG 20010904//EN"
 "http://www.w3.org/TR/2001/REC-SVG-20010904/DTD/svg10.dtd">
<svg version="1.0" xmlns="http://www.w3.org/2000/svg"
 width="492.202339pt" height="242.852384pt" viewBox="0 0 492.202339 242.852384"
 preserveAspectRatio="xMidYMid meet">
<metadata>
Created by Potrace Professional 1.0m
</metadata>
<g transform="translate(0.218640,242.852384) rotate(-360.00) scale(0.100000,-0.100000)"
fill="#000000" stroke="none">
<path d="M1463 2423 c-24 -2 -43 -8 -43 -14 0 -5 -9 -9 -20 -9 -11 0 -20 -4
-20 -10 0 -5 -9 -10 -20 -10 -11 0 -20 -4 -20 -10 0 -5 -9 -10 -20 -10 -11 0
-20 -4 -20 -10 0 -5 -6 -10 -13 -10 -7 0 -23 -9 -35 -20 -12 -11 -28 -20 -37
-20 -8 0 -15 -4 -15 -8 0 -5 -12 -15 -27 -23 -45 -23 -147 -131 -160 -170 -29
-82 -8 -189 50 -253 9 -11 17 -24 17 -29 0 -17 126 -117 148 -117 5 0 14 -11
22 -24 9 -19 10 -32 1 -56 -7 -21 -7 -38 -1 -50 6 -10 10 -32 10 -49 0 -16 5
-33 10 -36 6 -3 10 -27 10 -52 l0 -45 -44 -43 c-67 -64 -116 -67 -181 -11 -16
14 -36 26 -42 26 -7 0 -13 4 -13 8 0 4 -18 19 -40 32 -22 14 -40 28 -40 33 0
4 -5 7 -11 7 -7 0 -22 10 -34 23 -13 12 -39 37 -59 55 -42 39 -43 45 -16 74
29 31 27 68 -3 68 l-24 0 1 41 c1 63 -37 80 -57 25 -2 -5 -13 -3 -25 5 l-22
14 -16 -23 c-11 -17 -19 -20 -28 -13 -18 15 -26 3 -26 -41 l0 -38 -25 6 c-16
4 -30 0 -41 -10 -9 -10 -15 -18 -13 -20 2 -1 20 -13 39 -26 19 -13 42 -32 51
-42 9 -10 21 -18 28 -18 6 0 83 -72 171 -160 89 -88 167 -160 175 -160 30 0
13 -32 -48 -95 -71 -72 -92 -79 -152 -45 -20 11 -42 20 -50 20 -8 0 -15 5 -15
10 0 6 -9 10 -20 10 -11 0 -20 5 -20 10 0 6 -9 10 -20 10 -11 0 -20 5 -20 10
0 6 -9 10 -20 10 -11 0 -20 5 -20 10 0 6 -6 10 -12 10 -7 0 -29 14 -48 30 -19
16 -42 30 -51 30 -9 0 -30 14 -47 30 -18 17 -36 30 -42 30 -6 0 -30 19 -54 43
-41 41 -61 91 -49 125 8 23 54 13 83 -18 39 -42 53 -38 69 18 7 26 16 56 21
67 4 11 13 33 19 48 6 15 11 39 11 52 0 14 5 25 10 25 6 0 10 10 10 23 l0 22
-97 -4 c-54 -1 -106 -7 -115 -12 -9 -5 -48 -9 -87 -9 -88 0 -92 -11 -21 -60
68 -47 69 -50 41 -107 -32 -64 -47 -126 -33 -131 7 -2 12 -10 12 -18 0 -15 84
-104 98 -104 4 0 17 -8 28 -17 26 -23 61 -43 75 -43 6 0 19 -8 28 -17 18 -20
67 -52 94 -60 9 -3 17 -9 17 -14 0 -5 9 -9 20 -9 11 0 20 -3 20 -8 0 -4 14
-13 30 -20 43 -19 37 -32 -14 -32 -24 0 -51 -2 -58 -5 -9 -4 -18 7 -26 29 -7
18 -20 36 -30 38 -19 5 -101 -5 -177 -22 -27 -6 -68 -14 -90 -17 -22 -3 -45
-10 -52 -15 -6 -5 -41 -10 -77 -10 -47 0 -69 -5 -78 -16 -10 -12 -10 -16 0
-19 19 -7 14 -34 -9 -54 l-21 -18 15 -16 c9 -8 27 -15 41 -15 14 0 26 -4 26
-10 0 -5 -4 -10 -10 -10 -5 0 -10 -9 -10 -20 0 -16 7 -20 30 -20 35 0 37 -4
11 -32 -11 -11 -17 -26 -14 -34 6 -15 73 -20 73 -5 0 5 21 19 48 31 26 12 56
30 67 40 11 10 37 28 59 39 60 34 66 23 66 -133 1 -72 6 -160 13 -196 l12 -65
38 -3 c25 -2 46 3 66 17 16 12 32 21 36 21 4 0 15 8 24 18 9 9 28 23 44 31 15
8 27 18 27 23 0 4 7 8 16 8 9 0 29 14 44 30 15 17 33 30 40 30 7 0 25 14 40
30 15 17 32 30 38 30 5 0 29 19 53 42 24 24 44 37 47 30 2 -7 11 -12 21 -12 9
0 23 -9 31 -20 8 -11 19 -20 25 -20 6 0 20 -8 31 -17 25 -23 74 -53 97 -60 9
-3 17 -9 17 -14 0 -5 6 -9 13 -9 6 0 24 -10 39 -23 14 -12 36 -30 47 -39 22
-19 28 -38 11 -38 -6 0 -10 -33 -10 -79 0 -44 -5 -83 -10 -86 -5 -3 -10 -28
-10 -55 0 -72 -5 -80 -56 -80 -24 0 -44 5 -44 10 0 6 -8 10 -17 10 -22 0 -43
43 -43 85 0 18 -3 34 -6 38 -11 11 -34 -5 -34 -24 0 -10 -4 -19 -10 -19 -14 0
-12 -86 3 -112 19 -35 79 -88 98 -88 10 0 30 -5 44 -12 l25 -11 0 -49 0 -48
30 0 c17 0 30 5 30 10 0 6 9 10 20 10 11 0 20 5 20 10 0 6 6 10 14 10 12 0 44
14 118 51 10 5 25 9 33 9 8 0 15 3 15 8 0 11 51 32 77 32 13 0 23 5 23 10 0 6
13 10 29 10 17 0 33 4 36 10 3 5 16 10 27 10 21 0 78 51 78 69 0 5 -7 17 -16
25 l-15 16 16 16 c9 9 14 23 11 31 -3 8 -6 17 -6 19 0 2 -9 4 -20 4 -13 0 -20
7 -20 20 0 14 -7 20 -24 20 -24 0 -108 -39 -114 -52 -2 -5 -12 -8 -23 -8 -10
0 -19 -4 -19 -10 0 -5 -6 -10 -12 -10 -7 0 -24 -9 -38 -20 -14 -11 -35 -20
-47 -20 -13 0 -23 -4 -23 -10 0 -5 -5 -10 -11 -10 -7 0 -9 13 -5 38 3 20 9 61
12 90 4 29 10 55 15 58 5 3 9 16 9 30 0 14 5 34 11 45 16 31 16 102 -1 107 -8
3 -24 14 -35 26 -26 25 -73 55 -97 63 -10 3 -18 9 -18 14 0 5 -7 9 -15 9 -38
0 -82 68 -55 85 6 3 10 22 10 41 0 19 5 34 10 34 6 0 10 10 10 22 0 23 16 77
33 116 10 22 47 31 47 12 0 -5 9 -10 20 -10 11 0 20 -4 20 -10 0 -5 11 -10 24
-10 14 0 28 -4 31 -10 3 -5 17 -10 30 -10 13 0 26 -4 29 -9 3 -5 20 -11 38
-13 24 -4 38 1 60 22 15 15 28 34 28 43 0 9 5 19 10 22 6 3 10 15 10 25 0 10
23 43 50 73 36 39 50 63 50 84 0 35 -16 53 -46 53 -13 0 -26 5 -29 10 -3 6
-28 10 -56 10 -27 0 -49 -4 -49 -10 0 -5 -8 -10 -17 -10 l-18 0 25 23 c27 23
57 70 67 100 l6 19 36 -7 c20 -3 55 -8 79 -11 23 -4 42 -10 42 -15 0 -5 25 -9
56 -9 30 0 65 -5 77 -11 16 -9 22 -9 25 0 2 6 21 11 43 11 21 0 39 5 39 10 0
6 12 10 26 10 28 0 42 11 63 53 8 15 18 27 23 27 4 0 8 32 8 70 0 40 -4 70
-10 70 -5 0 -10 9 -10 20 0 11 -4 20 -10 20 -5 0 -10 8 -10 18 0 10 -9 24 -20
32 -11 8 -20 20 -20 27 0 6 -6 16 -14 20 -7 4 -42 34 -76 66 -35 31 -69 57
-76 57 -8 0 -14 4 -14 8 0 4 -21 13 -47 20 -27 8 -56 18 -65 23 -22 11 -48 12
-48 1 0 -11 48 -52 61 -52 16 0 159 -149 159 -165 0 -8 5 -15 10 -15 6 0 10
-9 10 -19 0 -11 5 -23 10 -26 27 -17 -4 -115 -36 -115 -8 0 -14 -4 -14 -10 0
-13 -68 -13 -123 -1 -23 6 -54 12 -70 16 -38 8 -67 40 -67 74 0 52 -61 141
-96 141 -12 0 -24 5 -26 11 -2 7 -12 7 -31 0 -16 -6 -41 -11 -57 -11 -16 0
-30 -5 -32 -11 -3 -8 -11 -8 -28 2 -37 21 -130 116 -130 133 0 8 -6 16 -12 19
-9 3 -13 30 -12 95 l1 92 21 19 c12 10 22 23 22 29 0 15 206 222 220 222 6 0
18 6 26 14 15 15 19 37 7 34 -5 -1 -27 -3 -50 -5z m-11 -1095 c12 -7 28 -18
35 -25 15 -14 17 -43 3 -43 -5 0 -10 -9 -10 -20 0 -11 4 -20 8 -20 5 0 14 -11
22 -24 l13 -24 -25 -25 -25 -25 -37 11 c-20 7 -36 15 -36 19 0 5 -9 8 -20 8
-11 0 -20 5 -20 10 0 6 -6 10 -12 10 -7 0 -21 7 -32 15 l-18 14 15 15 c9 9 20
16 25 16 5 0 18 12 27 27 16 24 56 71 63 72 1 1 12 -5 24 -11z m-752 -318 c0
-5 -4 -10 -10 -10 -5 0 -10 5 -10 10 0 6 5 10 10 10 6 0 10 -4 10 -10z m90
-48 c0 -17 -27 -57 -61 -91 -34 -34 -79 -71 -87 -71 -5 0 -23 -13 -40 -30 -49
-47 -62 -41 -62 29 0 33 -4 63 -10 66 -5 3 -10 15 -10 25 0 24 56 50 106 50
18 0 36 5 39 10 4 7 12 7 25 0 24 -13 70 -13 70 0 0 6 -4 10 -10 10 -5 0 -10
5 -10 10 0 6 11 10 25 10 17 0 25 -5 25 -18z"/>
<path d="M4080 2327 c0 -7 -9 -23 -20 -35 -11 -12 -20 -25 -20 -30 0 -13 -151
-165 -157 -158 -3 2 6 16 20 30 14 14 34 39 43 56 10 16 22 30 26 30 4 0 8 9
8 19 0 11 6 21 13 24 9 3 9 11 2 32 -14 40 -28 40 -44 3 -12 -27 -103 -128
-116 -128 -9 0 11 47 27 64 18 20 25 76 10 76 -5 0 -15 -11 -22 -25 -7 -14
-19 -25 -25 -25 -6 0 -21 -9 -33 -20 -12 -11 -26 -20 -33 -20 -6 0 -24 -13
-39 -30 -15 -16 -34 -30 -42 -30 -7 0 -20 -9 -28 -20 -8 -11 -22 -20 -32 -20
-10 0 -18 -4 -18 -10 0 -5 -9 -10 -20 -10 -11 0 -20 -4 -20 -10 0 -5 -9 -10
-19 -10 -11 0 -23 -4 -26 -10 -3 -5 -17 -10 -31 -10 -13 0 -24 -4 -24 -10 0
-5 -6 -10 -13 -10 -7 0 -22 -8 -33 -17 -30 -27 -62 -43 -83 -43 -11 0 -23 -4
-26 -10 -3 -5 -19 -10 -36 -10 -16 0 -29 -4 -29 -10 0 -5 -7 -10 -15 -10 -26
0 -66 -48 -86 -103 -20 -54 -25 -117 -10 -117 5 0 11 -15 14 -32 15 -82 21
-103 40 -124 14 -17 31 -24 55 -24 21 0 41 -7 51 -18 33 -38 145 -37 154 0 l6
20 45 -45 c25 -25 46 -48 46 -52 0 -7 -190 -1 -270 9 -30 4 -59 11 -65 17 -5
5 -17 9 -27 9 -10 0 -18 5 -18 10 0 6 -9 10 -20 10 -11 0 -20 5 -20 10 0 6 -9
10 -20 10 -11 0 -20 5 -20 10 0 6 -9 10 -20 10 -11 0 -20 5 -20 10 0 6 -8 10
-18 10 -10 0 -22 4 -27 9 -6 5 -39 12 -75 15 -118 10 -163 18 -197 37 -63 36
-82 15 -43 -49 11 -18 20 -38 20 -45 0 -32 59 -74 163 -116 32 -13 27 -31 -9
-31 -33 0 -40 -24 -16 -50 29 -32 69 -50 108 -50 33 0 46 -14 22 -23 -19 -6
42 -57 69 -57 12 0 25 -4 28 -10 3 -5 35 -10 71 -10 63 0 90 -16 37 -22 -34
-4 -46 -38 -14 -38 12 0 21 -4 21 -9 0 -14 102 -21 170 -10 112 17 130 21 136
30 3 5 16 9 30 9 13 0 24 4 24 8 0 5 21 20 48 33 26 13 49 27 50 32 2 4 12 7
23 7 l19 0 0 -50 c0 -27 4 -50 9 -50 5 0 12 -33 15 -72 3 -40 8 -95 12 -122
l6 -49 -18 8 c-20 10 -162 21 -365 31 l-126 5 -34 -34 c-19 -19 -40 -46 -48
-61 -8 -14 -17 -26 -21 -26 -10 0 -47 -37 -95 -94 -22 -27 -59 -61 -81 -77
l-42 -29 -86 85 c-47 47 -86 92 -86 100 0 9 -9 15 -23 15 -61 0 -79 -92 -27
-140 17 -15 30 -33 30 -39 0 -21 24 -53 94 -128 l70 -73 33 0 c33 0 83 33 83
55 0 17 61 78 90 91 104 45 170 88 170 112 0 5 14 23 30 41 l30 31 28 -6 c15
-4 29 -11 30 -16 2 -4 21 -8 43 -8 21 0 39 -4 39 -10 0 -5 10 -10 22 -10 12 0
35 -4 52 -9 71 -22 176 -35 188 -23 15 15 118 16 118 2 0 -5 -4 -10 -10 -10
-5 0 -10 -6 -10 -13 0 -7 -9 -23 -20 -35 -11 -12 -20 -28 -20 -37 0 -8 -4 -15
-8 -15 -5 0 -15 -12 -23 -27 -8 -16 -17 -30 -20 -33 -3 -3 -9 -17 -12 -31 -8
-30 11 -55 56 -78 15 -8 27 -18 27 -23 0 -4 7 -8 15 -8 9 0 35 -9 57 -20 23
-11 48 -20 55 -20 7 0 13 -4 13 -10 0 -5 9 -10 19 -10 11 0 23 -4 26 -10 3 -5
17 -10 31 -10 13 0 24 -4 24 -10 0 -5 7 -10 16 -10 15 0 44 -23 44 -34 0 -3
-9 -6 -20 -6 -11 0 -20 -4 -20 -10 0 -5 -9 -10 -19 -10 -11 0 -21 -3 -23 -7
-1 -5 -23 -15 -48 -24 -56 -20 -59 -44 -10 -72 19 -10 38 -24 41 -29 3 -5 35
-10 70 -10 48 -1 73 4 102 21 21 11 54 21 73 21 46 0 94 33 94 65 0 18 -32 57
-115 140 -64 63 -121 115 -128 115 -7 0 -19 9 -27 20 -8 11 -19 20 -25 20 -19
0 -65 47 -65 67 0 10 9 29 20 41 11 12 20 27 20 34 0 8 9 20 20 28 11 8 20 20
20 27 0 7 14 27 30 45 17 17 30 36 30 42 0 6 9 18 20 26 11 8 20 22 20 32 0
10 5 18 10 18 6 0 10 9 10 19 0 11 6 21 13 24 10 3 10 9 0 26 -7 11 -13 28
-13 36 0 8 -4 15 -10 15 -5 0 -10 9 -10 20 0 11 -4 20 -9 20 -5 0 -11 13 -14
29 -3 16 -12 35 -19 43 -20 21 -38 56 -38 73 0 8 -4 15 -9 15 -5 0 -14 14 -21
30 -7 17 -16 30 -20 30 -4 0 -10 8 -14 18 -3 9 -9 23 -12 30 -8 17 24 15 42
-3 9 -8 27 -17 42 -20 15 -3 41 -10 58 -15 40 -13 151 -13 159 0 3 6 14 10 24
10 21 0 71 22 71 33 0 4 9 7 20 7 13 0 20 7 20 20 l0 20 -65 0 c-61 0 -92 9
-122 37 -7 6 -13 15 -13 18 0 7 93 1 168 -11 28 -4 48 -2 55 5 6 6 21 11 34
11 45 0 173 95 159 118 -3 5 -29 11 -59 14 -50 4 -197 63 -197 79 0 4 24 10
53 12 83 9 127 18 127 28 0 5 6 9 13 9 18 0 67 24 67 33 0 4 7 7 15 7 33 0 88
45 118 99 l18 31 -15 6 c-9 3 -30 1 -47 -5 -40 -14 -129 -14 -129 -1 0 6 9 10
20 10 11 0 20 5 20 10 0 6 9 10 20 10 11 0 20 3 20 8 0 4 17 18 38 31 38 23
96 95 140 172 12 22 22 42 22 44 0 10 -47 4 -58 -7 -6 -6 -15 -8 -19 -3 -5 4
-2 10 5 12 6 3 12 11 12 19 0 8 18 33 40 55 22 23 40 50 40 60 0 10 5 21 10
24 12 7 14 105 2 105 -5 0 -17 -9 -27 -20 -10 -11 -24 -20 -32 -20 -7 0 -13
-4 -13 -10 0 -5 -7 -10 -15 -10 -9 0 -25 -9 -37 -20 -12 -11 -28 -20 -35 -20
-7 0 -13 -4 -13 -10 0 -5 -6 -10 -13 -10 -18 0 -67 -24 -67 -32 0 -5 -9 -8
-20 -8 -11 0 -20 -4 -20 -10 0 -5 -9 -10 -20 -10 -11 0 -20 -4 -20 -10 0 -5
-9 -10 -20 -10 -11 0 -20 -4 -20 -10 0 -5 -6 -10 -13 -10 -7 0 -23 -9 -35 -20
-12 -11 -25 -20 -31 -20 -9 0 -92 -41 -101 -50 -12 -12 -51 -30 -65 -30 -8 0
-15 -4 -15 -10 0 -5 -6 -10 -13 -10 -7 0 -23 -9 -35 -20 -12 -11 -28 -20 -37
-20 -8 0 -15 -4 -15 -10 0 -5 -9 -10 -20 -10 -11 0 -20 -4 -20 -10 0 -5 -9
-10 -20 -10 -11 0 -20 -4 -20 -10 0 -5 -9 -10 -20 -10 -11 0 -20 -4 -20 -10 0
-5 -10 -10 -22 -10 -13 0 -34 -9 -48 -20 -14 -11 -35 -20 -47 -20 -13 0 -23
-4 -23 -10 0 -5 -7 -10 -15 -10 -8 0 -15 5 -15 10 0 6 7 10 15 10 8 0 15 6 15
14 0 8 26 41 58 73 31 32 70 75 85 96 15 20 34 37 40 37 7 0 19 9 27 20 10 14
26 20 52 20 l38 0 0 19 c0 35 -116 33 -152 -2 -22 -22 -48 -28 -48 -12 0 8 5
15 10 15 6 0 10 8 10 18 0 10 9 24 20 32 11 8 20 22 20 32 0 10 5 18 10 18 6
0 10 11 10 24 0 14 5 28 10 31 15 9 12 54 -4 71 -18 17 -26 18 -26 1z m-300
-572 c0 -3 -13 -19 -30 -37 -16 -17 -30 -37 -30 -44 0 -8 -4 -14 -10 -14 -5 0
-10 -6 -10 -13 0 -24 -25 -67 -42 -73 -33 -10 -148 65 -148 97 0 25 81 69 126
69 13 0 24 5 24 10 0 6 27 10 60 10 33 0 60 -2 60 -5z"/>
<path d="M3195 2110 c-3 -5 -14 -10 -23 -10 -9 0 -30 -12 -47 -26 -16 -14 -42
-33 -57 -42 -16 -9 -28 -21 -28 -28 0 -6 -9 -19 -19 -28 -20 -18 -32 -61 -24
-83 6 -15 63 -18 63 -3 0 6 6 10 13 10 7 0 23 9 35 20 12 11 26 20 32 20 7 0
28 17 48 38 20 21 45 41 55 45 9 3 17 13 17 22 0 8 5 15 10 15 15 0 12 29 -4
46 -17 16 -62 19 -71 4z m25 -46 c0 -18 -67 -84 -85 -84 -6 0 -17 -9 -25 -20
-8 -11 -22 -20 -31 -20 -10 0 -19 -6 -22 -12 -2 -7 -7 -10 -11 -6 -4 3 -1 16
6 29 18 32 100 109 115 109 7 0 13 5 13 10 0 6 9 10 20 10 12 0 20 -7 20 -16z"/>
<path d="M2180 1250 c0 -5 -15 -10 -32 -10 -18 0 -44 -9 -58 -20 -14 -11 -29
-20 -34 -20 -12 0 -56 -52 -56 -67 0 -6 -4 -13 -9 -15 -9 -3 -15 -63 -12 -129
1 -28 11 -46 45 -82 24 -26 53 -47 64 -47 12 0 24 -4 27 -10 3 -5 42 -10 86
-10 46 0 79 4 79 10 0 6 11 10 25 10 27 0 55 23 93 77 26 37 30 131 8 185 -18
43 -69 98 -89 98 -9 0 -19 5 -22 10 -3 6 -17 10 -31 10 -13 0 -24 5 -24 10 0
6 -13 10 -30 10 -16 0 -30 -4 -30 -10z"/>
</g>
</svg>
