<?xml version="1.0" standalone="no"?>
<!DOCTYPE svg PUBLIC "-//W3C//DTD SVG 20010904//EN"
 "http://www.w3.org/TR/2001/REC-SVG-20010904/DTD/svg10.dtd">
<svg version="1.0" xmlns="http://www.w3.org/2000/svg"
 width="212.373377pt" height="202.000000pt" viewBox="0 0 212.373377 202.000000"
 preserveAspectRatio="xMidYMid meet">
<metadata>
Created by Potrace Professional 1.0m
</metadata>
<g transform="translate(-2.000000,202.000000) rotate(-360.00) scale(0.100000,-0.100000)"
fill="#000000" stroke="none">
<path d="M440 2010 c0 -5 -7 -10 -16 -10 -9 0 -24 -8 -33 -18 -9 -10 -32 -29
-51 -42 -45 -31 -60 -46 -60 -59 0 -6 -9 -15 -20 -21 -12 -6 -20 -21 -20 -35
0 -14 -4 -25 -10 -25 -5 0 -10 -9 -10 -20 0 -11 -10 -36 -22 -57 -11 -21 -31
-56 -42 -78 -12 -22 -29 -48 -38 -59 -9 -10 -22 -38 -29 -62 -8 -24 -17 -44
-21 -44 -4 0 -8 -9 -8 -20 0 -11 -4 -20 -10 -20 -5 0 -10 -9 -10 -20 0 -11 -4
-20 -10 -20 -5 0 -10 -13 -10 -30 0 -36 20 -40 52 -10 12 11 28 20 35 20 7 0
13 5 13 10 0 6 6 10 14 10 7 0 32 18 55 40 22 22 45 40 51 40 5 0 14 9 20 20
6 11 17 20 25 20 7 0 15 6 17 12 5 15 151 12 156 -3 2 -5 10 -9 18 -9 19 0 84
-65 84 -85 0 -8 5 -15 10 -15 6 0 10 -9 10 -19 0 -11 5 -23 10 -26 6 -3 10
-19 10 -34 0 -15 4 -31 8 -37 5 -5 17 -35 26 -67 10 -32 24 -64 32 -72 8 -7
14 -21 14 -29 0 -9 4 -16 8 -16 5 0 19 -22 31 -50 12 -27 27 -50 32 -50 5 0 9
-7 9 -15 0 -16 249 -271 293 -299 15 -10 27 -24 27 -30 0 -6 9 -18 20 -26 15
-11 20 -26 20 -62 0 -26 -5 -50 -10 -53 -5 -3 -10 -26 -10 -51 0 -24 -4 -44
-10 -44 -5 0 -10 -7 -10 -16 0 -28 -51 -64 -90 -64 -20 0 -40 4 -46 10 -9 9
-78 15 -146 12 -30 -2 -38 -6 -38 -21 0 -11 5 -21 12 -23 9 -3 9 -6 0 -12 -7
-4 -12 -2 -12 3 0 15 -33 14 -48 -1 -19 -19 -14 -56 8 -63 24 -7 27 -25 5 -25
-24 0 -66 -46 -59 -64 7 -17 44 -22 59 -7 6 5 34 11 63 14 60 7 73 -12 23 -33
-34 -14 -41 -26 -34 -63 6 -32 28 -35 43 -7 l11 20 54 0 c29 0 57 5 60 10 3 6
17 10 31 10 13 0 24 5 24 10 0 6 14 10 30 10 17 0 30 5 30 10 0 6 14 10 30 10
17 0 30 5 30 10 0 6 14 10 30 10 17 0 30 -4 30 -10 0 -5 6 -10 14 -10 8 0 34
-10 58 -21 23 -12 60 -30 81 -40 22 -11 49 -19 62 -19 13 0 27 -4 30 -10 3 -5
17 -10 31 -10 l24 0 0 29 c0 20 -6 32 -19 36 -10 3 -31 17 -47 30 -18 16 -41
25 -61 25 -18 0 -33 5 -33 10 0 6 -11 10 -25 10 -24 0 -75 35 -75 52 0 4 34 8
76 8 73 0 104 11 104 38 0 22 -51 42 -105 42 l-55 0 0 20 c0 11 5 20 10 20 6
0 10 8 10 19 0 11 12 23 30 31 17 7 30 16 30 21 0 5 23 9 50 9 28 0 50 5 50
10 0 6 11 10 25 10 14 0 34 6 45 12 16 10 24 10 40 0 11 -6 26 -12 33 -12 17
0 97 -86 97 -105 0 -8 5 -15 10 -15 6 0 10 -9 10 -20 0 -11 5 -20 10 -20 6 0
10 -9 10 -20 0 -11 5 -20 10 -20 6 0 10 -6 10 -13 0 -7 9 -23 20 -35 11 -12
20 -26 20 -32 0 -5 13 -24 30 -42 16 -17 30 -35 30 -41 0 -14 108 -117 123
-117 7 0 17 4 22 9 6 6 23 11 38 13 15 2 37 12 47 21 11 9 26 17 34 17 20 0
45 32 29 37 -7 3 -13 13 -13 24 0 10 -4 19 -10 19 -5 0 -10 7 -10 15 0 9 -9
25 -20 37 -11 12 -20 29 -20 38 0 9 -9 26 -20 38 -11 12 -20 25 -20 29 0 4
-11 21 -25 37 -14 16 -25 33 -25 38 0 13 28 9 32 -4 8 -22 41 20 35 43 l-5 20
36 -7 c21 -3 44 -8 52 -10 8 -2 21 1 29 5 l15 9 -30 29 c-17 15 -43 47 -58 70
-16 23 -39 49 -52 58 -13 8 -24 23 -24 33 0 16 -55 93 -72 100 -5 2 -8 10 -8
18 0 17 -18 50 -41 76 -9 10 -22 36 -29 58 -7 22 -20 47 -29 57 -9 10 -22 30
-30 46 -8 15 -18 27 -23 27 -4 0 -8 11 -8 24 0 14 -4 28 -10 31 -5 3 -10 15
-10 26 0 10 -4 19 -10 19 -5 0 -10 9 -10 20 0 11 -4 20 -9 20 -5 0 -11 13 -14
29 -3 16 -12 35 -19 42 -7 8 -24 35 -37 62 -13 26 -27 47 -31 47 -4 0 -18 21
-31 48 -13 26 -32 54 -41 63 -10 9 -18 21 -18 27 0 6 -9 16 -20 22 -11 6 -20
15 -20 21 0 14 -80 92 -113 108 -15 8 -27 18 -27 23 0 4 -9 8 -20 8 -11 0 -20
4 -20 8 0 9 -89 52 -108 52 -7 0 -12 4 -12 9 0 5 -8 11 -17 14 -10 3 -29 12
-43 20 -14 8 -36 19 -50 24 -58 23 -86 40 -111 66 -14 15 -34 27 -43 27 -9 0
-16 4 -16 8 0 5 -12 15 -27 23 -15 8 -41 26 -57 42 -16 15 -35 27 -42 27 -8 0
-14 5 -14 10 0 6 -13 10 -29 10 -17 0 -33 5 -36 10 -3 6 -17 10 -31 10 -13 0
-24 5 -24 10 0 6 -37 10 -90 10 -53 0 -90 -4 -90 -10z"/>
</g>
</svg>
