<?xml version="1.0" standalone="no"?>
<!DOCTYPE svg PUBLIC "-//W3C//DTD SVG 20010904//EN"
 "http://www.w3.org/TR/2001/REC-SVG-20010904/DTD/svg10.dtd">
<svg version="1.0" xmlns="http://www.w3.org/2000/svg"
 width="172.000000pt" height="160.003024pt" viewBox="0 0 172.000000 160.003024"
 preserveAspectRatio="xMidYMid meet">
<metadata>
Created by Potrace Professional 1.0m
</metadata>
<g transform="translate(-0.000000,162.003024) rotate(-360.00) scale(0.100000,-0.100000)"
fill="#000000" stroke="none">
<path d="M1560 1590 c0 -32 -9 -37 -27 -19 -13 13 -33 4 -33 -14 0 -7 -9 -19
-20 -27 -12 -8 -20 -26 -20 -42 0 -15 -4 -30 -10 -33 -5 -3 -10 -21 -10 -40 0
-19 5 -37 10 -40 6 -3 10 -22 10 -41 l0 -34 -20 0 c-15 0 -20 -7 -20 -29 0
-17 5 -33 10 -36 6 -3 10 -22 10 -41 l0 -34 -20 0 -20 0 0 -104 c0 -59 -4
-108 -10 -111 -5 -3 -10 -21 -10 -39 0 -34 -20 -86 -33 -86 -6 0 -5 38 8 203
3 38 1 57 -7 57 -7 0 -9 19 -4 61 l6 61 -26 -6 -27 -7 6 35 c4 25 1 36 -9 40
-8 3 -14 19 -14 36 0 23 -4 30 -20 30 -14 0 -20 7 -20 21 0 16 -4 19 -20 14
-16 -5 -20 -2 -20 14 0 12 -4 21 -10 21 -5 0 -10 -7 -10 -15 0 -8 -4 -15 -10
-15 -5 0 -10 16 -10 35 l0 35 -24 0 c-16 0 -27 7 -31 20 -4 14 -15 20 -36 20
-16 0 -29 5 -29 10 0 6 -4 10 -10 10 -5 0 -10 -9 -10 -20 0 -11 -4 -20 -10
-20 -5 0 -10 9 -10 20 0 13 -7 20 -20 20 -11 0 -20 -4 -20 -10 0 -14 -37 -12
-43 3 -3 9 -9 9 -27 -1 -15 -9 -25 -10 -29 -3 -7 11 -69 10 -88 -2 -7 -5 -13
-17 -13 -28 0 -12 -7 -19 -19 -19 -11 0 -23 -9 -26 -20 -3 -11 -11 -20 -16
-20 -14 0 -31 -19 -48 -52 -8 -16 -22 -28 -31 -28 -12 0 -19 -14 -26 -47 l-9
-48 -22 -3 c-18 -3 -23 -10 -23 -33 0 -22 -5 -29 -20 -29 l-20 0 0 -36 c0 -31
-18 -64 -34 -64 -10 0 -6 70 4 91 8 15 7 23 -4 34 -22 22 -52 18 -74 -10 -19
-24 -52 -26 -52 -4 0 13 -44 11 -58 -3 -8 -8 -15 -8 -27 2 -10 8 -33 11 -66 8
-30 -3 -55 -1 -63 6 -19 17 -54 36 -68 36 -18 0 -40 -38 -31 -53 21 -33 33
-90 33 -164 l0 -83 -30 0 c-36 0 -37 -3 -5 -38 29 -31 31 -42 10 -42 -8 0 -15
-9 -15 -20 0 -16 7 -20 30 -20 17 0 30 -4 30 -10 0 -5 -7 -10 -15 -10 -23 0
-65 -49 -65 -75 0 -34 23 -32 62 5 17 17 40 30 50 30 11 0 33 -13 48 -30 l28
-30 45 0 c27 0 47 5 50 13 3 9 7 9 20 -2 13 -10 17 -31 17 -92 0 -62 5 -86 21
-116 29 -50 29 -111 1 -151 -12 -16 -22 -37 -22 -45 0 -9 -5 -19 -10 -22 -6
-3 -10 -19 -10 -35 0 -42 -39 -107 -72 -121 -21 -9 -28 -18 -28 -39 0 -33 17
-38 110 -30 l65 5 3 38 c2 20 7 37 13 37 5 0 9 9 9 20 0 11 5 20 10 20 6 0 10
6 10 13 0 13 43 67 54 67 3 0 6 -9 6 -20 0 -11 5 -20 10 -20 6 0 10 -18 10
-40 0 -22 -4 -40 -10 -40 -15 0 -12 -49 4 -66 24 -23 99 -18 124 9 23 24 30
81 12 92 -5 3 -10 19 -10 35 0 16 -4 32 -10 35 -5 3 -10 45 -10 93 l0 88 50
52 c27 29 50 59 50 67 0 8 5 15 10 15 6 0 10 20 10 44 0 25 4 48 10 51 6 3 10
19 10 36 0 16 5 29 10 29 6 0 10 9 10 20 0 11 5 20 10 20 6 0 10 7 10 15 0 9
16 32 35 51 l35 35 16 -16 c16 -16 16 -38 -2 -138 -6 -37 13 -127 28 -127 4 0
8 -9 8 -20 0 -11 7 -20 15 -20 20 0 185 -165 185 -185 0 -8 5 -15 10 -15 6 0
10 -11 10 -24 0 -14 -4 -28 -10 -31 -5 -3 -10 -24 -10 -46 0 -21 -4 -39 -10
-39 -5 0 -10 -9 -10 -20 0 -11 -4 -20 -10 -20 -5 0 -10 -9 -10 -20 0 -12 -7
-20 -16 -20 -23 0 -44 -25 -44 -54 l0 -26 78 0 c89 0 102 8 102 60 0 34 14 60
32 60 4 0 8 -13 8 -30 0 -16 -4 -30 -10 -30 -15 0 -12 -36 4 -49 9 -7 40 -11
78 -9 l63 3 3 39 c2 21 -1 43 -7 49 -6 6 -11 19 -11 29 0 10 -4 18 -10 18 -5
0 -10 15 -10 33 0 18 -5 38 -12 45 -9 9 -8 21 2 52 l13 40 -14 28 c-7 15 -21
39 -31 54 -18 26 -25 88 -10 88 10 0 32 73 32 105 0 40 53 115 81 115 6 0 24
14 39 30 17 18 38 30 54 30 14 0 26 5 26 10 0 6 6 10 14 10 18 0 46 43 46 72
0 13 9 30 20 38 11 8 20 20 20 28 0 7 9 22 20 34 11 12 20 35 20 50 0 16 9 38
20 50 13 15 20 36 20 64 0 24 5 46 10 49 6 3 10 31 10 61 0 30 5 54 10 54 6 0
10 31 10 74 0 41 -4 78 -10 81 -5 3 -10 21 -10 40 0 19 -4 37 -10 40 -5 3 -10
16 -10 29 0 31 -9 37 -31 23 l-18 -11 -19 22 c-28 32 -52 29 -52 -8z m-1380
-670 c0 -11 -4 -20 -10 -20 -5 0 -10 9 -10 20 0 11 5 20 10 20 6 0 10 -9 10
-20z m135 10 c3 -5 1 -10 -4 -10 -6 0 -11 -9 -11 -20 0 -11 -4 -20 -10 -20
-11 0 -14 43 -3 53 9 10 21 9 28 -3z"/>
</g>
</svg>
