<?xml version="1.0" standalone="no"?>
<!DOCTYPE svg PUBLIC "-//W3C//DTD SVG 20010904//EN"
 "http://www.w3.org/TR/2001/REC-SVG-20010904/DTD/svg10.dtd">
<svg version="1.0" xmlns="http://www.w3.org/2000/svg"
 width="326.450479pt" height="236.000000pt" viewBox="0 0 326.450479 236.000000"
 preserveAspectRatio="xMidYMid meet">
<metadata>
Created by Potrace Professional 1.0m
</metadata>
<g transform="translate(-1.807182,236.000000) rotate(-360.00) scale(0.100000,-0.100000)"
fill="#000000" stroke="none">
<path d="M2740 2320 c0 -21 -4 -49 -9 -62 -5 -13 -14 -43 -21 -68 -7 -25 -16
-53 -21 -62 -5 -10 -9 -22 -9 -28 0 -6 -9 -20 -20 -32 -11 -12 -20 -30 -20
-39 0 -10 -4 -21 -10 -24 -5 -3 -10 -13 -10 -22 0 -9 -8 -23 -18 -32 -10 -9
-21 -24 -25 -33 -4 -11 -17 -18 -32 -18 -14 0 -25 -4 -25 -10 0 -5 -11 -10
-25 -10 -17 0 -38 -14 -62 -40 -29 -31 -45 -40 -69 -40 -18 0 -36 -4 -39 -10
-3 -5 -19 -10 -36 -10 -16 0 -29 -4 -29 -10 0 -5 -10 -10 -22 -10 -13 0 -31
-7 -40 -14 -19 -14 -24 -46 -8 -46 6 0 10 -9 10 -20 l0 -20 -45 0 -45 0 -32
-30 c-31 -30 -62 -38 -73 -20 -3 6 -25 10 -47 10 -40 0 -94 13 -130 31 -10 5
-27 9 -37 9 -11 0 -23 5 -26 10 -3 6 -21 10 -39 10 -17 0 -36 4 -41 9 -14 12
-82 22 -200 27 -55 3 -104 10 -110 15 -5 5 -20 9 -34 9 -30 0 -91 21 -91 32 0
17 43 46 77 51 53 9 153 -15 153 -35 0 -5 18 -8 40 -8 l40 0 0 20 c0 11 5 20
10 20 6 0 10 9 10 20 l0 20 44 0 c25 0 48 -4 51 -10 3 -5 33 -10 66 -10 33 0
59 4 59 10 0 6 9 10 20 10 l20 0 0 34 c0 35 -31 66 -65 66 -8 0 -15 4 -15 8 0
5 -12 15 -27 23 -46 24 -73 51 -73 75 0 13 -4 26 -10 29 -5 3 -10 17 -10 29 0
55 -54 136 -100 151 -11 3 -20 11 -20 16 0 5 -9 9 -20 9 -11 0 -20 5 -20 10 0
6 -13 10 -30 10 -16 0 -30 5 -30 11 0 17 -315 -3 -334 -22 -6 -5 -19 -9 -31
-9 -25 0 -75 -22 -75 -32 0 -5 8 -8 18 -8 9 0 23 -9 29 -20 7 -10 29 -22 48
-26 l36 -6 -7 -21 c-4 -11 -15 -30 -25 -41 -11 -11 -19 -30 -19 -43 0 -13 -4
-23 -10 -23 -6 0 -10 -26 -10 -59 l0 -59 -30 -14 c-16 -7 -30 -16 -30 -20 0
-5 -6 -8 -13 -8 -7 0 -22 -8 -33 -17 -10 -10 -31 -24 -47 -32 -26 -14 -38 -51
-17 -51 6 0 10 5 10 10 0 6 5 10 10 10 6 0 10 -26 10 -58 l0 -59 -27 -14 c-16
-8 -35 -22 -44 -31 -9 -10 -22 -18 -28 -18 -26 0 -121 -128 -121 -162 0 -10
-4 -18 -10 -18 -5 0 -10 -13 -10 -30 0 -16 -4 -30 -10 -30 -5 0 -10 -9 -10
-20 0 -11 -4 -20 -10 -20 -5 0 -10 -15 -10 -34 0 -19 -4 -37 -9 -40 -16 -10
-37 -360 -23 -389 5 -12 13 -30 16 -40 4 -11 16 -17 38 -17 26 0 36 -6 46 -27
6 -15 12 -33 12 -40 0 -7 4 -13 10 -13 5 0 20 -16 32 -35 13 -19 32 -38 43
-41 48 -15 95 -64 63 -64 -7 0 -29 -14 -48 -30 -19 -16 -41 -30 -47 -30 -7 0
-13 -4 -13 -8 0 -5 -12 -15 -27 -23 -16 -8 -30 -16 -33 -19 -10 -10 -50 -30
-60 -30 -6 0 -20 -9 -32 -20 -12 -11 -28 -20 -35 -20 -7 0 -13 -4 -13 -10 0
-5 -9 -10 -20 -10 -11 0 -20 -4 -20 -10 0 -5 -9 -10 -20 -10 -11 0 -20 -4 -20
-8 0 -5 -10 -13 -22 -19 -86 -40 -118 -57 -118 -65 0 -4 -6 -8 -12 -8 -11 0
-123 -51 -200 -91 -10 -5 -23 -9 -29 -9 -15 0 -39 -26 -39 -43 0 -9 -5 -17
-12 -19 -7 -3 -11 -22 -10 -46 2 -46 34 -92 64 -92 10 0 18 -4 18 -10 0 -5 9
-10 20 -10 11 0 20 5 20 10 0 6 8 10 18 10 10 0 24 9 32 20 8 11 22 20 32 20
10 0 18 4 18 9 0 5 8 11 18 14 26 8 75 40 93 60 9 9 24 17 33 17 9 0 16 4 16
8 0 5 12 15 27 23 16 8 35 22 44 31 9 10 23 18 30 18 8 0 21 9 29 20 8 11 19
20 25 20 5 0 26 14 45 30 19 16 40 30 45 30 6 0 17 9 25 20 8 11 20 20 28 20
7 0 22 9 34 20 12 11 28 20 35 20 7 0 13 5 13 10 0 6 6 10 14 10 7 0 27 14 44
30 18 17 35 30 39 30 5 0 24 14 43 30 19 16 40 30 47 30 6 0 13 6 16 13 3 8
11 5 24 -11 35 -39 113 -23 113 22 0 9 6 16 13 16 14 0 67 -51 67 -64 0 -4 13
-20 29 -35 23 -21 30 -38 33 -72 l3 -44 28 -3 c15 -2 27 -8 27 -13 0 -5 11 -9
25 -9 14 0 35 -6 46 -12 l22 -13 4 13 c3 6 20 12 39 12 19 0 34 4 34 9 0 5 14
23 30 41 35 38 36 40 11 68 -12 14 -30 22 -50 22 -39 0 -66 23 -56 48 5 12 9
13 12 5 3 -7 13 -13 24 -13 10 0 19 -4 19 -10 0 -5 9 -10 20 -10 13 0 20 7 20
20 0 11 5 20 10 20 6 0 10 9 10 20 0 11 5 20 10 20 6 0 10 -10 10 -22 1 -23
21 -58 34 -58 3 0 6 14 6 31 l0 31 23 -5 c12 -2 30 -8 40 -12 13 -5 17 -2 17
13 0 12 -4 24 -10 27 -6 4 -10 60 -10 135 0 75 4 131 10 135 6 3 10 19 10 34
0 15 5 32 11 38 6 6 11 32 11 57 1 26 5 49 10 52 4 3 8 17 8 31 0 26 39 70 91
100 16 10 29 21 29 25 0 4 18 8 39 8 22 0 41 5 44 13 3 9 7 9 17 0 13 -12 60
2 60 19 0 4 18 8 40 8 l40 0 0 39 c0 22 -5 41 -12 43 -8 3 -3 14 14 31 21 21
37 27 71 27 53 0 99 21 116 54 8 13 24 26 37 29 13 2 21 1 19 -3 -8 -13 20
-59 43 -72 l23 -12 10 14 9 15 9 -14 9 -14 16 16 c9 8 16 27 16 41 0 14 5 28
10 31 6 3 10 17 10 31 0 13 5 24 10 24 6 0 10 7 10 16 0 28 27 44 74 44 25 0
46 5 46 10 0 6 13 10 29 10 20 0 30 6 34 20 l5 20 115 0 c64 0 118 -4 121 -9
3 -4 25 -11 48 -15 24 -3 66 -11 93 -16 28 -6 64 -13 80 -16 l30 -5 17 39 c9
22 25 47 34 57 l17 17 -14 8 -13 9 22 19 c23 21 30 52 10 52 -7 0 -5 7 5 18 9
9 19 41 23 70 l7 52 -32 0 c-35 0 -42 15 -11 23 20 5 29 37 11 37 -5 0 -11 12
-13 28 -2 21 -9 28 -30 30 -26 3 -41 22 -18 22 6 0 10 9 10 20 0 11 -7 20 -15
20 -9 0 -19 8 -22 18 -10 24 -93 102 -109 102 -8 0 -14 4 -14 10 0 5 -16 9
-35 8 -20 -1 -41 4 -47 10 -7 7 -18 12 -25 12 -8 0 -23 9 -35 20 -12 11 -30
20 -39 20 -10 0 -19 6 -22 13 -3 7 -14 1 -31 -18 l-26 -30 0 38 0 37 -20 0
-20 0 0 -40z m-1292 -866 c18 -5 15 -34 -4 -34 -19 0 -124 -107 -124 -126 0
-8 -4 -14 -10 -14 -5 0 -10 -6 -10 -13 0 -7 -9 -23 -20 -35 -11 -12 -20 -25
-20 -30 0 -15 -47 -42 -74 -42 -37 0 -41 27 -5 34 35 7 59 28 59 50 0 9 5 16
10 16 6 0 10 18 10 40 0 22 5 40 10 40 6 0 10 7 10 16 0 15 30 65 55 90 20 21
62 24 113 8z m316 -136 c22 -32 20 -38 -14 -38 l-30 0 0 30 c0 36 22 40 44 8z"/>
</g>
</svg>
