<?xml version="1.0" standalone="no"?>
<!DOCTYPE svg PUBLIC "-//W3C//DTD SVG 20010904//EN"
 "http://www.w3.org/TR/2001/REC-SVG-20010904/DTD/svg10.dtd">
<svg version="1.0" xmlns="http://www.w3.org/2000/svg"
 width="286.027322pt" height="452.025131pt" viewBox="0 0 286.027322 452.025131"
 preserveAspectRatio="xMidYMid meet">
<metadata>
Created by Potrace Professional 1.0m
</metadata>
<g transform="translate(0.027322,451.816062) rotate(-360.00) scale(0.100000,-0.100000)"
fill="#000000" stroke="none">
<path d="M675 4510 c-38 -4 -200 -8 -358 -9 l-288 -1 -15 -14 -14 -15 2 -2223
3 -2223 210 -3 c119 -1 214 -7 219 -12 14 -14 306 -13 306 0 0 13 208 11 216
-1 7 -13 58 -11 71 2 11 11 53 10 239 -7 l71 -6 7 17 c3 10 4 21 0 24 -3 3
-127 4 -275 2 l-269 -3 0 24 c0 13 6 30 13 37 9 9 11 55 9 173 -1 100 2 164 8
168 6 4 5 18 -3 40 -9 26 -9 34 1 37 6 3 12 13 12 24 0 10 3 19 8 19 4 0 18
18 32 40 14 22 28 40 32 40 5 0 8 8 8 18 0 10 9 24 20 32 12 8 20 26 20 42 0
15 5 28 10 28 6 0 10 9 10 20 0 11 8 34 18 52 10 18 24 53 32 78 8 25 17 47
21 50 13 10 49 94 49 115 0 11 5 26 11 32 12 12 6 211 -9 288 -5 28 -13 69
-17 93 l-8 43 22 6 c11 3 21 9 21 13 0 4 13 13 29 20 16 6 38 22 50 36 l21 24
0 95 c0 57 -4 95 -10 95 -5 0 -10 8 -10 18 l0 19 81 1 c65 2 87 6 111 23 l29
21 -5 107 c-2 58 -5 113 -6 121 -2 30 17 116 32 150 17 38 27 73 35 134 8 55
64 106 118 106 15 0 45 4 68 9 23 6 54 12 68 15 14 3 38 17 55 31 16 14 33 25
37 25 5 0 21 13 35 28 34 36 64 52 96 52 14 0 26 5 26 10 0 6 12 10 26 10 14
0 32 7 41 15 8 9 28 19 44 22 16 3 29 9 29 14 0 5 15 9 34 9 19 0 37 4 40 9 9
14 71 23 195 28 89 3 120 1 146 -11 50 -24 65 -13 65 45 0 34 -4 49 -13 49 -7
0 -22 8 -33 18 -24 22 -102 62 -119 62 -9 0 -15 16 -17 48 l-3 47 -23 3 c-28
4 -52 -19 -52 -50 0 -30 -17 -48 -45 -48 -12 0 -31 -9 -43 -20 -12 -11 -35
-20 -54 -20 -18 0 -40 -4 -48 -10 -9 -5 -19 -5 -27 2 -7 6 -34 7 -65 4 -29 -4
-71 -8 -93 -9 l-40 -2 -4 25 c-1 14 -6 27 -10 30 -18 15 -34 60 -32 93 1 29
-5 48 -24 73 l-26 34 -48 0 -49 0 -17 -26 -17 -27 3 -101 4 -100 -35 -7 c-19
-3 -55 -13 -79 -22 -30 -11 -50 -13 -62 -6 -10 5 -38 9 -62 9 -29 0 -49 6 -58
17 -11 13 -11 17 -1 20 6 3 12 11 12 19 0 13 18 52 30 64 20 20 32 63 26 94
-5 28 -3 38 9 42 8 4 21 1 29 -5 25 -21 46 -2 46 41 0 45 -10 68 -51 111 -16
16 -29 38 -29 47 0 32 -49 70 -91 70 -21 0 -41 5 -44 10 -3 6 -21 10 -39 10
-17 0 -36 4 -42 10 -5 5 -37 11 -71 12 l-61 3 -21 -24 c-26 -30 -51 -21 -51
18 0 16 5 33 10 36 5 3 10 18 10 33 0 19 -8 30 -25 39 l-25 11 -32 -30 -32
-29 -21 11 c-11 6 -26 24 -34 41 -8 17 -20 29 -32 29 -10 0 -19 5 -19 10 0 23
-39 8 -52 -20 -13 -29 -28 -40 -28 -20 0 16 -70 12 -87 -5 l-15 -16 23 -34
c13 -19 27 -35 32 -35 4 0 7 -4 7 -10 0 -5 -6 -10 -14 -10 -7 0 -25 -12 -39
-26 l-26 -26 11 -23 c6 -13 19 -26 30 -28 l19 -5 -12 -20 -13 -20 13 -16 c8
-9 34 -16 69 -18 l57 -3 3 -25 c2 -13 13 -32 23 -41 10 -9 19 -24 19 -33 0 -9
5 -16 10 -16 29 0 -5 -56 -68 -114 -13 -11 -39 -36 -58 -53 -18 -18 -37 -33
-42 -33 -4 0 -18 -13 -30 -30 -13 -16 -28 -30 -35 -30 -7 0 -21 -14 -31 -30
-9 -17 -28 -41 -42 -55 -13 -13 -24 -31 -24 -39 0 -8 -3 -16 -7 -18 -15 -6
-53 -86 -53 -111 0 -14 -4 -29 -10 -32 -5 -3 -10 -19 -10 -35 0 -16 -5 -32
-10 -35 -6 -3 -10 -37 -10 -75 0 -38 -5 -72 -10 -75 -6 -3 -10 -21 -10 -40 0
-19 -5 -37 -10 -40 -14 -8 -12 -137 3 -205 7 -30 20 -70 30 -89 9 -19 17 -42
17 -52 0 -10 5 -21 10 -24 6 -3 10 -41 10 -83 l0 -77 26 -20 c31 -23 54 -65
54 -100 0 -14 4 -25 8 -25 4 0 14 -21 21 -47 21 -79 34 -113 70 -195 12 -26
21 -55 21 -63 0 -8 5 -15 10 -15 6 0 10 -9 10 -19 0 -11 12 -30 27 -43 42 -36
53 -62 53 -122 l0 -54 -37 -34 c-41 -36 -63 -69 -63 -93 0 -8 -4 -15 -8 -15
-16 0 -32 -102 -32 -205 l0 -103 -30 -32 c-24 -25 -30 -41 -30 -75 0 -24 5
-47 10 -50 13 -8 13 -69 0 -95 -5 -11 -14 -29 -20 -40 -13 -26 -13 -87 0 -95
6 -3 10 -15 10 -26 0 -10 5 -19 10 -19 6 0 10 -6 10 -12 0 -13 29 -53 68 -95
12 -13 22 -26 22 -29 0 -10 -624 -1 -648 9 l-22 10 6 456 c9 623 11 2925 3
2984 -3 27 -2 50 4 54 5 3 34 0 63 -7 40 -10 60 -10 77 -2 12 6 39 15 60 21
20 6 52 16 70 21 18 6 93 10 165 10 81 0 132 4 132 10 0 6 9 10 19 10 11 0 22
4 25 9 11 17 88 24 179 15 l57 -6 0 27 c0 15 -11 37 -26 52 -52 52 -53 103 -3
103 16 0 29 5 29 10 0 6 10 10 22 10 12 0 37 5 55 12 25 9 36 9 41 1 18 -28
172 -30 237 -3 11 4 28 11 38 14 9 3 20 14 23 23 3 10 10 26 15 35 18 34 5
157 -22 210 -5 10 -9 26 -9 36 0 22 -22 72 -32 72 -5 0 -8 6 -8 13 0 13 -41
67 -81 106 -30 30 -49 62 -49 85 l0 16 318 0 c175 0 321 -3 325 -6 3 -3 -21
-32 -54 -65 -33 -32 -59 -67 -59 -78 0 -11 -4 -23 -10 -26 -14 -9 -12 -102 3
-144 6 -20 24 -49 39 -66 16 -16 28 -33 28 -37 0 -12 75 -53 120 -65 48 -12
160 1 160 18 0 5 6 9 14 9 20 0 77 60 104 110 17 32 22 59 22 111 0 82 -7 96
-82 171 -32 32 -58 60 -58 63 0 3 180 5 400 5 l400 0 5 -22 c3 -13 5 -66 4
-118 0 -52 0 -113 0 -135 2 -96 3 -161 1 -180 -3 -33 -4 -203 -1 -330 3 -114
4 -608 2 -705 -2 -78 -3 -689 -2 -815 1 -66 1 -331 0 -590 0 -259 2 -703 6
-988 l7 -517 -23 -2 c-13 0 -54 0 -92 1 -37 1 -73 -1 -79 -6 -7 -4 -220 -8
-473 -9 -709 -2 -775 -3 -775 -12 0 -4 13 -13 28 -20 30 -13 438 -11 595 3 57
5 77 4 77 -5 0 -9 42 -10 168 -6 92 3 267 9 390 12 l222 6 0 2239 0 2239 -77
0 c-43 0 -484 0 -980 0 -584 0 -904 4 -908 10 -7 11 -111 11 -220 0z m-368
-65 c12 -13 15 -41 16 -130 0 -62 -5 -126 -11 -142 -5 -15 -16 -89 -23 -164
l-12 -136 -46 4 c-71 7 -77 10 -52 32 26 23 26 27 1 34 -14 3 -20 14 -20 31 0
19 -5 26 -20 26 l-20 0 0 43 c1 23 4 60 9 83 7 36 -4 154 -25 278 -9 50 1 56
104 56 62 0 87 -4 99 -15z m758 1 c8 -8 15 -19 15 -25 0 -18 22 -49 83 -114
31 -33 57 -67 57 -74 0 -7 4 -13 9 -13 5 0 11 -12 14 -27 3 -16 11 -46 18 -68
7 -22 14 -80 16 -130 l4 -90 -28 -12 c-37 -18 -230 -18 -236 0 -3 10 -11 10
-39 0 -19 -7 -58 -13 -86 -13 -29 0 -52 -4 -52 -10 0 -5 -18 -10 -40 -10 -22
0 -40 -4 -40 -10 0 -5 -9 -10 -19 -10 -11 0 -23 -4 -26 -10 -3 -5 -17 -10 -31
-10 -13 0 -24 -4 -24 -10 0 -5 -18 -10 -40 -10 -22 0 -40 -4 -40 -10 0 -5 -20
-10 -44 -10 -25 0 -48 -4 -51 -10 -3 -5 -19 -10 -36 -10 l-29 0 0 39 c0 22 5
42 13 44 9 4 9 8 -2 15 -10 7 -11 14 -2 31 18 32 5 41 -44 34 l-45 -6 -1 19
c-3 66 4 153 18 220 9 44 18 125 20 181 l4 103 27 6 c15 3 30 6 35 7 4 1 142
3 307 5 l301 3 14 -15z m889 -43 c4 -9 3 -19 -1 -22 -5 -3 -14 -24 -22 -46
-22 -63 -48 -95 -80 -95 -15 0 -32 5 -39 12 -20 20 -12 88 10 88 16 0 40 29
33 40 -15 24 5 40 49 40 32 0 46 -5 50 -17z m125 -108 c12 -25 21 -57 21 -73
0 -59 -64 -157 -122 -188 -49 -26 -198 -12 -198 19 0 4 20 7 45 7 25 0 53 4
63 9 41 22 130 61 138 61 5 0 15 4 23 9 l14 9 -24 43 c-28 51 -38 63 -61 72
-38 14 -12 57 34 57 15 0 28 5 28 10 0 24 19 6 39 -35z m-332 4 c17 -17 -12
-71 -35 -67 -29 6 -12 77 19 78 3 0 10 -5 16 -11z m-1665 -46 c3 -74 -2 -145
-12 -162 -6 -11 -10 12 -11 69 -1 47 -3 94 -3 105 -2 25 3 35 15 35 5 0 10
-21 11 -47z m1898 -55 c0 -25 -27 -58 -47 -58 -7 0 -13 -4 -13 -9 0 -10 -41
-20 -110 -27 -34 -4 -53 0 -77 15 -36 23 -45 61 -15 61 10 0 23 5 30 12 8 8
38 11 81 10 40 -2 72 2 76 8 3 5 22 10 41 10 l34 0 0 -22z m-1729 -385 c23
-45 72 -93 94 -93 12 0 26 -5 32 -11 24 -24 308 32 321 63 2 4 16 8 32 8 22 0
31 -7 42 -30 7 -16 16 -30 20 -30 5 0 8 -4 8 -10 0 -5 -20 -10 -45 -10 -25 0
-53 -4 -63 -9 -25 -13 -119 -40 -164 -48 -23 -3 -56 0 -79 7 l-40 14 -62 -13
c-34 -6 -82 -22 -107 -33 -89 -42 -89 -42 -115 -28 -19 10 -25 21 -25 46 0 18
5 36 11 40 10 6 9 23 -7 102 -9 48 8 62 76 62 l57 0 14 -27z m109 -3 c0 -5 -4
-10 -10 -10 -5 0 -10 5 -10 10 0 6 5 10 10 10 6 0 10 -4 10 -10z m671 -430
c12 0 12 -67 -1 -75 -5 -3 -10 -19 -10 -36 0 -16 -3 -29 -6 -29 -14 0 -36 32
-32 48 3 10 2 42 -2 72 -6 39 -4 58 4 65 7 6 16 19 21 30 8 16 10 10 13 -27 2
-27 7 -48 13 -48z m-71 54 c0 -11 -61 -63 -81 -69 -10 -4 -19 -15 -19 -26 0
-10 -4 -19 -10 -19 -5 0 -10 23 -10 50 l0 50 24 0 c14 0 28 5 31 10 7 11 65
14 65 4z m280 -43 c0 -8 15 -12 118 -27 31 -5 48 -14 62 -34 11 -16 20 -33 20
-38 0 -6 4 -12 8 -14 9 -4 52 -63 52 -72 0 -3 -10 -6 -23 -6 -26 0 -77 21 -77
33 0 11 -58 9 -65 -3 -3 -5 -37 -10 -75 -10 -38 0 -72 5 -75 10 -3 6 -14 10
-24 10 -23 0 -61 44 -61 70 0 12 9 30 20 42 11 12 20 28 20 35 0 9 15 13 50
13 28 0 50 -4 50 -9z m-280 -194 c0 -13 5 -28 11 -34 6 -6 9 -17 7 -24 -3 -8
-12 1 -21 20 -19 38 -22 61 -7 61 6 0 10 -10 10 -23z m460 -120 c0 -40 -29
-74 -48 -55 -14 14 -16 38 -4 38 5 0 15 11 22 25 18 35 30 31 30 -8z m-454
-31 c8 -8 14 -20 14 -26 0 -14 -46 -60 -60 -60 -18 0 -40 -27 -40 -48 0 -11
-12 -28 -27 -38 -54 -34 -83 -74 -83 -112 l0 -35 -45 -44 c-25 -23 -45 -45
-45 -48 0 -3 -13 -19 -30 -37 -16 -17 -30 -35 -30 -40 0 -5 -13 -29 -30 -52
-16 -24 -35 -62 -42 -85 -7 -22 -16 -41 -20 -41 -5 0 -8 -7 -8 -15 0 -8 -5
-15 -11 -15 -11 0 -10 16 7 143 3 26 10 47 15 47 5 0 9 9 9 20 0 28 23 100 32
100 5 0 8 9 8 20 0 11 5 20 10 20 6 0 10 6 10 13 0 7 9 23 20 35 11 12 20 25
20 30 0 4 15 22 33 38 18 16 37 36 43 45 5 8 29 31 54 50 24 18 69 59 100 90
59 60 73 67 96 45z m1414 -116 c0 -5 -9 -10 -19 -10 -11 0 -23 -4 -26 -10 -3
-5 -17 -10 -31 -10 -13 0 -24 5 -24 10 0 6 14 10 30 10 17 0 30 5 30 10 0 6 9
10 20 10 11 0 20 -4 20 -10z m-776 -266 c4 -9 4 -31 1 -48 l-6 -32 -37 -11
c-22 -7 -38 -8 -40 -2 -2 5 -14 9 -27 9 -25 0 -55 -45 -55 -82 0 -10 -4 -18
-10 -18 -6 0 -10 -27 -10 -60 0 -33 -3 -60 -6 -60 -13 0 -34 30 -34 50 0 25
-54 134 -81 163 -32 35 -24 45 44 50 80 7 137 16 162 26 25 10 78 29 86 30 4
1 10 -6 13 -15z m189 -10 c4 -4 -6 -18 -21 -30 -19 -17 -39 -24 -69 -24 l-43
0 0 18 c0 10 5 23 12 30 12 12 110 17 121 6z m-530 -124 c37 -41 46 -60 27
-60 -5 0 -10 4 -10 9 0 16 -51 43 -68 36 l-17 -6 30 -27 c34 -31 55 -64 55
-87 0 -8 5 -15 10 -15 6 0 10 -11 10 -24 0 -14 5 -28 10 -31 6 -3 10 -14 10
-23 0 -9 9 -28 20 -42 27 -35 25 -49 -15 -86 -19 -17 -35 -37 -35 -43 0 -19
28 -12 44 11 19 26 22 17 29 -68 6 -82 0 -114 -24 -114 -11 0 -19 3 -19 8 0 9
-49 32 -70 32 -9 0 -21 -5 -28 -12 -6 -6 -15 -8 -19 -4 -4 4 -3 10 2 14 26 18
44 79 29 95 -9 9 -34 -4 -34 -17 0 -7 -24 -23 -52 -35 -29 -13 -71 -31 -93
-41 -22 -10 -56 -23 -76 -29 -44 -14 -136 -14 -144 -1 -3 6 -17 10 -31 10 -13
0 -24 5 -24 10 0 15 -29 12 -45 -4 l-14 -14 17 -14 c9 -8 29 -20 45 -28 45
-22 31 -30 -52 -30 l-78 0 -31 30 c-18 17 -43 30 -57 30 -27 0 -65 48 -65 83
0 9 -4 17 -10 17 -13 0 -13 167 0 175 6 3 10 1 10 -4 0 -6 7 -11 15 -11 9 0
27 -11 40 -25 25 -24 33 -55 15 -55 -14 0 -12 -46 2 -72 19 -33 58 -71 66 -64
3 4 0 21 -6 39 -7 19 -12 52 -12 75 0 55 24 56 47 2 10 -22 21 -40 25 -40 5 0
8 -9 8 -20 0 -25 44 -28 67 -5 l15 15 -29 28 c-16 15 -33 40 -37 56 l-7 29 40
-42 c43 -44 55 -49 77 -27 22 23 17 34 -36 86 -55 53 -63 86 -30 110 11 8 20
20 20 27 0 7 14 27 30 45 17 17 30 36 30 43 0 6 12 17 28 24 15 8 35 17 44 22
10 5 33 9 52 9 19 0 36 4 38 9 3 11 78 -10 78 -21 0 -5 8 -8 17 -8 17 0 103
83 103 100 0 21 28 8 63 -30z m-663 -670 c14 -11 33 -20 43 -20 9 0 17 -4 17
-10 0 -6 30 -10 70 -10 40 0 70 4 70 10 0 6 8 10 18 10 10 0 24 9 32 20 l14
20 68 0 68 0 0 -18 c0 -10 14 -34 30 -52 31 -35 37 -54 20 -65 -5 -3 -10 -34
-10 -68 l-1 -62 -40 -35 c-22 -19 -57 -50 -77 -67 -20 -18 -42 -33 -49 -33 -7
0 -13 -4 -13 -10 0 -5 -13 -10 -28 -10 -15 0 -32 -4 -37 -9 -6 -5 -20 -12 -32
-16 -18 -5 -23 -2 -23 12 0 11 5 24 11 30 19 19 3 41 -31 45 -31 3 -37 11 -72
80 -4 10 -8 27 -8 38 l0 20 43 0 c29 0 50 -6 65 -20 24 -22 52 -26 52 -7 0 16
-34 53 -96 104 -39 33 -60 42 -94 45 l-45 3 -6 40 c-10 60 -1 68 41 35z m420
-395 c0 -25 4 -45 9 -45 10 0 19 -44 28 -127 l5 -53 -35 0 c-20 0 -39 5 -42
10 -8 13 -48 13 -61 0 -7 -7 -18 -3 -33 12 l-24 21 -35 -13 -35 -12 -18 23
c-18 23 -26 59 -13 59 3 0 14 -10 24 -22 l18 -22 17 14 c16 13 16 35 1 70 -4
11 7 22 41 40 27 13 50 27 53 31 9 10 84 59 92 59 5 0 8 -20 8 -45z m-1 -268
c39 -20 46 -40 32 -89 -7 -23 -17 -51 -22 -60 -5 -10 -9 -25 -9 -33 0 -8 -9
-15 -20 -15 -11 0 -20 4 -20 8 0 12 -78 52 -100 52 l-18 0 -4 54 c-4 71 -1 84
25 89 46 9 113 6 136 -6z m-93 -207 c31 -65 36 -100 23 -146 -7 -24 -16 -44
-20 -44 -3 0 -18 9 -32 20 -14 11 -35 20 -47 20 -12 0 -28 6 -36 14 -9 10 -26
12 -54 9 l-40 -6 0 17 c0 23 19 53 65 102 l40 43 45 -2 44 -2 12 -25z m-113
-182 c30 -16 46 -39 47 -65 0 -13 5 -23 10 -23 6 0 10 -9 10 -20 0 -11 -4 -20
-10 -20 -5 0 -10 -6 -10 -12 0 -20 -52 -75 -57 -60 -3 6 -11 12 -19 12 -23 0
-63 30 -59 43 2 7 6 41 9 76 6 79 27 97 79 69z m-89 -264 c19 -7 22 -44 4 -44
-7 0 -22 7 -33 16 l-20 15 15 9 c18 12 15 11 34 4z"/>
<path d="M752 4000 c-13 -21 -16 -78 -6 -104 8 -21 54 -21 54 -1 0 21 30 31
40 15 11 -18 40 -4 40 19 0 11 -9 25 -20 31 -11 6 -20 15 -20 21 0 37 -67 52
-88 19z"/>
<path d="M617 3962 c-10 -10 -17 -26 -17 -34 0 -25 28 -85 42 -90 20 -8 38 2
38 20 0 8 6 23 14 31 8 10 12 30 9 54 l-5 37 -33 0 c-18 0 -39 -8 -48 -18z"/>
<path d="M490 3925 l-13 -16 14 -42 c7 -23 19 -48 26 -55 17 -17 43 -8 43 14
0 38 -36 114 -53 114 -3 0 -10 -7 -17 -15z"/>
<path d="M1120 2420 c0 -11 4 -20 9 -20 19 0 32 -168 17 -227 l-8 -33 21 0
c14 0 21 6 21 20 0 11 5 20 10 20 6 0 10 35 10 84 0 47 -4 88 -10 91 -5 3 -10
17 -10 31 0 14 -6 32 -14 40 -21 21 -46 17 -46 -6z"/>
<path d="M1523 1847 c-24 -6 -43 -14 -43 -19 0 -4 -6 -8 -14 -8 -36 0 -114
-111 -131 -185 -12 -51 -1 -160 16 -171 5 -3 9 -14 9 -25 0 -10 3 -19 8 -19 4
0 20 -18 36 -40 17 -22 36 -40 43 -40 7 0 13 -4 13 -10 0 -5 6 -10 13 -10 6 0
23 -9 37 -20 l25 -20 88 0 c49 0 98 5 110 12 34 18 58 50 51 67 -14 34 -16 61
-4 61 7 0 25 14 40 30 15 17 33 30 40 30 7 0 25 -13 40 -30 15 -16 35 -30 43
-30 9 0 19 -4 22 -10 16 -26 117 0 152 40 l23 25 0 100 c0 109 -6 125 -51 125
-31 0 -34 -9 -45 -112 l-7 -68 -24 0 c-42 0 -53 22 -53 104 l0 76 -49 0 -49 0
-5 -21 -6 -20 -23 12 c-12 7 -29 18 -36 26 -8 8 -27 17 -43 20 -34 7 -37 21
-9 51 11 12 20 25 20 30 0 19 -38 42 -68 42 -17 0 -34 5 -37 10 -8 12 -75 11
-132 -3z m137 -115 c0 -13 -23 -32 -37 -32 -16 0 -52 -35 -70 -68 -18 -30 -16
-95 3 -134 8 -18 33 -46 54 -62 56 -42 39 -71 -27 -45 -75 30 -103 48 -103 66
0 4 -9 19 -20 33 -22 28 -27 108 -9 143 6 12 31 41 56 65 l44 42 55 0 c29 0
54 -4 54 -8z m86 -126 c20 -21 18 -75 -3 -83 -10 -4 -21 -10 -24 -15 -3 -5
-18 -4 -32 3 -22 10 -27 19 -27 46 0 19 6 40 13 48 16 19 55 19 73 1z"/>
<path d="M2193 1685 c-8 -8 -13 -42 -13 -84 0 -38 -5 -73 -10 -76 -6 -3 -8
-17 -5 -31 3 -13 7 -35 10 -49 l5 -25 46 0 46 0 5 20 c4 15 14 20 39 20 47 0
82 18 96 52 21 45 31 33 25 -30 -9 -84 -7 -86 122 -85 120 1 141 8 141 50 0
39 -22 53 -84 53 -31 0 -56 5 -56 10 0 10 14 14 38 11 30 -4 43 27 40 101 l-3
73 -95 0 -95 0 -3 -27 c-2 -16 -5 -28 -8 -28 -2 0 -17 14 -32 30 l-29 30 -84
0 c-60 -1 -88 -5 -96 -15z m127 -115 c-15 -28 -40 -25 -40 3 0 31 9 38 31 26
15 -8 17 -14 9 -29z"/>
<path d="M1928 1323 l-28 -4 0 -69 0 -69 20 -6 c25 -8 100 3 118 18 9 7 24 4
51 -11 46 -26 58 -27 100 -6 38 19 51 41 51 88 0 48 -25 64 -93 59 -28 -2 -62
-9 -75 -16 -17 -8 -25 -8 -30 0 -8 13 -76 22 -114 16z"/>
<path d="M1203 1183 c-15 -3 -24 -12 -25 -26 0 -12 -3 -42 -6 -67 -6 -58 -4
-318 3 -347 l5 -23 37 0 c44 0 62 21 63 73 0 20 5 37 10 37 6 0 10 -11 10 -25
0 -14 4 -25 9 -25 5 0 11 -9 14 -20 6 -24 42 -27 63 -6 8 8 14 26 14 40 0 14
5 26 10 26 6 0 10 9 10 19 0 11 4 22 9 25 10 6 21 -41 21 -90 l0 -33 41 -11
c46 -13 69 -8 69 13 0 20 30 43 38 31 37 -53 152 -73 194 -34 12 11 28 20 35
20 7 0 13 5 13 10 0 23 19 8 22 -17 l3 -28 54 -3 c65 -4 71 3 71 81 0 43 4 57
14 57 22 0 56 -54 56 -89 0 -17 6 -32 13 -33 6 0 26 -3 42 -5 61 -8 259 -14
281 -9 13 4 34 17 48 31 14 14 27 25 29 25 3 0 7 -13 10 -29 l6 -29 43 -6
c100 -13 184 -15 206 -4 17 9 22 20 22 49 l0 38 -34 12 -33 12 3 85 c2 64 0
88 -12 99 l-15 15 -80 -7 c-83 -7 -109 -21 -109 -56 0 -26 -7 -24 -40 11 -19
21 -38 30 -58 30 -17 0 -34 5 -37 10 -4 6 -51 10 -118 9 -108 -1 -167 -12
-167 -30 0 -17 -29 -9 -40 11 -9 16 -21 20 -61 20 -52 0 -79 -15 -79 -44 0 -9
-3 -16 -6 -16 -8 0 -67 42 -75 52 -3 5 -37 9 -76 11 l-70 2 -32 -34 c-17 -19
-35 -30 -39 -27 -4 4 -5 48 -4 97 5 112 -2 121 -89 117 l-62 -3 -15 -45 c-8
-25 -18 -53 -23 -62 -5 -10 -9 -25 -9 -33 0 -8 -3 -15 -6 -15 -11 0 -34 29
-34 44 0 9 -4 16 -10 16 -5 0 -10 10 -10 23 0 39 -23 77 -47 77 -12 0 -27 2
-35 4 -7 2 -23 1 -35 -1z m565 -275 c18 -15 15 -38 -10 -59 -26 -23 -47 -24
-76 -3 -29 20 -25 54 8 71 25 13 54 9 78 -9z m592 -24 c0 -38 -18 -64 -44 -64
-12 0 -16 11 -16 50 l0 50 30 0 30 0 0 -36z m-485 -74 c3 -5 1 -10 -4 -10 -6
0 -11 5 -11 10 0 6 2 10 4 10 3 0 8 -4 11 -10z"/>
<path d="M1751 601 c-8 -11 -26 -25 -40 -33 -14 -7 -32 -19 -39 -25 l-13 -13
15 -15 c8 -8 22 -15 30 -15 12 0 16 -11 16 -48 0 -26 5 -53 12 -60 14 -14 68
-16 68 -2 0 6 14 10 30 10 17 0 30 -4 30 -10 0 -6 27 -10 60 -10 33 0 60 4 60
10 0 6 7 10 16 10 9 0 25 10 36 22 l19 22 5 -21 c8 -29 100 -49 149 -33 19 6
35 16 35 21 0 16 25 10 48 -11 23 -22 105 -29 117 -10 3 6 15 10 26 10 11 0
27 6 35 14 17 17 19 62 3 72 -7 4 -9 21 -6 41 l6 34 -28 30 c-22 23 -37 29
-70 29 -23 0 -52 -5 -64 -12 -14 -7 -62 -10 -129 -9 l-108 2 -16 -15 c-19 -19
-28 -20 -46 -3 -7 6 -30 18 -51 25 -49 17 -91 2 -109 -39 -16 -36 -28 -37 -28
-3 0 48 -44 70 -69 35z m189 -71 c0 -5 -4 -10 -10 -10 -5 0 -10 5 -10 10 0 6
5 10 10 10 6 0 10 -4 10 -10z m160 -18 c0 -10 -22 -32 -32 -32 -4 0 -8 9 -8
20 0 13 7 20 20 20 11 0 20 -4 20 -8z m-260 -32 c0 -11 -4 -20 -10 -20 -5 0
-10 9 -10 20 0 11 5 20 10 20 6 0 10 -9 10 -20z"/>
</g>
</svg>
