<?xml version="1.0" standalone="no"?>
<!DOCTYPE svg PUBLIC "-//W3C//DTD SVG 20010904//EN"
 "http://www.w3.org/TR/2001/REC-SVG-20010904/DTD/svg10.dtd">
<svg version="1.0" xmlns="http://www.w3.org/2000/svg"
 width="161.970607pt" height="276.210655pt" viewBox="0 0 161.970607 276.210655"
 preserveAspectRatio="xMidYMid meet">
<metadata>
Created by Potrace Professional 1.0m
</metadata>
<g transform="translate(-0.029393,276.000000) rotate(-360.00) scale(0.100000,-0.100000)"
fill="#000000" stroke="none">
<path d="M620 2750 c0 -5 -6 -10 -12 -10 -20 0 -68 -45 -68 -64 0 -9 -4 -16
-10 -16 -5 0 -10 -9 -10 -19 0 -11 -4 -22 -8 -25 -5 -3 -9 -33 -10 -68 -1 -35
-6 -64 -12 -66 -5 -2 -10 -21 -10 -43 l0 -39 20 0 c11 0 20 -4 20 -10 0 -5 7
-10 15 -10 18 0 19 -14 2 -32 -7 -7 -16 -20 -19 -28 -8 -21 -85 -60 -119 -60
-21 0 -43 -14 -84 -53 -30 -30 -55 -59 -55 -66 0 -6 -14 -25 -30 -43 -17 -17
-30 -37 -30 -45 0 -7 -4 -21 -9 -31 -24 -48 -64 -140 -79 -181 l-17 -46 2
-199 c1 -112 7 -203 12 -210 6 -7 8 -21 5 -32 -3 -11 2 -40 10 -64 9 -25 16
-60 16 -77 0 -18 4 -33 9 -33 5 0 11 -8 13 -17 2 -12 23 -22 68 -34 l65 -16 8
-34 c5 -19 11 -49 14 -66 3 -18 9 -33 13 -33 4 0 10 -12 13 -27 3 -16 9 -41
13 -56 l6 -28 -28 -24 c-16 -14 -33 -25 -37 -25 -15 0 -33 -24 -40 -52 -4 -15
-18 -38 -32 -52 -14 -14 -25 -34 -25 -44 0 -29 -27 -88 -52 -114 -13 -13 -29
-35 -37 -51 -8 -15 -18 -27 -23 -27 -4 0 -8 -9 -8 -20 0 -11 -9 -25 -20 -32
-12 -8 -20 -24 -20 -40 0 -16 -4 -28 -10 -28 -5 0 -10 -18 -10 -40 0 -22 -4
-40 -10 -40 -14 0 -12 -29 3 -45 8 -7 34 -19 58 -26 26 -7 60 -28 82 -51 l39
-38 46 -2 c77 -2 123 -1 128 5 9 8 -19 57 -33 57 -7 0 -13 5 -13 10 0 6 -6 10
-12 10 -20 0 -68 45 -68 64 0 9 -4 16 -10 16 -23 0 -9 57 20 85 17 16 30 33
30 38 0 10 98 107 109 107 25 0 31 -31 31 -167 0 -89 4 -143 10 -143 6 0 10
-18 10 -40 0 -22 -4 -40 -10 -40 -13 0 -13 -37 0 -45 6 -3 10 -17 10 -30 l0
-23 48 -6 c26 -4 100 -9 165 -12 l117 -6 0 14 c0 15 -35 48 -51 48 -12 0 -39
25 -39 37 0 4 -14 22 -30 40 l-30 32 0 69 c0 38 3 72 7 76 4 4 9 28 10 54 2
25 7 49 11 52 17 13 32 53 32 88 0 21 4 42 8 48 5 5 15 36 22 69 7 33 17 66
24 74 14 18 12 139 -3 154 -6 6 -11 23 -11 37 0 14 -4 30 -9 36 -5 5 -12 32
-15 59 -4 28 -9 69 -12 93 -4 27 -2 42 5 42 6 0 11 11 11 24 0 14 4 28 10 31
6 3 10 15 10 26 0 10 5 19 10 19 6 0 10 14 10 30 0 17 5 30 10 30 6 0 10 25
10 56 0 45 4 60 21 75 l21 18 -6 33 c-15 72 -18 118 -7 118 6 0 11 14 11 30 0
17 5 30 10 30 6 0 10 11 10 24 0 14 5 28 10 31 6 3 10 19 10 35 0 16 4 32 10
35 6 3 10 22 10 41 0 19 4 34 9 34 5 0 11 18 15 40 4 26 11 40 21 40 8 0 15 5
15 10 0 6 9 10 19 10 11 0 23 -4 26 -10 4 -6 62 -10 143 -10 154 1 172 7 172
60 l0 34 48 45 48 46 12 93 c6 51 8 100 5 109 -4 11 -2 14 8 11 8 -2 15 -13
17 -24 2 -11 14 -33 27 -49 14 -15 25 -32 25 -36 0 -17 64 -69 85 -69 27 0 65
43 65 73 0 16 -10 27 -37 39 -44 19 -143 112 -143 134 0 16 16 19 25 4 9 -14
57 -12 76 3 9 7 21 22 27 34 16 29 15 138 0 165 -25 43 -76 88 -100 88 -22 0
-68 -39 -68 -58 0 -17 -48 -58 -81 -70 -19 -6 -57 -12 -84 -12 -36 0 -55 -6
-71 -21 l-22 -21 -44 15 c-43 15 -98 13 -98 -4 0 -5 -9 -9 -20 -9 -11 0 -20
-4 -20 -10 0 -5 -8 -10 -18 -10 -10 0 -24 -9 -32 -20 -8 -12 -26 -20 -42 -20
l-28 0 0 26 c0 15 10 35 21 45 l22 19 -32 29 c-17 16 -31 38 -31 50 0 12 -22
44 -50 72 -27 28 -50 57 -50 65 0 10 -14 14 -50 14 -27 0 -50 -4 -50 -10z
m704 -326 c19 -7 21 -31 3 -48 -14 -14 -51 -23 -134 -32 l-52 -6 -7 26 c-3 15
-3 30 1 34 7 7 110 28 152 31 12 0 28 -2 37 -5z m-353 -86 c22 -25 23 -30 7
-46 -20 -20 -36 -14 -50 18 -7 17 -16 30 -20 30 -5 0 -8 5 -8 10 0 19 53 10
71 -12z m-151 -29 c0 -12 14 -34 31 -50 18 -16 28 -33 24 -37 -4 -4 -10 -1
-12 6 -3 6 -13 12 -23 12 -10 0 -22 5 -25 10 -3 6 -17 10 -31 10 l-24 0 0 29
c0 29 2 30 53 40 4 0 7 -8 7 -20z m519 -44 c-1 -31 -6 -58 -11 -61 -4 -3 -8
-27 -8 -53 0 -31 -5 -53 -15 -61 -9 -7 -16 -11 -18 -9 -21 36 -27 51 -27 64 0
8 -4 15 -10 15 -5 0 -10 9 -10 20 0 11 -4 20 -10 20 -5 0 -10 9 -10 19 0 11
-4 23 -10 26 -18 11 -11 35 10 35 11 0 20 5 20 10 0 6 12 10 28 10 15 0 34 5
42 10 27 17 31 11 29 -45z m-312 -57 c6 -7 13 -25 17 -40 l6 -28 -25 0 -25 0
0 40 c0 41 10 50 27 28z m-707 -518 c0 -5 -4 -10 -10 -10 -5 0 -10 5 -10 10 0
6 5 10 10 10 6 0 10 -4 10 -10z m0 -62 c-1 -31 -19 -68 -34 -68 -10 0 -7 48 4
55 6 3 10 15 10 26 0 10 5 19 10 19 6 0 10 -15 10 -32z"/>
</g>
</svg>
