<?xml version="1.0" standalone="no"?>
<!DOCTYPE svg PUBLIC "-//W3C//DTD SVG 20010904//EN"
 "http://www.w3.org/TR/2001/REC-SVG-20010904/DTD/svg10.dtd">
<svg version="1.0" xmlns="http://www.w3.org/2000/svg"
 width="164.000000pt" height="359.973475pt" viewBox="0 0 164.000000 359.973475"
 preserveAspectRatio="xMidYMid meet">
<metadata>
Created by Potrace Professional 1.0m
</metadata>
<g transform="translate(-2.000000,359.977186) rotate(-360.00) scale(0.100000,-0.100000)"
fill="#000000" stroke="none">
<path d="M860 3590 c0 -5 -8 -10 -17 -10 -10 0 -29 -14 -43 -32 -14 -17 -38
-44 -53 -60 l-28 -28 0 -74 c0 -74 8 -99 44 -140 9 -11 17 -24 17 -28 0 -19
51 -58 75 -58 14 0 25 -4 25 -10 0 -5 6 -10 13 -10 7 0 30 -16 52 -35 l38 -36
-2 -46 c0 -25 4 -62 11 -81 10 -28 10 -36 1 -39 -7 -3 -13 -18 -13 -34 0 -16
-3 -29 -6 -29 -11 0 -34 29 -34 44 0 9 -4 16 -10 16 -5 0 -10 9 -10 20 0 10
-18 47 -40 81 -22 34 -40 68 -40 76 0 8 -7 21 -16 30 l-15 16 -23 -12 c-12 -7
-33 -30 -46 -51 -13 -21 -33 -43 -44 -48 -12 -5 -32 -14 -46 -21 -14 -6 -50
-16 -80 -21 -57 -11 -89 -37 -90 -72 0 -10 -4 -18 -10 -18 -5 0 -10 -9 -10
-20 0 -11 -4 -20 -10 -20 -5 0 -10 -9 -10 -20 0 -11 -4 -20 -10 -20 -5 0 -10
-9 -10 -20 0 -11 -4 -20 -10 -20 -6 0 -10 -28 -10 -65 0 -51 -4 -71 -19 -86
l-19 -20 10 -39 10 -39 -21 -22 c-19 -21 -26 -48 -23 -89 3 -40 -21 -136 -39
-151 -10 -9 -19 -28 -19 -43 0 -14 -4 -26 -10 -26 -5 0 -10 -15 -10 -33 0 -34
-20 -87 -32 -87 -5 0 -8 -13 -8 -30 0 -16 -4 -30 -10 -30 -5 0 -10 -13 -10
-30 0 -16 -4 -30 -10 -30 -5 0 -10 -9 -10 -20 0 -11 -4 -20 -8 -20 -4 0 -13
-20 -21 -44 -10 -34 -10 -49 -1 -66 l11 -21 -20 -6 c-12 -3 -21 -12 -21 -19 0
-8 -13 -28 -30 -46 -16 -17 -30 -36 -30 -42 0 -6 -9 -18 -20 -26 -14 -10 -20
-26 -20 -53 l0 -38 18 3 c13 2 18 -5 20 -36 2 -25 12 -47 29 -64 l26 -26 50 0
c30 0 52 5 55 12 2 7 10 12 19 12 29 0 41 27 46 101 7 95 17 149 28 149 5 0 9
-6 9 -13 0 -7 9 -18 20 -25 11 -7 20 -8 20 -3 0 5 9 11 20 14 11 3 20 12 20
21 0 9 4 16 9 16 9 0 17 33 27 118 4 23 10 42 15 42 5 0 9 18 9 40 0 22 5 40
10 40 6 0 10 14 10 30 0 17 5 30 10 30 6 0 10 8 10 18 0 10 9 24 20 32 11 8
20 22 20 32 0 10 3 18 8 18 19 0 30 51 19 92 -8 31 -7 43 1 46 7 2 12 16 12
30 0 15 9 42 20 60 15 24 20 50 20 102 l0 70 16 0 c23 0 64 -50 64 -77 0 -13
5 -23 10 -23 6 0 10 -7 10 -15 0 -14 18 -53 30 -65 28 -28 44 -160 20 -160 -5
0 -10 -13 -10 -30 0 -16 -4 -30 -10 -30 -5 0 -10 -13 -10 -30 0 -16 -4 -30
-10 -30 -5 0 -10 -13 -10 -28 0 -15 -4 -32 -9 -38 -19 -19 -39 -252 -28 -324
9 -58 22 -169 33 -283 3 -37 10 -67 15 -67 5 0 9 -11 9 -24 0 -14 5 -28 10
-31 6 -3 10 -14 10 -23 0 -10 9 -24 20 -32 13 -9 20 -26 20 -47 0 -17 5 -35
11 -39 8 -4 9 -25 4 -63 -4 -31 -9 -85 -12 -121 -2 -36 -9 -69 -14 -74 -13
-14 -12 -473 1 -481 6 -3 10 -21 10 -40 0 -19 5 -37 10 -40 6 -3 10 -24 10
-45 0 -21 5 -42 10 -45 6 -3 10 -30 10 -60 0 -30 5 -57 10 -60 6 -3 10 -15 10
-26 0 -11 6 -27 14 -35 17 -16 106 -20 106 -4 0 14 26 13 50 -2 15 -10 22 -10
28 -2 4 7 34 15 67 18 146 14 175 18 175 27 0 5 -4 9 -10 9 -5 0 -10 9 -10 20
0 11 -4 20 -10 20 -5 0 -10 9 -10 20 0 11 -9 25 -20 32 -13 8 -20 24 -20 44 0
17 -5 46 -11 63 -9 24 -9 35 0 44 7 7 11 61 11 152 0 78 4 145 9 151 10 10 18
84 29 249 5 73 13 121 25 144 9 19 17 46 17 61 0 14 4 30 9 36 9 8 13 37 27
159 3 28 10 54 15 59 5 6 9 36 9 68 0 32 4 58 10 58 6 0 10 15 10 34 0 19 4
38 10 41 5 3 10 21 10 39 0 17 5 37 10 42 6 6 11 87 11 207 l0 197 19 13 c11
6 20 17 20 23 0 7 23 35 50 63 28 28 50 57 50 64 0 7 9 19 20 27 11 8 20 24
20 37 0 12 5 25 10 28 6 3 10 19 10 36 0 16 5 29 10 29 6 0 10 13 10 29 0 17
5 33 10 36 6 3 10 26 10 51 0 24 -4 44 -10 44 -5 0 -10 15 -10 33 0 19 -8 42
-20 55 -11 12 -20 25 -20 30 0 5 -31 40 -70 79 -38 39 -70 78 -70 86 0 8 -3
17 -7 19 -14 6 -53 89 -53 112 0 23 -62 86 -85 86 -7 0 -17 5 -20 10 -3 6 -24
10 -45 10 -21 0 -42 5 -45 10 -3 6 -16 10 -29 10 -13 0 -31 9 -41 20 -19 21
-75 28 -75 10 0 -5 -4 -10 -10 -10 -15 0 -12 29 4 46 8 8 26 14 40 14 14 0 26
5 26 10 0 6 6 10 14 10 17 0 31 33 17 38 -12 4 -15 62 -3 62 8 0 32 49 32 67
0 7 -4 13 -10 13 -5 0 -10 16 -10 35 0 19 -9 50 -20 70 -11 20 -20 42 -20 51
0 16 -93 111 -128 132 -26 14 -132 16 -132 2z m250 -1020 c0 -56 -3 -70 -15
-70 -10 0 -15 10 -15 30 0 17 -4 30 -10 30 -14 0 -12 54 2 68 28 28 38 13 38
-58z m301 -137 c11 -20 11 -27 2 -30 -7 -3 -13 -16 -13 -29 0 -14 -9 -34 -20
-46 -11 -12 -20 -28 -20 -35 0 -7 -4 -13 -10 -13 -25 0 -5 98 25 123 6 6 6 10
-2 14 -7 2 -13 13 -13 24 0 29 34 24 51 -8z"/>
</g>
</svg>
