<?xml version="1.0" standalone="no"?>
<!DOCTYPE svg PUBLIC "-//W3C//DTD SVG 20010904//EN"
 "http://www.w3.org/TR/2001/REC-SVG-20010904/DTD/svg10.dtd">
<svg version="1.0" xmlns="http://www.w3.org/2000/svg"
 width="231.932824pt" height="225.941581pt" viewBox="0 0 231.932824 225.941581"
 preserveAspectRatio="xMidYMid meet">
<metadata>
Created by Potrace Professional 1.0m
</metadata>
<g transform="translate(-0.067176,227.941581) rotate(-360.00) scale(0.100000,-0.100000)"
fill="#000000" stroke="none">
<path d="M65 2267 c-28 -17 -44 -39 -38 -54 3 -7 -2 -13 -11 -13 -19 0 -20
-17 -3 -53 9 -21 19 -27 45 -27 18 0 40 -6 48 -14 19 -20 18 -26 -6 -26 -13 0
-20 -7 -20 -19 0 -23 17 -31 53 -24 16 3 27 1 27 -6 0 -14 37 -15 45 -1 14 23
71 5 106 -32 9 -10 31 -18 48 -18 33 0 52 -13 63 -42 4 -9 16 -18 28 -20 12
-2 29 -16 38 -33 22 -40 30 -45 73 -45 29 0 42 -7 60 -30 13 -16 29 -30 36
-30 6 0 20 -13 30 -30 9 -16 21 -30 25 -30 4 0 8 -9 8 -20 0 -11 5 -20 10 -20
6 0 10 -11 10 -25 0 -13 4 -34 9 -47 5 -13 15 -43 22 -68 7 -25 16 -49 20 -55
23 -32 49 -88 49 -105 0 -11 5 -20 10 -20 6 0 10 -7 10 -15 0 -9 7 -27 16 -40
11 -16 18 -57 21 -122 3 -54 9 -99 14 -101 5 -2 9 -11 9 -19 0 -17 41 -96 53
-101 4 -2 7 -17 7 -33 0 -22 5 -29 20 -29 11 0 20 -4 20 -10 0 -5 11 -10 25
-10 27 0 75 -40 75 -62 0 -8 9 -20 20 -28 11 -8 20 -20 20 -26 0 -7 27 -40 60
-73 33 -34 60 -66 60 -71 0 -15 80 -92 113 -109 15 -8 27 -18 27 -23 0 -4 9
-8 20 -8 11 0 20 -4 20 -10 0 -5 18 -10 40 -10 22 0 40 -4 40 -10 0 -5 7 -10
15 -10 14 0 85 -28 127 -51 10 -5 26 -9 36 -9 10 0 30 -6 45 -12 20 -10 25
-18 21 -33 -8 -25 -43 -54 -66 -55 -10 0 -18 -3 -18 -8 0 -4 -13 -13 -29 -20
-57 -25 -43 -72 21 -72 36 0 120 20 133 31 5 5 16 9 25 9 9 0 26 9 38 20 12
11 34 20 49 20 15 0 41 11 57 25 l29 25 -23 43 c-31 54 -76 97 -112 104 -15 3
-28 9 -28 14 0 5 -8 9 -17 9 -10 0 -29 9 -43 20 -14 11 -30 20 -35 20 -6 0
-31 18 -55 40 -25 22 -49 40 -53 40 -12 0 -32 22 -40 43 -3 9 -13 17 -22 17
-8 0 -15 4 -15 9 0 13 -86 51 -117 51 -38 1 -63 22 -63 53 0 14 -4 29 -10 32
-5 3 -10 17 -10 31 0 13 -4 24 -10 24 -5 0 -10 18 -10 40 l0 40 33 0 33 0 131
-128 c101 -98 142 -132 175 -142 24 -8 50 -22 59 -32 9 -10 22 -18 28 -18 16
0 50 -21 84 -52 17 -16 36 -28 43 -28 8 0 14 -4 14 -9 0 -5 8 -11 18 -14 45
-15 122 -76 122 -98 0 -13 96 -108 128 -126 53 -31 92 -5 92 61 0 25 -4 46
-10 46 -5 0 -10 7 -10 15 0 38 -78 125 -112 125 -10 0 -21 8 -25 18 -4 9 -18
26 -31 37 -14 11 -37 31 -52 45 -15 14 -44 39 -64 55 -19 17 -36 36 -36 43 0
24 -111 122 -136 122 -13 0 -24 4 -24 8 0 4 -15 8 -34 8 -18 0 -40 7 -48 15
-21 21 -78 106 -78 116 0 5 -9 15 -20 23 -11 8 -20 22 -20 32 0 10 -5 18 -12
18 -9 0 -9 3 0 12 22 22 14 63 -15 79 -29 14 -63 47 -63 59 0 4 -16 25 -35 46
-19 22 -35 43 -35 47 0 5 -14 22 -30 37 -29 27 -42 80 -20 80 17 0 11 45 -10
68 -11 12 -20 28 -20 36 0 8 -6 16 -12 19 -7 2 -9 8 -5 13 4 4 17 3 27 -4 11
-7 31 -12 44 -12 14 0 28 -4 31 -10 3 -5 17 -10 31 -10 13 0 24 -4 24 -10 0
-5 7 -10 15 -10 8 0 38 -22 66 -50 28 -27 56 -50 61 -50 6 0 18 -8 27 -18 9
-10 24 -21 34 -25 9 -3 17 -13 17 -22 0 -8 5 -15 10 -15 6 0 10 -9 10 -20 0
-11 5 -20 10 -20 6 0 10 -20 10 -44 0 -25 5 -48 10 -51 5 -3 10 -16 10 -28 1
-33 24 -57 54 -57 19 0 26 -5 26 -20 0 -28 50 -28 57 0 3 11 9 20 14 20 5 0 9
8 9 18 0 10 9 24 20 32 21 15 28 50 10 50 -5 0 -10 9 -10 20 0 11 -3 20 -8 20
-4 0 -15 18 -25 40 -9 22 -24 40 -32 40 -8 0 -15 4 -15 8 0 5 -12 15 -27 23
-34 17 -93 78 -93 96 0 7 -4 13 -9 13 -5 0 -12 9 -16 20 -3 10 -22 35 -41 54
-18 18 -34 38 -34 43 -1 4 -14 24 -30 43 -17 19 -30 39 -30 45 0 7 -12 18 -27
26 -16 7 -53 38 -83 69 -59 59 -91 80 -122 80 -12 0 -28 8 -37 18 -22 25 -55
42 -83 42 -13 1 -39 14 -58 30 -19 17 -40 30 -48 30 -32 0 -57 59 -32 75 14 9
12 91 -3 117 -19 34 -34 48 -51 48 -9 0 -16 5 -16 10 0 6 -32 10 -76 10 l-76
0 -31 -33 c-39 -40 -57 -70 -57 -96 0 -11 -5 -23 -11 -26 -6 -4 -8 -13 -5 -21
7 -18 -13 -29 -27 -15 -16 16 -134 14 -141 -1 -5 -10 -7 -10 -12 0 -3 7 -24
12 -49 12 -24 0 -57 5 -72 11 -15 6 -39 16 -53 21 -14 6 -33 14 -42 19 -10 5
-44 9 -76 9 -61 0 -112 17 -112 37 0 16 -108 123 -123 122 -7 0 -21 -6 -32
-12z"/>
<path d="M1158 334 c-42 -33 -58 -52 -58 -70 0 -13 -4 -24 -10 -24 -5 0 -10
-18 -10 -40 0 -22 5 -40 10 -40 6 0 10 -9 10 -20 0 -11 3 -20 8 -20 4 0 13
-13 20 -28 18 -42 82 -72 153 -72 33 0 59 4 59 10 0 6 7 10 15 10 43 0 105
106 105 179 l0 52 -44 43 c-58 58 -74 66 -143 66 l-58 0 -57 -46z"/>
</g>
</svg>
