<?xml version="1.0" standalone="no"?>
<!DOCTYPE svg PUBLIC "-//W3C//DTD SVG 20010904//EN"
 "http://www.w3.org/TR/2001/REC-SVG-20010904/DTD/svg10.dtd">
<svg version="1.0" xmlns="http://www.w3.org/2000/svg"
 width="168.296282pt" height="259.969283pt" viewBox="0 0 168.296282 259.969283"
 preserveAspectRatio="xMidYMid meet">
<metadata>
Created by Potrace Professional 1.0m
</metadata>
<g transform="translate(0.198615,260.000000) rotate(-360.00) scale(0.100000,-0.100000)"
fill="#000000" stroke="none">
<path d="M1120 2560 c0 -22 3 -40 8 -40 8 0 32 -49 32 -67 0 -7 -4 -13 -8 -13
-5 0 -15 -12 -23 -27 -8 -16 -35 -49 -61 -75 -27 -26 -48 -52 -48 -57 0 -12
-21 -53 -31 -61 -9 -7 -40 -62 -79 -140 -5 -11 -10 -26 -10 -34 0 -15 -45 -56
-61 -56 -5 0 -6 7 -3 15 4 8 1 15 -5 15 -7 0 -11 21 -11 53 l0 52 -44 48 -44
47 -70 0 -71 0 -23 -22 c-13 -13 -30 -35 -37 -50 -17 -33 -37 -36 -46 -8 -3
11 -11 20 -16 20 -5 0 -9 9 -9 20 0 11 -4 20 -9 20 -5 0 -11 8 -14 18 -11 33
-42 75 -99 133 -32 32 -58 62 -58 67 0 5 -12 21 -26 36 l-27 26 -53 0 c-30 0
-54 5 -54 10 0 6 -9 10 -19 10 -11 0 -23 5 -26 10 -9 15 -44 12 -62 -5 l-15
-16 13 -17 c26 -34 55 -52 86 -52 17 0 35 -4 38 -10 3 -5 19 -10 36 -10 22 0
29 -5 29 -20 0 -11 5 -20 10 -20 6 0 10 -6 10 -13 0 -7 9 -23 20 -35 11 -12
20 -26 20 -32 0 -7 17 -28 37 -48 21 -20 44 -49 52 -64 8 -16 18 -28 23 -28 4
0 8 -13 8 -30 0 -16 5 -30 10 -30 6 0 10 -13 10 -30 0 -16 5 -30 10 -30 6 0
10 -7 10 -15 0 -9 9 -25 20 -37 11 -12 20 -28 20 -35 0 -7 5 -13 10 -13 6 0
10 -7 10 -16 0 -8 17 -32 38 -52 21 -20 49 -57 63 -82 13 -25 27 -46 32 -48 4
-2 7 -10 7 -19 0 -8 14 -28 30 -43 17 -15 30 -33 30 -39 0 -6 14 -25 30 -43
17 -17 30 -37 30 -44 0 -8 5 -14 10 -14 17 0 11 -71 -8 -89 -9 -9 -23 -28 -31
-43 -8 -16 -18 -28 -23 -28 -4 0 -8 -9 -8 -20 0 -11 -6 -29 -12 -40 -10 -16
-10 -24 0 -40 6 -11 12 -33 12 -50 0 -16 5 -30 10 -30 6 0 10 -7 10 -15 0 -8
13 -29 30 -47 16 -17 30 -37 30 -44 0 -8 5 -14 10 -14 6 0 10 -7 10 -16 0 -9
8 -24 18 -33 9 -9 23 -32 30 -52 14 -42 16 -185 2 -194 -5 -3 -10 -15 -10 -26
0 -10 -4 -19 -9 -19 -5 0 -16 -17 -24 -38 l-16 -39 -138 -6 c-76 -4 -203 -10
-283 -13 -156 -7 -182 -15 -154 -45 10 -11 23 -19 31 -19 7 0 13 -4 13 -10 0
-6 -30 -10 -70 -10 -51 0 -70 -4 -70 -13 0 -26 25 -66 48 -77 34 -15 101 -12
118 5 20 19 29 19 49 -1 19 -20 117 -24 123 -6 5 15 38 16 47 2 14 -23 135 65
135 98 0 6 9 12 19 12 11 0 23 5 26 10 3 6 19 10 35 10 16 0 32 5 35 10 4 6
11 8 16 5 12 -8 12 -155 0 -155 -5 0 -11 3 -13 8 -8 18 -66 41 -89 34 -32 -9
-89 -44 -89 -54 0 -4 -24 -8 -54 -8 -57 0 -74 -13 -52 -40 21 -27 55 -40 107
-40 l51 0 29 31 c21 23 33 28 42 21 6 -6 26 -12 42 -14 l30 -3 0 -50 c0 -37
-4 -50 -15 -51 -33 -2 -39 -5 -76 -39 l-39 -35 -48 0 c-31 0 -54 -6 -64 -16
l-16 -16 26 -24 c14 -13 31 -24 37 -24 12 0 40 -24 40 -34 0 -3 -12 -6 -26 -6
-27 0 -54 -20 -54 -42 0 -7 12 -19 27 -25 32 -15 93 -17 93 -3 0 6 9 10 20 10
11 0 20 5 20 10 0 6 36 10 89 10 49 0 91 3 93 8 2 4 23 17 46 29 46 24 96 30
107 13 3 -5 15 -10 26 -10 10 0 19 -4 19 -10 0 -6 27 -10 60 -10 33 0 60 4 60
10 0 6 7 10 15 10 34 0 62 45 76 121 7 42 21 82 31 93 10 11 18 24 18 29 0 15
24 32 67 46 l42 14 37 -37 c45 -45 56 -45 80 -2 16 30 31 30 55 2 30 -35 51
-33 68 5 11 25 11 36 2 50 -6 10 -11 30 -11 44 0 14 -5 34 -12 44 l-12 20 23
18 22 18 -15 30 c-8 17 -20 43 -26 59 l-11 29 -244 -6 -244 -6 -4 97 c-5 106
-13 155 -29 189 -7 15 -8 56 -3 125 14 188 15 272 3 316 -7 23 -16 42 -20 42
-4 0 -8 9 -8 20 0 11 -4 20 -10 20 -5 0 -10 9 -10 20 0 11 -4 20 -10 20 -5 0
-10 13 -10 29 0 17 -4 33 -10 36 -5 3 -10 17 -10 31 0 13 -4 24 -10 24 -18 0
-10 52 10 70 16 14 21 31 21 79 l1 61 -31 29 c-30 28 -44 81 -21 81 6 0 10 7
10 15 0 8 8 34 19 58 10 23 24 58 31 77 20 57 34 84 52 101 10 9 18 24 18 33
0 9 5 16 10 16 6 0 10 7 10 16 0 8 7 22 15 30 8 9 18 27 22 42 3 14 15 35 25
46 10 11 18 26 18 33 0 7 5 13 10 13 6 0 10 15 10 33 0 33 -24 67 -48 67 -7 0
-12 8 -12 18 0 16 -41 62 -55 62 -3 0 -5 -18 -5 -40z m-140 -1884 c0 -3 -4 -8
-10 -11 -5 -3 -10 -1 -10 4 0 6 5 11 10 11 6 0 10 -2 10 -4z m-80 -299 c0 -68
-10 -97 -32 -97 -12 0 -10 98 2 105 6 3 10 19 10 36 0 16 5 29 10 29 6 0 10
-31 10 -73z m120 -67 c0 -5 -4 -10 -10 -10 -5 0 -10 5 -10 10 0 6 5 10 10 10
6 0 10 -4 10 -10z m0 -100 c0 -5 -4 -10 -10 -10 -5 0 -10 5 -10 10 0 6 5 10
10 10 6 0 10 -4 10 -10z m-260 -40 c0 -5 -9 -10 -20 -10 -11 0 -20 5 -20 10 0
6 9 10 20 10 11 0 20 -4 20 -10z"/>
</g>
</svg>
