<?xml version="1.0" standalone="no"?>
<!DOCTYPE svg PUBLIC "-//W3C//DTD SVG 20010904//EN"
 "http://www.w3.org/TR/2001/REC-SVG-20010904/DTD/svg10.dtd">
<svg version="1.0" xmlns="http://www.w3.org/2000/svg"
 width="279.852269pt" height="316.000000pt" viewBox="0 0 279.852269 316.000000"
 preserveAspectRatio="xMidYMid meet">
<metadata>
Created by Potrace Professional 1.0m
</metadata>
<g transform="translate(-2.000000,318.000000) rotate(-360.00) scale(0.100000,-0.100000)"
fill="#000000" stroke="none">
<path d="M1320 3163 c0 -10 18 -31 40 -47 22 -17 40 -37 40 -46 0 -9 5 -21 11
-27 16 -16 15 -89 -1 -108 -8 -9 -29 -15 -57 -15 l-44 0 -34 35 c-19 19 -35
38 -35 42 0 4 -11 21 -25 37 -17 20 -23 36 -19 52 13 50 -83 99 -120 61 -32
-31 -25 -107 9 -107 8 0 15 -4 15 -10 0 -5 9 -10 20 -10 13 0 20 -7 20 -20 0
-11 5 -20 10 -20 6 0 10 -9 10 -20 0 -11 4 -20 9 -20 17 0 34 -118 26 -183 -7
-61 -12 -110 -14 -154 -1 -17 -7 -23 -25 -23 -14 0 -28 -4 -31 -10 -3 -5 -17
-10 -31 -10 -29 0 -57 -15 -97 -52 l-30 -28 -48 0 c-77 0 -140 21 -153 50 -22
50 -46 62 -72 36 -28 -28 -14 -73 29 -89 9 -3 17 -13 17 -21 0 -8 6 -16 13
-19 6 -2 9 -8 5 -12 -4 -4 -26 11 -49 34 -23 22 -50 41 -60 41 -10 0 -21 5
-24 10 -3 6 -15 10 -26 10 -10 0 -19 5 -19 10 0 6 -9 10 -19 10 -11 0 -23 5
-26 10 -3 6 -15 10 -25 10 -11 0 -35 9 -55 20 -20 11 -44 20 -55 20 -11 0 -20
5 -20 10 0 6 -6 10 -14 10 -7 0 -26 12 -42 28 -42 40 -151 70 -186 51 -19 -10
-25 -39 -8 -39 6 0 10 -7 10 -16 l0 -17 -45 6 c-61 9 -75 2 -75 -39 l0 -34 30
0 c39 0 99 -25 106 -44 8 -21 72 -49 99 -42 l23 6 12 -30 c7 -16 25 -35 41
-42 16 -7 29 -16 29 -20 0 -5 7 -8 15 -8 8 0 34 -18 56 -40 23 -22 48 -40 55
-40 8 0 14 -4 14 -10 0 -5 9 -10 20 -10 11 0 20 -4 20 -8 0 -5 23 -15 50 -22
27 -7 50 -17 50 -22 0 -4 9 -8 20 -8 11 0 20 -3 20 -8 0 -9 72 -32 100 -32 25
0 26 -12 0 -30 -14 -10 -20 -26 -20 -50 l0 -35 30 -14 31 -13 17 14 c9 7 24
21 33 30 11 12 31 18 61 18 l45 0 12 -57 c6 -31 11 -73 11 -93 0 -37 19 -90
33 -90 4 0 7 -6 7 -14 0 -7 14 -27 30 -44 17 -18 30 -37 30 -43 0 -16 26 -39
44 -39 28 0 17 -34 -19 -57 -19 -13 -39 -23 -44 -23 -13 0 -101 -89 -101 -102
0 -19 -29 -38 -60 -38 -44 0 -82 -40 -78 -83 l3 -32 36 -3 36 -3 34 38 c37 41
70 63 94 63 23 0 19 -8 -25 -50 -22 -21 -40 -45 -40 -53 0 -28 -22 -77 -35
-77 -33 0 -58 -83 -33 -108 18 -18 79 -15 94 6 16 20 18 68 4 77 -5 3 -10 15
-10 26 0 10 5 19 10 19 6 0 10 7 10 15 0 9 8 19 18 22 9 4 19 9 22 12 11 13
51 31 68 31 11 0 33 14 50 30 37 35 42 36 42 10 0 -11 4 -20 8 -20 8 0 32
-101 32 -136 0 -10 -9 -25 -20 -32 -23 -14 -27 -57 -6 -78 18 -17 25 -17 59
-2 28 13 32 23 28 70 -2 29 14 68 28 68 13 0 71 -56 71 -69 0 -6 39 -51 86
-101 115 -119 134 -148 134 -205 l0 -45 -30 -32 c-16 -17 -30 -37 -30 -44 0
-8 -4 -14 -10 -14 -5 0 -10 -13 -10 -29 0 -17 -4 -33 -10 -36 -5 -3 -10 -19
-10 -36 0 -16 -6 -39 -12 -51 -21 -35 -96 -108 -112 -108 -8 0 -18 -5 -22 -11
-3 -6 -27 -10 -53 -9 -25 2 -54 2 -64 1 l-18 -1 3 -42 3 -43 36 -19 35 -19 32
14 c17 7 33 21 35 31 4 13 15 18 37 18 l33 0 -6 -45 c-4 -25 -16 -55 -27 -67
-11 -12 -20 -28 -20 -35 0 -7 -4 -13 -10 -13 -5 0 -10 -20 -10 -43 0 -46 21
-77 54 -77 19 0 75 -53 94 -91 20 -38 84 -69 143 -69 l49 0 0 23 c0 12 -18 41
-40 65 -23 24 -40 52 -40 65 0 13 -4 27 -9 33 -11 10 -15 49 -13 112 l2 42 19
0 c20 0 47 -52 36 -70 -3 -6 -4 -23 0 -39 10 -47 71 -51 95 -5 l13 24 -20 17
-20 18 -1 123 -2 124 30 43 c17 24 30 48 30 54 0 6 5 11 10 11 6 0 10 6 10 14
0 17 42 100 53 104 4 2 7 18 7 36 0 18 8 41 19 52 10 11 23 30 30 41 14 27 15
113 1 113 -5 0 -10 14 -10 30 0 17 -4 30 -10 30 -5 0 -10 9 -10 20 0 11 -4 20
-10 20 -5 0 -10 10 -10 23 0 12 -9 33 -20 47 -11 14 -20 35 -20 47 0 12 -4 25
-10 28 -5 3 -10 19 -10 35 0 16 -4 32 -10 35 -19 12 -10 42 15 53 45 21 81 15
101 -15 27 -43 107 -133 117 -133 11 0 27 -17 57 -60 13 -19 36 -46 50 -60 30
-30 50 -64 50 -85 0 -8 5 -15 10 -15 6 0 10 -9 10 -19 0 -11 -4 -23 -10 -26
-14 -9 -13 -68 2 -83 16 -16 56 -15 74 2 17 18 18 39 2 83 l-12 33 16 17 17
16 13 -14 c8 -8 25 -30 38 -49 33 -48 46 -60 63 -60 9 0 17 -6 20 -12 3 -10 9
-10 26 0 16 9 26 10 44 1 12 -7 30 -16 39 -21 25 -11 148 -10 148 2 0 6 10 10
23 10 33 0 79 44 75 72 l-3 23 -72 5 c-43 3 -80 11 -90 20 -10 8 -31 21 -46
29 -15 8 -27 18 -27 23 0 4 -6 8 -13 8 -19 0 -87 65 -87 83 0 8 -6 17 -12 20
-7 2 -10 8 -5 12 9 11 77 -21 77 -36 0 -15 26 -39 42 -39 16 0 58 44 58 61 0
24 -50 59 -85 59 -19 0 -35 5 -35 10 0 6 -6 10 -13 10 -7 0 -23 9 -35 20 -12
11 -28 20 -36 20 -8 0 -18 5 -21 10 -3 6 -17 10 -30 10 -14 0 -34 12 -48 30
-14 17 -31 30 -37 30 -14 0 -40 25 -40 39 0 5 -31 41 -70 80 -38 39 -70 75
-70 80 0 15 -108 121 -124 121 -9 0 -16 5 -16 10 0 6 5 10 10 10 6 0 10 11 10
25 0 28 27 45 40 25 5 -8 17 -10 33 -6 l25 6 26 -45 c15 -25 32 -45 38 -45 6
0 18 -8 27 -18 9 -11 28 -22 42 -25 14 -4 38 -18 55 -32 16 -14 34 -25 39 -25
6 0 17 -9 25 -20 8 -11 21 -20 30 -20 9 0 22 -9 30 -20 8 -11 19 -20 25 -20 6
0 20 -8 31 -18 10 -10 27 -21 37 -25 9 -3 17 -13 17 -22 0 -8 5 -15 11 -15 9
0 97 -55 109 -69 10 -12 50 -31 65 -31 8 0 15 7 15 15 0 9 9 25 20 37 11 12
20 35 20 52 l-1 31 -67 33 c-37 17 -73 32 -80 32 -6 0 -12 4 -12 8 0 5 -12 15
-27 23 -16 8 -35 22 -44 31 -9 10 -22 18 -28 18 -7 0 -21 9 -33 20 -12 11 -32
20 -45 20 -13 0 -23 4 -23 8 0 5 -22 19 -50 31 l-50 23 0 39 c0 21 -4 39 -10
39 -5 0 -10 7 -10 15 0 9 -8 19 -17 22 -10 4 -27 15 -37 25 -11 10 -23 18 -28
18 -13 0 -9 17 7 34 22 21 19 29 -22 73 -37 38 -48 55 -75 121 -7 17 -16 32
-20 32 -5 0 -8 9 -8 20 0 11 -4 20 -8 20 -5 0 -15 12 -23 27 -18 36 -77 93
-95 93 -8 0 -14 5 -14 10 0 6 -9 10 -20 10 -11 0 -20 3 -20 8 0 7 -48 32 -63
32 -5 0 -15 7 -24 16 l-16 15 22 6 c11 3 21 9 21 14 0 5 11 9 23 9 27 0 83 26
94 43 5 7 22 19 38 27 17 8 42 22 57 32 14 10 38 18 51 18 14 0 29 5 32 10 10
17 40 11 55 -10 25 -35 90 -18 90 24 0 9 5 16 10 16 6 0 10 11 10 25 0 28 -50
69 -58 47 -2 -6 -12 -12 -23 -12 -10 0 -19 -5 -19 -11 0 -7 -13 -9 -37 -5
-113 17 -123 18 -123 7 0 -6 -7 -11 -15 -11 -8 0 -29 -9 -47 -20 -35 -21 -122
-28 -133 -10 -8 13 -128 13 -140 1 -6 -6 -30 -13 -54 -17 l-44 -7 6 24 c4 13
7 40 7 60 0 26 8 45 30 67 17 18 30 39 30 47 0 8 5 15 10 15 6 0 10 15 10 34
0 19 5 38 10 41 6 3 10 17 10 31 0 14 13 44 28 67 16 23 35 57 43 75 8 17 20
32 27 32 20 0 62 31 62 46 0 8 5 14 10 14 17 0 11 19 -11 38 -12 9 -27 23 -34
30 -16 14 -45 16 -45 2 0 -5 -9 -10 -20 -10 -21 0 -26 -20 -21 -83 2 -20 -6
-36 -28 -56 -17 -16 -31 -34 -31 -41 0 -19 -61 -71 -79 -68 -9 2 -17 12 -19
23 -3 19 -7 29 -36 95 -15 35 -90 110 -110 110 -9 0 -16 5 -16 10 0 6 -13 10
-30 10 -16 0 -30 5 -30 10 0 6 -13 10 -30 10 -22 0 -30 -5 -30 -17z m-520
-753 c0 -5 -7 -10 -15 -10 -8 0 -15 5 -15 10 0 6 7 10 15 10 8 0 15 -4 15 -10z
m1012 -390 c7 -11 20 -20 30 -20 9 0 22 -13 30 -30 7 -16 16 -30 20 -30 5 0 8
-9 8 -20 0 -11 5 -20 10 -20 6 0 10 -9 10 -20 0 -11 5 -20 10 -20 6 0 10 -4
10 -10 0 -5 -7 -10 -15 -10 -20 0 -55 -20 -77 -44 l-17 -18 -33 23 c-18 13
-34 27 -36 31 -2 4 -10 8 -17 8 -8 0 -17 5 -20 10 -7 12 16 70 27 70 5 0 8 13
8 29 0 81 25 115 52 71z"/>
</g>
</svg>
