<?xml version="1.0" standalone="no"?>
<!DOCTYPE svg PUBLIC "-//W3C//DTD SVG 20010904//EN"
 "http://www.w3.org/TR/2001/REC-SVG-20010904/DTD/svg10.dtd">
<svg version="1.0" xmlns="http://www.w3.org/2000/svg"
 width="217.943680pt" height="321.936355pt" viewBox="0 0 217.943680 321.936355"
 preserveAspectRatio="xMidYMid meet">
<metadata>
Created by Potrace Professional 1.0m
</metadata>
<g transform="translate(-0.027645,322.000000) rotate(-360.00) scale(0.100000,-0.100000)"
fill="#000000" stroke="none">
<path d="M923 3198 c-12 -13 -23 -34 -25 -48 l-3 -25 -35 0 -35 0 -3 -32 c-3
-32 -24 -45 -37 -23 -3 6 -15 10 -26 10 -15 0 -19 -7 -19 -34 0 -35 -13 -55
-25 -36 -16 26 -75 0 -75 -34 0 -11 -9 -16 -29 -16 -23 0 -32 -7 -43 -30 -10
-23 -20 -30 -40 -30 -20 0 -30 -7 -40 -30 l-13 -30 -37 0 -38 0 0 -30 0 -30
-40 0 -40 0 0 -31 0 -31 -30 6 -31 6 -11 -25 c-7 -17 -19 -25 -35 -25 -28 0
-53 -21 -53 -44 0 -11 -9 -16 -28 -16 -32 0 -52 -16 -52 -42 0 -14 -8 -18 -35
-18 -38 0 -57 -22 -36 -43 6 -6 11 -33 11 -59 l0 -49 32 -34 c17 -19 37 -35
45 -35 18 0 54 21 74 43 22 24 60 22 66 -3 3 -11 12 -20 19 -20 8 0 24 -6 35
-12 l22 -13 4 13 c6 17 23 15 23 -3 0 -14 -18 -53 -30 -65 -18 -18 -32 -54
-21 -58 7 -2 11 -33 11 -83 0 -46 4 -79 10 -79 6 0 10 -13 10 -30 0 -16 -4
-30 -10 -30 -5 0 -10 -12 -10 -27 -1 -43 -26 -127 -39 -131 -8 -3 -9 -22 -5
-67 4 -42 3 -65 -5 -69 -15 -10 -14 -55 2 -69 23 -21 56 -37 78 -37 32 0 49
-24 49 -70 0 -40 -23 -80 -38 -65 -4 4 -1 10 6 12 15 6 15 22 0 56 l-13 27
-47 0 -48 0 0 -20 c0 -11 -4 -20 -10 -20 -5 0 -10 -16 -10 -35 0 -43 -24 -69
-93 -104 l-48 -25 3 -49 c2 -32 8 -53 18 -57 34 -17 66 -29 84 -32 11 -2 28
-18 38 -37 10 -18 26 -40 34 -49 l16 -16 22 14 c45 29 74 40 90 34 21 -8 21
-24 0 -24 -46 0 -61 -83 -22 -120 23 -21 74 -27 80 -10 2 7 13 6 30 -2 27 -12
37 -28 20 -28 -5 0 -14 -12 -21 -27 -13 -29 -3 -43 32 -43 9 0 17 -8 17 -17 0
-10 7 -26 14 -36 26 -34 66 -14 66 34 0 18 6 28 20 32 14 3 20 14 20 31 0 14
-4 26 -10 26 -5 0 -10 9 -10 20 l0 20 36 0 c38 0 64 18 64 44 0 9 5 16 11 16
22 0 69 -42 69 -61 0 -12 7 -19 20 -19 11 0 20 5 20 10 0 6 9 10 19 10 l19 0
6 -152 c3 -84 9 -227 12 -318 3 -91 10 -167 15 -168 12 -5 12 -79 -1 -87 -6
-3 -10 -50 -10 -106 l0 -100 35 -34 c36 -36 62 -44 83 -23 10 10 16 7 28 -10
30 -43 74 -18 74 42 0 20 -4 36 -10 36 -6 0 -10 51 -10 133 0 93 -4 137 -12
145 -10 10 -10 15 2 22 12 7 12 12 2 22 -8 8 -12 46 -12 114 0 56 -4 104 -9
106 -5 2 -10 50 -11 108 -3 159 -2 170 14 170 22 0 28 -16 28 -71 0 -27 3 -49
7 -49 3 0 8 -84 9 -187 2 -103 7 -190 11 -193 5 -3 9 -70 10 -150 1 -80 6
-146 12 -148 5 -2 9 -26 9 -53 l0 -49 26 0 c15 0 33 8 40 17 16 21 18 69 4 78
-5 3 -10 41 -10 84 0 43 -3 81 -7 85 -4 4 -8 47 -10 97 -1 50 -7 136 -12 192
-7 70 -7 104 1 108 7 4 7 12 0 26 -13 23 -21 308 -9 319 13 14 17 -2 20 -87 2
-47 6 -90 10 -96 4 -6 8 -67 9 -137 1 -69 5 -126 10 -126 13 0 10 -158 -3
-162 -9 -3 -9 -9 0 -25 6 -12 11 -63 11 -113 0 -106 8 -120 68 -120 31 0 43 5
56 25 18 27 23 140 6 150 -5 3 -10 24 -10 46 0 21 -4 39 -10 39 -5 0 -10 9
-10 20 0 11 -4 20 -9 20 -8 0 -14 61 -27 317 -4 68 -10 123 -13 123 -4 0 -8
27 -9 60 -1 33 2 60 7 60 5 0 19 -13 32 -30 24 -30 58 -40 60 -17 1 6 1 32 0
57 l-2 45 27 12 26 12 14 -14 c8 -7 14 -19 14 -25 0 -15 42 -29 73 -23 16 3
27 1 27 -6 0 -6 -4 -11 -10 -11 -21 0 -9 -46 20 -77 17 -18 30 -38 30 -46 0
-12 19 -27 34 -27 9 0 46 39 46 49 0 23 31 71 45 71 8 0 15 7 15 15 0 8 -7 15
-16 15 -8 0 -22 7 -30 15 l-15 14 23 26 c15 17 32 25 56 25 42 0 62 19 62 60
0 34 -19 60 -44 60 -20 0 -20 7 -2 26 19 18 66 19 66 1 0 -19 33 -47 54 -47
25 0 46 25 46 54 l0 26 25 0 c16 0 40 15 66 40 23 22 50 40 61 40 37 0 52 31
49 98 l-1 22 -33 0 c-41 0 -87 20 -87 38 0 26 -32 46 -71 45 -21 -1 -40 1 -43
5 -2 4 -5 50 -7 102 -2 52 -6 100 -10 105 -4 6 -9 51 -12 100 -19 396 -26 588
-22 596 8 12 45 12 45 -1 0 -5 6 -10 13 -10 18 0 67 24 67 33 0 4 6 7 14 7 7
0 27 14 44 30 18 17 37 30 42 30 6 0 25 13 43 30 18 16 38 30 45 30 16 0 16
52 0 68 -7 7 -20 12 -30 12 -10 0 -18 5 -18 10 0 6 -7 10 -16 10 -18 0 -97 41
-102 53 -2 4 -9 7 -16 7 -18 0 -66 24 -66 33 0 4 -9 7 -20 7 -11 0 -20 5 -20
10 0 6 -11 10 -25 10 -23 0 -63 16 -75 31 -3 3 -43 26 -90 50 -47 24 -86 47
-88 52 -2 4 -14 7 -27 7 -13 0 -27 5 -30 10 -3 6 -15 10 -26 10 -10 0 -19 5
-19 10 0 6 -6 10 -13 10 -7 0 -23 9 -35 20 -12 11 -28 20 -37 20 -8 0 -15 4
-15 9 0 5 -8 11 -17 14 -10 4 -37 18 -61 32 -23 14 -51 25 -62 25 -11 0 -20 5
-20 10 0 6 -9 10 -20 10 -11 0 -20 5 -20 10 0 6 -18 10 -40 10 -22 0 -40 -4
-40 -10 0 -5 -9 -10 -20 -10 -11 0 -20 -4 -20 -10 0 -5 -13 -10 -30 -10 -20 0
-30 5 -30 15 0 21 -40 65 -60 65 -9 0 -26 -10 -37 -22z m57 -79 c0 -12 -7 -19
-20 -19 -22 0 -29 35 -7 43 18 6 27 -2 27 -24z m-100 -54 c0 -8 -4 -15 -10
-15 -5 0 -10 7 -10 15 0 8 5 15 10 15 6 0 10 -7 10 -15z m200 5 c0 -5 -4 -10
-10 -10 -5 0 -10 5 -10 10 0 6 5 10 10 10 6 0 10 -4 10 -10z m-260 -60 c0 -5
-11 -10 -25 -10 -14 0 -25 5 -25 10 0 6 11 10 25 10 14 0 25 -4 25 -10z m455
-40 c3 -5 -3 -10 -14 -10 -12 0 -21 5 -21 10 0 6 6 10 14 10 8 0 18 -4 21 -10z
m-547 -18 c2 -7 -3 -12 -12 -12 -9 0 -16 7 -16 16 0 17 22 14 28 -4z m-88 -57
c0 -8 -7 -15 -15 -15 -16 0 -20 12 -8 23 11 12 23 8 23 -8z m-80 -60 c0 -8 -4
-15 -10 -15 -5 0 -10 7 -10 15 0 8 5 15 10 15 6 0 10 -7 10 -15z m520 -14 c0
-10 -6 -24 -14 -30 -11 -9 -20 -7 -40 14 -14 14 -26 28 -26 30 0 3 18 5 40 5
l40 0 0 -19z m460 -11 c0 -5 -4 -10 -10 -10 -5 0 -10 5 -10 10 0 6 5 10 10 10
6 0 10 -4 10 -10z m-1080 -40 c0 -5 -4 -10 -10 -10 -5 0 -10 5 -10 10 0 6 5
10 10 10 6 0 10 -4 10 -10z m1160 0 c0 -5 -4 -10 -10 -10 -5 0 -10 5 -10 10 0
6 5 10 10 10 6 0 10 -4 10 -10z m-1240 -60 c0 -5 -4 -10 -10 -10 -5 0 -10 5
-10 10 0 6 5 10 10 10 6 0 10 -4 10 -10z m1144 -41 c3 -17 6 -62 6 -100 0 -52
-3 -69 -14 -69 -9 0 -15 23 -20 83 -7 81 -2 117 14 117 4 0 10 -14 14 -31z
m336 -19 c0 -5 -9 -10 -20 -10 -11 0 -20 5 -20 10 0 6 9 10 20 10 11 0 20 -4
20 -10z m-1380 -115 l0 -106 -15 -6 c-9 -3 -18 -4 -20 -2 -2 3 -7 42 -10 89
l-7 85 19 22 c10 13 21 23 26 23 4 0 7 -47 7 -105z m420 95 c0 -6 30 -10 70
-10 40 0 70 -4 70 -10 0 -5 -9 -10 -20 -10 -11 0 -20 -4 -20 -10 0 -5 -9 -10
-20 -10 -11 0 -20 5 -20 10 0 6 -12 10 -28 10 -16 0 -32 8 -40 20 -7 12 -8 20
-2 20 5 0 10 -4 10 -10z m400 -10 c0 -11 -4 -20 -10 -20 -5 0 -10 2 -10 4 0 2
-3 11 -6 20 -4 11 -1 16 10 16 9 0 16 -8 16 -20z m-1076 4 c21 -8 21 -33 0
-41 -18 -7 -35 14 -27 34 6 15 6 15 27 7z m1736 -25 c0 -25 -33 -22 -38 4 -2
12 3 17 17 17 15 0 21 -6 21 -21z m-1802 -56 c-5 -26 -38 -29 -38 -4 0 15 6
21 21 21 14 0 19 -5 17 -17z m542 -33 c0 -5 -4 -10 -10 -10 -5 0 -10 5 -10 10
0 6 5 10 10 10 6 0 10 -4 10 -10z m-620 -20 c0 -5 -4 -10 -10 -10 -5 0 -10 5
-10 10 0 6 5 10 10 10 6 0 10 -4 10 -10z m1460 -80 c0 -5 -4 -10 -10 -10 -5 0
-10 5 -10 10 0 6 5 10 10 10 6 0 10 -4 10 -10z m-560 -80 c0 -5 -4 -10 -10
-10 -5 0 -10 5 -10 10 0 6 5 10 10 10 6 0 10 -4 10 -10z m-580 -280 c0 -5 -4
-10 -10 -10 -5 0 -10 5 -10 10 0 6 5 10 10 10 6 0 10 -4 10 -10z m0 -91 c0
-11 -4 -17 -10 -14 -5 3 -10 13 -10 21 0 8 5 14 10 14 6 0 10 -9 10 -21z m20
-114 c0 -19 -4 -35 -10 -35 -5 0 -10 16 -10 35 0 19 5 35 10 35 6 0 10 -16 10
-35z m82 -510 c0 -5 -5 -11 -11 -13 -6 -2 -11 4 -11 13 0 9 5 15 11 13 6 -2
11 -8 11 -13z m92 -6 c-7 -11 -34 -12 -34 -1 0 14 11 21 26 15 8 -3 11 -9 8
-14z m-54 -39 c0 -5 -4 -10 -10 -10 -5 0 -10 5 -10 10 0 6 5 10 10 10 6 0 10
-4 10 -10z m786 -27 c15 -20 19 -63 6 -63 -13 0 -52 49 -52 65 0 21 30 19 46
-2z m-526 -23 c0 -23 -25 -27 -46 -6 -21 21 -18 26 16 26 23 0 30 -4 30 -20z
m100 15 c0 -3 -9 -15 -20 -27 -11 -12 -20 -28 -20 -35 0 -7 -4 -13 -10 -13
-11 0 -13 24 -4 58 4 15 14 22 30 22 13 0 24 -2 24 -5z m100 -5 c0 -5 -4 -10
-10 -10 -5 0 -10 -7 -10 -16 0 -20 -39 -56 -54 -51 -18 6 -13 27 14 58 24 28
60 39 60 19z m506 -4 c17 -18 18 -36 2 -36 -23 0 -39 16 -32 33 8 21 11 21 30
3z m-806 -44 c0 -20 -45 -46 -61 -37 -17 11 -9 35 10 35 11 0 23 5 26 10 10
16 25 11 25 -8z m-400 -12 c0 -5 -4 -10 -10 -10 -5 0 -10 5 -10 10 0 6 5 10
10 10 6 0 10 -4 10 -10z m480 -40 c0 -5 -2 -10 -4 -10 -3 0 -8 5 -11 10 -3 6
-1 10 4 10 6 0 11 -4 11 -10z m198 -17 c-2 -17 -10 -29 -20 -31 -21 -4 -24 22
-5 43 19 22 29 18 25 -12z m-158 -3 c0 -5 -4 -10 -10 -10 -5 0 -10 5 -10 10 0
6 5 10 10 10 6 0 10 -4 10 -10z m696 -27 c-10 -10 -19 5 -10 18 l8 13 4 -13
c2 -7 1 -15 -2 -18z m-856 7 c0 -5 -4 -10 -10 -10 -5 0 -10 5 -10 10 0 6 5 10
10 10 6 0 10 -4 10 -10z m384 -63 c10 -10 28 -77 21 -77 -14 0 -45 44 -45 64
0 29 5 32 24 13z m-64 -112 c0 -45 3 -84 6 -88 3 -3 8 -77 11 -164 3 -87 9
-160 13 -163 5 -3 10 -57 11 -120 l3 -115 -22 -3 c-14 -2 -22 -10 -22 -23 0
-10 -4 -19 -10 -19 -5 0 -10 9 -10 20 0 11 5 20 10 20 6 0 10 9 10 20 0 11 -4
20 -8 20 -12 0 -9 73 3 83 6 6 6 10 -2 14 -10 3 -13 48 -13 174 0 106 -4 169
-10 169 -14 0 -13 37 2 42 7 3 8 9 3 19 -11 16 -18 196 -9 219 l5 15 15 -19
c9 -13 14 -46 14 -101z"/>
</g>
</svg>
