<?xml version="1.0" standalone="no"?>
<!DOCTYPE svg PUBLIC "-//W3C//DTD SVG 20010904//EN"
 "http://www.w3.org/TR/2001/REC-SVG-20010904/DTD/svg10.dtd">
<svg version="1.0" xmlns="http://www.w3.org/2000/svg"
 width="290.000000pt" height="345.158830pt" viewBox="0 0 290.000000 345.158830"
 preserveAspectRatio="xMidYMid meet">
<metadata>
Created by Potrace Professional 1.0m
</metadata>
<g transform="translate(-0.000000,345.541806) rotate(-360.00) scale(0.100000,-0.100000)"
fill="#000000" stroke="none">
<path d="M1240 3440 c-14 -11 -41 -20 -62 -20 l-38 0 0 -20 c0 -11 4 -20 9
-20 18 0 21 -33 6 -63 -8 -16 -15 -32 -15 -34 0 -1 21 -3 47 -3 34 0 53 -6 69
-21 29 -28 54 -19 54 19 0 19 8 36 25 48 32 24 32 42 0 54 -14 5 -28 18 -31
27 -16 53 -30 60 -64 33z m37 -66 c14 -15 22 -29 16 -33 -5 -3 -12 -14 -16
-23 -7 -19 -37 -25 -37 -8 0 6 -9 10 -20 10 -15 0 -20 7 -20 28 0 55 36 67 77
26z"/>
<path d="M1751 3282 c-19 -9 -39 -26 -45 -37 -6 -10 -17 -25 -23 -33 -28 -30
-46 -85 -60 -187 -3 -22 -9 -44 -14 -50 -5 -5 -9 -17 -9 -27 0 -21 -17 -52
-42 -82 -10 -11 -18 -26 -18 -33 0 -9 -15 -13 -49 -13 -28 0 -53 -4 -56 -10
-3 -5 -26 -10 -51 -10 l-44 0 0 43 c0 29 6 50 20 65 13 13 20 35 20 60 0 21
-9 57 -20 80 -11 22 -20 47 -20 54 0 26 -59 41 -161 39 -100 -1 -139 -12 -139
-39 0 -8 -13 -27 -30 -42 -16 -15 -30 -35 -30 -44 0 -9 -4 -24 -9 -34 -21 -41
-30 -69 -35 -107 -11 -88 -19 -121 -37 -152 -11 -19 -19 -49 -19 -68 0 -25 -4
-35 -15 -35 -22 0 -65 45 -65 69 0 11 -4 23 -10 26 -5 3 -10 15 -10 26 0 10
-4 19 -10 19 -5 0 -10 15 -10 33 0 18 -5 38 -12 45 -9 9 -9 18 0 37 7 14 12
42 12 63 0 45 -22 142 -32 142 -5 0 -8 11 -8 25 0 25 -15 58 -37 82 -6 7 -31
13 -55 13 l-43 0 -33 -35 c-17 -20 -32 -42 -32 -50 0 -7 -4 -17 -10 -20 -5 -3
-10 -17 -10 -31 0 -13 -4 -24 -10 -24 -5 0 -10 -6 -10 -13 0 -7 -8 -31 -19
-53 -10 -21 -24 -74 -32 -116 -7 -43 -17 -78 -21 -78 -4 0 -8 -13 -8 -30 0
-16 -4 -30 -8 -30 -4 0 -13 -21 -21 -47 -7 -27 -17 -57 -21 -68 -5 -11 -14
-38 -21 -60 -6 -22 -15 -48 -20 -57 -5 -10 -9 -31 -9 -48 0 -17 -4 -38 -9 -48
-15 -29 -31 -87 -31 -110 0 -12 -4 -22 -10 -22 -5 0 -10 -18 -10 -39 0 -22 -4
-42 -9 -45 -9 -6 -13 -26 -27 -136 -4 -30 -10 -57 -13 -60 -12 -10 -31 -77
-31 -108 0 -18 -4 -32 -10 -32 -5 0 -10 -10 -10 -22 0 -20 -13 -69 -31 -113
-4 -11 -13 -38 -20 -60 -6 -22 -15 -48 -20 -57 -5 -10 -9 -25 -9 -33 0 -8 -4
-15 -10 -15 -5 0 -10 -11 -10 -24 0 -14 -4 -28 -10 -31 -5 -3 -10 -15 -10 -26
0 -10 -4 -19 -10 -19 -5 0 -10 -16 -10 -35 l0 -35 24 -6 c30 -7 62 22 89 77 9
20 44 65 78 100 33 35 68 80 77 101 9 21 20 38 24 38 5 0 8 9 8 20 0 11 4 20
9 20 5 0 11 13 14 29 4 16 18 41 32 55 14 14 25 29 25 33 0 4 14 22 30 40 17
18 30 37 30 43 0 6 9 20 20 32 11 12 20 31 20 41 0 11 22 42 50 69 27 27 50
56 50 64 0 7 5 14 10 14 6 0 10 6 10 13 0 7 9 23 20 35 11 12 20 33 20 47 0
14 5 25 10 25 6 0 10 9 10 20 0 27 5 26 46 -16 l36 -35 -21 -18 c-21 -19 -29
-71 -11 -71 6 0 10 -13 10 -30 0 -16 -4 -30 -10 -30 -5 0 -10 -9 -10 -20 0
-11 -4 -20 -10 -20 -5 0 -10 -6 -10 -12 0 -7 -14 -29 -30 -48 -16 -19 -30 -41
-30 -47 0 -7 -4 -13 -10 -13 -5 0 -10 -9 -10 -20 0 -11 -4 -20 -10 -20 -5 0
-10 -11 -10 -24 0 -14 -5 -28 -10 -31 -6 -3 -10 -17 -10 -30 0 -13 -5 -27 -10
-30 -6 -3 -10 -15 -10 -26 0 -10 -3 -19 -6 -19 -14 0 -34 31 -34 54 0 15 -5
36 -12 49 -6 12 -14 28 -18 36 -3 8 -12 17 -18 19 -9 3 -12 -17 -12 -67 0 -41
4 -71 10 -71 6 0 10 -13 10 -29 0 -17 5 -33 10 -36 21 -13 9 -47 -30 -84 -22
-21 -40 -45 -40 -54 0 -10 -4 -17 -10 -17 -5 0 -10 -7 -10 -16 0 -8 -18 -33
-40 -54 -22 -21 -40 -42 -40 -47 0 -4 -12 -21 -26 -38 -35 -41 -45 -69 -49
-140 -2 -33 -8 -61 -14 -63 -15 -5 -14 -147 1 -174 7 -13 25 -35 41 -49 15
-15 27 -34 27 -43 0 -9 5 -16 10 -16 6 0 10 -7 10 -15 0 -8 18 -33 40 -56 l40
-41 -2 -91 c-1 -61 2 -92 10 -95 7 -2 12 -21 12 -43 0 -21 5 -39 10 -39 6 0
10 -9 10 -20 0 -11 4 -28 9 -38 5 -9 15 -30 22 -47 8 -16 22 -37 31 -46 10 -9
18 -21 18 -28 0 -6 13 -25 30 -43 16 -17 30 -35 30 -41 0 -10 50 -57 62 -57 3
0 23 -16 42 -35 20 -19 41 -35 46 -35 5 0 20 -11 34 -25 14 -14 37 -25 51 -25
14 0 25 -4 25 -10 0 -5 18 -10 39 -10 22 0 41 -4 43 -9 2 -6 49 -12 106 -15
56 -3 107 -8 112 -11 5 -3 11 -1 15 5 3 5 26 10 50 10 24 0 47 5 50 10 3 6 22
10 41 10 19 0 54 9 76 20 23 11 48 20 55 20 7 0 13 5 13 10 0 6 6 10 13 10 7
0 23 9 35 20 12 11 26 20 32 20 13 0 180 165 180 178 0 5 13 23 30 40 17 18
30 43 30 57 0 14 3 25 8 25 11 0 32 74 32 113 0 18 5 38 12 45 9 9 8 36 -1
114 -7 57 -16 112 -21 123 -4 11 -13 40 -20 65 -14 51 -51 133 -62 138 -5 2
-8 10 -8 19 0 17 -14 32 -52 57 -16 10 -28 23 -28 28 0 5 -22 31 -50 58 -27
27 -50 54 -50 60 0 6 15 26 34 45 19 19 37 43 41 55 3 11 11 20 16 20 5 0 9
42 9 94 l0 93 30 31 c17 18 30 38 30 46 0 8 5 16 12 18 15 5 14 144 -1 162 -6
7 -11 52 -10 101 1 51 -4 92 -10 98 -6 6 -11 21 -11 33 0 18 -31 51 -79 84 -4
3 -15 20 -24 38 l-16 34 14 15 c8 8 18 26 22 41 3 15 12 32 19 39 15 15 44 17
44 3 0 -5 6 -10 14 -10 8 0 18 -9 21 -20 3 -11 15 -20 26 -20 14 0 19 -7 19
-30 0 -16 4 -30 9 -30 5 0 12 -16 15 -35 3 -19 9 -51 12 -70 3 -19 10 -35 15
-35 5 0 9 -9 9 -20 0 -11 5 -20 10 -20 6 0 10 -9 10 -20 0 -11 5 -20 10 -20 6
0 10 -14 10 -32 0 -31 14 -87 31 -120 5 -10 9 -22 9 -28 0 -6 9 -20 20 -32 11
-12 20 -34 20 -48 0 -14 9 -36 20 -48 11 -12 20 -35 20 -51 0 -16 5 -33 10
-36 6 -3 10 -17 10 -30 0 -13 5 -27 10 -30 6 -3 10 -19 10 -36 0 -16 5 -29 10
-29 6 0 10 -9 10 -20 0 -11 5 -20 10 -20 6 0 10 -9 10 -19 0 -11 3 -21 8 -23
10 -4 52 -87 52 -104 0 -8 5 -14 10 -14 6 0 10 -7 10 -15 0 -14 102 -125 115
-125 3 0 5 14 5 30 0 17 -4 30 -9 30 -10 0 -18 42 -27 135 -4 33 -10 64 -15
69 -5 6 -9 29 -9 53 0 24 -4 43 -9 43 -5 0 -12 30 -15 68 -3 37 -10 117 -16
177 -5 61 -14 151 -20 200 -6 50 -14 141 -16 203 -3 61 -9 112 -15 112 -5 0
-9 57 -9 135 l0 134 19 11 c11 5 25 16 33 23 7 7 23 20 36 29 13 8 49 40 80
70 32 30 66 57 75 61 9 3 17 14 17 24 0 20 20 81 33 101 6 8 38 12 100 13 51
0 125 4 165 8 40 4 76 3 78 -1 3 -4 20 -8 37 -8 34 -1 67 -20 67 -39 0 -15 45
-61 60 -61 22 0 40 29 40 64 0 19 5 38 10 41 6 3 10 19 10 35 0 16 -4 32 -10
35 -5 3 -10 30 -10 60 0 30 -4 56 -9 59 -4 3 -11 18 -14 33 -6 32 -38 73 -57
73 -15 0 -60 -50 -60 -67 0 -7 -4 -13 -10 -13 -5 0 -10 -7 -10 -15 0 -23 -41
-61 -75 -69 -17 -4 -50 -10 -75 -13 -25 -3 -50 -10 -57 -15 -18 -14 -206 -14
-211 1 -10 29 -82 2 -82 -31 0 -23 -52 -38 -137 -38 l-83 0 0 30 c0 17 -4 30
-9 30 -5 0 -11 19 -14 43 -5 38 -16 95 -32 172 -14 63 -44 107 -90 131 -35 18
-62 17 -104 -4z m69 -30 c0 -4 -13 -13 -30 -20 l-30 -14 0 -54 c0 -43 -4 -56
-20 -66 -15 -9 -20 -24 -20 -53 0 -29 -6 -45 -20 -55 -14 -10 -20 -26 -20 -53
0 -46 -32 -97 -62 -97 -15 0 -18 4 -13 18 4 9 10 26 13 37 3 11 8 22 11 25 15
12 31 64 31 100 0 22 5 40 11 40 6 0 8 11 4 28 -4 21 0 35 20 58 14 16 25 34
25 39 0 6 9 17 20 25 11 8 20 22 20 32 0 13 8 18 30 18 17 0 30 -3 30 -8z
m-1162 -105 c2 -15 8 -27 13 -27 13 0 11 -87 -3 -110 l-13 -20 23 -15 c17 -13
22 -26 22 -61 0 -25 -6 -51 -13 -57 -15 -14 -54 -37 -63 -37 -3 0 -4 35 -3 77
1 51 -2 78 -9 81 -15 5 -16 54 -1 69 16 16 7 67 -13 71 -13 2 -18 -3 -18 -17
0 -14 -6 -21 -20 -21 -13 0 -20 7 -20 20 0 11 5 20 10 20 6 0 10 7 10 15 0 16
55 45 80 42 8 -1 16 -14 18 -30z m626 -163 c21 -8 20 -31 -1 -52 -12 -12 -18
-13 -21 -4 -2 6 -17 12 -33 12 -16 0 -29 3 -29 8 0 5 41 30 67 41 1 1 8 -2 17
-5z m-104 -36 c0 -6 -10 -22 -21 -34 l-21 -23 15 -15 c10 -11 34 -16 71 -16
43 0 56 -4 56 -15 0 -11 -8 -13 -30 -8 l-30 6 0 -22 c0 -11 5 -21 10 -21 6 0
10 -18 10 -40 l0 -40 -30 0 c-16 0 -30 5 -30 10 0 6 -7 10 -15 10 -22 0 -65
45 -65 68 0 10 -5 23 -12 30 -9 9 -7 16 8 29 24 23 44 58 44 78 0 8 9 15 20
15 11 0 20 -5 20 -12z m1520 -19 c0 -5 -9 -9 -20 -9 -22 0 -27 16 -7 23 15 5
27 -1 27 -14z m-2220 -115 c0 -9 -31 -37 -36 -32 -9 9 8 38 22 38 8 0 14 -3
14 -6z m1690 2 c0 -20 -22 -56 -35 -56 -8 0 -15 -4 -15 -10 0 -5 -13 -10 -30
-10 -16 0 -30 -4 -30 -10 0 -5 -9 -10 -20 -10 l-20 0 0 40 0 40 30 0 c17 0 30
5 30 10 0 6 20 10 45 10 25 0 45 -2 45 -4z m50 -16 c0 -11 -4 -20 -10 -20 -5
0 -10 9 -10 20 0 11 5 20 10 20 6 0 10 -9 10 -20z m-1552 -17 c12 -12 16 -32
15 -75 -1 -68 -6 -77 -28 -55 -10 11 -15 35 -15 81 0 36 3 66 6 66 3 0 13 -7
22 -17z m922 -16 c0 -12 -40 -47 -54 -47 -22 0 -21 37 2 43 22 6 52 8 52 4z
m-1130 -17 c0 -5 -4 -10 -10 -10 -5 0 -10 5 -10 10 0 6 5 10 10 10 6 0 10 -4
10 -10z m1020 -12 c0 -13 -10 -36 -23 -52 -24 -29 -75 -44 -159 -45 l-38 -1 0
25 c0 15 13 40 33 60 l32 34 78 0 77 1 0 -22z m700 -9 c0 -23 -142 -169 -164
-169 -8 0 -16 -3 -18 -7 -1 -5 -23 -18 -46 -30 -78 -41 -139 -22 -93 28 12 13
21 31 21 42 0 23 23 47 44 47 9 0 16 5 16 10 0 6 9 10 20 10 11 0 20 5 20 10
0 6 11 10 24 10 14 0 28 5 31 10 3 6 17 10 30 10 13 0 27 5 30 10 3 6 17 10
31 10 14 0 27 7 30 15 9 22 24 18 24 -6z m-1045 -14 l25 -24 0 -71 c0 -51 4
-76 15 -87 l16 -15 18 21 c10 12 26 21 35 21 9 0 16 8 16 20 0 15 7 20 24 20
14 0 28 5 31 10 3 6 37 10 76 10 39 0 69 -4 69 -10 0 -5 7 -10 16 -10 8 0 22
-7 30 -15 l15 -15 -23 -23 c-16 -16 -35 -24 -58 -24 -19 0 -36 -5 -38 -11 -2
-7 -15 -12 -28 -12 -26 0 -110 -36 -120 -51 -3 -5 -13 -9 -23 -9 -9 0 -27 -9
-39 -20 -12 -11 -27 -20 -34 -20 -8 0 -20 -9 -28 -20 -20 -28 -58 -26 -70 4
-5 13 -14 27 -19 31 -14 8 -41 -18 -41 -39 0 -11 -9 -16 -30 -16 -16 0 -30 -4
-30 -10 0 -5 -20 -10 -45 -10 l-45 0 0 19 c0 11 40 61 93 115 96 98 117 125
117 151 0 8 5 15 10 15 6 0 10 10 10 23 0 21 20 77 28 77 2 0 14 -11 27 -25z
m565 -185 c0 -16 -4 -30 -10 -30 -5 0 -10 14 -10 30 0 17 5 30 10 30 6 0 10
-13 10 -30z m140 24 c0 -3 -6 -12 -14 -20 -20 -19 -26 -18 -26 6 0 13 7 20 20
20 11 0 20 -3 20 -6z m-1460 -83 c0 -6 -4 -13 -10 -16 -5 -3 -10 -17 -10 -31
0 -13 -4 -24 -9 -24 -5 0 -12 -10 -16 -22 -4 -15 -8 -19 -12 -10 -3 8 0 19 6
25 6 6 11 28 11 49 l0 38 20 0 c11 0 20 -4 20 -9z m1020 -21 c0 -5 -13 -10
-30 -10 -16 0 -30 -4 -30 -9 0 -5 -16 -11 -35 -13 -19 -2 -35 -3 -35 -1 0 1
10 11 22 23 23 21 108 29 108 10z m-980 -50 c0 -11 -4 -20 -10 -20 -5 0 -10 9
-10 20 0 11 5 20 10 20 6 0 10 -9 10 -20z m800 -10 c0 -5 -4 -10 -10 -10 -5 0
-10 5 -10 10 0 6 5 10 10 10 6 0 10 -4 10 -10z m200 0 c0 -5 -7 -10 -15 -10
-8 0 -15 5 -15 10 0 6 7 10 15 10 8 0 15 -4 15 -10z m-81 -36 c9 -8 -11 -54
-24 -54 -8 0 -15 -4 -15 -10 0 -5 -9 -10 -19 -10 -11 0 -23 -4 -26 -10 -10
-16 -65 -12 -82 6 l-16 16 14 8 c8 5 24 7 37 3 22 -5 52 11 52 28 0 5 -7 9
-15 9 -21 0 -19 18 3 23 17 4 83 -3 91 -9z m-939 -59 c0 -25 -4 -45 -10 -45
-5 0 -10 20 -10 45 0 25 5 45 10 45 6 0 10 -20 10 -45z m75 15 c-3 -5 -10 -10
-16 -10 -5 0 -9 5 -9 10 0 6 7 10 16 10 8 0 12 -4 9 -10z m445 0 c0 -5 -4 -10
-10 -10 -5 0 -10 5 -10 10 0 6 5 10 10 10 6 0 10 -4 10 -10z m-40 -14 c0 -3
-4 -8 -10 -11 -5 -3 -10 -1 -10 4 0 6 5 11 10 11 6 0 10 -2 10 -4z m254 -25
c3 -4 3 -10 0 -13 -7 -8 -54 3 -54 13 0 12 47 12 54 0z m-74 -31 c0 -13 -7
-20 -20 -20 -19 0 -27 20 -13 33 13 14 33 6 33 -13z m-680 -30 c0 -5 -4 -10
-10 -10 -5 0 -10 5 -10 10 0 6 5 10 10 10 6 0 10 -4 10 -10z m960 -50 c0 -11
-4 -20 -10 -20 -5 0 -10 9 -10 20 0 11 5 20 10 20 6 0 10 -9 10 -20z m-513
-36 l21 -6 -5 -36 c-4 -21 -10 -38 -15 -40 -4 -2 -8 -9 -8 -16 0 -7 -13 -27
-30 -44 -16 -18 -30 -39 -30 -47 0 -8 -4 -15 -10 -15 -5 0 -10 -9 -10 -20 0
-11 -3 -20 -7 -20 -9 0 -33 -49 -33 -67 0 -7 -4 -13 -10 -13 -5 0 -10 -8 -10
-18 0 -9 -9 -23 -20 -30 -11 -7 -20 -19 -20 -28 0 -9 -8 -24 -17 -33 -23 -21
-43 -57 -43 -76 0 -8 -4 -15 -10 -15 -19 0 -11 -66 10 -85 11 -10 20 -26 20
-37 0 -10 5 -18 10 -18 6 0 10 -7 10 -15 0 -8 -3 -15 -6 -15 -3 0 -12 7 -20
15 -24 23 -30 19 -44 -30 -16 -56 -30 -49 -30 16 0 27 -4 49 -10 49 -5 0 -10
11 -10 24 0 14 5 28 10 31 6 3 10 24 10 46 0 21 5 39 10 39 6 0 10 14 10 30 0
17 5 30 10 30 6 0 10 15 10 33 0 18 4 37 8 43 5 5 15 29 22 54 8 25 17 47 20
50 10 9 30 50 30 61 0 6 14 24 30 39 17 15 30 33 30 39 0 7 9 21 20 33 11 12
20 28 20 35 0 7 5 13 10 13 6 0 10 9 10 19 0 17 9 23 40 30 3 0 15 -2 27 -5z
m257 -28 c-3 -9 -10 -16 -15 -16 -5 0 -9 -7 -9 -15 0 -17 -20 -56 -33 -66 -5
-3 -9 -45 -9 -93 1 -47 -3 -86 -9 -86 -5 0 -9 -7 -9 -16 0 -26 -26 -44 -64
-44 -20 0 -36 -4 -36 -10 0 -6 -30 -10 -70 -10 l-70 0 0 20 c0 11 5 20 10 20
6 0 10 9 10 20 0 11 5 20 10 20 6 0 10 9 10 20 0 11 5 20 10 20 6 0 10 7 10
15 0 18 19 54 40 75 8 8 21 27 29 43 11 21 21 27 48 27 36 0 54 12 66 43 3 9
17 17 29 17 13 0 30 9 38 20 16 22 23 21 14 -4z m196 14 c0 -5 -4 -10 -10 -10
-5 0 -10 5 -10 10 0 6 5 10 10 10 6 0 10 -4 10 -10z m-100 -20 c0 -5 -4 -10
-10 -10 -5 0 -10 5 -10 10 0 6 5 10 10 10 6 0 10 -4 10 -10z m-912 -27 c12
-12 13 -18 4 -21 -6 -2 -12 -17 -12 -32 0 -16 -4 -32 -10 -35 -5 -3 -10 -16
-10 -29 0 -22 -17 -46 -32 -46 -12 0 -10 48 2 55 6 3 10 24 10 46 0 21 5 39
10 39 6 0 10 9 10 20 0 24 6 25 28 3z m1052 12 c0 -3 -20 -25 -44 -49 -35 -35
-54 -46 -90 -51 l-46 -7 0 16 c0 9 8 16 20 16 11 0 20 5 20 10 0 6 6 10 13 10
7 0 23 9 35 20 12 11 33 20 47 20 14 0 25 5 25 10 0 6 5 10 10 10 6 0 10 -2
10 -5z m49 -63 c-14 -28 -58 -72 -71 -72 -5 0 -8 -4 -8 -10 0 -5 9 -10 20 -10
29 0 24 -13 -10 -28 -16 -8 -30 -18 -30 -23 0 -16 40 -9 62 11 12 11 30 20 40
20 l18 0 -7 -32 c-8 -40 -18 -48 -65 -48 -47 0 -138 -21 -138 -32 0 -4 -13 -8
-29 -8 -29 0 -41 14 -41 51 0 11 -7 22 -15 25 -23 9 -19 44 6 44 39 0 107 22
128 41 11 10 24 19 29 19 4 0 33 23 62 51 55 52 75 52 49 1z m-26 -246 c10 -8
15 -20 11 -30 -4 -11 -1 -16 10 -16 9 0 16 -6 16 -14 0 -7 14 -27 30 -44 17
-18 30 -34 30 -37 0 -12 -34 -3 -49 13 -9 9 -28 23 -43 31 -16 8 -28 18 -28
23 0 4 -11 8 -25 8 -14 0 -25 5 -25 10 0 6 7 10 16 10 24 0 12 35 -14 38 -12
2 -22 8 -22 13 0 14 73 10 93 -5z m-145 -38 c2 -16 9 -28 15 -28 18 0 71 -49
62 -58 -4 -4 -10 -1 -12 6 -3 6 -12 12 -22 12 -9 0 -23 9 -31 20 -8 11 -22 20
-32 20 -10 0 -18 5 -18 10 0 6 -9 10 -20 10 -14 0 -20 7 -20 21 l0 20 38 -3
37 -3 3 -27z m-184 2 c17 -5 43 -12 58 -15 15 -3 33 -12 42 -20 8 -8 23 -15
33 -15 42 -1 64 -41 47 -84 -6 -16 -54 -23 -54 -8 0 8 -49 32 -67 32 -7 0 -13
3 -13 8 0 10 -50 32 -72 32 -10 0 -18 5 -18 10 0 6 11 10 25 10 14 0 25 -4 25
-10 0 -5 10 -10 23 -10 26 0 77 -21 77 -32 0 -5 9 -8 20 -8 12 0 20 7 20 16 0
9 -9 18 -20 21 -11 3 -20 9 -20 14 0 5 -9 9 -20 9 -11 0 -20 4 -20 9 0 5 -16
12 -35 15 -19 3 -51 9 -70 12 -19 3 -35 10 -35 15 0 12 36 11 74 -1z m446 -35
c31 -33 18 -44 -14 -12 -14 15 -26 29 -26 32 0 12 18 3 40 -20z m-640 -7 c22
-7 40 -16 40 -20 0 -5 9 -8 20 -8 11 0 20 5 20 10 0 6 5 10 10 10 6 0 10 -13
10 -29 l0 -29 38 -15 c45 -18 71 -41 95 -84 20 -37 15 -55 -21 -74 -15 -8 -34
-22 -43 -31 -9 -10 -26 -18 -37 -18 -11 0 -24 -4 -27 -10 -12 -19 -45 -11 -45
10 0 11 5 20 10 20 15 0 12 78 -2 83 -21 6 -48 -4 -48 -19 0 -26 -30 -27 -51
-3 l-20 23 -9 -14 c-6 -8 -7 -22 -3 -30 3 -8 5 -38 4 -67 -1 -28 3 -54 8 -58
16 -9 13 -64 -3 -81 -8 -8 -31 -14 -50 -14 l-36 0 0 70 c0 40 -4 70 -10 70 -5
0 -10 15 -10 33 0 32 -20 100 -33 113 -9 10 -9 74 1 74 4 0 13 13 20 29 7 17
26 36 43 43 16 7 29 16 29 20 0 12 56 9 100 -4z m-708 -120 c-9 -9 -12 -7 -12
12 0 19 3 21 12 12 9 -9 9 -15 0 -24z m371 -47 c-3 -33 -2 -68 2 -78 4 -10 10
-37 12 -60 l4 -43 -16 0 c-21 0 -45 24 -45 44 0 9 -4 16 -10 16 -6 0 -10 28
-10 65 l0 65 22 25 c37 43 49 33 41 -34z m-121 -113 c3 -7 -2 -43 -11 -80
l-15 -68 -38 0 c-27 0 -38 4 -38 15 0 20 22 65 32 65 4 0 8 6 8 13 0 13 41 66
51 67 4 0 9 -6 11 -12z m178 -98 c0 -5 -4 -10 -10 -10 -5 0 -10 5 -10 10 0 6
5 10 10 10 6 0 10 -4 10 -10z m886 -127 c19 -20 34 -47 34 -60 0 -12 5 -43 12
-67 l12 -44 -15 -14 c-8 -7 -45 -24 -82 -36 l-68 -23 -30 13 c-16 7 -29 16
-29 20 0 5 -6 8 -13 8 -7 0 -22 8 -33 18 -10 9 -37 23 -59 31 -22 7 -52 22
-67 33 l-28 19 0 40 c0 21 -4 39 -10 39 -14 0 -13 33 2 48 8 8 62 12 176 12
l164 0 34 -37z m140 -120 c19 -20 34 -42 34 -48 0 -6 9 -17 20 -25 11 -8 20
-22 20 -32 0 -10 5 -18 10 -18 6 0 10 -13 10 -30 0 -16 5 -30 10 -30 6 0 10
-11 10 -24 0 -14 5 -28 10 -31 15 -9 12 -25 -5 -25 -17 0 -72 53 -93 90 -41
70 -49 89 -55 125 -3 22 -9 50 -13 63 -9 32 3 27 42 -15z m-448 -75 c2 -4 12
-8 22 -8 10 0 20 -4 22 -9 2 -5 23 -20 48 -34 l45 -25 8 -43 c5 -24 11 -82 14
-129 l5 -86 -19 -34 c-11 -20 -29 -36 -41 -38 -12 -2 -22 -8 -22 -13 0 -5 -7
-9 -15 -9 -8 0 -23 -4 -33 -9 -81 -41 -108 -51 -134 -51 -45 0 -58 20 -58 88
l0 59 30 31 30 32 0 80 0 81 -20 21 c-13 15 -20 36 -20 64 l0 43 23 4 c31 5
111 -4 115 -15z m408 -82 c8 -8 14 -22 14 -30 0 -9 5 -16 10 -16 6 0 10 -6 10
-13 0 -7 10 -24 23 -37 l22 -25 0 -57 c-1 -45 -5 -61 -21 -75 -11 -10 -29 -30
-38 -45 -14 -22 -26 -28 -52 -28 -19 0 -34 5 -34 10 0 6 -6 10 -13 10 -7 0
-23 9 -35 20 -12 11 -26 20 -33 20 -28 0 -38 36 -39 138 l0 102 20 0 c11 0 20
5 20 10 0 6 11 10 24 10 14 0 28 5 31 10 9 15 74 12 91 -4z m-1020 -201 c18
-9 29 -24 32 -42 2 -15 7 -32 13 -37 5 -6 9 -18 9 -28 0 -10 5 -18 10 -18 6 0
10 -9 10 -20 0 -23 -4 -24 -32 -9 -32 17 -68 56 -68 74 0 8 -4 15 -10 15 -11
0 -14 63 -3 73 8 9 6 9 39 -8z m434 -9 c0 -14 -4 -28 -10 -31 -5 -3 -10 -28
-10 -56 0 -27 -4 -49 -10 -49 -5 0 -10 9 -10 19 0 11 -4 23 -10 26 -15 10 -12
63 6 90 21 32 44 32 44 1z m768 -8 c14 -14 16 -114 2 -123 -5 -3 -10 -15 -10
-26 0 -10 -4 -27 -8 -37 -5 -9 -20 -39 -33 -67 -27 -57 -35 -67 -67 -84 -39
-21 -52 -8 -52 54 0 30 5 55 10 55 6 0 10 15 10 34 0 19 5 38 10 41 6 3 10 13
10 22 0 9 8 23 18 32 9 9 23 28 31 44 8 15 18 27 23 27 4 0 8 9 8 20 0 23 29
27 48 8z m-328 -118 c0 -5 11 -10 24 -10 14 0 28 -4 31 -10 3 -5 19 -10 35
-10 34 0 40 -14 30 -68 -4 -23 -5 -53 -2 -67 2 -15 0 -25 -7 -25 -6 0 -11 -10
-11 -22 0 -37 -66 -98 -105 -98 -8 0 -15 -3 -15 -7 0 -12 -51 -33 -77 -33 -13
0 -23 -5 -23 -11 0 -11 -9 -10 -107 7 -18 4 -33 10 -33 15 0 5 -7 9 -15 9 -9
0 -27 11 -40 25 -20 19 -25 34 -25 73 l0 49 44 46 c24 26 51 47 60 47 9 0 16
5 16 10 0 6 7 10 15 10 9 0 25 9 37 20 12 11 28 20 35 20 7 0 13 5 13 10 0 6
9 10 20 10 11 0 20 5 20 10 0 6 18 10 40 10 22 0 40 -4 40 -10z m-542 -22 c5
-7 12 -24 14 -38 l3 -25 43 -3 c23 -2 42 -7 42 -13 0 -5 8 -9 18 -9 32 0 40
-30 28 -95 -6 -33 -14 -65 -18 -71 -7 -11 -61 -24 -98 -25 -62 0 -130 39 -130
76 0 8 -4 15 -10 15 -5 0 -10 25 -10 56 l0 56 43 44 c44 46 58 52 75 32z
m-308 -48 c8 -11 19 -20 25 -20 17 0 65 -46 65 -64 0 -9 4 -16 9 -16 5 0 14
-13 21 -30 7 -16 16 -30 20 -30 3 0 13 -12 21 -27 8 -16 23 -35 34 -44 l19
-16 -16 -17 c-9 -9 -21 -16 -28 -16 -14 0 -120 106 -120 121 0 6 -8 19 -17 28
-10 9 -28 36 -40 59 -34 66 -29 121 7 72z m970 -246 c0 -10 -54 -54 -65 -54
-6 0 -17 -9 -25 -20 -8 -12 -26 -20 -42 -20 -15 0 -28 -4 -28 -10 0 -5 -13
-10 -29 -10 -16 0 -31 -6 -34 -12 -2 -7 -8 -9 -13 -5 -10 10 43 57 64 57 6 0
12 5 12 10 0 6 9 10 20 10 11 0 28 4 38 9 9 5 32 16 50 23 17 7 32 16 32 20 0
5 5 8 10 8 6 0 10 -3 10 -6z m-443 -61 c3 -7 14 -13 25 -13 28 0 78 -38 78
-59 0 -14 -13 -21 -57 -30 -70 -14 -103 -14 -103 -1 0 6 -22 10 -50 10 -27 0
-50 5 -50 10 0 6 -13 10 -30 10 -16 0 -30 5 -30 10 0 6 -7 10 -15 10 -24 0
-73 49 -58 58 6 4 73 7 149 7 101 0 138 -3 141 -12z"/>
</g>
</svg>
