<?xml version="1.0" standalone="no"?>
<!DOCTYPE svg PUBLIC "-//W3C//DTD SVG 20010904//EN"
 "http://www.w3.org/TR/2001/REC-SVG-20010904/DTD/svg10.dtd">
<svg version="1.0" xmlns="http://www.w3.org/2000/svg"
 width="205.292003pt" height="192.018576pt" viewBox="0 0 205.292003 192.018576"
 preserveAspectRatio="xMidYMid meet">
<metadata>
Created by Potrace Professional 1.0m
</metadata>
<g transform="translate(-0.706776,194.018576) rotate(-360.00) scale(0.100000,-0.100000)"
fill="#000000" stroke="none">
<path d="M1647 1933 c-11 -10 -8 -191 3 -198 6 -3 10 -26 10 -51 0 -24 5 -44
10 -44 6 0 10 -9 10 -20 0 -11 -4 -20 -10 -20 -5 0 -10 7 -10 15 0 8 -4 15
-10 15 -5 0 -10 6 -10 13 0 7 -9 19 -20 27 -11 8 -20 20 -20 28 0 13 -64 82
-76 82 -3 0 -19 9 -35 21 -21 14 -41 19 -71 17 l-43 -3 3 -25 c1 -14 7 -26 12
-28 6 -2 10 -10 10 -17 0 -7 14 -27 30 -45 17 -18 30 -38 30 -46 0 -8 6 -14
13 -14 6 0 42 -29 80 -64 l67 -63 -15 -36 c-8 -21 -20 -37 -26 -37 -7 0 -19
-8 -28 -18 -27 -32 -57 -42 -123 -42 l-64 0 -14 20 c-11 15 -26 20 -62 20 -26
0 -50 5 -53 10 -3 6 -20 10 -36 10 -21 0 -40 11 -64 35 -19 19 -35 36 -35 39
0 3 21 6 47 8 36 2 49 7 51 21 2 12 -3 17 -17 17 -31 0 -26 34 9 61 41 33 40
59 -3 59 -26 0 -36 6 -44 23 -12 25 -6 77 8 77 5 0 9 5 9 10 0 18 -35 11 -50
-10 -17 -23 -32 -25 -60 -8 -14 9 -25 9 -42 1 -13 -6 -38 -17 -55 -25 -18 -7
-33 -16 -33 -20 0 -12 -48 -10 -55 2 -3 6 -21 10 -38 10 -22 0 -45 10 -67 30
-19 16 -41 29 -47 30 -7 0 -13 5 -13 10 0 6 -11 10 -25 10 -31 0 -31 -8 -2
-45 47 -60 90 -95 120 -95 14 -1 32 -15 49 -40 22 -32 34 -40 59 -40 27 0 59
-19 59 -34 0 -3 -9 -6 -20 -6 -11 0 -20 -4 -20 -10 0 -5 -7 -10 -15 -10 -19 0
-65 -44 -65 -62 0 -8 -9 -20 -20 -28 -34 -24 -19 -110 19 -110 23 0 41 -28 41
-64 0 -19 -5 -38 -10 -41 -5 -3 -10 -17 -10 -31 0 -13 5 -24 10 -24 6 0 10
-22 10 -50 l0 -50 -19 0 c-11 0 -23 -4 -26 -10 -3 -5 -19 -10 -36 -10 -16 0
-37 -4 -47 -9 -9 -6 -29 -12 -44 -15 -15 -4 -33 -13 -42 -21 -8 -8 -19 -15
-25 -15 -6 0 -34 -22 -62 -50 -28 -27 -57 -50 -65 -50 -8 0 -14 -5 -14 -12 0
-6 -3 -9 -6 -5 -3 3 -7 34 -8 69 -1 35 -6 69 -10 76 -10 16 -36 15 -36 -1 0
-7 -8 -22 -17 -33 -31 -33 -42 -80 -30 -119 6 -19 14 -35 19 -35 4 0 8 -9 8
-20 0 -11 -4 -20 -10 -20 -5 0 -10 -9 -10 -19 0 -11 -4 -23 -10 -26 -5 -3 -10
-31 -10 -61 0 -30 -4 -54 -10 -54 -6 0 -10 -28 -10 -63 0 -86 -12 -101 -83
-99 l-55 1 -12 -29 c-7 -17 -16 -30 -21 -30 -5 0 -9 -7 -9 -15 0 -9 -9 -25
-20 -37 -11 -12 -20 -28 -20 -35 0 -7 -4 -13 -10 -13 -5 0 -10 -9 -10 -20 0
-11 -4 -20 -8 -20 -5 0 -15 -12 -23 -27 -8 -16 -21 -35 -29 -43 -25 -25 -62
-104 -51 -108 6 -2 11 -12 11 -23 0 -14 7 -19 26 -19 39 0 134 103 134 145 0
8 5 15 10 15 6 0 10 7 10 16 0 21 84 104 105 104 8 0 15 5 15 10 0 6 14 10 30
10 23 0 30 -4 30 -20 0 -11 -4 -20 -10 -20 -5 0 -10 -9 -10 -20 0 -11 -4 -20
-10 -20 -5 0 -10 -10 -10 -22 0 -26 -32 -66 -73 -92 -15 -10 -27 -25 -27 -32
0 -8 -4 -14 -10 -14 -5 0 -10 -22 -10 -50 l0 -50 23 0 c13 0 33 9 45 20 12 11
25 20 29 20 13 0 83 78 83 92 0 7 9 24 20 38 11 14 20 31 20 38 0 6 5 12 10
12 6 0 10 9 10 20 0 11 5 20 10 20 6 0 10 7 10 15 0 25 46 65 75 65 14 0 25 5
25 10 0 6 6 10 14 10 7 0 32 18 55 40 22 22 46 40 51 40 6 0 20 9 32 20 12 11
28 20 35 20 7 0 13 5 13 10 0 6 7 10 15 10 18 0 78 57 88 83 11 29 53 21 67
-13 9 -21 19 -30 36 -30 12 0 26 -4 29 -10 3 -5 15 -10 25 -10 10 0 20 -3 22
-7 6 -14 71 -46 107 -53 20 -4 44 -11 54 -15 12 -5 17 -2 17 10 0 19 -23 45
-40 45 -32 0 -83 82 -78 126 l3 29 85 18 c111 25 189 32 203 18 14 -14 47 -14
47 -1 0 6 10 10 23 10 13 0 27 3 31 7 26 26 186 46 186 23 0 -5 11 -10 25 -10
14 0 39 -13 57 -30 17 -16 42 -30 54 -30 13 0 24 -4 24 -10 0 -5 18 -10 40
-10 l40 0 0 23 c0 27 -41 77 -64 77 -9 0 -16 4 -16 9 0 5 -13 14 -30 21 -16 7
-30 16 -30 21 0 5 -7 9 -15 9 -8 0 -15 5 -15 10 0 20 64 6 90 -20 46 -46 160
-37 160 12 0 18 -45 58 -65 58 -8 0 -15 5 -15 10 0 6 -13 10 -29 10 -17 0 -33
5 -36 10 -3 6 -26 10 -51 10 -24 0 -44 5 -44 10 0 6 -11 10 -24 10 -14 0 -28
5 -31 10 -3 6 -19 10 -36 10 -16 0 -29 -4 -29 -10 0 -5 -9 -10 -20 -10 -13 0
-20 7 -20 20 0 11 6 20 14 20 8 0 18 9 21 20 3 11 11 20 16 20 5 0 9 9 9 20 0
11 4 20 9 20 5 0 12 18 16 40 9 52 49 93 108 110 26 8 47 18 47 22 0 4 11 8
24 8 14 0 28 5 31 10 3 6 17 10 31 10 46 0 114 56 114 94 0 22 -83 106 -105
106 -8 0 -15 5 -15 10 0 6 -7 10 -15 10 -8 0 -30 9 -50 20 -20 11 -45 20 -56
20 -27 0 -39 37 -39 120 0 38 -4 72 -10 75 -5 3 -10 26 -10 50 0 24 -4 46 -9
49 -4 3 -11 19 -14 35 -3 16 -12 35 -20 42 -7 8 -16 22 -20 32 -6 17 -37 23
-50 10z m-523 -581 c2 -4 19 -9 38 -10 18 -2 37 -7 42 -12 14 -14 120 -12 133
1 9 9 16 8 28 -5 l16 -16 -15 -15 c-8 -8 -21 -15 -28 -15 -8 0 -20 -9 -28 -20
-8 -11 -19 -20 -25 -20 -6 0 -21 -9 -33 -20 -12 -11 -42 -23 -67 -27 l-45 -6
0 54 c0 43 -4 58 -20 69 -11 8 -20 22 -20 32 0 18 15 24 24 10z"/>
</g>
</svg>
