<?xml version="1.0" standalone="no"?>
<!DOCTYPE svg PUBLIC "-//W3C//DTD SVG 20010904//EN"
 "http://www.w3.org/TR/2001/REC-SVG-20010904/DTD/svg10.dtd">
<svg version="1.0" xmlns="http://www.w3.org/2000/svg"
 width="331.930643pt" height="298.000000pt" viewBox="0 0 331.930643 298.000000"
 preserveAspectRatio="xMidYMid meet">
<metadata>
Created by Potrace Professional 1.0m
</metadata>
<g transform="translate(-0.066551,298.000000) rotate(-360.00) scale(0.100000,-0.100000)"
fill="#000000" stroke="none">
<path d="M1040 2971 c0 -5 -9 -11 -20 -14 -15 -4 -20 -14 -20 -40 0 -20 -4
-39 -10 -42 -18 -11 -11 -30 18 -48 15 -9 33 -21 41 -26 l14 -9 -22 -23 c-11
-12 -21 -29 -21 -36 0 -7 -4 -13 -10 -13 -19 0 -10 -51 13 -75 l22 -24 93 -3
c73 -2 95 0 103 12 8 11 12 12 16 3 3 -8 24 -13 54 -13 l49 0 0 -28 c0 -15 -5
-33 -11 -39 -14 -14 -13 -107 1 -111 5 -2 10 -14 10 -27 0 -13 5 -27 10 -30 6
-3 10 -15 10 -26 0 -10 4 -19 8 -19 4 0 14 -21 21 -47 11 -35 11 -48 3 -51 -7
-2 -12 -12 -12 -23 0 -10 -4 -19 -10 -19 -5 0 -10 -20 -10 -45 0 -25 -6 -54
-12 -65 -10 -16 -10 -24 0 -40 6 -11 12 -31 12 -45 l0 -25 -92 0 c-79 0 -151
13 -168 30 -15 15 -53 30 -78 30 -44 0 -92 20 -125 52 -50 47 -97 33 -97 -28
0 -33 13 -44 54 -44 12 0 28 -9 36 -20 8 -11 21 -20 30 -20 9 0 22 -9 30 -20
8 -11 20 -20 27 -20 7 0 21 -4 31 -9 9 -5 37 -14 62 -21 25 -7 53 -16 62 -21
10 -5 32 -9 50 -9 l33 0 3 -156 c3 -156 8 -181 45 -215 18 -18 23 -49 7 -49
-5 0 -10 -9 -10 -20 0 -11 -4 -20 -10 -20 -5 0 -10 -11 -10 -24 0 -14 -5 -28
-10 -31 -5 -3 -10 -19 -10 -36 0 -16 -5 -29 -11 -29 -6 0 -9 -6 -6 -14 3 -7
-1 -26 -9 -41 -8 -15 -14 -36 -14 -46 0 -32 -58 -17 -88 24 l-13 17 -84 0
c-46 0 -87 5 -90 10 -8 12 -72 13 -79 1 -3 -5 -22 -12 -41 -15 -19 -3 -50 -9
-68 -12 l-34 -6 -13 31 -12 31 -39 -3 c-41 -3 -75 -25 -51 -34 15 -6 16 -43 1
-43 -19 0 -89 -63 -89 -81 0 -10 -13 -23 -30 -31 -16 -7 -30 -16 -30 -20 0 -5
-9 -8 -20 -8 -11 0 -20 -4 -20 -10 0 -5 -11 -10 -24 -10 -14 0 -28 -4 -31 -10
-3 -5 -15 -10 -26 -10 -13 0 -19 -7 -19 -22 0 -27 41 -78 62 -78 9 0 18 -9 21
-20 7 -27 60 -27 89 0 12 11 28 20 35 20 7 0 13 5 13 10 0 6 9 10 19 10 11 0
23 -4 26 -10 12 -19 99 -12 123 10 29 28 63 25 87 -6 19 -26 30 -63 42 -149 3
-22 9 -44 14 -49 5 -6 9 -25 9 -43 0 -18 5 -33 10 -33 6 0 10 -13 10 -30 0
-16 -4 -30 -9 -30 -4 0 -23 -30 -42 -67 -43 -87 -53 -97 -78 -83 -11 5 -35 10
-55 10 -19 0 -38 5 -41 10 -3 6 -17 10 -31 10 -13 0 -24 5 -24 10 0 6 -9 10
-20 10 -11 0 -20 5 -20 10 0 12 -77 13 -84 1 -6 -10 -60 -20 -166 -31 -41 -4
-95 -13 -120 -20 -25 -6 -58 -14 -74 -17 -17 -3 -39 -14 -50 -24 -11 -11 -26
-19 -33 -19 -17 0 -16 -8 1 -26 17 -16 126 -20 126 -4 0 6 9 10 20 10 11 0 20
4 20 9 0 4 25 9 56 9 31 0 60 5 64 12 4 6 36 11 72 12 52 1 72 -3 96 -21 17
-11 40 -21 51 -21 12 0 21 -4 21 -10 0 -5 9 -10 20 -10 11 0 20 -4 20 -10 0
-5 14 -10 30 -10 40 0 39 -26 -1 -34 -17 -3 -55 -6 -83 -6 -36 0 -59 -6 -72
-17 -28 -25 -61 -43 -79 -43 -8 0 -15 -4 -15 -10 0 -5 -9 -10 -20 -10 -11 0
-20 -4 -20 -10 0 -5 -7 -10 -15 -10 -8 0 -25 -5 -38 -12 -12 -6 -29 -14 -37
-18 -8 -4 -20 -17 -26 -29 -6 -12 -28 -37 -48 -55 -24 -22 -36 -43 -36 -60 l0
-26 33 0 c44 0 83 20 99 50 17 34 34 50 50 50 8 0 20 9 28 20 8 11 26 20 40
20 14 0 32 9 40 20 8 11 19 20 26 20 6 0 24 6 40 13 22 11 50 12 119 5 50 -5
122 -11 160 -14 39 -3 74 -10 80 -15 21 -21 117 -7 145 21 14 14 52 30 73 30
13 0 28 5 34 11 8 8 53 11 132 10 114 -2 176 7 229 32 17 8 31 8 53 0 23 -9
31 -8 37 3 8 14 106 44 146 44 12 0 32 9 44 20 12 11 28 20 37 20 8 0 15 5 15
10 0 6 9 10 19 10 11 0 36 10 56 21 l36 21 18 -21 c10 -11 26 -21 35 -21 9 0
16 -4 16 -9 0 -5 8 -11 18 -14 9 -4 35 -13 57 -21 26 -10 75 -16 137 -16 l96
0 36 -36 c20 -20 36 -41 36 -46 0 -18 34 -37 67 -38 17 0 35 -4 38 -10 3 -5
44 -10 91 -10 l84 0 0 16 c0 18 -28 46 -72 72 -16 9 -28 20 -28 24 0 4 -13 8
-30 8 -16 0 -30 -4 -30 -10 0 -5 -9 -10 -20 -10 -13 0 -20 7 -20 20 l0 20 78
0 78 0 14 20 c8 11 22 20 31 20 10 0 19 5 21 11 2 5 27 11 56 11 l52 1 79 -81
c44 -45 86 -82 94 -82 9 0 19 -5 22 -10 3 -6 17 -10 31 -10 13 0 24 -4 24 -10
0 -11 62 -13 98 -4 16 5 22 14 22 36 0 16 -6 35 -12 41 -21 19 -81 37 -126 37
-23 0 -42 5 -42 10 0 6 -6 10 -14 10 -18 0 -106 87 -106 105 0 8 -4 15 -8 15
-5 0 -15 12 -23 28 -25 49 -55 72 -94 72 -19 0 -35 -4 -35 -10 0 -5 -9 -10
-20 -10 -11 0 -20 -4 -20 -10 0 -5 -9 -10 -20 -10 -11 0 -20 -3 -20 -7 0 -9
-49 -33 -67 -33 -8 0 -13 12 -13 30 0 17 -4 30 -10 30 -5 0 -10 14 -10 30 0
17 -4 30 -10 30 -5 0 -10 7 -10 15 0 18 -18 51 -42 79 -10 11 -18 24 -18 28 0
5 -9 18 -20 30 -11 12 -20 27 -20 33 0 6 -11 18 -25 25 -62 33 -1 37 180 11
81 -12 269 -16 315 -7 14 3 67 11 118 17 50 7 92 17 92 21 0 4 17 8 38 8 21 0
55 9 77 20 22 11 45 20 52 20 7 0 13 5 13 10 0 6 11 10 25 10 14 0 35 6 48 13
12 6 24 13 26 14 8 5 -28 31 -79 58 -53 27 -97 37 -240 53 -36 4 -71 11 -78
15 -35 23 -326 2 -357 -25 -5 -4 -17 -8 -27 -8 -10 0 -18 -4 -18 -10 0 -5 -9
-10 -20 -10 -11 0 -20 -4 -20 -10 0 -5 -9 -10 -20 -10 -11 0 -20 -4 -20 -10 0
-5 -6 -10 -13 -10 -18 0 -67 -24 -67 -32 0 -5 -13 -8 -30 -8 -16 0 -30 -4 -30
-10 0 -5 -12 -10 -26 -10 -30 0 -102 59 -122 101 -7 15 -22 36 -33 47 -10 12
-19 25 -19 30 0 16 -66 78 -100 94 -20 9 -49 28 -65 42 -17 14 -34 26 -38 26
-5 0 -15 7 -24 15 l-15 16 21 18 c12 10 21 27 21 38 0 30 -24 73 -41 73 -19 0
-39 20 -39 39 0 20 -61 74 -107 96 -21 10 -65 21 -98 25 -33 3 -70 12 -83 19
l-23 12 7 32 c3 18 10 34 13 37 4 3 10 13 14 23 4 12 17 17 42 17 19 0 35 -4
35 -10 0 -5 8 -10 18 -10 10 0 24 -9 32 -20 8 -11 22 -20 32 -20 10 0 18 -3
18 -8 0 -7 69 -32 92 -32 7 0 24 -9 38 -20 28 -22 104 -27 116 -9 4 8 9 7 16
-2 7 -11 11 -11 15 -1 2 6 18 12 34 12 22 0 29 5 29 20 0 11 5 20 10 20 6 0
10 5 10 10 0 6 -9 10 -20 10 -11 0 -20 5 -20 10 0 6 -33 10 -80 10 -44 0 -80
4 -80 8 0 5 -12 15 -27 23 -16 8 -30 16 -33 20 -3 3 -23 13 -45 24 -22 10 -54
33 -71 51 -18 17 -44 40 -58 49 -14 10 -26 24 -26 31 0 8 -4 14 -10 14 -5 0
-10 7 -10 16 0 9 -13 30 -30 46 -37 35 -37 43 -2 76 59 57 57 182 -3 182 -14
0 -25 4 -25 9 0 5 -9 11 -20 14 l-20 5 2 109 c1 61 -3 117 -9 128 -8 14 -6 26
8 52 11 18 19 40 19 48 0 8 5 15 10 15 6 0 10 8 11 18 0 9 8 31 18 47 l18 30
74 7 c41 3 99 12 129 18 30 6 129 14 220 17 91 2 169 9 175 14 5 5 22 9 37 9
21 0 28 5 28 19 0 34 -26 44 -115 42 -52 -1 -85 3 -85 9 0 6 -62 10 -170 10
-95 0 -170 4 -170 9 0 5 -21 11 -47 14 -27 3 -63 9 -81 13 -33 6 -103 -9 -130
-29 -8 -7 -20 -6 -35 0 -12 6 -37 16 -54 23 -18 7 -33 16 -33 21 0 5 -22 9
-50 9 l-50 0 0 25 c0 14 -10 36 -22 50 l-22 25 -68 0 c-37 0 -68 -4 -68 -9z
m415 -1741 c3 -5 30 -10 60 -10 30 0 57 -4 60 -10 9 -14 63 -12 68 3 2 7 15 0
34 -20 17 -18 40 -33 50 -33 23 0 101 -36 121 -56 7 -8 17 -14 22 -14 5 0 32
-23 60 -50 29 -28 67 -57 86 -65 31 -13 84 -57 84 -70 0 -3 -42 -5 -94 -5 -53
0 -98 -4 -101 -10 -3 -5 -24 -10 -46 -10 -21 0 -39 -4 -39 -10 0 -5 -10 -10
-23 -10 -13 0 -28 -5 -34 -11 -11 -11 -169 -16 -179 -6 -11 11 24 37 48 37 13
0 30 9 38 20 8 11 22 20 32 20 11 0 18 7 18 20 l0 20 -37 1 c-21 1 -49 3 -63
6 -14 2 -55 6 -92 9 l-68 6 0 18 c0 22 16 35 53 44 15 3 27 13 27 21 0 11 13
15 50 15 28 0 50 5 50 10 0 6 -19 10 -42 10 -68 0 -212 23 -225 36 -18 18 -16
32 7 44 11 6 20 15 20 21 0 27 42 50 55 29z m-675 -880 c0 -5 -4 -10 -10 -10
-5 0 -10 5 -10 10 0 6 5 10 10 10 6 0 10 -4 10 -10z m-90 -40 c0 -5 -7 -10
-15 -10 -8 0 -15 5 -15 10 0 6 7 10 15 10 8 0 15 -4 15 -10z"/>
</g>
</svg>
