<?xml version="1.0" standalone="no"?>
<!DOCTYPE svg PUBLIC "-//W3C//DTD SVG 20010904//EN"
 "http://www.w3.org/TR/2001/REC-SVG-20010904/DTD/svg10.dtd">
<svg version="1.0" xmlns="http://www.w3.org/2000/svg"
 width="287.984492pt" height="253.974572pt" viewBox="0 0 287.984492 253.974572"
 preserveAspectRatio="xMidYMid meet">
<metadata>
Created by Potrace Professional 1.0m
</metadata>
<g transform="translate(-0.015508,254.000000) rotate(-360.00) scale(0.100000,-0.100000)"
fill="#000000" stroke="none">
<path d="M1620 2488 l0 -53 -30 -35 c-16 -19 -30 -41 -30 -47 0 -7 -4 -13 -8
-13 -5 0 -15 -12 -23 -27 -20 -39 -114 -132 -145 -143 -14 -6 -65 -10 -114
-10 -49 0 -92 -4 -95 -10 -11 -17 -55 -12 -55 7 0 24 -68 83 -96 83 -12 0 -26
5 -29 10 -15 24 -75 0 -75 -30 0 -22 29 -40 64 -40 20 0 36 -3 36 -6 0 -11
-29 -34 -44 -34 -9 0 -16 -8 -16 -20 0 -13 -7 -20 -19 -20 -32 0 -42 -48 -16
-74 10 -10 26 -13 44 -10 16 4 32 1 35 -5 11 -18 50 -13 66 9 16 22 70 28 70
8 0 -19 43 -108 52 -108 4 0 8 -5 8 -11 0 -17 66 -76 105 -95 l35 -16 0 -49
c0 -26 -4 -51 -10 -54 -5 -3 -10 -16 -10 -28 0 -13 -17 -36 -40 -56 -22 -19
-40 -43 -40 -53 0 -10 -4 -18 -8 -18 -11 0 -26 -32 -43 -90 -7 -25 -19 -51
-25 -58 -24 -24 -78 -10 -116 31 -12 13 -15 28 -11 53 4 27 1 38 -13 49 -45
34 -104 6 -104 -49 0 -34 21 -56 54 -56 15 0 26 -6 26 -13 0 -7 8 -22 18 -33
10 -10 24 -39 32 -64 15 -48 31 -70 50 -70 16 0 100 -90 100 -107 0 -7 5 -13
10 -13 6 0 10 -13 10 -28 0 -30 -30 -52 -69 -52 -21 0 -152 -124 -191 -180
-13 -19 -32 -42 -42 -51 -10 -9 -18 -23 -18 -30 0 -8 -12 -20 -27 -26 -16 -7
-39 -31 -53 -53 -14 -22 -28 -40 -32 -40 -5 0 -8 -15 -8 -34 0 -19 -5 -38 -10
-41 -6 -3 -10 -17 -10 -30 0 -13 -4 -26 -9 -29 -4 -3 -11 -40 -15 -83 -4 -43
-14 -88 -22 -101 l-14 -22 -60 0 c-33 0 -60 -4 -60 -10 0 -5 -18 -10 -40 -10
-22 0 -40 -4 -40 -9 0 -8 -31 -13 -178 -28 -71 -7 -101 9 -196 102 l-77 75
-24 -24 c-32 -32 -33 -89 -2 -148 12 -23 25 -45 30 -46 4 -2 7 -10 7 -18 0 -8
20 -34 44 -58 l43 -44 219 3 c216 2 304 9 314 25 3 4 32 10 65 13 76 7 170 23
185 32 7 4 68 7 138 6 79 -1 128 3 132 9 4 7 67 11 174 11 156 0 263 -11 311
-31 36 -15 88 -22 203 -27 61 -2 112 -8 112 -14 0 -5 12 -9 28 -9 15 0 59 -7
97 -16 39 -9 85 -18 103 -21 17 -3 32 -9 32 -14 0 -5 15 -9 34 -9 19 0 37 -4
40 -9 8 -12 73 -22 189 -27 53 -3 97 -10 97 -15 0 -13 67 -11 93 3 28 15 47
34 47 47 0 6 27 38 60 70 l60 60 0 35 0 36 -39 0 c-22 0 -41 -4 -43 -8 -6 -16
-64 -49 -108 -61 -25 -7 -54 -18 -65 -24 -25 -13 -139 -11 -143 3 -2 5 -12 10
-23 10 -10 0 -19 5 -19 10 0 6 -9 10 -20 10 -11 0 -20 3 -20 8 0 8 -38 25 -97
41 -24 7 -43 16 -43 21 0 6 -9 10 -20 10 -11 0 -20 5 -20 10 0 6 -22 10 -50
10 -27 0 -50 5 -50 10 0 6 -13 10 -30 10 -16 0 -30 4 -30 8 0 5 -23 15 -51 22
-27 8 -52 18 -55 22 -3 4 -25 8 -50 8 l-44 0 0 28 c0 42 -17 52 -90 52 l-65 0
-13 40 c-6 22 -12 53 -12 70 0 16 -4 30 -10 30 -5 0 -10 12 -10 26 0 14 -7 32
-15 40 -8 8 -17 31 -21 52 -4 20 -10 39 -13 42 -16 14 -31 53 -31 85 0 19 -4
35 -10 35 -5 0 -10 14 -10 32 0 17 -6 48 -12 67 -15 41 -89 121 -113 121 -10
0 -15 10 -15 34 0 39 26 106 41 106 15 0 39 26 39 42 0 8 9 20 20 28 11 8 20
19 20 25 0 17 24 65 33 65 11 0 9 68 -3 75 -5 3 -10 15 -10 25 0 10 -6 21 -12
24 -10 5 -10 7 0 12 16 8 15 52 -2 70 -8 8 -32 14 -54 14 -31 0 -43 -5 -56
-25 -9 -13 -16 -29 -16 -35 0 -16 26 -40 43 -40 12 0 27 -19 27 -35 0 -1 -13
-17 -29 -34 -20 -22 -38 -31 -60 -31 l-30 0 -15 33 c-27 61 -28 84 -4 109 38
38 49 69 68 188 5 30 11 64 14 75 3 11 7 32 10 47 4 15 13 33 21 42 9 8 17 37
20 63 3 43 8 61 31 126 4 9 10 17 15 17 5 0 9 11 9 24 0 14 5 28 10 31 6 3 10
15 10 26 0 10 5 19 10 19 6 0 10 6 10 13 0 7 9 23 20 35 11 12 20 26 20 33 0
6 14 24 30 39 18 17 30 38 30 53 0 14 4 27 8 29 18 7 22 56 7 72 -8 8 -15 22
-15 30 0 11 -9 16 -30 16 l-30 0 0 -52z m-282 -565 c2 -30 -1 -53 -6 -53 -20
0 -92 83 -92 105 0 4 21 5 47 3 l47 -3 4 -52z m-198 -1168 c0 -26 15 -58 38
-83 7 -8 21 -32 30 -53 9 -22 20 -39 24 -39 5 0 8 -13 8 -30 l0 -30 -36 0
c-35 0 -64 -18 -64 -40 0 -18 -27 -40 -49 -40 -11 0 -23 -4 -26 -10 -3 -5 -15
-10 -26 -10 -10 0 -19 -4 -19 -10 0 -5 -17 -10 -38 -10 -21 0 -42 -4 -48 -9
-5 -5 -24 -12 -41 -16 l-33 -7 -2 19 c-4 59 11 112 42 143 16 17 29 37 73 120
32 62 55 90 71 90 7 0 18 9 26 20 8 12 26 20 42 20 l28 0 0 -25z"/>
</g>
</svg>
