<?xml version="1.0" standalone="no"?>
<!DOCTYPE svg PUBLIC "-//W3C//DTD SVG 20010904//EN"
 "http://www.w3.org/TR/2001/REC-SVG-20010904/DTD/svg10.dtd">
<svg version="1.0" xmlns="http://www.w3.org/2000/svg"
 width="139.557497pt" height="396.024882pt" viewBox="0 0 139.557497 396.024882"
 preserveAspectRatio="xMidYMid meet">
<metadata>
Created by Potrace Professional 1.0m
</metadata>
<g transform="translate(-0.162349,396.000000) rotate(-360.00) scale(0.100000,-0.100000)"
fill="#000000" stroke="none">
<path d="M350 3938 c-16 -25 -15 -125 2 -145 5 -7 7 -45 4 -90 -5 -74 -6 -97
-7 -125 -1 -61 -13 -138 -20 -138 -5 0 -9 -40 -9 -90 0 -49 4 -90 9 -90 5 0 9
-44 10 -98 l2 -98 -26 -22 c-14 -12 -30 -22 -36 -22 -19 0 -79 -73 -79 -96 0
-12 -5 -24 -11 -26 -16 -5 -16 -151 0 -156 14 -5 15 -78 1 -87 -6 -3 -10 -33
-10 -66 0 -60 20 -116 46 -132 8 -4 14 -17 14 -27 0 -10 5 -22 10 -25 14 -9
12 -109 -2 -123 -9 -9 -9 -15 0 -24 7 -7 12 -29 12 -49 0 -21 5 -41 10 -44 13
-8 13 -40 0 -65 -6 -11 -15 -29 -20 -40 -6 -11 -10 -38 -10 -60 0 -22 -4 -40
-10 -40 -5 0 -10 -22 -10 -49 0 -28 -5 -53 -10 -56 -6 -3 -10 -19 -10 -35 0
-16 -4 -31 -9 -34 -10 -7 -20 -57 -27 -141 -3 -33 -10 -64 -15 -69 -5 -6 -9
-42 -9 -82 0 -40 -4 -74 -9 -76 -5 -1 -12 -55 -16 -118 -13 -241 -20 -325 -27
-336 -4 -5 -8 -75 -9 -155 -1 -79 -5 -149 -10 -155 -5 -6 -9 -59 -10 -118 -1
-58 -6 -109 -10 -112 -5 -3 -9 -18 -9 -35 0 -16 -4 -37 -9 -47 -29 -57 -34
-74 -26 -80 6 -4 15 -16 21 -26 6 -11 19 -24 30 -30 10 -6 26 -18 34 -26 8 -8
27 -21 43 -29 15 -8 27 -18 27 -23 0 -4 9 -8 20 -8 11 0 20 -4 20 -10 0 -5 9
-10 19 -10 11 0 21 -3 23 -7 1 -5 23 -18 48 -30 l45 -23 77 2 c46 1 82 -3 90
-10 8 -6 42 -12 76 -14 34 -1 62 -6 62 -10 0 -16 66 -7 90 12 14 11 29 20 33
20 4 0 17 9 29 20 12 11 28 20 35 20 7 0 13 5 13 10 0 6 7 10 16 10 8 0 29 13
47 30 18 16 38 30 45 30 6 0 12 5 12 10 0 6 6 10 13 10 17 0 87 64 87 79 0 18
-22 51 -63 93 -36 37 -48 68 -27 68 6 0 10 -7 10 -16 0 -42 65 -59 90 -24 8
11 23 20 33 20 l19 0 -5 -53 c-4 -28 -9 -67 -13 -85 -7 -38 11 -82 33 -82 17
0 37 18 46 43 3 9 13 17 22 17 8 0 15 9 15 20 0 11 3 20 8 20 10 0 32 50 32
72 0 18 19 58 31 68 14 11 49 82 49 100 0 10 5 22 10 25 14 9 12 44 -3 58 -24
22 -57 37 -82 37 -14 0 -25 5 -25 10 0 6 -7 10 -16 10 -9 0 -29 14 -44 30 -15
17 -32 30 -37 30 -11 0 -63 53 -63 64 0 10 -27 36 -38 36 -11 0 -102 87 -102
98 0 5 -8 17 -17 28 -35 38 -48 74 -35 94 7 11 12 29 12 40 0 11 5 20 10 20 6
0 10 14 10 30 0 17 5 30 10 30 6 0 10 6 10 14 0 17 61 140 72 144 4 2 8 12 8
23 0 10 5 19 10 19 6 0 10 9 10 19 0 11 4 23 10 26 12 7 14 195 2 195 -10 0
-32 127 -32 188 0 36 5 51 20 62 11 8 20 20 20 28 0 7 7 15 15 18 8 4 23 23
32 43 10 20 34 53 55 73 21 20 38 46 38 57 0 11 5 23 10 26 19 12 4 122 -20
145 -11 11 -50 93 -50 106 0 9 11 14 30 14 17 0 30 5 30 10 0 6 14 10 30 10
17 0 30 5 30 10 0 6 7 10 16 10 21 0 104 88 104 111 0 10 5 29 11 43 9 19 8
31 -2 55 -8 17 -17 31 -21 31 -5 0 -8 7 -8 15 0 20 -44 65 -64 65 -8 0 -16 5
-18 10 -2 6 -21 11 -43 12 -22 0 -45 5 -51 9 -25 20 -124 -44 -124 -79 0 -10
-12 -32 -27 -48 -29 -30 -69 -105 -76 -139 -2 -12 -9 -18 -18 -16 -8 2 -29 6
-46 9 -18 2 -33 8 -33 13 0 5 -13 9 -30 9 -16 0 -30 5 -30 10 0 6 -9 10 -20
10 -29 0 -25 26 9 57 l28 26 -16 29 -16 28 49 45 c26 25 52 45 55 45 4 0 14
11 21 25 7 14 19 25 26 25 7 0 26 17 41 38 15 20 34 43 41 51 7 7 20 31 29 52
8 22 22 39 30 39 15 0 103 87 103 102 0 4 14 21 32 37 l32 28 -22 12 c-24 13
-30 59 -11 78 9 9 5 18 -14 37 -28 28 -52 33 -61 14 -5 -10 -7 -10 -12 0 -10
20 -44 15 -44 -8 0 -15 -7 -20 -29 -20 l-30 0 1 -67 c0 -41 -4 -69 -11 -71 -6
-2 -11 -17 -11 -33 0 -16 -4 -29 -10 -29 -5 0 -10 -8 -10 -19 0 -11 -12 -23
-30 -31 -16 -7 -30 -16 -30 -21 0 -5 -9 -9 -20 -9 -11 0 -20 -4 -20 -10 0 -5
-9 -10 -20 -10 -11 0 -20 -3 -20 -8 0 -4 -21 -18 -47 -32 -27 -14 -74 -51
-105 -82 -59 -61 -81 -70 -93 -40 -7 17 -22 88 -32 152 -3 19 -10 41 -17 49
-14 18 -11 135 5 173 7 17 9 46 5 71 -15 103 -19 117 -27 117 -5 0 -9 9 -9 20
0 17 -23 118 -50 219 -5 19 -6 40 -1 45 11 14 51 128 51 145 0 10 -9 12 -30 7
l-30 -6 1 80 c2 44 0 83 -4 86 -9 9 -37 -22 -37 -40 0 -9 -4 -16 -10 -16 -5 0
-10 7 -10 16 0 13 -22 44 -32 44 -2 0 -10 -10 -18 -22z m212 -3068 c17 -16 37
-30 44 -30 9 0 14 -11 14 -29 l0 -30 28 -3 c20 -2 28 -9 30 -27 2 -13 -2 -27
-9 -32 -18 -11 -16 -342 2 -376 10 -18 10 -26 1 -35 -7 -7 -12 -40 -12 -74 0
-35 -4 -66 -10 -69 -6 -3 -10 -15 -10 -26 0 -12 -7 -19 -20 -19 -11 0 -20 4
-20 9 0 5 -9 11 -20 14 l-20 5 0 130 c0 72 -4 133 -9 136 -4 3 -11 61 -14 128
-4 68 -10 176 -13 241 -4 64 -4 117 0 117 3 0 20 -13 38 -30z m-282 -400 c0
-16 -4 -30 -10 -30 -5 0 -10 14 -10 30 0 17 5 30 10 30 6 0 10 -13 10 -30z m7
-92 c-3 -8 -6 -5 -6 6 -1 11 2 17 5 13 3 -3 4 -12 1 -19z"/>
</g>
</svg>
