<?xml version="1.0" standalone="no"?>
<!DOCTYPE svg PUBLIC "-//W3C//DTD SVG 20010904//EN"
 "http://www.w3.org/TR/2001/REC-SVG-20010904/DTD/svg10.dtd">
<svg version="1.0" xmlns="http://www.w3.org/2000/svg"
 width="112.583648pt" height="295.847013pt" viewBox="0 0 112.583648 295.847013"
 preserveAspectRatio="xMidYMid meet">
<metadata>
Created by Potrace Professional 1.0m
</metadata>
<g transform="translate(-1.574045,297.847013) rotate(-360.00) scale(0.100000,-0.100000)"
fill="#000000" stroke="none">
<path d="M747 2957 c-12 -15 -20 -18 -23 -9 -10 23 -24 12 -24 -18 0 -16 5
-30 10 -30 19 0 10 -39 -10 -45 -11 -3 -20 -12 -20 -18 0 -7 9 -19 20 -27 11
-8 20 -22 20 -32 0 -10 5 -18 10 -18 6 0 10 -9 10 -20 0 -11 5 -20 10 -20 6 0
10 -6 10 -14 0 -7 12 -26 28 -43 38 -41 52 -68 52 -101 0 -15 4 -32 9 -38 6
-5 11 -28 12 -52 2 -24 7 -46 11 -48 4 -3 8 -34 8 -70 0 -36 5 -74 10 -84 7
-13 7 -21 0 -25 -5 -3 -10 -25 -10 -48 0 -23 -5 -49 -10 -57 -8 -12 -10 -10
-10 9 0 32 -119 148 -149 146 -11 -1 -24 -4 -27 -8 -4 -4 -18 -7 -30 -7 -13 0
-26 -4 -29 -10 -3 -5 -13 -10 -22 -10 -28 0 -83 -71 -85 -109 -5 -94 14 -188
43 -219 20 -22 27 -102 9 -102 -5 0 -10 5 -10 12 0 22 -110 118 -136 118 -13
0 -24 5 -24 10 0 6 -6 10 -14 10 -8 0 -23 14 -33 30 -9 17 -21 30 -25 30 -4 0
-8 7 -8 15 0 8 -21 36 -47 63 -53 53 -69 80 -78 132 -11 65 -24 135 -35 190
-19 97 -23 140 -11 140 16 0 14 179 -2 213 -6 15 -15 27 -19 27 -5 0 -8 6 -8
13 0 7 -6 25 -12 40 -10 20 -20 27 -40 27 l-28 0 0 -54 c0 -30 -4 -58 -10 -61
-13 -8 -13 -100 1 -185 9 -55 9 -73 -1 -85 -17 -21 -20 -307 -2 -313 7 -2 12
-22 12 -46 0 -33 6 -50 28 -73 26 -28 41 -50 62 -93 6 -11 14 -29 20 -40 5
-11 10 -24 10 -30 0 -6 9 -20 20 -32 11 -12 20 -27 20 -33 0 -6 12 -18 28 -26
15 -8 36 -22 47 -33 11 -10 29 -24 41 -32 11 -8 26 -33 33 -57 7 -23 17 -56
22 -73 5 -17 9 -44 9 -60 0 -16 14 -56 30 -89 17 -33 30 -65 30 -72 0 -7 5
-13 10 -13 6 0 10 -22 10 -50 0 -27 4 -50 9 -50 6 0 10 -49 10 -113 l1 -114
-50 -53 c-28 -30 -50 -61 -50 -71 0 -10 -5 -21 -10 -24 -13 -8 -13 -305 0
-305 6 0 10 -41 10 -104 0 -59 -4 -108 -10 -111 -5 -3 -10 -21 -10 -40 0 -19
-5 -37 -10 -40 -6 -3 -10 -16 -10 -29 0 -12 -5 -27 -10 -32 -14 -14 11 -64 33
-64 13 0 17 -8 17 -34 0 -19 5 -38 10 -41 6 -3 10 -13 10 -21 0 -8 9 -24 20
-36 11 -12 20 -28 20 -35 0 -9 15 -13 45 -13 35 0 52 6 70 25 l25 24 0 146 0
145 30 0 c17 0 30 -4 30 -10 0 -6 35 -10 85 -10 l86 0 25 -25 c14 -14 37 -28
52 -32 30 -7 45 -20 55 -46 5 -13 18 -17 57 -17 l51 0 34 35 c19 19 35 43 35
53 0 10 5 23 10 28 15 15 15 277 1 282 -6 2 -11 13 -11 24 0 11 -8 32 -19 46
-21 31 -31 76 -38 183 -3 57 -9 82 -24 97 l-19 21 0 136 c0 83 4 135 10 135 6
0 10 40 10 100 0 55 4 100 9 100 13 0 14 287 1 295 -12 8 -13 88 -1 100 23 24
29 211 12 360 -15 135 -22 175 -32 181 -5 3 -9 18 -9 35 0 16 -4 29 -8 29 -5
0 -15 23 -22 50 -7 28 -16 50 -20 50 -3 0 -12 21 -19 48 -8 26 -17 52 -21 57
-10 13 -20 81 -26 175 l-5 75 -25 23 c-26 25 -54 23 -54 -3 0 -27 -17 -16 -23
15 -8 35 -25 38 -50 7z m113 -947 c0 -5 -4 -10 -10 -10 -5 0 -10 5 -10 10 0 6
5 10 10 10 6 0 10 -4 10 -10z m-160 -1415 c0 -16 -7 -28 -17 -31 -10 -3 -26
-10 -35 -15 -36 -19 -48 -11 -48 31 l0 40 50 0 50 0 0 -25z"/>
</g>
</svg>
