<?xml version="1.0" standalone="no"?>
<!DOCTYPE svg PUBLIC "-//W3C//DTD SVG 20010904//EN"
 "http://www.w3.org/TR/2001/REC-SVG-20010904/DTD/svg10.dtd">
<svg version="1.0" xmlns="http://www.w3.org/2000/svg"
 width="392.000000pt" height="356.035611pt" viewBox="0 0 392.000000 356.035611"
 preserveAspectRatio="xMidYMid meet">
<metadata>
Created by Potrace Professional 1.0m
</metadata>
<g transform="translate(-2.000000,356.035611) rotate(-360.00) scale(0.100000,-0.100000)"
fill="#000000" stroke="none">
<path d="M3663 3540 c-3 -11 -12 -20 -20 -20 -24 0 -83 -72 -83 -102 0 -15 -4
-30 -10 -33 -5 -3 -10 -24 -10 -45 0 -21 5 -42 10 -45 6 -3 10 -15 10 -25 0
-19 51 -76 88 -97 26 -15 172 -18 172 -3 0 6 7 10 16 10 28 0 84 83 84 126 0
12 5 26 10 29 6 3 10 31 10 61 0 41 -5 60 -20 76 -11 12 -20 28 -20 35 0 7
-11 13 -24 13 -14 0 -28 5 -31 10 -3 6 -37 10 -76 10 -39 0 -69 4 -69 10 0 19
-32 10 -37 -10z"/>
<path d="M3180 3230 c0 -5 -6 -10 -14 -10 -7 0 -37 -22 -66 -50 -29 -27 -54
-50 -56 -50 -2 0 -4 8 -4 19 0 11 -9 21 -22 25 -33 9 -35 8 -58 -16 -16 -17
-20 -35 -20 -85 0 -35 -4 -63 -10 -63 -5 0 -10 -7 -10 -15 0 -17 -63 -85 -79
-85 -5 0 -32 -22 -60 -50 -28 -27 -55 -50 -60 -50 -6 0 -18 -13 -27 -29 -10
-16 -29 -35 -43 -43 -14 -7 -33 -20 -41 -28 -8 -8 -31 -27 -50 -41 -20 -15
-66 -56 -103 -93 -38 -36 -75 -66 -83 -66 -8 0 -14 -4 -14 -9 0 -11 -49 -21
-55 -10 -3 4 -1 10 5 14 5 3 10 15 10 26 0 10 5 19 10 19 6 0 10 18 10 39 0
22 5 43 10 46 6 3 10 17 10 31 0 13 5 24 10 24 6 0 10 9 10 20 0 11 -4 20 -10
20 -15 0 -12 38 3 43 18 6 -51 67 -85 74 -15 3 -28 9 -28 14 0 5 -40 9 -90 9
-53 0 -90 -4 -90 -10 0 -5 -7 -10 -15 -10 -9 0 -18 -7 -21 -15 -3 -8 -24 -33
-45 -56 -41 -44 -43 -49 -39 -116 2 -48 -4 -51 -40 -25 l-25 17 -134 0 c-99 0
-135 -3 -139 -12 -2 -7 -19 -13 -37 -13 -19 0 -46 -5 -60 -12 -18 -8 -31 -8
-48 -1 -24 12 -102 12 -113 0 -4 -4 -29 -7 -55 -7 -26 0 -51 -4 -54 -10 -3 -5
-21 -10 -40 -10 -19 0 -37 -4 -40 -10 -3 -5 -26 -10 -51 -10 -24 0 -44 -4 -44
-10 0 -5 -13 -10 -28 -10 -15 0 -45 -9 -67 -20 -23 -12 -59 -20 -87 -20 -26 0
-50 -4 -53 -10 -3 -5 -24 -10 -46 -10 -21 0 -39 -4 -39 -10 0 -5 -9 -10 -20
-10 -11 0 -20 -4 -20 -10 0 -5 -6 -10 -12 -10 -7 0 -29 -14 -48 -30 -19 -16
-41 -30 -47 -30 -7 0 -13 -9 -13 -20 l0 -20 40 0 c22 0 40 -4 40 -10 0 -22
174 -4 206 22 7 5 98 9 203 8 105 0 191 4 191 9 0 29 267 22 278 -8 3 -9 14
-22 24 -29 31 -22 16 -92 -20 -92 -13 0 -222 -205 -222 -218 0 -5 -24 -34 -52
-63 -52 -53 -88 -79 -108 -79 -12 0 -100 -88 -100 -100 0 -4 -12 -16 -27 -25
-34 -23 -88 -77 -102 -103 -6 -11 -11 -35 -11 -52 0 -24 -10 -41 -40 -70 -22
-21 -40 -42 -40 -47 0 -4 -14 -24 -30 -43 -16 -19 -30 -39 -30 -43 0 -13 -93
-97 -107 -97 -7 0 -13 -4 -13 -10 0 -5 -6 -10 -13 -10 -7 0 -23 -9 -35 -20
-12 -11 -26 -20 -32 -20 -25 0 -73 -36 -83 -62 -3 -10 -11 -18 -17 -18 -15 0
-40 -25 -40 -39 0 -6 -13 -25 -30 -43 -16 -17 -30 -35 -30 -40 0 -5 -22 -31
-50 -58 -27 -27 -50 -53 -50 -58 0 -14 -128 -142 -142 -142 -13 0 -38 -44 -38
-67 0 -7 -4 -13 -10 -13 -5 0 -10 -13 -10 -30 0 -16 -4 -30 -10 -30 -5 0 -10
-13 -10 -30 0 -16 -4 -30 -10 -30 -5 0 -10 -11 -10 -24 0 -14 -4 -28 -10 -31
-5 -3 -10 -15 -10 -26 0 -10 -4 -19 -10 -19 -6 0 -10 -30 -10 -70 l0 -70 34 0
c26 0 43 9 70 36 20 20 36 42 36 50 0 8 4 14 8 14 5 0 15 12 23 28 8 15 16 29
19 32 3 3 16 25 29 50 14 25 41 61 60 80 20 19 42 47 50 61 7 15 25 33 40 40
14 8 52 40 83 71 31 32 61 58 66 58 5 0 17 11 26 24 9 14 59 68 112 120 68 68
103 96 120 96 13 0 24 5 24 10 0 6 9 10 20 10 11 0 20 5 20 10 0 6 7 10 15 10
8 0 42 27 76 60 35 33 65 58 67 55 3 -3 -5 -13 -16 -24 -12 -10 -22 -26 -22
-35 0 -9 -4 -16 -10 -16 -5 0 -10 -7 -10 -15 0 -8 -9 -19 -20 -25 -11 -6 -20
-17 -20 -25 0 -8 -4 -15 -10 -15 -5 0 -10 -6 -10 -13 0 -17 -99 -119 -133
-136 -15 -8 -27 -18 -27 -23 0 -4 -7 -8 -16 -8 -16 0 -97 -78 -141 -138 -16
-20 -39 -48 -53 -62 -14 -14 -31 -37 -39 -52 -8 -16 -18 -28 -23 -28 -4 0 -8
-7 -8 -16 0 -9 -13 -28 -28 -42 -16 -15 -31 -35 -35 -44 -3 -9 -31 -34 -62
-54 -33 -22 -55 -44 -55 -55 0 -10 -4 -21 -10 -24 -14 -8 -13 -99 2 -147 9
-31 9 -44 0 -59 -15 -23 -16 -59 -2 -59 6 0 10 -24 10 -52 1 -65 16 -88 60
-88 23 0 39 8 56 27 13 16 24 33 24 38 0 6 9 16 20 23 15 9 20 23 20 59 0 44
12 98 31 135 5 10 9 24 9 31 0 26 25 66 50 79 13 7 81 69 150 137 69 68 141
135 160 150 41 30 80 72 80 85 0 12 250 256 262 256 5 0 36 27 69 60 32 33 67
60 77 60 19 0 87 54 147 118 22 23 64 68 93 98 28 31 52 60 52 65 0 13 72 79
87 79 7 0 13 4 13 8 0 5 12 15 27 23 34 17 121 102 153 149 13 19 32 42 42 51
10 9 18 21 18 27 0 14 160 174 190 190 14 7 39 32 57 56 18 23 64 74 103 114
38 39 70 77 70 85 0 7 11 20 25 27 14 7 25 17 25 22 0 5 23 32 50 61 28 29 58
60 67 69 9 10 29 23 45 30 15 7 28 16 28 20 0 5 8 8 19 8 20 0 181 164 181
184 0 6 9 18 20 26 11 8 20 19 20 25 0 6 8 20 18 31 9 10 33 40 52 66 19 26
47 53 63 60 15 7 27 16 27 20 0 5 7 8 15 8 18 0 51 18 79 43 43 39 105 77 125
77 12 0 21 5 21 10 0 6 11 10 24 10 13 0 29 7 36 15 l12 15 -16 25 c-9 13 -16
38 -16 55 0 23 -4 30 -20 30 -12 0 -20 7 -20 16 0 19 -24 44 -42 44 -8 0 -20
9 -28 20 -15 21 -30 26 -30 10z"/>
</g>
</svg>
