<?xml version="1.0" standalone="no"?>
<!DOCTYPE svg PUBLIC "-//W3C//DTD SVG 20010904//EN"
 "http://www.w3.org/TR/2001/REC-SVG-20010904/DTD/svg10.dtd">
<svg version="1.0" xmlns="http://www.w3.org/2000/svg"
 width="847.912273pt" height="117.975136pt" viewBox="0 0 847.912273 117.975136"
 preserveAspectRatio="xMidYMid meet">
<metadata>
Created by Potrace Professional 1.0m
</metadata>
<g transform="translate(-0.087727,117.993562) rotate(-360.00) scale(0.100000,-0.100000)"
fill="#000000" stroke="none">
<path d="M6537 1146 c-25 -22 -37 -42 -37 -60 0 -14 -4 -26 -10 -26 -5 0 -10
-9 -10 -20 0 -11 -6 -20 -14 -20 -7 0 -27 -13 -44 -30 -18 -16 -35 -30 -39
-30 -15 0 -63 -47 -63 -62 0 -27 24 -38 87 -38 44 0 73 6 98 20 26 15 54 20
105 20 39 0 70 -3 70 -7 0 -8 48 -33 63 -33 13 0 40 -30 33 -37 -10 -11 -190
-3 -197 9 -11 17 -251 -5 -394 -37 -38 -8 -82 -15 -97 -15 -16 0 -28 -4 -28
-9 0 -5 -37 -12 -82 -15 -108 -7 -231 -21 -288 -34 -25 -6 -57 -8 -72 -5 -16
3 -34 0 -42 -7 -12 -9 -23 -9 -51 1 -27 10 -38 10 -47 1 -7 -7 -39 -12 -75
-12 l-63 0 0 -20 c0 -16 -7 -20 -33 -20 -18 0 -42 -8 -53 -18 -10 -10 -27 -21
-36 -25 -10 -3 -18 -12 -18 -19 0 -12 -92 -98 -105 -98 -3 0 -30 -16 -60 -36
-38 -25 -55 -43 -55 -58 0 -31 50 -50 108 -42 26 4 76 9 112 12 64 5 108 19
122 38 8 12 192 16 210 5 8 -5 7 -11 -3 -22 -20 -19 -140 -77 -161 -77 -9 0
-20 -4 -23 -10 -3 -5 -15 -10 -26 -10 -10 0 -19 -4 -19 -10 0 -5 -9 -10 -20
-10 -11 0 -20 -4 -20 -10 0 -5 -13 -10 -30 -10 -16 0 -30 -4 -30 -10 0 -5 -15
-10 -33 -10 -18 0 -37 -4 -42 -8 -18 -15 -85 -33 -137 -38 -105 -8 -168 -30
-168 -56 0 -21 31 -38 70 -38 29 0 42 -5 47 -17 10 -25 29 -43 46 -43 9 0 17
-5 19 -11 5 -15 131 -14 136 0 2 6 12 11 23 11 10 0 19 5 19 10 0 6 9 10 20
10 11 0 20 5 20 10 0 6 11 10 24 10 14 0 28 4 31 10 3 5 24 10 46 10 21 0 39
5 39 10 0 6 9 10 19 10 11 0 23 4 26 10 3 5 21 10 40 10 19 0 37 5 40 10 3 6
17 10 31 10 13 0 24 4 24 9 0 9 37 15 148 27 28 3 52 10 52 15 0 5 7 9 15 9 9
0 18 7 22 15 9 26 71 45 144 45 37 0 71 5 74 10 3 6 19 10 35 10 16 0 32 5 35
10 3 6 15 10 27 10 11 0 33 14 48 30 15 17 35 30 43 30 9 0 17 6 20 13 3 8 11
5 24 -11 11 -12 31 -22 44 -22 49 1 123 28 149 53 23 23 80 38 80 22 0 -9 -48
-55 -58 -55 -5 0 -14 -12 -21 -26 -17 -38 0 -55 42 -43 18 5 43 9 57 9 16 0
43 17 75 48 55 51 86 72 110 72 8 0 15 4 15 8 0 12 46 32 73 32 13 0 29 -9 37
-20 8 -11 20 -20 26 -20 7 0 30 -17 51 -38 21 -21 50 -44 66 -51 15 -8 27 -18
27 -23 0 -4 9 -8 19 -8 11 0 23 -5 26 -10 3 -6 17 -10 31 -10 13 0 24 -4 24
-10 0 -6 47 -10 120 -10 73 0 120 -4 120 -10 0 -5 6 -10 13 -10 7 0 23 -9 35
-20 12 -11 28 -20 37 -20 8 0 15 -4 15 -10 0 -5 9 -10 20 -10 11 0 20 -4 20
-10 0 -5 9 -10 20 -10 11 0 20 -4 20 -10 0 -5 7 -10 15 -10 9 0 27 -11 41 -25
32 -32 69 -41 109 -26 17 6 48 11 68 11 24 0 46 8 62 22 31 26 33 58 5 58 -11
0 -20 5 -20 10 0 14 -37 12 -44 -2 l-6 -13 -6 13 c-3 6 -18 12 -33 12 -15 0
-33 9 -41 20 -8 11 -20 20 -28 20 -7 0 -22 9 -34 20 l-22 20 17 0 c9 0 17 -4
17 -10 0 -5 9 -10 20 -10 11 0 20 -4 20 -9 0 -10 68 -20 88 -13 21 7 14 42 -8
42 -11 0 -20 5 -20 10 0 6 -13 10 -29 10 -16 0 -31 3 -33 8 -4 9 -57 41 -80
49 -10 3 -18 9 -18 14 0 5 -8 9 -18 9 -10 0 -24 9 -32 20 -8 11 -22 20 -32 20
-10 0 -18 5 -18 10 0 6 -7 10 -16 10 -8 0 -29 13 -47 30 -18 16 -37 30 -42 30
-6 0 -17 9 -25 20 -8 11 -20 20 -26 20 -10 0 -24 21 -24 36 0 9 129 3 135 -6
3 -5 17 -10 30 -10 18 0 55 -30 133 -107 109 -109 139 -133 167 -133 8 0 15
-4 15 -10 0 -5 18 -10 39 -10 22 0 43 -4 46 -10 3 -5 15 -10 25 -10 10 0 50
-31 89 -69 53 -53 72 -79 77 -107 5 -25 3 -39 -5 -42 -6 -2 -11 -15 -11 -28
l0 -24 29 0 c57 0 91 12 91 31 0 11 5 19 10 19 6 0 10 -13 10 -30 0 -23 4 -30
20 -30 11 0 20 -4 20 -10 0 -15 50 -12 66 5 l15 14 -12 23 c-24 45 -29 58 -29
69 0 6 -18 28 -40 49 -22 21 -40 44 -40 51 0 6 -8 19 -18 28 -9 9 -23 28 -31
42 -8 16 -25 29 -41 32 -15 4 -54 31 -86 62 -32 30 -62 55 -67 55 -11 0 -37
26 -37 38 0 5 -7 23 -16 40 -8 18 -13 36 -10 41 7 11 87 3 101 -10 5 -5 23 -9
40 -9 17 0 35 -4 40 -9 6 -5 28 -11 50 -14 71 -10 110 -18 130 -28 11 -5 63
-16 115 -23 52 -8 107 -18 123 -22 l27 -6 0 19 c0 10 -15 33 -33 51 l-33 32
-52 0 c-48 0 -102 16 -102 29 0 4 -18 7 -40 8 -23 1 -55 6 -73 12 -18 5 -66
15 -107 22 -41 7 -79 16 -85 21 -5 4 -21 8 -36 8 -15 0 -31 4 -34 10 -3 6 -22
10 -41 10 -24 0 -43 8 -60 25 -54 54 -157 114 -196 115 -16 0 -28 4 -28 8 0 4
-21 9 -47 10 -26 1 -49 5 -52 9 -3 5 -16 14 -28 21 -13 6 -33 18 -45 25 -13 6
-30 20 -39 30 -9 9 -24 17 -33 17 -9 0 -16 5 -16 10 0 6 -6 10 -14 10 -7 0
-26 12 -42 28 -31 29 -73 46 -139 58 -22 3 -51 12 -65 19 -39 19 -94 35 -123
35 -14 0 -29 5 -32 10 -3 6 -19 10 -35 10 -16 0 -32 5 -35 10 -3 6 -31 10 -61
10 -30 0 -54 5 -54 10 0 6 -13 10 -30 10 -16 0 -30 5 -30 10 0 6 -9 10 -20 10
-11 0 -20 5 -20 10 0 20 -27 9 -63 -24z m-117 -596 c0 -5 -4 -10 -10 -10 -5 0
-10 5 -10 10 0 6 5 10 10 10 6 0 10 -4 10 -10z m-40 -17 c0 -11 -72 -73 -85
-73 -8 0 -15 -6 -18 -12 -2 -7 -8 -10 -12 -6 -10 9 60 78 80 78 8 0 15 5 15
10 0 6 5 10 10 10 6 0 10 -3 10 -7z m200 -43 c0 -5 -4 -10 -10 -10 -5 0 -10 5
-10 10 0 6 5 10 10 10 6 0 10 -4 10 -10z m692 -10 c12 -11 28 -20 35 -20 7 0
13 -4 13 -10 0 -5 7 -10 16 -10 9 0 24 -8 33 -18 9 -9 28 -23 44 -31 15 -8 27
-18 27 -23 0 -4 9 -8 20 -8 11 0 20 -4 20 -10 0 -5 -9 -10 -20 -10 -11 0 -20
5 -20 10 0 6 -13 10 -29 10 -17 0 -33 5 -36 10 -3 6 -15 10 -27 10 -22 0 -108
85 -108 107 0 18 7 16 32 -7z"/>
<path d="M6720 1150 c0 -5 9 -10 21 -10 11 0 17 5 14 10 -3 6 -13 10 -21 10
-8 0 -14 -4 -14 -10z"/>
<path d="M835 398 l-10 -23 -90 -8 c-49 -4 -91 -12 -93 -18 -2 -5 -17 -9 -33
-9 -16 0 -29 -4 -29 -10 0 -5 -9 -10 -20 -10 -11 0 -20 -4 -20 -10 0 -5 -11
-10 -25 -10 -14 0 -25 5 -25 10 0 6 7 10 15 10 8 0 15 8 15 19 0 30 -46 41
-165 39 l-110 -1 -16 -19 c-9 -10 -24 -18 -33 -18 -18 0 -23 -54 -6 -65 13 -8
13 -55 0 -55 -5 0 -10 -8 -10 -18 0 -31 -72 -82 -117 -82 -14 0 -34 -7 -44
-16 l-18 -16 14 -14 c17 -18 116 -19 134 -1 8 8 45 11 124 9 99 -2 233 13 247
28 8 9 63 40 103 58 20 9 37 20 37 24 0 13 78 9 83 -4 2 -9 33 -13 103 -14 66
0 114 -6 144 -17 25 -9 53 -17 63 -17 26 0 49 26 45 52 -2 18 -11 24 -38 26
-19 2 -37 7 -40 10 -9 12 -49 32 -63 32 -27 0 -57 49 -57 91 0 62 -44 94 -65
47z"/>
</g>
</svg>
