<?xml version="1.0" standalone="no"?>
<!DOCTYPE svg PUBLIC "-//W3C//DTD SVG 20010904//EN"
 "http://www.w3.org/TR/2001/REC-SVG-20010904/DTD/svg10.dtd">
<svg version="1.0" xmlns="http://www.w3.org/2000/svg"
 width="407.829616pt" height="219.985359pt" viewBox="0 0 407.829616 219.985359"
 preserveAspectRatio="xMidYMid meet">
<metadata>
Created by Potrace Professional 1.0m
</metadata>
<g transform="translate(-0.279618,220.000000) rotate(-360.00) scale(0.100000,-0.100000)"
fill="#000000" stroke="none">
<path d="M2740 2190 c0 -5 -13 -10 -30 -10 -16 0 -30 -4 -30 -10 0 -5 -9 -10
-19 -10 -17 0 -46 -12 -123 -51 -10 -5 -24 -9 -31 -9 -18 0 -67 -23 -67 -32 0
-5 -13 -8 -28 -8 -16 0 -32 -3 -36 -7 -7 -8 -12 -9 -53 -11 -32 -3 -29 -29 7
-62 17 -15 30 -35 30 -44 0 -9 5 -16 10 -16 6 0 10 -6 10 -13 0 -7 9 -23 20
-35 11 -12 20 -24 20 -27 0 -3 -30 -5 -68 -3 -75 2 -132 -17 -132 -44 0 -9 5
-20 10 -23 6 -3 10 -17 10 -31 0 -13 -4 -24 -10 -24 -14 0 -12 -37 3 -43 9 -4
8 -8 -3 -16 l-15 -11 14 -9 14 -9 -16 -16 c-8 -9 -27 -16 -41 -16 l-26 0 -1
-42 c-1 -24 -1 -51 0 -60 3 -25 -4 -23 -41 12 -17 16 -35 30 -40 30 -11 0
-148 138 -148 149 0 5 -16 26 -36 47 -20 22 -43 49 -51 62 -8 12 -22 22 -29
22 -8 0 -14 7 -14 15 0 9 -31 47 -68 84 -38 38 -72 76 -75 85 -7 18 -23 21
-32 6 -3 -5 -1 -10 4 -10 6 0 11 -11 11 -26 0 -24 58 -146 73 -152 4 -2 7 -11
7 -19 0 -9 8 -23 18 -32 19 -18 51 -67 59 -93 3 -10 9 -18 14 -18 5 0 9 -7 9
-15 0 -9 29 -45 63 -80 l64 -65 42 0 c31 0 43 -5 47 -17 4 -10 12 -32 20 -49
16 -38 8 -74 -17 -74 -11 0 -19 -4 -19 -10 0 -5 -9 -10 -20 -10 -11 0 -20 -4
-20 -10 0 -5 -11 -10 -24 -10 -12 0 -37 -5 -55 -11 l-32 -11 -18 21 c-10 12
-26 21 -35 21 -9 0 -16 5 -16 10 0 6 -9 10 -20 10 -11 0 -20 4 -20 9 0 6 -50
9 -117 9 -81 -1 -118 2 -121 10 -2 7 -21 12 -42 12 -21 0 -42 5 -45 10 -3 6
-22 10 -41 10 -19 0 -34 -4 -34 -10 0 -5 -20 -10 -44 -10 -25 0 -48 -4 -51
-10 -9 -14 -290 -13 -318 1 -31 16 -87 76 -87 94 0 8 -4 15 -10 15 -5 0 -10
10 -10 22 0 12 -12 35 -27 50 -27 28 -53 37 -53 18 0 -15 -30 -12 -47 6 l-16
16 13 8 13 8 -16 16 c-8 9 -20 16 -25 16 -24 0 -102 93 -102 121 0 6 -14 24
-31 40 -32 29 -35 53 -14 102 5 13 2 17 -14 17 -12 0 -21 -3 -21 -8 0 -9 -94
-32 -132 -32 -15 0 -30 -5 -33 -10 -3 -5 -15 -10 -26 -10 -28 0 -57 -19 -110
-72 -26 -27 -53 -48 -59 -48 -13 0 -90 -77 -107 -108 -8 -13 -9 -23 -3 -27 6
-3 10 -17 10 -31 0 -14 7 -32 15 -41 l16 -15 18 16 c22 20 31 20 31 1 0 -8 -5
-15 -11 -15 -5 0 -7 -4 -4 -10 3 -5 26 -10 51 -10 24 0 44 -3 44 -8 0 -15 -71
-72 -90 -72 -10 0 -22 -4 -25 -10 -3 -5 -19 -10 -36 -10 -22 0 -29 -5 -29 -19
0 -11 -6 -21 -12 -23 -15 -5 6 -30 35 -41 13 -5 17 -18 17 -52 0 -25 5 -45 10
-45 6 0 10 -13 10 -30 0 -16 5 -30 10 -30 6 0 10 -7 10 -16 0 -15 23 -44 34
-44 3 0 6 9 6 20 0 11 3 20 6 20 14 0 34 -31 34 -54 0 -14 5 -26 10 -26 6 0
10 -8 10 -18 0 -10 9 -24 20 -32 11 -8 20 -22 20 -32 0 -10 5 -18 10 -18 20 0
9 -15 -20 -28 -22 -10 -30 -21 -30 -39 0 -46 22 -55 118 -51 l87 3 10 -22 c8
-18 18 -23 47 -23 21 0 38 -4 38 -8 0 -5 -31 -38 -70 -74 -52 -49 -70 -73 -70
-92 0 -14 -4 -26 -10 -26 -13 0 -13 -57 0 -65 6 -4 10 -53 10 -114 l0 -108 44
-46 c50 -54 96 -65 96 -24 0 13 5 28 11 34 8 8 8 13 0 17 -6 4 -11 14 -11 22
0 20 -24 44 -44 44 -9 0 -16 8 -16 20 0 11 -4 20 -10 20 -18 0 -11 151 9 184
29 50 40 44 39 -21 l-1 -58 31 -57 c18 -31 32 -63 32 -72 0 -9 5 -16 10 -16 6
0 10 -7 10 -16 0 -8 6 -22 14 -30 17 -16 46 -19 46 -4 0 6 16 10 35 10 19 0
44 5 55 12 51 32 34 -56 -23 -118 -55 -59 -87 -74 -163 -74 -35 0 -66 -4 -69
-10 -3 -5 -22 -10 -41 -10 -19 0 -34 -4 -34 -10 0 -5 -16 -10 -36 -10 -19 0
-43 -7 -52 -16 l-16 -17 23 -18 c15 -12 31 -17 46 -13 13 3 26 1 29 -5 9 -15
135 -14 194 1 35 8 47 9 50 0 3 -9 249 -12 970 -13 532 0 992 -2 1022 -4 30
-2 343 -7 695 -11 459 -4 644 -9 654 -17 11 -9 15 -9 18 1 3 6 13 12 23 12 23
0 34 74 17 110 l-12 25 -130 3 c-117 2 -175 12 -175 32 0 3 13 13 29 23 39 23
91 72 91 86 0 29 32 21 69 -18 43 -45 71 -53 71 -20 0 23 -54 79 -77 79 l-15
0 7 42 c4 24 11 48 16 53 4 6 9 49 11 95 l3 85 28 3 c20 2 27 -1 27 -13 0 -21
24 -45 44 -45 11 0 16 9 16 30 0 17 5 30 10 30 15 0 12 66 -4 79 -14 12 -46 5
-46 -10 0 -5 -22 -9 -50 -9 l-50 0 0 20 c0 20 9 24 44 20 10 -1 28 3 40 8 12
6 29 13 39 16 26 8 23 64 -5 89 -16 13 -19 21 -10 24 7 3 12 24 12 54 0 27 4
49 8 49 5 0 14 51 21 114 10 88 18 120 33 135 l19 21 -15 15 c-8 8 -24 15 -36
15 -21 0 -60 16 -70 29 -3 4 -21 18 -40 31 -51 35 -89 79 -108 122 -9 21 -20
38 -24 38 -5 0 -8 8 -8 18 0 10 -9 24 -20 32 -11 8 -20 20 -20 28 0 7 -9 22
-20 34 -11 12 -20 28 -20 35 0 7 -4 13 -10 13 -5 0 -10 9 -10 20 0 11 -4 20
-10 20 -5 0 -10 9 -10 20 0 11 -4 20 -10 20 -5 0 -10 9 -10 20 0 11 -4 20 -10
20 -5 0 -10 9 -10 19 0 11 -4 23 -10 26 -5 3 -10 17 -10 31 0 13 -4 24 -10 24
-5 0 -10 9 -10 20 0 11 -4 20 -10 20 -5 0 -10 11 -10 24 0 14 -4 27 -9 30 -5
3 -19 27 -31 52 -12 26 -28 53 -35 60 -16 16 -85 19 -85 4 0 -6 -57 -10 -150
-10 -82 0 -150 4 -150 9 0 5 -19 11 -42 15 -85 10 -118 18 -118 27 0 5 -6 9
-14 9 -17 0 -100 42 -104 53 -2 4 -12 7 -22 7 -10 0 -22 5 -25 10 -3 6 -13 10
-21 10 -8 0 -14 -4 -14 -10z m-980 -340 c0 -5 -4 -10 -10 -10 -5 0 -10 5 -10
10 0 6 5 10 10 10 6 0 10 -4 10 -10z m96 -116 c46 -47 84 -90 84 -96 0 -5 18
-27 40 -48 41 -39 52 -70 26 -70 -8 0 -18 5 -21 10 -3 6 -13 10 -22 10 -19 0
-123 107 -123 126 0 8 -4 14 -10 14 -5 0 -10 6 -10 13 0 6 -9 23 -20 37 -11
14 -20 35 -20 48 0 12 -4 22 -10 22 -5 0 -10 5 -10 10 0 19 11 10 96 -76z
m424 -224 c0 -5 -4 -10 -10 -10 -5 0 -10 5 -10 10 0 6 5 10 10 10 6 0 10 -4
10 -10z m-180 -195 c0 -3 -9 -15 -20 -27 -11 -12 -20 -28 -20 -35 0 -7 -4 -13
-10 -13 -5 0 -10 -9 -10 -19 0 -11 5 -23 10 -26 6 -3 10 -26 10 -51 0 -24 -4
-44 -10 -44 -5 0 -10 -10 -10 -22 0 -39 -42 -78 -84 -78 -20 0 -36 5 -36 10 0
6 -13 10 -30 10 l-30 0 0 -30 c0 -16 5 -30 10 -30 6 0 10 -14 10 -32 0 -37 25
-68 55 -68 11 0 25 -4 30 -9 10 -9 58 -17 168 -27 l59 -6 27 -29 c17 -18 38
-29 55 -29 28 0 33 -9 14 -28 -29 -29 -137 -5 -168 38 -32 45 -100 35 -100
-14 0 -12 -10 -16 -34 -16 -19 0 -38 5 -41 10 -3 6 -15 10 -25 10 -10 0 -20 3
-22 8 -1 4 -25 18 -53 31 -27 13 -66 31 -85 40 -33 16 -56 61 -31 61 7 0 11
36 11 100 0 55 3 100 6 100 4 0 21 -15 38 -32 l31 -33 38 1 c29 1 46 9 66 30
l26 29 -3 55 c-1 30 -4 64 -5 74 -1 14 7 23 28 30 17 6 37 19 46 28 9 10 24
18 33 18 9 0 16 5 16 10 0 6 9 10 20 10 11 0 20 -2 20 -5z m-1652 -147 c18
-18 15 -28 -8 -28 -13 0 -20 7 -20 20 0 23 10 26 28 8z m1778 -62 c16 -16 20
-126 5 -126 -5 0 -11 24 -13 53 -2 28 -8 60 -12 70 -10 21 0 22 20 3z m-1774
-78 c12 -7 28 -18 35 -25 15 -14 17 -43 3 -43 -5 0 -10 5 -10 10 0 6 -18 10
-40 10 -22 0 -40 -4 -40 -10 0 -5 -13 -10 -30 -10 -16 0 -30 3 -30 6 0 8 73
73 83 74 4 0 17 -6 29 -12z m1685 -25 c6 -16 -28 -53 -48 -53 -13 0 -11 27 3
50 16 24 36 26 45 3z m123 -113 c0 -5 -4 -10 -10 -10 -5 0 -10 5 -10 10 0 6 5
10 10 10 6 0 10 -4 10 -10z m-1102 -112 c2 -21 7 -38 13 -38 5 0 9 -9 9 -19 0
-11 5 -23 10 -26 14 -9 12 -101 -2 -127 -7 -13 -39 -48 -70 -78 -65 -64 -73
-93 -39 -154 11 -19 25 -53 32 -75 7 -23 18 -41 26 -41 19 0 43 25 43 44 0 9
4 16 10 16 18 0 22 49 6 81 -9 18 -16 40 -16 51 0 23 41 88 56 88 5 0 27 15
47 34 l37 34 0 45 c0 27 -5 47 -12 50 -7 2 -10 8 -6 12 12 13 38 -15 38 -41 0
-12 5 -26 10 -29 6 -3 10 -45 10 -93 l0 -88 -31 -59 c-48 -94 -100 -157 -139
-170 -14 -4 -54 -11 -90 -16 -36 -5 -84 -11 -107 -15 -31 -4 -46 -2 -58 9 -18
18 -20 44 -4 49 14 5 16 88 2 97 -14 8 -23 60 -30 159 -3 45 -9 82 -14 82 -5
0 -9 20 -9 44 0 25 -4 48 -10 51 -5 3 -10 42 -10 86 l0 80 148 -3 147 -3 3
-37z m1610 -30 c19 -19 14 -28 -18 -28 -41 0 -40 33 1 39 3 1 10 -4 17 -11z
m280 -8 c6 0 12 -9 12 -20 l0 -20 -35 0 c-19 0 -44 6 -55 12 -16 10 -24 10
-40 0 -26 -16 -45 -15 -60 3 -22 27 -1 34 83 30 45 -2 88 -5 95 -5z m314 -12
c15 -24 8 -28 -57 -28 -69 0 -79 9 -42 35 25 18 85 14 99 -7z m98 3 c15 -28
13 -33 -12 -29 -15 2 -24 11 -26 26 -4 28 23 30 38 3z m-300 0 c0 -6 -4 -13
-10 -16 -5 -3 -10 1 -10 9 0 9 5 16 10 16 6 0 10 -4 10 -9z m605 -22 c0 -8
-10 -15 -22 -17 -25 -4 -33 22 -10 31 18 8 32 2 32 -14z m-105 1 c0 -5 -9 -10
-20 -10 -11 0 -20 5 -20 10 0 6 9 10 20 10 11 0 20 -4 20 -10z m-2972 -77 c6
-15 12 -54 12 -88 l0 -61 20 -14 c19 -14 28 -50 12 -50 -4 0 -14 9 -22 20 -15
21 -64 28 -75 10 -8 -13 -35 13 -35 34 0 9 -4 16 -10 16 -5 0 -10 9 -10 19 0
11 -5 21 -11 23 -16 5 3 40 45 84 38 40 57 42 74 7z m2332 -13 c0 -11 -4 -20
-10 -20 -5 0 -10 -6 -10 -13 0 -26 -67 -87 -95 -87 l-27 0 6 25 c3 14 9 36 12
49 l6 24 -31 7 c-17 4 -31 13 -31 21 0 11 19 14 90 14 l90 0 0 -20z m-1487
-12 c15 -7 27 -21 27 -30 0 -10 5 -18 10 -18 6 0 10 -9 10 -20 0 -11 3 -20 8
-20 23 0 44 -171 22 -185 -5 -3 -10 -14 -10 -24 0 -9 -19 -38 -42 -63 l-43
-47 -63 -12 -63 -12 -14 19 c-20 26 -18 38 5 59 11 10 20 26 20 36 0 10 4 20
8 23 5 3 9 24 10 48 1 23 7 47 12 52 6 6 10 27 10 48 0 21 5 38 10 38 6 0 10
9 10 19 0 11 5 23 10 26 6 3 10 22 10 41 0 37 10 41 53 22z m1747 0 c22 -7 40
-16 40 -20 0 -5 9 -8 19 -8 19 0 35 -23 24 -34 -4 -3 -15 -6 -25 -6 -10 0 -18
-4 -18 -10 0 -5 -10 -10 -23 -10 -13 0 -27 -4 -32 -9 -6 -4 -27 -11 -47 -14
l-38 -6 0 33 c0 18 5 47 11 65 12 35 27 38 89 19z m526 -2 c8 -8 14 -34 14
-60 l0 -46 -20 0 c-11 0 -20 4 -20 9 0 5 -12 11 -27 13 l-28 3 -3 33 c-2 18 2
40 9 48 15 18 56 18 75 0z m-1863 -20 c28 -21 21 -26 -39 -26 -50 0 -84 14
-84 34 0 12 106 5 123 -8z m207 -1 c8 -10 10 -29 6 -57 -9 -57 -9 -126 0 -163
12 -51 98 -165 124 -165 5 0 10 -4 10 -10 0 -6 -82 -10 -225 -10 l-225 0 0 50
c0 29 4 50 11 50 7 0 9 18 5 53 -3 28 -8 83 -12 120 l-6 69 125 -4 c69 -1 129
0 133 4 4 4 -7 21 -25 37 -17 16 -31 32 -31 35 0 13 98 6 110 -9z m910 -23 c0
-29 -30 -82 -46 -82 -8 0 -14 -4 -14 -10 0 -5 -7 -10 -15 -10 -22 0 -18 11 20
55 19 22 35 45 35 52 0 7 5 13 10 13 6 0 10 -8 10 -18z m620 -2 c0 -16 -7 -20
-30 -20 -23 0 -30 4 -30 20 0 16 7 20 30 20 23 0 30 -4 30 -20z m-1316 -15
l20 -15 -20 -15 c-11 -8 -41 -14 -71 -15 l-53 0 0 30 0 30 53 0 c30 -1 60 -7
71 -15z m-626 -52 c32 -73 33 -188 2 -221 -11 -12 -20 -25 -20 -29 0 -4 -7
-16 -15 -27 l-14 -18 -15 15 c-21 21 -20 40 4 57 l20 14 0 128 c0 70 4 128 8
128 5 0 18 -21 30 -47z m956 31 c69 -10 55 -24 -24 -24 -64 0 -89 10 -57 23
18 8 29 8 81 1z m146 -54 c0 -5 9 -10 20 -10 11 0 20 -5 20 -11 0 -11 28 -9
63 6 l17 7 0 -31 c0 -17 5 -31 10 -31 17 0 11 -26 -10 -45 -25 -23 -26 -55 -2
-55 23 0 83 36 104 63 10 12 18 32 18 45 0 31 34 26 38 -6 2 -12 8 -22 13 -22
5 0 9 -9 9 -20 0 -11 4 -20 8 -20 5 0 15 -12 23 -27 17 -33 34 -53 46 -53 11
0 87 -69 82 -74 -2 -2 -46 -6 -96 -8 -51 -3 -96 -8 -100 -11 -7 -8 -443 -10
-443 -2 0 3 26 31 58 64 38 39 63 74 72 102 7 24 17 48 22 54 4 5 8 28 8 52 0
24 5 43 10 43 6 0 10 -4 10 -10z m540 -4 c0 -7 -13 -27 -30 -44 -16 -18 -30
-36 -30 -40 0 -12 -39 -52 -50 -52 -21 0 -70 64 -70 90 0 32 14 40 76 40 24 0
44 5 44 10 0 6 14 10 30 10 19 0 30 -5 30 -14z m-990 -13 c-1 -13 -37 -53 -48
-53 -5 0 -23 -13 -40 -30 -18 -17 -36 -30 -41 -30 -14 0 -41 59 -41 92 l0 28
85 0 c47 0 85 -3 85 -7z m1185 -39 c22 -25 55 -61 73 -81 37 -41 42 -73 12
-73 -11 0 -20 -4 -20 -10 0 -5 -11 -10 -24 -10 -14 0 -28 -4 -31 -10 -3 -6
-24 -10 -47 -10 l-40 0 6 23 c4 12 10 66 13 120 3 53 9 97 12 97 3 -1 24 -21
46 -46z m225 26 c0 -13 -7 -20 -20 -20 -11 0 -20 5 -20 10 0 6 -9 10 -20 10
-11 0 -20 5 -20 10 0 6 18 10 40 10 l40 0 0 -20z m-1060 -24 c0 -31 -27 -96
-40 -96 -16 0 -100 88 -100 105 l0 15 70 0 70 0 0 -24z m720 -72 c0 -76 -3
-99 -17 -112 -12 -12 -18 -13 -21 -4 -2 6 -14 12 -27 12 -13 0 -27 5 -30 10
-3 6 -15 10 -26 10 -10 0 -19 2 -19 4 0 2 -2 11 -5 19 -4 8 13 34 40 62 25 27
45 52 45 57 0 16 24 37 43 38 l17 0 0 -96z m203 76 c3 -14 14 -20 31 -20 14 0
26 -4 26 -10 0 -5 7 -10 15 -10 23 0 29 -27 10 -47 -19 -19 -41 -11 -59 22 -6
10 -19 28 -28 39 -19 21 -24 46 -9 46 5 0 11 -9 14 -20z m-2823 -106 c0 -88
-10 -114 -44 -114 -22 0 -20 13 4 28 l20 12 0 80 c0 47 4 80 10 80 6 0 10 -35
10 -86z m1600 -4 c0 -53 -4 -90 -10 -90 -5 0 -10 5 -10 10 0 6 -13 10 -30 10
-16 0 -30 5 -30 10 0 6 -7 10 -16 10 -18 0 -44 24 -44 41 0 15 50 59 68 59 6
0 12 5 12 10 0 6 9 10 20 10 11 0 20 5 20 10 0 6 5 10 10 10 6 0 10 -37 10
-90z m153 29 l59 -61 -21 -19 c-11 -10 -27 -19 -35 -19 -8 0 -18 -4 -21 -10
-3 -5 -22 -10 -41 -10 l-34 0 0 59 c0 56 15 121 28 121 4 0 33 -27 65 -61z"/>
</g>
</svg>
