<?xml version="1.0" standalone="no"?>
<!DOCTYPE svg PUBLIC "-//W3C//DTD SVG 20010904//EN"
 "http://www.w3.org/TR/2001/REC-SVG-20010904/DTD/svg10.dtd">
<svg version="1.0" xmlns="http://www.w3.org/2000/svg"
 width="120.000000pt" height="275.993332pt" viewBox="0 0 120.000000 275.993332"
 preserveAspectRatio="xMidYMid meet">
<metadata>
Created by Potrace Professional 1.0m
</metadata>
<g transform="translate(-0.000000,275.993332) rotate(-360.00) scale(0.100000,-0.100000)"
fill="#000000" stroke="none">
<path d="M613 2705 c-40 -41 -53 -62 -53 -85 0 -30 16 -69 35 -82 6 -5 5 -19
-3 -40 -8 -21 -9 -34 -2 -36 5 -2 10 -16 10 -32 0 -16 6 -31 13 -34 10 -5 10
-7 0 -12 -19 -9 -16 -38 9 -80 15 -26 18 -39 10 -42 -7 -2 -12 -12 -12 -22 0
-10 -4 -21 -9 -24 -5 -3 -12 -24 -15 -46 -3 -22 -9 -58 -12 -81 -4 -24 -14
-45 -25 -52 -10 -7 -19 -16 -19 -20 0 -17 -88 -82 -98 -72 -10 10 -2 210 9
213 5 2 9 12 9 22 0 10 5 22 10 25 6 3 10 18 10 33 0 15 9 38 20 52 11 14 20
30 20 37 0 7 11 32 25 57 26 47 24 82 -4 70 -27 -11 -94 -22 -107 -17 -6 2
-15 0 -19 -6 -3 -6 -29 -11 -56 -11 -28 0 -60 -5 -72 -12 -28 -14 -67 -59 -67
-75 0 -7 -4 -13 -10 -13 -5 0 -10 -7 -10 -16 0 -9 -27 -43 -60 -76 -33 -32
-60 -64 -60 -69 0 -6 -13 -24 -30 -39 -16 -15 -30 -35 -30 -44 0 -9 -4 -16
-10 -16 -5 0 -10 -9 -10 -20 0 -11 5 -20 10 -20 6 0 10 -9 10 -20 0 -11 5 -20
10 -20 6 0 10 -6 10 -12 0 -7 14 -29 30 -48 16 -19 30 -40 30 -47 0 -6 8 -18
18 -25 9 -7 23 -25 31 -40 18 -34 56 -37 82 -7 l17 20 16 -33 16 -34 -20 -41
c-11 -23 -20 -54 -20 -68 0 -14 -5 -25 -11 -25 -13 0 -6 -263 10 -350 6 -30
13 -71 16 -90 4 -19 10 -44 15 -55 8 -19 14 -42 27 -110 7 -34 25 -55 47 -55
l15 0 5 -163 c3 -89 10 -209 16 -267 19 -190 22 -260 11 -274 -6 -7 -15 -35
-20 -61 -10 -54 1 -75 39 -75 27 0 70 43 70 70 0 13 8 24 20 27 10 3 25 18 32
34 7 16 15 29 18 29 7 0 5 189 -5 473 -6 153 -5 207 4 207 7 0 11 -22 11 -59
0 -33 4 -61 9 -63 5 -2 11 -106 15 -233 3 -126 8 -277 11 -334 l6 -105 20 -17
c10 -9 19 -25 19 -36 0 -24 80 -113 102 -113 17 0 34 72 22 92 -12 19 -4 638
7 661 7 12 9 42 5 76 -4 31 -9 80 -13 110 -4 36 -2 56 6 60 8 5 12 63 12 192
1 127 5 186 13 191 8 6 8 13 -1 28 -8 11 -13 52 -13 94 0 41 -4 78 -10 81 -5
3 -10 19 -10 35 0 16 -4 31 -9 34 -8 6 -15 34 -28 121 -3 22 -11 44 -17 48 -8
6 -8 10 2 14 6 2 12 15 12 27 0 26 21 76 33 76 4 0 7 -7 7 -16 0 -9 14 -30 30
-46 24 -23 36 -27 58 -22 15 4 29 10 32 13 3 4 25 13 50 21 53 17 60 25 53 62
l-5 28 26 0 c26 0 56 20 56 37 0 4 11 22 24 38 l24 30 20 -22 c11 -13 31 -23
46 -23 l26 0 0 25 c0 14 -13 39 -30 57 -16 17 -30 37 -30 44 0 8 -4 14 -10 14
-5 0 -10 7 -10 15 0 9 -8 19 -17 22 -21 8 -43 28 -43 40 0 16 -48 63 -64 63
-24 0 -19 19 14 50 33 31 38 55 15 64 -18 7 -52 -10 -78 -39 l-18 -19 -19 12
c-11 7 -26 12 -33 12 -7 0 -19 9 -27 20 -8 11 -22 20 -32 20 -10 0 -18 3 -18
6 0 10 53 54 65 54 19 0 35 54 35 117 0 35 -4 63 -10 63 -5 0 -10 7 -10 16 0
39 -56 64 -142 64 l-73 0 -52 -55z m367 -581 c0 -60 -47 -87 -68 -39 -18 40
-15 51 21 63 47 15 47 15 47 -24z m-716 -54 c3 -27 9 -72 12 -100 5 -34 3 -50
-5 -50 -6 0 -11 8 -11 18 0 10 -9 24 -20 32 -11 8 -20 22 -20 32 0 10 -4 18
-10 18 -18 0 -10 44 13 72 12 15 25 28 28 28 4 0 9 -22 13 -50z m277 -261 c-2
-57 -4 -105 -6 -107 -4 -5 -48 21 -57 32 -8 12 -38 -18 -38 -38 0 -9 -4 -16
-10 -16 -16 0 1 132 21 166 10 16 30 36 44 44 14 7 25 17 25 23 0 5 6 7 13 4
9 -3 11 -31 8 -108z"/>
</g>
</svg>
