<?xml version="1.0" encoding="UTF-8" ?>
<!DOCTYPE svg PUBLIC "-//W3C//DTD SVG 1.1//EN" "http://www.w3.org/Graphics/SVG/1.1/DTD/svg11.dtd">
<svg width="391pt" height="450pt" viewBox="0 0 391 450" version="1.1" xmlns="http://www.w3.org/2000/svg">
<g id="#ffffffff">
</g>
<g id="#231f20ff">
<path fill="#231f20" opacity="1.00" d=" M 154.44 0.00 L 237.29 0.00 C 238.85 6.06 241.82 12.67 248.07 15.08 C 263.25 20.89 280.19 22.97 296.11 19.09 C 306.69 16.57 316.52 11.47 325.25 5.04 C 344.70 26.18 364.10 47.35 383.54 68.49 C 386.01 71.12 388.26 73.95 391.00 76.31 L 391.00 76.66 C 388.74 79.23 387.15 82.28 385.11 85.02 C 379.87 92.43 373.52 99.03 368.84 106.84 C 358.13 123.73 353.50 144.26 355.58 164.12 C 357.11 179.22 361.04 194.24 368.27 207.64 C 380.81 231.68 386.58 258.94 386.37 285.97 C 386.68 303.04 383.82 320.54 375.71 335.73 C 369.71 347.14 360.63 356.83 349.86 363.88 C 325.02 379.37 298.74 392.54 271.52 403.32 C 246.96 413.08 223.89 426.59 203.51 443.43 C 201.08 445.50 198.43 447.39 196.52 450.00 L 195.38 450.00 C 175.63 431.65 152.12 417.61 127.54 406.73 C 102.98 396.61 78.74 385.60 55.70 372.35 C 46.57 367.03 37.15 361.89 29.59 354.39 C 16.50 342.03 8.80 324.77 6.34 307.09 C 1.88 273.62 7.81 239.01 22.44 208.63 C 30.22 193.60 34.62 176.87 35.75 160.00 C 37.21 138.02 29.98 115.83 16.48 98.50 C 10.77 91.38 5.87 83.65 0.00 76.67 L 0.00 76.31 C 22.31 52.79 44.08 28.74 66.21 5.04 C 74.84 11.51 84.62 16.57 95.15 19.08 C 111.30 23.01 128.49 20.85 143.87 14.90 C 150.02 12.43 152.46 5.77 154.44 0.00 M 158.51 6.14 C 156.92 12.45 152.53 18.11 146.37 20.50 C 134.81 24.95 122.41 27.45 110.00 27.10 C 94.77 26.89 79.88 21.65 67.26 13.25 C 47.46 34.45 27.72 55.70 8.00 76.96 C 17.11 89.95 28.17 101.82 34.47 116.57 C 42.10 133.54 43.88 152.77 40.96 171.05 C 38.89 183.69 35.53 196.26 29.64 207.69 C 27.79 212.71 25.32 217.46 23.36 222.44 C 17.23 237.60 13.24 253.64 11.66 269.93 C 10.16 285.11 10.36 300.66 14.39 315.46 C 18.21 329.98 26.17 343.49 37.54 353.37 C 44.20 359.42 52.16 363.72 59.94 368.14 C 80.23 379.58 101.47 389.27 123.06 398.00 C 149.56 408.27 174.08 423.31 195.80 441.60 C 217.58 423.19 242.25 408.13 268.86 397.81 C 291.67 388.90 313.83 378.34 334.98 366.01 C 344.16 360.85 353.18 355.05 360.17 347.06 C 370.73 335.49 376.95 320.41 378.99 304.97 C 382.79 274.47 378.13 242.88 364.96 215.05 C 355.37 195.85 349.22 174.57 349.31 152.99 C 349.37 133.50 355.98 114.24 367.51 98.57 C 372.92 91.56 377.83 84.16 382.97 76.94 C 363.38 55.73 343.83 34.47 324.23 13.27 C 317.77 17.58 310.83 21.23 303.42 23.62 C 286.85 29.10 268.67 28.06 252.14 22.93 C 247.81 21.51 243.12 20.45 239.66 17.28 C 236.22 14.37 234.06 10.31 232.48 6.17 C 207.82 6.05 183.16 6.11 158.51 6.14 Z" />
<path fill="#231f20" opacity="1.00" d=" M 163.06 12.57 C 184.79 12.49 206.51 12.66 228.23 12.49 C 231.06 18.08 235.12 23.45 241.11 25.86 C 259.30 33.04 279.66 35.86 298.87 31.34 C 307.51 29.35 315.73 25.77 323.37 21.31 C 340.57 40.05 357.81 58.75 375.06 77.44 C 368.29 87.19 360.37 96.18 354.81 106.72 C 345.25 124.43 341.53 145.07 343.64 165.03 C 345.28 182.15 350.19 198.86 357.63 214.34 C 370.05 239.90 375.70 268.71 373.77 297.06 C 372.33 313.99 366.48 331.06 354.60 343.54 C 347.67 351.23 338.51 356.26 329.82 361.66 C 329.81 302.08 329.81 242.51 329.82 182.93 C 317.06 182.91 304.29 182.92 291.53 182.93 C 291.53 249.10 291.54 315.27 291.53 381.44 C 278.65 386.90 265.83 392.51 252.94 397.95 C 252.95 326.28 252.94 254.60 252.95 182.93 C 240.22 182.92 227.48 182.92 214.75 182.93 C 214.73 261.81 214.78 340.70 214.72 419.59 C 208.15 423.93 201.78 428.58 195.80 433.71 C 189.27 429.02 182.80 424.26 176.23 419.63 C 176.10 340.73 176.21 261.83 176.17 182.93 C 163.41 182.92 150.65 182.91 137.89 182.93 C 137.90 254.42 137.89 325.91 137.90 397.40 C 125.10 392.12 112.34 386.75 99.58 381.40 C 99.65 315.26 99.56 249.11 99.62 182.97 C 86.85 182.89 74.08 182.89 61.32 182.97 C 61.37 242.54 61.34 302.12 61.34 361.69 C 53.01 356.48 44.21 351.71 37.40 344.47 C 25.70 332.72 19.45 316.45 17.91 300.12 C 15.67 275.43 18.86 250.14 28.09 227.08 C 31.41 218.39 36.23 210.34 39.30 201.55 C 46.87 180.69 50.51 157.90 46.69 135.86 C 44.09 120.57 37.61 106.03 28.34 93.62 C 24.25 88.22 20.12 82.85 16.05 77.43 C 33.49 58.76 50.86 40.02 68.27 21.32 C 82.25 29.81 98.68 34.21 115.04 33.48 C 127.02 33.06 138.80 30.20 149.97 25.97 C 155.91 23.44 160.10 18.14 163.06 12.57 M 104.95 36.27 C 103.15 41.43 101.71 46.71 100.02 51.90 C 94.56 51.95 89.10 51.85 83.64 51.98 C 87.92 55.46 92.36 58.72 96.72 62.10 C 95.21 67.41 93.23 72.60 91.97 77.99 C 96.31 74.66 100.67 71.36 104.98 67.98 C 109.54 71.34 114.07 74.75 118.62 78.13 C 117.06 72.73 115.18 67.43 113.73 62.00 C 118.32 58.72 122.84 55.34 127.36 51.96 C 121.73 51.85 116.10 51.99 110.47 51.85 C 108.62 46.66 107.19 41.29 104.95 36.27 M 150.20 36.58 C 148.41 41.64 146.97 46.81 145.32 51.91 C 139.72 51.93 134.12 51.87 128.52 51.96 C 133.05 55.39 137.64 58.74 142.22 62.11 C 140.40 67.44 138.49 72.73 136.74 78.08 C 141.32 74.79 145.78 71.33 150.34 68.00 C 154.93 71.39 159.54 74.76 164.12 78.18 C 162.33 72.80 160.43 67.46 158.66 62.08 C 163.22 58.71 167.80 55.37 172.33 51.96 C 166.70 51.85 161.07 51.98 155.45 51.87 C 153.72 46.77 152.56 41.44 150.20 36.58 M 190.20 51.96 C 184.63 51.88 179.05 51.90 173.47 51.95 C 177.94 55.40 182.51 58.71 187.01 62.13 C 185.31 67.47 183.71 72.85 181.97 78.18 C 186.40 74.79 190.86 71.43 195.25 67.99 C 199.89 71.31 204.42 74.78 209.07 78.09 C 207.43 72.77 205.79 67.44 204.11 62.12 C 208.55 58.71 213.14 55.50 217.51 51.98 C 211.96 51.86 206.42 51.91 200.88 51.95 C 198.96 46.64 197.14 41.30 195.38 35.94 C 193.51 41.23 192.03 46.66 190.20 51.96 M 235.16 51.98 C 229.73 51.88 224.29 51.85 218.86 52.00 C 223.18 55.44 227.63 58.72 231.97 62.15 C 230.29 67.47 228.61 72.79 227.03 78.14 C 231.49 74.76 235.85 71.26 240.40 67.99 C 244.87 71.43 249.39 74.81 254.02 78.02 C 252.33 72.72 250.62 67.42 248.88 62.14 C 253.45 58.73 258.06 55.39 262.60 51.95 C 257.00 51.88 251.40 51.92 245.81 51.92 C 243.94 46.61 242.10 41.29 240.34 35.94 C 238.44 41.23 237.00 46.67 235.16 51.98 M 285.45 36.12 C 283.87 41.38 282.18 46.61 280.61 51.88 C 275.01 51.97 269.42 51.84 263.83 51.98 C 268.29 55.44 272.89 58.71 277.41 62.08 C 275.67 67.47 273.73 72.79 271.93 78.16 C 276.46 74.79 281.01 71.45 285.48 67.99 C 290.16 71.26 294.65 74.80 299.34 78.06 C 297.54 72.74 295.68 67.43 293.88 62.12 C 298.38 58.71 303.01 55.49 307.43 51.99 C 301.88 51.84 296.32 51.93 290.77 51.92 C 288.94 46.67 287.57 41.26 285.45 36.12 M 77.81 93.24 C 72.29 93.25 66.78 93.22 61.26 93.26 C 65.58 96.67 70.00 99.95 74.44 103.20 C 72.96 108.62 71.12 113.92 69.57 119.31 C 74.00 116.03 78.38 112.68 82.79 109.37 C 87.32 112.67 91.82 116.03 96.37 119.30 C 94.70 113.94 92.84 108.63 91.08 103.30 C 95.84 99.99 100.57 96.63 105.28 93.24 C 99.61 93.24 93.95 93.26 88.28 93.22 C 86.46 87.93 84.68 82.62 82.79 77.36 C 81.07 82.64 79.45 87.94 77.81 93.24 M 123.10 93.24 C 117.44 93.24 111.79 93.25 106.14 93.24 C 110.68 96.63 115.24 99.99 119.84 103.30 C 118.11 108.62 116.23 113.89 114.59 119.24 C 119.14 116.01 123.60 112.64 128.12 109.37 C 132.71 112.72 137.32 116.05 141.93 119.37 C 140.07 114.05 138.29 108.71 136.39 103.42 C 140.90 99.91 145.65 96.72 150.20 93.25 C 144.49 93.23 138.79 93.25 133.09 93.23 C 131.39 88.05 130.03 82.75 128.08 77.65 C 126.25 82.79 124.79 88.05 123.10 93.24 M 168.06 93.24 C 162.53 93.24 157.00 93.25 151.48 93.24 C 155.87 96.65 160.32 99.97 164.78 103.29 C 163.14 108.62 161.43 113.94 159.82 119.28 C 164.30 116.06 168.65 112.66 173.08 109.37 C 177.67 112.70 182.26 116.05 186.88 119.34 C 185.15 114.00 183.42 108.66 181.73 103.31 C 186.33 99.94 190.99 96.65 195.55 93.22 C 189.73 93.26 183.91 93.24 178.09 93.23 C 176.41 88.09 174.90 82.89 173.19 77.75 C 171.03 82.75 169.84 88.10 168.06 93.24 M 217.89 77.81 C 216.22 82.94 214.67 88.11 213.01 93.24 C 207.58 93.25 202.15 93.22 196.72 93.26 C 200.84 96.88 205.42 99.95 209.75 103.31 C 208.09 108.64 206.38 113.96 204.80 119.31 C 209.24 116.03 213.61 112.66 218.06 109.38 C 222.57 112.67 227.04 116.03 231.60 119.26 C 230.04 113.91 228.29 108.62 226.68 103.28 C 231.31 99.97 235.94 96.65 240.48 93.23 C 234.86 93.27 229.24 93.18 223.61 93.30 C 221.53 88.20 220.39 82.72 217.89 77.81 M 258.29 93.28 C 252.66 93.20 247.03 93.27 241.40 93.22 C 245.94 96.66 250.61 99.94 255.21 103.31 C 253.43 108.66 251.51 113.96 249.76 119.33 C 254.30 116.02 258.82 112.69 263.34 109.37 C 267.94 112.68 272.50 116.04 277.13 119.31 C 275.34 113.96 273.43 108.64 271.66 103.28 C 276.28 99.95 280.92 96.64 285.48 93.22 C 279.76 93.25 274.03 93.25 268.31 93.22 C 266.70 88.04 265.10 82.87 263.51 77.68 C 261.26 82.70 260.16 88.12 258.29 93.28 M 303.29 93.25 C 297.76 93.22 292.23 93.26 286.70 93.23 C 291.09 96.67 295.61 99.94 300.04 103.35 C 298.33 108.67 296.69 114.01 295.02 119.34 C 299.50 116.08 303.88 112.68 308.32 109.37 C 312.91 112.68 317.46 116.06 322.10 119.31 C 320.44 113.97 318.79 108.63 317.11 103.30 C 321.66 99.97 326.24 96.69 330.72 93.25 C 325.09 93.23 319.45 93.24 313.82 93.25 C 311.99 87.93 310.13 82.61 308.38 77.26 C 306.58 82.56 305.03 87.94 303.29 93.25 M 142.46 124.60 C 139.82 125.74 139.81 128.92 139.52 131.33 C 140.46 131.35 142.34 131.37 143.27 131.39 C 143.50 130.76 143.96 129.49 144.18 128.86 C 148.56 128.56 152.50 132.51 156.85 130.70 C 159.45 129.55 159.31 126.32 159.75 123.95 C 158.77 123.95 156.82 123.95 155.85 123.95 C 155.65 124.53 155.26 125.68 155.06 126.26 C 150.68 127.01 146.81 122.57 142.46 124.60 M 275.45 134.57 C 271.04 135.28 266.84 137.49 264.10 141.06 C 259.47 146.51 259.00 154.25 259.97 161.03 C 260.85 167.73 265.64 173.74 272.10 175.82 C 279.38 178.19 288.19 177.39 294.06 172.15 C 298.35 168.40 300.31 162.59 300.24 157.00 C 300.53 151.17 299.43 144.92 295.41 140.45 C 290.55 134.88 282.47 133.31 275.45 134.57 M 55.41 176.41 C 58.27 176.38 61.14 176.37 64.00 176.37 C 64.00 171.13 64.00 165.90 64.00 160.66 C 68.29 160.65 72.60 160.77 76.88 160.30 C 81.46 159.84 85.90 156.70 87.19 152.17 C 88.24 148.42 88.06 144.21 86.20 140.74 C 84.40 137.43 80.74 135.45 77.06 135.16 C 69.88 134.55 62.67 135.04 55.48 134.78 C 55.23 148.65 55.38 162.53 55.41 176.41 M 94.79 134.86 C 94.78 148.70 94.78 162.54 94.79 176.38 C 105.47 176.35 116.14 176.43 126.82 176.33 C 126.79 173.97 126.78 171.61 126.77 169.25 C 118.88 169.23 110.99 169.25 103.09 169.23 C 103.09 165.53 103.09 161.82 103.09 158.12 C 110.16 158.09 117.23 158.11 124.30 158.10 C 124.30 155.71 124.30 153.32 124.29 150.93 C 117.22 150.92 110.16 150.94 103.09 150.91 C 103.09 147.96 103.09 145.02 103.09 142.07 C 110.70 141.93 118.31 141.99 125.92 141.95 C 125.92 139.58 125.92 137.22 125.93 134.86 C 115.55 134.85 105.17 134.86 94.79 134.86 M 133.90 134.86 C 133.89 148.70 133.89 162.53 133.90 176.37 C 136.57 176.38 139.25 176.37 141.92 176.37 C 141.94 167.38 141.85 158.39 141.97 149.40 C 147.62 158.38 153.20 167.40 158.86 176.38 C 161.74 176.37 164.62 176.38 167.51 176.38 C 167.49 162.52 167.62 148.66 167.45 134.81 C 164.77 134.82 162.09 134.87 159.41 134.95 C 159.50 144.09 159.46 153.24 159.43 162.38 C 153.62 153.23 147.95 143.99 142.14 134.85 C 139.39 134.85 136.65 134.85 133.90 134.86 M 188.23 134.86 C 182.78 148.68 177.40 162.54 171.92 176.35 C 175.00 176.38 178.07 176.38 181.15 176.38 C 182.36 173.21 183.56 170.04 184.83 166.90 C 190.44 167.00 196.05 166.81 201.65 167.05 C 202.76 170.17 203.96 173.26 205.17 176.36 C 208.24 176.38 211.31 176.38 214.39 176.37 C 208.65 162.52 203.16 148.56 197.27 134.78 C 194.26 134.86 191.24 134.87 188.23 134.86 M 218.89 134.86 C 218.88 148.70 218.88 162.53 218.89 176.37 C 221.68 176.38 224.48 176.38 227.28 176.37 C 227.28 170.62 227.28 164.87 227.28 159.12 C 230.45 159.01 234.14 159.02 236.25 161.85 C 239.95 166.42 242.93 171.52 246.31 176.33 C 249.75 176.39 253.19 176.39 256.63 176.36 C 252.22 170.08 249.19 162.39 242.49 158.11 C 245.09 157.41 247.87 156.74 249.86 154.79 C 254.90 150.23 254.30 141.02 248.68 137.17 C 245.53 135.11 241.64 135.01 238.00 134.89 C 231.63 134.80 225.26 134.88 218.89 134.86 M 307.12 135.18 C 307.10 148.91 307.12 162.64 307.10 176.37 C 317.03 176.38 326.96 176.38 336.89 176.37 C 336.88 173.99 336.87 171.61 336.87 169.24 C 329.82 169.24 322.78 169.24 315.74 169.24 C 315.73 157.89 315.74 146.53 315.73 135.18 C 312.85 135.17 309.98 135.17 307.12 135.18 Z" />
<path fill="#231f20" opacity="1.00" d=" M 64.04 141.96 C 67.84 142.07 71.76 141.54 75.47 142.55 C 79.93 143.97 80.09 151.03 75.84 152.80 C 72.06 154.08 67.95 153.57 64.02 153.78 C 63.99 149.84 63.98 145.90 64.04 141.96 Z" />
<path fill="#231f20" opacity="1.00" d=" M 227.27 142.06 C 231.82 142.08 236.42 141.63 240.95 142.25 C 245.62 143.38 245.40 150.75 240.98 152.01 C 236.49 152.75 231.91 152.30 227.38 152.51 C 227.25 149.03 227.26 145.54 227.27 142.06 Z" />
<path fill="#231f20" opacity="1.00" d=" M 275.32 142.38 C 279.56 140.74 284.94 141.38 288.13 144.81 C 290.94 147.75 291.46 152.05 291.49 155.94 C 291.39 159.79 290.69 164.03 287.77 166.82 C 283.67 170.90 276.29 170.92 272.22 166.77 C 268.29 162.85 267.95 156.73 268.68 151.53 C 269.16 147.61 271.64 143.94 275.32 142.38 Z" />
<path fill="#231f20" opacity="1.00" d=" M 192.86 144.89 C 194.96 149.83 196.71 154.90 198.63 159.91 C 194.87 159.89 191.11 159.89 187.36 159.91 C 189.16 154.89 190.98 149.88 192.86 144.89 Z" />
</g>
<g id="#ffe600ff">
<path fill="#ffe600" opacity="1.00" d=" M 158.51 6.14 C 183.16 6.11 207.82 6.05 232.48 6.17 C 234.06 10.31 236.22 14.37 239.66 17.28 C 243.12 20.45 247.81 21.51 252.14 22.93 C 268.67 28.06 286.85 29.10 303.42 23.62 C 310.83 21.23 317.77 17.58 324.23 13.27 C 343.83 34.47 363.38 55.73 382.97 76.94 C 377.83 84.16 372.92 91.56 367.51 98.57 C 355.98 114.24 349.37 133.50 349.31 152.99 C 349.22 174.57 355.37 195.85 364.96 215.05 C 378.13 242.88 382.79 274.47 378.99 304.97 C 376.95 320.41 370.73 335.49 360.17 347.06 C 353.18 355.05 344.16 360.85 334.98 366.01 C 313.83 378.34 291.67 388.90 268.86 397.81 C 242.25 408.13 217.58 423.19 195.80 441.60 C 174.08 423.31 149.56 408.27 123.06 398.00 C 101.47 389.27 80.23 379.58 59.94 368.14 C 52.16 363.72 44.20 359.42 37.54 353.37 C 26.17 343.49 18.21 329.98 14.39 315.46 C 10.36 300.66 10.16 285.11 11.66 269.93 C 13.24 253.64 17.23 237.60 23.36 222.44 C 25.32 217.46 27.79 212.71 29.64 207.69 C 35.53 196.26 38.89 183.69 40.96 171.05 C 43.88 152.77 42.10 133.54 34.47 116.57 C 28.17 101.82 17.11 89.95 8.00 76.96 C 27.72 55.70 47.46 34.45 67.26 13.25 C 79.88 21.65 94.77 26.89 110.00 27.10 C 122.41 27.45 134.81 24.95 146.37 20.50 C 152.53 18.11 156.92 12.45 158.51 6.14 M 163.06 12.57 C 160.10 18.14 155.91 23.44 149.97 25.97 C 138.80 30.20 127.02 33.06 115.04 33.48 C 98.68 34.21 82.25 29.81 68.27 21.32 C 50.86 40.02 33.49 58.76 16.05 77.43 C 20.12 82.85 24.25 88.22 28.34 93.62 C 37.61 106.03 44.09 120.57 46.69 135.86 C 50.51 157.90 46.87 180.69 39.30 201.55 C 36.23 210.34 31.41 218.39 28.09 227.08 C 18.86 250.14 15.67 275.43 17.91 300.12 C 19.45 316.45 25.70 332.72 37.40 344.47 C 44.21 351.71 53.01 356.48 61.34 361.69 C 61.34 302.12 61.37 242.54 61.32 182.97 C 74.08 182.89 86.85 182.89 99.62 182.97 C 99.56 249.11 99.65 315.26 99.58 381.40 C 112.34 386.75 125.10 392.12 137.90 397.40 C 137.89 325.91 137.90 254.42 137.89 182.93 C 150.65 182.91 163.41 182.92 176.17 182.93 C 176.21 261.83 176.10 340.73 176.23 419.63 C 182.80 424.26 189.27 429.02 195.80 433.71 C 201.78 428.58 208.15 423.93 214.72 419.59 C 214.78 340.70 214.73 261.81 214.75 182.93 C 227.48 182.92 240.22 182.92 252.95 182.93 C 252.94 254.60 252.95 326.28 252.94 397.95 C 265.83 392.51 278.65 386.90 291.53 381.44 C 291.54 315.27 291.53 249.10 291.53 182.93 C 304.29 182.92 317.06 182.91 329.82 182.93 C 329.81 242.51 329.81 302.08 329.82 361.66 C 338.51 356.26 347.67 351.23 354.60 343.54 C 366.48 331.06 372.33 313.99 373.77 297.06 C 375.70 268.71 370.05 239.90 357.63 214.34 C 350.19 198.86 345.28 182.15 343.64 165.03 C 341.53 145.07 345.25 124.43 354.81 106.72 C 360.37 96.18 368.29 87.19 375.06 77.44 C 357.81 58.75 340.57 40.05 323.37 21.31 C 315.73 25.77 307.51 29.35 298.87 31.34 C 279.66 35.86 259.30 33.04 241.11 25.86 C 235.12 23.45 231.06 18.08 228.23 12.49 C 206.51 12.66 184.79 12.49 163.06 12.57 Z" />
<path fill="#ffe600" opacity="1.00" d=" M 104.95 36.27 C 107.19 41.29 108.62 46.66 110.47 51.85 C 116.10 51.99 121.73 51.85 127.36 51.96 C 122.84 55.34 118.32 58.72 113.73 62.00 C 115.18 67.43 117.06 72.73 118.62 78.13 C 114.07 74.75 109.54 71.34 104.98 67.98 C 100.67 71.36 96.31 74.66 91.97 77.99 C 93.23 72.60 95.21 67.41 96.72 62.10 C 92.36 58.72 87.92 55.46 83.64 51.98 C 89.10 51.85 94.56 51.95 100.02 51.90 C 101.71 46.71 103.15 41.43 104.95 36.27 Z" />
<path fill="#ffe600" opacity="1.00" d=" M 150.20 36.58 C 152.56 41.44 153.72 46.77 155.45 51.87 C 161.07 51.98 166.70 51.85 172.33 51.96 C 167.80 55.37 163.22 58.71 158.66 62.08 C 160.43 67.46 162.33 72.80 164.12 78.18 C 159.54 74.76 154.93 71.39 150.34 68.00 C 145.78 71.33 141.32 74.79 136.74 78.08 C 138.49 72.73 140.40 67.44 142.22 62.11 C 137.64 58.74 133.05 55.39 128.52 51.96 C 134.12 51.87 139.72 51.93 145.32 51.91 C 146.97 46.81 148.41 41.64 150.20 36.58 Z" />
<path fill="#ffe600" opacity="1.00" d=" M 190.20 51.96 C 192.03 46.66 193.51 41.23 195.38 35.94 C 197.14 41.30 198.96 46.64 200.88 51.95 C 206.42 51.91 211.96 51.86 217.51 51.98 C 213.14 55.50 208.55 58.71 204.11 62.12 C 205.79 67.44 207.43 72.77 209.07 78.09 C 204.42 74.78 199.89 71.31 195.25 67.99 C 190.86 71.43 186.40 74.79 181.97 78.18 C 183.71 72.85 185.31 67.47 187.01 62.13 C 182.51 58.71 177.94 55.40 173.47 51.95 C 179.05 51.90 184.63 51.88 190.20 51.96 Z" />
<path fill="#ffe600" opacity="1.00" d=" M 235.16 51.98 C 237.00 46.67 238.44 41.23 240.34 35.94 C 242.10 41.29 243.94 46.61 245.81 51.92 C 251.40 51.92 257.00 51.88 262.60 51.95 C 258.06 55.39 253.45 58.73 248.88 62.14 C 250.62 67.42 252.33 72.72 254.02 78.02 C 249.39 74.81 244.87 71.43 240.40 67.99 C 235.85 71.26 231.49 74.76 227.03 78.14 C 228.61 72.79 230.29 67.47 231.97 62.15 C 227.63 58.72 223.18 55.44 218.86 52.00 C 224.29 51.85 229.73 51.88 235.16 51.98 Z" />
<path fill="#ffe600" opacity="1.00" d=" M 285.45 36.12 C 287.57 41.26 288.94 46.67 290.77 51.92 C 296.32 51.93 301.88 51.84 307.43 51.99 C 303.01 55.49 298.38 58.71 293.88 62.12 C 295.68 67.43 297.54 72.74 299.34 78.06 C 294.65 74.80 290.16 71.26 285.48 67.99 C 281.01 71.45 276.46 74.79 271.93 78.16 C 273.73 72.79 275.67 67.47 277.41 62.08 C 272.89 58.71 268.29 55.44 263.83 51.98 C 269.42 51.84 275.01 51.97 280.61 51.88 C 282.18 46.61 283.87 41.38 285.45 36.12 Z" />
<path fill="#ffe600" opacity="1.00" d=" M 77.81 93.24 C 79.45 87.94 81.07 82.64 82.79 77.36 C 84.68 82.62 86.46 87.93 88.28 93.22 C 93.95 93.26 99.61 93.24 105.28 93.24 C 100.57 96.63 95.84 99.99 91.08 103.30 C 92.84 108.63 94.70 113.94 96.37 119.30 C 91.82 116.03 87.32 112.67 82.79 109.37 C 78.38 112.68 74.00 116.03 69.57 119.31 C 71.12 113.92 72.96 108.62 74.44 103.20 C 70.00 99.95 65.58 96.67 61.26 93.26 C 66.78 93.22 72.29 93.25 77.81 93.24 Z" />
<path fill="#ffe600" opacity="1.00" d=" M 123.10 93.24 C 124.79 88.05 126.25 82.79 128.08 77.65 C 130.03 82.75 131.39 88.05 133.09 93.23 C 138.79 93.25 144.49 93.23 150.20 93.25 C 145.65 96.72 140.90 99.91 136.39 103.42 C 138.29 108.71 140.07 114.05 141.93 119.37 C 137.32 116.05 132.71 112.72 128.12 109.37 C 123.60 112.64 119.14 116.01 114.59 119.24 C 116.23 113.89 118.11 108.62 119.84 103.30 C 115.24 99.99 110.68 96.63 106.14 93.24 C 111.79 93.25 117.44 93.24 123.10 93.24 Z" />
<path fill="#ffe600" opacity="1.00" d=" M 168.06 93.24 C 169.84 88.10 171.03 82.75 173.19 77.75 C 174.90 82.89 176.41 88.09 178.09 93.23 C 183.91 93.24 189.73 93.26 195.55 93.22 C 190.99 96.65 186.33 99.94 181.73 103.31 C 183.42 108.66 185.15 114.00 186.88 119.34 C 182.26 116.05 177.67 112.70 173.08 109.37 C 168.65 112.66 164.30 116.06 159.82 119.28 C 161.43 113.94 163.14 108.62 164.78 103.29 C 160.32 99.97 155.87 96.65 151.48 93.24 C 157.00 93.25 162.53 93.24 168.06 93.24 Z" />
<path fill="#ffe600" opacity="1.00" d=" M 217.89 77.81 C 220.39 82.72 221.53 88.20 223.61 93.30 C 229.24 93.18 234.86 93.27 240.48 93.23 C 235.94 96.65 231.31 99.97 226.68 103.28 C 228.29 108.62 230.04 113.91 231.60 119.26 C 227.04 116.03 222.57 112.67 218.06 109.38 C 213.61 112.66 209.24 116.03 204.80 119.31 C 206.38 113.96 208.09 108.64 209.75 103.31 C 205.42 99.95 200.84 96.88 196.72 93.26 C 202.15 93.22 207.58 93.25 213.01 93.24 C 214.67 88.11 216.22 82.94 217.89 77.81 Z" />
<path fill="#ffe600" opacity="1.00" d=" M 258.29 93.28 C 260.16 88.12 261.26 82.70 263.51 77.68 C 265.10 82.87 266.70 88.04 268.31 93.22 C 274.03 93.25 279.76 93.25 285.48 93.22 C 280.92 96.64 276.28 99.95 271.66 103.28 C 273.43 108.64 275.34 113.96 277.13 119.31 C 272.50 116.04 267.94 112.68 263.34 109.37 C 258.82 112.69 254.30 116.02 249.76 119.33 C 251.51 113.96 253.43 108.66 255.21 103.31 C 250.61 99.94 245.94 96.66 241.40 93.22 C 247.03 93.27 252.66 93.20 258.29 93.28 Z" />
<path fill="#ffe600" opacity="1.00" d=" M 303.29 93.25 C 305.03 87.94 306.58 82.56 308.38 77.26 C 310.13 82.61 311.99 87.93 313.82 93.25 C 319.45 93.24 325.09 93.23 330.72 93.25 C 326.24 96.69 321.66 99.97 317.11 103.30 C 318.79 108.63 320.44 113.97 322.10 119.31 C 317.46 116.06 312.91 112.68 308.32 109.37 C 303.88 112.68 299.50 116.08 295.02 119.34 C 296.69 114.01 298.33 108.67 300.04 103.35 C 295.61 99.94 291.09 96.67 286.70 93.23 C 292.23 93.26 297.76 93.22 303.29 93.25 Z" />
<path fill="#ffe600" opacity="1.00" d=" M 142.46 124.60 C 146.81 122.57 150.68 127.01 155.06 126.26 C 155.26 125.68 155.65 124.53 155.85 123.95 C 156.82 123.95 158.77 123.95 159.75 123.95 C 159.31 126.32 159.45 129.55 156.85 130.70 C 152.50 132.51 148.56 128.56 144.18 128.86 C 143.96 129.49 143.50 130.76 143.27 131.39 C 142.34 131.37 140.46 131.35 139.52 131.33 C 139.81 128.92 139.82 125.74 142.46 124.60 Z" />
<path fill="#ffe600" opacity="1.00" d=" M 275.45 134.57 C 282.47 133.31 290.55 134.88 295.41 140.45 C 299.43 144.92 300.53 151.17 300.24 157.00 C 300.31 162.59 298.35 168.40 294.06 172.15 C 288.19 177.39 279.38 178.19 272.10 175.82 C 265.64 173.74 260.85 167.73 259.97 161.03 C 259.00 154.25 259.47 146.51 264.10 141.06 C 266.84 137.49 271.04 135.28 275.45 134.57 M 275.32 142.38 C 271.64 143.94 269.16 147.61 268.68 151.53 C 267.95 156.73 268.29 162.85 272.22 166.77 C 276.29 170.92 283.67 170.90 287.77 166.82 C 290.69 164.03 291.39 159.79 291.49 155.94 C 291.46 152.05 290.94 147.75 288.13 144.81 C 284.94 141.38 279.56 140.74 275.32 142.38 Z" />
<path fill="#ffe600" opacity="1.00" d=" M 55.41 176.41 C 55.38 162.53 55.23 148.65 55.48 134.78 C 62.67 135.04 69.88 134.55 77.06 135.16 C 80.74 135.45 84.40 137.43 86.20 140.74 C 88.06 144.21 88.24 148.42 87.19 152.17 C 85.90 156.70 81.46 159.84 76.88 160.30 C 72.60 160.77 68.29 160.65 64.00 160.66 C 64.00 165.90 64.00 171.13 64.00 176.37 C 61.14 176.37 58.27 176.38 55.41 176.41 M 64.04 141.96 C 63.98 145.90 63.99 149.84 64.02 153.78 C 67.95 153.57 72.06 154.08 75.84 152.80 C 80.09 151.03 79.93 143.97 75.47 142.55 C 71.76 141.54 67.84 142.07 64.04 141.96 Z" />
<path fill="#ffe600" opacity="1.00" d=" M 94.79 134.86 C 105.17 134.86 115.55 134.85 125.93 134.86 C 125.92 137.22 125.92 139.58 125.92 141.95 C 118.31 141.99 110.70 141.93 103.09 142.07 C 103.09 145.02 103.09 147.96 103.09 150.91 C 110.16 150.94 117.22 150.92 124.29 150.93 C 124.30 153.32 124.30 155.71 124.30 158.10 C 117.23 158.11 110.16 158.09 103.09 158.12 C 103.09 161.82 103.09 165.53 103.09 169.23 C 110.99 169.25 118.88 169.23 126.77 169.25 C 126.78 171.61 126.79 173.97 126.82 176.33 C 116.14 176.43 105.47 176.35 94.79 176.38 C 94.78 162.54 94.78 148.70 94.79 134.86 Z" />
<path fill="#ffe600" opacity="1.00" d=" M 133.90 134.86 C 136.65 134.85 139.39 134.85 142.14 134.85 C 147.95 143.99 153.62 153.23 159.43 162.38 C 159.46 153.24 159.50 144.09 159.41 134.95 C 162.09 134.87 164.77 134.82 167.45 134.81 C 167.62 148.66 167.49 162.52 167.51 176.38 C 164.62 176.38 161.74 176.37 158.86 176.38 C 153.20 167.40 147.62 158.38 141.97 149.40 C 141.85 158.39 141.94 167.38 141.92 176.37 C 139.25 176.37 136.57 176.38 133.90 176.37 C 133.89 162.53 133.89 148.70 133.90 134.86 Z" />
<path fill="#ffe600" opacity="1.00" d=" M 188.23 134.86 C 191.24 134.87 194.26 134.86 197.27 134.78 C 203.16 148.56 208.65 162.52 214.39 176.37 C 211.31 176.38 208.24 176.38 205.17 176.36 C 203.96 173.26 202.76 170.17 201.65 167.05 C 196.05 166.81 190.44 167.00 184.83 166.90 C 183.56 170.04 182.36 173.21 181.15 176.38 C 178.07 176.38 175.00 176.38 171.92 176.35 C 177.40 162.54 182.78 148.68 188.23 134.86 M 192.86 144.89 C 190.98 149.88 189.16 154.89 187.36 159.91 C 191.11 159.89 194.87 159.89 198.63 159.91 C 196.71 154.90 194.96 149.83 192.86 144.89 Z" />
<path fill="#ffe600" opacity="1.00" d=" M 218.89 134.86 C 225.26 134.88 231.63 134.80 238.00 134.89 C 241.64 135.01 245.53 135.11 248.68 137.17 C 254.30 141.02 254.90 150.23 249.86 154.79 C 247.87 156.74 245.09 157.41 242.49 158.11 C 249.19 162.39 252.22 170.08 256.63 176.36 C 253.19 176.39 249.75 176.39 246.31 176.33 C 242.93 171.52 239.95 166.42 236.25 161.85 C 234.14 159.02 230.45 159.01 227.28 159.12 C 227.28 164.87 227.28 170.62 227.28 176.37 C 224.48 176.38 221.68 176.38 218.89 176.37 C 218.88 162.53 218.88 148.70 218.89 134.86 M 227.27 142.06 C 227.26 145.54 227.25 149.03 227.38 152.51 C 231.91 152.30 236.49 152.75 240.98 152.01 C 245.40 150.75 245.62 143.38 240.95 142.25 C 236.42 141.63 231.82 142.08 227.27 142.06 Z" />
<path fill="#ffe600" opacity="1.00" d=" M 307.12 135.18 C 309.98 135.17 312.85 135.17 315.73 135.18 C 315.74 146.53 315.73 157.89 315.74 169.24 C 322.78 169.24 329.82 169.24 336.87 169.24 C 336.87 171.61 336.88 173.99 336.89 176.37 C 326.96 176.38 317.03 176.38 307.10 176.37 C 307.12 162.64 307.10 148.91 307.12 135.18 Z" />
</g>
</svg>
